<svg version="1.1" id="Layer_1" xmlns="http://www.w3.org/2000/svg" xmlns:xlink="http://www.w3.org/1999/xlink" x="0px" y="0px"
	 viewBox="0 0 100 100" style="enable-background:new 0 0 100 100;" xml:space="preserve">
<path d="M80.8,8.5H20c-6.2,0-11.2,5-11.2,11.2v60.8c0,6.2,5,11.2,11.2,11.2h30L50,61.9h-7.7c-1,0-1.8-0.8-1.8-1.8l0-9.6
	c0-1,0.8-1.8,1.8-1.8H50v-9.3c0-10.7,6.6-16.6,16.2-16.6H74c1,0,1.8,0.8,1.8,1.8v8.1c0,1-0.8,1.8-1.8,1.8l-4.8,0
	c-5.2,0-6.2,2.5-6.2,6.1v8h11.5c1.1,0,1.9,1,1.8,2l-1.1,9.6c-0.1,0.9-0.9,1.6-1.8,1.6H63l-0.1,29.7h17.8c6.2,0,11.2-5,11.2-11.2
	V19.7C92,13.5,87,8.5,80.8,8.5z"/>
</svg>
