<svg version="1.1" id="Layer_1" xmlns="http://www.w3.org/2000/svg" xmlns:xlink="http://www.w3.org/1999/xlink" x="0px" y="0px"
	 viewBox="0 0 100 100" style="enable-background:new 0 0 100 100;" xml:space="preserve">
<g>
	<path d="M74.7,47.5c-0.4,0-0.6,0.1-0.8,0.4c-0.1,0.3-0.2,1-0.2,2.2V57c0,1.1,0.1,1.9,0.2,2.2c0.1,0.3,0.4,0.5,0.8,0.5
		c0.4,0,1-0.2,1.1-0.5c0.1-0.3,0.2-1.1,0.2-2.4v-6.6c0-1.1-0.1-1.8-0.2-2.1C75.6,47.7,75.1,47.5,74.7,47.5z"/>
	<path d="M58,41.9c-0.3-0.2-0.8-0.2-1.5-0.2v16.9c1,0,1.5-0.2,1.8-0.6c0.2-0.4,0.3-1.4,0.3-3.2v-10c0-1.2,0-1.9-0.1-2.2
		C58.4,42.3,58.3,42.1,58,41.9z"/>
	<path d="M90,27.9H10c-2.8,0-5.2,2.3-5.2,5.2v33.9c0,2.8,2.3,5.2,5.2,5.2h80c2.8,0,5.2-2.3,5.2-5.2V33.1
		C95.2,30.2,92.8,27.9,90,27.9z M24.5,63h-6.7V37.3h6.7V63z M47.5,63h-5.8l0-17.4L39.3,63h-4.2l-2.5-17l0,17h-5.9V37.3h8.7
		c0.3,1.6,0.5,3.4,0.8,5.5l1,6.6l1.5-12h8.7V63z M65,55.4c0,2.3-0.1,3.9-0.4,4.6c-0.2,0.8-0.6,1.4-1.1,1.8c-0.5,0.5-1.2,0.7-2,0.9
		c-0.8,0.2-2,0.3-3.6,0.3h-8.1V37.3h5c3.2,0,5.1,0.1,6.2,0.5c1.1,0.3,2,0.8,2.6,1.5c0.6,0.7,1,1.4,1.1,2.3c0.1,0.8,0.2,2.5,0.2,4.9
		L65,55.4L65,55.4z M82.4,57.1c0,1.5-0.1,2.7-0.3,3.5c-0.2,0.8-0.7,1.4-1.5,2c-0.8,0.6-1.7,0.8-2.7,0.8c-0.8,0-1.7-0.2-2.4-0.5
		c-0.7-0.3-1.3-0.8-1.8-1.5L73.3,63h-6V37.3h6.4v8.4c0.5-0.6,1.1-1.1,1.8-1.4c0.7-0.3,1.6-0.5,2.4-0.5c0.9,0,1.6,0.1,2.3,0.4
		c0.6,0.3,1.1,0.7,1.5,1.2c0.3,0.5,0.5,1,0.6,1.5c0.1,0.5,0.1,1.5,0.1,3L82.4,57.1L82.4,57.1z"/>
</g>
</svg>
