<svg version="1.1" id="Layer_1" xmlns="http://www.w3.org/2000/svg" xmlns:xlink="http://www.w3.org/1999/xlink" x="0px" y="0px"
	 viewBox="0 0 100 100" style="enable-background:new 0 0 100 100;" xml:space="preserve">
<path d="M81.8,35.7c0-0.7,0-1.4,0-2.2c3.1-2.3,5.8-5.2,7.9-8.5c-2.8,1.3-5.9,2.1-9.1,2.5c3.3-2,5.8-5.2,7-9.1
	c-3.1,1.9-6.5,3.2-10.1,3.9c-2.9-3.3-7-5.4-11.6-5.5C57.1,16.7,50,24.1,50,33.3c0,1.3,0.1,2.6,0.4,3.8C37.2,36.3,25.5,29.4,17.7,19
	c-1.4,2.5-2.1,5.4-2.1,8.5c0,5.9,2.8,11.1,7.1,14.2c-2.6-0.1-5-0.9-7.2-2.2c0,0.1,0,0.1,0,0.2c0,8.2,5.5,15.1,12.7,16.7
	C26.9,56.8,25.5,57,24,57c-1,0-2-0.1-3-0.3c2,6.7,7.9,11.6,14.8,11.8c-5.4,4.5-12.3,7.2-19.7,7.2c-1.3,0-2.5-0.1-3.8-0.2
	c7,4.8,15.4,7.6,24.3,7.6C65.8,83.1,81.8,57.7,81.8,35.7z"/>
</svg>
