<svg version="1.1" id="Layer_1" xmlns="http://www.w3.org/2000/svg" xmlns:xlink="http://www.w3.org/1999/xlink" x="0px" y="0px"
	 viewBox="0 0 100 100" style="enable-background:new 0 0 100 100;" xml:space="preserve">
<g>
	<path d="M90.5,47.3C89.2,27.1,73,10.9,52.7,9.5V9.4H50h-2.7v0.1C27,10.9,10.8,27.1,9.4,47.3l0,0v2.7v2.7h0.1
		C10.8,73.1,27,89.2,47.3,90.6v0.1H50h2.7v-0.1C73,89.2,89.2,73.1,90.5,52.8h0.1v-2.7L90.5,47.3L90.5,47.3z M34.8,18.3
		c-2.6,3.5-4.8,7.8-6.4,12.8h-8.1C23.8,25.6,28.9,21.1,34.8,18.3z M17.5,36.5H27c-0.7,3.4-1.2,7.1-1.3,10.8H14.9
		C15.2,43.6,16.1,39.8,17.5,36.5z M14.9,52.8h10.8c0.1,3.8,0.6,7.4,1.3,10.8h-9.5C16.1,60.2,15.2,56.6,14.9,52.8z M20.3,69h8.1
		c1.6,5,3.8,9.3,6.4,12.8C28.9,79,23.8,74.6,20.3,69z M47.3,85c-5.6-1.5-10.4-7.5-13.3-15.9h13.3V85z M47.3,63.6H32.5
		c-0.8-3.4-1.2-7-1.4-10.8h16.2C47.3,52.8,47.3,63.6,47.3,63.6z M47.3,47.3H31.1c0.2-3.8,0.6-7.5,1.4-10.8h14.8V47.3z M47.3,31.1H34
		c2.9-8.4,7.7-14.4,13.3-15.9V31.1z M79.7,31.1h-8.1c-1.6-5-3.8-9.3-6.4-12.8C71.1,21.1,76.2,25.6,79.7,31.1z M52.7,15.2
		c5.6,1.5,10.4,7.5,13.3,15.9H52.7V15.2z M52.7,36.5h14.8c0.8,3.4,1.2,7,1.4,10.8H52.7V36.5z M52.7,52.8h16.2
		c-0.2,3.8-0.6,7.5-1.4,10.8H52.7V52.8z M52.7,85V69H66C63.1,77.5,58.3,83.5,52.7,85z M65.2,81.9c2.6-3.5,4.8-7.8,6.4-12.8h8.1
		C76.2,74.6,71.1,79,65.2,81.9z M82.5,63.6H73c0.7-3.4,1.2-7.1,1.3-10.8h10.8C84.8,56.6,83.9,60.2,82.5,63.6z M74.3,47.3
		c-0.1-3.8-0.6-7.4-1.3-10.8h9.5c1.4,3.4,2.3,7,2.6,10.8H74.3z"/>
</g>
</svg>
