<?xml version="1.0" encoding="utf-8"?>
<!-- Generator: Adobe Illustrator 21.1.0, SVG Export Plug-In . SVG Version: 6.00 Build 0)  -->
<svg version="1.1" id="Layer_1" xmlns="http://www.w3.org/2000/svg" xmlns:xlink="http://www.w3.org/1999/xlink" x="0px" y="0px"
	 viewBox="0 0 331.5 168.9" style="enable-background:new 0 0 331.5 168.9;" xml:space="preserve">
<style type="text/css">
	.st0{fill:#E2231A;}
	.st1{fill:#0093C9;}
</style>
<title>logos</title>
<g>
	<polygon class="st0" points="265.2,114.8 253.3,114.8 284.3,78.2 268.5,43.2 279.4,43.2 293.6,78.1 	"/>
	<path class="st1" d="M295.3,65.5l17.3-22.3h11.9l-25.9,30.4L295.3,65.5z M291.1,91.7l9.5,23.1h11.1l-14.4-31.2L291.1,91.7z
		 M67.1,43.5l-2.9,7.2c-2.9-1.8-5.5-3.3-7.9-4.3c-2.4-1.1-4.5-1.9-6.4-2.5c-1.9-0.6-3.6-0.9-5.1-1.1c-1.5-0.1-2.9-0.2-4.2-0.2
		c-7.8,0-14,2.1-18.4,6.3c-4.5,4.2-7.5,10.4-9.2,18.6L8.5,90.6c-0.5,2.7-0.7,5-0.7,6.8c0,6,1.7,10.5,5.1,13.5c3.4,3,8,4.6,13.8,4.6
		c1.3,0,2.8-0.1,4.4-0.4c1.6-0.2,3.4-0.7,5.5-1.3c2.1-0.6,4.5-1.5,7.2-2.7c2.8-1.2,6-2.8,9.6-4.7l-0.4,8.4h8.2l13.9-71.3H67.1z
		 M55.4,96.4c-5.1,2.9-10,5.2-14.6,7.1c-4.6,1.8-8.5,2.7-11.6,2.7c-3.7,0-6.5-0.9-8.5-2.7c-2-1.8-3-4.6-3-8.4c0-1,0.1-1.9,0.2-3
		c0.1-1,0.3-2.1,0.5-3.2L22.3,69c1.3-6.1,3.4-10.5,6.5-13.3c3.1-2.8,6.9-4.2,11.6-4.2c3.6,0,7.3,0.7,11.1,2.2
		c3.9,1.4,7.5,3.5,10.9,6.2L55.4,96.4z M133.1,43.5l-2.9,7.2c-2.9-1.8-5.5-3.3-7.9-4.3c-2.4-1.1-4.5-1.9-6.4-2.5
		c-1.9-0.6-3.6-0.9-5.1-1.1c-1.5-0.1-2.9-0.2-4.2-0.2c-7.8,0-14,2.1-18.4,6.3c-4.5,4.2-7.5,10.4-9.2,18.6l-4.5,23.1
		c-0.5,2.7-0.7,5-0.7,6.8c0,6,1.7,10.5,5.1,13.5c3.4,3,8,4.6,13.8,4.6c1.4,0,2.8-0.1,4.4-0.4c1.6-0.2,3.4-0.7,5.5-1.3
		c2.1-0.6,4.5-1.5,7.2-2.7c2.7-1.2,6-2.8,9.6-4.7l-0.4,8.4h8.2l13.9-71.3H133.1z M121.3,96.4c-5.1,2.9-10,5.2-14.6,7.1
		c-4.6,1.8-8.5,2.7-11.6,2.7c-3.7,0-6.5-0.9-8.5-2.7c-2-1.8-3-4.6-3-8.4c0-1,0.1-1.9,0.2-3c0.1-1,0.3-2.1,0.5-3.2L88.2,69
		c1.3-6.1,3.4-10.5,6.5-13.3c3.1-2.8,6.9-4.2,11.6-4.2c3.6,0,7.3,0.7,11.1,2.2c3.9,1.4,7.5,3.5,10.9,6.2L121.3,96.4z M198.6,46.9
		c-3.4-2.9-8.1-4.3-14-4.3c-1.4,0-2.8,0.1-4.4,0.4c-1.6,0.2-3.5,0.7-5.6,1.4c-2.2,0.7-4.6,1.6-7.3,2.9c-2.7,1.3-5.8,2.8-9.3,4.8
		l0.3-8.4h-8.1L131,143.7h9.3l6.5-33.6c5.1,2.4,9.4,3.9,12.8,4.6c3.4,0.6,6.5,0.9,9.3,0.9c8.8,0,15.5-2.2,20.2-6.5
		c4.7-4.3,7.8-10.6,9.5-18.7l4.5-22.9c0.3-1.4,0.5-2.6,0.6-3.8c0.1-1.2,0.1-2.3,0.1-3.4C203.7,54.3,202,49.8,198.6,46.9 M193.8,65.6
		c-0.1,1-0.3,2-0.5,3.2l-4.1,20.7c-1.2,6.1-3.4,10.5-6.8,13.2c-3.4,2.7-7.6,4.1-12.7,4.1c-3.1,0-6.2-0.4-9.5-1.2
		c-3.2-0.8-7.1-2.3-11.6-4.6l7.5-39.5c4.8-2.8,9.6-5.1,14.3-6.9c4.7-1.8,8.6-2.7,11.6-2.7c3.8,0,6.7,0.8,8.8,2.5
		c2.1,1.6,3.2,4.5,3.2,8.5C194,63.7,194,64.6,193.8,65.6 M258.2,47.7c-4.3-3.4-9.9-5.1-16.9-5.1c-8.8,0-15.7,2.3-20.8,6.8
		c-5.1,4.5-8.7,10.7-10.9,18.4c-1.3,4.3-2.3,8.7-3,13.2c-0.8,4.4-1.2,8.3-1.2,11.7c0,7,2.1,12.6,6.4,16.8c4.2,4.1,10.5,6.2,18.7,6.2
		c4.3,0,8.6-0.6,12.7-1.9c4.1-1.3,7.9-3.4,11.3-6.4l-6.4-6.8c-2.3,2.2-5,3.9-8,4.9c-3,1.1-6,1.6-8.9,1.6c-5.8,0-10-1.4-12.7-4.2
		c-2.7-2.8-4-6.4-4-10.7c0-0.9,0.1-1.9,0.2-3.1c0.1-1.2,0.4-2.4,0.7-3.7c1.3,0.1,2.6,0.1,4.1,0.1h3.8c8.6,0,15.6-0.7,21-2.1
		c5.4-1.4,9.6-3.2,12.6-5.5c3-2.3,5-4.8,6.1-7.7c1.1-2.9,1.6-5.8,1.6-8.8C264.7,55.6,262.5,51,258.2,47.7 M253.8,67.4
		c-0.7,1.7-2.1,3.3-4.2,4.7c-2.1,1.4-5.1,2.6-9,3.5c-3.9,0.9-9,1.4-15.4,1.4h-3.9c-1.5,0-3,0-4.5-0.1c0.8-3.8,1.7-7.2,2.9-10.4
		c1.2-3.2,2.7-5.9,4.6-8.2c1.9-2.3,4.2-4,6.9-5.3c2.7-1.3,5.9-1.9,9.7-1.9c4.6,0,8.1,1,10.5,3c2.4,2,3.5,4.8,3.5,8.5
		C254.8,64.1,254.5,65.7,253.8,67.4"/>
	<path class="st0" d="M155.5,143.7l0.1-1.3c-0.6,0.3-1.1,0.5-1.5,0.7c-0.4,0.2-0.8,0.3-1.1,0.4c-0.3,0.1-0.6,0.2-0.9,0.2
		c-0.2,0-0.5,0.1-0.7,0.1c-0.9,0-1.6-0.2-2.2-0.7c-0.5-0.5-0.8-1.2-0.8-2.1c0-0.3,0-0.6,0.1-1.1l0.7-3.6c0.3-1.3,0.7-2.2,1.4-2.9
		c0.7-0.7,1.7-1,2.9-1c0.2,0,0.4,0,0.7,0c0.2,0,0.5,0.1,0.8,0.2c0.3,0.1,0.6,0.2,1,0.4c0.4,0.2,0.8,0.4,1.2,0.7l0.5-1.1h1.3
		l-2.2,11.1H155.5z M156.9,135.2c-0.5-0.4-1.1-0.7-1.7-1c-0.6-0.2-1.2-0.3-1.7-0.3c-0.7,0-1.3,0.2-1.8,0.7c-0.5,0.4-0.8,1.1-1,2.1
		l-0.6,3.1c0,0.2-0.1,0.3-0.1,0.5c0,0.2,0,0.3,0,0.5c0,0.6,0.2,1,0.5,1.3c0.3,0.3,0.8,0.4,1.3,0.4c0.5,0,1.1-0.1,1.8-0.4
		c0.7-0.3,1.5-0.7,2.3-1.1L156.9,135.2z"/>
	<path class="st0" d="M166.8,132.5c0.9,0,1.7,0.2,2.2,0.7c0.5,0.5,0.8,1.2,0.8,2.1c0,0.3,0,0.7-0.1,1.1l-1.4,7.3h-1.5l1.4-7.1
		c0-0.2,0.1-0.4,0.1-0.5c0-0.2,0-0.3,0-0.4c0-0.6-0.2-1.1-0.5-1.4c-0.3-0.3-0.8-0.4-1.4-0.4c-0.5,0-1.1,0.1-1.8,0.4
		c-0.7,0.3-1.5,0.7-2.2,1.2l-1.6,8.2h-1.5l3.2-16.1h1.5l-1.2,6.4c0.5-0.3,1-0.6,1.4-0.8c0.4-0.2,0.8-0.3,1.1-0.4
		c0.3-0.1,0.6-0.2,0.9-0.2C166.3,132.5,166.5,132.5,166.8,132.5"/>
	<path class="st0" d="M176.4,132.5c1.1,0,2,0.3,2.6,0.8c0.7,0.5,1,1.2,1,2.1c0,0.5-0.1,0.9-0.2,1.4c-0.2,0.5-0.5,0.9-0.9,1.2
		c-0.5,0.4-1.1,0.6-2,0.9c-0.8,0.2-1.9,0.3-3.3,0.3H173c-0.2,0-0.4,0-0.6,0c0,0.2-0.1,0.4-0.1,0.6c0,0.2,0,0.4,0,0.5
		c0,0.7,0.2,1.2,0.6,1.7c0.4,0.4,1.1,0.7,2,0.7c0.5,0,0.9-0.1,1.4-0.2c0.5-0.2,0.9-0.4,1.3-0.8l1,1.1c-0.5,0.5-1.1,0.8-1.8,1
		c-0.6,0.2-1.3,0.3-2,0.3c-1.3,0-2.2-0.3-2.9-1c-0.7-0.6-1-1.5-1-2.6c0-0.5,0.1-1.1,0.2-1.8c0.1-0.7,0.3-1.4,0.5-2.1
		c0.3-1.2,0.9-2.2,1.7-2.9C173.9,132.8,175,132.5,176.4,132.5 M176.3,133.8c-0.6,0-1.1,0.1-1.5,0.3c-0.4,0.2-0.8,0.5-1.1,0.8
		c-0.3,0.4-0.5,0.8-0.7,1.3c-0.2,0.5-0.3,1-0.5,1.6c0.2,0,0.5,0,0.7,0h0.6c1,0,1.8-0.1,2.4-0.2c0.6-0.1,1.1-0.3,1.4-0.5
		c0.3-0.2,0.5-0.5,0.7-0.7c0.1-0.3,0.2-0.5,0.2-0.8c0-0.6-0.2-1-0.5-1.3C177.5,134,177,133.8,176.3,133.8"/>
	<path class="st0" d="M187.9,143.7l0.1-1.3c-0.6,0.3-1.1,0.5-1.5,0.7c-0.4,0.2-0.8,0.3-1.1,0.4c-0.3,0.1-0.6,0.2-0.9,0.2
		c-0.2,0-0.5,0.1-0.7,0.1c-0.9,0-1.6-0.2-2.2-0.7c-0.5-0.5-0.8-1.2-0.8-2.1c0-0.3,0-0.6,0.1-1.1l0.7-3.6c0.3-1.3,0.7-2.2,1.4-2.9
		c0.7-0.7,1.7-1,2.9-1c0.2,0,0.4,0,0.7,0c0.2,0,0.5,0.1,0.8,0.2c0.3,0.1,0.6,0.2,1,0.4c0.4,0.2,0.8,0.4,1.2,0.7l0.5-1.1h1.3
		l-2.2,11.1H187.9z M189.4,135.2c-0.5-0.4-1.1-0.7-1.7-1c-0.6-0.2-1.2-0.3-1.7-0.3c-0.7,0-1.3,0.2-1.8,0.7c-0.5,0.4-0.8,1.1-1,2.1
		l-0.6,3.1c0,0.2-0.1,0.3-0.1,0.5c0,0.2,0,0.3,0,0.5c0,0.6,0.2,1,0.5,1.3c0.3,0.3,0.8,0.4,1.3,0.4c0.5,0,1.1-0.1,1.8-0.4
		c0.7-0.3,1.5-0.7,2.3-1.1L189.4,135.2z"/>
	<path class="st0" d="M199.1,143.7l0-1.3c-0.5,0.3-1,0.5-1.4,0.7c-0.4,0.2-0.8,0.3-1.1,0.4c-0.3,0.1-0.6,0.2-0.9,0.2
		c-0.3,0-0.5,0-0.7,0c-0.9,0-1.6-0.2-2.2-0.7c-0.5-0.5-0.8-1.2-0.8-2.1c0-0.2,0-0.3,0-0.5c0-0.2,0-0.4,0.1-0.6l0.7-3.5
		c0.3-1.3,0.8-2.2,1.6-2.9c0.8-0.7,1.8-1,3-1c0.4,0,0.9,0.1,1.5,0.2c0.5,0.1,1.2,0.3,2,0.7l1.1-5.7h1.5l-3.1,16.1H199.1z
		 M200.7,134.8c-1.2-0.6-2.3-0.9-3.3-0.9c-0.8,0-1.4,0.2-2,0.7c-0.6,0.4-0.9,1.2-1.1,2.2l-0.6,3.1c-0.1,0.3-0.1,0.6-0.1,0.9
		c0,0.6,0.2,1.1,0.5,1.4c0.3,0.3,0.8,0.4,1.4,0.4c0.5,0,1.1-0.1,1.8-0.4c0.7-0.3,1.5-0.6,2.2-1.1L200.7,134.8z"/>
	<path class="st0" d="M217.4,139.9c-0.3,1.4-0.9,2.5-1.7,3.1c-0.9,0.6-1.9,0.9-3.2,0.9c-0.5,0-1.1-0.1-1.5-0.2
		c-0.5-0.2-0.9-0.4-1.3-0.7c-0.4-0.3-0.7-0.7-0.9-1.2c-0.2-0.5-0.3-1-0.3-1.6c0-0.2,0-0.3,0-0.5c0-0.2,0-0.3,0.1-0.5l0.5-2.6
		c0.2-1.2,0.7-2.2,1.5-3c0.8-0.7,1.9-1.1,3.3-1.1c0.6,0,1.2,0.1,1.7,0.3c0.5,0.2,0.9,0.5,1.3,0.8c0.4,0.3,0.6,0.7,0.8,1.2
		c0.2,0.5,0.3,1,0.3,1.5c0,0.1,0,0.3,0,0.4c0,0.1,0,0.3-0.1,0.5L217.4,139.9z M216.4,137.2c0.1-0.3,0.1-0.5,0.1-0.8
		c0-0.4-0.1-0.8-0.2-1.1c-0.1-0.3-0.3-0.6-0.6-0.8c-0.2-0.2-0.5-0.4-0.9-0.5s-0.7-0.2-1.1-0.2c-0.8,0-1.6,0.2-2.1,0.7
		c-0.6,0.4-1,1.2-1.2,2.3l-0.5,2.4c0,0.2-0.1,0.3-0.1,0.4c0,0.1,0,0.3,0,0.4c0,0.4,0.1,0.8,0.2,1.1c0.1,0.3,0.4,0.6,0.6,0.8
		c0.3,0.2,0.5,0.4,0.9,0.5c0.3,0.1,0.6,0.1,1,0.1c0.4,0,0.8,0,1.1-0.1c0.4-0.1,0.7-0.3,1-0.5c0.3-0.2,0.6-0.5,0.8-0.9
		c0.2-0.4,0.4-0.9,0.5-1.5L216.4,137.2z"/>
	<path class="st0" d="M220.7,145c-0.1,0.5-0.2,1-0.3,1.4c-0.1,0.4-0.3,0.8-0.6,1.1c-0.3,0.3-0.6,0.5-1,0.7c-0.4,0.2-0.9,0.2-1.6,0.2
		c-0.2,0-0.4,0-0.6,0c-0.2,0-0.4,0-0.7-0.1l0.3-1.4c0.1,0,0.2,0,0.3,0c0.1,0,0.2,0,0.4,0c0.4,0,0.8-0.1,1.1-0.2
		c0.3-0.1,0.5-0.3,0.7-0.5c0.2-0.2,0.3-0.4,0.4-0.7c0.1-0.3,0.2-0.6,0.2-0.9l2.1-10.8h-1.6l0.3-1.3h1.6l0.3-1.8
		c0.1-0.5,0.2-1,0.4-1.4c0.1-0.4,0.4-0.8,0.6-1.1c0.3-0.3,0.6-0.5,1-0.7c0.4-0.2,0.9-0.3,1.6-0.3c0.5,0,1,0.1,1.5,0.2l-0.3,1.3
		c-0.2,0-0.4,0-0.5,0h-0.5c-0.5,0-0.8,0.1-1.1,0.2c-0.3,0.1-0.5,0.3-0.7,0.5c-0.2,0.2-0.3,0.4-0.4,0.7c-0.1,0.3-0.2,0.6-0.2,1
		l-0.3,1.5h2.8l-0.3,1.3h-2.8L220.7,145z"/>
	<path class="st0" d="M236.8,143.5c-0.4,0.1-0.8,0.2-1.2,0.2c-0.4,0-0.7,0.1-0.9,0.1c-1,0-1.6-0.2-2.1-0.6c-0.4-0.4-0.6-1-0.6-1.7
		c0-0.4,0-0.8,0.1-1.2l1.3-6.4h-1.6l0.3-1.3h1.6l0.9-2.6h1.1l-0.5,2.6h3.1l-0.3,1.3h-3.1l-1.2,6.1c0,0.2-0.1,0.4-0.1,0.5
		c0,0.2,0,0.3,0,0.5c0,0.5,0.1,0.8,0.3,1c0.2,0.2,0.6,0.4,1.2,0.4c0.4,0,1-0.1,1.6-0.2L236.8,143.5z"/>
	<path class="st0" d="M245.6,132.5c0.9,0,1.7,0.2,2.2,0.7c0.5,0.5,0.8,1.2,0.8,2.1c0,0.3,0,0.7-0.1,1.1l-1.4,7.3h-1.5l1.4-7.1
		c0-0.2,0.1-0.4,0.1-0.5s0-0.3,0-0.4c0-0.6-0.2-1.1-0.5-1.4c-0.3-0.3-0.8-0.4-1.4-0.4c-0.5,0-1.1,0.1-1.8,0.4
		c-0.7,0.3-1.5,0.7-2.2,1.2l-1.6,8.2h-1.5l3.2-16.1h1.5l-1.2,6.4c0.5-0.3,1-0.6,1.4-0.8c0.4-0.2,0.8-0.3,1.1-0.4
		c0.3-0.1,0.6-0.2,0.9-0.2C245.1,132.5,245.4,132.5,245.6,132.5"/>
	<path class="st0" d="M255.2,132.5c1.1,0,2,0.3,2.6,0.8c0.7,0.5,1,1.2,1,2.1c0,0.5-0.1,0.9-0.2,1.4c-0.2,0.5-0.5,0.9-0.9,1.2
		c-0.5,0.4-1.1,0.6-2,0.9c-0.8,0.2-1.9,0.3-3.3,0.3h-0.6c-0.2,0-0.4,0-0.6,0c0,0.2-0.1,0.4-0.1,0.6c0,0.2,0,0.4,0,0.5
		c0,0.7,0.2,1.2,0.6,1.7c0.4,0.4,1.1,0.7,2,0.7c0.5,0,0.9-0.1,1.4-0.2c0.5-0.2,0.9-0.4,1.3-0.8l1,1.1c-0.5,0.5-1.1,0.8-1.8,1
		c-0.6,0.2-1.3,0.3-2,0.3c-1.3,0-2.2-0.3-2.9-1c-0.7-0.6-1-1.5-1-2.6c0-0.5,0.1-1.1,0.2-1.8c0.1-0.7,0.3-1.4,0.5-2.1
		c0.3-1.2,0.9-2.2,1.7-2.9C252.8,132.8,253.8,132.5,255.2,132.5 M255.1,133.8c-0.6,0-1.1,0.1-1.5,0.3c-0.4,0.2-0.8,0.5-1.1,0.8
		c-0.3,0.4-0.5,0.8-0.7,1.3c-0.2,0.5-0.3,1-0.5,1.6c0.2,0,0.5,0,0.7,0h0.6c1,0,1.8-0.1,2.4-0.2c0.6-0.1,1.1-0.3,1.4-0.5
		c0.3-0.2,0.5-0.5,0.7-0.7c0.1-0.3,0.2-0.5,0.2-0.8c0-0.6-0.2-1-0.5-1.3C256.4,134,255.8,133.8,255.1,133.8"/>
	<path class="st0" d="M270.4,132.5c0.6,0,1.3,0.1,1.9,0.3c0.7,0.2,1.2,0.5,1.6,1l-1,1.1c-0.3-0.4-0.8-0.6-1.2-0.8
		c-0.5-0.1-0.9-0.2-1.3-0.2c-1.8,0-2.8,1-3.2,3l-0.5,2.7c0,0.3-0.1,0.5-0.1,0.7c0,0.4,0.1,0.7,0.2,1s0.3,0.5,0.6,0.7
		c0.2,0.2,0.5,0.3,0.8,0.4c0.3,0.1,0.6,0.1,1,0.1c0.3,0,0.8-0.1,1.3-0.2c0.5-0.1,1-0.4,1.4-0.7l0.8,1.1c-0.5,0.4-1.1,0.7-1.8,0.9
		c-0.7,0.2-1.3,0.2-1.9,0.2c-0.5,0-1-0.1-1.5-0.2c-0.5-0.1-0.9-0.4-1.2-0.6c-0.3-0.3-0.6-0.6-0.8-1.1c-0.2-0.4-0.3-0.9-0.3-1.5
		c0-0.3,0-0.6,0.1-0.9l0.6-3.1c0.1-0.6,0.3-1.1,0.5-1.6c0.2-0.5,0.5-0.9,0.9-1.3c0.4-0.3,0.8-0.6,1.4-0.8
		C269.1,132.6,269.7,132.5,270.4,132.5"/>
	<path class="st0" d="M281.3,143.7l0-1.3c-0.5,0.3-1,0.6-1.4,0.8c-0.4,0.2-0.8,0.3-1.1,0.4c-0.3,0.1-0.6,0.2-0.9,0.2
		c-0.3,0-0.5,0.1-0.7,0.1c-0.9,0-1.7-0.2-2.2-0.7c-0.5-0.5-0.8-1.2-0.8-2.1c0-0.3,0-0.6,0.1-1.1l1.4-7.4h1.5l-1.4,7.1
		c0,0.2-0.1,0.3-0.1,0.5c0,0.2,0,0.3,0,0.4c0,0.6,0.2,1.1,0.5,1.4c0.3,0.3,0.8,0.4,1.4,0.4c0.5,0,1.1-0.2,1.8-0.5
		c0.7-0.3,1.5-0.7,2.2-1.2l1.6-8.1h1.5l-2.1,11.1H281.3z"/>
	<path class="st0" d="M292.6,132.5c0,0.3-0.1,0.6-0.1,0.8c0,0.3-0.1,0.5-0.1,0.8c-1,0.1-1.9,0.4-2.6,0.6c-0.7,0.3-1.3,0.5-1.7,0.7
		c-0.3,1.4-0.5,2.8-0.8,4.1c-0.3,1.4-0.5,2.7-0.8,4.1h-1.5l2.2-11.1h1.2l-0.1,1.6c0.5-0.4,1.1-0.8,1.9-1.1
		C291.1,132.7,291.9,132.5,292.6,132.5"/>
	<path class="st0" d="M296.8,143.7h-1.4c-0.3-1.9-0.6-3.7-0.9-5.5c-0.3-1.8-0.6-3.7-0.9-5.6h1.5c0.1,0.8,0.2,1.6,0.4,2.4
		c0.1,0.8,0.2,1.6,0.4,2.4c0.1,0.7,0.2,1.4,0.3,2.2c0.1,0.7,0.2,1.4,0.3,2.2h0.1c0.6-1,1.1-2,1.6-3s1.1-2,1.7-3
		c0.3-0.6,0.6-1.1,0.8-1.5c0.2-0.4,0.3-0.8,0.3-1.3v-0.4h1.5v0.4c0,0.3,0,0.6-0.1,0.9c0,0.3-0.1,0.5-0.2,0.8
		c-0.1,0.2-0.2,0.5-0.3,0.7c-0.1,0.2-0.3,0.5-0.4,0.8L296.8,143.7z"/>
	<path class="st0" d="M307.7,132.5c1.1,0,2,0.3,2.6,0.8c0.7,0.5,1,1.2,1,2.1c0,0.5-0.1,0.9-0.2,1.4c-0.2,0.5-0.5,0.9-0.9,1.2
		c-0.5,0.4-1.1,0.6-2,0.9c-0.8,0.2-1.9,0.3-3.3,0.3h-0.6c-0.2,0-0.4,0-0.6,0c0,0.2-0.1,0.4-0.1,0.6c0,0.2,0,0.4,0,0.5
		c0,0.7,0.2,1.2,0.6,1.7c0.4,0.4,1.1,0.7,2,0.7c0.5,0,0.9-0.1,1.4-0.2c0.5-0.2,0.9-0.4,1.3-0.8l1,1.1c-0.5,0.5-1.1,0.8-1.8,1
		c-0.6,0.2-1.3,0.3-2,0.3c-1.3,0-2.2-0.3-2.9-1c-0.7-0.6-1-1.5-1-2.6c0-0.5,0.1-1.1,0.2-1.8c0.1-0.7,0.3-1.4,0.5-2.1
		c0.3-1.2,0.9-2.2,1.7-2.9C305.2,132.8,306.3,132.5,307.7,132.5 M307.6,133.8c-0.6,0-1.1,0.1-1.5,0.3c-0.4,0.2-0.8,0.5-1.1,0.8
		c-0.3,0.4-0.5,0.8-0.7,1.3c-0.2,0.5-0.3,1-0.5,1.6c0.2,0,0.5,0,0.7,0h0.6c1,0,1.8-0.1,2.4-0.2c0.6-0.1,1.1-0.3,1.4-0.5
		c0.3-0.2,0.5-0.5,0.7-0.7c0.1-0.3,0.2-0.5,0.2-0.8c0-0.6-0.2-1-0.5-1.3C308.9,134,308.3,133.8,307.6,133.8"/>
</g>
</svg>
