<?xml version="1.0" encoding="utf-8"?>
<!-- Generator: Adobe Illustrator 21.1.0, SVG Export Plug-In . SVG Version: 6.00 Build 0)  -->
<svg version="1.1" id="icons" xmlns="http://www.w3.org/2000/svg" xmlns:xlink="http://www.w3.org/1999/xlink" x="0px" y="0px"
	 viewBox="0 0 200 101.9" style="enable-background:new 0 0 200 101.9;" xml:space="preserve">
<style type="text/css">
	.st0{fill:#FFFFFF;}
</style>
<g>
	<path class="st0" d="M14.4,55.6H6.6l-1.3,2.8h-3L9,43.6h3.1l6.7,14.8h-3.1L14.4,55.6z M10.5,46.7L7.8,53h5.5L10.5,46.7z"/>
	<path class="st0" d="M29.3,47.2c-0.5-0.8-1.9-1.7-3.5-1.7c-2.1,0-3.1,0.9-3.1,2c0,1.3,1.5,1.7,3.3,1.9c3.1,0.4,6,1.2,6,4.7
		c0,3.3-2.9,4.7-6.2,4.7c-3,0-5.4-0.9-6.5-3.6l2.3-1.2c0.7,1.6,2.4,2.4,4.2,2.4c1.8,0,3.4-0.6,3.4-2.2c0-1.4-1.5-2-3.4-2.2
		c-3-0.4-5.8-1.2-5.8-4.5c0-3.1,3-4.3,5.7-4.3c2.3,0,4.7,0.7,5.8,2.9L29.3,47.2z"/>
	<path class="st0" d="M47.6,50.9c0.1,3.8-2.2,7.5-7.4,7.5c-1.8,0-4,0-5.8,0V43.6c1.8,0,4,0,5.8,0C45.3,43.6,47.6,47.2,47.6,50.9z
		 M37.2,55.7h3.1c3.4,0,4.7-2.5,4.6-4.9c-0.1-2.3-1.4-4.6-4.6-4.6h-3.1V55.7z"/>
	<path class="st0" d="M63.2,45.3l-5.7,8.7h-0.4l-5.7-8.7v13.2h-1.1V43.6c0.6,0,0.8,0,1.4,0l5.7,8.6l5.6-8.6h1.4v14.8h-1.1V45.3z"/>
	<path class="st0" d="M79.8,58.4l-1.6-3.6h-8.9l-1.6,3.6h-1.2l6.7-14.8h1.2L81,58.4H79.8z M77.7,53.7l-4-9l-4,9H77.7z"/>
	<path class="st0" d="M95.2,58.4h-1.5l-5.1-5.6h-4v5.6h-1.1V43.6c2.2,0,4.3,0,6.5,0c3.2,0,4.9,2.3,4.9,4.6c0,2.4-1.6,4.5-4.8,4.5
		L95.2,58.4z M84.5,51.7h5.3c2.6,0,3.7-1.5,3.8-3.5c0-1.7-1.2-3.5-3.6-3.5h-5.4V51.7z"/>
	<path class="st0" d="M107.9,58.4h-1.4l-7.8-7.3v7.3h-1.1V43.6h1.1v6.8l7.2-6.8h1.4v0.1l-7.5,7L107.9,58.4L107.9,58.4z"/>
	<path class="st0" d="M111,50.4h8.7v1H111v5.8h9.4v1.1h-10.5V43.6h10.2v1.1H111V50.4z"/>
	<path class="st0" d="M128.4,44.6H123v-1h11.9v1h-5.4v13.8h-1.1V44.6z"/>
	<path class="st0" d="M147.3,43.6h0.6l4.5,13.6l4.6-13.6h1.2l-5.2,14.9h-1.2l-2.4-6.9l-1.9-5.9l-1.9,5.8l-2.4,7h-1.2L137,43.6h1.2
		l4.6,13.6L147.3,43.6z"/>
	<path class="st0" d="M161.8,50.4h8.7v1h-8.7v5.8h9.4v1.1h-10.5V43.6h10.2v1.1h-9.1V50.4z"/>
	<path class="st0" d="M175.3,50.4h8.7v1h-8.7v5.8h9.4v1.1h-10.5V43.6h10.2v1.1h-9.1V50.4z"/>
	<path class="st0" d="M198,58.4h-1.4l-7.8-7.3v7.3h-1.1V43.6h1.1v6.8l7.2-6.8h1.4v0.1l-7.5,7L198,58.4L198,58.4z"/>
</g>
</svg>
