<?xml version="1.0" encoding="utf-8"?>
<!-- Generator: Adobe Illustrator 21.0.2, SVG Export Plug-In . SVG Version: 6.00 Build 0)  -->
<svg version="1.1" id="Layer_1" xmlns="http://www.w3.org/2000/svg" xmlns:xlink="http://www.w3.org/1999/xlink" x="0px" y="0px"
	 viewBox="0 0 200 101.9" style="enable-background:new 0 0 200 101.9;" xml:space="preserve">
<style type="text/css">
	.st0{fill:#44C7F4;}
	.st1{fill:#009FDB;}
	.st2{fill:#0080BE;}
	.st3{fill:#DDE11E;}
	.st4{fill:#48BC9B;}
	.st5{fill:#FFFFFF;}
</style>
<title>logos</title>
<polygon class="st0" points="105.2,14.5 107.6,26.2 79.3,29.8 76.8,5.9 "/>
<polygon class="st0" points="157.5,90.5 158.2,78 128,71.9 130.2,85.8 "/>
<polyline class="st1" points="19.9,37.3 53.9,96.5 130.2,85.8 130,83.6 83.9,77.9 79.3,29.8 19.9,37.3 "/>
<polygon class="st2" points="107.6,26.2 128.5,71.3 130.2,85.8 83.9,77.9 79.3,29.8 "/>
<polygon class="st3" points="178.7,5.1 169.5,80.4 158.1,78.7 160.4,31.3 105.2,14.5 104.4,10.7 "/>
<polygon class="st4" points="105.2,14.5 116.9,71.9 158.1,78.7 160.4,31.3 "/>
<path class="st5" d="M145.2,34.7c0.5,0,0.9,0.2,1.3,0.5c0.3,0.3,0.5,0.8,0.5,1.3c0,0.5-0.2,0.9-0.5,1.3c-0.3,0.4-0.8,0.5-1.3,0.5
	c-0.5,0-0.9-0.2-1.2-0.5c-0.3-0.3-0.5-0.8-0.5-1.3c0-0.5,0.2-0.9,0.5-1.3C144.3,34.8,144.7,34.7,145.2,34.7 M147.3,36.5
	c0-0.6-0.2-1.1-0.6-1.5c-0.4-0.4-0.9-0.6-1.4-0.6c-0.6,0-1,0.2-1.4,0.6c-0.4,0.4-0.6,0.9-0.6,1.5c0,0.6,0.2,1.1,0.6,1.5
	c0.4,0.4,0.9,0.6,1.4,0.6c0.6,0,1-0.2,1.4-0.6C147.1,37.5,147.3,37,147.3,36.5z M145.7,36c0,0.2-0.1,0.3-0.2,0.4
	c-0.1,0-0.2,0.1-0.4,0.1h-0.4v-0.8h0.3c0.2,0,0.4,0,0.5,0.1C145.7,35.7,145.7,35.8,145.7,36z M144.4,35.3v2.3h0.4v-0.9h0.3
	c0.2,0,0.4,0,0.4,0.1c0.1,0.1,0.2,0.3,0.2,0.5v0.2l0,0.1l0,0h0.4l0,0l0-0.1l0-0.2v-0.2c0-0.1,0-0.2-0.1-0.4
	c-0.1-0.1-0.2-0.2-0.4-0.2c0.1,0,0.3-0.1,0.3-0.1c0.1-0.1,0.2-0.2,0.2-0.5c0-0.3-0.1-0.5-0.3-0.6c-0.1-0.1-0.3-0.1-0.6-0.1H144.4"/>
<g>
	<path class="st5" d="M78.1,47.7c-2.8-2.8-6.9-4.5-11.9-4.5c-7.8,0-13,5.8-13,14.1c0,8.6,5.6,14.1,13.3,14.1c5,0,8.6-1.5,12.2-4.5
		v9.6c-4,2.4-8.2,3.2-12.6,3.2c-13.6,0-22.5-9.2-22.5-22.5c0-13.3,9.2-22.5,22.5-22.5c4.4,0,8.3,0.9,11.9,2.9V47.7z"/>
	<path class="st5" d="M111.9,70.9v8.1H83.7V35.6h27.7v8.1H92.8v9.5h17.1v8H92.8v9.7H111.9z"/>
	<path class="st5" d="M116,67.4c3.3,2.5,7,4.5,11.8,4.5c3.7,0,7-1.3,7-4.9c0-3.3-2.7-4.5-7.2-5.9c-8.7-2.4-12.3-6.1-12.3-13.4
		c0-8.3,6.4-12.9,14.5-12.9c4.9,0,8.5,1.2,11.6,3.2v9.2c-3.4-2.8-7-4.5-11.3-4.5c-3.7,0-5.8,1.8-5.8,4.5c0,3.1,2.5,4.3,7.5,5.7
		c8.7,2.5,12.1,6.4,12.1,13.7c0,9.1-7.2,13.1-16.1,13.1c-4.8,0-9-1.3-11.8-3.1V67.4z"/>
</g>
</svg>
