<?xml version="1.0" encoding="utf-8"?>
<!-- Generator: Adobe Illustrator 21.1.0, SVG Export Plug-In . SVG Version: 6.00 Build 0)  -->
<svg version="1.1" id="icons" xmlns="http://www.w3.org/2000/svg" xmlns:xlink="http://www.w3.org/1999/xlink" x="0px" y="0px"
	 viewBox="0 0 300 135" style="enable-background:new 0 0 300 135;" xml:space="preserve">
<style type="text/css">
	.st0{fill:#FFFFFF;}
</style>
<g>
	<path class="st0" d="M289.3,49.1c0,1.4,0,2.7,0,4.1c-0.5,0-0.9,0-1.3,0c-4.8,0-9.6,0-14.5,0c-1,0-1.3,0.3-1.3,1.3
		c0,6,0,12.1,0,18.1c0,0.4,0,0.9,0,1.3c-1.4,0-2.7,0-4.1,0c0-4.6,0-9.1,0-13.7c-5.6,11.7-14.7,16.5-27.1,12.7
		c-10.4-3.2-14.8-11.4-14.2-22.5c-3.4,3.2-7.5,3.9-12,3.8c5.2,6.7,10.1,13.1,15.3,19.7c-1.8,0-3.3,0-4.9,0c-0.3,0-0.7-0.4-0.9-0.7
		c-4.5-5.9-9.1-11.7-13.5-17.6c-1-1.3-2-1.6-3.6-1.2c0,6.4,0,12.9,0,19.6c-1.3,0-2.5,0-3.6,0c-0.2,0-0.4-0.3-0.5-0.5
		c-0.1-0.3,0-0.6,0-0.9c0-7.9,0-15.7,0-23.6c0-0.3,0-0.7-0.1-1c-1,1.1-1.9,2.3-2.9,3.3c-1.2,1.3-2.8,1.9-4.5,2.3
		c-4.2,0.9-8.5,0.8-12.8,0.7c-1.1,0-1.4,0.3-1.4,1.4c0.1,5.6,0,11.3,0,16.9c0,0.4,0,0.9,0,1.4c-1.3,0-2.5,0-3.7,0
		c-0.2,0-0.5-0.6-0.5-1c0-3.6,0-7.2,0-10.9c0-0.3,0-0.6,0-0.9c-3.6,7.6-9.4,12.4-17.9,13.2c-8.4,0.9-15.2-2.3-20.4-9.5
		c0.4,3,0.8,5.7,1.2,8.6c-1.2,0-2.3,0-3.4,0c-0.2,0-0.5-0.5-0.6-0.8c-0.4-2.5-0.7-5.1-1.1-7.6c-0.6-4.4-1.3-8.9-1.9-13.3
		c-0.2-1.6-0.4-3.2-0.6-4.8c-0.1-0.7-0.2-1.3-0.3-2c-0.1,0-0.2,0-0.3-0.1c-0.6,1.1-1.1,2.1-1.6,3.2c-4,8.2-8.1,16.4-12.1,24.6
		c-0.2,0.3-0.6,0.7-0.9,0.8c-0.3,0-0.7-0.4-0.9-0.7c-4.5-9.1-9.1-18.2-13.6-27.3c-0.1-0.3-0.3-0.5-0.6-0.9c-0.2,0.9-0.4,1.6-0.5,2.3
		c-1.1,8-2.2,15.9-3.3,23.9c0,0,0,0.1,0,0.1c-0.2,0.9-0.3,1.8-0.5,2.6c-1.2,0-2.4,0-3.6,0c0-0.6,0.1-1,0.2-1.8
		c-3.2,2.7-6.6,3.4-10.3,2.7c-3.8-0.8-6.4-3.1-8.6-6.4c-4.5,4.5-9.8,6.8-16.1,6.6c-6.2-0.1-11.4-2.5-15.7-7c-1.2,1-2.2,2-3.4,2.9
		c-3.3,2.5-7.1,3.7-11.2,4c-3.4,0.3-6.8,0-10.2-1c-4.7-1.5-8.5-4.4-11-8.6c-3.7-5.9-4.2-12.3-2-18.8c1.9-5.7,5.8-9.7,11.3-12.1
		c5.7-2.5,11.6-2.5,17.4-0.6c3.1,1,5.8,2.8,8,5.2c0.1,0.2,0.3,0.3,0.5,0.5c0.1,0.1,0.2,0.1,0.4,0.3c4.5-4.9,10.1-7.5,16.9-7.2
		c6.7,0.2,12.2,3.1,16.5,8.3c1.1-4.9,3.9-7.8,8.8-8.3c5.3-0.6,8.7,2.4,11.7,6.5c-1.1,0.9-2.1,1.7-3.1,2.5c-1.1-1.1-2-2.2-3.1-3.2
		c-2.6-2.5-7.1-2.2-9.2,0.5c-1.5,1.9-1.3,5.3,0.7,7.1c2.2,2.1,4.8,3.8,7,5.9c2.1,1.9,4,3.9,6,5.8c0.1,0.1,0.3,0.2,0.6,0.5
		c0.3-1.8,0.5-3.5,0.8-5.2c0.5-3.6,1-7.2,1.6-10.8c0.4-2.5,0.7-5.1,1.1-7.6c0-0.3,0.3-0.6,0.4-1c0.3,0.3,0.6,0.5,0.7,0.8
		c2.5,5,5.1,10.1,7.6,15.2c2.8,5.5,5.5,11.1,8.2,16.7c0.1,0.2,0.2,0.3,0.4,0.5c5.5-11.1,10.9-22.2,16.4-33.2c0.2,0,0.3,0.1,0.5,0.1
		c0.7,4.6,1.3,9.2,2.1,14.1c3.5-9.4,9.9-14.8,19.8-15.1c9.8-0.3,16.7,4.4,21,13.3c0-0.4,0.1-0.7,0.1-1.1c0-3.8,0-7.6,0-11.4
		c0-1,0.3-1.2,1.3-1.2c5,0.1,10,0.1,15,0.3c4.1,0.2,7.1,2.2,9.1,5.8c0.1,0.1,0.2,0.2,0.5,0.3c0-1.5,0-2.9,0-4.4c0-2.2-0.4-2,2-2
		c4.7,0.1,9.5,0.1,14.2,0.3c4.7,0.2,8.3,3,9.8,7.4c0.3,0.9,0.4,1.8,0.6,2.9c5-7.3,11.7-10.8,20.4-9.9c8.7,0.9,14.6,5.7,18,13.8
		c0-0.4,0.1-0.8,0.1-1.1c0-4.1,0-8.2,0-12.3c0-0.9,0.3-1.1,1.1-1.1c7.9,0,15.7,0,23.6,0c0.9,0,1.2,0.3,1.2,1.2c0,2.9,0,2.9-2.9,2.9
		c-5.8,0-11.5,0-17.3,0c-1.5,0-1.5,0-1.5,1.5c0,3.6,0,7.2,0,10.7c0,0.9,0.3,1.1,1.1,1.1c4.9,0,9.7,0,14.6,0
		C288.4,49.1,288.8,49.1,289.3,49.1z M139.9,53.3c-0.2,9.5,7.7,17.5,17.3,17.5c9.6-0.1,17.2-7.5,17.1-17.3c0-9.9-7.6-17.6-17.5-17.6
		C147.1,35.8,139.7,44,139.9,53.3z M77.4,53.4c0-9.7-7.6-17.5-17.1-17.5c-9.8-0.1-17.2,7.5-17.3,17.3c-0.1,9.5,7.6,17.5,17.2,17.5
		C69.8,70.8,77.3,63.1,77.4,53.4z M247.9,70.3c8.9,0.2,17-6.9,17-17.1c0-9.6-7.5-17.1-17-17.2c-9.6-0.1-16.9,7.8-16.9,17.1
		C230.9,62.9,239,70.6,247.9,70.3z M25.7,70.8c6.9,0,11.4-2,15.1-5.8c0.7-0.7,0.6-1.2,0.2-2c-3.2-6.5-3.1-12.9,0-19.4
		c0.3-0.7,0.3-1.1-0.2-1.6c-3-3.4-6.7-5.4-11.2-6c-3.2-0.4-6.3-0.2-9.1,1.1c-6,2.6-9.9,7-10.9,13.6c-0.6,3.5-0.2,7,1.4,10.2
		C14.3,67.5,19.9,70.6,25.7,70.8z M207.3,42.9c0,2.1,0,4.2,0,6.4c0,0.6,0.1,1,0.9,0.9c2.9,0,5.8,0.1,8.7-0.1
		c1.8-0.1,3.7-0.5,5.4-1.3c2.7-1.3,3.7-4.4,2.9-7.9c-0.4-2-1.6-3.5-3.5-4.1c-1.9-0.6-3.8-1-5.8-1.1c-2.5-0.2-5,0-7.6-0.1
		c-0.8,0-1,0.2-1,1C207.3,38.7,207.3,40.8,207.3,42.9z M181.5,42.9c0,2,0,4.1,0,6.1c0,0.9,0.2,1.3,1.1,1.2c1.1-0.1,2.1,0,3.2,0
		c2.8-0.1,5.5-0.2,8.3-0.5c2.8-0.4,4.8-2.8,5.3-5.8c0.5-2.7-0.7-5.6-3.2-6.7c-1.8-0.8-4-1.3-6-1.4c-2.6-0.2-5.2,0-7.8-0.1
		c-0.8,0-1,0.3-1,1C181.5,38.8,181.5,40.9,181.5,42.9z M81.5,49.7c-0.1,0.3-0.1,0.4-0.1,0.5c0.6,4.9-0.2,9.6-2.7,13.9
		c-0.1,0.2-0.1,0.5,0,0.7c1.5,2.5,3.2,4.7,6.1,5.6c2.8,0.9,6.4-0.4,8.2-2.8c1.7-2.4,1.6-5.5-0.3-8.1C89.6,55.5,85.3,53.1,81.5,49.7z
		"/>
	<path class="st0" d="M149.3,81.6c-46.6,0-93.1,0-139.7,0c-0.4,0-0.8,0-1.2,0c-0.3,0-0.5-0.2-0.8-0.4c0.2-0.1,0.5-0.3,0.7-0.4
		c0.2-0.1,0.4,0,0.5,0c93.6,0,187.2,0,280.7,0c0.1,0,0.3,0,0.4,0c0.3,0.1,0.5,0.3,0.7,0.4c-0.3,0.1-0.5,0.4-0.8,0.4
		c-1.1,0-2.1,0-3.2,0C241.1,81.6,195.2,81.6,149.3,81.6z"/>
	<path class="st0" d="M113.3,102.8c-1,0.4-1.3,0-1.4-0.8c-0.3-2.6-0.7-5.1-1-7.7c0-0.4-0.1-0.7-0.4-1.1c-1.6,3.3-3.2,6.5-4.9,10.1
		c-1.7-3.6-3.3-6.8-4.9-10.1c-0.1,0-0.2,0-0.3,0c-0.1,0.4-0.2,0.8-0.2,1.2c-0.3,2.5-0.7,5.1-0.9,7.6c-0.1,0.8-0.4,1.1-1.4,0.8
		c0.6-4.6,1.2-9.2,1.8-13.9c0.1,0,0.2,0,0.3-0.1c1.8,3.8,3.6,7.5,5.6,11.6c1.9-4,3.7-7.8,5.5-11.6c0.1,0,0.2,0,0.2,0
		C112,93.6,112.7,98.2,113.3,102.8z"/>
	<path class="st0" d="M264.6,91.9c-1.1-0.6-2.2-1.3-3.3-1.8c-2.8-1.2-6.5,0.5-7.7,3.3c-1.3,3.1,0.1,6.6,3,8c3,1.4,6.3,0.3,7.5-1.9
		c0.3-0.6,0.5-1.2,0.8-2.1c-1.2,0-2.2,0-3.2,0c-0.5,0-1.2,0.4-1.2-0.6c0-0.9,0.8-0.5,1.3-0.6c1.5-0.1,3,0,4.5,0
		c0.3,3.3-1.9,6.2-4.6,6.8c-3.1,0.7-6,0.3-8.2-2.3c-1.8-2.2-2.2-4.7-1.4-7.3c0.8-2.6,2.7-4.4,5.6-4.8c2.6-0.4,5,0,7.1,1.8
		C265.5,91.2,265.5,91.3,264.6,91.9z"/>
	<path class="st0" d="M23.2,95.9c0-4.3,3.1-7.4,7.3-7.4c4.1,0,7.3,3.3,7.2,7.5c0,4.2-3.2,7.4-7.3,7.4
		C26.2,103.3,23.2,100.2,23.2,95.9z M36.2,96c0-3.5-2.5-6.2-5.8-6.2c-3.3,0-5.9,2.6-5.9,6.1c0,3.4,2.6,6.2,5.9,6.2
		C33.7,102,36.2,99.4,36.2,96z"/>
	<path class="st0" d="M41.5,102.9c0-3.9,0-7.7,0-11.6c0-2.6,0-2.6,2.6-2.5c1,0,2,0,2.9,0.2c2.1,0.4,3.2,1.7,3.1,3.8
		c-0.1,1.9-1.4,3.3-3.4,3.5c-0.4,0-0.7,0.1-1.3,0.1c1.6,2.2,3.2,4.2,4.7,6.3c-1.2,0.4-1.3,0.4-2-0.5c-1.3-1.7-2.5-3.4-3.8-5.1
		c-0.3-0.4-0.8-0.6-1.1-0.8c-0.1,0.4-0.3,0.8-0.3,1.3c0,1.4,0,2.8,0,4.3C42.8,103.1,42.8,103.1,41.5,102.9z M42.9,90
		c0,1.6,0,3,0,4.3c0,0.2,0.4,0.6,0.6,0.7c1.1,0,2.3,0,3.4-0.1c1.2-0.2,1.9-1.1,1.9-2.2c0-1.2-0.5-2.1-1.7-2.3
		C45.7,90.2,44.4,90.1,42.9,90z"/>
	<path class="st0" d="M18,99.3c0-3.5,0-6.9,0-10.4c0.8-0.2,1.4-0.3,1.4,0.7c0,4.2,0,8.5,0,12.7c0,0.2-0.1,0.3-0.1,0.8
		c-3.1-3.7-6-7.1-9.2-10.9c0,3.7,0,7.1,0,10.6c-0.5,0-0.9,0-1.3,0c0-4.7,0-9.3,0-14.3c3.1,3.7,6.1,7.2,9.1,10.7
		C17.8,99.4,17.9,99.3,18,99.3z"/>
	<path class="st0" d="M132.4,96.5c1.7,2.3,3.2,4.3,4.8,6.4c-1,0.3-1.6,0-2.2-0.8c-1.2-1.7-2.5-3.4-3.8-5.1c-0.2-0.3-0.7-0.4-1-0.7
		c-0.1,0.4-0.3,0.7-0.3,1.1c0,1.5,0,3,0,4.5c0,1.1,0,1.1-1.2,0.9c0-4.6,0-9.3,0-14.1c2.1,0,4.1-0.3,6.2,0.4c1.8,0.6,2.5,1.9,2.3,4.1
		c-0.1,1.4-1.4,2.7-2.9,3C133.6,96.3,133.1,96.4,132.4,96.5z M129.8,92.5c0,0.6-0.1,1.2,0,1.7c0.1,0.3,0.4,0.7,0.7,0.7
		c1.1,0,2.2,0,3.3-0.1c1.2-0.2,1.9-1.1,1.9-2.3c0-1.2-0.5-2-1.8-2.3c-0.5-0.1-1.1-0.2-1.6-0.2C129.8,90,129.8,90.1,129.8,92.5z"/>
	<path class="st0" d="M73,102.9c-0.4,0-0.7,0-1.2,0c0-1.9,0-3.7,0-5.5c0-1-0.2-1.4-1.3-1.3c-1.6,0.1-3.1,0.1-4.7,0
		c-0.9,0-1.2,0.3-1.1,1.2c0.1,1.8,0,3.6,0,5.4c-1.3,0.4-1.4,0.3-1.4-0.8c0-4.1,0-8.1,0-12.2c0-0.3,0.1-0.6,0.1-1c0.4,0,0.8,0,1.3,0
		c0,1.6,0.1,3.1,0,4.6c-0.1,1.2,0.4,1.5,1.4,1.4c1.5-0.1,2.9-0.1,4.4,0c1,0,1.4-0.2,1.3-1.3c-0.1-1.6,0-3.1,0-4.8c0.5,0,0.8,0,1.2,0
		C73,93.5,73,98.2,73,102.9z"/>
	<path class="st0" d="M161.9,102.9c2.2-5,4.3-9.8,6.4-14.7c0.1,0,0.2,0,0.3,0c2.1,4.9,4.2,9.7,6.4,14.7c-0.9,0.3-1.4,0.2-1.7-0.7
		c-0.4-1.1-0.9-2.2-1.4-3.2c-0.2-0.4-0.7-0.7-1.1-0.7c-1.5-0.1-3-0.1-4.5,0c-0.3,0-0.8,0.3-1,0.6c-0.5,1-1.1,2.1-1.4,3.2
		C163.5,102.9,162.9,103.1,161.9,102.9z M168.5,91.3c-0.9,2-1.6,3.6-2.4,5.4c1.7,0,3.1,0,4.7,0C170.1,94.9,169.3,93.2,168.5,91.3z"
		/>
	<path class="st0" d="M199.5,88.3c2.1,4.9,4.2,9.7,6.3,14.6c-1,0.3-1.5,0.1-1.8-0.8c-0.4-1.1-0.9-2.2-1.5-3.3
		c-0.2-0.3-0.6-0.6-1-0.6c-1.5-0.1-3.1-0.1-4.6,0c-0.3,0-0.8,0.3-1,0.6c-0.6,1.1-1.1,2.2-1.5,3.3c-0.3,0.9-0.8,1.1-1.8,0.8
		c2.1-4.9,4.3-9.7,6.4-14.6C199.3,88.3,199.4,88.3,199.5,88.3z M199.5,91.6c-0.1,0-0.2,0-0.3,0c-0.7,1.7-1.5,3.3-2.2,5.1
		c1.7,0,3.1,0,4.7,0C200.9,94.9,200.2,93.3,199.5,91.6z"/>
	<path class="st0" d="M82.1,102.9c2.2-4.9,4.3-9.8,6.4-14.6c0.1,0,0.2,0,0.3,0c2.1,4.8,4.2,9.7,6.4,14.6c-0.9,0.3-1.5,0.2-1.8-0.7
		c-0.2-0.7-0.7-1.3-0.9-2c-0.4-1.7-1.4-2.3-3.1-2c-0.5,0.1-0.9,0-1.4,0c-2.5,0-2.5,0-3.4,2.3c-0.2,0.5-0.4,1-0.6,1.5
		C83.6,103,83.5,103,82.1,102.9z M91.1,96.7c-0.8-1.8-1.5-3.5-2.4-5.4c-0.9,2-1.6,3.6-2.4,5.4C88,96.7,89.4,96.7,91.1,96.7z"/>
	<path class="st0" d="M267.9,102.9c2.1-4.9,4.3-9.7,6.4-14.6c0.1,0,0.2-0.1,0.3-0.1c2.1,4.9,4.2,9.7,6.4,14.6
		c-1,0.3-1.5,0.1-1.8-0.8c-0.4-1.1-0.8-2.1-1.3-3.1c-0.2-0.4-0.7-0.7-1.1-0.8c-1.5-0.1-3-0.1-4.5,0c-0.4,0-0.9,0.4-1.1,0.8
		c-0.5,1-1,2-1.4,3.1C269.4,103,268.9,103.2,267.9,102.9z M272.1,96.7c1.6,0,3.1,0,4.7,0c-0.8-1.8-1.5-3.5-2.4-5.4
		C273.6,93.2,272.9,94.9,272.1,96.7z"/>
	<path class="st0" d="M240.2,88.8c2.3,0,4.7,0,7.1,0c0.2,0,0.6,0.5,0.6,0.6c-0.1,0.3-0.5,0.6-0.7,0.7c-1.4,0.1-2.8,0-4.3,0
		c-0.5,0-0.9,0-1.5,0c0,1.5,0,2.9,0,4.5c2.1,0,4.2,0,6.3,0c0.4,1,0.2,1.4-0.9,1.4c-1.5-0.1-3,0-4.5,0c-0.7,0-1.1,0.2-1,1
		c0.1,1.2,0,2.5,0,3.7c0,0.8,0.3,1,1,1c1.8,0,3.6,0,5.4,0c0,0.5,0,0.8,0,1.3c-2.4,0-4.9,0-7.3,0c-0.2,0-0.5-0.4-0.5-0.5
		c0-4.5,0-9,0.1-13.5C240.1,88.9,240.1,88.9,240.2,88.8z"/>
	<path class="st0" d="M158.3,99.9c0.3,0.2,0.6,0.4,0.8,0.6c-1.2,2.3-4.6,3.4-8.1,2.6c-2.9-0.6-5-3.4-5.2-6.7
		c-0.3-3.8,1.8-6.7,4.9-7.6c3.1-1,6.9-0.1,8.4,2.6c-0.3,0.2-0.6,0.4-0.9,0.7c-1.6-1.7-3.4-2.7-5.8-2.3c-1.4,0.2-2.6,0.9-3.6,1.9
		c-2.3,2.4-2.3,5.9-0.1,8.4C151,102.7,154.3,102.7,158.3,99.9z"/>
	<path class="st0" d="M117.2,88.8c2.6,0,5.1,0,7.6,0c0.4,1,0.1,1.4-1,1.3c-1.5-0.1-3,0-4.5,0c-0.7,0-0.9,0.2-1,0.9
		c-0.1,3.6-0.2,3.6,3.5,3.6c0.9,0,1.9,0,2.9,0c0,0.4,0,0.8,0,1.3c-1.7,0-3.3,0.1-5,0c-1,0-1.5,0.2-1.4,1.3c0.1,1.1,0.1,2.1,0,3.2
		c-0.1,0.9,0.2,1.2,1.2,1.2c1.7-0.1,3.4,0,5.2,0c0,0.4,0,0.8,0,1.3c-2.5,0-5,0-7.6,0C117.2,98.2,117.2,93.6,117.2,88.8z"/>
	<path class="st0" d="M207.8,100.4c0.3-0.2,0.6-0.4,0.9-0.5c0.5,0.5,0.9,1.1,1.4,1.5c1.1,1,2.4,0.9,3.4,0c0.9-0.8,1.1-2.2,0.2-3.3
		c-0.8-1-1.9-1.8-2.8-2.7c-0.8-0.8-1.6-1.6-2.1-2.6c-0.7-1.4-0.1-2.9,1.1-3.8c1-0.7,2.9-0.8,3.9,0c0.6,0.5,1.1,1,1.7,1.6
		c-0.5,0.4-0.8,0.6-1.1,0.9c-0.4-0.4-0.7-0.8-1.1-1.2c-1-0.8-2.1-0.8-2.8,0c-0.7,0.8-0.7,2.1,0.2,2.9c1.2,1.2,2.6,2.2,3.8,3.4
		c2.1,2.1,1.5,5.2-1,6.3C211.4,104,208.9,102.9,207.8,100.4z"/>
	<path class="st0" d="M290.9,90.5c-0.7,0.5-1,0.7-1.5,1.1c-0.3-0.4-0.5-0.9-0.9-1.2c-0.9-0.8-2.1-0.8-2.8-0.1
		c-0.8,0.8-0.8,2.1,0.1,2.9c0.9,0.9,1.9,1.6,2.8,2.4c1.3,1.2,2.5,2.4,2.2,4.4c-0.2,1.5-1,2.5-2.3,3c-1.4,0.6-2.9,0.5-4.1-0.6
		c-0.6-0.5-1.1-1.2-1.7-2c0.5-0.3,0.8-0.5,1.1-0.7c0.6,0.6,1.1,1.2,1.7,1.7c1,0.8,2.2,0.7,3.2-0.2c0.9-0.9,1.2-2,0.3-3
		c-0.9-1.1-1.9-1.9-3-2.9c-1.1-1-2.3-2-2.3-3.8c0-1.3,0.6-2.3,1.7-2.8c1.2-0.6,2.4-0.5,3.5,0.2C289.6,89.4,290.2,90,290.9,90.5z"/>
	<path class="st0" d="M224.5,88.9c1-0.4,1.5,0,1.8,0.9c1.2,3.2,2.5,6.4,3.8,9.5c0.1,0.2,0.2,0.4,0.4,0.8c0.7-1.8,1.4-3.4,2.1-5.1
		c0.7-1.8,1.5-3.6,2.2-5.4c0.3-0.8,0.8-1.1,1.8-0.7c-2,4.8-3.9,9.6-5.9,14.3c-0.1,0-0.2,0-0.3,0C228.4,98.5,226.4,93.7,224.5,88.9z"
		/>
	<path class="st0" d="M184.2,88.8c0.3,0,0.7,0,1.1,0c0,0.4,0.1,0.8,0.1,1.2c0,3.5,0,7.1,0,10.6c0,0.9,0.2,1.2,1.1,1.1
		c1.1-0.1,2.3-0.1,3.4,0c0.3,0,0.5,0.4,0.8,0.6c-0.3,0.2-0.5,0.6-0.8,0.6c-1.7,0.1-3.4,0.1-5.1,0c-0.2,0-0.7-0.4-0.7-0.7
		c0-4.4,0-8.8,0-13.2C184.1,89,184.2,88.9,184.2,88.8z"/>
	<path class="st0" d="M57.2,102.9c-0.5,0-0.8,0-1.3,0c0-0.6,0-1.1,0-1.7c0-3.3,0-6.6,0-10c0-0.9-0.3-1.3-1.2-1.2
		c-0.6,0.1-1.2,0-1.9,0c0-0.5,0-0.8,0-1.3c2.5,0,4.9,0,7.4,0c0,0.4,0,0.8,0,1.2c-1,0-2,0.1-3.1,0.1C57.2,94.5,57.2,98.6,57.2,102.9z
		"/>
	<path class="st0" d="M140.9,88.8c0.5,0,0.8,0,1.2,0c0,0.4,0.1,0.7,0.1,1c0,4,0,8.1,0,12.1c0,0.1,0,0.3,0,0.3
		c-0.2,0.3-0.5,0.5-0.7,0.7c-0.2-0.2-0.6-0.5-0.6-0.7c-0.1-1.2,0-2.3,0-3.5c0-3,0-5.9,0-8.9C140.9,89.6,140.9,89.2,140.9,88.8z"/>
</g>
</svg>
