<?xml version="1.0" encoding="utf-8"?>
<!-- Generator: Adobe Illustrator 21.1.0, SVG Export Plug-In . SVG Version: 6.00 Build 0)  -->
<svg version="1.1" id="Layer_1" xmlns="http://www.w3.org/2000/svg" xmlns:xlink="http://www.w3.org/1999/xlink" x="0px" y="0px"
	 viewBox="0 0 200 101.9" style="enable-background:new 0 0 200 101.9;" xml:space="preserve">
<style type="text/css">
	.st0{fill:#FFFFFF;}
	.st1{fill:#3860A5;}
</style>
<title>logos</title>
<path class="st0" d="M37.6,19.4c-2.8,0-3.7,3.5-3.7,5.8c0,2.2,0.7,6.3,3.7,6.3c3,0,3.8-4,3.8-6.3C41.4,22.8,40.5,19.4,37.6,19.4
	 M36.3,49.5c-1.7,0-4.6-0.7-5.8-1.8l0-2.3c1.4,1,4.1,1.5,5.9,1.5c2.6,0,6.5-1,6.5-4.2c0-3.6-4.4-3.2-6.9-3.2c-1.5,0-4.7-0.2-4.7-2.2
	c0-1.2,1.7-3.8,2.4-4.7c-2.4-1.7-3.2-4.8-3.2-7.5c0-4.7,2-8.1,7.1-8.1c1,0,1.9,0.1,2.8,0.5l5.4-0.7l0,2.7c-0.9-0.1-1.7-0.1-2.7-0.2
	c1.1,1.8,1.7,3.9,1.7,6.1c0,4.2-2.9,8.3-7.4,8.3c-0.8,0-1.6-0.1-2.3-0.4c-0.2,0.4-0.7,1.3-0.7,1.7c0,3.6,11.4-1.6,11.4,7.1
	C45.8,47.4,40.9,49.5,36.3,49.5"/>
<rect x="49.4" y="9" class="st0" width="3.4" height="30.5"/>
<path class="st0" d="M64.6,19.7c-4.1,0-5,5.6-5,8.7c0,3.1,0.8,8.9,5,8.9c4.2,0,5.1-5.7,5.1-8.9C69.7,25.3,68.7,19.7,64.6,19.7
	 M64.6,40c-6.5,0-8.4-6.3-8.4-11.7c0-5.6,1.7-11.4,8.4-11.4c6.6,0,8.4,5.7,8.4,11.4C73,33.8,71.1,40,64.6,40"/>
<path class="st0" d="M84.3,20.4c-2.8,0-4.6,2.7-4.6,5.3l0,10.2c1.2,0.6,3,1.1,4.4,1.1c3.8,0,4.6-5.5,4.6-8.3
	C88.7,25.9,87.9,20.4,84.3,20.4 M84.9,40c-1.6,0-3.8-0.7-5.3-1.4v0.9h-3.5V9h3.5V21c1.4-2.3,3.1-4,5.9-4c5.6,0,6.5,6.9,6.5,11.1
	C92.1,32.5,90.6,40,84.9,40"/>
<path class="st0" d="M104.3,28.4c-2.7,0-7,1-7,4.4c0,1.9,0.6,4.3,2.9,4.3c3.3,0,4.1-4.7,4.1-7.2V28.4 M106,39.8
	c-1.4,0-1.5-2.5-1.4-3.5c-0.8,2.3-3.3,3.7-5.7,3.7c-3.2,0-4.9-3.1-4.9-6c0-6.2,4.9-8.3,10.3-8.3v-1.4c0-2-1-4.5-3.3-4.5
	c-1.5,0-3.3,0.4-4.7,1v-1.9c1.4-1.2,3.5-2,5.3-2c4,0,6.1,3,6.1,6.7l0,10.3c0,0.6,0,3.2,0.4,3.6c0.2,0.2,0.6,0.2,0.8,0.2v1.7
	C107.9,39.7,106.9,39.8,106,39.8"/>
<rect x="112.3" y="9" class="st0" width="3.4" height="30.5"/>
<path class="st1" d="M62.1,45.3c-2.8,0-3.7,3.5-3.7,5.8c0,2.2,0.7,6.3,3.7,6.3c3,0,3.8-4,3.8-6.3C65.8,48.7,64.9,45.3,62.1,45.3
	 M60.7,75.4c-1.7,0-4.6-0.7-5.8-1.8l0-2.3c1.4,1.1,4.1,1.5,5.9,1.5c2.6,0,6.5-1,6.5-4.2c0-3.6-4.4-3.2-6.9-3.2
	c-1.5,0-4.7-0.2-4.7-2.2c0-1.2,1.7-3.8,2.4-4.7c-2.4-1.7-3.2-4.8-3.2-7.5c0-4.7,2-8.1,7.1-8.1c1,0,1.9,0.1,2.8,0.5l5.4-0.7l0,2.7
	c-0.9-0.1-1.7-0.1-2.7-0.2c1,1.8,1.7,3.9,1.7,6.1c0,4.2-2.9,8.4-7.4,8.4c-0.8,0-1.6-0.1-2.3-0.4c-0.2,0.4-0.7,1.3-0.7,1.7
	c0,3.6,11.4-1.6,11.4,7.1C70.3,73.2,65.3,75.4,60.7,75.4"/>
<path class="st1" d="M82.1,54.3c-2.7,0-7,1-7,4.4c0,1.9,0.6,4.3,2.9,4.3c3.3,0,4.1-4.7,4.1-7.2V54.3 M83.8,65.7
	c-1.4,0-1.5-2.5-1.4-3.5c-0.8,2.3-3.3,3.7-5.7,3.7c-3.2,0-4.9-3.1-4.9-6c0-6.2,4.9-8.3,10.3-8.3v-1.4c0-2-1-4.5-3.3-4.5
	c-1.5,0-3.3,0.4-4.7,1v-1.9c1.4-1.2,3.5-2,5.3-2c4,0,6.1,3,6.1,6.7l0,10.3c0,0.6,0,3.2,0.4,3.6c0.2,0.2,0.6,0.2,0.8,0.2v1.7
	C85.7,65.5,84.8,65.7,83.8,65.7"/>
<path class="st1" d="M111.5,65.4V52.2c0-2.4,0-6.2-3.3-6.2c-1.4,0-3,0.9-4.2,1.7c0.2,1,0.3,2.1,0.3,3.1v14.6h-3.4V52.2
	c0-2.3,0.2-6.2-3.1-6.2c-1.4,0-3.2,1-4.3,1.9v17.5h-3.4v-22h3.4l0,1.9c1.5-1.1,4.1-2.4,6-2.4c1.9,0,3.1,1,3.9,2.7
	c1.7-1.1,4.5-2.7,6.4-2.7c4.2,0,5.2,4.6,5.2,8v14.6H111.5"/>
<path class="st1" d="M119.6,43.4h3.4v22h-3.4V43.4z M121.3,39.9c-1.2,0-2-1-2-2.2c0-1.1,0.7-2.4,2-2.4c1.2,0,2,1.1,2,2.3
	C123.2,38.7,122.5,39.9,121.3,39.9"/>
<path class="st1" d="M139.1,65.4V52.2c0-2.4,0.2-6.2-3.1-6.2c-1.5,0-3.6,1-4.9,1.9v17.5h-3.4v-22h3.4v1.9c1.6-1,4.3-2.4,6.2-2.4
	c4.2,0,5.2,4.6,5.2,8v14.6H139.1"/>
<path class="st1" d="M153.2,45.3c-2.8,0-3.7,3.5-3.7,5.8c0,2.2,0.7,6.3,3.7,6.3c3,0,3.8-4,3.8-6.3C157,48.7,156.1,45.3,153.2,45.3
	 M151.9,75.4c-1.7,0-4.6-0.7-5.8-1.8l0-2.3c1.4,1.1,4.1,1.5,5.9,1.5c2.6,0,6.5-1,6.5-4.2c0-3.6-4.4-3.2-6.9-3.2
	c-1.5,0-4.7-0.2-4.7-2.2c0-1.2,1.7-3.8,2.4-4.7c-2.4-1.7-3.2-4.8-3.2-7.5c0-4.7,2-8.1,7.1-8.1c1,0,1.9,0.1,2.8,0.5l5.4-0.7l0,2.7
	c-0.9-0.1-1.7-0.1-2.7-0.2c1,1.8,1.7,3.9,1.7,6.1c0,4.2-2.9,8.4-7.4,8.4c-0.8,0-1.6-0.1-2.3-0.4c-0.2,0.4-0.7,1.3-0.7,1.7
	c0,3.6,11.4-1.6,11.4,7.1C161.4,73.2,156.5,75.4,151.9,75.4"/>
<path class="st0" d="M79.5,71.4c-3.1,0-4.3,4.4-4.4,6.8h8.5C83.6,75.8,82.6,71.4,79.5,71.4 M79.5,68.7c5.6,0,6.9,6,6.9,10.5
	c0,0.5,0,1,0,1.6H75c0,3.5,1.5,8,5.7,8c1.3,0,3.2-0.1,5-1.1v2.7c-1.5,0.9-3.9,1.4-5.6,1.4c-6.6,0-8.5-5.9-8.5-11.5
	C71.5,75.2,73.4,68.7,79.5,68.7"/>
<polygon class="st0" points="100.3,91.2 95.8,82.5 90.9,91.2 87.7,91.2 94.1,80.3 88,69.3 92.2,69.3 96.6,77.6 101.2,69.3 
	104.2,69.3 98.2,79.7 104.5,91.2 "/>
<path class="st0" d="M115.2,71.8c-1.7,0-3.5,0.9-4.8,2v9.3c0,2.4,2.2,5.3,4.8,5.3c3.7,0,4.5-5.4,4.5-8.1
	C119.7,77.6,118.8,71.8,115.2,71.8 M115.9,91.8c-2.4,0-4.4-1.6-5.4-3.6v11.5h-3.4V69.3h3.4l0,1.8c1.5-1.2,4-2.4,5.9-2.4
	c5.6,0,6.7,7,6.7,11.3C123,84.7,121.9,91.8,115.9,91.8"/>
<path class="st0" d="M133.5,71.4c-4.1,0-5,5.6-5,8.7c0,3.1,0.8,8.9,5,8.9c4.2,0,5.1-5.7,5.1-8.9C138.6,77,137.6,71.4,133.5,71.4
	 M133.5,91.8c-6.5,0-8.4-6.2-8.4-11.7c0-5.6,1.7-11.4,8.4-11.4c6.6,0,8.4,5.7,8.4,11.4C141.9,85.6,140,91.8,133.5,91.8"/>
<path class="st1" d="M122.8,21.8c-1.2-1.2-1.2-3.1,0-4.3l19.7-15.1c1.2-1.2,3.1-1.2,4.3,0l19.7,15.1c1.2,1.2,1.2,3.1,0,4.3L146.8,37
	c-1.2,1.2-3.1,1.2-4.3,0L122.8,21.8"/>
<path class="st0" d="M136.1,24.4c0.2,0,0.3,0,0.5,0l0-4.2h2.6v5.4c-1,0.6-2.4,1.1-3.6,1.1c-3.5,0-5.1-3.6-5.1-6.6
	c0-3.1,1.6-6.6,5.2-6.6c1,0,2.4,0.5,3.2,1v1.8c0,0-1.2-0.4-3.1-0.4c-2.3,0-2.7,2.4-2.7,4.2C133,22.1,133.6,24.4,136.1,24.4"/>
<path class="st0" d="M140.5,26.4v-1.8c0.6-1.2,1.5-2.2,2.4-3.2c1-1,2.6-2.5,2.6-4c0-1.1-0.8-1.7-1.9-1.7c-0.9,0-2.3,0.6-3.1,1
	c0-0.5,0-1,0-1.5c1-1.2,2-1.8,3.6-1.8c2.3,0,3.9,1.3,3.9,3.7c0,3.6-3.1,4.3-4.7,6.8l4.7,0v2.5H140.5"/>
<polygon class="st0" points="149.6,26.4 149.6,13.8 156.6,13.8 156.6,16 152.1,16 152.1,18.9 156.3,18.9 156.3,21 152.1,21 
	152.1,24.2 156.8,24.2 156.8,26.4 "/>
</svg>
