<?xml version="1.0" encoding="utf-8"?>
<!-- Generator: Adobe Illustrator 21.0.2, SVG Export Plug-In . SVG Version: 6.00 Build 0)  -->
<svg version="1.1" id="Layer_1" xmlns="http://www.w3.org/2000/svg" xmlns:xlink="http://www.w3.org/1999/xlink" x="0px" y="0px"
	 viewBox="0 0 200 101.9" style="enable-background:new 0 0 200 101.9;" xml:space="preserve">
<style type="text/css">
	.st0{fill:#FFFFFF;}
	.st1{fill:#88AC2E;}
</style>
<title>logos</title>
<g>
	<path class="st0" d="M145.5,1.3c0.7,0.3,1.3,0.4,1.8,0.8c6.6,5,13.1,10.1,19.7,15.1c2,1.5,2,3.7,0,5.2c-6.5,5-13.1,10.1-19.6,15.1
		c-1.2,0.9-2.6,1-3.8,0.1c-6.7-5.1-13.4-10.3-20-15.4c-1.6-1.2-1.6-3.5,0-4.7c6.6-5.1,13.3-10.3,20-15.4
		C144.1,1.8,144.8,1.6,145.5,1.3z M157.8,24.3c-1.6,0-3.1,0-4.6,0c0-1.1,0-2,0-3c1.4,0,2.7,0,4.1,0c0-0.8,0-1.5,0-2.2
		c-1.4,0-2.7,0-4,0c0-1,0-1.9,0-2.8c1.5,0,2.9,0,4.4,0c0-0.8,0-1.5,0-2.3c-0.3,0-0.6-0.1-0.9-0.1c-1.8,0-3.6,0-5.3,0
		c-0.7,0-1,0.2-1,1c0,3.7,0,7.3,0,11c0,0.3,0,0.6,0.1,0.9c2.5,0,4.9,0,7.4,0c0-0.6,0-1,0-1.5C157.9,25,157.8,24.8,157.8,24.3z
		 M137.2,24.6c-1.6,0.2-2.7-0.4-3.1-1.8c-0.3-1.3-0.4-2.6-0.3-3.9c0.2-2.2,1.3-3,3.5-2.7c0.7,0.1,1.4,0.2,2.2,0.3
		c-0.1-0.8,0.4-1.6-0.4-2.1c-2.5-1.4-5.6-1.1-7.2,1.9c-1.2,2.4-1.3,4.9-0.3,7.4c1.3,3.2,4.1,4.5,7.8,2.6c0.2-0.1,0.4-0.3,0.4-0.5
		c0-1.7,0-3.5,0-5.3c-0.9,0-1.8,0-2.7,0C137.2,21.8,137.2,23.2,137.2,24.6z M141.3,16.8c1.1-0.3,2.2-0.7,3.3-0.8
		c1.3-0.1,2.1,1,1.6,2.2c-0.4,1-1.1,1.8-1.8,2.7c-0.8,1-1.6,1.9-2.5,2.9c-0.7,0.9-0.8,1.8-0.6,2.9c2.5,0,5,0,7.5,0
		c0-0.9,0-1.7,0-2.6c-1.5,0-3,0-4.4,0c-0.1-0.1-0.2-0.2-0.2-0.4c0.4-0.3,0.9-0.6,1.3-1c0.7-0.7,1.5-1.3,2.2-2
		c1.3-1.4,1.6-3.7,0.8-5.2c-0.7-1.4-2.3-2.1-4.4-1.9C142.1,13.8,140.9,15.2,141.3,16.8z"/>
	<path class="st1" d="M111.9,66.2c0-4.3,0-8.5,0-12.7c0-1.2,0-2.4-0.2-3.5c-0.4-3-2.4-4.1-5.2-3c0,0-0.1,0-0.1,0
		c-2.1,0.9-2,0.9-1.9,3.2c0.1,5.2,0,10.5,0,15.7c0,0.1,0,0.1-0.1,0.3c-0.9,0-1.9,0-2.8,0c-0.2,0-0.5-0.5-0.5-0.8c0-2.9,0-5.7,0-8.6
		c0-2.2,0-4.3-0.1-6.5c0-0.4-0.1-0.8-0.2-1.2c-0.5-1.8-1.9-2.8-3.7-2.2C96,47,95,47.6,94,48.2c-0.3,0.2-0.4,0.7-0.4,1.1
		c0,5.2,0,10.5,0,15.7c0,0.4,0,0.7,0,1.2c-1,0-2,0-2.9,0c-0.2,0-0.4-0.4-0.5-0.6c-0.1-0.8,0-1.5,0-2.3c0-6,0-12.1,0-18.1
		c0-0.4,0-0.7,0-1.2c1.1,0,2.2,0,3.3,0c0,0.5,0,1,0.1,1.7c0.4-0.2,0.6-0.3,0.9-0.5c1.5-0.9,3.1-1.7,4.9-1.8c1.8-0.1,3.1,0.6,4,2.1
		c0.1,0.2,0.2,0.3,0.3,0.5c0.8-0.5,1.6-1,2.4-1.3c1.3-0.5,2.6-1.1,3.9-1.3c2.1-0.3,3.5,0.8,4.4,2.7c0.8,1.6,1,3.3,1,5
		c0,4.7,0,9.4,0,14.1c0,0.7-0.2,1-0.9,0.9C113.7,66.1,112.9,66.2,111.9,66.2z"/>
	<path class="st1" d="M54.6,72.3c2.7,1.3,5.3,1.8,8.1,1.2c1-0.2,2.1-0.7,3-1.2c1.3-0.8,1.7-2.1,1.4-3.5c-0.3-1.5-1.4-2.1-2.7-2.3
		c-1.5-0.2-3-0.1-4.5-0.2c-1-0.1-2-0.2-2.9-0.4c-1.4-0.4-1.9-1.4-1.3-2.8c0.6-1.3,1.3-2.5,2-3.9c-1.3-1-2.2-2.4-2.6-4.1
		c-0.6-2.4-0.7-4.8,0.1-7.2c0.9-2.7,3-4.4,5.9-4.4c1.1,0,2.2,0.3,3.3,0.3c1,0,2-0.1,3-0.2c0.9-0.1,1.8-0.2,2.7-0.3
		c0,0.9,0,1.7,0,2.5c-0.8,0-1.6,0-2.5,0c0.1,0.3,0.3,0.6,0.4,0.9c1.4,3.2,1.7,6.5,0,9.7c-1.7,3.1-4.6,4.4-8.1,3.7
		c-0.2,0-0.3-0.1-0.6-0.1c-0.2,0.4-0.4,0.8-0.5,1.1c-0.3,0.9,0,1.6,0.9,1.8c0.8,0.2,1.6,0.3,2.4,0.3c1.2,0.1,2.4,0.1,3.6,0.3
		c3.5,0.5,4.7,2.8,4.4,6.1c-0.2,2.4-1.5,4.2-3.7,5.4c-3.4,1.7-6.9,1.8-10.4,0.4c-1-0.4-1.6-1-1.4-2.2C54.6,73,54.6,72.7,54.6,72.3z
		 M65.8,51.8c-0.3-1.3-0.5-2.5-0.9-3.6c-0.6-1.6-1.8-2.5-3.2-2.4c-1.6,0-2.5,1.1-3.1,2.4c-1,2.6-0.9,5.2,0.2,7.8
		c0.5,1.2,1.4,2.1,2.8,2.1c1.4,0,2.4-0.8,2.9-2.1C65.2,54.6,65.5,53.2,65.8,51.8z"/>
	<path class="st1" d="M151.6,59.9c-0.2,0.4-0.4,0.8-0.5,1.2c-0.3,0.9,0,1.5,0.9,1.7c0.8,0.2,1.6,0.3,2.4,0.4
		c1.1,0.1,2.1,0.1,3.2,0.2c3.4,0.4,5.4,2.2,4.9,6.5c-0.3,2.6-1.9,4.4-4.3,5.4c-3,1.3-6.1,1.5-9.2,0.3c-2.5-1-2-0.8-1.9-3.3
		c2,1.1,4.1,1.5,6.4,1.4c1.5-0.1,2.9-0.4,4.2-1.2c1.1-0.6,1.8-1.6,1.8-2.9c0.1-1.6-0.6-2.7-2.1-3.1c-1-0.3-2-0.3-3-0.4
		c-1.4-0.1-2.8,0-4.2-0.2c-2.3-0.3-3-1.6-1.9-3.7c0.5-1,1.2-2,1.8-3.1c-3.2-3-3.6-6.7-2.8-10.7c0.7-3.3,3.1-5.2,6.4-5.1
		c1,0,2,0.3,3,0.3c1,0,2-0.1,3-0.2c0.9-0.1,1.8-0.2,2.8-0.3c0,0.9,0,1.7,0,2.6c-0.8,0-1.6-0.1-2.5-0.1c0.2,0.4,0.3,0.7,0.5,1.1
		c1.3,3,1.6,6.1,0.2,9.2c-1.6,3.4-4.8,4.9-8.5,4.1C151.9,60,151.8,59.9,151.6,59.9z M150.4,52.2c0.1,1.6,0.3,3.1,1.2,4.4
		c1.3,2,3.8,2.1,5,0.1c1.8-2.9,1.9-6.1,0.3-9.1c-1.3-2.4-4.2-2.4-5.6,0.1C150.6,49,150.4,50.6,150.4,52.2z"/>
	<path class="st0" d="M42.7,19.3c0.5,1.6,1.1,3,1.3,4.5c0.5,3.5-0.3,6.7-3.4,8.9c-1.6,1.1-3.3,1.4-5.2,1c-1.1-0.2-1.3-0.1-1.6,1
		c-0.3,0.9,0,1.6,0.9,1.9c0.9,0.2,1.8,0.3,2.8,0.4c1.2,0.1,2.5,0.1,3.7,0.3c3.4,0.6,4.4,3.2,4,6.1c-0.4,2.9-2.2,4.7-4.9,5.7
		c-2.9,1.1-5.8,1.2-8.7,0c-2.1-0.9-1.8-0.6-1.6-2.7c1.4,0.3,2.9,0.8,4.3,1c2.1,0.3,4.2,0,6.1-1c1.5-0.8,2.3-2.3,2-3.7
		c-0.3-1.6-1.4-2.6-3.2-2.7c-1.6-0.1-3.3-0.1-4.9-0.2c-0.8-0.1-1.7-0.2-2.5-0.5c-1.1-0.4-1.5-1.3-1-2.4c0.5-1.2,1.3-2.3,1.8-3.4
		c0.1-0.2,0.1-0.8,0-0.9c-1.6-1.4-2.4-3.3-2.7-5.4c-0.3-2-0.2-4,0.5-6c1.3-3.2,3.8-4.2,6.6-3.9c2.4,0.2,4.7,0.3,7.1-0.1
		c0.7-0.1,1.1,0.1,1,0.9c0,0.3,0,0.5,0,0.8c0,0.5-0.2,0.6-0.7,0.6C44,19.4,43.4,19.4,42.7,19.3z M33,25.4c0.1,0,0.2,0,0.3,0.1
		c0,1.8,0.2,3.5,1.2,5c1.3,2,4,2,5.2-0.1c1.7-3,1.9-6.1,0.3-9.2c-1.3-2.5-4.5-2.5-5.7,0C33.6,22.6,33.4,24,33,25.4z"/>
	<path class="st0" d="M110.7,89.5c0,0.9,0,1.7,0,2.6c0,2.6,0,5.2,0,7.8c0,0.6-0.2,0.9-0.9,0.9c-2.9-0.1-2.4,0.4-2.4-2.4
		c0-9,0-18,0-27c0-1.2,0-1.2,1.2-1.2c0.1,0,0.1,0,0.2,0c1.7,0,1.7,0,2,1.7c0.4-0.2,0.7-0.4,1.1-0.6c1.5-0.9,3-1.5,4.8-1.6
		c2.1-0.1,3.8,0.8,4.7,2.6c0.8,1.5,1.4,3.2,1.7,4.9c0.7,3.8,0.5,7.6-0.9,11.2c-0.7,1.8-1.9,3.3-3.8,4c-2.6,0.9-5.3,0-6.9-2.4
		c-0.2-0.2-0.3-0.5-0.5-0.7C110.9,89.5,110.8,89.5,110.7,89.5z M110.7,79.9c0,1.3,0,2.7,0,4c-0.1,1.7,0.6,3,1.7,4.2
		c1.1,1.2,2.5,1.9,4.2,1.4c1.7-0.5,2.4-1.9,2.9-3.4c0.8-2.4,1-4.8,0.5-7.2c-0.3-1.5-0.9-3.1-1.6-4.5c-0.6-1.2-1.7-1.7-3.1-1.7
		c-1.6,0.1-2.9,0.7-4.1,1.5c-0.3,0.2-0.6,0.8-0.6,1.2C110.7,76.9,110.7,78.4,110.7,79.9z"/>
	<path class="st0" d="M79.6,39.1c-0.1,0.8-0.6,0.8-1.2,0.8c-2.2,0-2.2,0-2.2-2.3c0-9.1,0-18.1,0-27.2c0-1.2,0-1.2,1.2-1.2
		c2.1,0,2.1,0,2.1,2c0,2.9,0,5.8,0,8.7c0,0.3,0,0.7,0,1c0.1,0,0.1,0.1,0.2,0.1c0.3-0.3,0.5-0.6,0.8-0.9c1.5-2,3.4-3.1,6-2.8
		c2.1,0.3,3.5,1.5,4.2,3.4c2.1,5.5,2,11-0.6,16.3c-1.2,2.4-3.6,3.7-5.8,3.3c-1.2-0.2-2.4-0.6-3.6-1C80.3,39.3,80,39.2,79.6,39.1z
		 M79.5,30.5c0,1,0,2,0,3c0,3.2,0,3.2,3.2,3.9c0,0,0.1,0,0.1,0c2.2,0.4,3.7-0.3,4.7-2.3c0.3-0.5,0.5-1,0.6-1.6
		c0.7-2.3,1-4.7,0.5-7.1c-0.3-1.4-0.8-2.9-1.4-4.1c-0.7-1.4-2.2-2-3.6-1.7c-2.3,0.4-4.1,2.6-4.1,5C79.5,27.3,79.5,28.9,79.5,30.5z"
		/>
	<path class="st1" d="M74,47.1c-0.1-2-0.4-1.7,1.5-2.7c1.4-0.8,3-1.1,4.6-0.9c2.7,0.2,4.9,2.4,5.2,5.3c0.1,1.5,0.1,3,0.1,4.5
		c0,3.1,0,6.3,0.1,9.4c0,0.7-0.1,1.5,1,1.8c0.2,0,0.2,0.8,0.2,1.2c0,0.2-0.3,0.4-0.5,0.5c-0.2,0.1-0.5,0.1-0.8,0.1
		c-2.5,0.2-2.8-0.1-3-2.5c0-0.1,0-0.2-0.1-0.5c-0.2,0.3-0.4,0.5-0.5,0.7c-1.3,1.7-3,2.6-5.1,2.6c-1.8,0-3.2-0.9-4.1-2.4
		c-2.5-4.2-0.4-9.7,4.3-11.2c1.4-0.5,2.9-0.6,4.4-0.8c0.6-0.1,0.9-0.3,0.8-0.9c-0.3-1.2-0.4-2.5-0.9-3.6c-0.4-1.1-1.5-1.6-2.7-1.5
		C77,46.5,75.6,46.8,74,47.1z M82.1,54.8c-1.4,0.3-2.8,0.5-4,0.9c-3.3,1.1-3.8,3.8-2.5,6.6c0.6,1.4,2.3,2,3.7,1.2
		c0.7-0.4,1.4-1.1,1.7-1.9C82.1,59.6,82.2,57.4,82.1,54.8z"/>
	<path class="st0" d="M134.2,69.8c3.8,0,6.3,1.7,7.4,5.3c1.4,4.3,1.4,8.6-0.3,12.9c-2.4,6.2-9.8,6-12.6,2.7c-0.8-0.9-1.4-1.9-1.8-3
		c-1.6-4.1-1.6-8.3-0.3-12.5C127.6,72.2,129.9,69.6,134.2,69.8z M129,81.3c0.1,1.1,0.2,2.3,0.3,3.4c0.1,0.8,0.4,1.6,0.7,2.3
		c0.5,1.4,1.3,2.5,2.8,3.1c2.3,0.9,4.6-0.3,5.6-2.9c1.4-3.6,1.4-7.2,0.3-10.8c-0.2-0.7-0.5-1.4-1-2c-1.9-2.8-5.5-2.8-7.2,0.2
		C129.3,76.5,129,78.9,129,81.3z"/>
	<path class="st0" d="M72.8,28c-0.1,3.2-0.4,5.7-1.5,8c-1.4,2.8-3.6,4.3-6.7,4.4c-3.2,0.1-5.6-1.3-7.1-4.2c-1-2-1.4-4.1-1.5-6.4
		c-0.1-2.7,0.1-5.4,1.2-8c1.3-3.1,4.2-4.7,7.6-4.6c4.6,0.2,6.9,3.4,7.6,7.2C72.7,25.9,72.7,27.3,72.8,28z M58.9,28.7
		c0.1,0,0.2,0,0.3,0.1c0,2.3,0.3,4.6,1.4,6.7c0.8,1.4,1.9,2.3,3.7,2.4c1.8,0,3-0.9,3.9-2.3c0.2-0.4,0.5-0.9,0.6-1.3
		c0.9-2.6,1.1-5.3,0.6-7.9c-0.3-1.5-0.7-3-1.5-4.3c-1.6-2.9-5.2-2.9-7.1-0.2c-0.3,0.5-0.6,1-0.8,1.5C59.7,25.1,59.3,26.9,58.9,28.7z
		"/>
	<path class="st1" d="M128.4,44c1.1,0,2.1,0,3.2,0c0,0.6,0.1,1.1,0.1,1.7c0.8-0.4,1.5-0.9,2.2-1.2c1.3-0.5,2.7-1,4.1-1.1
		c1.8-0.2,3.3,0.7,4,2.4c0.6,1.4,1.1,2.9,1.1,4.3c0.1,5.3,0.1,10.6,0.1,15.9c-1.1,0-2.1,0-3.3,0c0-0.3,0-0.6,0-0.9c0-4.5,0-9,0-13.5
		c0-0.9-0.1-1.8-0.3-2.7c-0.5-1.9-1.8-2.8-3.7-2.3c-1.3,0.3-2.5,1-3.7,1.6c-0.3,0.1-0.4,0.8-0.4,1.1c0,5.1,0,10.3,0,15.4
		c0,1.4,0,1.4-1.4,1.4c-0.6,0-1.2,0-1.9,0C128.4,58.8,128.4,51.4,128.4,44z"/>
	<path class="st0" d="M96.7,20.8c-0.4-1.3-0.3-1.6,0.8-2.2c2.4-1.4,5-1.9,7.6-0.4c2,1.2,2.7,3.1,2.8,5.3c0.1,4,0,8,0,12
		c0,0.6,0.1,1.3,0.2,1.9c0.1,0.3,0.3,0.8,0.6,0.9c0.6,0.3,0.6,0.8,0.4,1.2c-0.1,0.3-0.6,0.4-0.9,0.6c-0.1,0-0.2,0-0.3,0
		c-2.5,0.2-2.8-0.1-3-2.6c0-0.1-0.1-0.3-0.1-0.6c-0.3,0.4-0.4,0.6-0.6,0.8c-1.2,1.9-3.9,3.1-5.9,2.6c-2.3-0.5-4-2.8-4.1-5.4
		c-0.1-4.6,2.3-7.6,7-8.5c0.9-0.2,1.8-0.3,2.8-0.3c0.6,0,0.8-0.3,0.7-0.9c-0.1-0.7-0.1-1.5-0.3-2.2c-0.6-2.7-2.3-3.6-5.4-2.9
		C98.3,20.3,97.5,20.6,96.7,20.8z M104.7,30.2c0-0.2,0-0.4,0-0.5c0-1-0.2-1.2-1.2-1c-0.9,0.2-1.8,0.3-2.6,0.5
		c-3.6,1.2-4.3,3.8-3,6.8c0.6,1.4,2.1,2,3.6,1.5c0.9-0.3,1.6-1,2-1.9C104.4,34,104.6,32.1,104.7,30.2z"/>
	<path class="st0" d="M85.5,89.3c0,0.5,0,1.1,0,1.7c0,0.3-0.2,0.6-0.4,0.7c-3.3,1.3-6.5,1.8-9.7-0.3c-2-1.4-2.9-3.5-3.4-5.8
		c-0.8-4.1-0.7-8.2,1.2-12c1.8-3.4,4.7-4.4,8.1-3.6c1.8,0.4,3,1.8,3.7,3.5c1.1,2.4,1.3,4.9,1.3,7.5c0,0.7-0.4,0.7-0.9,0.7
		c-3.1,0-6.3,0-9.4,0c-1.3,0-1.4,0.1-1.2,1.3c0.3,2.3,0.9,4.5,2.8,6.1c1.1,0.9,2.4,1.2,3.8,1C82.8,89.8,84.1,89.5,85.5,89.3z
		 M79.1,79.4c1.2,0,2.4,0,3.5,0c0.8,0,1.2-0.3,1-1.1c-0.4-1.4-0.6-3-1.3-4.3c-1.4-2.5-4.3-2.5-5.9-0.1c-1,1.4-1.4,3-1.5,4.7
		c0,0.6,0.2,0.8,0.7,0.8C76.9,79.3,78,79.4,79.1,79.4z"/>
	<path class="st0" d="M88.3,70.3c1.3,0,2.4,0,3.5,0c0.3,0,0.7,0.4,0.8,0.7c1.2,2.2,2.4,4.5,3.6,6.7c0.2,0.3,0.3,0.6,0.6,1
		c0.3-0.5,0.6-0.9,0.8-1.3c1.1-2,2.3-4,3.3-6c0.4-0.8,0.9-1.2,1.8-1.1c0.4,0.1,0.8,0,1.4,0c-0.3,0.5-0.5,1-0.7,1.4
		c-1.6,2.8-3.1,5.5-4.7,8.3c-0.3,0.6-0.3,1,0,1.6c1.8,3.3,3.6,6.7,5.5,10c0.1,0.2,0.2,0.4,0.4,0.7c-1.3,0-2.5,0.1-3.7,0
		c-0.3,0-0.5-0.5-0.7-0.8c-1.2-2.3-2.4-4.7-3.6-7c-0.1-0.3-0.3-0.5-0.6-1c-0.3,0.5-0.5,0.9-0.7,1.2c-1.3,2.3-2.5,4.5-3.8,6.8
		c-0.4,0.7-0.8,1-1.6,0.9c-0.6-0.1-1.1,0-1.9,0c0.7-1.1,1.2-2.1,1.8-3.1c1.3-2.3,2.7-4.6,4.1-6.9c0.4-0.7,0.4-1.2,0-2
		C92,77.1,90.2,73.8,88.3,70.3z"/>
	<path class="st0" d="M112.7,24.5c0-4.7,0-9.5,0-14.2c0-0.8,0.2-1.1,1.1-1.1c2.2,0,2.2,0,2.2,2.2c0,9.1,0,18.2,0,27.3
		c0,1.2,0,1.2-1.2,1.2c-2.1,0-2.1,0-2.1-2C112.7,33.4,112.7,28.9,112.7,24.5z"/>
	<path class="st0" d="M49.2,24.4c0-4.7,0-9.4,0-14c0-1.2,0-1.2,1.2-1.2c2.2,0,1.9-0.3,1.9,1.9c0,9.2,0,18.4,0,27.5
		c0,1.2,0,1.2-1.2,1.2c-2.2,0-1.9,0.3-1.9-1.9C49.2,33.4,49.2,28.9,49.2,24.4z"/>
	<path class="st1" d="M120.1,44c1.1,0,2.2,0,3.3,0c0,7.4,0,14.7,0,22.1c-1.1,0-2.1,0-3.3,0C120.1,58.8,120.1,51.4,120.1,44z"/>
	<path class="st1" d="M123.7,38c0,1.4-0.8,2.3-1.9,2.3c-1.2,0-2-0.9-2-2.2c0-1.3,0.8-2.3,1.9-2.3C122.9,35.8,123.7,36.7,123.7,38z"
		/>
</g>
</svg>
