<?xml version="1.0" encoding="utf-8"?>
<!-- Generator: Adobe Illustrator 21.1.0, SVG Export Plug-In . SVG Version: 6.00 Build 0)  -->
<svg version="1.1" id="Layer_1" xmlns="http://www.w3.org/2000/svg" xmlns:xlink="http://www.w3.org/1999/xlink" x="0px" y="0px"
	 viewBox="0 0 331.5 168.9" style="enable-background:new 0 0 331.5 168.9;" xml:space="preserve">
<style type="text/css">
	.st0{fill:#FFFFFF;}
	.st1{clip-path:url(#SVGID_3_);fill:url(#SVGID_4_);}
	.st2{clip-path:url(#SVGID_3_);fill:url(#SVGID_5_);}
	.st3{clip-path:url(#SVGID_8_);fill:url(#SVGID_9_);}
	.st4{clip-path:url(#SVGID_8_);fill:url(#SVGID_10_);}
	.st5{clip-path:url(#SVGID_13_);fill:url(#SVGID_14_);}
	.st6{clip-path:url(#SVGID_13_);fill:url(#SVGID_15_);}
	.st7{clip-path:url(#SVGID_18_);fill:url(#SVGID_19_);}
	.st8{clip-path:url(#SVGID_18_);fill:url(#SVGID_20_);}
</style>
<title>logos</title>
<g>
	<g>
		<path class="st0" d="M111.2,37.3V18.6h3.8V26h7.4v-7.4h3.8v18.7h-3.8v-8.2h-7.4v8.2H111.2z"/>
		<path class="st0" d="M138.6,33l3.6,0.6c-0.5,1.3-1.2,2.3-2.2,3c-1,0.7-2.2,1-3.7,1c-2.4,0-4.1-0.8-5.2-2.3
			c-0.9-1.2-1.3-2.8-1.3-4.7c0-2.2,0.6-4,1.8-5.3s2.7-1.9,4.4-1.9c2,0,3.6,0.7,4.8,2c1.2,1.3,1.7,3.4,1.7,6.1h-9
			c0,1.1,0.3,1.9,0.9,2.5c0.6,0.6,1.2,0.9,2.1,0.9c0.6,0,1-0.2,1.4-0.5C138.1,34.2,138.4,33.7,138.6,33z M138.8,29.4
			c0-1-0.3-1.8-0.8-2.4c-0.5-0.5-1.1-0.8-1.9-0.8c-0.8,0-1.4,0.3-1.9,0.9s-0.8,1.3-0.8,2.3H138.8z"/>
		<path class="st0" d="M148.8,27.9l-3.2-0.6c0.4-1.3,1-2.3,1.9-2.9c0.9-0.6,2.2-0.9,4-0.9c1.6,0,2.8,0.2,3.6,0.6
			c0.8,0.4,1.3,0.9,1.7,1.4c0.3,0.6,0.5,1.7,0.5,3.2l0,4.2c0,1.2,0.1,2.1,0.2,2.6c0.1,0.6,0.3,1.2,0.6,1.8h-3.5
			c-0.1-0.2-0.2-0.6-0.3-1.1c-0.1-0.2-0.1-0.4-0.1-0.4c-0.6,0.6-1.3,1-2,1.3c-0.7,0.3-1.4,0.4-2.2,0.4c-1.4,0-2.5-0.4-3.3-1.1
			c-0.8-0.8-1.2-1.7-1.2-2.9c0-0.8,0.2-1.4,0.5-2c0.4-0.6,0.9-1.1,1.5-1.4c0.7-0.3,1.6-0.6,2.8-0.8c1.7-0.3,2.8-0.6,3.5-0.9v-0.4
			c0-0.7-0.2-1.2-0.5-1.5s-1-0.4-1.9-0.4c-0.6,0-1.1,0.1-1.5,0.4C149.3,26.8,149,27.3,148.8,27.9z M153.6,30.8
			c-0.5,0.2-1.2,0.3-2.2,0.5c-1,0.2-1.6,0.4-1.9,0.6c-0.5,0.3-0.7,0.8-0.7,1.3c0,0.5,0.2,0.9,0.6,1.3c0.4,0.4,0.9,0.5,1.4,0.5
			c0.6,0,1.3-0.2,1.8-0.6c0.4-0.3,0.7-0.7,0.9-1.2c0.1-0.3,0.1-0.9,0.1-1.7V30.8z"/>
		<path class="st0" d="M161.5,37.3V18.6h3.6v18.7H161.5z"/>
		<path class="st0" d="M175.8,23.8v2.9h-2.4v5.5c0,1.1,0,1.7,0.1,1.9c0,0.2,0.2,0.3,0.3,0.5c0.2,0.1,0.4,0.2,0.6,0.2
			c0.3,0,0.8-0.1,1.4-0.3l0.3,2.8c-0.8,0.4-1.8,0.5-2.8,0.5c-0.6,0-1.2-0.1-1.7-0.3c-0.5-0.2-0.9-0.5-1.1-0.8
			c-0.2-0.3-0.4-0.8-0.5-1.4c-0.1-0.4-0.1-1.3-0.1-2.5v-5.9h-1.6v-2.9h1.6v-2.7l3.6-2.1v4.8H175.8z"/>
		<path class="st0" d="M182.7,18.6v6.9c1.2-1.4,2.5-2,4.1-2c0.8,0,1.6,0.2,2.2,0.5s1.2,0.7,1.5,1.2c0.3,0.5,0.6,1,0.7,1.6
			c0.1,0.6,0.2,1.5,0.2,2.7v7.9h-3.6v-7.1c0-1.4-0.1-2.3-0.2-2.7c-0.1-0.4-0.4-0.7-0.7-0.9c-0.3-0.2-0.8-0.3-1.3-0.3
			c-0.6,0-1.1,0.1-1.6,0.4c-0.5,0.3-0.8,0.7-1,1.3c-0.2,0.6-0.3,1.4-0.3,2.6v6.8h-3.6V18.6H182.7z"/>
		<path class="st0" d="M113.8,57.4l-3.2-0.6c0.4-1.3,1-2.3,1.9-2.9c0.9-0.6,2.2-0.9,4-0.9c1.6,0,2.8,0.2,3.6,0.6
			c0.8,0.4,1.3,0.9,1.6,1.4c0.3,0.6,0.5,1.7,0.5,3.2l0,4.2c0,1.2,0.1,2.1,0.2,2.6c0.1,0.6,0.3,1.2,0.6,1.8h-3.5
			c-0.1-0.2-0.2-0.6-0.3-1.1c-0.1-0.2-0.1-0.4-0.1-0.4c-0.6,0.6-1.3,1-2,1.3c-0.7,0.3-1.4,0.4-2.2,0.4c-1.4,0-2.5-0.4-3.3-1.1
			c-0.8-0.8-1.2-1.7-1.2-2.9c0-0.8,0.2-1.4,0.5-2s0.9-1.1,1.5-1.4c0.7-0.3,1.6-0.6,2.8-0.8c1.7-0.3,2.8-0.6,3.5-0.9v-0.4
			c0-0.7-0.2-1.2-0.5-1.5c-0.3-0.3-1-0.4-1.9-0.4c-0.6,0-1.1,0.1-1.5,0.4C114.3,56.3,114,56.8,113.8,57.4z M118.6,60.3
			c-0.5,0.2-1.2,0.3-2.2,0.5c-1,0.2-1.6,0.4-1.9,0.6c-0.5,0.3-0.7,0.8-0.7,1.3c0,0.5,0.2,0.9,0.6,1.3c0.4,0.4,0.9,0.5,1.4,0.5
			c0.6,0,1.3-0.2,1.8-0.6c0.4-0.3,0.7-0.7,0.9-1.2c0.1-0.3,0.1-0.9,0.1-1.7V60.3z"/>
		<path class="st0" d="M138.8,66.8h-3.6v-6.9c0-1.5-0.1-2.4-0.2-2.8c-0.2-0.4-0.4-0.8-0.7-1c-0.3-0.2-0.8-0.4-1.2-0.4
			c-0.6,0-1.2,0.2-1.7,0.5c-0.5,0.3-0.8,0.8-1,1.4c-0.2,0.6-0.3,1.6-0.3,3.1v6.1h-3.6V53.3h3.3v2c1.2-1.5,2.7-2.3,4.5-2.3
			c0.8,0,1.5,0.1,2.2,0.4c0.7,0.3,1.1,0.6,1.5,1.1c0.3,0.4,0.6,0.9,0.7,1.5c0.1,0.6,0.2,1.4,0.2,2.4V66.8z"/>
		<path class="st0" d="M155.7,66.8h-3.3v-2c-0.6,0.8-1.2,1.3-2,1.7c-0.8,0.4-1.5,0.6-2.3,0.6c-1.6,0-2.9-0.6-4-1.9s-1.7-3-1.7-5.2
			c0-2.3,0.5-4,1.6-5.2c1.1-1.2,2.4-1.8,4.1-1.8c1.5,0,2.8,0.6,3.9,1.9v-6.7h3.6V66.8z M146.1,59.8c0,1.4,0.2,2.5,0.6,3.1
			c0.6,0.9,1.4,1.4,2.4,1.4c0.8,0,1.5-0.4,2.1-1.1c0.6-0.7,0.9-1.7,0.9-3.1c0-1.6-0.3-2.7-0.8-3.4s-1.3-1-2.2-1
			c-0.8,0-1.6,0.3-2.1,1C146.4,57.4,146.1,58.4,146.1,59.8z"/>
		<path class="st0" d="M111.1,77.6h6.9c1.6,0,2.7,0.1,3.6,0.4c1.1,0.3,2,0.9,2.8,1.7c0.8,0.8,1.4,1.8,1.8,3c0.4,1.2,0.6,2.7,0.6,4.4
			c0,1.5-0.2,2.9-0.6,4c-0.5,1.4-1.1,2.5-2,3.3c-0.7,0.6-1.5,1.1-2.6,1.5c-0.8,0.3-1.9,0.4-3.3,0.4h-7.1V77.6z M114.9,80.8v12.4h2.8
			c1.1,0,1.8-0.1,2.3-0.2c0.6-0.2,1.1-0.4,1.5-0.8c0.4-0.4,0.7-1,1-1.8c0.3-0.8,0.4-2,0.4-3.4s-0.1-2.6-0.4-3.3
			c-0.3-0.8-0.6-1.4-1.1-1.8c-0.5-0.4-1-0.7-1.7-0.9c-0.5-0.1-1.6-0.2-3.1-0.2H114.9z"/>
		<path class="st0" d="M130.8,80.9v-3.3h3.6v3.3H130.8z M130.8,96.3V82.8h3.6v13.5H130.8z"/>
		<path class="st0" d="M137.6,92.4l3.6-0.5c0.2,0.7,0.5,1.2,0.9,1.6c0.5,0.4,1.1,0.5,2,0.5c0.9,0,1.6-0.2,2.1-0.5
			c0.3-0.2,0.5-0.6,0.5-1c0-0.3-0.1-0.5-0.3-0.7c-0.2-0.2-0.6-0.3-1.2-0.5c-2.9-0.6-4.7-1.2-5.5-1.7c-1.1-0.7-1.6-1.7-1.6-3
			c0-1.2,0.5-2.2,1.4-3c0.9-0.8,2.4-1.2,4.3-1.2c1.9,0,3.2,0.3,4.1,0.9c0.9,0.6,1.5,1.5,1.9,2.7l-3.4,0.6c-0.1-0.5-0.4-0.9-0.8-1.2
			c-0.4-0.3-1-0.4-1.7-0.4c-0.9,0-1.6,0.1-2,0.4c-0.3,0.2-0.4,0.4-0.4,0.7c0,0.3,0.1,0.5,0.4,0.7c0.3,0.2,1.4,0.6,3.3,1
			c1.9,0.4,3.2,1,4,1.6c0.7,0.6,1.1,1.5,1.1,2.7c0,1.2-0.5,2.3-1.6,3.2c-1,0.9-2.6,1.3-4.6,1.3c-1.8,0-3.3-0.4-4.4-1.1
			C138.7,94.7,138,93.7,137.6,92.4z"/>
		<path class="st0" d="M156.9,86.9l-3.2-0.6c0.4-1.3,1-2.3,1.9-2.9c0.9-0.6,2.2-0.9,4-0.9c1.6,0,2.8,0.2,3.6,0.6
			c0.8,0.4,1.3,0.9,1.7,1.4c0.3,0.6,0.5,1.7,0.5,3.2l0,4.2c0,1.2,0.1,2.1,0.2,2.6c0.1,0.6,0.3,1.2,0.6,1.8h-3.5
			c-0.1-0.2-0.2-0.6-0.3-1.1c-0.1-0.2-0.1-0.4-0.1-0.4c-0.6,0.6-1.3,1-2,1.3s-1.4,0.4-2.2,0.4c-1.4,0-2.5-0.4-3.3-1.1
			c-0.8-0.8-1.2-1.7-1.2-2.9c0-0.8,0.2-1.4,0.5-2c0.4-0.6,0.9-1.1,1.5-1.4c0.7-0.3,1.6-0.6,2.8-0.8c1.7-0.3,2.8-0.6,3.5-0.9v-0.4
			c0-0.7-0.2-1.2-0.5-1.5s-1-0.4-1.9-0.4c-0.6,0-1.1,0.1-1.5,0.4C157.4,85.8,157.1,86.3,156.9,86.9z M161.7,89.8
			c-0.5,0.2-1.2,0.3-2.2,0.5c-1,0.2-1.6,0.4-1.9,0.6c-0.5,0.3-0.7,0.8-0.7,1.3c0,0.5,0.2,0.9,0.6,1.3c0.4,0.4,0.9,0.5,1.4,0.5
			c0.6,0,1.3-0.2,1.8-0.6c0.4-0.3,0.7-0.7,0.9-1.2c0.1-0.3,0.1-0.9,0.1-1.7V89.8z"/>
		<path class="st0" d="M169.4,96.3V77.6h3.6v6.7c1.1-1.3,2.4-1.9,3.9-1.9c1.6,0,3,0.6,4.1,1.8c1.1,1.2,1.6,2.9,1.6,5.1
			c0,2.3-0.5,4.1-1.6,5.3c-1.1,1.2-2.4,1.9-4,1.9c-0.8,0-1.5-0.2-2.3-0.6c-0.8-0.4-1.4-1-1.9-1.7v2H169.4z M173,89.2
			c0,1.4,0.2,2.4,0.7,3.1c0.6,1,1.4,1.4,2.5,1.4c0.8,0,1.5-0.3,2-1c0.6-0.7,0.8-1.7,0.8-3.2c0-1.5-0.3-2.7-0.8-3.3
			c-0.6-0.7-1.3-1-2.2-1c-0.9,0-1.6,0.3-2.1,1S173,87.9,173,89.2z"/>
		<path class="st0" d="M186.4,80.9v-3.3h3.6v3.3H186.4z M186.4,96.3V82.8h3.6v13.5H186.4z"/>
		<path class="st0" d="M194.4,96.3V77.6h3.6v18.7H194.4z"/>
		<path class="st0" d="M202.5,80.9v-3.3h3.6v3.3H202.5z M202.5,96.3V82.8h3.6v13.5H202.5z"/>
		<path class="st0" d="M216.8,82.8v2.9h-2.4v5.5c0,1.1,0,1.7,0.1,1.9c0,0.2,0.2,0.3,0.3,0.5c0.2,0.1,0.4,0.2,0.6,0.2
			c0.3,0,0.8-0.1,1.4-0.3l0.3,2.8c-0.8,0.4-1.8,0.5-2.8,0.5c-0.6,0-1.2-0.1-1.7-0.3c-0.5-0.2-0.9-0.5-1.1-0.8
			c-0.2-0.3-0.4-0.8-0.5-1.4c-0.1-0.4-0.1-1.3-0.1-2.5v-5.9h-1.6v-2.9h1.6v-2.7l3.6-2.1v4.8H216.8z"/>
		<path class="st0" d="M218.4,82.8h3.8l3.2,9.6l3.2-9.6h3.7l-4.8,13l-0.9,2.4c-0.3,0.8-0.6,1.4-0.9,1.8c-0.3,0.4-0.6,0.8-1,1
			c-0.4,0.3-0.8,0.5-1.4,0.6c-0.5,0.1-1.1,0.2-1.8,0.2c-0.7,0-1.4-0.1-2-0.2l-0.3-2.8c0.6,0.1,1.1,0.2,1.5,0.2
			c0.8,0,1.4-0.2,1.8-0.7c0.4-0.5,0.7-1.1,0.9-1.9L218.4,82.8z"/>
		<path class="st0" d="M111.2,124.6v-18.8h13.9v3.2H115v4.2h9.4v3.2H115v5.1h10.5v3.2H111.2z"/>
		<path class="st0" d="M135.7,111v2.9h-2.5v5.5c0,1.1,0,1.8,0.1,1.9c0,0.2,0.2,0.3,0.3,0.5c0.2,0.1,0.4,0.2,0.6,0.2
			c0.3,0,0.8-0.1,1.4-0.3l0.3,2.8c-0.8,0.4-1.8,0.5-2.8,0.5c-0.7,0-1.2-0.1-1.8-0.3c-0.5-0.2-0.9-0.5-1.1-0.8
			c-0.2-0.3-0.4-0.8-0.5-1.4c-0.1-0.4-0.1-1.3-0.1-2.5v-5.9H128V111h1.7v-2.7l3.6-2.1v4.8H135.7z"/>
		<path class="st0" d="M142.7,105.8v6.9c1.2-1.4,2.6-2,4.2-2c0.8,0,1.6,0.2,2.2,0.5c0.7,0.3,1.2,0.7,1.5,1.2s0.6,1,0.7,1.6
			s0.2,1.5,0.2,2.7v8h-3.6v-7.2c0-1.4-0.1-2.3-0.2-2.7c-0.1-0.4-0.4-0.7-0.7-0.9c-0.3-0.2-0.8-0.3-1.3-0.3c-0.6,0-1.1,0.1-1.6,0.4
			c-0.5,0.3-0.8,0.7-1,1.3c-0.2,0.6-0.3,1.5-0.3,2.6v6.8h-3.6v-18.8H142.7z"/>
		<path class="st0" d="M156,109.1v-3.3h3.6v3.3H156z M156,124.6V111h3.6v13.6H156z"/>
		<path class="st0" d="M176,115l-3.6,0.6c-0.1-0.7-0.4-1.2-0.8-1.6c-0.4-0.4-1-0.5-1.6-0.5c-0.9,0-1.6,0.3-2.1,0.9
			c-0.5,0.6-0.8,1.7-0.8,3.1c0,1.6,0.3,2.8,0.8,3.4c0.5,0.7,1.3,1,2.2,1c0.7,0,1.2-0.2,1.7-0.6c0.4-0.4,0.7-1.1,0.9-2l3.5,0.6
			c-0.4,1.6-1.1,2.9-2.1,3.7c-1,0.8-2.4,1.2-4.2,1.2c-2,0-3.6-0.6-4.8-1.9c-1.2-1.3-1.8-3-1.8-5.2c0-2.2,0.6-4,1.8-5.3
			c1.2-1.3,2.8-1.9,4.8-1.9c1.7,0,3,0.4,4,1.1C174.8,112.4,175.5,113.5,176,115z"/>
		<path class="st0" d="M178.3,120.7l3.6-0.6c0.2,0.7,0.5,1.2,0.9,1.6c0.5,0.4,1.1,0.5,2,0.5c0.9,0,1.6-0.2,2.1-0.5
			c0.3-0.2,0.5-0.6,0.5-1c0-0.3-0.1-0.5-0.3-0.7c-0.2-0.2-0.6-0.3-1.2-0.5c-2.9-0.6-4.7-1.2-5.5-1.8c-1.1-0.7-1.6-1.8-1.6-3.1
			c0-1.2,0.5-2.2,1.4-3c0.9-0.8,2.4-1.2,4.3-1.2c1.9,0,3.2,0.3,4.2,0.9c0.9,0.6,1.5,1.5,1.9,2.7l-3.4,0.6c-0.1-0.5-0.4-0.9-0.8-1.2
			c-0.4-0.3-1-0.4-1.7-0.4c-1,0-1.6,0.1-2,0.4c-0.3,0.2-0.4,0.4-0.4,0.7c0,0.3,0.1,0.5,0.4,0.7c0.3,0.2,1.4,0.6,3.4,1s3.3,1,4,1.6
			c0.8,0.6,1.1,1.5,1.1,2.7c0,1.2-0.5,2.3-1.6,3.2s-2.6,1.3-4.6,1.3c-1.9,0-3.3-0.4-4.4-1.1C179.3,123,178.6,122,178.3,120.7z"/>
		<path class="st0" d="M123.1,147.2l3.7,1.2c-0.6,2-1.5,3.6-2.8,4.5c-1.3,1-3,1.5-5,1.5c-2.5,0-4.5-0.8-6.1-2.5
			c-1.6-1.7-2.4-4-2.4-6.9c0-3.1,0.8-5.5,2.4-7.2c1.6-1.7,3.7-2.6,6.3-2.6c2.3,0,4.1,0.7,5.6,2c0.8,0.8,1.5,1.9,1.9,3.4l-3.7,0.9
			c-0.2-1-0.7-1.7-1.4-2.3c-0.7-0.6-1.6-0.8-2.6-0.8c-1.4,0-2.5,0.5-3.4,1.5c-0.9,1-1.3,2.6-1.3,4.8c0,2.4,0.4,4,1.3,5
			c0.8,1,2,1.5,3.3,1.5c1,0,1.9-0.3,2.6-1C122.3,149.6,122.8,148.6,123.1,147.2z"/>
		<path class="st0" d="M130,147.1c0-1.2,0.3-2.3,0.9-3.5c0.6-1.1,1.4-2,2.5-2.5c1.1-0.6,2.3-0.9,3.6-0.9c2,0,3.7,0.7,5,2
			c1.3,1.3,2,3,2,5c0,2-0.7,3.7-2,5.1c-1.3,1.3-3,2-5,2c-1.2,0-2.4-0.3-3.5-0.8c-1.1-0.6-2-1.4-2.6-2.5
			C130.3,150,130,148.7,130,147.1z M133.6,147.3c0,1.3,0.3,2.4,1,3.1c0.6,0.7,1.4,1.1,2.4,1.1c0.9,0,1.7-0.4,2.4-1.1
			c0.6-0.7,0.9-1.7,0.9-3.1c0-1.3-0.3-2.3-0.9-3.1c-0.6-0.7-1.4-1.1-2.4-1.1c-0.9,0-1.7,0.4-2.4,1.1C134,145,133.6,146,133.6,147.3z
			"/>
		<path class="st0" d="M147.3,140.6h3.3v1.8c1.2-1.4,2.6-2.2,4.2-2.2c0.9,0,1.6,0.2,2.3,0.5c0.6,0.4,1.2,0.9,1.6,1.6
			c0.6-0.7,1.2-1.3,1.9-1.6c0.7-0.4,1.4-0.5,2.2-0.5c1,0,1.8,0.2,2.5,0.6c0.7,0.4,1.2,1,1.5,1.8c0.2,0.6,0.4,1.5,0.4,2.8v8.7h-3.6
			v-7.7c0-1.3-0.1-2.2-0.4-2.6c-0.3-0.5-0.8-0.8-1.5-0.8c-0.5,0-1,0.2-1.4,0.5s-0.8,0.8-1,1.3c-0.2,0.6-0.3,1.5-0.3,2.8v6.5h-3.6
			v-7.4c0-1.3-0.1-2.2-0.2-2.5c-0.1-0.4-0.3-0.7-0.6-0.9c-0.3-0.2-0.6-0.3-1.1-0.3c-0.6,0-1,0.1-1.5,0.4c-0.4,0.3-0.8,0.7-0.9,1.3
			c-0.2,0.6-0.3,1.5-0.3,2.8v6.6h-3.6V140.6z"/>
		<path class="st0" d="M171.3,140.6h3.3v1.8c1.2-1.4,2.6-2.2,4.2-2.2c0.9,0,1.6,0.2,2.3,0.5c0.6,0.4,1.2,0.9,1.6,1.6
			c0.6-0.7,1.2-1.3,1.9-1.6c0.7-0.4,1.4-0.5,2.2-0.5c1,0,1.8,0.2,2.5,0.6c0.7,0.4,1.2,1,1.5,1.8c0.2,0.6,0.4,1.5,0.4,2.8v8.7h-3.6
			v-7.7c0-1.3-0.1-2.2-0.4-2.6c-0.3-0.5-0.8-0.8-1.5-0.8c-0.5,0-1,0.2-1.4,0.5s-0.8,0.8-1,1.3c-0.2,0.6-0.3,1.5-0.3,2.8v6.5h-3.6
			v-7.4c0-1.3-0.1-2.2-0.2-2.5c-0.1-0.4-0.3-0.7-0.6-0.9c-0.3-0.2-0.6-0.3-1.1-0.3c-0.6,0-1,0.1-1.5,0.4c-0.4,0.3-0.8,0.7-0.9,1.3
			c-0.2,0.6-0.3,1.5-0.3,2.8v6.6h-3.6V140.6z"/>
		<path class="st0" d="M195.6,138.7v-3.3h3.6v3.3H195.6z M195.6,154.1v-13.5h3.6v13.5H195.6z"/>
		<path class="st0" d="M209.9,140.6v2.9h-2.4v5.5c0,1.1,0,1.7,0.1,1.9c0,0.2,0.2,0.3,0.3,0.5c0.2,0.1,0.4,0.2,0.6,0.2
			c0.3,0,0.8-0.1,1.4-0.3l0.3,2.8c-0.8,0.4-1.8,0.5-2.8,0.5c-0.6,0-1.2-0.1-1.7-0.3c-0.5-0.2-0.9-0.5-1.1-0.8
			c-0.2-0.3-0.4-0.8-0.5-1.4c-0.1-0.4-0.1-1.3-0.1-2.5v-5.9h-1.6v-2.9h1.6v-2.7l3.6-2.1v4.8H209.9z"/>
		<path class="st0" d="M219.5,140.6v2.9H217v5.5c0,1.1,0,1.7,0.1,1.9c0,0.2,0.2,0.3,0.3,0.5c0.2,0.1,0.4,0.2,0.6,0.2
			c0.3,0,0.8-0.1,1.4-0.3l0.3,2.8c-0.8,0.4-1.8,0.5-2.8,0.5c-0.6,0-1.2-0.1-1.7-0.3c-0.5-0.2-0.9-0.5-1.1-0.8
			c-0.2-0.3-0.4-0.8-0.5-1.4c-0.1-0.4-0.1-1.3-0.1-2.5v-5.9h-1.6v-2.9h1.6v-2.7l3.6-2.1v4.8H219.5z"/>
		<path class="st0" d="M230.6,149.8l3.6,0.6c-0.5,1.3-1.2,2.3-2.2,3c-1,0.7-2.2,1-3.7,1c-2.4,0-4.1-0.8-5.2-2.3
			c-0.9-1.2-1.3-2.8-1.3-4.7c0-2.2,0.6-4,1.8-5.3s2.7-1.9,4.4-1.9c2,0,3.6,0.7,4.8,2c1.2,1.3,1.7,3.4,1.7,6.1h-9
			c0,1.1,0.3,1.9,0.9,2.5c0.6,0.6,1.2,0.9,2.1,0.9c0.6,0,1-0.2,1.4-0.5C230.1,151,230.4,150.5,230.6,149.8z M230.8,146.2
			c0-1-0.3-1.8-0.8-2.4c-0.5-0.5-1.1-0.8-1.9-0.8c-0.8,0-1.4,0.3-1.9,0.9s-0.8,1.3-0.8,2.3H230.8z"/>
		<path class="st0" d="M246,149.8l3.6,0.6c-0.5,1.3-1.2,2.3-2.2,3c-1,0.7-2.2,1-3.7,1c-2.4,0-4.1-0.8-5.2-2.3
			c-0.9-1.2-1.3-2.8-1.3-4.7c0-2.2,0.6-4,1.8-5.3c1.2-1.3,2.7-1.9,4.4-1.9c2,0,3.6,0.7,4.8,2c1.2,1.3,1.7,3.4,1.7,6.1h-9
			c0,1.1,0.3,1.9,0.9,2.5c0.6,0.6,1.2,0.9,2.1,0.9c0.6,0,1-0.2,1.4-0.5C245.5,151,245.8,150.5,246,149.8z M246.2,146.2
			c0-1-0.3-1.8-0.8-2.4c-0.5-0.5-1.1-0.8-1.9-0.8c-0.8,0-1.4,0.3-1.9,0.9s-0.8,1.3-0.8,2.3H246.2z"/>
		<path class="st0" d="M252.2,150.2l3.6-0.5c0.2,0.7,0.5,1.2,0.9,1.6c0.5,0.4,1.1,0.5,2,0.5c0.9,0,1.6-0.2,2.1-0.5
			c0.3-0.2,0.5-0.6,0.5-1c0-0.3-0.1-0.5-0.3-0.7c-0.2-0.2-0.6-0.3-1.2-0.5c-2.9-0.6-4.7-1.2-5.5-1.7c-1.1-0.7-1.6-1.7-1.6-3
			c0-1.2,0.5-2.2,1.4-3c0.9-0.8,2.4-1.2,4.3-1.2c1.9,0,3.2,0.3,4.1,0.9c0.9,0.6,1.5,1.5,1.9,2.7l-3.4,0.6c-0.1-0.5-0.4-0.9-0.8-1.2
			c-0.4-0.3-1-0.4-1.7-0.4c-0.9,0-1.6,0.1-2,0.4c-0.3,0.2-0.4,0.4-0.4,0.7c0,0.3,0.1,0.5,0.4,0.7c0.3,0.2,1.4,0.6,3.3,1
			c1.9,0.4,3.2,1,4,1.6c0.7,0.6,1.1,1.5,1.1,2.7c0,1.2-0.5,2.3-1.6,3.2c-1,0.9-2.6,1.3-4.6,1.3c-1.8,0-3.3-0.4-4.4-1.1
			C253.2,152.5,252.5,151.5,252.2,150.2z"/>
	</g>
	<g>
		<g>
			<g>
				<defs>
					<polygon id="SVGID_1_" points="66.7,11.8 102.7,11.8 102.7,27 66.7,15.9 					"/>
				</defs>
				<linearGradient id="SVGID_2_" gradientUnits="userSpaceOnUse" x1="110.0892" y1="19.4096" x2="69.0032" y2="19.4096">
					<stop  offset="0" style="stop-color:#FFFFFF"/>
					<stop  offset="1" style="stop-color:#828282"/>
				</linearGradient>
				<use xlink:href="#SVGID_1_"  style="overflow:visible;fill:url(#SVGID_2_);"/>
				<clipPath id="SVGID_3_">
					<use xlink:href="#SVGID_1_"  style="overflow:visible;"/>
				</clipPath>
				<linearGradient id="SVGID_4_" gradientUnits="userSpaceOnUse" x1="110.0892" y1="19.4096" x2="69.0032" y2="19.4096">
					<stop  offset="0" style="stop-color:#FFFFFF"/>
					<stop  offset="1" style="stop-color:#828282"/>
				</linearGradient>
				<rect x="91.2" y="11.8" class="st1" width="11.5" height="15.2"/>
				<linearGradient id="SVGID_5_" gradientUnits="userSpaceOnUse" x1="110.0892" y1="19.4096" x2="69.0032" y2="19.4096">
					<stop  offset="0" style="stop-color:#FFFFFF"/>
					<stop  offset="1" style="stop-color:#828282"/>
				</linearGradient>
				<rect x="66.7" y="11.8" class="st2" width="24.6" height="15.2"/>
			</g>
		</g>
		<g>
			<g>
				<defs>
					<polygon id="SVGID_6_" points="102.7,30 102.7,66.4 66.7,78.5 66.7,41.8 					"/>
				</defs>
				<linearGradient id="SVGID_7_" gradientUnits="userSpaceOnUse" x1="110.0892" y1="54.2607" x2="69.0032" y2="54.2607">
					<stop  offset="0" style="stop-color:#FFFFFF"/>
					<stop  offset="1" style="stop-color:#828282"/>
				</linearGradient>
				<use xlink:href="#SVGID_6_"  style="overflow:visible;fill:url(#SVGID_7_);"/>
				<clipPath id="SVGID_8_">
					<use xlink:href="#SVGID_6_"  style="overflow:visible;"/>
				</clipPath>
				<linearGradient id="SVGID_9_" gradientUnits="userSpaceOnUse" x1="110.0892" y1="54.2607" x2="69.0032" y2="54.2607">
					<stop  offset="0" style="stop-color:#FFFFFF"/>
					<stop  offset="1" style="stop-color:#828282"/>
				</linearGradient>
				<rect x="91.2" y="30" class="st3" width="11.5" height="48.5"/>
				<linearGradient id="SVGID_10_" gradientUnits="userSpaceOnUse" x1="110.0892" y1="54.2607" x2="69.0032" y2="54.2607">
					<stop  offset="0" style="stop-color:#FFFFFF"/>
					<stop  offset="1" style="stop-color:#828282"/>
				</linearGradient>
				<rect x="66.7" y="30" class="st4" width="24.6" height="48.5"/>
			</g>
		</g>
		<g>
			<g>
				<defs>
					<polygon id="SVGID_11_" points="66.7,160 102.7,160 102.7,134.7 66.7,145.9 					"/>
				</defs>
				<linearGradient id="SVGID_12_" gradientUnits="userSpaceOnUse" x1="110.0892" y1="147.3696" x2="69.0032" y2="147.3696">
					<stop  offset="0" style="stop-color:#FFFFFF"/>
					<stop  offset="1" style="stop-color:#828282"/>
				</linearGradient>
				<use xlink:href="#SVGID_11_"  style="overflow:visible;fill:url(#SVGID_12_);"/>
				<clipPath id="SVGID_13_">
					<use xlink:href="#SVGID_11_"  style="overflow:visible;"/>
				</clipPath>
				<linearGradient id="SVGID_14_" gradientUnits="userSpaceOnUse" x1="110.0892" y1="147.3696" x2="69.0032" y2="147.3696">
					<stop  offset="0" style="stop-color:#FFFFFF"/>
					<stop  offset="1" style="stop-color:#828282"/>
				</linearGradient>
				<rect x="91.2" y="134.7" class="st5" width="11.5" height="25.3"/>
				<linearGradient id="SVGID_15_" gradientUnits="userSpaceOnUse" x1="110.0892" y1="147.3696" x2="69.0032" y2="147.3696">
					<stop  offset="0" style="stop-color:#FFFFFF"/>
					<stop  offset="1" style="stop-color:#828282"/>
				</linearGradient>
				<rect x="66.7" y="134.7" class="st6" width="24.6" height="25.3"/>
			</g>
		</g>
		<g>
			<g>
				<defs>
					<polygon id="SVGID_16_" points="102.7,131.7 102.7,93.3 66.7,81.2 66.7,119.9 					"/>
				</defs>
				<linearGradient id="SVGID_17_" gradientUnits="userSpaceOnUse" x1="110.0892" y1="106.4537" x2="69.0032" y2="106.4537">
					<stop  offset="0" style="stop-color:#FFFFFF"/>
					<stop  offset="1" style="stop-color:#828282"/>
				</linearGradient>
				<use xlink:href="#SVGID_16_"  style="overflow:visible;fill:url(#SVGID_17_);"/>
				<clipPath id="SVGID_18_">
					<use xlink:href="#SVGID_16_"  style="overflow:visible;"/>
				</clipPath>
				<linearGradient id="SVGID_19_" gradientUnits="userSpaceOnUse" x1="110.0892" y1="106.4537" x2="69.0032" y2="106.4537">
					<stop  offset="0" style="stop-color:#FFFFFF"/>
					<stop  offset="1" style="stop-color:#828282"/>
				</linearGradient>
				<rect x="91.2" y="81.2" class="st7" width="11.5" height="50.5"/>
				<linearGradient id="SVGID_20_" gradientUnits="userSpaceOnUse" x1="110.0892" y1="106.4537" x2="69.0032" y2="106.4537">
					<stop  offset="0" style="stop-color:#FFFFFF"/>
					<stop  offset="1" style="stop-color:#828282"/>
				</linearGradient>
				<rect x="66.7" y="81.2" class="st8" width="24.6" height="50.5"/>
			</g>
		</g>
	</g>
</g>
</svg>
