<?xml version="1.0" encoding="utf-8"?>
<!-- Generator: Adobe Illustrator 21.0.2, SVG Export Plug-In . SVG Version: 6.00 Build 0)  -->
<svg version="1.1" id="Layer_1" xmlns="http://www.w3.org/2000/svg" xmlns:xlink="http://www.w3.org/1999/xlink" x="0px" y="0px"
	 viewBox="0 0 200 101.9" style="enable-background:new 0 0 200 101.9;" xml:space="preserve">
<style type="text/css">
	.st0{fill:#FFFFFF;}
	.st1{fill:#EFB310;}
</style>
<title>logos</title>
<g>
	<path class="st0" d="M66.2,50.9c0-14.5,0-28.9,0-43.4c0-3.4,2.3-5.8,5.8-5.8c18.7,0,37.3,0,56,0c3.4,0,5.8,2.3,5.9,5.8
		c0,0.2,0,0.4,0,0.6c0,28.6,0,57.2,0,85.9c0,1.9-0.5,3.5-2,4.7c-1.1,1-2.4,1.4-3.8,1.4c-18.7,0-37.4,0-56.1,0
		c-3.4,0-5.8-2.4-5.8-5.8C66.2,79.8,66.2,65.4,66.2,50.9z"/>
	<path class="st1" d="M68.4,50.9c0-14,0-27.5,0-41.5c0-3.3,2.3-5.6,5.6-5.6c18,0,34,0,52.1,0c3.3,0,5.6,2.2,5.6,5.6
		c0,0.2,0,0.4,0,0.6c0,27.6,0,30.6,0,58.2c0,1.8-0.5,3.4-1.9,4.6c-1.1,0.9-2.3,1.3-3.7,1.3c-18,0-34.1,0-52.1,0
		c-3.3,0-5.6-2.3-5.6-5.6C68.4,54.5,68.4,50.9,68.4,50.9z"/>
	<path d="M88,62.1c1.3,0,2.6,0,3.9,0c0.4,0,0.7,0.1,0.7,0.6c0,0.3,0.1,0.5,0.1,0.8c0.2,1.2,0.7,1.7,1.8,1.7c1-0.1,1.8-0.9,1.8-1.9
		c0-1.1-0.5-1.9-1.4-2.3c-1.2-0.5-2.4-0.9-3.7-1.3c-1-0.3-2.1-0.6-3.1-1c-3-1.2-4.2-3.1-4.2-6.3c0.1-1.9,0.5-3.8,1.9-5.2
		c1.2-1.2,2.6-1.9,4.3-2.2c3.6-0.7,7.1-0.7,10.6,0.6c2.6,0.9,4,3.1,4.1,5.8c0,0.5-0.2,0.6-0.7,0.6c-2.4,0-4.7,0-7.1,0
		c-0.5,0-0.7-0.2-0.7-0.7c-0.1-1.4-0.8-1.9-2.2-1.7c-1.1,0.2-1.6,1.8-0.9,2.7c0.4,0.4,0.9,0.8,1.4,1c1.4,0.5,2.8,0.9,4.2,1.4
		c0.9,0.3,1.8,0.6,2.7,1c2.2,1,3.6,2.7,3.8,5.2c0.2,3.1-0.8,6.1-3.9,7.7c-1.5,0.7-3,1.1-4.6,1.2c-2.8,0.1-5.6,0.2-8.3-0.6
		c-3.3-0.9-4.9-3.1-4.9-6.4c0-0.5,0.2-0.6,0.7-0.6C85.5,62.1,86.7,62.1,88,62.1z"/>
	<path d="M119.9,60.3c0.3,0,0.4,0,0.6,0c2.6,0,5.1,0,7.7,0c0.5,0,0.7,0.2,0.7,0.7c-0.1,1.1-0.2,2.1-0.4,3.2
		c-0.7,2.8-2.6,4.5-5.4,5.2c-3.4,0.9-6.8,0.9-10.2,0c-3-0.7-4.7-2.7-5.3-5.7c-0.3-1.4-0.5-2.9-0.5-4.3c0-2.4,0-4.7,0.3-7.1
		c0.1-1.2,0.5-2.4,1-3.5c0.8-1.9,2.4-3,4.3-3.5c3.8-0.9,7.6-1,11.3,0.2c3,0.9,4.4,3.1,4.8,6.1c0.1,0.6,0.1,1.2,0.1,1.8
		c0,0.2-0.3,0.5-0.4,0.5c-2.7,0-5.5,0-8.2,0c-0.1,0-0.2-0.1-0.3-0.1c0-0.7,0-1.4,0-2.1c0-1.2-0.6-1.9-1.7-2c-1.3-0.1-2,0.6-2,1.9
		c0,3.7,0,7.5,0,11.2c0,1.3,0.7,2,1.8,2c1.1,0,1.8-0.7,1.9-1.9c0-0.4,0-0.8,0-1.3C119.9,61.2,119.9,60.8,119.9,60.3z"/>
	<path d="M124.8,36.7c-4.7,0-9.4,0-14.1,0c0.1-0.4,0.1-0.7,0.2-1c1.1-4.2,2.2-8.5,3.4-12.7c0.1-0.5,0-0.7-0.4-0.9
		c-2.7-1.7-3.9-5-2.9-8c1-3.1,3.9-5,7.2-4.8c3,0.2,5.7,2.6,6.3,5.6c0.6,2.8-0.6,5.7-3,7.2c-0.5,0.3-0.6,0.6-0.5,1.2
		c1.2,4.2,2.4,8.5,3.6,12.8C124.7,36.1,124.7,36.4,124.8,36.7z"/>
	<path d="M81.2,57.2c0,3.7,0,7.4,0,11.1c0,0.8,0,0.8-0.9,0.8c-2.5,0-5,0-7.5,0c-0.6,0-0.8-0.2-0.8-0.8c0-7.4,0-14.9,0-22.3
		c0-0.5,0.1-0.8,0.7-0.8c2.6,0,5.1,0,7.7,0c0.6,0,0.8,0.2,0.8,0.8C81.2,49.8,81.2,53.5,81.2,57.2z"/>
	<path d="M81.4,85.4c-0.1,1.1-0.3,2.2-0.4,3.4c-0.2,1.7-0.4,3.4-0.7,5.1c0,0.2-0.2,0.4-0.4,0.4c-2.1,0-4.2,0-6.4,0
		c-0.7-4.7-1.3-9.3-2-14c1.5,0,2.9,0,4.4,0c0.4,3.4,0.7,6.8,1.1,10.1c0,0,0.1,0,0.1,0c0.3-2.2,0.5-4.4,0.8-6.6
		c0.1-1.1,0.2-2.1,0.4-3.2c0-0.2,0.3-0.4,0.4-0.4c1.9,0,3.8,0,5.8,0c0.4,3.4,0.8,6.7,1.2,10.1c0,0,0.1,0,0.1,0
		c0.4-3.3,0.8-6.7,1.1-10.1c1.5,0,2.9,0,4.4,0c-0.7,4.7-1.3,9.3-2,14c-0.8,0-1.6,0-2.4,0c-1.3,0-2.5,0-3.8,0c-0.5,0-0.6-0.1-0.7-0.6
		c-0.3-2.8-0.7-5.5-1-8.3C81.5,85.4,81.4,85.4,81.4,85.4z"/>
	<path d="M104,90.2c1.7,0,3.4,0,5.2,0c0.1,0.3,0.1,0.7,0.2,1c0.1,0.5,0.4,0.9,1,0.8c0.6,0,1-0.4,1.1-1c0.1-0.6-0.1-1.2-0.7-1.5
		c-0.6-0.3-1.3-0.5-1.9-0.8c-0.6-0.2-1.2-0.3-1.8-0.5c-2.5-0.8-3.4-2.5-2.8-5c0.3-1.5,1.2-2.5,2.7-3c2.4-0.7,4.7-0.7,7.1,0.1
		c1.7,0.6,2.5,1.9,2.4,3.7c-1.6,0-3.2,0-4.9,0c0-0.2-0.1-0.3-0.1-0.5c-0.1-0.5-0.3-0.8-0.8-0.8c-0.5-0.1-0.9,0-1.1,0.5
		c-0.2,0.4-0.2,0.9,0.1,1.2c0.3,0.3,0.7,0.6,1.2,0.7c0.7,0.3,1.4,0.4,2.1,0.7c0.4,0.1,0.8,0.2,1.1,0.4c1.9,0.8,2.8,2,2.7,3.8
		c0,2.1-1,3.6-2.8,4.3c-1.6,0.6-3.3,0.6-5,0.5c-0.9-0.1-1.8-0.2-2.6-0.5C104.6,93.5,103.8,92.1,104,90.2z"/>
	<path d="M103.2,80.2c0,1.1,0,2.2,0,3.3c-1.8,0-3.7,0-5.5,0c0,0.7,0,1.3,0,2c1.7,0,3.3,0,5.1,0c0,1,0,2,0,3.1c-1.7,0-3.3,0-5.1,0
		c0,0.8,0,1.5,0,2.3c1.8,0,3.7,0,5.5,0c0,1.1,0,2.2,0,3.3c-3.6,0-7.2,0-10.8,0c0-4.6,0-9.3,0-14C95.9,80.2,99.5,80.2,103.2,80.2z"/>
	<path d="M128.5,83.5c-1,0-2,0-3,0c0,3.6,0,7.1,0,10.6c-1.8,0-3.6,0-5.4,0c0-3.5,0-7,0-10.6c-1,0-2,0-3.1,0c0-1.1,0-2.2,0-3.4
		c3.8,0,7.6,0,11.5,0C128.5,81.3,128.5,82.4,128.5,83.5z"/>
</g>
<path d="M129.2,1.1c1.2,0.4,2.3,0.8,3.3,1.7c1.3,1.3,2.1,2.7,2.1,4.6c0,28.9,0,57.7,0,86.6c0,3.1-2.4,6.8-6.8,6.8
	c-6.5,0-13.1,0-19.6,0c-11.8,0-23.6,0-35.4,0c-3.9,0-6-1.6-7.1-5.3c0,0-0.1-0.1-0.1-0.1c0-29.6,0-59.2,0-88.8
	c0.1-0.2,0.1-0.3,0.2-0.5c0.4-1.7,1.3-3,2.8-3.9c0.8-0.5,1.7-0.7,2.5-1.1C90.3,1.1,109.7,1.1,129.2,1.1z M66.5,50.9
	c0,14.3,0,28.7,0,43c0,3.4,2.3,5.8,5.7,5.8c18.5,0,37.1,0,55.6,0c1.4,0,2.7-0.4,3.8-1.4c1.4-1.2,1.9-2.8,1.9-4.7
	c0-28.4,0-56.8,0-85.2c0-0.2,0-0.4,0-0.6c0-3.4-2.4-5.7-5.8-5.7c-18.5,0-37.1,0-55.6,0c-3.4,0-5.7,2.3-5.7,5.7
	C66.5,22.2,66.5,36.6,66.5,50.9z"/>
</svg>
