<?xml version="1.0" encoding="utf-8"?>
<!-- Generator: Adobe Illustrator 21.1.0, SVG Export Plug-In . SVG Version: 6.00 Build 0)  -->
<svg version="1.1" id="icons" xmlns="http://www.w3.org/2000/svg" xmlns:xlink="http://www.w3.org/1999/xlink" x="0px" y="0px"
	 viewBox="0 0 200 101.9" style="enable-background:new 0 0 200 101.9;" xml:space="preserve">
<style type="text/css">
	.st0{fill:#009EC2;}
	.st1{fill:#FFFFFF;}
	.st2{fill:#94D4D4;}
	.st3{fill:#BCE2DB;}
</style>
<g>
	<g>
		<path class="st0" d="M106,54.6c1,0,2,0,2.9,0c0.7,2.9,1.4,5.9,2,8.8c0,0,0.1,0,0.1,0c0.2-0.9,0.4-1.7,0.6-2.6c0.4-2,0.9-4,1.3-6
			c0-0.1,0.1-0.2,0.2-0.2c0.9,0,1.8,0,2.8,0c-0.1,0.2-0.1,0.3-0.2,0.5c-0.1,0.6-0.4,1.2-0.4,1.7c-0.1,3-0.1,6.1-0.1,9.1
			c0,1.2,0.1,2.5,0.2,3.7c0,0.5,0.1,0.9,0.4,1.3c0.1,0.1,0,0.2,0,0.3c-1.2,0-2.3,0-3.5,0c0-0.1,0-0.2,0-0.3c0.5-0.7,0.5-1.5,0.5-2.2
			c0.1-3.5,0.1-7,0.1-10.4c0,0,0,0-0.1-0.1c-0.9,4.3-1.8,8.6-2.8,12.8c0,0-0.1,0-0.1,0c-1-4-1.9-8-2.9-12c0,0-0.1,0-0.1,0
			c0,0.1,0,0.3,0,0.4c0,2.3,0,4.7,0,7c0,1.2,0,2.4,0.4,3.6c0.1,0.3,0.3,0.6,0.5,0.9c0.1,0.1,0.1,0.2,0.1,0.4c-0.8,0-1.6,0-2.4,0
			c0-0.1,0-0.3,0.1-0.3c0.5-0.3,0.6-0.8,0.6-1.3c0.1-1.3,0.3-2.7,0.3-4.1c0-2.6,0-5.2-0.1-7.8c0-0.7-0.1-1.4-0.2-2
			c0-0.3-0.2-0.5-0.3-0.8C106,54.8,106,54.7,106,54.6z"/>
		<path class="st0" d="M29,54.6c1.2,0,2.4,0,3.6,0c-0.7,1.5-0.6,3-0.7,4.6c0.8,0,1.5,0,2.3,0c0.1,0,0.2-0.2,0.1-0.2
			c-0.1-1.1-0.2-2.2-0.3-3.4c0-0.2-0.1-0.3-0.2-0.5c0-0.1-0.1-0.3-0.1-0.4c1.2,0,2.4,0,3.6,0c0,0.1,0,0.3,0,0.3
			c-0.5,0.6-0.4,1.3-0.5,2c-0.1,1.1-0.1,2.1-0.1,3.2c0,2.5,0,5.1,0,7.6c0,0.8,0.1,1.5,0.2,2.2c0,0.3,0.2,0.6,0.3,0.9
			c0,0.1,0,0.2,0.1,0.4c-1.2,0-2.4,0-3.5,0c0-0.1,0-0.2,0-0.3c0.5-0.6,0.5-1.4,0.5-2.1c0.1-2.9,0.1-5.7,0.1-8.6c0,0,0,0,0-0.1
			c-0.8-0.2-1.8,0.2-2.1,1c-0.2,0.4-0.3,0.8-0.3,1.2c0,2.3,0,4.6,0.1,6.9c0,0.6,0,1.2,0.5,1.7c0.1,0.1,0,0.2,0,0.3
			c-1.2,0-2.3,0-3.5,0c0-0.1-0.1-0.2,0-0.3c0.6-0.8,0.5-1.6,0.5-2.5c0-3.7,0-7.4,0-11c0-0.5-0.1-1.1-0.2-1.6
			c-0.1-0.3-0.2-0.5-0.3-0.8C29,54.8,29,54.7,29,54.6z"/>
		<path class="st0" d="M88.6,63.2c0-2.2,0.2-4.1,0.9-5.9c0.3-0.8,0.7-1.5,1.3-2.1c1.2-1.2,2.8-1.2,4,0c0.9,0.9,1.4,2.1,1.7,3.4
			c0.8,3.3,0.8,6.5-0.4,9.7c-0.3,0.9-0.8,1.7-1.5,2.4c-1.1,1.1-2.6,1.1-3.7,0c-0.9-0.9-1.4-2-1.7-3.2C88.8,65.9,88.6,64.4,88.6,63.2
			z M91.6,62.6c0,1.7,0,3.2,0.1,4.6c0.1,0.9,0.2,1.8,0.4,2.6c0.1,0.4,0.2,0.8,0.7,0.8c0.5,0,0.6-0.5,0.7-0.8
			c0.2-0.7,0.3-1.4,0.4-2.1c0.1-3.3,0.1-6.7,0.1-10c0-0.7-0.2-1.3-0.3-2c-0.1-0.4-0.3-0.7-0.7-0.7c-0.5,0-0.7,0.4-0.8,0.8
			c-0.1,0.5-0.3,1.1-0.3,1.7C91.7,59.3,91.6,61,91.6,62.6z"/>
		<path class="st0" d="M159.9,59.9c-0.2-0.6-0.4-1.1-0.6-1.7c-0.6-2.4,0.9-4.2,3.4-3.9c0.1,0,0.2,0,0.3,0c0.9,0.1,1.6,0.5,2,1.4
			c0.3,1,0.2,1.9-0.5,2.6c-0.6,0.6-1.3,1-2,1.3c-0.1,0.1-0.3,0.1-0.4,0.2c0,0.6,2.1,5.6,2.7,6.4c0-1.3,0-2.6,0-3.9
			c0.4-0.1,0.5-0.1,0.5,0.3c0.2,1.4,0.1,2.7-0.1,4.1c0,0.2,0,0.3,0.1,0.5c0.5,1,1.1,2,1.6,3c0.1,0.2,0.2,0.5,0.2,0.7
			c-0.9-0.8-1.5-1.8-2.2-2.8c-0.1,0.2-0.1,0.3-0.2,0.4c-0.1,0.3-0.2,0.6-0.4,0.9c-0.8,1.5-2.1,1.8-3.5,0.9c-1-0.6-1.6-1.5-2-2.5
			c-0.7-1.8-0.9-3.6-0.5-5.4C158.5,61.3,158.9,60.8,159.9,59.9z M161.1,62.1c-0.3,0.2-0.4,0.6-0.4,0.9c0,1.2,0.1,2.4,0.2,3.6
			c0.1,1,0.3,2,0.7,2.9c0.5,0.9,1.1,1,1.8,0.3c0.6-0.6,0.9-1.2,1.1-2c0-0.1,0-0.3-0.1-0.4c-1.1-1.7-2.1-3.4-3.2-5.1
			C161.2,62.2,161.2,62.2,161.1,62.1z M161.7,58.9c1.3-0.5,1.9-2.4,1.2-3.5c-0.3-0.4-0.9-0.5-1.3-0.1c-0.2,0.2-0.3,0.4-0.3,0.6
			C161,57,161.5,57.9,161.7,58.9z"/>
		<path class="st0" d="M181.9,71.2c-1.2,0-2.3,0-3.5,0c0-0.1,0-0.2,0-0.3c0.5-0.7,0.5-1.5,0.5-2.2c0-3.8,0-7.7,0-11.5
			c0-0.5-0.1-1-0.2-1.6c0-0.2-0.2-0.4-0.2-0.6c0-0.1-0.1-0.3-0.1-0.4c0.1,0,0.1,0,0.1,0c1.9,0,3.8,0,5.8,0c1.5,0,2.3,1.8,1.6,2.9
			c-0.9,1.6-2.3,2.3-4,2.4c-0.5,0-0.5,0-0.5,0.6c0,2.1,0,4.3,0,6.4c0,1,0.1,2,0.2,3c0,0.3,0.2,0.6,0.3,0.9
			C181.9,70.9,181.9,71,181.9,71.2z M181.3,57.3c0,0.5,0,1,0,1.5c0,0.4,0.2,0.5,0.6,0.5c0.2,0,0.3-0.1,0.4-0.2
			c0.9-0.6,1.3-1.9,0.9-3c-0.3-0.8-0.9-1-1.6-0.8c-0.2,0.1-0.3,0.2-0.3,0.5C181.3,56.3,181.3,56.8,181.3,57.3z"/>
		<path class="st0" d="M44.7,59.1c0,1.3,0,2.5,0,3.7c0,0-0.1,0-0.1,0c0-0.1-0.1-0.2-0.1-0.4c-0.1-0.7-0.3-1.4-0.7-1.9
			c-0.1-0.2-0.3-0.4-0.4-0.5c-0.2-0.2-0.6-0.3-0.8-0.1c-0.2,0.1-0.4,0.4-0.4,0.7c-0.1,0.4-0.1,0.9-0.1,1.3c0,2.4,0,4.7,0,7.1
			c0,0.3,0,0.6,0.1,0.8c0.1,0.5,0.5,0.7,0.9,0.5c0.3-0.1,0.7-0.2,0.9-0.4c0.9-0.6,1.3-1.5,1.4-2.6c0-0.1,0-0.3,0.1-0.4
			c0,0,0.1,0,0.1,0c0,1.4,0,2.8,0,4.2c-2.2,0-4.3,0-6.5,0c0-0.1,0-0.3,0-0.3c0.4-0.4,0.4-1,0.5-1.6c0.1-0.5,0.1-1,0.1-1.4
			c0-2.5,0.1-5,0-7.5c0-1.4-0.1-2.9-0.2-4.3c0-0.4-0.3-0.8-0.4-1.2c0-0.1,0-0.2,0-0.3c2.2,0,4.3,0,6.5,0c0,1.4,0,2.8,0,4.2
			c0,0-0.1,0-0.1,0c0-0.2-0.1-0.3-0.1-0.5c-0.1-1.1-0.6-2-1.5-2.6c-0.2-0.1-0.3-0.2-0.5-0.3c-0.7-0.3-1.3,0-1.4,0.7
			c-0.1,0.9-0.1,1.9-0.1,2.8c0,0.1,0.2,0.2,0.3,0.2c0.6,0,1.2,0,1.8,0C44.4,59.1,44.5,59.1,44.7,59.1z"/>
		<path class="st0" d="M12.6,54.6c0,1.4,0,2.8,0,4.1c0,0-0.1,0-0.1,0c0-0.2-0.1-0.3-0.1-0.5c-0.2-1.2-0.7-2.2-1.9-2.8
			C9.7,55,9.1,55.3,9,56.4C9,57.2,9,58,9,58.8c0,0.3,0.1,0.3,0.3,0.3c0.7,0,1.4,0,2.2,0c0,1.3,0.1,2.5,0.1,3.7c0,0-0.1,0-0.1,0
			c0-0.1-0.1-0.3-0.1-0.4c-0.2-0.6-0.4-1.3-0.6-1.9c-0.1-0.2-0.2-0.3-0.3-0.4c-0.3-0.3-0.6-0.4-0.9-0.2c-0.3,0.1-0.4,0.4-0.4,0.8
			c0,0.5-0.1,1-0.1,1.5c0,2.1,0,4.2,0,6.4c0,0.3,0,0.7,0.1,1c0.1,0.7,0.6,1.1,1.3,0.8c1.1-0.4,1.7-1.3,2-2.4
			c0.1-0.3,0.1-0.6,0.2-0.9c0,1.4,0,2.8,0,4.2c-2.1,0-4.3,0-6.5,0c0-0.1-0.1-0.2,0-0.3c0.6-0.8,0.5-1.7,0.5-2.5c0-3.7,0-7.3,0-11
			c0-0.6-0.1-1.2-0.2-1.8c0-0.2-0.2-0.4-0.2-0.6c0-0.1-0.1-0.3-0.1-0.3c0-0.1,0.2-0.1,0.3-0.1c0.9,0,1.8,0,2.7,0c1.1,0,2.2,0,3.2,0
			C12.5,54.6,12.6,54.6,12.6,54.6z"/>
		<path class="st0" d="M124.3,66.9c0,0.1,0,0.3,0,0.4c0,1.2,0,2.3,0,3.5c0,0.2,0,0.3-0.3,0.3c-2,0-4.1,0-6.1,0c0,0-0.1,0-0.1,0
			c0-0.1,0-0.2,0-0.3c0.5-0.6,0.4-1.3,0.5-2c0.1-1.1,0.1-2.1,0.1-3.2c0-2.5,0-4.9,0-7.4c0-0.8-0.1-1.6-0.2-2.4
			c0-0.3-0.2-0.6-0.3-0.9c0-0.1,0-0.2-0.1-0.4c0.2,0,0.3,0,0.4,0c1.9,0,3.8,0,5.7,0c0.4,0,0.5,0.1,0.4,0.5c0,1.1,0,2.2,0,3.3
			c0,0.1,0,0.3,0,0.4c0,0-0.1,0-0.1,0c0-0.1,0-0.2,0-0.3c-0.1-1-0.5-1.9-1.3-2.6c-0.3-0.2-0.6-0.4-0.9-0.5c-0.6-0.2-1,0-1.2,0.6
			c-0.1,0.2-0.1,0.3-0.1,0.5c0,0.9,0,1.9,0,2.8c0.8,0,1.6-0.1,2.5-0.1c0,1.3,0.1,2.5,0.1,3.7c0,0-0.1,0-0.1,0c0-0.1,0-0.2-0.1-0.3
			c-0.1-0.7-0.3-1.4-0.7-2c-0.1-0.2-0.3-0.4-0.6-0.6c-0.5-0.3-1-0.1-1.1,0.4c0,0.2-0.1,0.4-0.1,0.7c0,2.6,0,5.3,0,7.9
			c0,0.5,0,1,0.5,1.3c0.5,0.3,1,0,1.4-0.3c1-0.7,1.5-1.6,1.6-2.8c0-0.1,0-0.2,0-0.3C124.2,66.9,124.3,66.9,124.3,66.9z"/>
		<path class="st0" d="M186.8,71.2c-0.8,0-1.6,0-2.4,0c0-0.1,0-0.3,0.1-0.4c0.4-0.3,0.6-0.7,0.7-1.1c0.3-1.1,0.6-2.2,0.8-3.3
			c0.5-2.5,0.8-5,1.2-7.5c0.2-1,0.3-1.9,0.5-2.9c0.1-0.5-0.3-0.7-0.6-1c-0.1-0.1-0.2-0.2-0.3-0.4c1.3,0,2.4,0,3.6,0
			c0.1,0.8,0.3,1.5,0.4,2.3c0.5,3.1,1,6.2,1.6,9.2c0.2,1.3,0.5,2.5,0.9,3.8c0.1,0.3,0.3,0.7,0.5,1c0.1,0.1,0.1,0.2,0.1,0.4
			c-1.2,0-2.4,0-3.6,0c0-0.1-0.1-0.2,0-0.3c0.4-0.7,0.3-1.5,0.2-2.2c-0.3-2.2-0.7-4.3-1-6.5c-0.1-0.5-0.3-0.9-0.5-1.3
			c-0.2-0.5-0.7-0.8-1.3-0.8c-0.1,0.6-0.2,1.2-0.3,1.8c-0.3,1.9-0.6,3.8-0.9,5.7c-0.1,0.8-0.1,1.7,0,2.6c0,0.2,0.2,0.4,0.3,0.7
			C186.7,70.9,186.8,71,186.8,71.2z M188.9,59.1c-0.2-0.9-0.4-1.8-0.6-2.6c0,0-0.1,0-0.1,0c-0.1,0.9-0.3,1.7-0.4,2.6
			C188.1,59.1,188.5,59.1,188.9,59.1z"/>
		<path class="st0" d="M66.7,54.5c0,2.2,0,4.4,0,6.8c-0.2-0.1-0.4-0.2-0.6-0.3c-0.3-0.4-0.4-0.8-0.5-1.3c-0.1-1-0.2-2.1-0.3-3.1
			c0-0.3-0.2-0.7-0.4-1c-0.4-0.7-1.3-0.7-1.6,0.1c-0.3,0.7-0.5,1.4-0.5,2.2c-0.3,2.9-0.3,5.8-0.1,8.7c0.1,1,0.3,1.9,0.5,2.9
			c0.1,0.3,0.3,0.6,0.5,0.9c0.6,0.7,1.6,0.6,1.9-0.2c0.2-0.6,0.3-1.2,0.4-1.9c0.1-0.9,0-1.9,0-2.8c0.7-0.2,0.8-0.1,0.8,0.4
			c0,1.2-0.1,2.4-0.4,3.6c-0.1,0.3-0.2,0.7-0.4,1c-0.5,1-1.5,1.3-2.5,0.9c-0.6-0.2-1.1-0.7-1.5-1.2c-0.8-1.1-1.3-2.5-1.6-3.8
			c-0.4-1.9-0.7-3.9-0.5-5.8c0.1-1.4,0.4-2.8,1.2-4.1c0.6-1,1.4-1.7,2.5-1.9c0.4-0.1,0.8,0,1.2,0.2c0.3,0.2,0.7,0.2,1,0.3
			c0.2,0,0.4-0.1,0.6-0.2C66.5,54.6,66.6,54.6,66.7,54.5z"/>
		<path class="st0" d="M87.2,65.4c0.7-0.1,0.7-0.1,0.7,0.5c0,1.3-0.1,2.5-0.5,3.8c-0.1,0.2-0.2,0.5-0.3,0.7
			c-0.6,1.1-1.6,1.4-2.7,0.9c-0.7-0.3-1.1-0.8-1.5-1.4c-0.8-1.2-1.2-2.5-1.5-3.9c-0.4-1.8-0.6-3.7-0.5-5.6c0.1-1.5,0.4-3,1.3-4.3
			c0.6-0.9,1.3-1.5,2.4-1.7c0.4-0.1,0.8,0,1.2,0.2c0.3,0.2,0.6,0.3,1,0.3c0.2,0,0.4-0.1,0.6-0.2c0.1,0,0.2-0.1,0.3-0.1
			c0,2.2,0,4.4,0,6.7c-0.2-0.1-0.4-0.2-0.5-0.3c-0.3-0.3-0.5-0.8-0.5-1.3c-0.1-0.9-0.1-1.9-0.2-2.8c-0.1-0.4-0.2-0.9-0.4-1.3
			c-0.2-0.4-0.5-0.6-0.9-0.5c-0.4,0-0.6,0.3-0.7,0.6c-0.2,0.7-0.4,1.4-0.5,2.1c-0.3,2.9-0.3,5.8-0.1,8.8c0.1,0.9,0.3,1.9,0.5,2.8
			c0.1,0.3,0.2,0.6,0.4,0.9c0.6,0.8,1.6,0.7,2-0.2c0.2-0.6,0.3-1.3,0.4-1.9C87.3,67.2,87.2,66.3,87.2,65.4z"/>
		<path class="st0" d="M145.2,54.5c0,2.2,0,4.4,0,6.7c-0.2-0.1-0.4-0.2-0.5-0.3c-0.4-0.4-0.5-0.9-0.5-1.4c-0.1-1.1-0.2-2.1-0.3-3.2
			c0-0.3-0.2-0.6-0.4-0.9c-0.4-0.7-1.2-0.6-1.5,0.1c-0.3,0.6-0.5,1.3-0.5,1.9c-0.3,3.1-0.3,6.3-0.1,9.4c0.1,0.8,0.3,1.6,0.4,2.3
			c0.1,0.3,0.2,0.5,0.3,0.8c0.2,0.4,0.6,0.7,1.1,0.7c0.6,0,0.9-0.3,1.1-0.9c0.1-0.4,0.2-0.9,0.3-1.3c0.1-0.9,0.1-1.8,0.1-2.7
			c0-0.6,0-0.6,0.7-0.5c0,0.7,0,1.3-0.1,2c-0.1,0.7-0.2,1.5-0.4,2.2c0,0.1-0.1,0.2-0.1,0.4c-0.7,1.7-2.2,2.1-3.6,0.9
			c-0.7-0.6-1.2-1.4-1.5-2.3c-0.6-1.5-0.9-3.1-1.1-4.7c-0.2-1.5-0.2-3,0-4.4c0.2-1.3,0.6-2.6,1.5-3.7c0.5-0.7,1.2-1.2,2.1-1.3
			c0.4-0.1,0.8,0,1.2,0.2c0.3,0.2,0.6,0.3,0.9,0.3c0.2,0,0.4-0.1,0.6-0.2C145,54.6,145.1,54.6,145.2,54.5z"/>
		<path class="st0" d="M127.7,55.4c-0.7,0.1-1.1,0.4-1.4,0.9c-0.4,0.6-0.6,1.2-0.7,2c0,0.1,0,0.2-0.1,0.4c0,0-0.1,0-0.1,0
			c0-1.3,0-2.7,0-4c2.3,0,4.5,0,6.8,0c0,1.4,0,2.7,0,4c-0.3-1.3-0.6-2.8-2.2-3.3c0,0.2,0,0.3,0,0.4c0,4.2,0,8.5,0,12.7
			c0,0.6,0.1,1.3,0.3,1.9c0,0.2,0.2,0.5,0.3,0.7c-1.3,0-2.4,0-3.6,0c0-0.1,0-0.2,0-0.3c0.5-0.6,0.4-1.4,0.5-2.1
			c0.1-0.6,0.1-1.1,0.1-1.7c0-3.7,0.1-7.5,0.1-11.2C127.7,55.7,127.7,55.6,127.7,55.4z"/>
		<path class="st0" d="M52.1,71.2c-1.2,0-2.4,0-3.6,0c0-0.1,0-0.3,0-0.3c0.4-0.4,0.4-1,0.5-1.6c0.1-0.5,0.1-1,0.1-1.5
			c0-4,0-8,0.1-12c0-0.1,0-0.3,0-0.4c-0.6,0.1-1,0.4-1.3,0.8c-0.4,0.7-0.7,1.4-0.8,2.2c0,0.1,0,0.1,0,0.2c0,0,0,0-0.1,0.1
			c0-0.1-0.1-0.1-0.1-0.2c0-1.2,0-2.4,0-3.6c0-0.2,0.1-0.3,0.3-0.3c2.1,0,4.2,0,6.4,0c0.1,0,0.2,0.1,0.2,0.2c0,1.2,0,2.4,0,3.7
			c0,0.1,0,0.1-0.1,0.3c-0.3-1.4-0.5-2.8-2.2-3.4c0,0.2,0,0.3,0,0.5c0,3.2,0,6.5,0,9.7c0,1.4,0.1,2.8,0.2,4.2c0,0.4,0.3,0.8,0.4,1.2
			C52.1,70.9,52.1,71,52.1,71.2z"/>
		<path class="st0" d="M23.1,55.4c-0.6,0.1-1,0.4-1.3,0.9c-0.4,0.7-0.7,1.4-0.7,2.1c0,0.1,0,0.2-0.1,0.3c0,0-0.1,0-0.1,0
			c0-1.3,0-2.7,0-4.1c0.3,0,0.7,0,1,0c1.8,0,3.6,0,5.4,0c0.3,0,0.4,0.1,0.4,0.4c0,1.1,0,2.2,0,3.3c0,0.1,0,0.2-0.1,0.3
			c-0.3-1.4-0.5-2.8-2.2-3.3c0,0.2,0,0.3,0,0.5c0,4.1,0,8.2,0,12.3c0,0.7,0.1,1.4,0.2,2.1c0,0.2,0.2,0.4,0.3,0.7
			c0,0.1,0.1,0.2,0.1,0.4c-1.2,0-2.4,0-3.5,0c0-0.1,0-0.2,0-0.3c0.5-0.6,0.4-1.2,0.5-1.9c0.1-0.7,0.1-1.5,0.1-2.3
			c0-3.6,0.1-7.2,0.1-10.8C23.1,55.7,23.1,55.6,23.1,55.4z"/>
		<path class="st0" d="M104,54.4c0,1.6,0,3,0,4.6c-0.2-0.1-0.3-0.2-0.4-0.3c-0.2-0.5-0.4-0.9-0.6-1.4c-0.2-0.5-0.3-1.1-0.6-1.6
			c-0.4-0.7-1-0.9-1.8-0.7c-0.4,0.1-0.6,0.3-0.7,0.7c-0.1,0.8-0.1,1.5,0.5,2.2c1.1,1.3,2.1,2.7,3.1,4.1c1.6,2.3,1.5,4.7,0.5,7.2
			c-0.4,1.1-1.2,1.8-2.4,2c-0.4,0.1-0.8,0-1.1-0.1c-0.6-0.2-1.2-0.3-1.9,0c0,0-0.1,0-0.1,0c0,0-0.1,0-0.1,0c0-2.1,0-4.2,0-6.3
			c0.4-0.1,0.5,0.1,0.7,0.4c0.3,0.8,0.4,1.7,0.4,2.5c0,0.5,0.1,1.1,0.2,1.6c0.2,0.7,0.6,1.3,1.3,1.4c0.8,0.1,1.5-0.2,1.9-1
			c0.8-1.3,0.8-2.6,0.2-3.9c-0.3-0.6-0.7-1.2-1.1-1.8c-0.8-1.2-1.7-2.3-2.6-3.4c-0.5-0.7-1-1.5-1.1-2.4c-0.1-0.6-0.1-1.3,0.1-1.9
			c0.4-1.4,1.7-2.2,3.2-2c0.3,0,0.7,0.2,1,0.3c0.4,0.2,0.7,0.1,1-0.1C103.7,54.6,103.8,54.5,104,54.4z"/>
		<path class="st0" d="M146.5,64.8c0.4-0.1,0.6,0.1,0.7,0.4c0.2,0.7,0.3,1.4,0.4,2.1c0.1,0.6,0.1,1.1,0.2,1.7c0,0.1,0,0.2,0.1,0.3
			c0.2,0.7,0.6,1.3,1.4,1.4c0.8,0.1,1.5-0.3,1.9-0.9c0.7-1.1,0.8-2.4,0.3-3.6c-0.3-0.7-0.7-1.4-1.2-2.1c-0.8-1.2-1.7-2.3-2.6-3.5
			c-0.6-0.8-1-1.6-1.2-2.6c-0.3-1.7,0.6-3.3,2.1-3.7c0.8-0.2,1.5-0.2,2.3,0.2c0.2,0.1,0.6,0,1,0c0.1,0,0.2-0.1,0.4-0.2
			c0,1.6,0,3,0,4.6c-0.1-0.1-0.3-0.2-0.3-0.3c-0.2-0.5-0.4-1-0.6-1.4c-0.2-0.5-0.3-1.1-0.6-1.5c-0.4-0.7-1-0.9-1.8-0.7
			c-0.3,0.1-0.5,0.3-0.6,0.7c-0.2,0.8-0.1,1.5,0.5,2.2c1,1.3,2,2.7,3.1,4.1c1.1,1.4,1.3,3.1,1.1,4.8c-0.1,0.9-0.3,1.8-0.7,2.6
			c-0.5,0.9-1.2,1.6-2.3,1.8c-0.4,0-0.8,0-1.1-0.1c-0.6-0.2-1.3-0.3-1.9,0c-0.1,0-0.1,0-0.2,0C146.5,69,146.5,66.9,146.5,64.8z"/>
		<path class="st0" d="M19.5,59.1c-0.1-0.1-0.1-0.3-0.2-0.4c-0.2-0.5-0.4-1.1-0.6-1.6c-0.2-0.5-0.3-0.9-0.5-1.4
			c-0.4-0.7-1.1-0.9-1.8-0.6c-0.4,0.1-0.6,0.4-0.6,0.7c-0.1,0.8,0,1.6,0.6,2.3c1,1.3,2,2.6,3,4c1.6,2.3,1.4,4.7,0.5,7.2
			c-0.4,1.1-1.2,1.8-2.5,2c-0.4,0.1-0.8,0-1.1-0.1c-0.6-0.2-1.2-0.3-1.8,0c-0.1,0-0.1,0-0.2,0c0-2.1,0-4.2,0-6.3
			c0.4-0.1,0.5,0.1,0.7,0.4c0.3,0.8,0.4,1.7,0.4,2.5c0,0.6,0.1,1.2,0.2,1.7c0.2,0.6,0.6,1.2,1.3,1.3c0.8,0.1,1.4-0.2,1.9-0.8
			c0.8-1.1,0.9-2.4,0.4-3.6c-0.3-0.7-0.7-1.4-1.2-2.1c-0.8-1.1-1.7-2.2-2.5-3.4c-0.6-0.8-1.1-1.6-1.3-2.5c-0.1-0.7-0.1-1.3,0.1-2
			c0.4-1.3,1.7-2.2,3.2-2c0.3,0,0.7,0.2,1,0.3c0.4,0.2,0.7,0.1,1.1-0.1c0.2-0.1,0.3-0.2,0.3,0.1c0,1.4,0,2.8,0,4.2c0,0,0,0,0,0.1
			C19.6,59,19.6,59.1,19.5,59.1z"/>
		<path class="st0" d="M68.2,64.8c0.3-0.1,0.5,0.1,0.6,0.4c0.2,0.6,0.3,1.1,0.4,1.7c0.1,0.7,0.1,1.3,0.2,2c0,0.3,0.2,0.6,0.3,0.9
			c0.5,1.1,1.6,1.3,2.5,0.6c0.7-0.5,1-1.3,1.1-2.2c0.2-1.2-0.2-2.2-0.8-3.1c-0.9-1.3-1.8-2.5-2.7-3.7c-0.4-0.6-0.9-1.2-1.3-1.9
			c-0.5-0.9-0.7-1.9-0.5-2.9c0.3-1.5,1.7-2.5,3.3-2.3c0.3,0,0.7,0.2,1,0.3c0.4,0.1,0.7,0.1,1.1-0.1c0.2-0.2,0.3-0.1,0.3,0.1
			c0,1.4,0,2.7,0,4.1c0,0,0,0.1-0.1,0.2c-0.1-0.1-0.3-0.2-0.3-0.3c-0.2-0.5-0.4-1-0.6-1.6c-0.2-0.5-0.3-0.9-0.5-1.4
			c-0.4-0.7-1-0.9-1.8-0.7c-0.4,0.1-0.6,0.4-0.7,0.8c-0.1,0.9,0.1,1.6,0.6,2.3c1,1.2,1.9,2.5,2.9,3.8c1.6,2.3,1.5,4.7,0.6,7.1
			c-0.4,1.1-1.2,2-2.5,2.1c-0.4,0.1-0.9,0-1.3-0.1c-0.6-0.2-1.1-0.2-1.7,0c-0.2,0.1-0.3,0.1-0.3-0.2C68.1,68.9,68.1,66.9,68.2,64.8
			C68.1,64.9,68.1,64.9,68.2,64.8z"/>
		<path class="st0" d="M176.2,59.1c-0.1-0.2-0.3-0.2-0.3-0.3c-0.2-0.5-0.4-1-0.6-1.6c-0.2-0.5-0.3-1-0.6-1.4
			c-0.4-0.7-1.1-0.9-1.8-0.6c-0.3,0.1-0.5,0.3-0.6,0.6c-0.2,0.8-0.1,1.6,0.5,2.3c1,1.2,1.9,2.5,2.9,3.8c1.6,2.2,1.6,4.6,0.8,7.1
			c-0.2,0.7-0.6,1.3-1.2,1.8c-0.8,0.6-1.7,0.8-2.6,0.5c-0.6-0.2-1.1-0.2-1.7,0c-0.4,0.1-0.3-0.1-0.3-0.3c0-1.9,0-3.7,0-5.6
			c0-0.1,0-0.2,0-0.3c0.4-0.1,0.6,0.1,0.6,0.3c0.2,0.6,0.3,1.2,0.4,1.8c0.1,0.6,0.1,1.3,0.2,1.9c0,0.3,0.1,0.6,0.3,0.9
			c0.5,1.1,1.6,1.3,2.5,0.6c0.7-0.6,1-1.4,1.1-2.3c0.1-1.1-0.2-2.2-0.8-3.1c-0.9-1.3-1.8-2.5-2.7-3.7c-0.5-0.7-1-1.4-1.4-2.1
			c-0.4-0.8-0.5-1.7-0.3-2.7c0.4-1.5,1.7-2.4,3.3-2.2c0.3,0,0.7,0.2,1,0.3c0.4,0.1,0.7,0.1,1.1-0.1c0.2-0.2,0.3-0.1,0.3,0.2
			c0,1.4,0,2.7,0,4.1C176.2,58.9,176.2,58.9,176.2,59.1z"/>
		<path class="st0" d="M136.9,71.2c-1.2,0-2.3,0-3.5,0c0-0.1,0-0.3,0-0.3c0.5-0.6,0.5-1.4,0.5-2.1c0.1-3.5,0.1-7,0.1-10.5
			c0-0.9-0.2-1.8-0.3-2.8c0-0.2-0.2-0.5-0.3-0.7c0-0.1,0-0.1,0-0.2c1.2,0,2.3,0,3.5,0c0,0.1,0,0.3,0,0.3c-0.5,0.6-0.4,1.4-0.5,2.1
			c-0.1,1.3-0.1,2.6-0.1,3.9c0,2.1,0,4.2,0,6.3c0,0.9,0.1,1.9,0.2,2.8c0,0.3,0.2,0.6,0.3,0.9C136.9,70.9,136.9,71,136.9,71.2z"/>
		<path class="st0" d="M58.5,54.6c0,0.1,0,0.3,0,0.3C58,55.4,58,56.1,58,56.7c-0.1,3.8-0.1,7.7-0.1,11.5c0,0.6,0.1,1.2,0.2,1.8
			c0,0.3,0.2,0.5,0.3,0.8c0,0.1,0,0.2,0.1,0.4c-1.2,0-2.4,0-3.6,0c0-0.1-0.1-0.2,0-0.3c0.5-0.7,0.5-1.6,0.5-2.5c0-3.7,0-7.4,0-11.1
			c0-0.5-0.1-1.1-0.2-1.6c-0.1-0.3-0.2-0.5-0.3-0.8c0-0.1,0-0.2-0.1-0.4C56.2,54.6,57.3,54.6,58.5,54.6z"/>
		<path class="st0" d="M75.3,72.6c0.1-0.3,0.2-0.6,0.2-0.9c0-0.2,0-0.4-0.3-0.5c0,0,0,0,0,0c-0.7-0.2-1-1-0.9-2.1
			c0.1-0.7,0.5-1.2,1.2-1.3c0.5-0.1,1,0.1,1.2,0.6c0.1,0.5,0.2,1,0.2,1.5c-0.1,1-0.7,1.8-1.4,2.5C75.5,72.6,75.5,72.6,75.3,72.6z"/>
	</g>
	<g>
		<path class="st1" d="M130.9,48c-0.1,0.6-0.2,1.2-0.5,1.8c-1.1,1.8-3.3,1.8-4.5,0.1c-0.8-1.2-0.6-3.1,0.4-4.1
			c1.3-1.4,3.6-0.9,4.3,1C130.8,47.1,130.8,47.5,130.9,48z M125.9,48.1c0,0,0,0.2,0,0.3c0.1,1,0.8,1.8,1.7,2
			c0.8,0.2,1.7-0.1,2.2-0.9c0.7-1,0.6-2.4-0.1-3.3c-0.9-1-2.4-1-3.2,0C126.1,46.8,125.9,47.4,125.9,48.1z"/>
		<path class="st1" d="M46.9,49.4c0-1.4,0-2.9,0-4.3c0.2,0,0.3,0,0.5,0c0,2,0,3.9,0,5.8c0,0-0.1,0-0.1,0c-1.1-1.4-2.2-2.9-3.4-4.4
			c0,1.5,0,3,0,4.4c-0.2,0-0.4,0-0.5,0c0-1.9,0-3.9,0-5.8c0,0,0.1,0,0.1,0C44.6,46.5,45.7,48,46.9,49.4
			C46.9,49.4,46.9,49.4,46.9,49.4z"/>
		<path class="st1" d="M138.4,45c1.1,1.5,2.3,2.9,3.4,4.4c0,0,0,0,0.1,0c0-1.4,0-2.9,0-4.3c0.2,0,0.3,0,0.5,0c0,1.9,0,3.9,0,5.8
			c0,0-0.1,0-0.1,0c-1.1-1.4-2.2-2.9-3.4-4.4c0,1.5,0,2.9,0,4.4c-0.2,0-0.4,0-0.5,0C138.3,48.9,138.3,47,138.4,45
			C138.3,45,138.4,45,138.4,45z"/>
		<path class="st1" d="M89,45c0.2,0,0.3,0,0.5,0c0,2,0,3.9,0,5.9c0,0-0.1,0-0.1,0c-1.1-1.4-2.2-2.9-3.4-4.4c0,1.5,0,2.9,0,4.4
			c-0.2,0-0.4,0-0.5,0c0-1.9,0-3.9,0-5.8c0,0,0,0,0.1,0c1.1,1.5,2.3,2.9,3.5,4.5C89,48,89,46.5,89,45z"/>
		<path class="st1" d="M54.8,78c0,1.6-1.2,2.9-2.6,3c-1.6,0-3-1.4-2.9-3c0.1-1.4,0.9-2.5,2.1-2.8C53.2,74.7,54.8,76.1,54.8,78z
			 M49.8,78c0,0.7,0.2,1.2,0.7,1.7c0.9,1,2.4,0.9,3.2-0.2c0.8-1,0.6-2.6-0.3-3.4c-0.7-0.5-1.4-0.7-2.2-0.3
			C50.3,76.2,49.9,77,49.8,78z"/>
		<path class="st1" d="M65.6,80.8c-0.2,0-0.4,0-0.5,0c0-1.9,0-3.7,0-5.5c0,0,0.1,0,0.1,0c1.1,1.4,2.3,2.8,3.4,4.2c0,0,0.1,0,0.1,0
			c0-1.4,0-2.7,0-4.1c0.2,0,0.3,0,0.5,0c0,1.8,0,3.7,0,5.5c0,0,0,0-0.1,0c-1.1-1.4-2.2-2.8-3.4-4.2C65.6,78,65.6,79.4,65.6,80.8z"/>
		<path class="st1" d="M133,76.7c0,1.4,0,2.7,0,4.1c-0.2,0-0.4,0-0.5,0c0-1.9,0-3.7,0-5.5c0,0,0.1,0,0.1,0c1.1,1.4,2.3,2.8,3.4,4.2
			c0,0,0.1,0,0.1,0c0-1.4,0-2.7,0-4.1c0.2,0,0.3,0,0.5,0c0,1.8,0,3.7,0,5.5c0,0-0.1,0-0.1,0.1C135.4,79.4,134.2,78,133,76.7
			C133.1,76.7,133.1,76.7,133,76.7z"/>
		<path class="st1" d="M76.1,48.2c0.6,0.9,1.2,1.8,1.8,2.7c-0.4,0.1-0.6,0-0.9-0.3c-0.5-0.7-1-1.4-1.5-2.1c-0.1-0.1-0.2-0.2-0.4-0.3
			c0,0-0.1,0-0.1,0.1c0,0.9,0,1.8,0,2.7c-0.2,0-0.3,0-0.5,0c0-1.9,0-3.9,0-5.9c0.7,0,1.4,0,2.1,0.1c0.7,0.1,1.1,0.7,1.1,1.5
			c0,0.8-0.4,1.4-1.1,1.5C76.6,48.2,76.4,48.2,76.1,48.2z M75.2,45.7c0,0.6,0,1.3,0,1.9c0.4,0,0.8,0,1.2,0c0.1,0,0.1,0,0.2,0
			c0.5-0.1,0.8-0.4,0.8-1c0-0.5-0.3-0.9-0.8-0.9C76.1,45.6,75.7,45.7,75.2,45.7z"/>
		<path class="st1" d="M107.1,78.2c0.6,0.9,1.2,1.7,1.8,2.6c-0.4,0.1-0.6,0-0.9-0.3c-0.5-0.7-1-1.4-1.5-2.1
			c-0.1-0.1-0.2-0.2-0.4-0.3c0,1,0,1.8,0,2.7c-0.2,0-0.3,0-0.5,0c0-1.8,0-3.7,0-5.6c0.7,0,1.5,0,2.2,0.1c0.6,0.1,1,0.7,1,1.4
			c0,0.7-0.4,1.2-1.1,1.4C107.6,78.1,107.4,78.1,107.1,78.2z M106.2,77.6c0.5,0,1.1,0,1.6-0.1c0.4-0.1,0.6-0.4,0.6-0.9
			c0-0.4-0.2-0.8-0.6-0.8c-0.5-0.1-1-0.1-1.6-0.1C106.2,76.4,106.2,77,106.2,77.6z"/>
		<path class="st1" d="M65,45.6c0,0.6,0,1.2,0,1.8c0.8,0,1.6,0,2.4,0c0,0.2,0,0.4,0,0.6c-0.8,0-1.6,0-2.4,0c0,0.8,0,1.5,0,2.3
			c0.8,0,1.6,0,2.4,0c0,0.2,0,0.4,0,0.6c-1,0-1.9,0-2.9,0c0-1.9,0-3.9,0-5.8c1,0,1.9,0,2.9,0c0,0.2,0,0.4,0,0.6
			C66.6,45.6,65.8,45.6,65,45.6z"/>
		<path class="st1" d="M96.7,50.9c0.8-1.9,1.6-3.9,2.4-5.8c0,0,0.1,0,0.1,0c0.8,1.9,1.6,3.9,2.4,5.9c-0.2,0-0.4,0-0.5,0
			c-0.2-0.5-0.4-1.1-0.7-1.6c-0.1-0.1-0.2-0.2-0.3-0.2c-0.6,0-1.2,0-1.8,0c-0.2,0-0.3,0.1-0.4,0.2c-0.2,0.4-0.3,0.8-0.5,1.2
			C97.3,50.8,97.1,51,96.7,50.9z M100.1,48.4c-0.3-0.7-0.6-1.4-0.9-2.1c-0.3,0.8-0.6,1.5-0.9,2.1C98.9,48.4,99.4,48.4,100.1,48.4z"
			/>
		<path class="st1" d="M149.5,50.9c0.8-2,1.6-3.9,2.4-5.8c0,0,0.1,0,0.1,0c0.8,1.9,1.6,3.9,2.4,5.9c-0.4,0.1-0.6,0-0.7-0.3
			c-0.2-0.5-0.4-1-0.6-1.5c-0.7,0-1.4,0-2.1,0c-0.1,0-0.2,0.1-0.3,0.2c-0.2,0.4-0.4,0.8-0.5,1.3C150.2,50.9,150,51,149.5,50.9z
			 M152.9,48.4c-0.3-0.7-0.6-1.4-0.9-2.1c-0.3,0.8-0.6,1.4-0.9,2.1C151.8,48.4,152.3,48.4,152.9,48.4z"/>
		<path class="st1" d="M122.3,80.2c0,0.2,0,0.4,0,0.5c-1,0-1.9,0-2.9,0c0-1.8,0-3.7,0-5.5c1,0,1.9,0,2.9,0c0,0.2,0,0.3,0,0.5
			c-0.8,0-1.6,0-2.4,0c0,0.6,0,1.1,0,1.7c0.8,0,1.6,0,2.4,0c0,0.2,0,0.3,0,0.5c-0.8,0-1.6,0-2.4,0c0,0.8,0,1.5,0,2.2
			C120.7,80.2,121.5,80.2,122.3,80.2z"/>
		<path class="st1" d="M92.5,75.2c1,0,2,0,2.9,0c0,0.2,0,0.3,0,0.5c-0.8,0-1.6,0-2.4,0c0,0.6,0,1.2,0,1.7c0.8,0,1.6,0,2.4,0
			c0,0.2,0,0.3,0,0.5c-0.8,0-1.6,0-2.4,0c0,0.8,0,1.5,0,2.3c0.8,0,1.6,0,2.4,0c0,0.2,0,0.3,0,0.5c-1,0-1.9,0-2.9,0
			C92.5,78.9,92.5,77.1,92.5,75.2z"/>
		<path class="st1" d="M161.2,77.5c0.8,0,1.6,0,2.4,0c0,0.2,0,0.3,0,0.5c-0.8,0-1.6,0-2.4,0c0,0.8,0,1.5,0,2.3c0.8,0,1.6,0,2.4,0
			c0,0.2,0,0.3,0,0.5c-1,0-1.9,0-2.9,0c0-1.8,0-3.7,0-5.5c1,0,2,0,2.9,0c0,0.2,0,0.3,0,0.5c-0.8,0-1.6,0-2.4,0
			C161.2,76.3,161.2,76.9,161.2,77.5z"/>
		<path class="st1" d="M150.6,80.1c0,0.6-0.1,0.8-0.7,0.8c-1.8,0.1-3.2-1.4-2.9-3.3c0.2-1.5,1.1-2.4,2.5-2.5c0.2,0,0.5,0,0.7,0
			c0.5,0.1,0.6,0.2,0.5,0.8c-1-0.7-2.3,0-2.7,0.8c-0.9,1.4-0.2,3.4,1.4,3.7C149.8,80.5,150.1,80.4,150.6,80.1z"/>
		<path class="st1" d="M39.1,80.2c0.1,0.5-0.1,0.7-0.6,0.7c-1.5,0.1-2.7-0.8-3-2.3c-0.2-1,0-1.9,0.6-2.7c0.6-0.8,1.5-1.1,2.5-0.9
			c0.5,0.1,0.6,0.2,0.5,0.7c-1.4-0.8-3,0.4-3.1,1.9c-0.1,1.5,0.9,2.7,2.3,2.6C38.5,80.4,38.8,80.3,39.1,80.2z"/>
		<path class="st1" d="M82.3,75.7c-0.7,0-1.4,0-2,0c0,0.6,0,1.1,0,1.7c0.7,0,1.3,0,2,0c0,0.2,0,0.3,0,0.5c-0.7,0-1.4,0-2.1,0
			c0,0.9,0,1.8,0,2.8c-0.2,0-0.3,0-0.5,0c0-1.8,0-3.7,0-5.5c0.9,0,1.7,0,2.6,0C82.3,75.4,82.3,75.5,82.3,75.7z"/>
		<path class="st1" d="M54.5,45c1,0,1.9,0,2.8,0c0,0.2,0,0.4,0,0.6c-0.4,0-0.7,0-1.1,0c0,1.8,0,3.5,0,5.3c-0.2,0-0.3,0-0.5,0
			c0-1.7,0-3.5,0-5.3c-0.4,0-0.8,0-1.2,0C54.5,45.4,54.5,45.2,54.5,45z"/>
		<path class="st1" d="M108.9,50.9c0-1.7,0-3.5,0-5.2c-0.4,0-0.8,0-1.1,0c0-0.2,0-0.4,0-0.6c0.9,0,1.8,0,2.8,0c0,0.2,0,0.4,0,0.6
			c-0.4,0-0.7,0-1.1,0c0,1.8,0,3.5,0,5.3C109.2,50.9,109,50.9,108.9,50.9z"/>
		<path class="st1" d="M161.7,45c0.2,0,0.3,0,0.5,0c0,1.7,0,3.5,0,5.3c0.7,0,1.3,0,2,0c0,0.2,0,0.4,0,0.6c-0.8,0-1.6,0-2.5,0
			C161.7,49,161.7,47,161.7,45z"/>
		<path class="st1" d="M35.3,45c0.2,0,0.3,0,0.5,0c0,1.9,0,3.9,0,5.8c-0.1,0-0.3,0-0.5,0C35.3,49,35.3,47,35.3,45z"/>
		<path class="st1" d="M118,45c0,2,0,3.9,0,5.9c-0.2,0-0.3,0-0.5,0c0-1.9,0-3.9,0-5.8C117.7,45,117.9,45,118,45z"/>
	</g>
	<g>
		<path class="st2" d="M113.7,32.5c-0.1,0-0.1-0.1-0.1-0.2c-0.1-0.2-0.2-0.2-0.3-0.2c-0.2,0-0.1,0.2-0.1,0.3c0,1,0,2-0.1,3.1
			c0,0.3,0.1,0.5,0.1,0.8c0,0.8,0,1.7,0,2.5c0,0.1,0,0.2-0.1,0.3c-0.1,0.1-0.2,0.2-0.4,0.2c-0.1,0-0.2-0.1-0.2-0.2
			c0-0.1-0.1-0.3-0.1-0.4c0-0.8,0-1.5,0-2.3c0.1-0.9-0.1-1.7,0-2.6c0-0.2,0-0.4-0.1-0.6c0,0,0,0,0-0.1c0-0.5-0.3-0.8-0.5-1.1
			c-0.1-0.2-0.2-0.2-0.3-0.1c-0.2,0.2-0.6,0.2-0.8,0c-0.1-0.1-0.2-0.1-0.2-0.1c-0.2,0-0.3,0-0.5,0c-0.3,0-0.6-0.4-0.9-0.3
			c0,0-0.1-0.1-0.2-0.1c-0.1-0.1-0.2-0.1-0.3,0c-0.1,0.2-0.4,0.1-0.5-0.2c0-0.1,0-0.1-0.1-0.2c-0.1-0.1-0.1-0.2-0.3,0
			c-0.2,0.2-0.4,0.2-0.6-0.1c-0.1-0.1-0.2-0.1-0.3-0.1c-0.1,0-0.3,0.1-0.3-0.1c0-0.2,0.1-0.3,0.3-0.4c0.3,0,0.5-0.2,0.7-0.3
			c0,0,0,0,0,0c0.4,0,0.6-0.2,1-0.3c0.3,0,0.6-0.2,0.9-0.1c0.3,0,0.6,0,0.9,0.2c0.1,0,0.2,0.1,0.2,0.1c0.1,0,0.3,0.1,0.3-0.1
			c0-0.2,0-0.3-0.2-0.3c-0.2,0-0.3,0-0.4-0.2c0,0-0.1,0-0.1,0c-0.5,0.1-0.7-0.3-1.1-0.5c0,0.2-0.2,0.2-0.3,0.3
			c-0.1,0-0.2-0.1-0.3-0.2c-0.2-0.2-0.4-0.3-0.7-0.3c-0.2,0-0.2,0-0.3-0.2c-0.1-0.3-0.2-0.5-0.5-0.7c-0.1-0.2,0.1-0.4,0.2-0.4
			c0.2,0,0.4-0.1,0.7-0.1c0.3,0,0.7-0.2,1,0c0.1,0,0.2,0,0.3,0c0.1,0,0.2,0,0.3,0.1c0.2,0.2,0.6,0.1,0.7,0.4c0,0,0.1,0,0.1,0
			c0.1,0,0.1,0,0.2,0.1c0.2,0.2,0.4,0.3,0.5,0.6c0,0.1,0.1,0.2,0.1,0.2c0.1,0.1,0.2,0.1,0.2-0.1c0.1-0.1,0.1-0.2,0-0.3
			c-0.1-0.4-0.2-0.8-0.1-1.2c0-0.1,0.1-0.3-0.1-0.4c0-0.1-0.1-0.2,0-0.3c0-0.1,0.1-0.2,0-0.3c0-0.1,0-0.3-0.1-0.4
			c-0.1-0.1-0.1-0.2-0.1-0.3c0-0.3,0-0.6,0-1c0-0.1,0-0.2-0.1-0.2c-0.3-0.2-0.3-0.5,0.1-0.7c0.1-0.1,0.1-0.1,0.1-0.2
			c0-0.1,0-0.3,0-0.4c0-0.1,0.1-0.1,0.2,0c0.1,0.1,0.2,0.1,0.2,0.2c0.1,0.3,0.4,0.2,0.6,0.4c0,0,0.2,0,0.3,0c0.2,0,0.2,0.1,0.2,0.2
			c0,0.4,0.1,0.9,0.2,1.3c0,0,0,0.1,0,0.1c-0.1,0.3,0,0.6,0.1,0.9c0,0.1,0,0.2,0,0.2c0.2,0.1,0.2,0.3,0.2,0.4c0,0.1,0,0.2,0,0.4
			c-0.1,0.2,0.3,0.2,0.2,0.4c-0.1,0.2-0.1,0.4,0,0.5c0,0.1,0,0.2,0.1,0.2c0.1,0,0.1-0.1,0.1-0.2c0-0.2,0.2-0.4,0.2-0.6
			c0-0.1,0-0.1,0.1-0.1c0.2,0,0.2-0.1,0.2-0.3c0.1-0.1,0.3-0.2,0.3-0.4c0.1,0,0.2-0.1,0.2-0.2c0-0.1,0-0.2,0.1-0.2
			c0.1,0,0.1-0.1,0.1-0.2c0.2,0,0.3-0.1,0.3-0.3c0-0.1,0.1-0.1,0.1-0.1c0.2,0,0.2-0.1,0.3-0.2c0-0.2,0.2-0.2,0.2-0.2
			c0.2-0.1,0.3-0.4,0.6-0.4c0,0,0.1-0.1,0.1-0.1c0-0.1,0.1-0.1,0.2-0.1c0.2-0.1,0.4,0,0.4,0.1c0,0.1,0,0.3-0.2,0.4
			c0,0-0.1,0-0.1,0.1c0.1,0.3-0.3,0.4-0.3,0.7c-0.1,0.2-0.2,0.5-0.3,0.7c0,0.1-0.1,0.1-0.1,0.1c-0.2,0-0.2,0.2-0.2,0.3
			c-0.2,0.1-0.3,0.2-0.3,0.5c0,0.1-0.1,0.3-0.2,0.3c-0.1,0-0.1,0.1-0.1,0.1c-0.2,0.2-0.3,0.4-0.5,0.6c-0.2,0.1-0.4,0.2-0.4,0.5
			c0,0.1,0,0.2,0.1,0.2c0.1,0,0.2,0,0.2-0.1c0.1-0.1,0.1-0.1,0.2-0.2c0.1-0.2,0.3-0.2,0.4-0.4c0.1-0.3,0.3-0.4,0.4-0.5
			c0.2-0.2,0.4-0.3,0.6-0.5c0.1,0,0.2-0.1,0.3-0.1c0,0,0.1,0,0.1,0c0.1-0.3,0.4-0.2,0.5-0.3c0.2-0.1,0.4-0.1,0.5-0.1
			c0.4,0,0.7-0.3,1.1-0.2c0.1,0,0.1,0,0.2,0.1c0,0.1-0.1,0.1-0.1,0.1c-0.2,0.3-0.5,0.5-0.7,0.8c-0.2,0.4-0.6,0.6-0.8,1
			c-0.1,0.2-0.3,0.3-0.5,0.5c-0.1,0.1-0.3,0.2-0.3,0.4c0,0,0,0.1-0.1,0.1c-0.2,0-0.2,0.2-0.3,0.4c-0.3,0-0.5,0.2-0.6,0.3
			c-0.2,0.3-0.6,0.2-0.8,0.4c-0.1,0.1-0.1,0.1-0.2,0.2c0,0.1,0.1,0.1,0.1,0.2c0.1,0,0.2,0.1,0.3,0c0.1,0,0.1,0,0.2,0
			c0.1,0.2,0.2,0.1,0.4,0.1c0.2,0,0.3,0,0.4,0.1c0,0,0.1,0,0.2,0c0.1,0.2,0.1,0.4,0.4,0.3c0.1,0,0.1,0,0.1,0.1
			c0,0.1,0.1,0.1,0.2,0.1c0.2,0.1,0.5,0.1,0.6,0.4c0,0,0.1,0.1,0.1,0.1c0.3,0.2,0.6,0.4,0.8,0.7c0,0,0,0.1,0.1,0.1
			c0.3-0.1,0.4,0.3,0.6,0.3c-0.2,0.1-0.3,0.4-0.6,0.3c0,0-0.1,0-0.1,0.1c-0.2,0.2-0.3,0.1-0.6,0.1c-0.2-0.1-0.4-0.3-0.7-0.3
			c-0.2,0-0.4-0.1-0.6-0.2c-0.1-0.1-0.2-0.1-0.3,0c-0.5,0.1-0.9-0.3-1.4-0.2c0,0-0.1,0-0.1-0.1c0-0.1-0.1-0.1-0.2-0.1
			c-0.1,0-0.1,0-0.1-0.1C113.9,32.5,113.8,32.5,113.7,32.5z"/>
		<path class="st2" d="M93.4,27.7c-0.2,0-0.4,0-0.4,0.3c0,0.1-0.1,0.1-0.1,0.1c-0.2,0.2-0.5,0.3-0.7,0.5c-0.2,0.1-0.3,0.4-0.5,0.5
			c-0.1,0.1-0.3,0.2-0.4,0.3c-0.1,0.1-0.3,0.1-0.4,0.3c-0.2,0.3-0.7,0.3-0.9,0.6c-0.1,0.2-0.4,0.2-0.6,0.2c-0.1,0-0.2,0-0.3,0.1
			c-0.1,0.1-0.3,0.1-0.4,0.2c-0.1,0-0.3,0-0.4,0.1c0.1,0.1,0.2,0,0.3,0c0.5,0,0.9,0.1,1.3,0.3c0.5,0.1,1,0.4,1.4,0.7
			c0.4,0.3,0.8,0.7,1,1.1c0.1,0.2,0.2,0.3,0.3,0.5c0,0.2,0,0.2-0.2,0.2c-0.3-0.1-0.6,0-0.8-0.2c-0.1,0-0.1,0-0.2,0
			c-0.1,0-0.2,0-0.2,0c-0.1-0.3-0.5-0.2-0.7-0.4c0,0,0,0,0,0c-0.3,0-0.5-0.2-0.7-0.2c-0.5-0.1-0.8-0.3-1.2-0.6
			c-0.1-0.1-0.2-0.2-0.2-0.3c0-0.1-0.1-0.1-0.2-0.1c-0.1,0-0.1,0.1-0.1,0.2c-0.1,1.1,0,2.2-0.1,3.4c0,0.9,0,1.7,0,2.6
			c0,0.3-0.1,0.7-0.1,1c0,0.2-0.5,0.4-0.6,0.3c-0.1-0.1-0.1-0.2-0.1-0.3c0-0.8,0-1.6,0-2.4c0-0.6-0.1-1.2-0.2-1.8c-0.1-1,0-2-0.1-3
			c0-0.1,0.1-0.3-0.1-0.3c-0.1-0.1-0.3,0-0.4,0.1c-0.1,0-0.1,0-0.2,0c-0.3-0.3-0.5-0.1-0.8,0c-0.2,0.1-0.4,0.2-0.6,0
			c0,0-0.1,0-0.1,0c-0.2,0.1-0.3,0-0.4-0.1c0,0-0.1-0.1-0.1,0c-0.2,0-0.4,0-0.5-0.2c-0.1-0.2-0.3-0.2-0.5,0c-0.1,0.2-0.3,0.2-0.4,0
			c-0.2-0.2-0.4-0.3-0.6,0c-0.1,0.1-0.2,0-0.2-0.1c0-0.2-0.1-0.4-0.4-0.4c-0.2,0-0.2-0.2-0.1-0.3c0.2-0.3,0.5-0.6,0.9-0.7
			c0.5-0.1,0.9-0.2,1.4-0.2c0.1,0,0.2,0,0.2-0.2c0-0.1,0-0.1,0.1-0.2c0.2-0.2,0.1-0.7-0.2-0.7c-0.4-0.1-0.7-0.2-1-0.5
			c-0.1-0.1-0.2-0.1-0.3-0.1c-0.3-0.1-0.4-0.3-0.7-0.5c-0.1,0-0.1-0.1,0-0.1c0.3-0.2,0.5-0.3,0.8-0.4c0.4-0.1,0.7,0,1.1,0
			c0.1,0,0.2,0.2,0.4,0.1c0.1,0,0.3-0.1,0.3,0.1c0,0.1,0.1,0.1,0.1,0.1c0.3-0.1,0.4,0.1,0.6,0.2c0.4,0.3,0.7,0.6,1.1,1
			c0.1,0.1,0.2,0.1,0.3,0.1c0.1-0.1,0.1-0.2,0-0.2c-0.2-0.5,0-1-0.2-1.5c0-0.1,0-0.2,0-0.4c0-0.1,0-0.3-0.2-0.3
			C86,26.1,86,25.9,86,25.8c0-0.3,0.1-0.5-0.1-0.8c0,0,0-0.1,0-0.2c0-0.2,0-0.5-0.3-0.5c-0.1,0-0.1-0.1-0.1-0.2
			c0-0.1,0.1-0.2,0.2-0.2c0.3-0.1,0.3-0.1,0.2-0.5c0-0.1-0.1-0.2-0.1-0.4c0-0.1-0.1-0.3,0.1-0.3c0.1,0,0.3,0,0.3,0.2
			c0.1,0.3,0.3,0.3,0.5,0.3c0.2,0,0.3,0.1,0.3,0.3c0,0.1,0,0.1,0.1,0.2c0.3,0.1,0.4,0.2,0.4,0.5c0,0.2,0,0.3,0.1,0.5
			c0.1,0.1,0,0.3,0,0.5c0,0.2-0.1,0.4,0,0.6c0,0.1,0,0.2,0,0.2c0.2,0.1,0.1,0.3,0.1,0.4c0,0.1,0,0.2,0,0.4c0,0.3,0,0.7,0,1
			c0,0.1,0,0.2,0.1,0.2c0.1,0,0.2,0,0.2-0.1c0.1-0.1,0.1-0.2,0.1-0.3c0-0.1,0-0.2,0.2-0.2c0.1,0,0.1,0,0.1-0.1
			c0-0.2,0.1-0.4,0.2-0.5c0.3,0,0.3-0.2,0.3-0.4c0.3-0.1,0.4-0.5,0.7-0.6c0.2-0.2,0.4-0.3,0.6-0.4c0.1,0,0.3,0,0.4-0.1
			c0.1-0.1,0.2-0.2,0.3-0.2c0.1,0,0.3-0.1,0.4,0c0.1,0.1-0.1,0.2-0.1,0.3c-0.2,0.2-0.1,0.3,0.1,0.4c0,0.1,0,0.2-0.1,0.2
			c-0.1,0.1-0.2,0.2-0.2,0.4c-0.1,0.1-0.4,0.1-0.4,0.4c0,0.3-0.1,0.6-0.4,0.8c-0.1,0-0.1,0.1-0.1,0.2c-0.3,0.1-0.4,0.4-0.7,0.6
			c-0.1,0-0.2,0.2-0.2,0.3c0,0.1,0.2,0,0.3,0.1c0.1,0,0.2,0,0.3-0.1c0.1-0.1,0.2-0.2,0.4-0.3c0.3-0.1,0.6-0.3,1-0.5
			c0.1-0.1,0.3-0.1,0.3-0.2c0.1-0.3,0.3-0.3,0.6-0.3c0.2,0,0.3-0.1,0.4-0.2c0.3-0.1,0.6-0.2,0.9-0.1c0.1,0,0.2,0.1,0.4,0.1
			c0.1,0.1,0.1,0.2-0.1,0.4C93.5,27.3,93.4,27.5,93.4,27.7z"/>
		<path class="st3" d="M91.3,25.5c0-0.1,0.2-0.2,0.1-0.3c-0.1-0.1-0.3,0-0.4,0c-0.1,0-0.2,0.1-0.3,0.2c-0.1,0.1-0.2,0.2-0.4,0.1
			c0-0.7,0-1.3,0-2c0-0.3,0-0.5,0-0.8c0-0.2,0.1-0.2,0.3-0.2c0,0,0.1,0,0.1,0c6.4,0,12.9,0,19.3,0c0.3,0,0.3,0,0.3,0.3
			c0,0.8,0,1.6,0,2.5c0,0.2-0.1,0.2-0.3,0.2c-1.8,0-3.5,0-5.3,0c-0.1,0-0.2,0-0.3-0.1c-0.7-0.8-1.7-1.1-2.7-1.3
			c-1.5-0.3-2.9-0.2-4.3,0.2c-0.7,0.2-1.4,0.6-1.9,1.1c-0.1,0.1-0.1,0.1-0.2,0.1C94,25.5,92.6,25.5,91.3,25.5z"/>
		<path class="st3" d="M111.1,22c-7.3,0-14.6,0-21.9,0c0,0,0,0,0,0c0.3-0.1,0.6-0.2,0.9-0.4c3.2-1.3,6.4-2.6,9.6-3.9
			c0.2-0.1,0.4-0.1,0.7,0c2.9,1.2,5.9,2.4,8.9,3.5C109.8,21.5,110.5,21.7,111.1,22C111.1,22,111.1,22,111.1,22z"/>
		<path class="st3" d="M93.4,27.7c0.1-0.2,0.2-0.3,0.3-0.4c0.1-0.1,0.1-0.2,0.1-0.4c0.1,0,0.2,0,0.3,0c5.6,0,11.1,0,16.7,0
			c0.1,0,0.2,0,0.4,0c-0.1,0.4,0,0.8,0.1,1.2c0,0.1,0.1,0.2,0,0.3c-0.1,0-0.2-0.1-0.3-0.1c-0.1-0.3-0.3-0.4-0.5-0.6
			c0,0-0.1,0-0.2-0.1c0,0-0.1,0-0.1,0c-0.1-0.3-0.5-0.2-0.7-0.4c-0.1-0.1-0.2-0.1-0.3-0.1c-0.1,0-0.2,0.1-0.3,0c-0.3-0.2-0.7,0-1,0
			c-0.2,0-0.4,0.1-0.7,0.1c-0.1,0-0.3,0.2-0.2,0.4c-0.9,0.1-1.7,0.3-2.5,0.7c-1.2,0.6-2,1.5-2.4,2.8c0,0.1-0.1,0.2-0.2,0.2
			c-1.2,0-2.4,0-3.6,0c-0.1,0-0.2-0.1-0.3-0.2c-0.8-1.8-2.2-2.9-4.1-3.3C93.7,27.7,93.5,27.7,93.4,27.7z"/>
		<path class="st3" d="M98.4,35.6c0-1.1,0-2.3,0-3.4c0-0.2,0.1-0.3,0.3-0.3c0.9,0,1.7,0,2.6,0c0.2,0,0.2,0.1,0.2,0.3
			c0,2.3,0,4.6,0,7c0,0.2-0.1,0.3-0.2,0.3c-0.9,0-1.7,0-2.6,0c-0.2,0-0.2-0.1-0.2-0.2C98.4,37.9,98.4,36.7,98.4,35.6z"/>
		<path class="st3" d="M84,31.5c0.1-0.1,0.1,0,0.1,0c0.1,0.1,0.3,0.2,0.4,0.1c0,0,0.1,0,0.1,0c0.2,0.2,0.4,0.1,0.6,0
			c0.3-0.1,0.5-0.3,0.8,0c0,0,0.1,0,0.2,0c0,0.1,0,0.2,0,0.4c0,2.3,0,4.7,0,7c0,0.2-0.1,0.3-0.3,0.3c-0.6,0-1.2,0-1.8,0
			c-0.2,0-0.2,0-0.2-0.2C84,36.6,84,34.1,84,31.5z"/>
		<path class="st3" d="M113.7,32.5c0.1,0,0.2-0.1,0.2,0.1c0,0.1,0.1,0.1,0.1,0.1c0.1,0,0.1,0,0.2,0.1c0,0,0,0.1,0.1,0.1
			c0.5-0.1,0.9,0.3,1.4,0.2c0,1.4,0,2.7,0,4.1c0,0.6,0,1.2,0,1.8c0,0.2-0.1,0.3-0.3,0.3c-0.5,0-1,0-1.5,0c-0.2,0-0.3-0.1-0.3-0.3
			c0-2.1,0-4.2,0-6.2C113.7,32.7,113.7,32.6,113.7,32.5z"/>
		<path class="st3" d="M91.1,26.5c0-0.2,0-0.3,0.2-0.4c0.1-0.1,0.1-0.1,0.1-0.2c1.7,0,3.4,0,5.1,0c4.8,0,9.7,0,14.5,0
			c0.1,0.1,0.1,0.2,0,0.3c-0.1,0.1,0,0.2,0,0.3c-0.1,0-0.2,0-0.3,0c-5,0-10,0-15,0C94.1,26.5,92.6,26.5,91.1,26.5z"/>
		<path class="st3" d="M86.3,26.8c0.2,0.5-0.1,1,0.2,1.5c0,0.1,0,0.2,0,0.2c-0.1,0.1-0.2,0-0.3-0.1c-0.3-0.3-0.7-0.7-1.1-1
			c-0.2-0.1-0.3-0.3-0.6-0.2c-0.1,0-0.1,0-0.1-0.1C84.3,27,84.1,27,84,27.1c0-0.2,0-0.3,0.2-0.3C84.9,26.8,85.6,26.8,86.3,26.8z"/>
		<path class="st3" d="M86,25.8c0,0.1,0,0.2,0.1,0.3c0.1,0.1,0.2,0.2,0.2,0.3c-0.7,0-1.3,0-2,0c-0.3,0-0.3-0.1-0.2-0.3
			c0-0.2-0.1-0.3,0.2-0.3C84.8,25.8,85.4,25.8,86,25.8z"/>
		<path class="st3" d="M115.8,31.3c-0.1,0-0.2,0-0.2,0c-0.1-0.2-0.3-0.1-0.4-0.1c-0.1,0-0.3,0-0.4-0.1c0-0.1-0.1-0.1-0.2,0
			c-0.1,0-0.2,0-0.3,0c-0.1,0-0.2-0.1-0.1-0.2c0-0.1,0.1-0.1,0.2-0.2c0.3-0.2,0.6-0.1,0.8-0.4c0.1-0.2,0.4-0.3,0.6-0.3
			C115.8,30.3,115.8,30.8,115.8,31.3z"/>
		<path class="st3" d="M115.8,27.3c-0.2,0.2-0.4,0.3-0.6,0.5c-0.2,0.1-0.4,0.3-0.4,0.5c0,0.2-0.3,0.2-0.4,0.4c0,0.1-0.1,0.1-0.2,0.2
			c-0.1,0.1-0.1,0.1-0.2,0.1c-0.1,0-0.1-0.1-0.1-0.2c-0.1-0.3,0.2-0.4,0.4-0.5c0.2-0.2,0.4-0.4,0.5-0.6c0,0,0.1-0.1,0.1-0.1
			c0.2-0.1,0.2-0.2,0.2-0.3c0-0.2,0.1-0.4,0.3-0.5C115.8,26.8,115.8,26.8,115.8,27.3z"/>
		<path class="st3" d="M89.7,25.8c-0.3,0.1-0.4,0.5-0.7,0.6c-0.4,0-0.8,0-1.2,0c0-0.1,0-0.3-0.1-0.4c0,0,0-0.1,0-0.2
			C88.4,25.8,89,25.8,89.7,25.8z"/>
		<path class="st3" d="M112.8,26.5c0-0.2,0-0.3-0.2-0.4c-0.1,0,0-0.1,0-0.2c0.6,0,1.2,0,1.9,0c0,0.1,0,0.2-0.1,0.2
			c-0.2,0-0.1,0.1-0.1,0.2c0,0.1-0.1,0.2-0.2,0.2C113.6,26.5,113.2,26.5,112.8,26.5z"/>
		<path class="st3" d="M113.7,26.8c0,0.1,0,0.3-0.2,0.3c-0.1,0-0.1,0.1-0.1,0.1c0,0.2-0.2,0.3-0.2,0.6c0,0.1,0,0.2-0.1,0.2
			c-0.1,0-0.1-0.1-0.1-0.2c0-0.2,0-0.4,0-0.5c0.1-0.2-0.3-0.2-0.2-0.4C113.1,26.8,113.4,26.8,113.7,26.8z"/>
		<path class="st3" d="M90.7,26.8c0.6,0,1.2,0,1.8,0c-0.1,0.2-0.2,0.2-0.4,0.2c-0.3,0-0.5,0-0.6,0.3c0,0.1-0.2,0.2-0.3,0.2
			c-0.1-0.1-0.2,0-0.3,0c-0.2,0-0.5,0.1-0.7,0.1c0-0.1,0-0.1,0.1-0.2C90.6,27.4,90.7,27.1,90.7,26.8z"/>
		<path class="st3" d="M88.7,26.9c-0.1,0.2-0.2,0.3-0.2,0.5c0,0.1,0,0.2-0.1,0.1c-0.2-0.1-0.2,0.1-0.2,0.2c0,0.1,0,0.2-0.1,0.3
			c-0.1,0.1-0.1,0.1-0.2,0.1c-0.1,0-0.1-0.1-0.1-0.2c0-0.3,0-0.7,0-1C88.1,26.9,88.4,26.8,88.7,26.9z"/>
	</g>
</g>
</svg>
