<?xml version="1.0" encoding="utf-8"?>
<!-- Generator: Adobe Illustrator 21.1.0, SVG Export Plug-In . SVG Version: 6.00 Build 0)  -->
<svg version="1.1" id="icons" xmlns="http://www.w3.org/2000/svg" xmlns:xlink="http://www.w3.org/1999/xlink" x="0px" y="0px"
	 viewBox="0 0 300 135" style="enable-background:new 0 0 300 135;" xml:space="preserve">
<style type="text/css">
	.st0{fill:#FFFFFF;}
</style>
<path class="st0" d="M38.2,117.7V55.5c0,0,0.7-9.2-6.9-9.2l0,0H17V127h26v-0.4C40.5,125.5,38.2,123,38.2,117.7"/>
<path class="st0" d="M63.4,46.3L63.4,46.3c-8.4,0-7.2,9.8-7.2,9.8v62.2c0,5.1-2.4,7.4-4.9,8.4v0.4h26.2V95.6H113V80.3H77.6V61.6
	h53.6v65.2h22.3l0.1-65.1h27.1V46.3H63.4z"/>
<polygon class="st0" points="188.7,46.2 188.7,61.7 201,61.7 201,126.9 218.6,126.9 218.6,46.2 "/>
<path class="st0" d="M283.4,59.1c-1.2,2.5-26.2,58.8-30,67.8h-17.8c3.5-7.9,27.9-63.3,28.7-65.2h-39.3V46.2h58.2L283.4,59.1
	L283.4,59.1z"/>
<rect x="43.8" y="97.9" class="st0" width="2.9" height="2.9"/>
<rect x="41" y="61.6" class="st0" width="2.9" height="2.9"/>
<rect x="43.8" y="52.3" class="st0" width="2.9" height="2.9"/>
<rect x="43.8" y="64.5" class="st0" width="2.9" height="2.9"/>
<rect x="49.4" y="76.7" class="st0" width="2.9" height="2.9"/>
<rect x="46.6" y="43.2" class="st0" width="2.9" height="2.9"/>
<path class="st0" d="M162.3,126.2c-0.5,0.5-1.2,0.8-2,0.8s-1.4-0.3-2-0.8c-0.5-0.5-0.8-1.2-0.8-2c0-0.7,0.3-1.4,0.8-2
	c0.5-0.5,1.2-0.8,2-0.8s1.4,0.3,2,0.8c0.5,0.5,0.8,1.2,0.8,2C163.1,125,162.9,125.7,162.3,126.2z M158.7,122.6
	c-0.4,0.4-0.7,1-0.7,1.7c0,0.6,0.3,1.3,0.7,1.7s1,0.7,1.7,0.7c0.6,0,1.3-0.3,1.7-0.7s0.7-1.1,0.7-1.7c0-0.6-0.3-1.3-0.7-1.7
	s-1-0.7-1.7-0.7C159.7,121.9,159.2,122.1,158.7,122.6z M160.4,122.7c0.4,0,0.6,0,0.8,0.1c0.4,0.1,0.4,0.4,0.4,0.8
	c0,0.3-0.1,0.4-0.3,0.6c-0.1,0.1-0.3,0.1-0.4,0.2c0.3,0,0.4,0.2,0.5,0.3c0.1,0.2,0.2,0.4,0.2,0.4v0.2c0,0.1,0,0.2,0,0.3s0,0.1,0,0.2
	l0,0h-0.5l0,0l0,0v-0.1v-0.3c0-0.4-0.1-0.6-0.3-0.7c-0.1-0.1-0.3-0.1-0.6-0.1h-0.4v1.2h-0.5v-3.1L160.4,122.7L160.4,122.7z
	 M160.9,123.2c-0.1-0.1-0.4-0.1-0.6-0.1h-0.4v1.1h0.4c0.3,0,0.4,0,0.5-0.1c0.2-0.1,0.3-0.3,0.3-0.4
	C161.2,123.4,161.1,123.3,160.9,123.2z"/>
<path class="st0" d="M45.4,32.7l0.1,1.3c-1.8-11-26-16.7-26-16.7s6.2,25.8,17.7,25.8H41v-2.9h2.8v2.9c1,0,1.5,0,1.5,0h1.4v-2.9h2.8
	v2.9H55C69.2,43.1,80,8.7,80,8.7c-1.8,0.5-32.2,7.5-34.5,22.5 M49.5,31.7h2.9v3h-2.9V31.7z M35.1,31.6h-2.9v-2.9h2.9V31.6z
	 M35.2,34.6h2.9v2.8h-2.9V34.6z M38.1,40.2v-2.8H41v-2.8h-2.8v-3h2.9v2.9h2.9v2.9h-2.8v2.9L38.1,40.2L38.1,40.2z M52.4,40.2h-2.9
	v-2.8h-2.8v2.8h-3v-2.8h3v-2.8h2.9v2.8h2.8V40.2z M55.3,37.4h-2.9v-2.9h2.9V37.4z M58,31.7h-2.9v-2.9H58V31.7z"/>
</svg>
