<?xml version="1.0" encoding="utf-8"?>
<!-- Generator: Adobe Illustrator 21.1.0, SVG Export Plug-In . SVG Version: 6.00 Build 0)  -->
<svg version="1.1" id="icons" xmlns="http://www.w3.org/2000/svg" xmlns:xlink="http://www.w3.org/1999/xlink" x="0px" y="0px"
	 viewBox="0 0 200 101.9" style="enable-background:new 0 0 200 101.9;" xml:space="preserve">
<style type="text/css">
	.st0{fill:#FFFFFF;}
</style>
<g>
	<rect x="4.5" y="38.3" class="st0" width="8.3" height="4.3"/>
	<rect x="4.5" y="44.5" class="st0" width="8.3" height="18.5"/>
	<path class="st0" d="M24.8,46.8c2.1-1.5,4.3-2.7,8.2-2.7c2.5,0,4.2,0.4,5.8,1.3c2.9,1.7,3.1,4.2,3.1,7.9v9.8h-8.4v-8.5
		c0-1.2-0.1-1.9-0.2-2.4c-0.6-2.1-2.5-2.8-4-2.8c-1,0-2,0.2-2.8,0.9c-1.5,1.2-1.6,2.8-1.6,4.5v8.3h-8.5V44.5h8.5V46.8z"/>
	<path class="st0" d="M53.9,45.3H57v4.8h-3v6.1c0.1,1.6,0.9,1.6,3.1,1.6v5.3h-5.4c-2.7-0.1-4.2-0.2-5.3-1.3c-0.8-1-0.8-2-0.8-2.9
		l0-1.3l0.1-7.5h-2.6v-4.8h2.7l0.1-6.3h8.1V45.3z"/>
	<path class="st0" d="M67.4,51.7c0.4-0.8,1.2-3,4.8-3c0.9,0,2.3,0.1,3.4,1.1c0.9,0.7,1.1,1.3,1.3,2H67.4z M85.8,54.9
		c-0.1-2.1-0.2-4.9-2.8-7.5c-2.9-2.9-7.2-3.5-11-3.5c-2.8,0-8.5,0.1-11.6,4.1c-1,1.2-1.9,3.2-1.9,5.6c0,4.4,2.6,7.2,6.2,8.7
		c2.3,0.9,4.8,1.2,7.3,1.2c1.6,0,6.1-0.2,9.4-2c2.6-1.4,3.5-3.2,4-4l-8.7-0.4c-0.5,0.5-0.9,0.8-1.7,1.2c-0.6,0.2-1.5,0.5-2.5,0.5
		c-1.6,0-4.5-0.7-5.2-4H85.8z"/>
	<path class="st0" d="M96.4,47.4c0.6-1,1.5-1.8,2.6-2.4c1.6-0.8,2.8-0.9,3.9-0.9v7.3c-0.6-0.1-1.3-0.1-2-0.1c-2.2,0-3.1,0.5-3.7,1
		c-0.8,0.7-0.8,1.6-0.9,2.5v8.3H88V44.5h8.4V47.4z"/>
	<path class="st0" d="M116.8,49.5c3.2-0.1,4.5,1.9,4.5,4.1c0,3.4-2.6,4.3-4.4,4.3c-2.7,0-4.3-1.9-4.3-4.3
		C112.6,52.2,113.4,49.6,116.8,49.5 M104.3,63.1h8.4v-1.6c1.3,0.8,3.2,2,6.6,2c4.7,0,10.5-2.4,10.5-9.7c0-6.3-4.4-9.7-9.9-9.7
		c-4,0-6,1.3-7.2,2.2v-7.8h-8.4V63.1z"/>
	<path class="st0" d="M132.4,38.3h8.3v4.3h-8.3V38.3z M132.5,44.5h8.3v18.5h-8.3V44.5z"/>
	<polygon class="st0" points="144.2,38.3 152.5,38.3 152.5,50.4 159,44.5 169.5,44.5 161.6,51.3 169.8,63.1 160.5,63.1 155.9,56.2 
		152.5,59.1 152.5,63.1 144.3,63.1 	"/>
	<path class="st0" d="M178.3,51.7c0.4-0.8,1.2-3,4.8-3c0.9,0,2.3,0.1,3.4,1.1c0.9,0.7,1.1,1.3,1.3,2H178.3z M196.7,54.9
		c-0.1-2.1-0.2-4.9-2.8-7.5c-2.9-2.9-7.2-3.5-11-3.5c-2.8,0-8.4,0.1-11.6,4.1c-1,1.2-1.9,3.2-1.9,5.6c0,4.4,2.6,7.2,6.2,8.7
		c2.3,0.9,4.8,1.2,7.3,1.2c1.6,0,6.1-0.2,9.4-2c2.6-1.4,3.5-3.2,4-4l-8.7-0.4c-0.5,0.5-0.9,0.8-1.7,1.2c-0.6,0.2-1.5,0.5-2.5,0.5
		c-1.6,0-4.5-0.7-5.2-4H196.7z"/>
	<path class="st0" d="M195.9,42.3h1c0.5,0,0.8,0.3,0.8,0.6c0,0.3-0.2,0.5-0.5,0.5v0c0.5,0.2,0.5,0.5,0.5,0.9h-0.4
		c0-0.5-0.1-0.7-0.6-0.7h-0.4v0.7h-0.4V42.3z M196.3,43.3h0.5c0.4,0,0.5-0.1,0.5-0.4c0-0.2-0.1-0.3-0.4-0.3h-0.5V43.3z M196.7,41.6
		c1,0,1.8,0.8,1.8,1.8c0,1-0.8,1.8-1.8,1.8c-1,0-1.8-0.8-1.8-1.8C194.9,42.4,195.7,41.6,196.7,41.6 M196.7,44.9
		c0.9,0,1.6-0.7,1.6-1.6c0-0.9-0.7-1.6-1.6-1.6c-0.9,0-1.6,0.7-1.6,1.6C195.1,44.2,195.8,44.9,196.7,44.9"/>
</g>
</svg>
