<?xml version="1.0" encoding="utf-8"?>
<!-- Generator: Adobe Illustrator 21.0.2, SVG Export Plug-In . SVG Version: 6.00 Build 0)  -->
<svg version="1.1" id="Layer_1" xmlns="http://www.w3.org/2000/svg" xmlns:xlink="http://www.w3.org/1999/xlink" x="0px" y="0px"
	 viewBox="0 0 200 101.9" style="enable-background:new 0 0 200 101.9;" xml:space="preserve">
<style type="text/css">
	.st0{fill:#0078D4;}
</style>
<title>logos</title>
<g>
	<path class="st0" d="M52.2,60.4c-2.5,0-5.1,0-7.6,0c-1,0-1.2-0.3-1.2-1.2c0.1-0.8,0.1-1.7,0-2.5c0-0.7,0.2-0.9,0.9-0.9
		c3.8,0,7.6,0,11.4,0c0.9,0,1.8-0.1,2.6-0.2c1.6-0.2,2.4-1.1,2.4-2.5c0-1.5-0.8-2.6-2.3-2.9c-1-0.2-2.1-0.2-3.1-0.2
		c-1.9-0.1-3.8,0-5.7-0.2c-5.4-0.4-7.3-5.8-5.9-9.8c1-2.9,3.3-4.6,6.6-4.6c4.8-0.1,9.5,0,14.3-0.1c0.6,0,0.9,0.2,0.8,0.8
		c0,0.8,0,1.6,0,2.4c0,1.5,0,1.5-1.4,1.5c-3.7,0-7.4,0-11,0c-0.3,0-0.7,0-1,0c-1.7,0.1-2.5,0.8-2.6,2.3c-0.1,1.7,0.7,2.7,2.5,2.8
		c1.4,0.1,2.9,0,4.3,0.1c1.2,0,2.5,0.1,3.7,0.1c5.8,0.3,7.2,4.7,6.8,8.5c-0.4,4-2.9,6.2-7,6.4C57.4,60.5,54.8,60.4,52.2,60.4
		C52.2,60.4,52.2,60.4,52.2,60.4z"/>
	<path class="st0" d="M150.6,46.3c-1.8,0-3.4,0-5.1,0c0,0.4,0,0.8,0,1.1c0,4,0,8,0,12c0,0.8-0.2,1.1-1,1c-1.1-0.1-2.2,0-3.3,0
		c-0.6,0-0.8-0.2-0.8-0.8c0-5.6,0-11.1,0-16.7c0-0.7,0.3-0.9,0.9-0.9c6.3,0,12.6,0,18.8,0c4.1,0.1,6.2,2,6.4,6.1
		c0.2,3.8,0,7.6,0.1,11.4c0,0.6-0.3,0.8-0.8,0.7c-1.2,0-2.4,0-3.5,0c-0.7,0-0.9-0.3-0.9-1c0-3.4,0-6.9,0-10.3c0-2.3-0.7-2.9-3-2.9
		c-0.8,0-1.5,0-2.4,0c0,0.5,0,0.8,0,1.2c0,4,0,8,0,12c0,0.8-0.2,1-1,1c-1.1-0.1-2.2-0.1-3.2,0c-0.8,0.1-1-0.3-1-1c0-4,0-8,0-11.9
		C150.6,47.1,150.6,46.7,150.6,46.3z"/>
	<path class="st0" d="M92.8,33.1c-1.3,0-2.6-0.1-3.9,0c-7.2,0.4-10.1-5.2-9.3-11.1c0.7-4.6,3.7-7.2,8.4-7.3c3.1-0.1,6.2,0,9.3,0
		c0.8,0,1,0.3,1,1c0,5.8,0,11.6-0.1,17.4c0,1.1-0.3,2.1-0.6,3.1c-0.9,2.4-2.9,3.2-5.2,3.2c-3.1,0.1-6.2,0-9.3,0
		c-1.2,0-1.9-0.7-1.9-2c0-2.5-0.3-2.1,2-2.1c2.6,0,5.3,0,7.9,0C92.6,35.3,93.1,34.7,92.8,33.1z M93,18.9c-1.7,0-3.3-0.1-4.9,0
		c-1.5,0.1-2.6,1.1-2.9,2.6c-0.2,1.5-0.3,3.1,0,4.6c0.2,1.6,1.4,2.6,3.1,2.7c1.5,0.1,3.1,0,4.7,0c0-0.4,0-0.6,0-0.9
		C93,25,93,22,93,18.9z"/>
	<path class="st0" d="M26.4,73c1.1,0,2.1,0,3.2,0c2.4,0,4.8,0,7.2,0c0.7,0,1.1,0.2,1,1c-0.1,0.9-0.1,1.8,0,2.7c0.1,0.8-0.3,1-1,1
		c-3.1,0-6.1,0-9.2,0c-0.4,0-0.7,0-1.1,0c-0.3,2.3,1,4.4,3.1,5c1.1,0.3,2.3,0.5,3.5,0.5c1.7,0.1,3.4,0,5.2,0c1.4,0,2,0.6,2,2.1
		c0,0.7,0,1.4,0,2.1c0,0.1-0.1,0.2-0.1,0.3c-0.1,0-0.1,0.1-0.2,0.1c-3.5,0-7,0.2-10.4-0.2c-5.1-0.5-7.7-3-8.9-8.1
		c-0.9-3.6-0.8-7.1,0.7-10.5c1.7-4,4.7-6.2,9.2-6.2c2.9,0,5.9,0,8.8,0c0.7,0,1,0.2,1,0.9c-0.1,1,0,2,0,2.9c0,0.7-0.2,0.9-0.9,0.9
		c-2.1,0-4.2,0-6.3,0c-0.6,0-1.3,0-1.9,0C27.8,67.7,26.2,69.5,26.4,73z"/>
	<path class="st0" d="M80.9,56.3c0-4.8,0-9.4,0-14.2c1.3,0,2.6-0.1,3.8,0c0.9,0.1,1.4,0.8,1.4,1.7c0,5.6,0.1,11.3,0,16.9
		c-0.1,3.7-2.4,5.8-6.3,6c-3.3,0.2-6.5,0.1-9.8,0.1c-0.5,0-0.7-0.2-0.7-0.7c0-0.4,0-0.9,0-1.3c0-1.4,0.7-2.1,2.1-2.1
		c2.2,0,4.3,0,6.5,0c0.4,0,0.8,0,1.2,0c1.6-0.1,1.9-0.5,1.8-2.3c-0.3,0-0.6,0-0.9,0c-1.4,0-2.8,0-4.3,0c-3.7-0.1-6-2.1-6.2-5.7
		c-0.2-4-0.1-8-0.1-11.9c0-0.2,0.4-0.6,0.6-0.6c1.3-0.1,2.6,0,3.8,0c0.7,0,0.7,0.5,0.7,1c0,2.9,0,5.8,0,8.7c0,0.9,0.1,1.8,0.2,2.6
		c0.2,1.4,0.7,1.9,2.1,1.9C78,56.3,79.4,56.3,80.9,56.3z"/>
	<path class="st0" d="M103.3,87.8c0,2,0,3.9,0,5.7c0,0.8-0.2,1.1-1,1c-1-0.1-2.1-0.1-3.1,0c-0.8,0-1.1-0.2-1-1c0.1-1.9,0-3.8,0-5.7
		c0-5.4,0-10.8,0-16.2c0-1.7,0.6-2.3,2.2-2.3c2.6,0,5.3,0,7.9,0c5.2,0,7.6,3.6,8.1,7c0.3,2,0.3,3.9-0.3,5.8
		c-1.1,3.2-3.7,5.3-7.1,5.5c-1.5,0.1-3,0-4.6,0.1C104.1,87.8,103.8,87.8,103.3,87.8z M103.4,83.7c1.1,0,2.1,0,3,0c0.5,0,1,0,1.5-0.1
		c2-0.4,3-1.7,3.3-4.1c0.3-2.5-0.5-4.5-2.2-5.4c-0.2-0.1-0.4-0.2-0.7-0.3c-1.7-0.1-3.3-0.2-5-0.3C103.4,77,103.4,80.2,103.4,83.7z"
		/>
	<path class="st0" d="M180,14.7c0-1.9,0-3.7,0-5.5c0-0.9,0.2-1.3,1.2-1.2c1,0.1,2,0.1,3,0c0.9-0.1,1.1,0.3,1.1,1.1
		c0,7,0,14.1,0,21.1c0,0.7,0.1,1.4,0,2.1c0,0.2-0.4,0.7-0.6,0.7c-3.4,0-6.9,0.2-10.3-0.1c-4.5-0.4-7.3-3.7-7.5-8.4
		c-0.1-1.4,0.1-2.8,0.5-4.2c1-3.4,3.9-5.5,7.5-5.6C176.4,14.7,178.1,14.7,180,14.7z M179.9,18.9c-1.5,0-2.9-0.1-4.2,0
		c-1.7,0.2-2.9,1.2-3.4,2.8c-0.4,1.5-0.4,2.9,0.1,4.4c0.5,1.4,1.4,2.5,2.9,2.6c1.5,0.2,3.1,0,4.7,0
		C179.9,25.5,179.9,22.3,179.9,18.9z"/>
	<path class="st0" d="M129.3,21.8c0.1-2.1-0.6-2.9-2.6-2.9c-2.3-0.1-4.7,0-7,0c-2.2,0-3.4-1.8-2.5-3.8c0.1-0.2,0.4-0.3,0.5-0.3
		c3.8,0,7.7-0.1,11.5,0.2c3,0.2,5.1,2.7,5.2,5.8c0.1,3.5,0.1,7,0.1,10.5c0,1.1-0.7,1.8-1.9,1.8c-3.8,0-7.6,0-11.4,0
		c-2.2,0-4-0.9-4.9-3.1c-0.9-2.2-0.6-4.4,0.8-6.3c1.1-1.5,2.8-1.8,4.5-1.8c2.1-0.1,4.3,0,6.4,0C128.5,21.8,128.8,21.8,129.3,21.8z
		 M129.3,26c-2.3,0-4.5,0-6.7,0c-0.9,0-1.3,0.6-1.4,1.4c-0.1,0.9,0.5,1.4,1.2,1.4c2.3,0.1,4.5,0,6.9,0C129.3,27.9,129.3,27,129.3,26
		z"/>
	<path class="st0" d="M94.9,60.4c-1.9,0-3.8,0-5.8,0c-0.7,0-0.9-0.2-0.9-0.9c0-0.7,0.1-1.5,0-2.2c-0.1-0.8,0.3-1,1.1-1
		c3.3,0,6.7,0,10,0c0.7,0,1.2-0.3,1.3-1.1c0.1-0.9-0.2-1.6-1.1-1.8c-0.4-0.1-0.9-0.1-1.3-0.1c-1.9-0.1-3.7,0-5.6-0.2
		c-2.4-0.2-4-1.8-4.5-4.2c-0.5-2.3,0.4-4.9,2.2-6c0.8-0.5,1.8-0.7,2.7-0.8c3.7-0.1,7.4,0,11.1-0.1c0.6,0,0.8,0.2,0.8,0.8
		c0,0.8-0.1,1.6,0,2.3c0.1,0.8-0.2,1-1,1c-2.5,0-5.1,0-7.6,0c-0.5,0-0.9,0-1.4,0c-0.8,0.1-1.6,0.2-1.6,1.3c0,1,0.4,1.7,1.5,1.7
		c1.4,0.1,2.8,0,4.2,0.1c0.8,0,1.6,0.1,2.4,0.2c3.2,0.7,4.8,3.3,4.1,6.4c-0.7,2.9-2.4,4.3-5.4,4.4C98.5,60.4,96.7,60.4,94.9,60.4
		C94.9,60.4,94.9,60.4,94.9,60.4z"/>
	<path class="st0" d="M175.1,60.4c-1.9,0-3.7,0-5.6,0c-0.8,0-1.2-0.2-1.1-1.1c0.1-0.7,0.1-1.4,0-2c-0.1-0.8,0.2-1.1,1-1.1
		c2.6,0,5.2,0,7.8,0c0.7,0,1.4,0,2.1,0c1.1-0.1,1.5-0.4,1.5-1.4c0-0.9-0.5-1.5-1.5-1.6c-1.3-0.1-2.7,0-4,0c-0.8,0-1.7-0.1-2.5-0.2
		c-2.9-0.4-4.7-2.8-4.6-6c0.1-2.8,2.1-4.9,5-5c1.9-0.1,3.8,0,5.7,0c1.8,0,3.6,0,5.5,0c0.3,0,0.7,0.2,0.8,0.4
		c0.8,2.1-0.3,3.7-2.6,3.7c-2.5,0-5,0-7.5,0c-0.8,0-1.5,0.3-1.5,1.3c0,1,0.4,1.5,1.3,1.7c0.4,0.1,0.8,0.1,1.2,0.1c1.2,0,2.4,0,3.6,0
		c0.7,0,1.3,0.1,2,0.2c3.2,0.7,4.8,3.3,4.1,6.4c-0.7,2.9-2.4,4.3-5.4,4.4C178.7,60.4,176.9,60.4,175.1,60.4
		C175.1,60.4,175.1,60.4,175.1,60.4z"/>
	<path class="st0" d="M88.5,69.2c2,0,5.1,1.2,6.8,4.8c1.6,3.6,1.7,7.2-0.7,10.5c-2.1,2.9-5.3,3.6-8.6,3.5c-2.3-0.1-4.5-0.7-6.2-2.3
		c-2.3-2.2-2.9-5-2.7-8C77.5,72.4,81.1,69.2,88.5,69.2z M91.1,78.4c-0.1-0.7-0.2-1.6-0.4-2.4c-0.5-1.9-1.8-2.7-4-2.7
		c-2.1,0-3.5,0.9-4,2.7c-0.5,1.8-0.5,3.5,0,5.3c0.3,1,0.9,1.8,1.9,2.3c3,1.5,5.9-0.1,6.4-3.4C91,79.7,91,79.1,91.1,78.4z"/>
	<path class="st0" d="M34.8,18.9c0,4.1,0,8,0,11.9c0,2.3,0,2.3-2.3,2.3c-1,0-2.2,0.2-2.8-0.3c-0.5-0.5-0.2-1.8-0.2-2.7
		c0-4.7,0-9.4,0-14.2c0-0.9,0.3-1.2,1.2-1.2c3.2,0.1,6.3,0,9.5,0c4.1,0.1,6.4,2.3,6.4,6.4c0,3.6,0,7.3,0,10.9c0,0.7-0.2,1-1,1
		c-1.1-0.1-2.2,0-3.3,0c-0.7,0-0.9-0.2-0.9-0.9c0-3.5,0-7,0-10.5c0-2.2-0.5-2.7-2.7-2.7C37.5,18.9,36.2,18.9,34.8,18.9z"/>
	<path class="st0" d="M53.5,83.7c0-3.6,0-7.1,0-10.6c0-3.4,0.2-3.6,3.6-3.6c0.2,0,0.3,0,0.5,0c0.9-0.1,1.2,0.2,1.2,1.1
		c-0.1,2.8,0,5.7,0,8.5c0,2.6,0,5.1,0,7.7c0,0.8-0.2,1-1,1c-3.3,0-6.6,0-9.9,0c-3.9-0.1-6.2-2.2-6.3-6.1c-0.1-3.8,0-7.6,0-11.3
		c0-0.6,0.2-0.8,0.8-0.8c0.8,0,1.6,0,2.4,0c1.2,0,1.9,0.7,1.9,2c0,3.1,0,6.2,0,9.3c0,2.3,0.7,2.9,3,2.9
		C50.8,83.7,52.1,83.7,53.5,83.7z"/>
	<path class="st0" d="M127.9,53.3c0.2,1.9,1.1,2.9,2.9,2.9c2.1,0.1,4.2,0.1,6.4,0c0.9,0,1.3,0.2,1.2,1.2c-0.1,0.7,0,1.5,0,2.2
		c0,0.3-0.4,0.7-0.6,0.7c-2.8,0-5.5,0.2-8.3-0.1c-3.6-0.3-6.1-2.8-7-6.3c-0.5-2.1-0.5-4.1,0.2-6.2c1.2-3.5,3.7-5.5,7.4-5.7
		c2.5-0.1,5,0,7.5,0c0.7,0,0.9,0.3,0.9,0.9c0,0.8,0,1.6,0,2.3c0,0.7-0.3,0.9-1,0.9c-2.2,0-4.5,0-6.7,0c-1.9,0.1-2.7,0.9-2.8,2.9
		c2.4,0,4.8,0,7.3,0c1.5,0,1.5,0,1.5,1.5c0,2.6,0,2.6-2.7,2.6C132,53.3,130,53.3,127.9,53.3z"/>
	<path class="st0" d="M124.1,76.6c2.2,0,4.4,0.1,6.7,0c1,0,1.4,0.3,1.3,1.3c-0.1,0.9,0,1.8,0,2.8c-2.7,0-5.3,0-7.9,0
		c0,1.8,1,2.9,2.7,3c2.2,0.1,4.3,0.1,6.5,0.1c1,0,1.3,0.3,1.2,1.3c-0.1,0.7,0,1.4,0,2.1c0,0.3-0.4,0.7-0.6,0.7
		c-2.8,0-5.6,0.2-8.4-0.1c-3.4-0.4-5.7-2.5-6.7-5.8c-0.6-1.9-0.7-3.9-0.2-5.8c0.9-4,3.4-6.3,7.6-6.6c2.5-0.2,5.1,0,7.6-0.1
		c0.6,0,0.8,0.2,0.8,0.8c0,0.8,0,1.6,0,2.4c0,0.7-0.3,0.9-1,0.9c-2.2,0-4.3,0-6.5,0C125,73.6,124.2,74.4,124.1,76.6z"/>
	<path class="st0" d="M155.7,21.8c2.2,0,4.2,0,6.3,0c1.3,0,1.6,0.3,1.6,1.6c0,2.5,0,2.5-2.5,2.5c-1.8,0-3.6,0-5.4,0
		c0.1,1.9,1.1,2.9,2.9,2.9c1.7,0.1,3.4,0,5.1,0c1.8,0,2.4,0.6,2.4,2.4c0,0.3,0.1,0.7,0,1c-0.1,0.3-0.4,0.7-0.6,0.7
		c-2.7,0-5.4,0.2-8.1-0.1c-3.8-0.3-6.3-2.8-7.2-6.5c-0.5-2.1-0.4-4.2,0.3-6.3c1.2-3.4,3.7-5.3,7.2-5.5c2.5-0.1,5.1,0,7.6,0
		c0.7,0,0.9,0.2,0.9,0.9c0,0.4,0,0.8,0,1.2c0,1.3-0.8,2.1-2.1,2.1c-1.8,0-3.6,0-5.5,0C156.6,18.9,155.9,19.7,155.7,21.8z"/>
	<path class="st0" d="M68.2,21.8c2.1,0,4.2,0,6.2,0c1.4,0,1.6,0.2,1.6,1.6c0,2.6,0,2.6-2.5,2.6c-1.7,0-3.4,0-5.1,0
		c-0.1,0-0.1,0-0.2,0.1c-0.2,1.2,0.5,2.3,1.8,2.6c0.7,0.2,1.5,0.2,2.3,0.2c1.4,0,2.8,0,4.3,0c1.2,0,1.9,0.7,1.9,2c0,0.7,0,1.3,0,2
		c-0.2,0-0.4,0.1-0.6,0.1c-2.5,0-4.9,0.1-7.4,0c-4.5-0.1-7.8-3.4-8.2-7.8c-0.2-2.2,0-4.4,1.1-6.4c1.4-2.6,3.6-3.9,6.4-4.1
		c2.6-0.1,5.3-0.1,7.9,0c0.2,0,0.6,0.2,0.7,0.4c0.9,2-0.3,3.8-2.5,3.8c-1.7,0-3.4,0-5.1,0C69,19,68.1,19.9,68.2,21.8z"/>
	<path class="st0" d="M56.6,15.5c1.3,0,2.5,0,3.7,0c0.8,0,1,0.3,1,1c0,0.4,0,0.9,0,1.3c-0.1,1.1-0.8,1.8-1.9,1.8c-0.9,0-1.7,0-2.7,0
		c0,2.6-0.1,5.1,0,7.6c0,1.1,0.8,1.6,1.9,1.7c2.2,0.2,3.2,1.6,2.6,3.7c-0.1,0.2-0.4,0.4-0.6,0.4c-1.6,0-3.3,0.1-4.8-0.1
		c-2.6-0.3-4.2-2.2-4.3-4.8c-0.1-2.5-0.1-4.9-0.1-7.4c0-0.3,0-0.7,0-0.9c-0.2-0.1-0.2-0.1-0.3-0.1c-2.6-0.2-3.3-1.1-2.8-3.6
		c0-0.2,0.4-0.5,0.7-0.5c0.8-0.1,1.5,0,2.4,0c0-1.7,0-3.2,0-4.8c0-0.8,0.3-1.1,1.1-1.1c1.1,0.1,2.2,0,3.3,0c0.7,0,0.9,0.2,0.9,0.9
		C56.5,12.1,56.6,13.8,56.6,15.5z"/>
	<path class="st0" d="M139.1,15.5c0-1.7,0-3.3,0-4.8c0-0.8,0.2-1.1,1-1.1c1.1,0.1,2.2,0.1,3.2,0c0.7,0,1,0.2,1,1
		c-0.1,1.3,0,2.6,0,3.8c0,0.3,0,0.7,0.1,1.1c1.3,0,2.5,0,3.7,0c0.6,0,0.9,0.2,0.9,0.9c0,0.4,0,0.9,0,1.3c0,1.2-0.7,1.9-2,2
		c-0.8,0-1.7,0-2.7,0c0,2,0,3.9,0,5.8c0,0.2,0,0.4,0,0.6c0.1,2.5,0.3,2.6,2.8,2.9c1.1,0.1,1.8,0.8,1.8,1.9c0,2.7,0.3,2.2-2.1,2.2
		c-1.2,0-2.5,0-3.7-0.2c-2-0.3-3.6-1.9-3.8-4c-0.2-2.5-0.2-5.1-0.2-7.7c0-0.5,0-0.9,0-1.4c-0.2-0.1-0.3-0.1-0.4-0.1
		c-2.5-0.1-3.3-1.2-2.8-3.6c0-0.2,0.5-0.5,0.7-0.6C137.4,15.5,138.2,15.5,139.1,15.5z"/>
	<path class="st0" d="M110.8,48.3c-0.8,0-1.4,0-1.9,0c-0.8,0-1.2-0.4-1.2-1.2c0-0.8-0.1-1.6,0-2.4c0-0.3,0.4-0.7,0.7-0.7
		c0.7-0.1,1.5,0,2.4,0c0-1.4,0-2.7,0-4c0-2.2-0.2-1.9,2-1.9c0.8,0,1.6,0,2.3,0c0.7,0,1,0.2,1,1c0,1.6,0,3.2,0,4.9c1.2,0,2.4,0,3.6,0
		c0.8,0,1.1,0.2,1.1,1c0,0.7,0,1.3,0,2c0,0.9-0.4,1.3-1.3,1.3c-1,0-2.1,0-3.2,0c0,2.3-0.1,4.5,0,6.7c0.1,1,1,1.3,1.9,1.4
		c2.3,0.2,3.1,1.4,2.5,3.6c0,0.2-0.3,0.5-0.5,0.5c-1.7,0-3.4,0.1-5-0.1c-2.5-0.3-4-2.1-4.1-4.6c-0.1-2-0.1-4-0.1-6.1
		C110.8,49.2,110.8,48.8,110.8,48.3z"/>
	<path class="st0" d="M105.8,19c0,0.3,0,0.7,0,1.1c0,4,0,8,0,11.9c0,0.8-0.2,1.1-1.1,1.1c-1.1-0.1-2.3,0-3.4,0
		c-0.5,0-0.7-0.2-0.7-0.7c0-5.6,0-11.3,0-16.9c0-0.2,0.4-0.7,0.5-0.7c3.3,0,6.5-0.1,9.8,0.2c2.5,0.2,3.8,1.7,4.2,4.2
		c0.1,0.7,0.2,1.4,0.1,2.1c0,1.2-0.8,1.9-1.9,1.9c-0.8,0-1.6,0-2.3,0c-0.6,0-0.9-0.2-0.9-0.8c0,0,0-0.1,0-0.1
		C110.3,19.6,109.7,18.5,105.8,19z"/>
	<path class="st0" d="M66.3,73.6c0,4.7,0,9.4,0,14.2c-1.7,0-3.2,0-4.8,0c-0.1,0-0.4-0.5-0.4-0.8c0-2,0-4,0-6c0-3.5,0-7,0-10.5
		c0-0.8,0.2-1.1,1-1c3,0.1,6,0,9,0.2c2.8,0.2,4.2,1.8,4.5,4.5c0,0.2,0.1,0.4,0.1,0.6c0.2,2.4-0.4,3.1-2.8,3.1c-2.1,0-2.1,0-2.2-2
		c-0.1-1.5-0.7-2.1-2.2-2.3C67.8,73.5,67.1,73.6,66.3,73.6z"/>
	<path class="st0" d="M21.4,20.5c0-3.8,0-7.6,0-11.4c0-0.8,0.2-1.1,1.1-1.1c1.2,0.1,2.4,0,3.5,0c0.7,0,1,0.2,1,0.9
		c0,7.8,0,15.5,0,23.3c0,0.6-0.2,0.9-0.9,0.9c-1.2,0-2.5-0.1-3.7,0c-0.8,0-1-0.3-1-1C21.4,28.2,21.4,24.4,21.4,20.5
		C21.4,20.5,21.4,20.5,21.4,20.5z"/>
</g>
</svg>
