<?xml version="1.0" encoding="utf-8"?>
<!-- Generator: Adobe Illustrator 21.1.0, SVG Export Plug-In . SVG Version: 6.00 Build 0)  -->
<svg version="1.1" id="icons" xmlns="http://www.w3.org/2000/svg" xmlns:xlink="http://www.w3.org/1999/xlink" x="0px" y="0px"
	 viewBox="0 0 200 101.9" style="enable-background:new 0 0 200 101.9;" xml:space="preserve">
<style type="text/css">
	.st0{fill:#FFFFFF;}
	.st1{fill:none;}
	.st2{fill:url(#SVGID_1_);}
	.st3{fill:url(#SVGID_2_);}
	.st4{fill:#007BC3;}
</style>
<g>
	<path class="st0" d="M194.7,54.6c-1.3,0-2.3-1-2.3-2.3c0-1.4,1.1-2.3,2.3-2.3c1.2,0,2.3,0.9,2.3,2.3
		C197,53.7,195.9,54.6,194.7,54.6 M194.7,50.4c-1,0-1.8,0.8-1.8,1.9c0,1.1,0.7,1.9,1.8,1.9c1,0,1.8-0.8,1.8-1.9
		C196.5,51.2,195.7,50.4,194.7,50.4 M194.3,53.6h-0.4v-2.6h1c0.6,0,0.9,0.2,0.9,0.7c0,0.5-0.3,0.7-0.7,0.7l0.7,1.1h-0.5l-0.7-1.1
		h-0.4V53.6z M194.7,52.2c0.3,0,0.6,0,0.6-0.4c0-0.3-0.3-0.3-0.6-0.3h-0.5v0.8H194.7z"/>
	<path class="st0" d="M82.2,35.2c-1.3,0-2.2-1-2.2-2.2c0-1.3,1-2.2,2.2-2.2c1.2,0,2.2,0.9,2.2,2.2C84.3,34.3,83.3,35.2,82.2,35.2
		 M82.2,31.2c-1,0-1.7,0.8-1.7,1.8c0,1,0.7,1.8,1.7,1.8c1,0,1.7-0.8,1.7-1.8C83.9,31.9,83.1,31.2,82.2,31.2 M81.7,34.3h-0.4v-2.5
		h0.9c0.6,0,0.9,0.2,0.9,0.7c0,0.4-0.3,0.6-0.6,0.7l0.7,1.1h-0.5l-0.6-1.1h-0.4V34.3z M82.2,32.9c0.3,0,0.6,0,0.6-0.4
		c0-0.3-0.3-0.3-0.5-0.3h-0.5v0.7H82.2z"/>
	<path class="st0" d="M43.3,45.6l-0.4-0.4l0.3-0.4l1.9-2.2v-3.2c-0.7-0.8-1.2-1.9-1.2-3.3v0c0-1.4,0.4-2.6,1.2-3.5v-1.7H40v16.9h5.1
		v-0.8C44.4,46.5,43.8,46.1,43.3,45.6"/>
	<path class="st0" d="M56.2,45.6l-0.4-0.4l0.3-0.4l2.1-2.5c-0.1-3-2.5-4.2-6.2-5.1c-2.3-0.5-2.9-0.9-2.9-1.6v0
		c0-0.6,0.6-1.1,1.7-1.1c1.5,0,3.2,0.6,4.7,1.6l1.6-3.8c-1.7-1.1-3.7-1.7-6.2-1.7c-4,0-6.5,2.3-6.5,5.4v0c0,3.4,2.8,4.5,6.3,5.3
		c2.3,0.5,2.8,0.9,2.8,1.6V43c0,0.7-0.7,1.1-1.9,1.1c-1.9,0-3.8-0.7-5.4-2l-2.6,3.1c2.1,1.8,4.9,2.8,7.9,2.8c2.3,0,4.2-0.7,5.4-1.8
		C56.7,46,56.4,45.8,56.2,45.6"/>
	<path class="st0" d="M73.4,30.8l-7.1,16.9h4.9l1.2-3h6.5l1.2,3h5l-7.1-16.9H73.4z M73.7,41.1l1.9-4.8l1.9,4.8H73.7z"/>
	<path class="st0" d="M65.8,47.2l3.5-8.4c-1.1-0.7-2.6-1.2-4.4-1.6c-2.3-0.5-2.9-0.9-2.9-1.6v0c0-0.6,0.6-1.1,1.7-1.1
		c1.5,0,3.2,0.6,4.7,1.6l1.6-3.8c-1.7-1.1-3.7-1.7-6.2-1.7c-4,0-6.5,2.2-6.5,5.4v0c0,3.4,2.8,4.5,6.3,5.3c2.3,0.5,2.8,0.9,2.8,1.6
		V43c0,0.7-0.7,1.1-1.9,1.1c-1.9,0-3.8-0.7-5.4-2l-2.6,3.1c2.1,1.8,5,2.6,8,2.6c0.4,0,0.7,0,1.1-0.1L65.8,47.2z"/>
	<path class="st0" d="M39.9,49.9h4.8V67h-4.8V49.9z"/>
	<path class="st0" d="M46.6,49.9H51L58,59v-9.1h4.7V67h-4.1l-7.3-9.4V67h-4.7V49.9z"/>
	<path class="st0" d="M68.8,54.1h-5.1v-4.2h15v4.2h-5.1v13h-4.8V54.1z"/>
	<path class="st0" d="M79.6,49.9h13.8v4h-9.1v2.6h8.2v3.7h-8.2V63h9.2v4H79.6V49.9z"/>
	<path class="st1" d="M102.6,54h-3.1v4.1h3.2c1.6,0,2.5-0.8,2.5-2v0C105.2,54.7,104.1,54,102.6,54z"/>
	
		<linearGradient id="SVGID_1_" gradientUnits="userSpaceOnUse" x1="-296.9166" y1="355.8243" x2="-296.2611" y2="355.8243" gradientTransform="matrix(-162.7788 -6.5915 -6.5757 162.352 -45883.2852 -59664.6992)">
		<stop  offset="0" style="stop-color:#B1B7BB"/>
		<stop  offset="0.1781" style="stop-color:#CCD0D2"/>
		<stop  offset="0.4823" style="stop-color:#F6F7F7"/>
		<stop  offset="0.6619" style="stop-color:#E1E4E5"/>
		<stop  offset="0.9944" style="stop-color:#B1B7BB"/>
		<stop  offset="1" style="stop-color:#B1B7BB"/>
	</linearGradient>
	<path class="st2" d="M105,67l-0.9-1.4c-7.2,4-15.9,6.1-28.2,9.1C44.2,82.4,17.7,73.6,13.8,57c-1.7-7.3,3.8-21.1,11.3-26
		C9.3,41.4-0.3,57.5,2,67.7c3.5,15.7,37.5,23.8,74.3,12.2c14.2-4.5,19.7-6.8,29-12.9H105z"/>
	
		<linearGradient id="SVGID_2_" gradientUnits="userSpaceOnUse" x1="-294.804" y1="358.1174" x2="-294.1479" y2="358.1174" gradientTransform="matrix(162.1219 6.5641 6.6132 -163.5624 45450.0273 60536.6133)">
		<stop  offset="0" style="stop-color:#B1B7BB"/>
		<stop  offset="0.1781" style="stop-color:#CCD0D2"/>
		<stop  offset="0.4823" style="stop-color:#F6F7F7"/>
		<stop  offset="0.6619" style="stop-color:#E1E4E5"/>
		<stop  offset="0.9944" style="stop-color:#B1B7BB"/>
		<stop  offset="1" style="stop-color:#B1B7BB"/>
	</linearGradient>
	<path class="st3" d="M121.5,49.7c7-7.4,10-14.7,8.5-21.9c-2.1-9.7-15.6-16.3-34.1-17.1c-1.2,0-2.4-0.1-3.6-0.1
		c-9.9,0-21,1.6-32.4,5.4c-14.9,4.8-27.2,12.2-36.2,20.4l0.7-0.4c7.4-5.1,18.4-9.8,34.2-13.4c30.1-6.7,56.6-0.5,60.2,15.6
		c0.9,4,0.3,7.8-1.4,11.5c0.7-0.1,1.4-0.2,2.1-0.2C120.2,49.6,120.9,49.6,121.5,49.7z"/>
	<path class="st0" d="M127.8,49.9h4.7v13h8.3V67h-13V49.9z"/>
	<path class="st0" d="M141.7,49.9h13.8v4h-9.1v2.6h8.2v3.7h-8.2V63h9.2v4h-13.9V49.9z"/>
	<path class="st0" d="M162.8,49.8h4.6l7.3,17.3h-5.1l-1.2-3.1h-6.6l-1.2,3.1h-5L162.8,49.8z M166.9,60.3l-1.9-4.8l-1.9,4.8H166.9z"
		/>
	<path class="st0" d="M175.1,49.9h4.4l7.1,9.1v-9.1h4.7V67h-4.1l-7.3-9.4V67h-4.7V49.9z"/>
	<rect x="110.8" y="72.8" class="st4" width="80.4" height="18.4"/>
	<g>
		<path class="st0" d="M116.5,78h1.2l2.4,4.6V78h1.3v7.9h-1.1l-2.5-4.8v4.8h-1.3V78z"/>
		<path class="st0" d="M122.5,82.1v-0.1c0-2.4,1.2-4.1,2.9-4.1c1.7,0,2.9,1.7,2.9,4V82c0,2.4-1.2,4.1-2.9,4.1
			C123.7,86.1,122.5,84.4,122.5,82.1z M126.9,82L126.9,82c0-1.6-0.6-2.6-1.5-2.6c-0.9,0-1.5,1-1.5,2.5V82c0,1.6,0.6,2.6,1.5,2.6
			C126.3,84.6,126.9,83.6,126.9,82z"/>
		<path class="st0" d="M129.4,78h2.4c0.7,0,1.3,0.3,1.7,0.8c0.3,0.4,0.5,1.1,0.5,1.8v0c0,1.2-0.5,2-1.2,2.4l1.4,3h-1.5l-1.2-2.6
			h-0.8v2.6h-1.3V78z M131.7,81.9c0.7,0,1-0.5,1-1.2v0c0-0.8-0.4-1.2-1.1-1.2h-0.9v2.4H131.7z"/>
		<path class="st0" d="M136.3,79.5h-1.6V78h4.5v1.5h-1.6v6.4h-1.3V79.5z"/>
		<path class="st0" d="M140.1,78h1.3v3.2h2.1V78h1.3v7.9h-1.3v-3.2h-2.1v3.2h-1.3V78z"/>
		<path class="st0" d="M149.9,78h1.3l2.3,8h-1.4l-0.5-1.7h-2.2l-0.5,1.7h-1.3L149.9,78z M151.2,82.8l-0.7-2.6l-0.7,2.6H151.2z"/>
		<path class="st0" d="M154.3,78h1.4l1.4,3.2l1.4-3.2h1.4v7.9h-1.3v-5.1l-1.5,3.3h0l-1.5-3.3v5.1h-1.3V78z"/>
		<path class="st0" d="M161.3,78h4.1v1.5h-2.8v1.7h2.5v1.5h-2.5v1.8h2.8v1.5h-4.1V78z"/>
		<path class="st0" d="M166.6,78h2.4c0.7,0,1.3,0.3,1.7,0.8c0.3,0.4,0.5,1.1,0.5,1.8v0c0,1.2-0.5,2-1.2,2.4l1.4,3h-1.5l-1.2-2.6
			h-0.8v2.6h-1.3V78z M168.9,81.9c0.7,0,1-0.5,1-1.2v0c0-0.8-0.4-1.2-1.1-1.2h-0.9v2.4H168.9z"/>
		<path class="st0" d="M172.4,78h1.3v7.9h-1.3V78z"/>
		<path class="st0" d="M174.8,82v-0.1c0-2.4,1.2-4,2.9-4c0.9,0,1.6,0.4,2,1.1l-0.8,1.3c-0.4-0.5-0.8-0.8-1.3-0.8
			c-0.9,0-1.5,1-1.5,2.5v0c0,1.6,0.7,2.5,1.5,2.5c0.5,0,0.9-0.3,1.3-0.8l0.8,1.2c-0.6,0.7-1.2,1.2-2.2,1.2
			C175.9,86.1,174.8,84.5,174.8,82z"/>
		<path class="st0" d="M182.6,78h1.3l2.3,8h-1.4l-0.5-1.7h-2.2l-0.5,1.7h-1.3L182.6,78z M183.9,82.8l-0.7-2.6l-0.7,2.6H183.9z"/>
	</g>
	<path class="st0" d="M110.5,58.5L110.5,58.5c0-5,3.8-9,9-9c3.5,0,5.8,1.5,7.3,3.6l-3.6,2.8c-1-1.2-2.1-2-3.7-2
		c-2.4,0-4.1,2.1-4.1,4.6v0c0,2.6,1.7,4.6,4.1,4.6c1.8,0,2.8-0.8,3.9-2.1l3.6,2.5c-1.6,2.2-3.8,3.9-7.6,3.9
		C114.5,67.4,110.5,63.6,110.5,58.5z"/>
	<path class="st0" d="M94.7,49.9h8.1c2.6,0,4.4,0.7,5.6,1.8c1,1,1.5,2.3,1.5,4v0c0,2.6-1.4,4.4-3.5,5.3l4.1,6H105l-3.5-5.2h-2.1V67
		h-4.7V49.9z M102.6,58.1c1.6,0,2.5-0.8,2.5-2v0c0-1.4-1-2.1-2.6-2.1h-3.1v4.1H102.6z"/>
</g>
</svg>
