<?xml version="1.0" encoding="utf-8"?>
<!-- Generator: Adobe Illustrator 21.1.0, SVG Export Plug-In . SVG Version: 6.00 Build 0)  -->
<svg version="1.1" id="icons" xmlns="http://www.w3.org/2000/svg" xmlns:xlink="http://www.w3.org/1999/xlink" x="0px" y="0px"
	 viewBox="0 0 200 101.9" style="enable-background:new 0 0 200 101.9;" xml:space="preserve">
<style type="text/css">
	.st0{fill:#FFFFFF;}
</style>
<path class="st0" d="M63.5,71.7c-2.9,8.6-9.1,13.5-17.5,15.4C36.7,89.2,28.1,87.8,21,81c-5-4.8-6.4-11.1-6.4-17.9
	c6.7,0,13.2,0,19.7,0c0.3,1.7,0.5,3.3,1,4.9c0.8,2.4,2.5,3.6,4.9,3.6c2.5,0,4.3-1.2,4.9-3.7c0.5-1.9,0.7-3.8,0.7-5.7
	c0.1-15.5,0-30.9,0-46.4c0-0.7,0-1.4,0-2.3c6.3,0,12.3,0,18.7,0c0,4.2,0,8.4,0,13.1c8-9.4,17.6-14.2,29.4-14.5
	c11.8-0.3,21.7,3.8,30.2,12.8c0-4,0-7.6,0-11.3c6.3,0,12.5,0,18.8,0c0,10.8,0,21.6,0,32.4c0.1,0.1,0.3,0.1,0.4,0.2
	c0.3-0.5,0.7-1,1-1.5c6.2-9.9,12.4-19.7,18.5-29.6c0.8-1.3,1.6-1.7,3.1-1.7c5.7,0.1,11.4,0,17.5,0c-0.5,0.8-0.8,1.4-1.1,1.9
	c-7.3,11-14.6,22-22,33c-0.8,1.2-0.9,2.1,0,3.3c7.7,10.9,15.4,21.8,23.1,32.7c0.5,0.7,1,1.4,1.6,2.3c-0.7,0.1-1.2,0.1-1.7,0.1
	c-6.2,0-12.4,0-18.6,0c-1.2,0-1.8-0.4-2.4-1.4c-5.9-9.5-11.9-18.9-17.9-28.3c-0.4-0.6-0.7-1.1-1.4-2.1c0,10.8,0,21.2,0,31.6
	c-6.4,0-12.6,0-19,0c0-3.6,0-7.2,0-11.3c-8.8,9.3-19.1,13.3-31.4,12.7C80.4,87.2,70.8,81.6,63.5,71.7z M124.1,41c0,0-6.2,0-9.2,0
	c-1.6,0-2.3-0.3-3-1.7c-3.3-6.5-8.4-10.6-16-10.9c-7.8-0.3-13.8,3-17.6,9.8C74,46.3,74.2,54.6,79,62.4c7.3,12,23.7,12.5,31.4,0.8
	c2.2-3.4,4.5-4,8.1-4h5.7c0.1,4.4-0.1,9.2,0,13.6c0,0.6,0,1.2,0,1.8c4.2-4.5,6.9-9.5,8.3-15.4c-1.5,0-8.3,0-8.3,0
	S124.2,41.5,124.1,41c2.8,0,5.4,0,8.3,0c-1.2-6-4.2-11.1-8.3-15.6V41z M63.5,71c1.8-14.5,0.6-29.1,1.1-44.1
	C54.4,39.1,54.1,59,63.5,71z M142.8,54.6c0-2.9,0-5.3,0-7.4c-1.3,1.2-2.7,2.4-4.1,3.6C140.1,52.1,141.3,53.3,142.8,54.6z"/>
</svg>
