<?xml version="1.0" encoding="utf-8"?>
<!-- Generator: Adobe Illustrator 21.1.0, SVG Export Plug-In . SVG Version: 6.00 Build 0)  -->
<svg version="1.1" id="icons" xmlns="http://www.w3.org/2000/svg" xmlns:xlink="http://www.w3.org/1999/xlink" x="0px" y="0px"
	 viewBox="0 0 200 101.9" style="enable-background:new 0 0 200 101.9;" xml:space="preserve">
<style type="text/css">
	.st0{fill:#FFFFFF;}
	.st1{fill:#0899C6;}
</style>
<path class="st0" d="M151,16.8c0.1,0,0.2,0,0.3,0c2.2,0,4.4,0,6.6,0c0.3,0,0.4,0.1,0.5,0.3c2.5,5,5,9.9,7.4,14.9
	c0.1,0.1,0.1,0.2,0.2,0.3c0-5.1-0.1-10.3-0.1-15.5c0.2,0,0.3,0,0.4,0c1.9,0,3.9,0,5.8,0c0.3,0,0.4,0.1,0.4,0.4c0,9.2,0,18.4,0,27.7
	c0,0.1,0,0.2,0,0.4c-0.2,0-0.3,0-0.4,0c-2.1,0-4.3,0-6.4,0c-0.3,0-0.5-0.1-0.6-0.4c-2.5-5-4.9-9.9-7.4-14.9c0-0.1-0.1-0.2-0.2-0.3
	c0,0.1,0,0.2,0,0.4c0.2,4.9,0.1,9.8,0.2,14.7c0,0.4,0,0.4-0.4,0.4c-1.9,0-3.8,0-5.7,0c-0.1,0-0.2,0-0.4,0
	C151,35.7,151,26.3,151,16.8z"/>
<path class="st0" d="M109.4,32.3c0-5.2-0.1-10.3-0.1-15.5c2.2,0,4.4,0,6.5,0c0,9.4,0,18.9,0,28.4c-0.1,0-0.3,0-0.4,0
	c-2.2,0-4.3,0-6.5,0c-0.3,0-0.4-0.1-0.5-0.3c-2.5-5-4.9-9.9-7.4-14.9c-0.1-0.1-0.1-0.2-0.2-0.3c0,5.2,0.1,10.3,0.1,15.5
	c-2.2,0-4.4,0-6.5,0c0-9.4,0-18.9,0-28.4c0.1,0,0.3,0,0.4,0c2.2,0,4.3,0,6.5,0c0.3,0,0.4,0.1,0.5,0.3c2.5,5,4.9,9.9,7.4,14.9
	C109.3,32.1,109.4,32.2,109.4,32.3z"/>
<path class="st0" d="M189.5,35.3c-1.2,0-2.3,0-3.4,0c0-2,0-4,0-5.9c3.4,0,6.8,0,10.3,0c0,0.1,0,0.3,0,0.4c0,4.1,0,8.1,0,12.2
	c0,0.3-0.1,0.4-0.3,0.6c-2.4,1.8-5.1,2.8-8.1,3c-1.9,0.2-3.8,0.1-5.7-0.3c-3.6-0.8-5.8-3.1-6.9-6.5c-0.6-2-0.9-4.1-0.9-6.3
	c0-1.8,0-3.7,0.1-5.5c0.1-1.7,0.5-3.4,1.2-5.1c1.2-2.9,3.3-4.6,6.3-5.3c2.7-0.6,5.5-0.5,8.2,0.2c3.3,0.9,5.2,3.1,5.8,6.4
	c0.3,1.4,0.3,2.9,0.3,4.4c0,0,0,0.1,0,0.1c-2.3,0-4.5,0-6.8,0c0-0.5,0-1-0.1-1.5c-0.1-0.7-0.2-1.5-0.5-2.2c-0.4-1.1-1.3-1.7-2.5-1.8
	c-0.6,0-1.1,0-1.7,0c-1.2,0.2-2.1,0.9-2.5,2c-0.4,1-0.6,2-0.7,3c-0.2,2.5-0.2,4.9,0,7.4c0.1,1,0.2,1.9,0.6,2.8
	c0.5,1.2,1.4,2,2.7,2.2c1.4,0.2,2.9,0.1,4.2-0.5c0.2-0.1,0.3-0.2,0.3-0.5c0-1,0-1.9,0-2.9C189.5,35.6,189.5,35.5,189.5,35.3z"/>
<path class="st0" d="M84.5,65.6c0-2.4,0.1-4.5,0.5-6.6c0.2-1.1,0.6-2.1,1-3.1c1.2-2.5,3.1-4,5.7-4.7c2.5-0.6,5.1-0.6,7.6,0
	c3.3,0.8,5.3,2.9,6.4,6c0.6,1.8,0.9,3.6,1,5.4c0.1,2.2,0.1,4.4-0.1,6.6c-0.2,1.9-0.5,3.7-1.2,5.4c-1.2,2.8-3.3,4.6-6.3,5.2
	c-2.4,0.5-4.8,0.5-7.2,0c-3.4-0.8-5.5-2.9-6.5-6.1c-0.7-2.2-0.9-4.4-1-6.7C84.5,66.3,84.5,65.8,84.5,65.6z M91.5,65
	c0.1,1.7,0.1,3,0.2,4.3c0.1,1,0.3,2.1,0.8,3c0.5,0.9,1.2,1.5,2.2,1.7c0.4,0.1,0.8,0.1,1.2,0.1c1.7,0,2.7-0.7,3.3-2.3
	c0.4-1.1,0.6-2.2,0.6-3.3c0.1-2.3,0.2-4.7-0.1-7c-0.1-1.1-0.3-2.1-0.8-3.1c-0.5-1-1.3-1.6-2.4-1.8c-0.4,0-0.8-0.1-1.2,0
	c-1.2,0-2.2,0.6-2.7,1.7c-0.3,0.7-0.6,1.4-0.7,2.2C91.6,62.1,91.5,63.7,91.5,65z"/>
<path class="st0" d="M138.8,27c-2.3,0-4.6,0-6.8,0c-0.1-0.6-0.1-1.2-0.2-1.8c0-0.2-0.1-0.4-0.1-0.6c-0.4-1.5-1.3-2.2-2.9-2.3
	c-0.6,0-1.3,0-1.9,0.1c-1.1,0.3-1.8,1.1-1.8,2.2c0,0.3,0,0.7,0,1c0.1,0.8,0.5,1.3,1.2,1.7c0.9,0.4,1.8,0.6,2.7,0.7
	c1.9,0.3,3.8,0.6,5.6,1.4c1.9,0.8,3.3,2.1,3.9,4.2c0.6,2.2,0.6,4.3-0.1,6.4c-0.8,2.6-2.7,4.1-5.2,4.9c-1.8,0.6-3.6,0.7-5.5,0.7
	c-1.4,0-2.7-0.2-4.1-0.6c-3.1-0.9-4.9-3-5.6-6.1c-0.3-1.2-0.4-2.4-0.3-3.7c2.3,0,4.6,0,6.8,0c0.1,0.6,0.1,1.3,0.2,1.9
	c0.3,1.6,1.2,2.3,2.8,2.5c0.8,0.1,1.6,0,2.3-0.2c2-0.6,2.1-2.7,1.5-3.9c-0.2-0.5-0.7-0.8-1.2-1.1c-0.9-0.4-1.8-0.6-2.8-0.7
	c-1.9-0.3-3.8-0.6-5.5-1.4c-2.5-1.1-3.8-3-4-5.7c-0.1-1.5-0.1-3.1,0.3-4.6c0.8-2.6,2.6-4.3,5.1-5.2c2-0.7,4.2-0.9,6.3-0.7
	c1.1,0.1,2.2,0.3,3.2,0.5c3,0.8,4.7,2.9,5.4,5.8C138.8,24.1,138.8,25.5,138.8,27z"/>
<path class="st0" d="M62.4,79.6c-2.5,0-5,0-7.4,0c-0.2,0-0.3-0.1-0.3-0.3c-1.2-3-2.4-6-3.6-9c0-0.1-0.1-0.2-0.2-0.4
	c-1.3,3.3-2.6,6.4-3.8,9.6c-2.5,0-5.1,0-7.6,0c0.1-0.2,0.1-0.3,0.2-0.4c2.1-4.8,4.2-9.5,6.2-14.3c0.1-0.2,0.1-0.4,0-0.6
	c-2.1-4.2-4.1-8.4-6.2-12.7c-0.1-0.1-0.1-0.2-0.2-0.4c0.1,0,0.2,0,0.3,0c2.4,0,4.9,0,7.3,0c0.3,0,0.4,0.1,0.5,0.3
	c1,2.7,2.1,5.3,3.2,8c0,0.1,0.1,0.2,0.2,0.4c0.1-0.2,0.1-0.3,0.2-0.4c1.1-2.7,2.1-5.3,3.2-8c0.1-0.2,0.1-0.3,0.3-0.3
	c2.5,0,5.1,0,7.6,0c0,0,0.1,0,0.1,0c-0.1,0.1-0.1,0.2-0.2,0.3c-2.1,4.2-4.2,8.4-6.2,12.7c-0.1,0.2-0.1,0.4,0,0.7
	c2.1,4.8,4.2,9.5,6.3,14.3C62.3,79.3,62.4,79.4,62.4,79.6z"/>
<path class="st0" d="M36.6,68.1c-3,0-6,0-9,0c0,1.8,0,3.7,0,5.5c3.6,0,7.2,0,10.9,0c0,2,0,4,0,5.9c-5.9,0-11.8,0-17.8,0
	c0-9.4,0-18.9,0-28.3c5.9,0,11.8,0,17.8,0c0,2,0,3.9,0,5.9c-3.6,0-7.2,0-10.9,0c0,1.7,0,3.3,0,4.9c3,0,6,0,9,0
	C36.6,64.1,36.6,66.1,36.6,68.1z"/>
<path class="st0" d="M63.9,79.6c0-9.5,0-18.9,0-28.3c0.1,0,0.2,0,0.3,0c3.4,0,6.9,0,10.3,0c1.4,0,2.9,0.2,4.3,0.7
	c2.5,0.8,4.1,2.5,4.8,5.1c0.6,2.4,0.6,4.9,0,7.3c-0.7,2.8-2.6,4.4-5.3,5.1c-1.5,0.4-3.1,0.5-4.6,0.5c-0.8,0-1.6,0-2.3,0
	c-0.1,0-0.2,0-0.4,0c0,3.3,0,6.5,0,9.7C68.5,79.6,66.2,79.6,63.9,79.6z M70.8,63.8c1.3,0,2.6,0.1,3.9,0c1.1-0.1,1.8-0.8,2.1-1.8
	c0.2-1,0.2-1.9,0-2.9c-0.3-1-0.9-1.7-2-1.8c-0.3,0-0.6-0.1-0.8-0.1c-0.9,0-1.8,0-2.8,0c-0.1,0-0.2,0-0.3,0
	C70.8,59.4,70.8,61.6,70.8,63.8z"/>
<path class="st0" d="M90.2,33.7c-3,0-6,0-9,0c0,1.9,0,3.7,0,5.5c3.6,0,7.2,0,10.9,0c0,2,0,4,0,5.9c-0.1,0-0.2,0-0.4,0
	c-5.7,0-11.4,0-17.1,0c-0.3,0-0.4-0.1-0.4-0.4c0-1.9,0-3.9,0-5.8c0-0.2,0-0.4,0.1-0.5c2.5-5,2.5-10,0-15c-0.1-0.2-0.1-0.4-0.1-0.5
	c0-1.9,0-3.9,0-5.8c0-0.3,0.1-0.4,0.4-0.3c5.7,0,11.4,0,17.2,0c0.1,0,0.2,0,0.3,0c0,2,0,3.9,0,5.9c-3.6,0-7.2,0-10.9,0
	c0,1.7,0,3.3,0,5c3,0,6,0,9,0C90.2,29.7,90.2,31.7,90.2,33.7z"/>
<path class="st1" d="M45.2,31c-0.1-8,6.4-15,15.1-15c8.4,0.1,15,6.9,14.9,15.3C75,39.4,68.3,46.1,59.8,46C51.6,45.8,45.1,39,45.2,31
	z M48.8,31c-0.1,6,4.8,11.4,11.3,11.4c6.3,0,11.4-5.1,11.4-11.4c0-6.3-5.1-11.4-11.4-11.4C53.6,19.6,48.7,24.9,48.8,31z"/>
<path class="st0" d="M20.7,45.2c0-9.5,0-18.9,0-28.3c2.3,0,4.6,0,6.9,0c0,7.4,0,14.9,0,22.4c3.4,0,6.7,0,10,0c0,2,0,4,0,6
	C31.9,45.2,26.3,45.2,20.7,45.2z"/>
<path class="st0" d="M141.2,16.8c0.1,0,0.2,0,0.4,0c2.1,0,4.1,0,6.2,0c0.3,0,0.4,0.1,0.4,0.4c0,9.2,0,18.4,0,27.7c0,0.1,0,0.2,0,0.4
	c-0.1,0-0.2,0-0.4,0c-2.1,0-4.1,0-6.2,0c-0.3,0-0.4-0.1-0.4-0.3c0-9.2,0-18.5,0-27.7C141.2,17,141.2,16.9,141.2,16.8z"/>
<path class="st0" d="M39.3,45.2c0-9.5,0-18.9,0-28.3c2.3,0,4.6,0,6.9,0c0,0.1,0,0.2,0,0.3c0,1.9,0,3.8,0,5.8c0,0.2-0.1,0.4-0.1,0.5
	c-2.5,5-2.5,10.1,0,15.1c0.1,0.1,0.1,0.3,0.1,0.4c0,2,0,4,0,6c0,0.1,0,0.1,0,0.2C43.9,45.2,41.6,45.2,39.3,45.2z"/>
<path class="st1" d="M10.4,32.7c0.6,0,1.2,0,1.9,0c0.1,0,0.3,0.1,0.4,0.2c0.6,0.8,0.9,1.7,1,2.7c0,0.6,0,1.2-0.1,1.8
	c-0.3,1.3-1.2,2.1-2.5,2.5c-1.8,0.4-3.7,0.5-5.5,0c-1.6-0.4-2.3-1.4-2.5-3c-0.1-0.7,0-1.3,0.1-1.9c0.3-1.2,1.1-1.8,2.3-2.1
	c0.4-0.1,0.8-0.1,1.3-0.1c0.2,0,0.3,0.1,0.3,0.3c0,0.4,0,0.8,0,1.2c0,0.2-0.1,0.3-0.3,0.3c-0.3,0-0.6,0.1-0.9,0.1
	c-1.1,0.2-1.4,0.9-1.3,1.9c0.1,1,0.6,1.5,1.6,1.7c1.5,0.3,3,0.3,4.4,0c1.6-0.4,2.2-2.4,1.2-3.6c-0.1-0.1-0.2-0.1-0.3-0.1
	c-0.5,0-1.1,0-1.6,0c-0.2,0-0.3,0.1-0.3,0.3c0,0.3,0,0.7,0,1c0,0.2-0.1,0.3-0.3,0.3c-0.3,0-0.6,0-1,0c-0.2,0-0.2-0.1-0.2-0.2
	c0-0.9,0-1.8,0-2.7c0-0.2,0.1-0.3,0.3-0.3C9.1,32.7,9.8,32.7,10.4,32.7z"/>
<path class="st1" d="M13.7,20.5c-0.1,0.4-0.1,0.9-0.2,1.4c-0.3,1.2-1.3,1.9-2.5,2c0,0,0,0-0.1,0c-0.8,0.1-0.8,0.1-0.8-0.7
	c0-0.3-0.1-0.6,0-0.8c0.1-0.2,0.5-0.1,0.8-0.2c0.8-0.2,1.3-0.8,1.3-1.6c0-0.4,0-0.7-0.1-1.1c-0.2-0.6-0.7-0.9-1.3-1
	c-0.8,0-1.2,0.2-1.5,0.9C9.2,20,9.1,20.6,9,21.1c-0.2,0.6-0.3,1.1-0.6,1.7c-0.4,0.7-1.1,1.1-1.9,1.1c-0.4,0-0.9,0-1.3-0.1
	c-1.1-0.3-1.7-1.1-1.9-2.2C3,20.8,3,19.9,3.3,19c0.3-1.2,1.2-2,2.5-2.1c0.3,0,0.6-0.1,0.8-0.1c0.1,0,0.2,0.1,0.2,0.2
	c0,0.4,0,0.8,0,1.2c0,0.2-0.1,0.2-0.3,0.3c-0.3,0-0.7,0.1-1,0.2C5,19,4.7,19.4,4.6,20c0,0.4,0,0.8,0.1,1.2c0.1,0.6,0.6,0.9,1.2,1
	c0.8,0,1.2-0.2,1.5-0.8c0.2-0.6,0.3-1.2,0.4-1.8C7.9,19,8,18.5,8.3,18c0.4-0.7,1-1.1,1.8-1.2c0.5,0,1,0,1.5,0.1
	c1.2,0.3,1.8,1.2,2,2.4C13.7,19.7,13.7,20,13.7,20.5z"/>
<path class="st1" d="M13.7,62c-0.1,0.4-0.1,0.9-0.3,1.4c-0.3,1.2-1.2,1.8-2.3,2c-0.3,0-0.5,0.1-0.8,0.1c-0.1,0-0.2-0.1-0.2-0.2
	c0-0.4,0-0.8,0-1.2c0-0.2,0.2-0.2,0.3-0.3c0.2,0,0.5-0.1,0.7-0.1c0.7-0.2,1.1-0.8,1.1-1.5c0-0.4,0-0.8-0.1-1.2
	c-0.2-0.6-0.7-0.9-1.3-1c-0.7,0-1.2,0.2-1.4,0.9C9.2,61.4,9.1,62,9,62.6c-0.1,0.4-0.2,0.8-0.3,1.2c-0.5,1.3-1.5,1.6-2.7,1.6
	c-1.7-0.1-2.7-1.2-2.8-2.9c0-0.6,0-1.2,0.1-1.8c0.3-1.7,1.4-2.2,2.7-2.3c0.9-0.1,0.9-0.1,0.9,0.9c0,0.8,0,0.8-0.8,0.9
	c-1.1,0.2-1.5,0.8-1.5,1.9c0,0.2,0.1,0.5,0.2,0.7C5,63.3,5.4,63.6,6,63.6c0.6,0,1.1-0.2,1.3-0.8c0.2-0.6,0.3-1.3,0.4-1.9
	c0.1-0.4,0.2-0.7,0.3-1.1c0.4-1,1.1-1.5,2.2-1.6c0.4,0,0.8,0,1.2,0.1c1.3,0.3,1.9,1.2,2.1,2.4C13.7,61.1,13.7,61.5,13.7,62z"/>
<path class="st1" d="M13.6,32.1c-0.6-0.2-1.1-0.3-1.7-0.4c-2.7-0.7-5.5-1.4-8.2-2.1c-0.4-0.1-0.5-0.2-0.4-0.6c0-0.5,0-1.1,0-1.6
	c0-0.2,0.1-0.3,0.3-0.4c2.6-0.7,5.2-1.4,7.8-2c0.7-0.2,1.5-0.4,2.2-0.6c0,0.6,0,1.2,0,1.7c0,0.1-0.2,0.1-0.3,0.2
	c-0.6,0.1-1.2,0.3-1.8,0.4c-0.3,0.1-0.3,0.2-0.3,0.4c0,0.8,0,1.6,0,2.4c0,0.2,0.1,0.3,0.3,0.4c0.6,0.1,1.2,0.3,1.8,0.5
	c0.1,0,0.2,0.1,0.2,0.2C13.6,31,13.6,31.5,13.6,32.1z M9.7,27.1c-1.5,0.4-3,0.7-4.4,1.1c0,0,0,0.1,0,0.1c0.5,0.1,0.9,0.2,1.4,0.3
	c0.9,0.2,1.8,0.5,2.8,0.7c0.1,0,0.3,0.1,0.3-0.1C9.7,28.5,9.7,27.8,9.7,27.1z"/>
<path class="st1" d="M13.6,65.8c0,0.6,0,1.1,0,1.6c0,0.2-0.1,0.3-0.3,0.3c-0.6,0.1-1.2,0.3-1.8,0.4c-0.2,0-0.2,0.1-0.2,0.3
	c0,0.8,0,1.6,0,2.5c0,0.2,0.1,0.3,0.3,0.3c0.6,0.1,1.2,0.3,1.8,0.4c0.3,0.1,0.3,0.2,0.3,0.4c0,0.5,0,1,0,1.5
	c-0.3-0.1-0.5-0.1-0.8-0.2c-3.1-0.8-6.1-1.6-9.2-2.4c-0.3-0.1-0.4-0.2-0.4-0.5c0-0.5,0-1.1,0-1.6c0-0.3,0.1-0.4,0.4-0.5
	c2.7-0.7,5.4-1.4,8.1-2.1C12.3,66.1,12.9,65.9,13.6,65.8z M5.3,69.6c0,0,0,0.1,0,0.1c1.5,0.4,2.9,0.7,4.4,1.1c0-0.8,0-1.5,0-2.2
	C8.2,68.9,6.7,69.2,5.3,69.6z"/>
<path class="st1" d="M8.4,47.1c-1.6,0-3.2,0-4.7,0c-0.3,0-0.4-0.1-0.4-0.4c0-1.8,0-3.6,0-5.4c0-0.3,0.1-0.4,0.4-0.4
	c0.3,0,0.5,0,0.8,0c0.3,0,0.3,0.1,0.3,0.3c0,1.2,0,2.5,0,3.7c0,0.3,0.1,0.4,0.4,0.4c0.7,0,1.4,0,2,0c0.3,0,0.4-0.1,0.4-0.4
	c0-1,0-2,0-3c0-0.3,0.1-0.3,0.3-0.3c0.3,0,0.5,0,0.8,0C9,41.6,9,41.7,9,42c0,1,0,2,0,3c0,0.3,0.1,0.4,0.4,0.4c0.8,0,1.5,0,2.3,0
	c0.3,0,0.4-0.1,0.4-0.4c0-1.2,0-2.3,0-3.5c0-0.5,0-0.5,0.5-0.5c0.2,0,0.5,0,0.7,0c0.2,0,0.3,0.1,0.3,0.3c0,1.8,0,3.7,0,5.5
	c0,0.3-0.1,0.3-0.4,0.3c-1.5,0-2.9,0-4.4,0C8.7,47.1,8.5,47.1,8.4,47.1z"/>
<path class="st1" d="M3.3,47.9c0.8,0.2,1.5,0.4,2.3,0.6c2.6,0.7,5.2,1.4,7.7,2c0.3,0.1,0.4,0.2,0.3,0.4c0,0.6,0,1.1,0,1.7
	c0,0.3-0.1,0.4-0.4,0.5c-3,0.8-6.1,1.6-9.1,2.4c-0.3,0.1-0.5,0.1-0.8,0.2c0-0.6,0-1.2,0-1.7c0-0.1,0.2-0.1,0.3-0.2
	c2.6-0.6,5.1-1.3,7.7-1.9c0.1,0,0.2-0.1,0.3-0.2c-0.5-0.1-1.1-0.3-1.6-0.4c-2.1-0.5-4.2-1-6.3-1.5c-0.3-0.1-0.4-0.2-0.3-0.4
	C3.3,48.9,3.3,48.4,3.3,47.9z"/>
<path class="st1" d="M8.4,79.4c-1.6,0-3.2,0-4.8,0c-0.3,0-0.4-0.1-0.4-0.4c0-0.3,0-0.6,0-1c0-0.3,0.1-0.4,0.3-0.4c1.4,0,2.8,0,4.2,0
	c1.3,0,2.5,0,3.8,0c0.3,0,0.4-0.1,0.4-0.4c0-1.1,0-2.2,0-3.3c0-0.3,0.1-0.4,0.3-0.3c0.3,0,0.5,0,0.8,0c0.3,0,0.3,0.1,0.3,0.3
	c0,1.7,0,3.3,0,5c0,0.3-0.1,0.3-0.3,0.3C11.6,79.4,10,79.4,8.4,79.4z"/>
<path class="st1" d="M67.6,27.1c-0.1,0-0.1,0.1-0.2,0.1c-1,0.3-2,0.6-3,1c-0.2,0.1-0.3,0-0.4-0.1c-1.1-1.3-2.5-2-4.2-1.9
	c-2.1,0.1-4,2-4.3,4.1c-0.4,2.4,1.3,4.9,3.7,5.4c2,0.4,3.6-0.2,4.9-1.7c0.2-0.2,0.3-0.3,0.5-0.2c0.9,0.3,1.9,0.6,2.9,1
	c0.1,0,0.2,0.1,0.2,0.1c-1.2,2.7-4.5,5-8.4,4.5c-4.3-0.5-7.2-4-7.4-7.8c-0.2-4.5,2.9-8,6.7-8.7C62.8,21.9,66.3,24.4,67.6,27.1z"/>
<g>
	<path class="st1" d="M133.1,80h-17.5V79l10-11.5c1.6-1.9,2.8-3.6,3.6-5.1c0.8-1.5,1.2-2.9,1.2-4.1c0-2.1-0.6-3.8-1.9-5
		s-3-1.8-5.3-1.8c-1.4,0-2.6,0.3-3.7,1c-1.1,0.7-2,1.6-2.6,2.7c-0.6,1.2-1,2.4-1,3.9h-1.1c0-1.6,0.4-3,1.1-4.4s1.7-2.4,3-3.2
		s2.7-1.1,4.3-1.1c2.6,0,4.6,0.7,6.1,2.1c1.4,1.4,2.2,3.3,2.2,5.8c0,2.3-1.3,5-3.8,8.2l-1.8,2.2L117,79h16.1V80z"/>
	<path class="st1" d="M153.4,68.1c0,3.9-0.8,7-2.3,9.1s-3.7,3.2-6.4,3.2c-2.7,0-4.9-1.1-6.5-3.3c-1.6-2.2-2.3-5.2-2.3-9.2v-5.3
		c0-3.9,0.8-6.9,2.3-9.1s3.7-3.3,6.4-3.3c2.8,0,4.9,1.1,6.5,3.3c1.5,2.2,2.3,5.2,2.3,9.2V68.1z M152.4,62.7c0-3.6-0.7-6.3-2-8.3
		c-1.3-2-3.2-3-5.7-3c-2.5,0-4.4,1-5.7,3c-1.3,2-2,4.8-2,8.4v5.2c0,3.5,0.7,6.3,2,8.3s3.2,3,5.7,3c2.4,0,4.3-1,5.6-3
		c1.3-2,2-4.8,2-8.4V62.7z"/>
	<path class="st1" d="M167.6,80h-1.1V52.2l-8.4,3.2v-1.2l9.3-3.4h0.2V80z"/>
	<path class="st1" d="M195,58.2c0,1.6-0.5,3.1-1.5,4.3c-1,1.2-2.3,2.1-3.9,2.6c1.9,0.5,3.4,1.4,4.6,2.8c1.1,1.3,1.7,2.9,1.7,4.6
		c0,2.5-0.8,4.4-2.5,5.9s-3.9,2.2-6.8,2.2c-2.9,0-5.1-0.7-6.8-2.2c-1.7-1.4-2.5-3.4-2.5-5.9c0-1.7,0.6-3.3,1.7-4.6s2.6-2.3,4.5-2.8
		c-1.6-0.5-2.9-1.3-3.9-2.6c-1-1.2-1.5-2.7-1.5-4.3c0-2.4,0.8-4.3,2.3-5.7c1.5-1.4,3.6-2.1,6.1-2.1c2.5,0,4.6,0.7,6.2,2.2
		S195,55.9,195,58.2z M194.7,72.5c0-2-0.8-3.7-2.3-5c-1.5-1.3-3.5-1.9-5.9-1.9c-2.4,0-4.4,0.6-5.9,1.9s-2.3,3-2.3,5
		c0,2.1,0.7,3.7,2.2,5c1.5,1.2,3.5,1.9,6,1.9c2.5,0,4.4-0.6,5.9-1.9C194,76.2,194.7,74.6,194.7,72.5z M193.9,58.1
		c0-1.9-0.7-3.5-2.2-4.8c-1.4-1.3-3.2-1.9-5.3-1.9c-2.2,0-3.9,0.6-5.3,1.8c-1.4,1.2-2.1,2.8-2.1,4.8c0,1.9,0.7,3.4,2,4.6
		c1.4,1.2,3.1,1.8,5.3,1.8c2.2,0,3.9-0.6,5.3-1.8S193.9,60,193.9,58.1z"/>
</g>
</svg>
