<?xml version="1.0" encoding="utf-8"?>
<!-- Generator: Adobe Illustrator 21.1.0, SVG Export Plug-In . SVG Version: 6.00 Build 0)  -->
<svg version="1.1" id="icons" xmlns="http://www.w3.org/2000/svg" xmlns:xlink="http://www.w3.org/1999/xlink" x="0px" y="0px"
	 viewBox="0 0 200 101.9" style="enable-background:new 0 0 200 101.9;" xml:space="preserve">
<style type="text/css">
	.st0{fill:#FFFFFF;}
</style>
<path class="st0" d="M5.2,51.6c0-0.4,0.1-0.8,0.1-1.2c0.5-5.7,2.4-10.9,5.9-15.4c4.6-6.1,10.7-9.9,18.2-11.5c2.3-0.5,4.7-0.7,7-0.5
	c7.6,0.4,14.3,3.2,19.7,8.5c4.3,4.2,7.1,9.3,8.4,15.2c0.6,2.6,0.8,5.3,0.6,8c-0.5,7.3-3.2,13.6-8.2,18.9c-4.4,4.6-9.8,7.6-16.1,8.8
	c-1.3,0.2-2.6,0.3-4,0.5c-0.1,0-0.2,0-0.3,0.1c-0.9,0-1.8,0-2.7,0c-0.1,0-0.2-0.1-0.3-0.1c-1.6-0.1-3.1-0.3-4.6-0.6
	c-7-1.5-12.7-5.1-17.2-10.7C7.9,67,5.8,61.6,5.3,55.6c0-0.4-0.1-0.8-0.1-1.2C5.2,53.5,5.2,52.6,5.2,51.6z M62.1,53
	c0-14.6-11.8-26.9-26.8-26.9c-14.9,0-26.8,12-26.9,26.8c-0.1,14.9,12,27,26.9,27C50.2,79.9,62.1,67.6,62.1,53z"/>
<path class="st0" d="M80.1,57.3c0,3.2,0,6.3,0,9.5c-0.5,0-1.1,0-1.6,0c0-0.1,0-0.2,0-0.4c0-4.1,0-8.3,0-12.4c0-0.3,0.1-0.3,0.4-0.4
	c0.7-0.1,1.1,0.2,1.4,0.8c1.4,2.3,2.9,4.6,4.4,6.9c0.1,0.1,0.1,0.2,0.2,0.3c0.1-0.1,0.2-0.3,0.3-0.4c1.5-2.4,3.1-4.8,4.6-7.2
	c0.2-0.3,0.3-0.4,0.6-0.3c0.3,0,0.6,0,0.9,0c0,4.4,0,8.7,0,13.1c-0.5,0-1.1,0-1.6,0c0-3.2,0-6.3,0-9.5c0,0,0,0-0.1,0
	c-0.1,0.1-0.1,0.2-0.2,0.3c-1.3,2-2.5,3.9-3.8,5.9c-0.1,0.2-0.3,0.3-0.6,0.3c-0.5,0.1-0.8-0.2-1.1-0.6c-1.2-1.9-2.5-3.8-3.7-5.7
	C80.2,57.4,80.2,57.4,80.1,57.3C80.1,57.3,80.1,57.3,80.1,57.3z"/>
<path class="st0" d="M128.3,62.2c1.4,1.5,2.8,3.1,4.3,4.6c-0.4,0-0.8,0-1.1,0c-0.7,0.1-1.2-0.2-1.7-0.7c-1.1-1.2-2.2-2.4-3.3-3.6
	c-0.1-0.1-0.3-0.2-0.4-0.2c-1.1,0-2.2,0-3.4,0c-0.3,0-0.3,0.1-0.3,0.3c0,1.3,0,2.5,0,3.8c0,0.1,0,0.2,0,0.4c-0.5,0-1.1,0-1.6,0
	c0-4.4,0-8.7,0-13.1c0.1,0,0.2,0,0.3,0c1.8,0,3.5,0,5.3,0c1.2,0,2.3,0.2,3.3,0.8c2.5,1.4,2.5,4.4,1.5,6c-0.6,0.9-1.5,1.4-2.5,1.6
	C128.7,62.1,128.5,62.2,128.3,62.2z M122.4,58c0,0.8,0,1.7,0,2.5c0,0.3,0.1,0.3,0.3,0.3c1.3,0,2.5,0,3.8,0c0.7,0,1.3-0.1,2-0.3
	c2.1-0.8,2-3.1,0.9-4.2c-0.8-0.8-1.8-1.1-2.8-1.1c-1.3,0-2.6,0-3.9,0c-0.2,0-0.3,0.1-0.3,0.3C122.4,56.4,122.4,57.2,122.4,58z"/>
<path class="st0" d="M171,53.7c0,0.5,0,1,0,1.5c-0.2,0-0.3,0-0.4,0c-2.6,0-5.3,0-7.9,0c-0.4,0-0.4,0-0.4,0.4c0,1.2,0,2.4,0,3.7
	c0,0.1,0,0.2,0,0.4c2.8,0,5.5,0,8.3,0c0,0.5,0,1,0,1.4c-0.1,0-0.2,0-0.4,0c-2.5,0-5,0-7.5,0c-0.3,0-0.4,0.1-0.4,0.4
	c0,1.2,0,2.4,0,3.6c0,0.1,0,0.2,0,0.3c2.9,0,5.8,0,8.7,0c0,0.5,0,1,0,1.5c-3.4,0-6.9,0-10.3,0c0-0.1,0-0.2,0-0.3c0-4.1,0-8.3,0-12.4
	c0-0.3,0.1-0.4,0.4-0.4c3.2,0,6.4,0,9.7,0C170.8,53.7,170.9,53.7,171,53.7z"/>
<path class="st0" d="M113.3,66.8c-0.6,0-1.1,0-1.7,0c-0.1,0-0.2-0.1-0.3-0.2c-0.5-1-1-1.9-1.5-2.9c-0.1-0.2-0.2-0.2-0.4-0.2
	c-2.4,0-4.7,0-7.1,0c-0.2,0-0.3,0.1-0.4,0.2c-0.5,1-1,1.9-1.5,2.9c-0.1,0.2-0.2,0.2-0.4,0.2c-0.5,0-1,0-1.5,0
	c0.1-0.2,0.1-0.3,0.2-0.4c2.1-4.1,4.2-8.3,6.3-12.4c0.1-0.2,0.2-0.3,0.5-0.3c0.7-0.1,1.1,0.2,1.4,0.8c1.3,2.7,2.7,5.4,4.1,8.1
	c0.7,1.3,1.3,2.6,2,3.9C113.2,66.6,113.2,66.7,113.3,66.8z M106,55.8c-1,2.1-2.1,4.1-3.1,6.2c2.1,0,4.1,0,6.2,0
	C108,59.9,107,57.9,106,55.8z"/>
<path class="st0" d="M143.1,60.6c0.2-0.2,0.4-0.4,0.6-0.5c2.2-2.1,4.4-4.1,6.7-6.2c0.1-0.1,0.3-0.2,0.5-0.2c0.7,0,1.4,0,2.2,0
	c-2.2,2-4.4,3.9-6.6,5.9c2.3,2.4,4.6,4.8,6.9,7.2c-0.7,0-1.4,0-2.1,0c-0.1,0-0.2-0.1-0.3-0.2c-1.9-2-3.7-3.9-5.6-5.9
	c0,0-0.1-0.1-0.2-0.2c-0.7,0.6-1.3,1.2-2,1.7c-0.1,0.1-0.1,0.2-0.1,0.3c0,1.2,0,2.5,0,3.7c0,0.1,0,0.2,0,0.4c-0.5,0-1,0-1.6,0
	c0-4.4,0-8.7,0-13.1c0.5,0,1,0,1.6,0C143.1,56,143.1,58.2,143.1,60.6z"/>
<path class="st0" d="M185,55.2c0,3.9,0,7.7,0,11.6c-0.5,0-1.1,0-1.6,0c0-0.1,0-0.2,0-0.4c0-3.6,0-7.2,0-10.8c0-0.3-0.1-0.4-0.4-0.4
	c-1.5,0-3,0-4.4,0c-0.1,0-0.3,0-0.4,0c0-0.5,0-1,0-1.5c4,0,8.1,0,12.1,0c0,0.5,0,1,0,1.5C188.5,55.2,186.8,55.2,185,55.2z"/>
<path class="st0" d="M161.4,44.6c0.4-0.1,0.8-0.2,1.3-0.3c0.2,0.7,0.7,0.9,1.3,1c0.7,0.2,1.5,0.1,2.2-0.1c0.2-0.1,0.5-0.2,0.7-0.4
	c0.4-0.4,0.3-1-0.3-1.2c-0.5-0.1-1-0.2-1.5-0.3c-0.7-0.1-1.4-0.2-2-0.3c-0.8-0.2-1.4-0.6-1.5-1.5c-0.1-0.9,0.2-1.6,0.9-2.1
	c1-0.7,2.1-0.7,3.2-0.6c0.7,0.1,1.4,0.3,1.9,0.9c0.2,0.3,0.4,0.6,0.6,0.9c-0.5,0.2-0.9,0.3-1.3,0.4c-0.2-0.7-0.8-0.9-1.4-1
	c-0.6-0.1-1.3-0.1-1.9,0.2c-0.2,0.1-0.4,0.2-0.5,0.3c-0.5,0.4-0.4,1,0.2,1.2c0.6,0.2,1.2,0.2,1.8,0.3c0.6,0.1,1.1,0.1,1.7,0.2
	c0.7,0.2,1.3,0.5,1.5,1.3c0.2,0.9,0,1.6-0.7,2.2c-0.6,0.5-1.3,0.7-2.1,0.7c-1,0.1-2,0-2.9-0.5C162,45.9,161.5,45.4,161.4,44.6z"/>
<path class="st0" d="M99.2,44.6c0.4-0.1,0.8-0.2,1.3-0.3c0.3,1,1.1,1.1,2,1.1c0.5,0,1-0.1,1.5-0.2c0.2,0,0.4-0.2,0.6-0.3
	c0.5-0.4,0.4-1.1-0.2-1.3c-0.5-0.1-1-0.2-1.4-0.2c-0.7-0.1-1.4-0.2-2-0.3c-0.7-0.2-1.3-0.6-1.5-1.4c-0.2-0.9,0.1-1.6,0.9-2.1
	c0.8-0.6,1.8-0.7,2.8-0.7c0.7,0,1.4,0.2,2,0.6c0.5,0.3,0.8,0.8,1,1.3c-0.4,0.1-0.8,0.3-1.2,0.4c-0.6-1.2-1.7-1.1-2.7-1
	c-0.3,0-0.7,0.2-1,0.3c-0.3,0.1-0.5,0.4-0.5,0.8c0,0.4,0.3,0.5,0.6,0.6c0.6,0.1,1.1,0.2,1.7,0.2c0.6,0.1,1.2,0.2,1.8,0.3
	c0.7,0.2,1.2,0.6,1.3,1.3c0.2,0.8,0,1.5-0.7,2.1c-0.7,0.6-1.5,0.8-2.4,0.8c-0.9,0.1-1.9-0.1-2.7-0.5C99.8,45.9,99.4,45.4,99.2,44.6z
	"/>
<path class="st0" d="M135.6,40.3c-0.2,0-0.3,0-0.4,0c-1.3,0-2.7,0-4,0c-0.3,0-0.4,0.1-0.3,0.3c0,0.5,0,0.9,0,1.4
	c0,0.2,0.1,0.3,0.3,0.3c1.3,0,2.5,0,3.8,0c0.1,0,0.2,0,0.4,0c0,0.4,0,0.7,0,1c0,0.1-0.2,0.2-0.3,0.2c-1.2,0-2.3,0-3.5,0
	c-0.2,0-0.3,0-0.5,0c-0.1,0-0.2,0.1-0.2,0.2c0,0.5,0,1,0,1.5c0,0.3,0.2,0.2,0.3,0.2c1.3,0,2.7,0,4,0c0.4,0,0.4,0,0.4,0.4
	c0,0.2,0,0.5,0,0.8c-2,0-4,0-6,0c0-0.1,0-0.2,0-0.3c0-2.3,0-4.6,0-6.9c0-0.3,0.1-0.3,0.4-0.3c1.8,0,3.6,0,5.4,0
	c0.3,0,0.4,0.1,0.4,0.4C135.6,39.7,135.6,39.9,135.6,40.3z"/>
<path class="st0" d="M145.4,41.1c-0.3-0.4-0.7-0.7-1.3-0.9c-0.9-0.3-2.1,0.2-2.7,1c-0.6,0.8-0.7,2-0.1,2.9c0.8,1.3,2.4,1.7,3.6,0.8
	c0.2-0.2,0.4-0.4,0.3-0.7c0-0.2,0-0.5,0-0.8c-0.7,0-1.3,0-2,0c0-0.4,0-0.8,0-1.2c0.5,0,1,0,1.6,0c0.5,0,1.1,0,1.6,0
	c0,0.1,0,0.2,0,0.3c0,0.7,0,1.4,0,2.1c0,0.2-0.1,0.5-0.3,0.7c-1.1,1.2-2.4,1.6-3.9,1.1c-1.5-0.4-2.4-1.5-2.7-3
	c-0.3-2.1,0.8-3.9,2.8-4.5c1.3-0.4,3.1,0.2,3.8,1.2C146,40.5,145.7,40.8,145.4,41.1z"/>
<path class="st0" d="M96,46.6c-0.5,0-0.9,0-1.3,0c-0.1,0-0.2-0.1-0.3-0.2c-0.2-0.5-0.5-0.9-0.7-1.4c-0.1-0.2-0.2-0.3-0.4-0.3
	c-1.1,0-2.2,0-3.4,0c-0.2,0-0.3,0.1-0.3,0.2c-0.2,0.5-0.5,0.9-0.7,1.4c-0.1,0.1-0.2,0.2-0.3,0.2c-0.4,0-0.8,0-1.2,0
	c0-0.1,0.1-0.2,0.1-0.3c1.2-2.3,2.4-4.6,3.5-6.9c0.1-0.2,0.3-0.3,0.5-0.3c0.5,0,0.7,0.1,0.9,0.5c1.1,2.3,2.3,4.5,3.4,6.7
	C96,46.4,96,46.5,96,46.6z M91.7,40.9c-0.5,0.9-0.9,1.8-1.3,2.6c0.9,0,1.7,0,2.6,0C92.6,42.6,92.2,41.8,91.7,40.9z"/>
<path class="st0" d="M149.8,46.6c0.2-0.5,0.4-0.9,0.7-1.3c1-2,2-4,3-5.9c0.1-0.2,0.2-0.2,0.4-0.3c0.5-0.1,0.8,0.1,1,0.6
	c1.1,2.2,2.3,4.4,3.4,6.7c0,0.1,0.1,0.2,0.1,0.3c-0.5,0-0.9,0-1.4,0c-0.1,0-0.2-0.1-0.2-0.2c-0.2-0.5-0.5-0.9-0.7-1.4
	c-0.1-0.2-0.2-0.2-0.4-0.2c-1.1,0-2.2,0-3.4,0c-0.2,0-0.3,0.1-0.4,0.2c-0.2,0.5-0.5,0.9-0.7,1.4c-0.1,0.1-0.1,0.2-0.3,0.2
	C150.7,46.6,150.3,46.6,149.8,46.6z M152.8,43.5c0.9,0,1.7,0,2.6,0c-0.4-0.9-0.9-1.7-1.3-2.6C153.7,41.8,153.3,42.6,152.8,43.5z"/>
<path class="st0" d="M125.6,39.1c-0.5,1-0.9,1.9-1.4,2.8c-0.8,1.5-1.5,3-2.3,4.6c0,0.1-0.2,0.2-0.3,0.2c-0.7,0-0.7,0-1-0.6
	c-1.1-2.2-2.2-4.4-3.3-6.6c0-0.1-0.1-0.2-0.2-0.3c0.5,0,0.9,0,1.4,0c0.1,0,0.2,0.1,0.2,0.3c0.8,1.6,1.6,3.1,2.4,4.7
	c0.1,0.1,0.1,0.3,0.3,0.5c0.1-0.2,0.1-0.3,0.2-0.4c0.8-1.6,1.6-3.2,2.4-4.8c0.1-0.2,0.2-0.3,0.5-0.3
	C124.8,39.1,125.2,39.1,125.6,39.1z"/>
<path class="st0" d="M78.5,46.5c0-0.1,0-0.3,0-0.4c0-2.2,0-4.5,0-6.7c0-0.4,0-0.4,0.4-0.4c0.3,0,0.5,0,0.8,0c0,0,0.1,0,0.1,0
	c0,2.1,0,4.1,0,6.2c0.2,0,0.3,0,0.4,0c1.2,0,2.5,0,3.7,0c0.3,0,0.4,0.1,0.3,0.3c0,0.3,0,0.5,0,0.8C82.3,46.5,80.4,46.5,78.5,46.5z"
	/>
<path class="st0" d="M195.6,55.3c0-0.3,0-0.6,0-0.9c0,0,0,0-0.1,0c-0.1,0.1-0.1,0.1-0.2,0.2c-0.3,0.5-0.3,0.5-0.6,0
	c-0.1-0.1-0.1-0.2-0.2-0.2c0,0.3,0,0.6,0,0.8c-0.2,0.1-0.3,0.1-0.3-0.1c0-0.5,0-0.9,0-1.5c0.5,0.1,0.5,0.6,0.8,0.9
	c0.3-0.2,0.3-0.7,0.8-0.9c0,0.6,0,1,0,1.5c0,0.1-0.1,0.1-0.2,0.2C195.6,55.4,195.6,55.3,195.6,55.3z"/>
<path class="st0" d="M192.9,55.3c0-0.4,0-0.9,0-1.3c-0.2,0-0.4-0.1-0.6-0.1c0,0,0-0.1,0-0.2c0.5,0,1,0,1.5,0
	c0.1,0.3,0.1,0.3-0.2,0.3c-0.5,0-0.4,0-0.4,0.5c0,0.2,0,0.5,0,0.7C193.2,55.3,193.2,55.4,192.9,55.3z"/>
<path class="st0" d="M38,60.1c3.7-5.4,7.4-10.8,11.2-16.2c0,7.7,0,15.4,0,23c-3,0-6,0-9.1,0c0.2-0.3,0.4-0.6,0.6-0.9
	c0.4-0.5,0.7-1.1,1.1-1.6c0.1-0.1,0.2-0.2,0.4-0.2c1.3,0,2.6,0,3.9-0.1c0.3,0,0.4-0.1,0.4-0.4c0-3.6,0-7.1,0-10.7c0-0.1,0-0.2,0-0.3
	c0,0-0.1,0-0.1,0c-2.8,4-5.6,8-8.4,12.1c-2.8-4.1-5.6-8.1-8.4-12.1c0,0,0,0-0.1,0c0,2.8,0,5.7,0,8.6c-0.9,0-1.8,0-2.7,0
	c0-5.8,0-11.6,0-17.5C30.5,49.3,34.2,54.7,38,60.1z"/>
<path class="st0" d="M35.8,67c-0.1,0-0.2,0-0.3,0c-4.6,0-9.2,0-13.9,0c-0.3,0-0.4-0.1-0.4-0.4c0-9.1,0-18.1,0-27.2
	c0-0.3,0.1-0.4,0.4-0.4c0.8,0,1.5,0,2.3,0c0,8.4,0,16.7,0,25.1c0.2,0,0.4,0,0.6,0c2.2,0,4.3,0,6.5,0c0.9,0,1.8,0,2.8,0
	c0.1,0,0.3,0.1,0.3,0.1c0.6,0.8,1.1,1.6,1.7,2.5C35.8,66.9,35.8,66.9,35.8,67z"/>
<path class="st0" d="M38,55.2c-3.7-5.4-7.5-10.8-11.2-16.2c0.3,0,0.5,0,0.8,0c0.8,0,1.5,0,2.3,0c0.2,0,0.4,0.1,0.5,0.3
	c2.5,3.6,5,7.2,7.5,10.8c0.1,0.1,0.1,0.2,0.2,0.3c0.3-0.5,0.6-0.9,0.9-1.3c2.3-3.3,4.5-6.5,6.7-9.8c0.1-0.2,0.3-0.3,0.5-0.3
	c1,0,1.9,0,3,0C45.4,44.5,41.7,49.8,38,55.2z"/>
</svg>
