<?xml version="1.0" encoding="utf-8"?>
<!-- Generator: Adobe Illustrator 21.1.0, SVG Export Plug-In . SVG Version: 6.00 Build 0)  -->
<svg version="1.1" id="icons" xmlns="http://www.w3.org/2000/svg" xmlns:xlink="http://www.w3.org/1999/xlink" x="0px" y="0px"
	 viewBox="0 0 200 101.9" style="enable-background:new 0 0 200 101.9;" xml:space="preserve">
<style type="text/css">
	.st0{fill:#FFFFFF;}
</style>
<g>
	<path class="st0" d="M12.8,41.2c0,10.8,0,21.6,0,32.5c-2.1,0-4.1,0-6.2,0c0-14.1,0-28.1,0-42.2c3,0,6,0,9.2,0
		c4.3,10.7,8.6,21.5,13.1,32.6c1.6-4.1,3.1-7.8,4.6-11.6c2.7-6.7,5.3-13.5,8-20.2c0.1-0.4,0.6-0.9,0.9-0.9c2.9-0.1,5.7,0,8.7,0
		c0,14.2,0,28.2,0,42.3c-2.1,0-4.1,0-6.2,0c0-11,0-21.9,0-32.8c-0.1,0-0.1,0-0.2-0.1c-0.2,0.3-0.3,0.6-0.5,1
		C40,52.2,35.7,62.5,31.5,72.8c-0.3,0.8-0.7,1.1-1.6,1.1c-3.3,0-3.3,0-4.5-3c-4-9.6-7.9-19.2-11.9-28.8c-0.1-0.3-0.3-0.6-0.4-0.9
		C13,41.2,12.9,41.2,12.8,41.2z"/>
	<path class="st0" d="M134.2,43.5c-2.3,0-4.6,0-6.9,0c-0.4,0-0.9-0.5-1.3-0.9c-5.4-6.7-14.9-7.8-21.7-2.6
		c-5.6,4.3-7.5,12.5-4.5,19.5c2.7,6.4,9.3,10,16.4,9c5.6-0.8,9.7-3.6,12-8.9c0.2-0.4,0.3-0.9,0.4-1.5c-6.1,0-12.1,0-18.1,0
		c0-1.9,0-3.7,0-5.5c8.6,0,17.2,0,25.9,0c0.7,10.5-6.9,20.1-19,21.9c-12,1.8-23.2-6-25.3-17.6c-2.3-12.4,5.1-23.4,17.6-25.8
		C121.9,28.7,132.1,36.7,134.2,43.5z"/>
	<path class="st0" d="M94,73.9c-2.4,0-4.6,0-6.8,0c-0.3,0-0.7-0.6-0.9-0.9c-1.1-2.7-2.2-5.3-3.3-8c-0.3-0.8-0.7-1.1-1.6-1.1
		c-5.2,0-10.4,0-15.6,0c-0.8,0-1.2,0.3-1.5,1.1c-1,2.7-2.1,5.3-3.1,7.9c-0.3,0.8-0.7,1.2-1.6,1.1c-2-0.1-4,0-6.2,0
		c0.3-0.9,0.6-1.6,0.9-2.2c5.3-13,10.7-26,16-39c0.4-0.9,0.8-1.2,1.8-1.2l3.9,0c0.7,0,1.1,0.2,1.3,0.9c4.1,10.2,8.2,20.4,12.3,30.6
		c1.3,3.2,2.6,6.4,3.9,9.6C93.7,72.9,93.8,73.3,94,73.9z M80.4,58.3c-2.3-5.6-4.5-11-6.8-16.7c-2.3,5.8-4.4,11.1-6.6,16.7
		C71.5,58.3,75.8,58.3,80.4,58.3z"/>
	<path class="st0" d="M193.5,44.6c-2.2,0-4.3,0-6.4,0c-0.4,0-0.9-0.5-1.1-0.9c-4.9-7.7-15.2-9.5-22.1-3.6c-5.3,4.5-6.8,10.5-5,17.1
		c1.7,6.3,5.9,10.3,12.6,11.3c6.2,0.9,11-1.6,14.5-6.7c0.5-0.7,1-1,1.8-1c1.9,0.1,3.8,0,5.8,0c-1.5,6.4-9.5,14.2-20.8,13.8
		c-11.7-0.5-20.9-9.6-21.3-21c-0.4-12.2,7.9-21.7,20.1-22.9C181,29.7,192.1,36.7,193.5,44.6z"/>
	<path class="st0" d="M140.2,31.5c2.3,0,4.4,0,6.6,0c0,14.1,0,28.2,0,42.4c-2.1,0-4.1,0-6,0c-0.2,0-0.5-0.4-0.6-0.6
		c-0.1-0.2,0-0.4,0-0.6c0-13.3,0-26.6,0-39.9C140.1,32.3,140.2,31.9,140.2,31.5z"/>
</g>
</svg>
