<?xml version="1.0" encoding="utf-8"?>
<!-- Generator: Adobe Illustrator 21.1.0, SVG Export Plug-In . SVG Version: 6.00 Build 0)  -->
<svg version="1.1" id="Layer_1" xmlns="http://www.w3.org/2000/svg" xmlns:xlink="http://www.w3.org/1999/xlink" x="0px" y="0px"
	 viewBox="0 0 331.5 168.9" style="enable-background:new 0 0 331.5 168.9;" xml:space="preserve">
<style type="text/css">
	.st0{fill:#2CBDC0;}
	.st1{fill:#EEE81A;}
	.st2{fill:#EC3092;}
	.st3{fill:#FFFFFF;}
</style>
<title>logos</title>
<g>
	<path class="st0" d="M178.2,33.2l-71-17.1L64.7,46.7l37.6,9.1l0,0l-38-9.1v75.5l73.2,16.9v-36l20.8,4.9l8-5.9l-24.1,18l0.1-15.7
		l-4.9-1.2l0.1,36l40.7-30.5L178.2,33.2z M114.9,66.8l14.7,3.6l-0.1,18.4l-14.6-3.6V66.8z M134.6,58.3l-19.9-4.6V31.2L158,41.4
		l8.8-6.2L134.6,58.3z M77.4,44.9l9.7,2.2L110,30.2v0.1l-7.7,5.6v14.7L77.4,44.9z M102.4,63.9l0.3,22.9l-24.2,17.7V58.4L102.4,63.9z
		 M86.9,114l23.5-17.4l19,4.6l-0.1,22.4l-50.8-11.4L86.9,114z M74.8,57.7l-2.4-0.4l0,0L74.8,57.7z M142.4,91.7l0.1-23.3l23.6-17.5
		l0.1,46.7L142.4,91.7z"/>
	<g id="XMLID_184_">
		<polygon id="XMLID_558_" class="st1" points="110,21.1 77.4,44.9 102.2,50.7 102.4,55.8 64.7,46.7 107.1,16.1 178.2,33.2 
			137.3,63.9 114.7,58.6 114.7,53.7 134.6,58.3 166.7,35.3 		"/>
		<path id="XMLID_473_" class="st2" d="M178.2,33.2l-40.9,30.8l0.1,26.7l4.9,1.2l0.1-23.5l31.3-23.2l0.3,58.8l-31.9,23l0.1-22.7
			l-4.9-1.2l0.1,36l40.7-30.5L178.2,33.2z"/>
		<polygon id="XMLID_472_" class="st1" points="142.2,127.1 174.2,104 166.3,102.1 142.2,120.1 		"/>
		<polygon id="XMLID_1_" class="st0" points="166.3,102.1 166.1,50.9 173.9,45.2 174.2,104 		"/>
		<polygon id="XMLID_246_" class="st2" points="77.4,44.9 110,21.1 110,30.2 87.1,47.1 		"/>
		<polygon id="XMLID_193_" class="st2" points="114.7,31.2 110,30.2 110.4,88.4 114.9,85.2 		"/>
		<polygon id="XMLID_192_" class="st0" points="110,21.1 110,30.2 158,41.5 166.7,35.3 		"/>
		<polygon id="XMLID_191_" class="st0" points="129.6,70.3 114.7,66.8 114.7,58.6 137.3,63.9 137.5,90.7 129.4,88.7 		"/>
		<polygon id="XMLID_190_" class="st2" points="110.4,96.6 110.4,88.4 78.5,112.2 86.9,114 		"/>
		<polygon id="XMLID_189_" class="st1" points="110.4,88.4 78.5,112.2 78.5,104.5 102.7,86.8 		"/>
		<polygon id="XMLID_188_" class="st2" points="78.5,112.2 72.2,116.2 72.2,57.1 78.5,58.4 		"/>
		<polygon id="XMLID_187_" class="st1" points="72.2,116.2 78.5,112.2 129.6,123.7 129.6,129.6 		"/>
		<polygon id="XMLID_186_" class="st0" points="166.3,102.1 110.4,88.4 110.4,96.6 129.4,101.2 129.3,129.3 72.4,116.2 72.4,57.1 
			102.4,63.9 102.7,86.8 110.4,88.4 110.1,30.2 102.2,36 102.2,55.8 64.2,46.7 64.2,122.2 137.5,139.1 137.5,103.2 158.3,108.1 		
			"/>
		<polygon id="XMLID_185_" class="st1" points="114.9,85.2 110.4,88.4 166.3,102.1 166.3,97.5 		"/>
	</g>
	<g id="XMLID_366_">
		<g>
			<path id="XMLID_284_" class="st3" d="M208.7,73.7c0.9,0.6,1.7,1.4,2.2,2.4c0.6,1,0.8,2.1,0.8,3.3v8.9h-3v-3.2v-5.7
				c0-0.5-0.1-1-0.3-1.5c-0.2-0.5-0.5-0.9-0.8-1.2c-0.3-0.3-0.7-0.6-1.2-0.8c-0.5-0.2-0.9-0.3-1.5-0.3c-0.5,0-1,0.1-1.5,0.3
				c-0.5,0.2-0.9,0.5-1.2,0.8c-0.3,0.3-0.6,0.7-0.8,1.2c-0.2,0.5-0.3,0.9-0.3,1.5v5.7v3.2h-3v-3.2v-5.7c0-0.5-0.1-1-0.3-1.5
				c-0.2-0.5-0.5-0.9-0.8-1.2c-0.3-0.3-0.7-0.6-1.2-0.8c-0.5-0.2-0.9-0.3-1.5-0.3c-0.5,0-1,0.1-1.5,0.3c-0.5,0.2-0.9,0.5-1.2,0.8
				c-0.3,0.3-0.6,0.7-0.8,1.2c-0.2,0.5-0.3,0.9-0.3,1.5v5.7v3.2h-3v-8.9v-6.8h3v1.1c0.6-0.4,1.1-0.6,1.8-0.8c0.6-0.2,1.3-0.3,2-0.3
				c0.7,0,1.4,0.1,2,0.3c0.6,0.2,1.2,0.5,1.8,0.8c0.6,0.4,1.1,0.8,1.5,1.4c0.4-0.6,0.9-1,1.5-1.4c0.6-0.4,1.1-0.6,1.8-0.8
				c0.6-0.2,1.3-0.3,2-0.3c0.7,0,1.4,0.1,2,0.3C207.6,73,208.2,73.3,208.7,73.7z"/>
			<path id="XMLID_281_" class="st3" d="M223.5,72.6c1.1,0,2.1,0.2,3,0.6c0.9,0.4,1.8,1,2.5,1.7c0.7,0.7,1.3,1.5,1.7,2.5
				c0.4,0.9,0.6,2,0.6,3c0,1.1-0.2,2.1-0.6,3c-0.4,0.9-1,1.8-1.7,2.5c-0.7,0.7-1.5,1.3-2.5,1.7c-0.9,0.4-2,0.6-3,0.6
				c-1.1,0-2.1-0.2-3-0.6c-0.9-0.4-1.8-1-2.5-1.7c-0.7-0.7-1.3-1.5-1.7-2.5c-0.4-0.9-0.6-2-0.6-3c0-1.1,0.2-2.1,0.6-3
				c0.4-0.9,1-1.8,1.7-2.5c0.7-0.7,1.5-1.3,2.5-1.7C221.4,72.8,222.4,72.6,223.5,72.6z M223.5,85.2c0.6,0,1.3-0.1,1.8-0.4
				c0.6-0.2,1.1-0.6,1.5-1c0.4-0.4,0.8-0.9,1-1.5c0.2-0.6,0.4-1.2,0.4-1.9c0-0.7-0.1-1.3-0.4-1.9c-0.2-0.6-0.6-1.1-1-1.5
				c-0.4-0.4-0.9-0.8-1.5-1c-0.6-0.2-1.2-0.4-1.8-0.4c-0.6,0-1.3,0.1-1.8,0.4c-0.6,0.2-1.1,0.6-1.5,1c-0.4,0.4-0.8,0.9-1,1.5
				c-0.3,0.6-0.4,1.2-0.4,1.9c0,0.7,0.1,1.3,0.4,1.9c0.3,0.6,0.6,1.1,1,1.5c0.4,0.4,0.9,0.8,1.5,1C222.2,85.1,222.9,85.2,223.5,85.2
				z"/>
			<path id="XMLID_279_" class="st3" d="M246.2,73.8c0.7,0.4,1.2,1,1.7,1.6l-1.7,1.4l-0.7,0.5c-0.3-0.5-0.8-0.9-1.3-1.2
				c-0.5-0.3-1.1-0.4-1.8-0.4c-0.5,0-1,0.1-1.5,0.3c-0.5,0.2-0.8,0.5-1.2,0.8c-0.3,0.3-0.6,0.7-0.8,1.2c-0.2,0.5-0.3,0.9-0.3,1.5V85
				v3.2h-3v-8.8v-6.8h3v1.1c0.5-0.4,1.1-0.6,1.7-0.8c0.6-0.2,1.3-0.3,2-0.3c0.7,0,1.4,0.1,2,0.3C245.1,73.1,245.7,73.4,246.2,73.8z"
				/>
			<path id="XMLID_276_" class="st3" d="M259.3,81.5h-6c0.1,0.5,0.3,1,0.6,1.5c0.3,0.5,0.6,0.9,1.1,1.2c0.4,0.3,0.9,0.6,1.4,0.8
				c0.5,0.2,1.1,0.3,1.6,0.3c0.7,0,1.3-0.1,1.9-0.4c0.6-0.3,1.1-0.7,1.6-1.2h0.6h3c-0.1,0.3-0.3,0.6-0.4,0.8
				c-0.2,0.3-0.4,0.5-0.5,0.8c-0.7,0.9-1.6,1.6-2.7,2.2c-1.1,0.5-2.2,0.8-3.5,0.8c-1.1,0-2.1-0.2-3-0.6c-0.9-0.4-1.8-1-2.5-1.7
				c-0.7-0.7-1.3-1.5-1.7-2.5c-0.4-0.9-0.6-2-0.6-3c0-1.1,0.2-2.1,0.6-3c0.4-0.9,1-1.8,1.7-2.5c0.7-0.7,1.5-1.3,2.5-1.7
				c0.9-0.4,2-0.6,3-0.6c1.2,0,2.4,0.3,3.5,0.8c1.1,0.5,2,1.3,2.7,2.2c0.7,0.8,1.1,1.7,1.4,2.8c0.2,0.6,0.3,1.3,0.3,2
				c0,0.4,0,0.7-0.1,1h-3.1H259.3z M258.1,75.7c-1,0-1.8,0.2-2.6,0.7c-0.8,0.5-1.3,1.2-1.7,2h6.9h1.7c-0.1-0.2-0.2-0.3-0.3-0.5
				c-0.1-0.2-0.2-0.3-0.3-0.4c-0.5-0.6-1-1-1.7-1.3C259.5,75.8,258.8,75.7,258.1,75.7z"/>
			<path id="XMLID_274_" class="st3" d="M196.3,104.4h-2.8v12.3h-3v-12.3h-2.9v-3h2.9v-4.8h3v4.8h2.8V104.4z"/>
			<path id="XMLID_272_" class="st3" d="M210.9,102.2c0.9,0.6,1.7,1.4,2.2,2.4c0.6,1,0.8,2.1,0.8,3.3v8.9h-3v-3.2v-5.7
				c0-0.5-0.1-1-0.3-1.5c-0.2-0.5-0.5-0.9-0.8-1.2c-0.3-0.3-0.7-0.6-1.2-0.8c-0.5-0.2-0.9-0.3-1.5-0.3c-0.5,0-1,0.1-1.5,0.3
				c-0.5,0.2-0.9,0.5-1.2,0.8c-0.3,0.3-0.6,0.7-0.8,1.2c-0.2,0.5-0.3,0.9-0.3,1.5v5.7v3.2h-3v-8.9V94.5h3v7.7
				c0.5-0.4,1.1-0.6,1.8-0.8c0.6-0.2,1.3-0.3,2-0.3c0.7,0,1.4,0.1,2,0.3C209.8,101.5,210.4,101.8,210.9,102.2z"/>
			<path id="XMLID_269_" class="st3" d="M225.7,101.1c1.1,0,2.1,0.2,3.1,0.6c1,0.4,1.8,1,2.5,1.7c0.7,0.7,1.3,1.5,1.7,2.5
				c0.4,1,0.6,2,0.6,3.1v7.7h-3v-1.4c-0.7,0.5-1.4,0.9-2.2,1.2c-0.8,0.3-1.7,0.4-2.6,0.4c-1.1,0-2.1-0.2-3.1-0.6
				c-1-0.4-1.8-1-2.5-1.7c-0.7-0.7-1.3-1.5-1.7-2.5c-0.4-1-0.6-2-0.6-3.1c0-1.1,0.2-2.1,0.6-3.1c0.4-1,1-1.8,1.7-2.5
				c0.7-0.7,1.5-1.3,2.5-1.7C223.6,101.3,224.6,101.1,225.7,101.1z M225.7,113.8c0.7,0,1.3-0.1,1.9-0.4c0.6-0.3,1.1-0.6,1.5-1
				c0.4-0.4,0.8-0.9,1-1.5c0.3-0.6,0.4-1.2,0.4-1.9c0-0.7-0.1-1.3-0.4-1.9c-0.3-0.6-0.6-1.1-1-1.5c-0.4-0.4-0.9-0.8-1.5-1
				c-0.6-0.3-1.2-0.4-1.9-0.4c-0.7,0-1.3,0.1-1.9,0.4c-0.6,0.3-1.1,0.6-1.5,1c-0.4,0.4-0.8,0.9-1,1.5c-0.3,0.6-0.4,1.2-0.4,1.9
				c0,0.7,0.1,1.3,0.4,1.9c0.3,0.6,0.6,1.1,1,1.5c0.4,0.4,0.9,0.8,1.5,1C224.4,113.7,225,113.8,225.7,113.8z"/>
			<path id="XMLID_267_" class="st3" d="M248.8,102.1c0.9,0.6,1.7,1.4,2.2,2.4c0.5,1,0.8,2.1,0.8,3.3v8.9h-3v-3.2v-5.7
				c0-0.5-0.1-1-0.3-1.5c-0.2-0.5-0.5-0.9-0.8-1.2c-0.3-0.3-0.7-0.6-1.2-0.8c-0.5-0.2-0.9-0.3-1.5-0.3c-0.5,0-1,0.1-1.5,0.3
				c-0.5,0.2-0.9,0.5-1.2,0.8c-0.3,0.3-0.6,0.8-0.8,1.2c-0.2,0.5-0.3,1-0.3,1.5v5.7v3.2h-3v-8.9v-6.8h3l0,1.1
				c0.5-0.4,1.1-0.6,1.8-0.8c0.6-0.2,1.3-0.3,2-0.3c0.7,0,1.4,0.1,2,0.3C247.7,101.4,248.3,101.7,248.8,102.1z"/>
			<path id="XMLID_265_" class="st3" d="M195.7,134.7c0.3,0.4,0.5,0.8,0.7,1.3c0.2,0.5,0.2,1,0.2,1.5c0,0.7-0.2,1.3-0.4,1.8
				c-0.3,0.6-0.6,1-1.1,1.5c-0.5,0.4-1,0.7-1.6,1c-0.6,0.2-1.3,0.3-1.9,0.3c-0.9,0-1.8-0.3-2.6-0.7c-0.8-0.5-1.3-1.1-1.7-1.8
				l2.5-1.8c0.1,0.4,0.3,0.7,0.7,0.9c0.3,0.2,0.7,0.4,1.2,0.4c0.5,0,1-0.1,1.3-0.4c0.4-0.3,0.6-0.7,0.6-1.1c0-0.1,0-0.2,0-0.3V137
				c0,0,0-0.1,0-0.1c0,0,0-0.1,0-0.1c-0.1-0.3-0.4-0.6-0.8-0.8c-0.1,0-0.1-0.1-0.3-0.1l0,0c-0.3-0.2-0.6-0.3-0.9-0.5
				c-0.3-0.1-0.7-0.3-1-0.5c-0.3-0.2-0.7-0.3-1-0.5c-0.3-0.2-0.7-0.4-0.9-0.7v0l-0.1-0.1c-0.4-0.4-0.7-0.9-1-1.4
				c-0.2-0.5-0.3-1.1-0.3-1.7c0-0.6,0.2-1.1,0.4-1.7c0.3-0.5,0.6-1,1-1.3c0.4-0.4,0.9-0.7,1.5-0.9c0.6-0.2,1.2-0.3,1.8-0.3
				c0.8,0,1.6,0.2,2.3,0.6c0.7,0.4,1.2,0.9,1.6,1.5l-2.5,1.7c-0.1-0.2-0.3-0.4-0.6-0.6c-0.3-0.2-0.6-0.2-0.9-0.2
				c-0.5,0-0.8,0.1-1.2,0.3c-0.3,0.2-0.5,0.5-0.5,0.9c0,0.1,0,0.2,0,0.2c0,0.2,0.1,0.4,0.3,0.6c0.2,0.2,0.4,0.3,0.6,0.4
				c0.4,0.2,0.8,0.4,1.3,0.7c0.5,0.2,1,0.5,1.5,0.8c0.4,0.2,0.7,0.4,1.1,0.7l0.1,0.1C195.2,134.2,195.4,134.4,195.7,134.7z"/>
			<path id="XMLID_262_" class="st3" d="M208.2,126.3c1.1,0,2.1,0.2,3,0.6c0.9,0.4,1.8,1,2.5,1.7c0.7,0.7,1.3,1.5,1.7,2.5
				c0.4,0.9,0.6,2,0.6,3c0,1.1-0.2,2.1-0.6,3c-0.4,0.9-1,1.8-1.7,2.5c-0.7,0.7-1.5,1.3-2.5,1.7c-0.9,0.4-2,0.6-3,0.6
				c-0.9,0-1.8-0.1-2.6-0.4s-1.5-0.7-2.2-1.2v9.4h-3v-15.5v0c0-1.1,0.2-2.1,0.6-3c0.4-0.9,1-1.8,1.7-2.5c0.7-0.7,1.5-1.3,2.5-1.7
				C206.1,126.5,207.1,126.3,208.2,126.3z M208.2,138.9c0.7,0,1.3-0.1,1.8-0.4c0.6-0.3,1.1-0.6,1.5-1c0.4-0.4,0.8-0.9,1-1.5
				c0.3-0.6,0.4-1.2,0.4-1.9s-0.1-1.3-0.4-1.9c-0.3-0.6-0.6-1.1-1-1.5c-0.4-0.4-0.9-0.8-1.5-1c-0.6-0.3-1.2-0.4-1.8-0.4
				c-0.7,0-1.3,0.1-1.9,0.4c-0.6,0.3-1.1,0.6-1.5,1c-0.4,0.4-0.8,0.9-1,1.5c-0.2,0.6-0.4,1.2-0.4,1.9v0c0,0.7,0.1,1.3,0.4,1.9
				c0.3,0.6,0.6,1.1,1,1.5c0.4,0.4,0.9,0.8,1.5,1C206.9,138.8,207.6,138.9,208.2,138.9z"/>
			<path id="XMLID_259_" class="st3" d="M227.4,126.3c1.1,0,2.1,0.2,3.1,0.6c1,0.4,1.8,1,2.5,1.7c0.7,0.7,1.3,1.5,1.7,2.5
				c0.4,1,0.6,2,0.6,3.1v7.7h-3v-1.4c-0.7,0.5-1.4,0.9-2.2,1.2c-0.8,0.3-1.7,0.4-2.6,0.4c-1.1,0-2.1-0.2-3.1-0.6
				c-1-0.4-1.8-1-2.5-1.7c-0.7-0.7-1.3-1.5-1.7-2.5c-0.4-1-0.6-2-0.6-3.1c0-1.1,0.2-2.1,0.6-3.1c0.4-1,1-1.8,1.7-2.5
				c0.7-0.7,1.5-1.3,2.5-1.7C225.2,126.5,226.3,126.3,227.4,126.3z M227.4,139.1c0.7,0,1.3-0.1,1.9-0.4c0.6-0.3,1.1-0.6,1.5-1
				c0.4-0.4,0.8-0.9,1-1.5c0.3-0.6,0.4-1.2,0.4-1.9c0-0.7-0.1-1.3-0.4-1.9c-0.3-0.6-0.6-1.1-1-1.5c-0.4-0.4-0.9-0.8-1.5-1
				c-0.6-0.3-1.2-0.4-1.9-0.4c-0.7,0-1.3,0.1-1.9,0.4c-0.6,0.3-1.1,0.6-1.5,1c-0.4,0.4-0.8,0.9-1,1.5c-0.3,0.6-0.4,1.2-0.4,1.9
				c0,0.7,0.1,1.3,0.4,1.9c0.3,0.6,0.6,1.1,1,1.5c0.4,0.4,0.9,0.8,1.5,1C226.1,138.9,226.7,139.1,227.4,139.1z"/>
			<path id="XMLID_257_" class="st3" d="M246.9,138.9c0.8,0,1.5-0.2,2.1-0.5c0.7-0.3,1.2-0.8,1.6-1.3l2.4,1.9
				c-0.7,0.9-1.6,1.6-2.7,2.2c-1.1,0.5-2.2,0.8-3.5,0.8c-1.1,0-2.1-0.2-3-0.6c-0.9-0.4-1.8-1-2.5-1.7c-0.7-0.7-1.3-1.5-1.7-2.5
				c-0.4-0.9-0.6-2-0.6-3c0-1.1,0.2-2.1,0.6-3c0.4-0.9,1-1.8,1.7-2.5c0.7-0.7,1.5-1.3,2.5-1.7c0.9-0.4,2-0.6,3-0.6
				c1.3,0,2.4,0.3,3.5,0.8c1.1,0.5,2,1.3,2.7,2.2l-2.4,1.9c-0.4-0.6-1-1-1.6-1.3c-0.7-0.3-1.4-0.5-2.1-0.5c-0.7,0-1.3,0.1-1.9,0.4
				c-0.6,0.2-1.1,0.6-1.5,1c-0.4,0.4-0.8,0.9-1,1.5c-0.2,0.6-0.4,1.2-0.4,1.8c0,0.6,0.1,1.3,0.4,1.8c0.2,0.6,0.6,1.1,1,1.5
				c0.4,0.4,0.9,0.8,1.5,1C245.7,138.8,246.3,138.9,246.9,138.9z"/>
			<path id="XMLID_254_" class="st3" d="M265.6,135.2h-6c0.1,0.5,0.3,1,0.6,1.5c0.3,0.5,0.6,0.9,1.1,1.2c0.4,0.3,0.9,0.6,1.4,0.8
				c0.5,0.2,1.1,0.3,1.6,0.3c0.7,0,1.3-0.1,1.9-0.4c0.6-0.3,1.1-0.7,1.6-1.2h0.6h3c-0.1,0.3-0.3,0.6-0.4,0.8
				c-0.2,0.3-0.4,0.5-0.5,0.8c-0.7,0.9-1.6,1.6-2.7,2.2c-1.1,0.5-2.2,0.8-3.5,0.8c-1.1,0-2.1-0.2-3-0.6c-0.9-0.4-1.8-1-2.5-1.7
				c-0.7-0.7-1.3-1.5-1.7-2.5c-0.4-0.9-0.6-2-0.6-3c0-1.1,0.2-2.1,0.6-3c0.4-0.9,1-1.8,1.7-2.5c0.7-0.7,1.5-1.3,2.5-1.7
				c0.9-0.4,2-0.6,3-0.6c1.2,0,2.4,0.3,3.5,0.8c1.1,0.5,2,1.3,2.7,2.2c0.7,0.8,1.1,1.7,1.4,2.8c0.2,0.6,0.3,1.3,0.3,2
				c0,0.4,0,0.7-0.1,1h-3.1H265.6z M264.3,129.4c-1,0-1.8,0.2-2.6,0.7c-0.8,0.5-1.3,1.2-1.7,2h6.9h1.7c-0.1-0.2-0.2-0.3-0.3-0.5
				c-0.1-0.2-0.2-0.3-0.3-0.4c-0.5-0.6-1-1-1.7-1.3C265.7,129.5,265,129.4,264.3,129.4z"/>
			<path id="XMLID_252_" class="st3" d="M284.1,134.7c0.3,0.4,0.5,0.8,0.7,1.3c0.2,0.5,0.2,1,0.2,1.5c0,0.7-0.2,1.3-0.4,1.8
				c-0.3,0.6-0.6,1-1.1,1.5c-0.5,0.4-1,0.7-1.6,1c-0.6,0.2-1.3,0.3-1.9,0.3c-0.9,0-1.8-0.3-2.6-0.7c-0.8-0.5-1.3-1.1-1.7-1.8
				l2.5-1.8c0.1,0.4,0.3,0.7,0.7,0.9c0.3,0.2,0.7,0.4,1.2,0.4c0.5,0,1-0.1,1.3-0.4c0.4-0.3,0.6-0.7,0.6-1.1c0-0.1,0-0.2,0-0.3V137
				c0,0,0-0.1,0-0.1c0,0,0-0.1,0-0.1c-0.1-0.3-0.4-0.6-0.8-0.8c-0.1,0-0.1-0.1-0.3-0.1l0,0c-0.3-0.2-0.6-0.3-0.9-0.5
				c-0.3-0.1-0.7-0.3-1-0.5c-0.3-0.2-0.7-0.3-1-0.5c-0.3-0.2-0.7-0.4-0.9-0.7v0l-0.1-0.1c-0.4-0.4-0.7-0.9-1-1.4
				c-0.2-0.5-0.3-1.1-0.3-1.7c0-0.6,0.2-1.1,0.4-1.7c0.3-0.5,0.6-1,1-1.3c0.4-0.4,0.9-0.7,1.5-0.9c0.6-0.2,1.2-0.3,1.8-0.3
				c0.8,0,1.6,0.2,2.3,0.6c0.7,0.4,1.2,0.9,1.6,1.5l-2.5,1.7c-0.1-0.2-0.3-0.4-0.6-0.6c-0.3-0.2-0.6-0.2-0.9-0.2
				c-0.5,0-0.8,0.1-1.2,0.3c-0.3,0.2-0.5,0.5-0.5,0.9c0,0.1,0,0.2,0,0.2c0,0.2,0.1,0.4,0.3,0.6c0.2,0.2,0.4,0.3,0.6,0.4
				c0.4,0.2,0.8,0.4,1.3,0.7c0.5,0.2,1,0.5,1.5,0.8c0.4,0.2,0.7,0.4,1.1,0.7l0.1,0.1C283.7,134.2,283.9,134.4,284.1,134.7z"/>
		</g>
	</g>
</g>
</svg>
