<?xml version="1.0" encoding="utf-8"?>
<!-- Generator: Adobe Illustrator 21.0.2, SVG Export Plug-In . SVG Version: 6.00 Build 0)  -->
<svg version="1.1" id="Layer_1" xmlns="http://www.w3.org/2000/svg" xmlns:xlink="http://www.w3.org/1999/xlink" x="0px" y="0px"
	 viewBox="0 0 200 101.9" style="enable-background:new 0 0 200 101.9;" xml:space="preserve">
<style type="text/css">
	.st0{fill:#006CB5;}
	.st1{fill:#FFFFFF;}
	.st2{fill:#808184;}
</style>
<title>logos</title>
<path class="st0" d="M195.4,32.8c-1.2,0-2.1-0.9-2.1-2.1c0-1.3,1-2.1,2.1-2.1c1.1,0,2.1,0.8,2.1,2.1C197.5,32,196.5,32.8,195.4,32.8
	 M195.4,29c-0.9,0-1.6,0.7-1.6,1.7c0,1,0.6,1.7,1.6,1.7c0.9,0,1.6-0.7,1.6-1.7C197.1,29.7,196.3,29,195.4,29z M195,31.9h-0.4v-2.3
	h0.9c0.6,0,0.8,0.2,0.8,0.7c0,0.4-0.3,0.6-0.6,0.6l0.7,1H196l-0.6-1H195V31.9z M195.5,30.6c0.3,0,0.5,0,0.5-0.4
	c0-0.3-0.3-0.3-0.5-0.3H195v0.7H195.5z"/>
<polyline class="st1" points="57.9,58.9 59.3,58.9 59,65.7 59,65.7 61.6,58.9 63.1,58.9 62.8,65.8 62.8,65.8 65.4,58.9 66.8,58.9 
	63.2,67.7 61.6,67.7 61.9,61.1 61.8,61.1 59.3,67.7 57.7,67.7 57.9,58.9 "/>
<path class="st1" d="M67.3,58.9h1.3L68,61.8l0,0c0.5-0.6,1.1-0.9,1.8-0.9c1,0,1.5,0.5,1.3,1.8l-1.1,5h-1.3l1-4.5
	c0.2-0.9,0-1.2-0.7-1.2c-0.5,0-1.1,0.4-1.3,1.3l-0.9,4.4h-1.3L67.3,58.9"/>
<path class="st1" d="M75.2,63.6l0.1-0.4c0.2-0.8,0-1.5-0.7-1.5c-0.8,0-1.3,0.8-1.5,1.7l0,0.1H75.2 M72.9,64.5l-0.1,0.4
	c-0.2,0.9-0.3,2,0.7,2c0.9,0,1.3-1.1,1.4-1.5h1.3c-0.3,1.5-1.4,2.4-2.8,2.4c-1.1,0-2.4-0.3-1.7-3.4c0.4-1.7,1.1-3.6,3.2-3.6
	c1.8,0,2.1,1.1,1.7,2.9l-0.2,0.7H72.9z"/>
<path class="st1" d="M77.9,61.1h1.3l-0.2,1h0c0.5-0.7,1-1.2,1.8-1.2c0.1,0,0.2,0,0.3,0l-0.3,1.4c-0.1,0-0.3-0.1-0.5-0.1
	c-0.6,0-1.4,0.3-1.6,1.5l-0.8,4h-1.3L77.9,61.1"/>
<path class="st1" d="M84.2,63.6l0.1-0.4c0.2-0.8,0-1.5-0.7-1.5c-0.8,0-1.3,0.8-1.5,1.7l0,0.1H84.2 M81.9,64.5l-0.1,0.4
	c-0.2,0.9-0.3,2,0.7,2c0.9,0,1.3-1.1,1.4-1.5h1.3c-0.3,1.5-1.4,2.4-2.8,2.4c-1.1,0-2.4-0.3-1.7-3.4c0.4-1.7,1.1-3.6,3.2-3.6
	c1.8,0,2.1,1.1,1.7,2.9l-0.1,0.7H81.9z"/>
<path class="st0" d="M94.2,64.5l0,0.2c-0.3,1.6-1.3,3.1-3.4,3.1c-2.2,0-2.6-1.4-1.9-4.6c0.7-3.1,1.7-4.6,3.9-4.6
	c2.5,0,2.2,1.8,2.1,2.8l0,0.2h-1.4l0-0.1c0.2-0.8,0.1-1.7-0.9-1.7c-1,0-1.6,0.6-2.2,3.5c-0.6,2.8-0.3,3.5,0.7,3.5
	c1.2,0,1.6-1.3,1.8-2.1l0-0.1H94.2"/>
<path class="st0" d="M96.5,66.9c1,0,1.3-0.8,1.7-2.5c0.3-1.5,0.4-2.5-0.6-2.5c-1,0-1.3,1-1.7,2.5C95.6,66.1,95.6,66.9,96.5,66.9
	 M97.8,60.9c1.9,0,2.2,1.4,1.7,3.5c-0.4,2.1-1.4,3.5-3.2,3.5c-1.8,0-2.2-1.4-1.7-3.5C95,62.3,95.9,60.9,97.8,60.9"/>
<path class="st0" d="M101,61.1h1.3l-0.2,0.8h0c0.5-0.6,1.2-0.9,1.9-0.9c1,0,1.6,0.5,1.3,1.8l-1.1,5h-1.3l1-4.5
	c0.2-0.9,0-1.2-0.7-1.2c-0.5,0-1.1,0.4-1.3,1.3l-0.9,4.4h-1.3L101,61.1"/>
<path class="st0" d="M106.1,61.1h0.9l0.4-1.9h1.3l-0.4,1.9h1.1l-0.2,1h-1.1l-0.8,3.9c-0.1,0.5,0,0.7,0.5,0.7c0.2,0,0.4,0,0.5,0
	l-0.2,1c-0.3,0.1-0.7,0.1-1.1,0.1c-0.9,0-1.3-0.2-1-1.6l0.9-4.1h-0.9L106.1,61.1"/>
<path class="st0" d="M112.5,63.6l0.1-0.4c0.2-0.8,0-1.5-0.7-1.5c-0.8,0-1.3,0.8-1.5,1.7l0,0.1H112.5 M110.2,64.5l-0.1,0.4
	c-0.2,0.9-0.3,2,0.7,2c0.9,0,1.3-1.1,1.4-1.5h1.3c-0.3,1.5-1.4,2.4-2.8,2.4c-1.1,0-2.4-0.3-1.7-3.4c0.4-1.7,1.1-3.6,3.2-3.6
	c1.8,0,2.1,1.1,1.7,2.9l-0.1,0.7H110.2z"/>
<path class="st0" d="M115.3,61.1h1.3l-0.2,0.8h0c0.5-0.6,1.2-0.9,1.9-0.9c1,0,1.5,0.5,1.3,1.8l-1.1,5h-1.3l1-4.5
	c0.2-0.9,0-1.2-0.7-1.2c-0.5,0-1.1,0.4-1.3,1.3l-0.9,4.4h-1.3L115.3,61.1"/>
<path class="st0" d="M120.3,61.1h0.9l0.4-1.9h1.3l-0.4,1.9h1.1l-0.2,1h-1.1l-0.8,3.9c-0.1,0.5,0,0.7,0.5,0.7c0.2,0,0.4,0,0.5,0
	l-0.2,1c-0.3,0.1-0.7,0.1-1.1,0.1c-0.9,0-1.3-0.2-1-1.6l0.9-4.1h-0.9L120.3,61.1"/>
<path class="st1" d="M131.3,64.5l0,0.2c-0.3,1.6-1.3,3.1-3.4,3.1c-2.2,0-2.6-1.4-1.9-4.6c0.7-3.1,1.7-4.6,3.9-4.6
	c2.5,0,2.2,1.8,2.1,2.8l0,0.2h-1.4l0-0.1c0.2-0.8,0.1-1.7-0.9-1.7c-1,0-1.6,0.6-2.2,3.5c-0.6,2.8-0.3,3.5,0.7,3.5
	c1.2,0,1.6-1.3,1.8-2.1l0-0.1H131.3"/>
<path class="st1" d="M133.7,66.9c1,0,1.3-0.8,1.7-2.5c0.3-1.5,0.4-2.5-0.6-2.5c-1,0-1.3,1-1.7,2.5C132.7,66.1,132.7,66.9,133.7,66.9
	 M134.9,60.9c1.9,0,2.2,1.4,1.7,3.5c-0.4,2.1-1.4,3.5-3.2,3.5c-1.8,0-2.2-1.4-1.7-3.5C132.2,62.3,133,60.9,134.9,60.9"/>
<path class="st1" d="M138.2,61.1h1.3l-0.2,0.8h0c0.5-0.6,1.2-0.9,1.8-0.9c0.9,0,1.2,0.5,1.3,1c0.5-0.6,1.1-1,1.9-1
	c0.9,0,1.5,0.5,1.2,1.8l-1.1,5h-1.3l1-4.5c0.2-0.9,0-1.2-0.5-1.2c-0.5,0-1.1,0.4-1.3,1.3l-0.9,4.4H140l1-4.5c0.2-0.9,0-1.2-0.6-1.2
	c-0.5,0-1.1,0.4-1.3,1.3l-0.9,4.4h-1.3L138.2,61.1"/>
<path class="st1" d="M149.7,63.6l0.1-0.4c0.2-0.8,0-1.5-0.7-1.5c-0.8,0-1.3,0.8-1.5,1.7l0,0.1H149.7 M147.4,64.5l-0.1,0.4
	c-0.2,0.9-0.3,2,0.7,2c0.9,0,1.3-1.1,1.4-1.5h1.3c-0.3,1.5-1.4,2.4-2.8,2.4c-1.1,0-2.4-0.3-1.7-3.4c0.4-1.7,1.1-3.6,3.2-3.6
	c1.8,0,2.1,1.1,1.7,2.9l-0.2,0.7H147.4z"/>
<path class="st1" d="M154.9,63l0-0.2c0.1-0.5,0-1-0.7-1c-0.5,0-1,0.2-1.1,0.9c-0.1,0.5,0.1,0.7,0.7,1l0.8,0.3c0.9,0.3,1.3,0.9,1,1.9
	c-0.3,1.4-1.5,2-2.8,2c-1.7,0-2-0.8-1.7-2l0.1-0.2h1.2l0,0.2c-0.2,0.8,0,1.2,0.8,1.2c0.7,0,1.2-0.4,1.3-1c0.1-0.5-0.1-0.8-0.5-1
	l-1-0.4c-0.9-0.3-1.2-0.8-1-1.9c0.3-1.2,1.3-1.8,2.6-1.8c1.7,0,1.9,1,1.7,1.8l-0.1,0.3H154.9"/>
<path class="st1" d="M159.1,61.1h0.9l0.4-1.9h1.3l-0.4,1.9h1.1l-0.2,1h-1.1l-0.8,3.9c-0.1,0.5,0,0.7,0.5,0.7c0.2,0,0.4,0,0.5,0
	l-0.2,1c-0.3,0.1-0.7,0.1-1.1,0.1c-0.9,0-1.3-0.2-1-1.6l0.9-4.1h-0.9L159.1,61.1"/>
<path class="st1" d="M163.9,66.9c1,0,1.3-0.8,1.7-2.5c0.3-1.5,0.4-2.5-0.6-2.5c-1,0-1.3,1-1.7,2.5C162.9,66.1,162.9,66.9,163.9,66.9
	 M165.1,60.9c1.9,0,2.2,1.4,1.7,3.5c-0.4,2.1-1.4,3.5-3.2,3.5c-1.8,0-2.2-1.4-1.7-3.5C162.4,62.3,163.2,60.9,165.1,60.9"/>
<polyline class="st1" points="171,58.9 172.4,58.9 170.8,66.5 174.2,66.5 173.9,67.7 169.1,67.7 171,58.9 "/>
<path class="st1" d="M176.4,58.8h1.3l-0.3,1.3h-1.3L176.4,58.8 M175.9,61.1h1.3l-1.4,6.6h-1.3L175.9,61.1z"/>
<path class="st1" d="M178.5,62.1h-0.9l0.2-1h0.9l0.1-0.6c0.3-1.3,1-1.6,2-1.6c0.3,0,0.5,0,0.7,0l-0.2,1H181c-0.5,0-0.8,0.2-0.8,0.6
	l-0.1,0.6h1.1l-0.2,1h-1.1l-1.2,5.6h-1.3L178.5,62.1"/>
<path class="st1" d="M184.2,63.6l0.1-0.4c0.2-0.8,0-1.5-0.7-1.5c-0.8,0-1.3,0.8-1.5,1.7l0,0.1H184.2 M181.9,64.5l-0.1,0.4
	c-0.2,0.9-0.3,2,0.7,2c0.9,0,1.3-1.1,1.4-1.5h1.3c-0.3,1.5-1.4,2.4-2.8,2.4c-1.1,0-2.4-0.3-1.7-3.4c0.4-1.7,1.1-3.6,3.2-3.6
	c1.8,0,2.1,1.1,1.7,2.9l-0.1,0.7H181.9z"/>
<polyline class="st1" points="22.5,51.2 8,35.4 8,51.2 3,51.2 3,28.7 8.4,28.7 22.8,44.5 22.8,28.7 27.9,28.7 27.9,51.2 22.5,51.2 
	"/>
<path class="st1" d="M58.4,51.2v-8.3l2.8-5.5h-2.8v-8.7l16.7,0c2.1,0,3.9,0.6,5.2,1.8c1.3,1.2,2,2.9,2,4.8c0,1.7-0.6,3.2-1.8,4.3
	c1.7,1.1,2.7,3,2.6,5.4c0,2-0.7,3.7-2.2,4.8c-1.5,1.1-3.5,1.5-6.1,1.5H58.4 M74.8,46.5c1.3,0,2.1-0.2,2.6-0.6
	c0.4-0.3,0.7-0.7,0.7-1.5c0-0.9-0.2-1.3-0.6-1.7c-0.4-0.3-1.1-0.6-2.1-0.6H63.2v4.3H74.8z M75.1,37.4c0.7,0,1.3-0.2,1.7-0.6
	c0.5-0.4,0.6-0.8,0.6-1.4c0-0.7-0.2-1.1-0.5-1.4c-0.4-0.3-0.9-0.5-1.7-0.5l-12,0v4H75.1"/>
<polyline class="st0" points="127.2,51.2 127.2,41.9 113.6,41.9 113.6,51.2 108.8,51.2 108.8,28.7 113.6,28.7 113.6,37.2 
	127.2,37.2 127.2,28.7 132,28.7 132,51.2 127.2,51.2 "/>
<path class="st0" d="M147,51.8c-3.5,0-6.5-1-8.9-3c-2.7-2.2-4.1-5.3-4.1-8.9c0-3.6,1.4-6.6,4.2-8.9c2.4-2,5.4-3,8.9-3
	c3.5,0,6.5,1,8.8,3c2.7,2.3,4.2,5.3,4.2,8.9c0,3.6-1.4,6.7-4.1,8.9C153.5,50.8,150.5,51.8,147,51.8C147,51.8,147,51.8,147,51.8
	 M141.1,34.9c-1.5,1.4-2.2,3-2.2,5.1c0,2.2,0.7,3.8,2.2,5.1c1.5,1.3,3.4,2,6,2c2.5,0,4.5-0.7,5.9-2c1.4-1.3,2.1-2.9,2.2-5.1
	c0-2.2-0.8-3.9-2.5-5.3c-1.5-1.2-3.3-1.8-5.5-1.8C144.5,32.8,142.6,33.5,141.1,34.9z"/>
<polyline class="st0" points="180.1,51.2 175.7,35.9 171.4,51.2 165.9,51.2 158.8,28.7 164.2,28.7 168.6,44 173,28.7 178.5,28.7 
	182.9,44.1 187.3,28.7 192.7,28.7 185.6,51.2 180.1,51.2 "/>
<polyline class="st2" points="53.4,41.4 57,34.5 53.2,34.5 51.5,37.8 "/>
<polyline class="st2" points="47.8,45.1 42.4,55.5 46.1,55.5 49.6,48.7 "/>
<polyline class="st2" points="37.6,46.8 29.6,62.3 33.3,62.3 41.3,46.8 37.6,46.8 "/>
<polyline class="st0" points="43.6,44.3 30.6,69.3 34.3,69.3 47.3,44.3 43.6,44.3 "/>
<polyline class="st0" points="56.1,38.2 42.7,64.1 46.4,64.1 59.8,38.2 56.1,38.2 "/>
<polyline class="st1" points="45.8,28.7 40.5,28.7 28.8,51.2 34.4,51.2 43.2,34.3 49.5,46.5 50.1,47.8 52.9,42.5 45.8,28.7 "/>
<polyline class="st1" points="54,51.2 57.4,51.2 55.7,47.9 54,51.2 "/>
<path class="st0" d="M104.9,39.3c-1.3-1.1-3.2-1.8-5.7-2.1c-0.9-0.1-2.6-0.3-5.3-0.5c-1.7-0.1-3-0.3-3.6-0.6
	c-0.9-0.4-1.1-0.7-1.1-1.3c0-0.5,0.2-0.9,1.1-1.3c0.8-0.4,2.2-0.7,4.1-0.7c2.8,0,5.5,0.7,8.2,2.3l0.6,0.3l0.4-0.5l2.5-3l-0.7-0.5
	c-2.9-2.2-6.5-3.2-10.8-3.2c-3.1,0-5.7,0.6-7.5,1.8c-1.9,1.2-2.9,3.1-2.9,5.3c0,2.1,0.9,3.9,2.6,4.8c1.5,0.8,3.7,1.2,6.9,1.5
	c3.5,0.2,5.7,0.5,6.3,0.7c1.3,0.4,1.7,0.9,1.7,1.9c0,0.8-0.3,1.4-1.3,2c-1,0.6-2.6,0.9-4.8,0.9c-3.3,0-6.3-0.9-9.1-2.9L86.3,44
	l-2.7,3.8l0.2,0.2c2.9,2.5,6.9,3.7,11.8,3.7c3.4,0,6.2-0.6,8.1-2c2-1.3,3.1-3.4,3-5.8C106.9,42,106.2,40.4,104.9,39.3"/>
</svg>
