<?xml version="1.0" encoding="utf-8"?>
<!-- Generator: Adobe Illustrator 21.1.0, SVG Export Plug-In . SVG Version: 6.00 Build 0)  -->
<svg version="1.1" id="icons" xmlns="http://www.w3.org/2000/svg" xmlns:xlink="http://www.w3.org/1999/xlink" x="0px" y="0px"
	 viewBox="0 0 200 101.9" style="enable-background:new 0 0 200 101.9;" xml:space="preserve">
<style type="text/css">
	.st0{fill:#FFFFFF;}
	.st1{fill:#2A4EC4;}
</style>
<g>
	<path class="st0" d="M98.3,62c0-7.2,0-14.3,0-21.5c0.4,0,0.8-0.1,1.2-0.1c5.9,0,11.9,0,17.8,0c1.4,0,2.9,0.2,4.3,0.7
		c3.9,1.3,4.7,6.2,1.6,8.8c-0.1,0.1-0.3,0.2-0.5,0.4c2.2,1.4,3.3,3.3,3.1,5.9c-0.2,2.4-1.4,4.1-3.6,4.8c-1.5,0.5-3.1,0.9-4.7,0.9
		c-6.2,0.1-12.4,0-18.6,0C98.8,62,98.6,62,98.3,62z M102.6,58.4c5.3,0,10.5,0,15.7,0c0.4,0,0.9-0.1,1.3-0.3c1.3-0.4,1.9-1.3,2-2.6
		c0-1.3-0.6-2.2-1.9-2.6c-0.7-0.2-1.4-0.3-2.1-0.4c-4.8,0-9.6,0-14.3,0c-0.2,0-0.4,0.1-0.6,0.1C102.6,54.5,102.6,56.4,102.6,58.4z
		 M102.6,48.9c0.3,0,0.5,0.1,0.7,0.1c4.5,0,9,0,13.6,0c0.7,0,1.4-0.1,2.1-0.2c1.4-0.3,2-1.1,1.9-2.4c-0.1-1.5-1-2.3-3.1-2.3
		c-4.9-0.1-9.9,0-14.8,0c-0.1,0-0.1,0.1-0.2,0.1C102.6,45.6,102.6,47.2,102.6,48.9z"/>
	<path class="st0" d="M160.4,61.8c-1.4,0-2.6,0-3.9,0c0-2.7,0-5.4,0-8.2c-6.8,0-13.6,0-20.4,0c0,2.7,0,5.4,0,8.2c-1.4,0-2.6,0-3.9,0
		c0-0.2-0.1-0.5-0.1-0.7c0-5.2-0.1-10.4,0.1-15.6c0.1-2.9,1.5-4.4,4.3-5c1.1-0.3,2.3-0.4,3.5-0.4c4.2-0.1,8.4-0.1,12.6,0
		c1.6,0,3.2,0.4,4.7,0.9c1.9,0.6,3.1,2.1,3.1,4.1C160.5,50.6,160.4,56.2,160.4,61.8z M156.4,49.9c0-1.3,0.1-2.5,0-3.7
		c-0.1-1.5-0.6-2.1-2.1-2.4c-0.5-0.1-1.1-0.2-1.6-0.2c-4.3,0-8.6,0-12.8,0c-0.8,0-1.6,0.1-2.3,0.4c-0.6,0.3-1.3,1-1.3,1.5
		c-0.2,1.4-0.1,2.9-0.1,4.3C143,49.9,149.6,49.9,156.4,49.9z"/>
	<path class="st0" d="M171.5,53.7c0,2.7,0,5.4,0,8.1c-1.3,0-2.6,0-3.9,0c0-0.2-0.1-0.4-0.1-0.6c0-5.3,0-10.6,0-15.9
		c0-2.2,1.1-3.8,3.1-4.5c1.5-0.5,3-0.8,4.6-0.8c4.2-0.1,8.5-0.1,12.7,0c1.6,0,3.3,0.4,4.8,0.9c1.9,0.6,2.9,2.2,3,4.2
		c0.1,5.4,0,10.7,0,16.1c0,0.1,0,0.3-0.1,0.5c-1.3,0-2.5,0-3.9,0c0-2.7,0-5.4,0-8.2C185.1,53.7,178.4,53.7,171.5,53.7z M191.7,50
		c0.1-0.2,0.1-0.3,0.1-0.4c0-1,0-2,0-3c0-1.8-0.7-2.6-2.5-2.8c-0.5-0.1-0.9-0.1-1.4-0.1c-4.2,0-8.4,0-12.6,0c-0.8,0-1.6,0-2.2,0.3
		c-0.6,0.3-1.4,0.9-1.5,1.5c-0.2,1.4-0.1,2.9-0.1,4.4C178.3,50,185,50,191.7,50z"/>
	<path class="st0" d="M86.9,40.5c1.4,0,2.7,0,4,0c0,7.2,0,14.3,0,21.6c-1.2,0-2.4,0-3.5,0c-0.4,0-0.7-0.4-1-0.6
		c-6.2-5.2-12.3-10.5-18.4-15.7c-0.3-0.2-0.6-0.5-1.1-0.8c0,5.8,0,11.4,0,17.1c-1.4,0-2.7,0-4.1,0c0-7.1,0-14.3,0-21.5
		c1.4,0,2.8-0.1,4.1,0c0.4,0,0.9,0.4,1.2,0.7c5.8,5,11.7,9.9,17.5,14.9c0.3,0.3,0.7,0.6,1.2,1C86.9,51.4,86.9,46,86.9,40.5z"/>
	<path class="st1" d="M4,56.2c2.6,0.2,5,0.6,7.5,0.7c7.8,0.3,15.5,0.6,23.3,0.6c5.1,0.1,10.3-0.3,15.3-1.3c1.1-0.2,2.2-0.6,3.5-1
		c-0.2,1.1-0.4,2.2-0.7,3.3c-0.1,0.4-0.8,0.8-1.2,0.9c-2.6,0.5-5.2,1.2-7.8,1.4c-5.7,0.3-11.3,0.5-17,0.4
		c-6.9-0.2-13.7-0.8-20.6-1.2c-0.9-0.1-1.4-0.4-1.6-1.3C4.5,57.7,4.3,57,4,56.2z"/>
	<path class="st1" d="M6.3,61.8c7.7,0.3,15.2,0.7,22.8,0.8c7.5,0.1,15.1,0.4,22.4-1.5c-0.8,2.4-3.3,4.5-5.9,4.6
		c-7.4,0.2-14.8,0.4-22.1,0.4c-4.1,0-8.2-0.5-12.4-0.7C8.5,65.3,7.6,63.4,6.3,61.8z"/>
	<path class="st1" d="M53.1,51.9c-3.8-2.7-8-3.2-12.4-3.2c-12.4-0.1-24.3,2.5-36,6.4c-0.2,0.1-0.4,0.1-0.7,0.2c0-0.9-0.1-1.8,0-2.6
		c0.1-0.4,0.6-0.8,1-0.9c4.9-1.3,9.7-2.7,14.6-3.7c7.5-1.6,15-2.6,22.7-2.2c2.3,0.1,4.7,0.8,7,1.2C52,47.6,52.8,49.4,53.1,51.9z"/>
	<path class="st1" d="M4.8,49.7c0.6-1.1,1-2,1.5-2.9C6.6,46.5,7,46.1,7.5,46c8.4-2.4,17-4.3,25.7-5.2c3.7-0.4,7.3-0.5,11,0.4
		c2.4,0.6,3.9,2.3,5.6,4c-4.8-1.6-9.7-1.5-14.6-1.2c-6.7,0.4-13.3,1.5-19.8,3.1c-3.2,0.8-6.4,1.7-9.6,2.5
		C5.4,49.6,5.2,49.6,4.8,49.7z"/>
	<path class="st1" d="M44.8,67.5c-8,5.4-24.7,5.3-32.7-0.4C23.1,68.1,33.9,68.5,44.8,67.5z"/>
	<path class="st1" d="M39.2,38.8c-10.2,0.2-20,2.4-29.8,5C15.2,37.9,29,35,39.2,38.8z"/>
</g>
</svg>
