<?xml version="1.0" encoding="utf-8"?>
<!-- Generator: Adobe Illustrator 21.1.0, SVG Export Plug-In . SVG Version: 6.00 Build 0)  -->
<svg version="1.1" id="icons" xmlns="http://www.w3.org/2000/svg" xmlns:xlink="http://www.w3.org/1999/xlink" x="0px" y="0px"
	 viewBox="0 0 200 101.9" style="enable-background:new 0 0 200 101.9;" xml:space="preserve">
<style type="text/css">
	.st0{fill:#FFFFFF;}
	.st1{fill:#717F85;}
	.st2{fill:#98A8AF;}
	.st3{fill:#B7C9D0;}
	.st4{fill:#964D9E;}
	.st5{opacity:0.8;fill:url(#SVGID_3_);}
	.st6{fill:#D9C5E0;}
	.st7{fill:#0096D6;}
	.st8{opacity:0.8;fill:url(#SVGID_4_);}
	.st9{fill:#8ED8F8;}
	.st10{fill:#5FBA73;}
	.st11{opacity:0.8;fill:url(#SVGID_5_);}
	.st12{fill:#AED35B;}
	.st13{fill:#EF363B;}
	.st14{opacity:0.8;fill:url(#SVGID_6_);}
	.st15{fill:#F69679;}
	.st16{fill:#DB7A43;}
	.st17{opacity:0.8;fill:url(#SVGID_7_);}
	.st18{fill:#E88D3C;}
	.st19{fill:#454445;}
	.st20{opacity:0.8;fill:url(#SVGID_8_);}
	.st21{fill:#231F20;}
	.st22{fill:#939598;}
	.st23{opacity:0.8;fill:url(#SVGID_9_);}
	.st24{fill:#D1D3D4;}
	.st25{fill:#DCDDDE;}
	.st26{fill:#808285;}
	.st27{fill:#DB921F;}
	.st28{opacity:0.8;fill:url(#SVGID_10_);}
	.st29{fill:#FFDD00;}
	.st30{fill:#F1A555;}
	.st31{fill:#824D00;}
	.st32{fill:#F9A01B;}
</style>
<g>
	<g>
		<path class="st0" d="M153.2,61.1h-0.6v0.3c0,0.3,0.1,0.4,0.3,0.4c0.2,0,0.3-0.1,0.3-0.4V61.1z M152.9,62.1c-0.2,0-0.4-0.1-0.5-0.4
			l-0.8,0.4v-0.4l0.7-0.3v-0.3h-0.7v-0.3h1.7v0.6C153.4,61.9,153.2,62.1,152.9,62.1 M153.4,62.3c0.3-0.2,0.4-0.6,0.4-0.9
			c0-0.3-0.1-0.7-0.4-0.9c-0.3-0.3-0.6-0.4-0.9-0.4c-0.3,0-0.7,0.1-0.9,0.4c-0.2,0.2-0.4,0.6-0.4,0.9c0,0.3,0.1,0.7,0.4,0.9
			c0.2,0.2,0.6,0.4,0.9,0.4C152.8,62.7,153.2,62.6,153.4,62.3 M153.5,62.5c-0.3,0.3-0.6,0.4-1,0.4c-0.4,0-0.8-0.2-1-0.4
			c-0.3-0.3-0.4-0.7-0.4-1.1c0-0.4,0.2-0.8,0.4-1c0.3-0.3,0.6-0.4,1-0.4s0.8,0.2,1.1,0.4c0.3,0.3,0.4,0.6,0.4,1
			C154,61.8,153.8,62.2,153.5,62.5"/>
		<polygon class="st0" points="44.8,52 44.8,50.5 52.6,50.8 52.5,53.3 45.9,56.3 45.9,56.4 52.4,56.5 52.4,58 44.6,57.7 44.7,55.2 
			51.3,52.2 51.3,52.1 		"/>
		<path class="st0" d="M46.9,45.5L46.9,45.5l3.7,2.1l0.5-2.6L46.9,45.5z M51.6,48.2l1.3,0.8l-0.3,1.5l-7.1-4l0.4-2.1l8.1-1.1
			l-0.3,1.5l-1.5,0.2L51.6,48.2z"/>
		<polygon class="st0" points="55.3,40 54.8,41.4 48.7,39.3 47.9,41.4 46.7,41 48.7,35.3 49.9,35.7 49.1,37.9 		"/>
		<polygon class="st0" points="56.9,36.1 56.3,37.4 49.2,34.2 49.9,32.9 		"/>
		<path class="st0" d="M53.7,31.4l1.8,1.1c1.3,0.8,1.6,0.6,2.4-0.7c0.7-1.2,0.8-1.7-0.5-2.4l-1.8-1.1c-1.2-0.8-1.6-0.4-2.3,0.8
			C52.4,30.4,52.6,30.7,53.7,31.4 M56.3,27l1.8,1.1c2.1,1.3,2.1,2.3,0.9,4.3c-1.2,2.1-2,2.6-4.2,1.3l-1.8-1.1
			c-2.1-1.2-2-2.1-0.8-4.3C53.3,26.5,54.1,25.7,56.3,27"/>
		<polygon class="st0" points="58.7,19.5 59.7,18.4 65.6,23.4 64,25.2 56.9,23.6 56.9,23.7 62,27.7 61,28.9 55,23.9 56.6,22 
			63.8,23.6 63.8,23.6 		"/>
		<path class="st0" d="M64.4,15.7L64.4,15.7l1.6,3.9l2-1.7L64.4,15.7z M66.5,20.7l0.6,1.4l-1.2,1l-3.1-7.6l1.7-1.4l7.1,4.2l-1.1,1
			L69,18.5L66.5,20.7z"/>
		<polygon class="st0" points="72.4,16.3 75.5,14.3 76.2,15.4 71.9,18.1 67.7,11.6 68.9,10.8 		"/>
		<polygon class="st0" points="86,11.2 84.6,11.7 83.4,8.6 80,9.9 81.2,13 79.8,13.5 77.1,6.2 78.5,5.7 79.6,8.7 83,7.4 81.9,4.5 
			83.3,3.9 		"/>
		<path class="st0" d="M88.7,3.9L88.7,3.9l-0.5,4.2l2.6-0.5L88.7,3.9z M88,9.2l-0.2,1.5l-1.5,0.3l1-8.1l2.2-0.4l4.1,7.1l-1.5,0.3
			l-0.8-1.3L88,9.2z"/>
		<path class="st0" d="M97.2,5.6c1.1,0,1.4-0.3,1.3-1.4c0-1.1-0.3-1.3-1.3-1.2l-2.1,0.1l0.1,2.6L97.2,5.6z M95.3,7l0.1,2.6l-1.5,0.1
			l-0.3-7.7l4-0.2c1.7,0,2.4,0.5,2.5,2.2c0.1,1.1,0,2-1.3,2.2l0,0c1.1,0,1.3,0.6,1.4,1.7l0.1,1.4l-1.5,0.1L98.6,8
			c0-0.6-0.3-1.1-1-1.1L95.3,7z"/>
		<path class="st0" d="M105.2,8.5c1,0.1,1.4-0.7,1.5-1.6l0.2-1.8c0.1-1.3-0.2-1.6-1.4-1.8l-2.2-0.2l-0.6,5.2L105.2,8.5z M102,1.7
			l3.7,0.4c2.1,0.2,3,1.1,2.7,3.2l-0.2,1.8c-0.2,1.6-0.8,3-3.1,2.7l-3.9-0.4L102,1.7z"/>
		<polygon class="st0" points="119.9,5.6 121.4,6.1 117,12.8 114.9,12.2 115.3,6.1 115.2,6 111.9,11.2 109.9,10.5 110.3,2.5 
			111.7,3 111.3,9.7 111.3,9.7 115,4 116.7,4.6 116.3,11.3 116.3,11.3 		"/>
		<path class="st0" d="M125,9.5L125,9.5l-3.1,2.9l2.4,1.3L125,9.5z M121,13.2l-1.1,1.1l-1.4-0.7l6-5.5l1.9,1.1l-1.5,8l-1.3-0.7
			l0.3-1.5L121,13.2z"/>
		<path class="st0" d="M130.3,16.3c0.9,0.7,1.2,0.7,1.9-0.2c0.7-0.9,0.6-1.1-0.2-1.8l-1.6-1.3l-1.6,2.1L130.3,16.3z M128,16.1
			l-1.6,2l-1.2-0.9l4.8-6.1l3.1,2.4c1.3,1.1,1.5,1.9,0.4,3.3c-0.7,0.9-1.3,1.5-2.4,0.9l0,0c0.8,0.7,0.6,1.3,0,2.2l-0.9,1.1l-1.2-0.9
			l0.9-1.1c0.4-0.5,0.5-1-0.1-1.5L128,16.1z"/>
		<polygon class="st0" points="135.2,19.6 137.7,22.2 136.8,23.1 134.3,20.5 132.8,21.9 135.5,24.6 134.6,25.5 130.8,21.7 
			136.4,16.3 140.1,20.1 139.2,21 136.6,18.3 		"/>
		<path class="st0" d="M140,28.7l-0.3,0.2c-0.8,0.5-0.6,0.8,0.1,2c0.7,1.2,1,1.2,1.8,0.7c0.9-0.6,0.5-1-0.1-2
			c-0.8-1.5-1.5-2.6,0.4-3.8c1.8-1.1,2.6,0,3.6,1.6c0.8,1.3,1.5,2.5-0.3,3.5L145,31l-0.8-1.3l0.2-0.1c0.7-0.4,0.6-0.7,0-1.6
			c-0.8-1.3-1-1.4-1.7-0.9c-0.8,0.5-0.7,0.7,0,2c1.1,2.1,1.4,2.7-0.3,3.8c-1.9,1.1-2.6,0.4-3.6-1.3c-0.9-1.5-1.8-2.7,0.1-3.9
			l0.3-0.2L140,28.7z"/>
		<polygon class="st0" points="143.4,40.8 142.8,39.4 145.9,38.1 144.4,34.8 141.4,36.1 140.8,34.7 148,31.7 148.5,33 145.6,34.3 
			147,37.6 150,36.4 150.5,37.7 		"/>
		<path class="st0" d="M148.9,41.8l-2,0.5c-1.5,0.4-1.6,0.7-1.2,2.1c0.3,1.3,0.6,1.7,2.1,1.4l2-0.5c1.4-0.3,1.4-0.9,1.1-2.1
			C150.4,41.6,150.1,41.5,148.9,41.8 M150.1,46.7l-2,0.5c-2.4,0.6-3.1-0.2-3.7-2.5c-0.6-2.3-0.4-3.3,2.1-3.9l2-0.5
			c2.3-0.6,3,0.1,3.6,2.5C152.6,45,152.5,46.1,150.1,46.7"/>
		<polygon class="st0" points="153.7,57.6 153.8,59.1 145.9,57.4 145.8,55.2 151.7,53.4 151.7,53.4 145.7,52.1 145.6,49.9 
			153.3,47.5 153.3,49 146.9,51 146.9,51 153.5,52.5 153.6,54.2 147.1,56.2 147.1,56.2 		"/>
	</g>
	<g>
		<path class="st1" d="M94.4,93.9c-4.9,1-10.1,1.2-10.1,1.2l0.3,1.3c0.1,0,0.1,0,0.2,0.1c0.4,0,0.7,0.1,1.2,0.1
			c2.6,0,6.2-0.8,9.1-1.5C94.7,94.3,94.4,93.9,94.4,93.9C94.4,93.9,94.4,93.9,94.4,93.9 M98.5,93.6L98.5,93.6l-0.1,0.2
			c0,0,0,0.1,0.1,0.1c0.7-0.2,1-0.3,1-0.3l0,0C98.9,93.6,98.6,93.6,98.5,93.6 M81.2,93.8c0-0.2,0.1-0.3,0.1-0.5
			c-0.3,0-0.4-0.1-0.4-0.1C80.9,93.5,81.1,93.7,81.2,93.8 M116.6,88.9c-0.9,1.2-3.5,2.5-7,3.5c-2.2,0.6-4.3,1-5.9,1
			c-0.6,0-1,0-1.5-0.1c-1.1,0.2-2,0.3-2.7,0.3c0.8,0.8,2.4,1.2,4.5,1.2c-0.5,1.3-1.2,1.6-1.9,1.6c-0.8,0-1.5-0.5-1.5-0.5
			s-0.1,1.7,2.1,1.7h0c1.6,0,2.3-1.8,2.6-2.8c1.4-0.1,2.9-0.4,4.4-0.8c1.7-0.5,3.2-1.1,4.5-1.7c0.6,0.5,1.7,1.4,2.8,1.4
			c0.3,0,0.7-0.1,1-0.3c0.3-0.2,0.6-0.4,0.8-0.6c0-0.5,0-1,0-1.5c-0.3,0.4-0.8,1.1-1.7,1.1c-0.5,0-1-0.2-1.7-0.7
			c1.6-1,2.6-2.1,2.9-3.1c0.1,0,0.1,0,0.2-0.1c0-0.2,0-0.3,0-0.3C117.9,88.4,117.3,88.7,116.6,88.9 M123.4,85.9
			c-0.7,0.4-1.1,0.6-1.1,0.6c0,0.3,0,0.7,0.1,1c2.9-0.8,6.8-2.1,9.1-3.5c0.3-0.6,0.5-1.2,0.7-1.8l0-0.2
			C132.1,82,128,84.2,123.4,85.9 M74.9,82.1c0-0.1,0-0.1,0-0.2c0,0-0.1,0-0.1,0C74.9,82,74.9,82,74.9,82.1 M69,86.4l0.3,0.5
			c0.2,0.1,0.4,0.2,0.5,0.3c-0.3-2,0.1-4.1,1.2-6.2c-0.1-0.2-0.1-0.3-0.1-0.3c-0.4-0.2-0.8-0.3-1.2-0.5C68.8,82.4,68.5,84.5,69,86.4
			 M134.5,80.6c0.4-0.3,1.1-0.7,1-0.9c-0.1-0.3-0.2-0.6-0.3-0.9C135,79.4,134.8,80,134.5,80.6 M116,77.2c-2.2,3.6-4.1,6.2-5.3,7.7
			c0.1-1.5,0.4-3.3,0.7-5.9c-0.7,0.2-1.3,0.4-2,0.6c-0.4,2.8-0.8,4.8-0.9,6.4c-0.2,0.1-0.5,0.1-0.7,0.2c-0.4,0.1-0.8,0.2-1.2,0.3
			c-1-1.3-2.4-2.8-4.2-5.1c-0.7,0.2-1.4,0.3-2.1,0.4c1.9,2.4,3.2,4,4.1,5.4c-1.3-0.5-3.9-1.5-7.1-3.1c-0.1,0.6-0.3,1.2-0.5,1.8
			c2.1,1,3.7,1.6,4.8,2c-1.3-0.1-3.2-0.2-5.5-0.4c-0.1,0.2-0.2,0.4-0.3,0.5c0.1,0.3,0.3,0.6,0.4,0.9c2.6,0.2,4.4,0.2,5.1,0.3
			c-1.1,0.8-1.8,1.7-2,2.5c0.6-0.1,1.2-0.1,1.8-0.2c0.6-1.4,3.6-2.9,7.3-3.9c2.1-0.6,4.1-0.9,5.6-0.9c1.1,0,2,0.2,2.5,0.5
			c0.6-0.3,1.1-0.5,1.4-0.7c-0.7-0.6-1.9-0.9-3.3-1c0.7-0.5,2-1.3,3.8-2.6c-0.1-0.6-0.1-1.2-0.2-1.7c-2,1.5-3.6,2.6-4.7,3.3
			c1-1.2,2.5-3.3,4.3-6.1c-0.2-1.1-0.3-1.7-0.3-1.7C116.9,76.8,116.4,77,116,77.2 M140.5,69.4c0.1,0.4,0.1,0.8,0.2,1.2
			c0.1-0.7,0.2-1.3,0.2-1.9C140.7,68.9,140.6,69.1,140.5,69.4 M77,71.8c-1.6,1.3-3,2.5-4.2,3.8c0.1,0.4,0.2,0.9,0.3,1.3
			c0.2,0.1,0.5,0.1,0.7,0.2c1.2-1.4,2.7-2.7,4.4-4.1c0.2,0.2,0.3,0.3,0.5,0.5c0.5-0.4,1.1-0.8,1.6-1.2c-0.2-0.2-0.3-0.3-0.5-0.5
			c2-1.4,4.3-2.8,6.7-4c0-0.1,0-0.3-0.1-0.4c0,0-1.2,0.1-3.2,0.1c-1.7,1-3.3,2-4.8,3c-1.1-1.1-2.2-2.3-3.3-3.6
			c-1-0.1-1.9-0.3-2.9-0.5C73.9,68.5,75.4,70.2,77,71.8 M130.4,68.5c-1.2,1.8-2.6,3.4-3.9,4.9c-0.9-0.2-1.7-0.3-2.7-0.4
			c-1.1,0.7-2,1.2-2.5,1.5c1.4,0,2.7,0.2,3.8,0.4c-1.2,1.2-2.4,2.3-3.5,3.3c0.1,0.7,0.2,1.3,0.2,1.9c1.7-1.4,3.4-3,5.2-4.8
			c2.1,0.6,3.7,1.5,4.9,2.7c0.9-0.7,1.4-1.2,1.6-1.3c-1.3-1.2-3-2.1-5.2-2.8c1.8-2,3.5-4.2,5.1-6.7c-0.1-0.8-0.2-1.3-0.2-1.3
			C132.6,66.7,131.5,67.6,130.4,68.5 M60.3,68.5c1.2,1.7,2.8,3.3,4.8,4.7c-1.9-2.1-3.6-4.5-5.1-7.3C60.1,66.7,60.1,67.5,60.3,68.5
			 M71.5,63c0,0,0.2,0.1,0.7,0.2c-0.2-0.3-0.4-0.6-0.6-0.9C71.6,62.5,71.5,62.7,71.5,63 M135.7,62.9c0,0.1,0,0.2,0,0.2
			c2,1.3,3.5,2.9,4.3,4.7c0.2-0.4,0.3-0.7,0.5-1.1c-0.6-2-1.9-3.7-3.9-5C136.1,62.5,135.7,62.9,135.7,62.9 M60,64
			c0.5-0.5,1-1.1,1.6-1.7c-0.4-0.3-0.8-0.6-1.2-0.9C60.3,61.4,60.1,62.3,60,64 M110,62.2c0.2,4.6,0.1,8.4-0.1,11.5
			c-1.7,0.3-3.4,0.7-5.2,1.2c-2,0.6-4,1.2-5.8,1.9c-1.8-2.6-3.8-5.8-6-9.9c-0.3,0-0.6,0.1-0.9,0.1c0.2,1.1,0.5,2.3,0.8,3.6
			c1.6,2.7,3,4.9,4.3,6.8c2.1-0.4,4.3-0.8,6.6-1.3c0,0,3.8-0.8,8.9-2.9c-0.2,0-0.4,0.1-0.7,0.1c0.2-3.2,0.3-7.1,0.1-12c0,0,0,0,0,0
			C111.9,61.3,111.3,61.7,110,62.2 M89.8,63.5c0.4,0,0.8-0.1,1.2-0.1c-0.5-1-1.1-2.1-1.6-3.3C89.6,62.1,89.8,63.5,89.8,63.5
			 M100.4,60.7c-2.4,0.7-4.8,1.4-7.1,2.3c5.5-0.9,10.8-2.7,13.9-3.9C105.1,59.6,102.7,60.1,100.4,60.7 M109.8,58.2
			c0.2-0.1,0.4-0.2,0.4-0.2c-0.1-0.4-0.3-0.7-0.4-1.1C109.8,57.4,109.8,57.8,109.8,58.2 M55.9,59.5c0.4,1,0.8,2.3,1.4,3.6
			c0.3,0.8,0.7,1.6,1.1,2.4c0-1.2,0-2.3,0-3.3c-0.5-1.3-0.8-2.5-1.1-3.8c-1.1-1.3-1.6-2.4-2-3.2C55.4,56.6,55.5,58.1,55.9,59.5
			 M125,53.4c-0.3,1.6-0.6,3.2-1,4.7c-1.3-0.1-2.7-0.2-4.2-0.2c-0.5,0-0.9,0-1.4,0c-1.5,0.9-2.6,1.5-2.6,1.5c0,0.1,0.1,0.2,0.1,0.3
			c1.3-0.1,2.6-0.1,3.8-0.1c1.3,0,2.5,0,3.7,0.1c-1,3.7-2.3,7.1-3.7,10.1c1-0.5,2-1.1,3-1.7c1-2.5,2-5.2,2.8-8.2
			c2.2,0.3,4.3,0.7,6.1,1.3c0,0,0.1-0.1,0.1-0.1c-0.2-0.6-0.3-1.2-0.5-1.7c-1.6-0.5-3.4-0.8-5.3-1.1c0.5-2.2,1-4.5,1.3-6.9
			C126.5,52.1,125.8,52.8,125,53.4 M83.1,51.2c0.6,1.5,1.3,3.1,2.1,4.7c-0.1-1.7-0.2-3.3-0.2-4.8C85,51.1,84.3,51.2,83.1,51.2
			 M73.4,52c-0.2,0.6-0.5,1.5-0.7,2.6c2.1-1.2,4.5-2.3,7-3.4c-1.3,0-2.7-0.1-4.1-0.3C74.8,51.3,74.1,51.7,73.4,52 M63.9,50.1
			c0.5,2,1.2,4.1,2.2,6.2c-1.5,1-2.8,2-4,3.1c0.5,0.3,1.1,0.6,1.7,0.9c0.9-0.8,2-1.5,3.1-2.3c0.5,0.9,1,1.9,1.6,2.9
			c0.1-1,0.3-1.9,0.5-2.8c-0.2-0.3-0.4-0.7-0.6-1c0.3-0.2,0.6-0.4,0.9-0.5c0.2-0.9,0.4-1.8,0.6-2.6c-0.8,0.5-1.6,1-2.4,1.4
			c-1.2-2.6-2.1-5.1-2.6-7.5C64.6,48.6,64.2,49.4,63.9,50.1 M142.3,46.6C142.3,46.6,142.3,46.6,142.3,46.6c0-0.1,0-0.1,0-0.1
			C142.3,46.5,142.3,46.6,142.3,46.6 M136.7,54.7c1.1-1.9,2-4,2.7-6.2c-0.6-1.6-1.3-2.9-1.8-3.9C137.7,48.2,137.4,51.6,136.7,54.7
			 M108.5,44.6c0,0.1,0,0.2,0,0.3c0.3,0.5,1.3,2.1,2.5,4.3c-0.2-2-0.4-3.8-0.7-5.6C109.8,43.9,109.2,44.2,108.5,44.6 M96,43.5
			c-2.5,0.7-5,1.4-7.3,2.2c0,1,0.1,1.6,0.1,1.6c0.9-0.1,1.9-0.3,2.8-0.5c1.6-0.5,3.3-1,5-1.5c1.6-0.4,3.3-0.9,4.9-1.2
			c1.1-0.4,1.8-0.6,1.8-0.6c-0.3-0.6-0.6-1.1-0.8-1.6C100.2,42.4,98.1,42.9,96,43.5 M134.6,42c0.6,0.1,1.1,0.3,1.7,0.4
			c-0.7-1.1-1.2-1.6-1.2-1.6C134.9,41.2,134.7,41.6,134.6,42 M55.7,50c0.2,1.8,0.7,3.2,1.3,4.3c1-2.4,2.9-4.9,5.5-7.4
			c0.1-0.4,0.2-0.6,0.2-0.6c-0.4-0.3-0.7-0.6-1-0.9c-2.4,2.3-4.2,4.6-5.1,6.8c0-4.2,0.9-8.2,2.2-11.6C56.8,43.8,55.7,50,55.7,50
			 M116.3,39.6c-0.7,0.5-1.8,1.3-3.3,2.4c2.3-0.3,4.5-0.5,6.6-0.7c-0.5-0.6-1.1-1.2-1.8-1.8C117.3,39.5,116.8,39.6,116.3,39.6
			 M78.7,39.5c0.8,2.6,1.8,5.4,3,8.6c1-0.1,2.1-0.1,3.2-0.3c0,0,0-0.3-0.1-0.8c-0.4,0.2-0.8,0.3-1.2,0.5c-1.4-3.4-2.4-6.4-3.2-9.1
			c-0.4,0-0.8,0-1.1,0C79.3,38.3,79.1,38.7,78.7,39.5 M71.5,38.4c-0.8,0.9-2.2,2.5-3.4,4.2c2.3-1.5,4.8-3,7.6-4.4
			c-0.8-0.1-1.9-0.3-2.9-0.6C72.3,37.9,71.9,38.2,71.5,38.4 M63,37.2c-0.2,1.9-0.3,3.9-0.2,6.2c0.4,0.4,0.8,0.8,1.3,1.2
			c0,0,0.7-1.1,1.7-2.6c-0.5,0.4-1.1,0.8-1.6,1.2c-0.2-2.7-0.2-5.1,0.1-7.2C63.9,36.3,63.5,36.7,63,37.2 M81.2,33.7
			c-0.3,0.7-0.6,1.4-0.9,2.1c0,0,0.2,0,0.7,0c1.6-0.7,3.3-1.3,5-1.9c0.1-0.6,0.2-1.3,0.3-2.1C84.5,32.5,82.8,33.1,81.2,33.7
			 M135.6,35.6c0.6,1.5,1,3.1,1.4,4.7c0.7,1.1,1.6,2.5,2.3,4c0-0.2,0-0.5-0.1-0.7c0.3,0.2,0.7,0.4,0.9,0.6c0.1-0.5,0.1-1,0.1-1.5
			c-0.4-0.3-0.8-0.6-1.3-0.8c-0.4-2.5-1.1-4.8-2.1-6.9c0.4,0.5,0.6,1,0.9,1.5c0-0.3-0.1-0.6-0.2-0.9c-0.4-1.3-1.1-2.6-2.2-3.6
			c0,0,0-0.1-0.1-0.1C135.5,32.6,135.7,34,135.6,35.6 M124,31.9c0.7,2.2,1.2,4.7,1.5,7.3c-0.4,0-0.8,0-1.2,0c-0.8,0-1.6,0-2.5,0
			c0.6,0.7,1.2,1.3,1.7,1.9c0.4,0,0.8,0,1.2,0c0.3,0,0.6,0,0.9,0c0.1,0.9,0.1,1.8,0.1,2.7c1.2,1.6,1.7,2.5,1.7,2.5
			c0,0,0.1-0.1,0.1-0.1c0.1-1.8,0-3.4-0.1-5c1.3,0.1,2.5,0.2,3.7,0.3c0.4-0.7,0.7-1.2,1-1.7c-1.5-0.2-3.1-0.4-4.9-0.5
			c-0.3-2.4-0.8-4.6-1.4-6.6c-1-0.7-1.7-1.2-1.7-1.2C124.2,31.7,124.1,31.8,124,31.9 M106.1,31.5c0.7,2.7,1.3,5.8,1.9,9.3
			c-0.5,0.1-1.1,0.2-1.6,0.3c0.3,0.5,0.5,0.8,0.5,0.8c1-0.4,2.1-0.9,3.1-1.5c-0.5-3.4-1.1-6.3-1.8-8.9c-0.6-0.4-0.9-0.7-0.9-0.7
			C106.8,31,106.5,31.3,106.1,31.5 M76.9,32c0.2,1,0.4,2.1,0.7,3.3c-0.3,0.1-0.6,0.3-0.9,0.4c0.4,0,0.8,0.1,1.2,0.1
			c0,0,0.5-1,1.2-2.3c-0.3-1.2-0.5-2.3-0.7-3.3C78,30.8,77.5,31.4,76.9,32 M92.2,30c-1,0.3-2,0.6-2.9,0.8c0,0.7,0,1.4-0.1,2
			c1.1-0.4,2.3-0.7,3.5-1c0.9-0.2,1.8-0.5,2.8-0.7c-0.3-0.5-0.7-1.1-1.2-1.6C93.6,29.7,92.9,29.8,92.2,30 M67.7,30.8
			c-0.1,0.3-0.1,0.4-0.1,0.4c0.3-0.3,1.4-1,2.8-1.9C69.5,29.8,68.6,30.3,67.7,30.8 M64.8,29.3c-0.6,0.7-1.4,1.8-2.4,3.2
			c-0.4,0.9-0.7,1.6-0.9,2.2c1.3-2.3,2.6-4.2,3.6-5.5c-0.4,1-0.9,2.3-1.3,4c-0.9,0.6-1.7,1.2-2.4,1.9c-0.3,1-0.3,1.5-0.3,1.7
			c0.2-0.2,0.5-0.4,0.7-0.6c1.5-1.4,4.3-3.7,4.3-3.7c0-0.3,0-0.5,0-0.7c-0.4,0.2-0.7,0.5-1.1,0.7c0.4-1.9,1-3.3,1.4-4.4
			C65.8,28.5,65.3,28.9,64.8,29.3 M97.2,28.8c0.5,0.6,1,1.2,1.4,1.6c1.9-0.4,3.8-0.7,5.7-1c0.1-0.1,0.1-0.1,0.1-0.1
			c-0.6-0.4-1.4-1-2.2-1.5C100.6,28.1,98.9,28.4,97.2,28.8 M112,26.7c-0.7,0.9-1.4,1.5-1.8,2c2.1-0.2,4.1-0.3,6.1-0.3
			c0.9,0,1.8,0,2.6,0.1c-1.4-0.8-2.6-1.4-3.6-1.9C114.2,26.6,113.1,26.7,112,26.7 M66.3,27.1c0.2-0.1,0.4-0.2,0.6-0.4
			c0.2-0.3,0.3-0.5,0.3-0.5L66.3,27.1z M74.4,28.6c0.7-0.3,1.4-0.6,2.1-0.9c0,0.7,0.1,1.5,0.2,2.3c0.6-0.5,1.1-1,1.6-1.5
			c-0.1-0.5-0.1-1-0.1-1.4c0.8-0.3,1.7-0.7,2.6-1c-0.1-0.1-0.4-0.3-1-0.7C79.7,25.3,77.4,26.6,74.4,28.6 M132.6,29.9
			c-1.9-1-4.3-1.8-7-2.4c0,0.5,0,1.1-0.1,1.7c3.3,0.6,6.1,1.6,8.3,2.9c-0.1-1-0.4-2.2-0.9-3.6c0,0-1.9-2-4.4-3.7
			C129.9,26.3,131.3,28,132.6,29.9 M104.7,26.5c1.7,0.7,2.7,1.3,2.7,1.3c0.5-0.3,0.8-0.6,1.1-0.8c-0.5,0.1-1.1,0.1-1.6,0.2
			c-0.4-1.3-0.8-2.5-1.3-3.6c-0.8-0.2-1.5-0.4-2.2-0.5C103.9,24.1,104.3,25.3,104.7,26.5 M76.6,23.4c-0.1,0.7-0.2,1.5-0.2,2.4
			c0.6-0.3,1.1-0.7,1.6-0.9c0-0.7,0-1.3,0.1-1.8C77.6,23.1,77.1,23.2,76.6,23.4 M70.3,23L70.3,23c0.1,0,0.3-0.1,0.6-0.4
			c0.2-0.2,0.4-0.5,0.6-0.7C71.5,22,71,22.4,70.3,23 M72.4,21.4c-0.2,0.3-0.4,0.5-0.6,0.7c0.7-0.4,1.7-0.9,2.9-1.5
			C73.4,21,72.4,21.4,72.4,21.4 M122.1,27c-0.6-0.1-1.1-0.1-1.7-0.2c1.8,0.9,3,1.7,3,1.7c0.2-0.4,0.3-0.9,0.4-1.3c0,0,0,0,0,0
			c-1.3-2.5-2.7-4.7-4.2-6.4c-0.6-0.2-1.2-0.3-1.8-0.4C119.3,22.2,120.8,24.3,122.1,27 M89.8,22c-2.8,0.8-5.6,1.6-8.1,2.5
			c0.4,0.3,1.1,0.4,1.9,0.5c2.1-0.7,4.3-1.4,6.5-2c2.1-0.6,4.1-1.1,6.1-1.5c0.7-0.5,1.1-0.9,1.3-1.4C95,20.6,92.5,21.2,89.8,22
			 M77.6,20.1c-0.2,0.5-0.5,1.1-0.7,2c0.5-0.1,1-0.2,1.4-0.3c0.2-0.8,0.4-1.4,0.6-1.8C78.5,20,78,20,77.6,20.1 M123.7,20.6
			c0,0,2,1.2,4,2.5c-0.4-0.3-0.8-0.6-1.1-0.9c0.1-0.2,0.2-0.3,0.1-0.4c-0.7-0.9-2-1.7-3.8-2.2C123.2,19.9,123.5,20.3,123.7,20.6
			 M101.6,19.4c-0.7,0.1-1.4,0.2-2.1,0.4c-0.3,0.9-0.5,1.1-0.5,1.2c1.1-0.2,2.2-0.4,3.2-0.6c0.2,0.3,0.3,0.7,0.5,1.1
			c0.7,0.1,1.4,0.2,2.1,0.4c-0.3-0.6-0.6-1.2-0.9-1.7c2.8-0.4,5.3-0.7,7.7-0.8c-1.1-0.2-2.4-0.2-3.7-0.2
			C105.7,19.1,103.2,19.2,101.6,19.4 M76.6,19.1c0.9-0.2,1.8-0.3,2.7-0.3c1.4-0.5,2.9-1,4.6-1.6c-0.5-0.2-0.9-0.4-1.3-0.5
			C80.2,17.5,78.2,18.3,76.6,19.1 M100.2,17c0.2,0.3,0.4,0.6,0.6,0.9c0.6-0.1,1.1-0.2,1.7-0.2c-0.3-0.4-0.6-0.8-0.9-1.2
			C101.2,16.7,100.7,16.9,100.2,17 M115.9,18.2c2.3,0.5,5.1,1.4,6,1.7c0.1,0,0.2,0,0.3,0.1c-0.2-0.4-0.6-0.9-1-1.3
			c-2.1-1.2-4.1-2-5.4-2.5c-0.4-0.1-0.7-0.1-1-0.2c1.6,0.7,3.8,1.7,6.1,3.1c-1-0.2-2.1-0.3-3.3-0.5c-1.2-1.2-2.2-2.1-3.1-2.7
			c-0.6-0.1-1.1-0.1-1.4-0.2C113.9,16.3,114.8,17.2,115.9,18.2 M88.4,14.9c-1.5,0.4-2.9,0.8-4.3,1.2c0.4,0.2,0.8,0.4,1.1,0.6
			c1.1-0.3,2.2-0.7,3.4-1c0.5-0.1,1-0.3,1.5-0.4c0.2-0.4,0.4-0.8,0.6-1.1C90,14.5,89.2,14.7,88.4,14.9 M111,14.2
			C111,14.2,111,14.2,111,14.2L111,14.2C110.9,14.2,111,14.2,111,14.2 M97.7,14.6c0.3,0.2,0.8,0.5,1.4,1.1c0.5-0.2,0.9-0.3,1.4-0.5
			c-0.6-0.6-1.2-1-1.7-1.3C98.5,14.2,98.1,14.4,97.7,14.6 M92.4,14c-0.2,0.3-0.4,0.7-0.6,1c1.8-0.4,3.4-0.8,4.8-1
			c1-0.5,1.9-0.9,2.7-1.2C97.3,13,95,13.4,92.4,14 M100.4,13.4c2.3-0.3,4-0.4,5.3-0.4c0.7,0,1.3,0,1.7,0.1c-0.5-0.2-1.1-0.4-1.5-0.5
			c-0.4,0-1-0.1-1.6-0.1C102.9,12.6,101.6,12.9,100.4,13.4"/>
		<g>
			<path class="st2" d="M90.3,25.3c-6.8,1.7-11-0.6-11-0.6l0.2,1.5c1,1.1,5,2.7,11.4,1.1c6.4-1.7,9.6-6.5,9.6-6.5l-1.3-2.1
				C99,19.6,97.4,23.6,90.3,25.3"/>
			<path class="st2" d="M87.2,14c-16,4.6-17,10.7-17.2,11.1l1-0.5c0,0,2.5-5.3,16.2-9.6c15-3.8,20.8-1.1,21.4-0.4l1-0.3
				c0,0-2.7-2.3-9.6-2.3C96.7,11.9,92.5,12.4,87.2,14"/>
			<path class="st2" d="M113.9,18.9c0,0,1,11.3-20.7,16.7c-21.7,5.4-26.3-1.7-26.4-2.3l-1.3,0.5c0,0,3.3,10.5,28.2,4.1
				c24.7-6.6,20.9-17.4,21-19.1L113.9,18.9z"/>
			<path class="st2" d="M95.6,48.1c-21.2,4.8-31.6-1.6-31.6-1.6s7.1,11.2,32.9,4c17.5-4.9,25.9-14.1,28.3-18.6
				c1.2-2.3-0.6-1.8-0.5-2.3C124.8,29.6,116.8,43.3,95.6,48.1"/>
			<path class="st2" d="M131.8,38.9c-4.8,7.6-11.4,15.7-31.8,21.1C60.6,70.6,56.8,49.7,56.8,49.7l-1.3,0.6c0,0,2,22.7,44.6,12.8
				c42.7-9.9,33.9-34,33.9-34l-1.9-2.1C132.3,27.8,134.3,32.8,131.8,38.9"/>
			<path class="st2" d="M81.2,25.7l0-0.2C81.2,25.6,81.2,25.6,81.2,25.7 M88.9,19c-4.8,1.3-8.3,3.5-8,4.9l0.2,1.6
				c0-1.4,3.4-3.5,8-4.7c4.8-1.3,9-1.2,9.4,0.2l-0.3-1.8c-0.2-0.7-1.4-1.1-3.2-1.1C93.3,18.1,91.2,18.4,88.9,19"/>
			<path class="st2" d="M88.5,35.2l1.4,0.1c-0.3-4.4,0.2-7.7,0.2-7.7l-0.3-2.1L88.5,35.2z"/>
			<path class="st2" d="M87.6,46.9l2.3,1.5l0,0c-0.6-5.7-0.4-9.7-0.4-9.7l-0.6-1.5L87.6,46.9z"/>
			<path class="st2" d="M74.5,47.9l2.5,0.6c1.7-6.2,2.7-8.4,2.7-8.4l-0.4-2.4L74.5,47.9z"/>
			<path class="st2" d="M65.7,45.8l2,0.8c3.2-6,4.9-7.6,4.9-7.6l-0.2-2.5L65.7,45.8z"/>
			<path class="st2" d="M60.2,39.5l1.1,2c3.5-4.6,5.6-5.8,5.6-5.8l-0.2-2.6L60.2,39.5z"/>
			<path class="st2" d="M89.6,63.7l1.1-1.6c-0.7-3-0.8-10-0.8-10l-1.5-2.2L89.6,63.7z"/>
			<path class="st2" d="M70.4,63.3L70.4,63.3l2.6-0.8c0.4-6.2,1.9-10.2,1.9-10.2L73.1,50L70.4,63.3z"/>
			<path class="st2" d="M60.3,73.2l2.7-1.7c-1-6-0.6-9.5-0.6-9.5l-2.8-1.6L60.3,73.2z"/>
			<path class="st2" d="M60.2,58.4l2.7,0c1.7-7.1,3.2-9.8,3.2-9.8l-2-2.1L60.2,58.4z"/>
			<path class="st2" d="M56.9,43.4l-1.2,5.4l-0.4,1.6l1.7,0.2c1.7-7.1,3.6-9.3,3.6-9.3l-1.9-2.1L56.9,43.4z"/>
			<path class="st2" d="M90.6,67.2c0,0,0.4,2.4,1,5.2c0.7,0.4,1.3,0.8,1.9,1.3h0c-0.2-1-0.5-2-0.7-3C92.5,69.3,92.2,68,92,67
				C91.5,67,91.1,67.1,90.6,67.2"/>
			<path class="st2" d="M70.4,66.4l2.7,12.8l2-1.9c-1.4-4.8-1.8-11.9-1.8-11.9L70.4,66.4z"/>
			<path class="st2" d="M93.3,82.2l4,9.9l0.9-1.7c-2.1-5.2-3-9.3-3-9.3L93.3,82.2z"/>
			<path class="st2" d="M73.7,82l5.3,9.3l0.9-1.7c-2.5-4.9-3.8-8.8-3.8-8.8L73.7,82z"/>
			<path class="st2" d="M61.1,76.1l4.7,8.4l0.7-1.2c-2.5-4.9-3.4-8.4-3.4-8.4L61.1,76.1z"/>
			<path class="st2" d="M97.8,93.5l3.7,4.7l0.3-1.9c-1.6-1.7-2.5-3.8-2.5-3.8L97.8,93.5z"/>
			<path class="st2" d="M79.5,92.4l3,3l0.6-1c-1.6-1.7-2.1-2.5-2.1-2.5L79.5,92.4z"/>
			<path class="st2" d="M91.8,27c0,0,4,5.5,4.5,6.5c0.1-0.1,1.3-0.6,1.3-0.6L91.3,25L91.8,27z"/>
			<path class="st2" d="M98.1,36.4c0,0,3.6,5.6,4.5,8.4h0c0.1-0.1,1.4-1.9,1.4-1.9L97.8,35L98.1,36.4z"/>
			<path class="st2" d="M104.3,48c0,0,3.5,6.5,4.4,9.3c0.1-0.1,3,0.8,3.1,0.8h0l-7.6-11.7L104.3,48z"/>
			<path class="st2" d="M116.8,87.9l0.2,0c0-0.1-0.1-0.1-0.1-0.1C116.8,87.7,116.8,87.9,116.8,87.9 M117,87.8
				c0.1,0.3,0.3,1.3,0.5,4.4c0.1-0.1,2,1.5,2,1.5l-0.7-6.1L117,87.8z"/>
			<path class="st2" d="M117.1,38.6l0.3,2.1c0,0,3.2,2.9,6.5,7.8l1.8-0.1C125.7,48.4,120.3,39.6,117.1,38.6L117.1,38.6z"/>
			<path class="st2" d="M107.5,32.1c0,0,2.6,1.8,7.4,6.5l0.9-1.2c0,0-5.4-6.6-8.6-7.6L107.5,32.1z"/>
			<path class="st2" d="M94.5,23.3l1.1,2c0,0,2.8,1,9,5.3l0.1-1.2C104.8,29.4,97.7,24.3,94.5,23.3L94.5,23.3z"/>
			<path class="st2" d="M98.3,23.2c0,0,2.8-0.1,11.3,3l1.3-1.3c0,0-10.6-2.7-13.8-3.7L98.3,23.2z"/>
			<path class="st2" d="M99.5,19.3l0.9,1.4c0,0,6.3-1.2,12.7,0.3l-0.3-2.2c0,0-1.2-0.1-3.2-0.1C107,18.8,103.3,18.9,99.5,19.3"/>
			<path class="st2" d="M114.9,21.2c0,0,5.7,1,9.2,3.3l-0.9-2.6c0,0-2.6-1.8-9.4-2.5L114.9,21.2z"/>
			<path class="st2" d="M124.3,22.7l0.6,2.5c0,0,3.8,1.8,8,5.9l0,0l-0.2-3C132.8,28.1,131.1,23.4,124.3,22.7L124.3,22.7z"/>
			<path class="st2" d="M134.5,30.5l0.4,2.4c0,0,2.9,3.5,5.4,10.8l0.8-1.5C141.1,42.1,138,32.2,134.5,30.5L134.5,30.5z"/>
			<path class="st2" d="M112.9,25.1l0,2.1c0,0,2.3,0.8,9.3,5l0.6-1.6C122.8,30.6,116.1,26.1,112.9,25.1L112.9,25.1z"/>
			<path class="st2" d="M124.3,30.9l0,2.5c0,0,1.4,0.6,7.4,5.5l1.7-0.8C133.5,38.1,127.5,31.9,124.3,30.9L124.3,30.9z"/>
			<path class="st2" d="M134.5,42.4c0,0,2.2,2.5,4.1,8.2l2.6,1v0c0-0.1-3.6-10.7-6.8-11.7L134.5,42.4z"/>
			<path class="st2" d="M126.1,52.3c0,0,2.8,3.6,4.4,10.1l2.8,1.5c0,0-3.3-12.4-6.5-13.4L126.1,52.3z"/>
			<path class="st2" d="M140,54.6c0,0,1.1,2.6,0.8,9.4l1.9-1.4c0,0-0.2-7-1.5-9.4L140,54.6z"/>
			<path class="st2" d="M141.5,50.1c0,0,0.1,1.4,0.9,5.2l0.8,4.3c0-0.1,0.7-8.7-1-13.3L141.5,50.1z"/>
			<path class="st2" d="M97.3,18l1.1,0.7c3.7-2.3,13.5-1.8,13.5-1.8l-1.6-1.8c-0.7-0.1-1.3-0.1-2-0.1C102.6,14.9,97.3,18,97.3,18"/>
			<path class="st2" d="M112.5,15.5l0.8,1.5c5.2,0.6,8.6,2.2,8.6,2.2l-1.7-2.1C115.3,15.6,112.9,15.5,112.5,15.5
				C112.5,15.5,112.5,15.5,112.5,15.5"/>
			<path class="st2" d="M121.6,18.3L121.6,18.3l0.7,1.1c1.3,2.1,8.2,6.2,8.2,6.2l1.3,0.4C124.4,18.4,121.7,18.3,121.6,18.3
				L121.6,18.3z"/>
			<path class="st2" d="M110.5,15c-0.1,0.6,0,1.8,0,1.8s0.4,0.7,0.7,1.4l1.4-0.2c0,0-1.5-3.1-1.9-3.1C110.5,14.9,110.5,15,110.5,15"
				/>
			<path class="st2" d="M110.4,14.6l3.8,0.3l0.4-0.2c-1.1-0.9-6.1-1.9-6.3-1.9L110.4,14.6z"/>
			<path class="st2" d="M123,22.1l0.1,1.9c0,0,0.7,1.6,0.4,4.5l1.3,0.4c0,0,0.1-5.6-0.8-6.6L123,22.1L123,22.1z"/>
			<path class="st2" d="M120.2,18.6c0,0,1.4,1,1.4,1.9l1-0.3c0,0-0.8-1.4-1.7-2.5l-0.8-0.2L120.2,18.6z"/>
			<path class="st2" d="M93.2,17.6l1.2,0c4.8-3.9,9.9-4.5,9.9-4.5l0-0.6c-0.3,0-0.6,0-0.9,0C97.8,12.6,93.2,17.6,93.2,17.6"/>
			<path class="st2" d="M90.1,18.2L90.1,18.2l0.6,0c0.2-1.2,2.9-4.6,2.9-4.6l-0.2-1C91.3,13.6,90.1,18.1,90.1,18.2"/>
			<path class="st2" d="M81.4,16.1l0.2,0.9c2.3,0.2,4.6,2.6,4.6,2.6l0.4-0.4C86.2,17.1,81.5,16.1,81.4,16.1L81.4,16.1z"/>
			<path class="st2" d="M71.9,21.6l0.9,0.7c4.5-2,10-1.1,10-1.1l0.6-0.8c-1.5-0.4-3-0.6-4.3-0.6C74.8,19.7,71.9,21.6,71.9,21.6"/>
			<path class="st2" d="M70.2,25.3l0.8,1.4c0,0,6.3-3.1,8.7-3.2l0.2-0.6c0,0-0.3-0.1-1-0.1C77.7,22.7,75.1,23.1,70.2,25.3"/>
			<path class="st2" d="M67.5,31.1V32c0,0.7,0.2,1,0.2,1l1.5,0.7c-1.4-4,1.8-7,1.8-7l-0.9-1.6C68.2,27.7,67.6,29.8,67.5,31.1"/>
			<path class="st2" d="M68,32.7l1.2,1.3c1.7-2.1,10.6-7.5,10.6-7.5L79.3,25C75.7,26.2,68,32.7,68,32.7"/>
			<path class="st2" d="M73.9,35.3l1,0.7c0.6-1.1,7.1-8.5,7.1-8.5c-0.1-0.3-0.1-1.2-0.1-1.2C79.3,28.5,73.9,35.3,73.9,35.3"/>
			<path class="st2" d="M82,30.4l-2.6,5.7l1.8,0.4c0.3-2.1,4.1-8.7,4.1-8.7c-0.1-0.7,0-1.7,0-1.7L82,30.4z"/>
			<path class="st2" d="M60.4,39.9c0.4,2.6,3.3,5.7,3.3,5.7l0.4-1.1c-1.9-1.8-2.1-4-2.1-4l-1.6-1.6V39.9z"/>
			<path class="st2" d="M65.6,27.6l3.7-2.1l1.8-3.3C69,23.7,65.7,27.6,65.6,27.6"/>
			<path class="st2" d="M63.7,30.1l-0.8,1.2l-1,1.9c0.9-1.3,5.4-4,5.4-4c0.1-0.6,0.9-2.5,0.9-2.5C67.2,27.3,63.7,30.1,63.7,30.1"/>
			<path class="st2" d="M60.7,37.5l1.5-1.1c0.1-2,1.9-5.2,1.9-5.2l-0.7-0.5C61.6,32.9,60.7,37.5,60.7,37.5"/>
			<path class="st2" d="M55.7,64.4l1.6-0.9c0,0-0.9-4.8-0.8-6.5l-1.7-3.5C54.9,53.4,54.6,59.1,55.7,64.4"/>
			<path class="st2" d="M61.3,78.5l0.4-0.6l-1.4-4.6c0,0-2.1-1.9-2.7-2.6C57.6,70.7,60,76.8,61.3,78.5"/>
			<path class="st2" d="M70,88.8c0,0,3.9,2.8,4.2,3l0.8-1l-4.2-2.1L70,88.8z"/>
			<g>
				<defs>
					<rect id="SVGID_1_" x="91" y="83.3" width="0.5" height="0.3"/>
				</defs>
				<use xlink:href="#SVGID_1_"  style="overflow:visible;fill:#98A8AF;"/>
				<clipPath id="SVGID_2_">
					<use xlink:href="#SVGID_1_"  style="overflow:visible;"/>
				</clipPath>
				<g transform="matrix(1 0 0 1 -7.629395e-06 0)" style="clip-path:url(#SVGID_2_);">
					
						<image style="overflow:visible;" width="2" height="1" xlink:href="94DAA2AADE118171.jpg"  transform="matrix(0.2736 0 0 0.308 90.9778 83.3032)">
					</image>
				</g>
			</g>
			<path class="st2" d="M91.2,83.5L91.2,83.5C91.2,83.4,91.3,83.4,91.2,83.5C91.3,83.4,91.2,83.4,91.2,83.5 M91.3,83.4
				C91.3,83.4,91.3,83.4,91.3,83.4C91.3,83.4,91.3,83.4,91.3,83.4 M91.3,83.4C91.3,83.4,91.3,83.4,91.3,83.4L91.3,83.4
				C91.3,83.4,91.3,83.4,91.3,83.4 M91.3,83.4C91.3,83.4,91.3,83.4,91.3,83.4L91.3,83.4z M91.3,83.4L91.3,83.4L91.3,83.4z
				 M91.3,83.4L91.3,83.4C91.3,83.4,91.3,83.4,91.3,83.4 M91.3,83.4L91.3,83.4L91.3,83.4C91.3,83.4,91.3,83.4,91.3,83.4"/>
		</g>
		<path class="st2" d="M107.6,88.6C78.5,96.5,61.9,83.3,58,71.3c0,0,1.7,6,6.6,11.8c0,0,12.3,17,42.8,8.3c0,0,31.2-8.5,34.9-28.2
			l-1.1-0.9C141.3,62.3,136.7,80.8,107.6,88.6"/>
		<path class="st2" d="M109.8,94.9c-15.2,4.3-27.5-0.3-34-3.4c-3.1-1.5-4.4-1.8-4.4-1.8s16.8,13.6,39.6,7.1
			c22.9-6.5,28.6-23.4,28.6-23.4l-0.8-0.9C138.5,74.4,132,88.7,109.8,94.9"/>
		<path class="st2" d="M131.3,65.8c0,0,1.2,3.3,0.8,10.1l2.8,1.5c0,0,0.8-12.3-2.4-13.3L131.3,65.8z"/>
		<path class="st2" d="M131.8,78.6c0,0,0.4-1-2.3,6.3l1.8,0.8c0,0,1.7-4,2.2-7.3L131.8,78.6z"/>
		<path class="st2" d="M73.7,78.6c0,0,0.6,0.2,1.6,0.5c0.1-0.5,0.3-0.9,0.5-1.4c-0.7-0.1-1.3-0.3-1.9-0.5c-0.2-0.1-0.5-0.1-0.7-0.2
			C73.3,77.6,73.5,78.1,73.7,78.6 M112.5,73.2c-5.1,2-8.9,2.9-8.9,2.9c-2.3,0.5-4.5,1-6.6,1.3c-0.2,0-0.5,0.1-0.7,0.1
			c0.3,0.6,0.5,1.2,0.6,1.8c4.3-0.6,11.8-2.2,19.4-6c0,0-0.1-0.6-0.4-1.6C114.8,72.3,113.6,72.8,112.5,73.2 M61.1,72.9
			c0,0,3.9,3.4,9,4.9c0,0-0.2-0.8-0.4-2c-1.8-0.8-3.3-1.6-4.7-2.6c-2-1.4-3.6-3-4.8-4.7C60.4,69.8,60.7,71.3,61.1,72.9 M131.6,61.3
			c-2.7,2.7-5.7,5-8.8,6.9c-1,0.6-2,1.2-3,1.7c-0.1,0-0.1,0.1-0.2,0.1c0.2,0.6,0.3,1.1,0.5,1.7c9.4-5.2,12-8.5,12-8.5
			c-0.2-0.7-0.3-1.4-0.5-2.1C131.7,61.2,131.7,61.2,131.6,61.3 M55.4,62.2c0.1,0.7,0.2,1.3,0.3,2c0.2,0.8,0.3,1.3,0.3,1.3
			c1.1,2.9,2.9,5,2.9,5c-0.4-1.4-0.6-3.3-0.6-5.1c-0.4-0.8-0.8-1.6-1.1-2.4c-0.6-1.3-1-2.5-1.4-3.6c-0.7-2.1-1-3.5-1-3.5L55.4,62.2z
			 M136.7,54.7c-0.7,1.2-1.4,2.3-2.2,3.3c0.5,1.5,0.7,2.3,0.7,2.3c4.3-4.8,5.3-8.8,5.3-8.8c-0.4-1.1-0.7-2.1-1.1-3
			C138.7,50.7,137.8,52.8,136.7,54.7 M140.3,42.7c0,0.5-0.1,1-0.1,1.5c-0.1,0.5-0.1,1-0.2,1.5c0.5,1.2,1,2.3,1.2,3.4
			c1-2.5,0-6.5,0-6.5c-0.3-1-0.6-1.9-0.9-2.7C140.4,40.8,140.3,41.8,140.3,42.7 M140.3,39.4c0,0.1,0.1,0.3,0.1,0.4
			C140.4,39.5,140.3,39.3,140.3,39.4C140.3,39.3,140.3,39.3,140.3,39.4"/>
		<path class="st2" d="M110.7,61.7c0,0,3.3,7.2,3.9,10.7c0.1-0.1,2.9,1.9,3,1.9h0l-5-13.7L110.7,61.7z"/>
		<path class="st2" d="M115.7,75.6c0,0,1.2,4,1.5,9.6c0.1-0.1,2,1.5,2,1.5l-2-11.9L115.7,75.6z"/>
		<path class="st2" d="M141,66.6c0,0-0.6,1.9-3,8.2l1.6-1.3c0,0,2.5-5.3,2.7-8.5L141,66.6z"/>
		<path class="st3" d="M84.8,96.4c-0.1,0-0.1,0-0.2-0.1c-0.9-0.3-1.7-0.6-2.2-0.9c0,0-0.8-0.8-1.3-1.5c-0.1-0.2-0.2-0.4-0.3-0.6
			c0,0,0.2,0,0.4,0.1c1.2,0.2,4.9,0.8,8.9,0.8c1.4,0,2.8-0.1,4.2-0.2c0,0,0,0,0,0c0,0,0.3,0.4,0.7,1c0.7,1,1.9,2.5,3.2,3.1
			C98.3,98,89.5,97.7,84.8,96.4 M98.5,93.9C98.5,93.9,98.4,93.8,98.5,93.9l0-0.3h0c0.1,0,0.4,0,1-0.1c0,0,0,0,0.1,0
			c0.6-0.1,1.5-0.2,2.7-0.3c3.1-0.5,7.9-1.7,14.4-4.3c0.6-0.3,1.3-0.5,2-0.8c0,0,0,0.1,0,0.3c0,0.5,0.1,1.7,0.2,2.9c0,0.5,0,1,0,1.5
			c0,0.1,0,0.2,0,0.3c0,0-6.6,4.2-17.2,5C101.7,98,100,96.5,98.5,93.9 M122.3,87.4c0-0.3,0-0.6-0.1-1c0,0,0.4-0.2,1.1-0.6
			c1.8-0.9,5.3-2.9,9.4-6.4c0,0-0.2,1.2-0.7,2.6c-0.2,0.6-0.4,1.2-0.7,1.8c-0.3,0.7-0.7,1.3-1.1,1.7c0,0-4.6,3.9-8.5,5.9
			C121.9,91.5,122.4,90.4,122.3,87.4 M69.9,87.3c-0.2-0.1-0.4-0.2-0.5-0.3c-1.2-0.7-2.4-1.6-3.5-2.6c0,0-2.2-3.4-3.5-8.6
			c0,0,2,2.2,7.4,4.4c0.4,0.2,0.8,0.3,1.2,0.5c0,0,0,0.1,0.1,0.3c0.5,1.2,2.1,5.1,4.6,9C75.7,90,73,89.1,69.9,87.3 M121.8,80.1
			c-0.1-0.6-0.1-1.2-0.2-1.9c-0.2-1.2-0.4-2.4-0.7-3.5c0,0,0.1-0.1,0.4-0.2c0.5-0.3,1.4-0.8,2.5-1.5c1.9-1.2,4.5-2.8,6.6-4.5
			c1.1-0.9,2.2-1.8,2.8-2.6c0,0,0.1,0.5,0.2,1.3c0.3,2.2,0.9,6.8,0.2,9.4c0,0,0,0-0.1,0c-0.2,0.1-0.8,0.6-1.6,1.3
			c-2.2,1.8-6.4,4.9-10,6.6C122,84.5,122,82.6,121.8,80.1 M61.1,72.9c-0.4-1.6-0.7-3.1-0.9-4.4c-0.1-1-0.2-1.8-0.2-2.6
			c0-0.7,0-1.4,0-1.9c0.1-1.7,0.3-2.5,0.3-2.5c0.4,0.3,0.8,0.6,1.2,0.9c3.2,2.1,7,3.3,7,3.3c-0.1,2.8,0.7,7.5,1.2,10.2
			c0.2,1.2,0.4,2,0.4,2C65,76.3,61.1,72.9,61.1,72.9 M90.6,67.2c0.5-0.1,0.9-0.1,1.3-0.2c0.3,0,0.6-0.1,0.9-0.1
			c8.2-1.3,14.3-3.5,17.2-4.7c1.2-0.5,1.9-0.8,1.9-0.8c0,0,0,0,0,0c2.2,4.6,3.4,8.4,4,10.4c0.3,1,0.4,1.6,0.4,1.6
			c-7.6,3.8-15.1,5.3-19.4,6c0.2,0.9,0.3,1.8,0.3,2.7c0,0.1,0,0.2,0,0.2c0.8-0.1,1.8-0.3,2.9-0.5c0.7-0.1,1.4-0.3,2.1-0.4
			c2.1-0.5,4.5-1,7-1.8c0.7-0.2,1.3-0.4,2-0.6c1.5-0.5,3.1-1.1,4.6-1.7c0.5-0.2,0.9-0.4,1.4-0.6c0,0,0.1,0.6,0.3,1.7
			c0.1,0.7,0.3,1.7,0.4,2.8c0.1,0.5,0.1,1.1,0.2,1.7c0.1,1,0.2,2.1,0.3,3.2c0,0-0.3,0.1-0.7,0.4c-0.4,0.2-0.8,0.4-1.4,0.7
			c-2.8,1.3-8.2,3.3-15.4,4.3c-0.6,0.1-1.2,0.2-1.8,0.2c-0.5,0.1-1.1,0.1-1.6,0.2c0,0-0.6-1.2-1.4-2.9c-0.1-0.3-0.3-0.6-0.4-0.9
			c-0.7,1.1-1.6,2.1-2.6,2.9c0.2,0.4,0.4,0.8,0.7,1.2c0,0-1.1,0.1-2.9,0.1c-1.4,0.6-3,1-4.7,1c-6.2,0-11.2-5-11.2-11.2v0
			c0-0.1,0-0.1-0.1-0.2c0,0,0,0,0.1,0c0-1,0.2-1.9,0.4-2.8c-1.1-0.3-1.6-0.5-1.6-0.5c-0.2-0.5-0.3-1.1-0.5-1.6
			c-0.1-0.4-0.2-0.9-0.3-1.3c-1.1-4.6-1.3-9.3-1.3-9.3c0.3,0.1,0.5,0.1,0.8,0.2c1,0.2,1.9,0.4,2.9,0.5c3.1,0.4,5.9,0.5,8,0.5h0.1
			c2,0,3.2-0.1,3.2-0.1c0,0.1,0,0.3,0.1,0.4c0.2,1,0.4,2.1,0.6,3c1.6,0.2,3.1,0.6,4.4,1.4C91.1,69.6,90.6,67.2,90.6,67.2
			 M135.8,63.2c0-0.1,0-0.2,0-0.2c0,0,0.4-0.4,0.9-1.1c1.4-1.8,3.9-5.4,4.5-8.2c0,0,1.2,6.8,0.9,9.5c0,0-0.5,1.7-1.4,3.7
			c-0.2,0.4-0.3,0.7-0.5,1.1c-0.9,1.9-2,3.9-3.4,5.2C136.6,73.1,137.2,70.5,135.8,63.2 M119.7,69.9c-1.3-4.2-2.2-6.9-3.7-10.2
			c0-0.1-0.1-0.2-0.1-0.3c0,0,1-0.5,2.6-1.5c1.8-1.1,4.2-2.7,6.6-4.6c0.8-0.6,1.5-1.3,2.2-2c0,0,0.1-0.1,0.1-0.1
			c0,0,2.2,2.5,3.9,8.1c0.2,0.5,0.3,1.1,0.5,1.7c0.2,0.7,0.3,1.3,0.5,2.1c0,0-2.6,3.3-12,8.5C120,71.1,119.9,70.5,119.7,69.9
			 M72.2,63.2C71.8,63,71.5,63,71.5,63c0-0.2,0-0.5,0-0.7c0.2-3.1,0.6-5.7,1.1-7.7c0.3-1.1,0.5-1.9,0.7-2.6c0.3-0.9,0.5-1.3,0.5-1.3
			c0.5,0.1,1.1,0.2,1.7,0.2c1.4,0.2,2.8,0.2,4.1,0.3c0.4,0,0.8,0,1.1,0c0.9,0,1.6,0,2.3,0c1.2,0,1.9-0.1,1.9-0.1
			c0,1.5,0,3.2,0.2,4.8c0.3,4.1,0.8,7.9,0.8,7.9c-2,0.2-3.7,0.3-5.3,0.3C76.3,64.1,73.4,63.5,72.2,63.2 M63.8,60.4
			c-0.6-0.3-1.2-0.6-1.7-0.9c-0.4-0.3-0.8-0.6-1.1-0.9c0,0,0.8-3.9,2.9-8.4c0.3-0.7,0.7-1.5,1.1-2.3c0-0.1,0.1-0.1,0.1-0.2
			c0,0,4,2,6,2.4c0,0-0.5,1.5-1.2,3.9c-0.2,0.8-0.4,1.7-0.6,2.6c-0.1,0.5-0.2,1-0.3,1.6c-0.2,0.9-0.4,1.9-0.5,2.8
			c-0.1,0.4-0.1,0.8-0.2,1.1C68.3,62.1,65.9,61.4,63.8,60.4 M141.8,50.6c0,0,0.5-2.7,0.5-4c0,0,0-0.1,0-0.1c0,0,0,0.1,0,0.2
			c0.2,1.1,1.3,6.7,0.8,13l0,0C143.1,54.2,141.8,50.6,141.8,50.6 M89.4,60.1c-0.3-2.4-0.6-5.8-0.6-9.4c0,0,8.3-1.1,15.5-4.2
			c0,0,2.9,4.5,5.4,10.5c0.1,0.3,0.3,0.7,0.4,1.1c0,0-0.1,0.1-0.4,0.2c-0.5,0.2-1.3,0.5-2.5,1c-3.1,1.2-8.5,3-13.9,3.9
			c-0.8,0.1-1.6,0.2-2.4,0.3c-0.4,0-0.8,0.1-1.2,0.1C89.8,63.5,89.6,62.1,89.4,60.1 M134.4,58c-0.7-2-2.1-5.2-4.6-9
			c0,0,3.2-3.2,4.8-7c0.2-0.4,0.3-0.8,0.4-1.2c0,0,0.5,0.5,1.2,1.6c0.4,0.5,0.8,1.2,1.2,2.1c0.6,1,1.2,2.3,1.8,3.9
			c0.4,0.9,0.7,1.9,1.1,3c0,0-1,4-5.3,8.8C135.1,60.3,135,59.5,134.4,58 M57,54.2c-0.5-1-1-2.4-1.3-4.3c0,0,1-6.2,3.1-9.4
			c0.1-0.2,0.2-0.3,0.4-0.5c0,0,0.5,3,2.6,5.3c0.3,0.3,0.6,0.6,1,0.9c0,0-0.1,0.2-0.2,0.6c-0.8,2-3.3,8.5-3.4,9.9
			C59.1,56.7,58,56.1,57,54.2 M111.1,49.1c-1.2-2.2-2.2-3.8-2.5-4.3c-0.1-0.1-0.1-0.2-0.1-0.2c0,0,0.1,0,0.1-0.1
			c0.7-0.4,1.3-0.7,1.9-1c1-0.6,1.8-1.1,2.6-1.5c1.6-1,2.7-1.8,3.3-2.4c0.6-0.5,0.9-0.8,0.9-0.8c0.2,0.2,0.4,0.4,0.6,0.6
			c0.6,0.6,1.2,1.2,1.8,1.8c5,5.3,5.7,7.2,5.7,7.2c-3.1,3.3-11,7.5-11,7.5C113.2,53.4,112.1,51,111.1,49.1 M85.5,38.2
			c-0.6,4.7-0.6,7.5-0.5,8.8c0,0.6,0.1,0.8,0.1,0.8c-1.2,0.1-2.3,0.2-3.2,0.3c-1.1,0.1-2.1,0.1-3,0.1c-2.2,0-3.4-0.1-3.4-0.1l0-0.1
			c1.3-3.9,2.7-6.9,3.4-8.4c0.4-0.7,0.6-1.2,0.6-1.2c0.4,0,0.8,0,1.1,0c0.2,0,0.3,0,0.5,0C83.6,38.4,85.5,38.2,85.5,38.2 M66.2,45.7
			c0.5-1,1.1-2.1,1.9-3.1c1.2-1.7,2.6-3.3,3.4-4.2c0.5-0.5,0.8-0.9,0.8-0.9c0.2,0,0.3,0.1,0.5,0.1c1,0.2,2.1,0.4,2.9,0.6
			c0.6,0.1,0.9,0.1,0.9,0.1c-1.1,1.5-4.7,9.3-4.7,9.3C67.4,46.9,66.2,45.7,66.2,45.7 M88.6,45.7c0-2-0.1-5.4,0.3-8.2
			c0,0,5.4-1.1,9-2.5c0,0,2.1,2.8,4.4,6.9c0.3,0.5,0.6,1,0.8,1.6c0,0-0.7,0.3-1.8,0.6c-2.1,0.7-5.9,1.9-9.8,2.7
			c-1,0.2-1.9,0.3-2.8,0.5C88.7,47.3,88.6,46.7,88.6,45.7 M62.8,43.4c-1.9-2.2-2-3.9-2-3.9c0.8-0.9,1.6-1.7,2.2-2.3
			c0.5-0.5,0.9-0.9,1.3-1.2c1.6-1.3,2.5-1.8,2.5-1.8c0.6,1.1,3.5,2.6,3.5,2.6c-1.3,0.9-3.1,3.4-4.5,5.3c-1,1.4-1.7,2.6-1.7,2.6
			C63.6,44.2,63.2,43.8,62.8,43.4 M125.8,43.8c-0.6-0.8-1.3-1.7-2.2-2.7c-0.5-0.6-1.1-1.2-1.7-1.9c-0.7-0.7-1.5-1.5-2.4-2.3l0.1,0
			c0,0,2.4-2.1,4.5-5c0.1-0.1,0.2-0.2,0.2-0.3c0,0,0.7,0.5,1.7,1.2c2.2,1.5,5.7,4.1,6.9,5.5c0,0-0.1,0.5-0.7,1.5
			c-0.2,0.5-0.6,1-1,1.7c-0.8,1.2-1.9,2.8-3.6,4.7c0,0-0.1,0.1-0.1,0.1C127.6,46.3,127,45.4,125.8,43.8 M139.9,45.7
			c-0.2-0.4-0.4-0.9-0.7-1.3c-0.8-1.5-1.6-2.9-2.3-4c-0.9-1.5-1.7-2.4-1.7-2.4c0.2-0.8,0.3-1.6,0.3-2.3c0.1-1.6-0.1-3-0.3-3.8
			c-0.1-0.5-0.2-0.9-0.2-0.9s2.9,3.9,3.7,5.8c0,0,0.7,1.1,1.5,3.2c0.3,0.8,0.6,1.7,0.9,2.7c0,0,0.9,4,0,6.5
			C140.9,48,140.5,46.8,139.9,45.7 M106.3,41.1c-1.3-1.9-4.6-6.9-5.1-7.4c0,0,2.8-1.1,4.9-2.2c0.4-0.2,0.8-0.4,1.1-0.7
			c0,0,0.4,0.3,0.9,0.7c1.8,1.3,5.5,4.2,6.8,5.8c0,0-2.4,1.7-5,3.1c-1,0.6-2.1,1.1-3.1,1.5C106.8,41.9,106.6,41.6,106.3,41.1
			 M61,36.8c0-0.2,0-0.7,0.3-1.7c0-0.1,0.1-0.3,0.1-0.4c0.2-0.6,0.5-1.3,0.9-2.2c0.3-0.6,0.6-1.3,1-2c0,0,0.6-0.5,1.4-1.2
			c0.5-0.4,1-0.8,1.5-1.2c0.9-0.7,1.7-1.3,2.1-1.5c0,0-2.2,2.1-2.4,5.2c0,0.2,0,0.5,0,0.7c0,0-2.7,2.2-4.3,3.7
			C61.5,36.5,61.2,36.7,61,36.8C61,36.9,61,36.9,61,36.8 M87.2,26.5c-0.3,1.2-0.7,3.5-0.9,5.4c-0.1,0.8-0.2,1.5-0.3,2.1
			c-0.1,0.9-0.2,1.5-0.2,1.5c-2.1,0.3-3.7,0.4-4.7,0.4c-0.1,0-0.1,0-0.2,0c-0.4,0-0.7,0-0.7,0c0.2-0.6,0.5-1.3,0.9-2.1
			c1.6-3.4,4-7.2,4-7.2c0.1,0,0.1,0,0.2,0C87.1,26.6,87.2,26.5,87.2,26.5 M76.7,35.7c-1.6-0.2-2.6-0.5-2.6-0.5
			c1-1.2,1.9-2.2,2.8-3.2c0.6-0.6,1.1-1.2,1.6-1.8c2.1-2.4,3.5-3.8,3.5-3.8c1,0.1,1.3,0.2,1.4,0.2c0.1,0,0.1,0,0.1,0
			c-1,1-3,4.5-4.3,6.9c-0.7,1.3-1.2,2.3-1.2,2.3C77.5,35.8,77.1,35.7,76.7,35.7 M109.5,29.2c0,0,0.3-0.2,0.6-0.5
			c0.5-0.4,1.2-1.1,1.8-2c0.3-0.3,0.5-0.7,0.8-1.1c0,0,0.9,0.4,2.4,1c1,0.5,2.3,1.1,3.6,1.9c1.1,0.6,2.2,1.3,3.4,2.1
			c0,0-1,2.3-4.7,4.9C117.5,35.5,110.2,29.6,109.5,29.2 M89.2,32.9c0-0.6,0-1.3,0.1-2c0.1-1.9,0.2-4.1,0.4-4.9c0,0,1.2-0.2,1.7-0.5
			c0,0,1.5,2.1,2.9,4c0.4,0.6,0.8,1.1,1.2,1.6c0.5,0.7,0.9,1.3,1,1.5c0,0-5.5,1.8-7.2,2C89.2,34.6,89.2,33.9,89.2,32.9 M130.8,25.3
			c0.4,0.3,0.6,0.6,0.7,0.8C131.6,26.2,131.3,25.8,130.8,25.3 M68.6,33c2-1.7,4-3.1,5.8-4.3c3.1-2.1,5.3-3.3,5.3-3.3
			c0.6,0.4,0.9,0.6,1,0.7c0.1,0.1,0.1,0.1,0.1,0.1c-0.5,0.4-1.4,1.3-2.6,2.3c-0.5,0.5-1.1,1-1.6,1.5c-2.5,2.3-5.1,4.8-5.1,4.8
			C68.6,33.7,68.6,33,68.6,33 M98.6,30.4c-0.4-0.5-0.9-1-1.4-1.6c-1.6-1.8-3.4-3.8-3.7-4.2c0,0,0.9-0.3,1.4-0.6c0,0,4.2,2,7.2,3.8
			c0.9,0.5,1.6,1,2.2,1.5c0,0,0,0-0.1,0.1c-0.5,0.3-2.7,1.7-4.7,2.2C99.6,31.6,99.2,31.1,98.6,30.4 M125.4,29.9
			c0-0.2,0.1-0.5,0.1-0.7c0.1-0.6,0.1-1.1,0.1-1.7c0-2.4-0.5-4.5-0.5-4.5c1.2,0.5,2.3,1.1,3.3,1.8c2.6,1.7,4.4,3.7,4.4,3.7
			c0.5,1.3,0.8,2.5,0.9,3.6c0.3,2.3-0.1,3.8-0.1,3.8C131.2,33.2,125.4,29.9,125.4,29.9 M67.7,30.8c0.2-1,0.8-3.4,2.5-5.2
			c0,0,3.2-1.4,6.4-2.2c0.5-0.1,1-0.2,1.5-0.3c0.6-0.1,1.2-0.2,1.8-0.2c0,0-0.5,0.5-0.3,1.1c0,0-0.6,0.4-1.6,0.9
			c-0.5,0.3-1,0.6-1.6,0.9c-1.8,1.1-4.1,2.4-5.9,3.5c-1.4,0.9-2.5,1.6-2.8,1.9C67.7,31.2,67.7,31,67.7,30.8 M104.7,26.5
			c-2.1-1-5.1-2.3-8.1-3.4c0,0,0.7-0.4,1.2-0.9c0,0,2.4,0.2,5.7,0.9c0.7,0.1,1.4,0.3,2.2,0.5c1.5,0.4,3.2,0.9,4.8,1.4
			c-1,1-1,1.3-1.9,1.9c-0.3,0.2-0.6,0.5-1.1,0.8C107.4,27.8,106.3,27.3,104.7,26.5 M70.3,23c0.7-0.6,1.2-1,1.2-1
			c-0.2,0.2-0.4,0.4-0.6,0.7c-1,1.2-1.9,2.7-1.9,2.7c-0.8,0.5-1.5,0.9-2,1.3c-0.2,0.2-0.5,0.3-0.6,0.4c-0.3,0.2-0.4,0.3-0.4,0.3
			C66.5,26.5,68.8,24.3,70.3,23 M71.8,22.1c0.2-0.2,0.4-0.5,0.6-0.7c0,0,0.9-0.4,2.3-0.8c0.8-0.2,1.8-0.4,2.8-0.6
			c0.4-0.1,0.9-0.1,1.3-0.1c0.3,0,0.5,0,0.8,0c1.2,0,2.3,0.1,3.4,0.5c0,0-0.7,0.5-1,0.9c0,0-1.6,0.1-3.7,0.4
			c-0.5,0.1-0.9,0.2-1.4,0.3c-2.2,0.5-4.7,1.3-6.6,2.7C70.2,24.7,70.5,23.8,71.8,22.1 M120.4,26.8c-2-1-4.6-2.3-6.6-2.8
			c0,0,0.8-2.8,0.6-4.3c0,0,1.6,0.3,3.4,0.7c0.6,0.1,1.2,0.3,1.8,0.4c1.5,0.4,2.8,0.8,3.4,1.2c0,0,1.4,2.1,0.8,5.2
			c-0.1,0.4-0.2,0.8-0.4,1.3C123.4,28.5,122.1,27.7,120.4,26.8 M99,20.9c0,0,0.2-0.2,0.5-1.2c0,0,0-0.1,0-0.1c0,0,0.8-0.1,2-0.2
			c1.6-0.2,4.1-0.3,6.4-0.3c1.3,0,2.6,0.1,3.7,0.2c0.2,0,0.4,0.1,0.6,0.1c0,0,0.3,2.7-0.7,3.8c0,0-3.5-0.8-6.8-1.4
			c-0.7-0.1-1.4-0.3-2.1-0.4c-1.6-0.3-3-0.5-3.6-0.5C99,20.9,99,20.9,99,20.9C99,20.9,99,20.9,99,20.9 M83.6,25
			c-0.9-0.1-1.5-0.2-1.9-0.5c-0.2-0.1-0.3-0.3-0.4-0.5c-0.4-1.3,3-3.3,7.5-4.5c2.2-0.6,4.2-0.9,5.8-0.9c1.7,0,2.8,0.3,3,1
			c0,0.2,0,0.3,0,0.5c-0.2,0.4-0.6,0.9-1.3,1.4c-1.3,0.9-3.5,1.9-6.1,2.6c-2.2,0.6-4.2,0.9-5.8,0.9C84.1,25,83.8,25,83.6,25
			 M127.7,23.1c-2-1.3-4-2.5-4-2.5c-0.2-0.3-0.5-0.7-0.8-1.1c-0.5-0.6-1-1.2-1-1.2c0.9,0.4,2.2,1.2,2.2,1.2c2.8,1.8,5.4,4.5,6.7,5.8
			C130.1,24.7,128.9,23.8,127.7,23.1 M81.4,16.3c0,0,0.5,0.1,1.1,0.3c0.4,0.1,0.8,0.3,1.3,0.5c1,0.5,2.1,1.1,2.4,1.9
			c0,0-0.4,0.3-0.7,0.4c0,0-2.6-0.8-5.7-0.8c-0.2,0-0.4,0-0.6,0c-0.9,0-1.8,0.1-2.7,0.3c-0.6,0.1-1.1,0.3-1.7,0.5
			C74.9,19.6,78.9,17.2,81.4,16.3 M121.8,19.9c-0.9-0.3-3.7-1.1-6-1.7c-0.7-0.2-1.3-0.3-1.8-0.4c0,0-0.9-1.8-1.4-2.2
			c0,0,0.1,0,0.4,0c0.3,0,0.8,0.1,1.4,0.2c0.1,0,0.2,0,0.2,0c0.3,0.1,0.7,0.1,1,0.2c1.5,0.3,3.2,0.7,4.4,1.5c0,0,0.5,0.5,1,1.1
			c0.4,0.4,0.8,0.9,1,1.3c0,0,0,0,0,0C122.1,20,122,20,121.8,19.9 M97.8,17.9c0,0,0.9-0.4,2.4-0.9c0.4-0.2,0.9-0.3,1.5-0.5
			c2.1-0.6,4.8-1.2,7.1-1.2c0.6,0,1.1,0,1.6,0.1c0,0,0.9,1.3,1.1,2.1c0,0-1.3-0.1-3.3-0.1c-1.6,0-3.7,0.1-5.8,0.3
			c-0.6,0.1-1.1,0.1-1.7,0.2c-0.7,0.1-1.4,0.3-2.1,0.4C98.8,18.4,98.4,18.1,97.8,17.9 M85.3,16.8c-0.4-0.2-0.7-0.4-1.1-0.6
			c-0.5-0.2-1-0.4-1.5-0.5c0,0,5.8-2.1,9.2-2.6c0,0-0.5,0.5-1,1.2c-0.2,0.3-0.4,0.7-0.6,1.1c-0.4,0.8-0.8,1.8-0.9,2.9
			c0,0-0.9,0.3-1.4,0.5C87.8,18.7,86.7,17.6,85.3,16.8 M111,14.2C111,14.2,111,14.2,111,14.2c-0.1,0-0.1,0-0.1,0
			c-0.6-0.6-2.1-1.2-2.1-1.2c1.7,0.3,6.6,2,6.6,2C113.8,14.5,111.6,14.3,111,14.2 M97.7,14.6c0.4-0.2,0.8-0.4,1.2-0.6
			c0.5-0.2,1-0.4,1.5-0.6c1.2-0.4,2.5-0.7,4-0.8c0.3,0,0.7,0,1.1,0h0c0,0,0.2,0,0.5,0.1c0.4,0.1,0.9,0.2,1.5,0.5
			c0.5,0.2,1.1,0.5,1.4,0.9c0,0-4.1,0.1-8.3,1.3c-0.5,0.1-0.9,0.3-1.4,0.5c-1.3,0.5-2.6,1.1-3.8,1.9c0,0-0.4-0.1-1-0.1
			c-0.2,0-0.4,0-0.6,0C93.8,17.5,95.2,16,97.7,14.6 M91.7,15c0.2-0.3,0.4-0.7,0.6-1c0.3-0.5,0.7-0.9,1.1-1.2c0,0,4.1-0.5,7-0.5
			c0.2,0,0.4,0,0.5,0c0,0-0.7,0.2-1.7,0.5c-0.8,0.3-1.7,0.6-2.7,1.2c-1.7,0.9-3.6,2.1-5,3.9c0,0-0.8,0.2-1,0.2
			C90.5,18,90.9,16.5,91.7,15 M87.2,13.7C68.1,19.2,55.3,36,54.8,54.7c0-0.3,0-0.6,0.1-0.9c0,0,0.1,0.5,0.4,1.4c0.3,0.8,0.9,2,2,3.2
			c0.4,0.4,0.8,0.9,1.2,1.3c0,0-0.1,1-0.1,2.4c0,1-0.1,2.1,0,3.3c0,1.8,0.2,3.7,0.6,5.1c0,0-1.8-2.1-2.9-5c0,0-0.1-0.5-0.3-1.3
			c-0.2-0.9-0.4-2.1-0.6-3.5c0.3,2.3,0.7,4.7,1.4,7c0.3,1.2,0.7,2.4,1.2,3.5c1,1.2,2,2.3,2,2.3s1,3,1.7,5.1c0,0-0.6-0.9-1.6-2.9
			c2.7,5.4,6,9.4,10.4,13.2c0.6,0.3,4.3,2.3,6,2.8c0,0,0.8,1.6,1.9,2.5c6.4,3.4,13.6,5.3,21,5.3c4.1,0,8.2-0.6,12.3-1.7
			c10.9-3.1,19.6-10,25.2-18.9c-0.4,0.5-0.6,0.8-0.6,0.8c-1.6,1.6-2,1.8-2,1.8c0.2-0.3,0.3-0.7,0.5-1.1c0.2-0.6,0.5-1.2,0.7-1.8
			c0.5-1.3,0.8-2.3,0.8-2.3c1.8-1.6,3.4-4.6,4.6-7.1c0.1-0.2,0.2-0.5,0.3-0.7c0.9-2,1.5-3.6,1.5-3.6c-0.3,1.6-0.8,3.2-1.2,4.6
			c2.8-8.2,3.2-17.4,0.6-26.3c-0.4-1.2-0.7-2.4-1.2-3.5c0-0.1-0.1-0.3-0.1-0.4c-6.7-16.9-22.9-27.5-40.6-27.5
			C95.6,11.9,91.4,12.4,87.2,13.7"/>
	</g>
	<g>
		<g>
			<path class="st4" d="M87.9,27.1c0,6.2,5,11.2,11.2,11.2c6.2,0,11.2-5,11.2-11.2c0-6.2-5-11.2-11.2-11.2
				C93,15.9,87.9,20.9,87.9,27.1"/>
			<linearGradient id="SVGID_3_" gradientUnits="userSpaceOnUse" x1="99.0881" y1="15.25" x2="99.0881" y2="32.75">
				<stop  offset="0" style="stop-color:#FFFFFF"/>
				<stop  offset="0.1406" style="stop-color:#FFFFFF;stop-opacity:0.8594"/>
				<stop  offset="1" style="stop-color:#FFFFFF;stop-opacity:0"/>
			</linearGradient>
			<path class="st5" d="M91.4,22.5c0,3.1,3.5,5.5,7.7,5.5c4.3,0,7.7-2.5,7.7-5.5s-3.5-5.5-7.7-5.5C94.8,17,91.4,19.4,91.4,22.5"/>
			<path class="st6" d="M99.2,37c-3.2,0-6.1-1.2-8.1-3.1c2,2.3,4.9,3.8,8.1,3.8c3.3,0,6.2-1.5,8.1-3.8C105.2,35.8,102.3,37,99.2,37"
				/>
			<g>
				<path class="st0" d="M95.7,23.5v1.8c0,0.6,0.4,1,1,1h4.6c0.7,0,1-0.8,1-1.1v-1.6h-0.1c0.1-0.8,0.3-2,1-3l-0.5-0.4
					c-0.8,1.1-1.1,2.3-1.2,3.4H101c0.1-0.9,0.2-2,1-3.1l-0.5-0.4c-0.8,1.2-1.1,2.3-1.2,3.4h-0.5c0.1-0.8,0.3-1.9,1-2.9l-0.5-0.4
					c-0.8,1.1-1.1,2.2-1.1,3.2l-0.5,0c0.1-0.8,0.3-1.7,1-2.7l-0.5-0.4c-0.7,1-1,2-1.1,3h-0.5c0.1-0.7,0.4-1.6,1-2.5l-0.5-0.4
					c-0.7,0.9-1,1.9-1.1,2.8h-0.5c0.1-0.7,0.4-1.5,0.9-2.3l-0.5-0.4c-0.6,0.9-0.9,1.8-1,2.6H95.7z"/>
				<path class="st0" d="M99.6,32.6c0-0.3-0.2-0.5-0.5-0.5c-0.3,0-0.5,0.2-0.5,0.5v1.3c0,0.3,0.2,0.5,0.5,0.5c0.3,0,0.5-0.2,0.5-0.5
					V32.6z M99,35.4c-0.6,0-0.9-0.7-0.9-1.3v-2.8c0-0.8-0.3-0.9-0.6-1.1c-0.4-0.3-0.3-0.4-1.1-0.9c-0.7-0.5-0.8-0.8-0.8-1.2v-0.7
					c0-0.4,0.2-0.7,0.5-0.7h5.9c0.3,0,0.5,0.3,0.5,0.7V28c0,0.4-0.1,0.7-0.8,1.2c-0.7,0.5-0.7,0.6-1.1,0.9c-0.4,0.3-0.6,0.4-0.6,1.1
					v2.8c0,0.6-0.3,1.3-0.9,1.3H99z"/>
			</g>
		</g>
		<g>
			<path class="st7" d="M88,55.5c0,6.2,5,11.2,11.2,11.2c6.2,0,11.2-5,11.2-11.2s-5-11.2-11.2-11.2C93,44.4,88,49.4,88,55.5"/>
			<linearGradient id="SVGID_4_" gradientUnits="userSpaceOnUse" x1="99.2155" y1="43.8346" x2="99.2155" y2="61.3346">
				<stop  offset="0" style="stop-color:#FFFFFF"/>
				<stop  offset="0.1406" style="stop-color:#FFFFFF;stop-opacity:0.8594"/>
				<stop  offset="1" style="stop-color:#FFFFFF;stop-opacity:0"/>
			</linearGradient>
			<path class="st8" d="M91.5,51.1c0,3.1,3.5,5.5,7.7,5.5c4.3,0,7.7-2.5,7.7-5.5c0-3.1-3.5-5.5-7.7-5.5C94.9,45.5,91.5,48,91.5,51.1
				"/>
			<path class="st9" d="M99.2,65.5c-3.2,0-6.1-1.2-8.1-3.1c2,2.3,4.9,3.8,8.1,3.8c3.3,0,6.2-1.5,8.1-3.8
				C105.2,64.3,102.4,65.5,99.2,65.5"/>
			<path class="st0" d="M103.1,47.1l-1,0c-0.1,0-0.2,0.1-0.2,0.2v0.1c-0.5,0.3-1.2,0.4-1.8-0.1l-2.3,0c-1.2,0.2-2.8,0.5-4.1,2.5
				l0.1,0.1c1.8-1.1,3.3-1,3.6-0.9c0.1,0.6,0.4,1.4,0.4,1.4H98l0,5.5c-0.2,0.1-0.3,0.3-0.3,0.5l-0.6,7.2c0,0.3,0.3,0.6,0.6,0.6
				l1.9,0c0.3,0,0.6-0.3,0.6-0.6l-0.5-7.2c0-0.2-0.1-0.4-0.3-0.5l0.1-5.6l0.1,0l0.4-1c0.4-0.3,1.3-0.4,1.8,0.1l0,0.1
				c0,0.1,0.1,0.2,0.2,0.2l1,0c0.1,0,0.2-0.1,0.2-0.1l0-2.3C103.2,47.2,103.2,47.1,103.1,47.1"/>
		</g>
		<g>
			<path class="st10" d="M111.1,37.7c0,6.2,5,11.2,11.2,11.2c6.2,0,11.2-5,11.2-11.2s-5-11.2-11.2-11.2
				C116.1,26.5,111.1,31.5,111.1,37.7"/>
			<linearGradient id="SVGID_5_" gradientUnits="userSpaceOnUse" x1="122.2215" y1="27.5739" x2="122.2215" y2="38.6767">
				<stop  offset="0" style="stop-color:#FFFFFF"/>
				<stop  offset="0.1406" style="stop-color:#FFFFFF;stop-opacity:0.8594"/>
				<stop  offset="1" style="stop-color:#FFFFFF;stop-opacity:0"/>
			</linearGradient>
			<path class="st11" d="M114.5,33.1c0,3.1,3.5,5.6,7.7,5.6c4.3,0,7.7-2.5,7.7-5.6c0-3.1-3.5-5.5-7.7-5.5
				C118,27.6,114.5,30.1,114.5,33.1"/>
			<path class="st12" d="M122.3,47.6c-3.2,0-6.1-1.2-8.1-3.1c2,2.3,4.9,3.8,8.1,3.8c3.3,0,6.2-1.5,8.1-3.8
				C128.3,46.5,125.5,47.6,122.3,47.6"/>
			<path class="st0" d="M119,34.3l-1.5,2.4l0.3,2.8c0,0,0.5-0.1,0.8-0.4c0.2-0.2,0.4-0.8,0.4-0.8h0.7v-4H119z M125,38.3h0.7
				c0,0,0.1,0.5,0.2,0.8c0.1,0.2,0.4,0.3,0.6,0.4l0.2-2.6l0-0.1l-1.1-2.5H125V38.3z M119.6,33.8v-3.4c0-0.9,0.7-1.6,1.5-1.6h2.4
				c0.8,0,1.5,0.7,1.5,1.6v3.4h0.5v-0.3h0.8l1.8,1.4c0,0,1.1,1.6,1.1,1.8c0,0.3-0.6,0.7-1.1,0.7c-0.2,0-0.3,0-0.5-0.1l-0.7,8.1
				l-0.4,0l-0.2-0.9l0.2-2.6H118l0.2,2.4l-0.3,0.9l-0.4,0l-0.8-8.1c-0.1,0-0.3,0-0.5,0c-1,0.1-1.1-0.2-1.1-0.6
				c0-0.1,1.4-1.8,1.4-1.8s1.7-1.2,1.9-1.3c0.2-0.1,0.9-0.1,0.9-0.1l0,0.2H119.6z"/>
		</g>
		<g>
			<path class="st13" d="M58.8,62c0,6.2,5,11.2,11.2,11.2c6.2,0,11.2-5,11.2-11.2s-5-11.2-11.2-11.2C63.8,50.8,58.8,55.8,58.8,62"/>
			<linearGradient id="SVGID_6_" gradientUnits="userSpaceOnUse" x1="70.0881" y1="50.9167" x2="70.0881" y2="68.4167">
				<stop  offset="0" style="stop-color:#FFFFFF"/>
				<stop  offset="0.1406" style="stop-color:#FFFFFF;stop-opacity:0.8594"/>
				<stop  offset="1" style="stop-color:#FFFFFF;stop-opacity:0"/>
			</linearGradient>
			<path class="st14" d="M62.4,58.2c0,3.1,3.5,5.5,7.7,5.5c4.3,0,7.7-2.5,7.7-5.5c0-3.1-3.5-5.5-7.7-5.5
				C65.8,52.6,62.4,55.1,62.4,58.2"/>
			<path class="st15" d="M70,71.9c-3.2,0-6.1-1.2-8.1-3.1c2,2.3,4.9,3.8,8.1,3.8c3.3,0,6.2-1.5,8.1-3.8C76.1,70.8,73.2,71.9,70,71.9
				"/>
			<g>
				<path class="st0" d="M71.5,59.5l0,0.4c0,0.2,0.2,0.4,0.4,0.4c0.2,0,0.4-0.2,0.4-0.4l0-1.2l2.5,0c0.1,0,0.1-0.1,0.1-0.1
					c0-0.1-0.1-0.3-0.1-0.3l-2.5,0l0-2.3l2.5,0c0.1,0,0.1-0.1,0.1-0.1c0-0.1-0.1-0.3-0.1-0.3l-2.5,0l0-1.1c0-0.2-0.2-0.4-0.4-0.4
					c-0.2,0-0.4,0.2-0.4,0.4l0,0.5l-3.3,0c0,0-0.6,0.4-0.8,1.5l-1.6,0c0,0-0.1,0.2-0.1,0.5l-2.2,0l0,0.7l2.2,0
					c0.1,0.3,0.2,0.5,0.2,0.5l1.6,0c0.2,1.1,0.9,1.5,0.9,1.5L71.5,59.5z"/>
				<path class="st0" d="M67.3,64.2V65c0.2,0,0.4,0,0.6-0.2c0.2-0.1,0.3-0.3,0.4-0.6c0-0.3,0-0.8,0-0.8H68v-0.7h0.5
					c0.1-0.3,0.3-0.5,0.6-0.6v-0.5h-1.6c0,0-0.3-0.3-0.3-0.5c0-0.3,0.2-0.5,0.4-0.5c0.2,0,0.4,0.2,0.4,0.4h0.7
					c0-0.2,0.3-0.4,0.6-0.4c0.3,0,0.6,0.2,0.6,0.4h0.8c0.1-0.2,0.2-0.4,0.4-0.4c0.2,0,0.4,0.2,0.4,0.5c0,0.2-0.3,0.5-0.3,0.5h-1.5
					v0.5c0.3,0.1,0.5,0.3,0.6,0.6h0.5v0.7h-0.3l0,0.6c0,0.2,0.1,0.4,0.2,0.6c0.3,0.3,0.6,0.3,0.6,0.3s1.7,0,2.1,0
					c0.3,0,0.6,0.1,0.9,0.4c0.3,0.3,0.3,0.6,0.3,0.7c0,0.1,0,2.2,0,2.2h-2v-0.7c0-0.3,0-0.5-0.2-0.5c-0.1,0-1.3,0-1.3,0
					c-0.2,0.2-0.7,0.6-1.6,0.6c-0.9,0-1.3-0.4-1.5-0.6h-0.6V68h-0.9v-3.8H67.3z"/>
				<path class="st0" d="M73.4,69c-0.1,0.2-0.2,0.5-0.2,0.6c0,0.2,0,0.4,0.3,0.4c0.2,0,0.3-0.2,0.3-0.4c0-0.1-0.1-0.4-0.2-0.6
					c0-0.2,0-0.4-0.1-0.4C73.5,68.6,73.5,68.8,73.4,69"/>
			</g>
		</g>
		<g>
			<path class="st16" d="M117.2,62c0,6.2,5,11.2,11.2,11.2c6.2,0,11.2-5,11.2-11.2c0-6.2-5-11.2-11.2-11.2
				C122.2,50.8,117.2,55.8,117.2,62"/>
			<linearGradient id="SVGID_7_" gradientUnits="userSpaceOnUse" x1="128.8822" y1="51.1686" x2="128.8822" y2="68.6686">
				<stop  offset="0" style="stop-color:#FFFFFF"/>
				<stop  offset="0.1406" style="stop-color:#FFFFFF;stop-opacity:0.8594"/>
				<stop  offset="1" style="stop-color:#FFFFFF;stop-opacity:0"/>
			</linearGradient>
			<path class="st17" d="M121.2,58.4c0,3.1,3.5,5.5,7.7,5.5c4.3,0,7.7-2.5,7.7-5.5s-3.5-5.5-7.7-5.5
				C124.6,52.9,121.2,55.4,121.2,58.4"/>
			<path class="st18" d="M128.4,71.9c-3.2,0-6.1-1.2-8.1-3.1c2,2.3,4.9,3.8,8.1,3.8c3.3,0,6.2-1.5,8.1-3.8
				C134.4,70.7,131.6,71.9,128.4,71.9"/>
			<g>
				<path class="st0" d="M130,62c0-0.4-0.4-0.7-0.8-0.8l0-7.9c0-0.1-0.1-0.3-0.3-0.3c-0.2,0-0.3,0.1-0.3,0.3l0,7.9
					c-0.4,0.1-0.8,0.4-0.8,0.8c0,0-2.4-0.1-2.4,0.8v1h6.8v-0.9c0-0.4-0.3-0.7-1.1-0.8C130.4,62,130,62,130,62"/>
				<path class="st0" d="M126.2,64.2h-0.8c0,3.6-1.3,4.6-2.1,5.9h0.8c0.1-0.2,0.2-0.4,0.4-0.6C125.3,68.5,126.2,67.2,126.2,64.2"/>
				<path class="st0" d="M129.8,64.2h-0.8c0,3.1-1,4.5-1.8,5.6c-0.1,0.1-0.1,0.2-0.2,0.3h0.7c0.1-0.2,0.2-0.4,0.4-0.6
					C128.9,68.5,129.8,67.2,129.8,64.2"/>
				<path class="st0" d="M127.4,64.2h-0.8c0,3.1-1,4.5-1.8,5.6c-0.1,0.1-0.1,0.2-0.2,0.3h0.7c0.1-0.2,0.2-0.4,0.4-0.6
					C126.5,68.5,127.4,67.2,127.4,64.2"/>
				<path class="st0" d="M131.5,64.2c0,3.1-1,4.5-1.8,5.6c-0.1,0.1-0.1,0.2-0.2,0.3h0.5c0.7-0.7,2.1-2.1,2.1-4.9v-1H131.5z"/>
				<path class="st0" d="M128.6,64.2h-0.8c0,3.1-1,4.5-1.8,5.6c-0.1,0.1-0.1,0.2-0.2,0.3h0.7c0.1-0.2,0.2-0.4,0.4-0.6
					C127.7,68.5,128.6,67.2,128.6,64.2"/>
				<path class="st0" d="M131.1,64.2h-0.8c0,3.1-1,4.5-1.8,5.6c-0.1,0.1-0.1,0.2-0.2,0.3h0.7c0.1-0.2,0.2-0.4,0.4-0.6
					C130.1,68.5,131.1,67.2,131.1,64.2"/>
			</g>
		</g>
		<g>
			<path class="st19" d="M101.1,82.1c0,6.1,5,11.1,11.2,11.1c6.2,0,11.2-5,11.2-11.1c0-6.1-5-11.1-11.2-11.1
				C106.1,71,101.1,76,101.1,82.1"/>
			<linearGradient id="SVGID_8_" gradientUnits="userSpaceOnUse" x1="112.5016" y1="71.1302" x2="112.5016" y2="88.6302">
				<stop  offset="0" style="stop-color:#FFFFFF"/>
				<stop  offset="0.1406" style="stop-color:#FFFFFF;stop-opacity:0.8594"/>
				<stop  offset="1" style="stop-color:#FFFFFF;stop-opacity:0"/>
			</linearGradient>
			<path class="st20" d="M104.8,78.4c0,3.1,3.5,5.5,7.7,5.5c4.3,0,7.7-2.5,7.7-5.5s-3.5-5.5-7.7-5.5
				C108.2,72.8,104.8,75.3,104.8,78.4"/>
			<path class="st21" d="M105.3,89.1c0,0,1.5,3.1,6.8,3.3c0,0,4.2,0.2,6.7-3c0,0-2.6,2.5-6.8,2.4C112.1,91.8,108.5,92.1,105.3,89.1"
				/>
			<g>
				<path class="st0" d="M111.1,89c-0.1,0-0.2,0.1-0.1,0.2c0.2,0.3,0.2,0.4,0.4,0.7c0.1,0.1,0.2,0.2,0.3,0.2c0.6,0,1,0,1.6,0
					c0.1,0,0.3-0.1,0.3-0.2c0.1-0.3,0.2-0.4,0.4-0.7c0.1-0.1,0-0.2-0.1-0.2c-0.5,0-0.9-0.1-1.2-0.1C112.1,88.9,111.7,88.9,111.1,89"
					/>
				<path class="st0" d="M110.4,87c-0.3,0-0.5,0.3-0.4,0.5c0,0.3,0.3,0.5,0.6,0.4c1.5-0.1,2.3-0.2,3.8,0c0.3,0,0.5-0.2,0.5-0.4
					c0-0.3-0.2-0.5-0.5-0.5c-0.7-0.1-1.3-0.1-1.8-0.1C111.9,86.9,111.3,86.9,110.4,87"/>
				<path class="st0" d="M110.4,88.2c-0.3,0-0.5,0.3-0.4,0.5c0,0.3,0.3,0.4,0.6,0.4c1.5-0.1,2.3-0.2,3.8,0c0.3,0,0.5-0.2,0.5-0.4
					c0-0.3-0.2-0.5-0.5-0.5c-0.7-0.1-1.3-0.1-1.8-0.1C111.9,88.1,111.3,88.1,110.4,88.2"/>
				<path class="st0" d="M112.2,76.2c-2.4,0-4.4,1.9-4.4,4.2c0,0.2,0,0.5,0.1,0.7l0,0c0.1,0.5,0.3,1,0.6,1.5l0,0l0,0
					c0.1,0.1,0.2,0.2,0.3,0.4c0.2,0.3,0.6,0.8,0.8,1.3c0,0,0,0.1,0.1,0.2c0.1,0.2,0.1,0.3,0.2,0.5c0.1,0.6,0.1,1.3,0.2,1.9
					c0.7-0.1,1.5-0.1,2.3-0.1c0.9,0,1.8,0,2.5,0.1c0-0.6,0-1.3,0.1-1.9c0-0.2,0.1-0.3,0.1-0.5c0,0,0-0.1,0.1-0.2
					c0.2-0.5,0.5-1,0.7-1.4c0.1-0.1,0.2-0.2,0.3-0.4l0,0h0c0.3-0.4,0.5-0.9,0.6-1.5l0,0c0-0.2,0.1-0.5,0.1-0.7
					C116.7,78.1,114.7,76.2,112.2,76.2L112.2,76.2z"/>
				<g>
					<polyline class="st0" points="108.2,84.4 105.5,86.3 105.6,86.4 108.3,84.5 					"/>
					<polyline class="st0" points="106.4,81 101.9,81.6 101.9,81.8 106.5,81.1 					"/>
					<polyline class="st0" points="106.7,77.7 103.6,76.1 103.5,76.2 106.7,77.9 					"/>
					<polyline class="st0" points="109.3,75.9 107.8,72.7 107.7,72.8 109.1,76 					"/>
					<polyline class="st0" points="112.4,75.2 112.3,71.7 112.1,71.7 112.2,75.3 					"/>
					<polyline class="st0" points="114.9,76 116.2,72.7 116,72.6 114.7,76 					"/>
					<polyline class="st0" points="116.3,77.5 120.2,74.9 120.1,74.8 116.2,77.3 					"/>
					<polyline class="st0" points="117.1,80.7 122.3,80.8 122.3,80.6 117.1,80.5 					"/>
					<polyline class="st0" points="116.6,82.9 120.2,85 120.2,84.9 116.7,82.8 					"/>
				</g>
			</g>
		</g>
		<g>
			<path class="st22" d="M64.8,37.7c0,6.2,5,11.2,11.2,11.2c6.2,0,11.2-5,11.2-11.2c0-6.2-5-11.2-11.2-11.2
				C69.8,26.5,64.8,31.5,64.8,37.7"/>
			<linearGradient id="SVGID_9_" gradientUnits="userSpaceOnUse" x1="75.9214" y1="26.25" x2="75.9214" y2="43.75">
				<stop  offset="0" style="stop-color:#FFFFFF"/>
				<stop  offset="0.1406" style="stop-color:#FFFFFF;stop-opacity:0.8594"/>
				<stop  offset="1" style="stop-color:#FFFFFF;stop-opacity:0"/>
			</linearGradient>
			<path class="st23" d="M68.2,33.5c0,3.1,3.5,5.5,7.7,5.5c4.3,0,7.7-2.5,7.7-5.5S80.2,28,75.9,28C71.7,28,68.2,30.4,68.2,33.5"/>
			<path class="st24" d="M76,47.6c-3.2,0-6.1-1.2-8.1-3.1c2,2.3,4.9,3.8,8.1,3.8c3.3,0,6.2-1.5,8.1-3.8C82,46.4,79.2,47.6,76,47.6"
				/>
			<g>
				<path class="st0" d="M78.9,31.3c-0.8-0.1-10.1,2-10.1,2s-0.3,0-0.2,0.4c0,0.2,0.4,0.1,0.4,0.1s0.7,6.6,0.8,6.8
					c0.2,0.5,6.2,0.9,6.4,1c0.2,0,5.5,0.1,6-0.3c0.3-0.2,0.9-7,0.9-7s0.4,0,0.4-0.4C83.5,33.6,79.7,31.4,78.9,31.3"/>
				<path class="st25" d="M71,40.8l7.5-0.4l3.8,1c0,0-4.8,1-5.9,1c-1.5,0-5.9-1.4-5.9-1.4L71,40.8z"/>
				<path class="st26" d="M69.2,40.8L69.2,40.8l0-0.3l1.1-0.1v0.3l0,0L69.2,40.8z M69.2,36.4l1-0.2v0.6L69.2,37L69.2,36.4L69.2,36.4
					z M73.9,40.1l1.2-0.1v0.4l-1.2,0.1V40.1z M72.3,40.2l1.2-0.1v0.4l-1.2,0.1V40.2z M71.9,36.5l-1.2,0.2v-0.6l1.2-0.2V36.5z
					 M73.5,35.6v0.7l-1.2,0.2v-0.7L73.5,35.6L73.5,35.6z M75.1,36l-1.2,0.2v-0.6l0-0.1l1.2-0.2V36z M73.5,39.7l-1.2,0.1v-2.9
					l1.2-0.2V39.7z M73.9,36.7l1.2-0.2v3.1l-1.2,0.1V36.7z M70.7,37.2l1.2-0.2v2.9l-1.2,0.1V37.2z M69.2,37.4l1.1-0.2V40l-1.1,0.1
					V37.4z M70.7,40.4l1.2-0.1v0.3l-1.2,0.1l0,0V40.4z M79.9,41.8L75.7,41c0.1-0.1,0.1-0.2,0.1-0.3c0-0.2-0.1-0.3-0.3-0.3v-5.1
					c0.2-0.1,0.3-0.2,0.2-0.4c0-0.2-0.2-0.3-0.4-0.3l-6.2,1.1v-2.3c0-0.2-0.1-0.3-0.3-0.3c-0.2,0-0.3,0.1-0.3,0.3v8.3
					c0,0.2,0.1,0.3,0.3,0.3c0.2,0,0.3-0.1,0.3-0.3v-0.2l0.1,0l0.2,0l0,0l5.7,1.2c0.1,0,0.3,0,0.3-0.2c0-0.1-0.1-0.2-0.2-0.3
					l-4.2-0.9l3.3-0.2l0.1,0l5.4,1.1c0.1,0,0.3,0,0.3-0.2C80.1,42,80,41.9,79.9,41.8"/>
			</g>
		</g>
		<g>
			<path class="st27" d="M80.4,72.5c-0.6,0.3-1.1,0.7-1.6,1.2c-1.3,1.1-2.3,2.5-3,4.1c-0.2,0.5-0.4,0.9-0.5,1.4
				c-0.3,0.9-0.4,1.9-0.4,2.8c0,0.1,0,0.1,0,0.2v0c0,6.2,5,11.2,11.2,11.2c1.7,0,3.2-0.4,4.7-1c0.8-0.4,1.6-0.8,2.2-1.4
				c1-0.8,1.9-1.8,2.6-2.9c0.1-0.2,0.2-0.4,0.3-0.5c0.3-0.5,0.5-1,0.7-1.6c0.2-0.6,0.4-1.2,0.5-1.8c0.1-0.6,0.2-1.1,0.2-1.7
				c0-0.1,0-0.2,0-0.2c0-0.9-0.1-1.9-0.3-2.7c-0.2-0.6-0.4-1.2-0.6-1.8c-0.7-1.5-1.7-2.8-2.9-3.9c-0.6-0.5-1.2-0.9-1.9-1.3
				c-1.3-0.7-2.8-1.2-4.4-1.4c-0.4,0-0.7-0.1-1.1-0.1C84.1,70.9,82.1,71.5,80.4,72.5"/>
			<linearGradient id="SVGID_10_" gradientUnits="userSpaceOnUse" x1="86.1683" y1="70.9635" x2="86.1683" y2="88.4635">
				<stop  offset="0" style="stop-color:#FFFFFF"/>
				<stop  offset="0.1406" style="stop-color:#FFFFFF;stop-opacity:0.8594"/>
				<stop  offset="1" style="stop-color:#FFFFFF;stop-opacity:0"/>
			</linearGradient>
			<path class="st28" d="M78.4,78.2c0,3.1,3.5,5.5,7.7,5.5c4.3,0,7.7-2.5,7.7-5.5c0-3.1-3.5-5.5-7.7-5.5
				C81.9,72.7,78.4,75.2,78.4,78.2"/>
			<path class="st29" d="M86.1,92c-3.2,0-6-1.2-8.1-3.1c2,2.3,4.9,3.8,8.1,3.8c3.3,0,6.2-1.5,8.1-3.8C92.2,90.8,89.3,92,86.1,92"/>
			<path class="st30" d="M94.4,82.4L94.4,82.4c0.1-0.1,0.2-0.1,0.3-0.1c0.1,0,0.2,0,0.2,0l0,0l0,0l0,0c-0.1,0.1-0.3,0.2-0.5,0.3
				C94.4,82.5,94.4,82.5,94.4,82.4"/>
			<g>
				<path class="st0" d="M85.6,75c0.3,0.1,0.6,0.3,0.6,0.3s-0.1-0.6,0-1c0-0.4,0.1-0.8-0.5-1.1c0.1,0.3,0.2,0.5-0.1,0.8
					C85.5,74.3,85.3,74.8,85.6,75"/>
				<path class="st0" d="M80.7,83.1L80.7,83.1L80.7,83.1L80.7,83.1c-0.5,0.2-0.9,0.4-1.3,0.5c-0.2,0.1-0.3,0.2-0.5,0.2
					c-0.1,0.1-0.3,0.2-0.4,0.3c-0.1,0-0.1,0.1-0.1,0.1c-0.1,0.1-0.1,0.2-0.2,0.3l0,0c0,0.1,0,0.2,0,0.3l0,0.1l0,0.1
					c0,0.1,0,0.1,0.1,0.2c-0.3,0.1-0.6,0.2-0.8,0.3c-0.2,0.1-0.4,0.4-0.4,0.7c0,0,0,0.1,0,0.1c0.1,0.4,0.4,0.6,0.7,0.7
					c0.3,0.1,0.7,0.1,0.9,0.1c0.1,0,0.2,0,0.4,0c0.6,1.1,1.5,2,2.6,2.6c0.7,0.4,1.5,0.7,2.3,0.9c0,0,2,0.2,4.6-0.4
					c0.7-0.2,1.5-0.5,2.3-0.9c0.7-0.5,1.3-1.1,1.9-1.7c0.9-1.1,1.4-2.5,1.5-3.9c0.1,0,0.2-0.1,0.2-0.1c0.3-0.1,0.6-0.2,0.8-0.4
					c0.3-0.2,0.4-0.5,0.4-0.9c0,0,0-0.1,0-0.1c-0.1-0.3-0.4-0.4-0.7-0.5c-0.2,0-0.5,0-0.7,0c0,0,0-0.1-0.1-0.1
					c-0.1-0.2-0.3-0.2-0.5-0.3c-0.2-0.1-0.4-0.1-0.7-0.1c-0.1,0-0.2,0-0.3,0"/>
				<path class="st31" d="M94.2,81.5c0.1,0.7-3.2,2-7.5,2.8c-4.3,0.8-7.9,0.9-8,0.2c-0.1-0.7,3.2-2,7.5-2.8
					C90.5,80.9,94.1,80.8,94.2,81.5"/>
				<path class="st0" d="M87.2,77.9c-0.3,0.8-0.8,1.2-0.8,1.2c-0.4,0.6,0.1,1.2,0.1,1.2c0.2,0.4-0.1,0.5-0.1,0.5
					c-0.5,0.5-1,0.1-1,0.1c-0.3-0.5,0.3-1,0.3-1c0.3-0.4-0.1-0.9-0.1-0.9c-0.1-0.3,0-0.5,0-0.5C85,78.6,85.1,79,85.1,79
					c0.2,0.2-0.1,0.4-0.1,0.4c-0.6,0.4-0.6-0.1-0.6-0.1c0.3-0.6,0.1-0.9,0.1-0.9c-0.4-0.8-1.7-0.6-1.7-0.6c1.9,1,0.8,2.2,0.8,2.2
					c-0.9,0.9-0.2,1.2-0.2,1.2c0.9,0.8,0.2,1,0.2,1c-0.7,0.1-0.8-0.4-0.8-0.4c-0.2,0.4,0.2,0.5,0.2,0.5c0.9,0.8,0.3,0.8,0.3,0.8
					c-0.4,0.2-0.6-0.3-0.6-0.3c-0.2-0.6-0.8-0.5-0.8-0.5c0,0.5-0.4,0.3-0.4,0.3c-0.3-0.1-0.2-1-0.2-1l-0.3,0.7c-0.3,0.9,1,1.4,1,1.4
					c1.1,0.2,1.1,0.8,1.1,0.8c-0.1,0.5-0.5,0.2-0.5,0.2c-0.7-0.7-1.1-0.9-1.1-0.9c0.4,0.7,0.3,1,0.3,1.1c4.5-0.3,8.1-1.3,9.7-1.8
					c-0.1,0-0.2-0.1-0.2-0.1c0-0.4,0.3-0.8,0.3-0.8c0.3-0.5-0.1-0.7-0.1-0.7c-1.4-0.3-1.1-1.2-1.1-1.2c-0.8,0.4-0.2,0.8-0.2,0.8
					c0.2,0.4-0.2,0.4-0.2,0.4c-1,0-0.4-1-0.4-1c0.3-0.7-0.3-0.9-0.3-0.9c0.3,0.6-0.1,0.9-0.1,0.9c-0.5,0.1-0.4,0.6-0.4,0.6
					c0.2,0.5,0,0.7,0,0.7c-1.5-0.3-0.1-1.9-0.1-1.9c0.3-0.6-0.2-1-0.2-1c-0.3,0.7-0.5,0.3-0.5,0.3c-0.3-0.3,0.2-1.1,0.2-1.1
					c0-0.7-0.8-1.1-0.8-1.1C87.4,77.6,87.2,77.9,87.2,77.9 M91.6,82.3c-0.3,0.3-0.1,0.8-0.1,0.8l-0.1,0c0.4-0.1,0.6-0.2,0.6-0.2
					c-0.2-0.3,0.1-0.6,0.1-0.6c0.2-0.6-0.1-0.7-0.1-0.7C92.1,81.9,91.6,82.3,91.6,82.3 M91.2,83.2c0.1,0,0.2,0,0.3-0.1
					C91.4,83.2,91.3,83.2,91.2,83.2 M80.2,85c0.2,0,0.4,0,0.7,0c0.1-1-0.8-1.4-0.8-1.4C80.4,84.6,80.2,85,80.2,85 M80.8,85L80.8,85
					l0.7,0l0,0C81.3,85,81.1,85,80.8,85"/>
				<path class="st0" d="M81.7,81c0,0-0.1-0.8,0-1.1c0.2-0.2,0.5-0.9,0.1-1.5c0,0.2-0.1,0.4-0.1,0.4c-0.1,0-0.5-0.4-0.1-1.3
					c-0.5,0.4-0.8,0.7-0.7,1.3c0,0.3,0.1,0.5,0.1,0.8c0,0.2,0,0.5,0.1,0.7C81.2,80.5,81.5,80.9,81.7,81"/>
				<path class="st0" d="M84.1,75.1c-0.1,0.3,0.1,0.8,0.3,1c0.1,0.1-0.1,0.2-0.2,0.2c-0.1-0.1-0.4-0.5-0.5-0.6
					c0,0.1,0.2,0.5,0.2,0.6c0,0.1,0.5,0.6,0.6,0.7c0.2,0.1,0.1,0.5,0,0.7c0,0,1-0.3,1-0.9c-0.1-0.6-0.7-0.9-0.7-1.2
					c-0.1-0.3-0.1-0.9,0.1-1.2C84.6,74.4,84.2,74.8,84.1,75.1"/>
				<polygon class="st0" points="93.6,82.4 91.2,83.3 90.9,83.6 90.7,85.2 91.5,85.8 93.6,84.6 93.8,83.3 				"/>
				<path class="st30" d="M78.3,86C78.2,86,78.2,86,78.3,86L78.3,86c0.1-0.1,0.3-0.2,0.5-0.3c0,0.1,0.1,0.2,0.1,0.3
					C78.6,86.1,78.4,86.1,78.3,86"/>
				<polygon class="st32" points="79,84.8 79.2,84.8 80.1,83.5 				"/>
				<polygon class="st32" points="89.8,81.5 89.5,81.2 91.2,83.2 91.4,83.1 				"/>
				<polygon class="st32" points="90.4,81.1 92.2,82.8 92.4,82.7 				"/>
				<path class="st32" d="M88,81.5L88,81.5l0.2,0.4l0.7,1.4l0.2,0.4c-0.1,0-0.2,0-0.3,0.1c0,0-0.1-0.2-0.2-0.4
					c-0.2-0.4-0.4-1.1-0.6-1.5C88,81.7,88,81.5,88,81.5"/>
				<path class="st32" d="M86.9,81.7c0,0,0.1,0.1,0.2,0.4c0.2,0.4,0.5,1.2,0.7,1.6C87.9,83.9,88,84,88,84l0,0l0,0
					c-0.1,0-0.2,0-0.3,0.1l-0.1-0.4l-0.5-1.6L86.9,81.7L86.9,81.7"/>
				<path class="st32" d="M86.5,83.9c-0.1-0.5-0.2-1.3-0.2-1.7c0-0.2,0-0.4,0-0.4c0,0,0.1,0.2,0.1,0.4c0.1,0.5,0.3,1.2,0.4,1.7
					c0.1,0.2,0.1,0.4,0.1,0.4c0,0-0.1,0-0.1,0c-0.1,0-0.1,0-0.2,0C86.5,84.3,86.5,84.2,86.5,83.9"/>
				<path class="st32" d="M85.3,84.1l0-1.7l0-0.4c0,0,0.1,0.2,0.1,0.4c0.1,0.5,0.2,1.2,0.2,1.7c0,0.2,0,0.4,0,0.4l0,0
					c-0.1,0-0.2,0-0.3,0l0,0L85.3,84.1z"/>
				<path class="st32" d="M84.2,84.3l0.2-1.7l0.1-0.4h0c0,0,0,0.2,0,0.4c0,0.5,0,1.2,0,1.7c0,0.2,0,0.4,0,0.4l0,0l0,0
					c-0.1,0-0.2,0-0.3,0h0h0L84.2,84.3z"/>
				<path class="st32" d="M83.6,82.4c0,0,0,0.2,0,0.4c-0.1,0.4-0.2,1.1-0.2,1.6c0,0.2-0.1,0.4-0.1,0.4c-0.1,0-0.2,0-0.3,0l0,0
					l0.1-0.4l0.4-1.6L83.6,82.4z"/>
				<path class="st32" d="M90,83.5L90,83.5l-0.3-0.4l-0.9-1.3l-0.2-0.4c0,0,0.1,0.1,0.3,0.3c0.3,0.4,0.8,0.9,1,1.3
					c0.2,0.2,0.3,0.4,0.3,0.4C90.2,83.5,90.1,83.5,90,83.5"/>
				<polygon class="st32" points="82.6,83.1 82.9,82.6 82.1,85 81.8,85 				"/>
				<polygon class="st32" points="80.9,83.1 79.7,84.9 80,85 				"/>
				<polygon class="st32" points="80.8,85 81.8,83 81,85 				"/>
				<polygon class="st32" points="91.4,81.1 93.2,82.4 93,82.5 				"/>
			</g>
		</g>
	</g>
</g>
</svg>
