<?xml version="1.0" encoding="utf-8"?>
<!-- Generator: Adobe Illustrator 21.0.2, SVG Export Plug-In . SVG Version: 6.00 Build 0)  -->
<svg version="1.1" id="Layer_1" xmlns="http://www.w3.org/2000/svg" xmlns:xlink="http://www.w3.org/1999/xlink" x="0px" y="0px"
	 viewBox="0 0 200 101.9"  style="enable-background:new 0 0 200 101.9;" xml:space="preserve">
<style type="text/css">
	.st0{fill:#FFFFFF;}
	.st1{fill:#EB3B43;}
	.st2{fill:#1068AF;}
	.st3{fill:#231F20;}
	.st4{font-family:'Arial-Black';}
	.st5{font-size:19.0721px;}
	.st6{letter-spacing:-3;}
	.st7{letter-spacing:-2;}
</style>
<polygon class="st0" points="149.5,100 71,100 51,80.3 50.4,1.7 129.3,1.7 149.5,20 "/>
<title>logos</title>
<polygon class="st1" points="127,3.5 127,10.5 61,10.5 61,87.2 52.8,79.7 52.8,3.3 "/>
<polyline class="st1" points="52.8,3.3 127,3.3 127,10.5 "/>
<polygon class="st2" points="73.4,98 73.4,91 139.4,91 139.4,14.3 147.6,21.8 147.6,98.2 "/>
<polygon class="st1" points="73.4,88 73.4,81 128.4,81 128.4,3.3 136.5,10.8 136.5,88.2 "/>
<text transform="matrix(1 0 0 1 74.334 48.7778)"><tspan x="0" y="0" class="st3 st4 st5 st6">P</tspan><tspan x="9.8" y="0" class="st3 st4 st5 st7">A</tspan><tspan x="22" y="0" class="st3 st4 st5 st7">CK</tspan><tspan x="0" y="18" class="st3 st4 st5 st7">EXPO</tspan></text>
<polygon class="st2" points="127,13.5 127,20.5 72,20.5 72,98 63.8,90.2 63.8,13.3 "/>
</svg>
