<?xml version="1.0" encoding="utf-8"?>
<!-- Generator: Adobe Illustrator 21.0.2, SVG Export Plug-In . SVG Version: 6.00 Build 0)  -->
<svg version="1.1" id="Layer_1" xmlns="http://www.w3.org/2000/svg" xmlns:xlink="http://www.w3.org/1999/xlink" x="0px" y="0px"
	 viewBox="0 0 200 101.9" style="enable-background:new 0 0 200 101.9;" xml:space="preserve">
<style type="text/css">
	.st0{fill:#FFFFFF;}
	.st1{fill:#006082;}
	.st2{fill:url(#SVGID_1_);}
</style>
<title>logos</title>
<path class="st0" d="M182.9,65H17.1c-3.9-3.2-5.7-6.8-6.6-11.5c0,0-0.3-2.1,0.2-5.8c0.9-4.3,2.8-7.6,6.4-10.6h165.8
	c3.6,3,5.5,6.3,6.4,10.5c0,0,0,0,0,0.1c0.5,3.8,0.2,5.8,0.2,5.8s0,0,0,0C188.6,58.2,186.8,61.8,182.9,65z"/>
<g>
	<path class="st1" d="M150.2,58.1c0-1.3-1.3-2.3-2.7-2.3H54.2c-1.5,0-2.7,1-2.7,2.3H30.2v0.4h21.3c0.2,1.2,1.3,2.1,2.7,2.1h93.3
		c1.4,0,2.6-0.9,2.7-2.1h21v-0.4H150.2z"/>
	<g>
		<linearGradient id="SVGID_1_" gradientUnits="userSpaceOnUse" x1="173.2039" y1="34.8692" x2="173.2039" y2="66.9995">
			<stop  offset="0.2143" style="stop-color:#E2E1E0"/>
			<stop  offset="0.2527" style="stop-color:#C4C4C1"/>
			<stop  offset="0.3187" style="stop-color:#C8C7C5"/>
			<stop  offset="0.3626" style="stop-color:#BABAB7"/>
			<stop  offset="0.4341" style="stop-color:#E9E8E7"/>
			<stop  offset="0.522" style="stop-color:#C8C7C5"/>
			<stop  offset="0.7967" style="stop-color:#EBEAE9"/>
			<stop  offset="0.8242" style="stop-color:#EBEAE9"/>
			<stop  offset="0.9011" style="stop-color:#B2B2B0"/>
		</linearGradient>
		<path class="st2" d="M173.2,41.7c0.7,0,1.4,0.5,1.4,1.4c0,0.8-0.7,1.4-1.4,1.4c-0.7,0-1.4-0.5-1.4-1.4
			C171.8,42.2,172.5,41.7,173.2,41.7z M173.2,44.1c0.6,0,1-0.5,1-1.1c0-0.6-0.5-1.1-1-1.1c-0.6,0-1,0.4-1,1.1
			C172.2,43.7,172.6,44.1,173.2,44.1z M172.7,42.3h0.6c0.4,0,0.6,0.1,0.6,0.5c0,0.3-0.2,0.4-0.4,0.4l0.4,0.7h-0.3l-0.4-0.7H173v0.7
			h-0.3V42.3z M173,42.9h0.3c0.2,0,0.3,0,0.3-0.2c0-0.2-0.2-0.2-0.3-0.2H173V42.9z"/>
	</g>
	<g>
		<path class="st1" d="M173.2,41.7c0.7,0,1.4,0.5,1.4,1.4c0,0.8-0.7,1.4-1.4,1.4c-0.7,0-1.4-0.5-1.4-1.4
			C171.8,42.2,172.5,41.7,173.2,41.7z M173.2,44.1c0.6,0,1-0.5,1-1.1c0-0.6-0.5-1.1-1-1.1c-0.6,0-1,0.4-1,1.1
			C172.2,43.7,172.6,44.1,173.2,44.1z M172.7,42.3h0.6c0.4,0,0.6,0.1,0.6,0.5c0,0.3-0.2,0.4-0.4,0.4l0.4,0.7h-0.3l-0.4-0.7H173v0.7
			h-0.3V42.3z M173,42.9h0.3c0.2,0,0.3,0,0.3-0.2c0-0.2-0.2-0.2-0.3-0.2H173V42.9z"/>
	</g>
	<path class="st1" d="M191.2,47.9L191.2,47.9c-0.6-3.5-2.3-6.8-4.6-9.5c-1.3-1.5-2.6-2.9-4.5-3.4h-0.7h-0.1H18.7h-0.3h-0.5
		c-2,0.6-3.2,1.9-4.5,3.4c-2.3,2.6-4,6-4.6,9.5c0,0-0.5,2-0.1,5.4c0,0.1,0,0.3,0.1,0.4c0.6,3.7,2.3,7.2,4.7,10
		c1.3,1.5,2.6,2.9,4.5,3.4h0.7h0.1h162.6h0.3h0.5c2-0.6,3.2-1.9,4.5-3.4c2.4-2.7,4.1-6.2,4.6-9.8c0-0.1,0.1-0.3,0.1-0.5
		C191.7,49.9,191.2,47.9,191.2,47.9z M181.3,63.9H18.7c-3.8-2.9-5.6-6.3-6.4-10.6c0,0-0.3-1.9,0.2-5.4c0.9-3.9,2.7-7,6.3-9.8h162.6
		c3.5,2.7,5.4,5.8,6.2,9.7c0,0,0,0,0,0.1c0.5,3.5,0.2,5.4,0.2,5.4s0,0,0,0C186.9,57.6,185.1,60.9,181.3,63.9z"/>
	<g>
		<g>
			<path class="st1" d="M34.7,52.9c0.1,0.1,0.2,0.1,0.5,0.1v0.3h-4.7V53c0.3,0,0.5-0.1,0.5-0.1c0.1-0.1,0.1-0.2,0.1-0.3V42
				c0-0.1,0-0.2-0.1-0.3c-0.1-0.1-0.2-0.1-0.5-0.1v-0.3h8.2c0.7,0,1.3,0.1,1.9,0.3c0.5,0.2,1,0.5,1.4,0.8c0.4,0.3,0.6,0.8,0.8,1.2
				c0.2,0.5,0.3,0.9,0.3,1.4c0,0.5-0.1,1-0.3,1.4c-0.2,0.5-0.5,0.9-0.8,1.2c-0.4,0.3-0.8,0.6-1.4,0.8c-0.5,0.2-1.2,0.3-1.9,0.3h-4.1
				v3.7C34.6,52.7,34.6,52.8,34.7,52.9z M38,46.5c0.6,0,1.1-0.1,1.4-0.3c0.3-0.2,0.4-0.6,0.4-1c0-0.4-0.1-0.8-0.4-1
				c-0.3-0.2-0.8-0.3-1.4-0.3h-3.5v2.6H38z"/>
			<path class="st1" d="M54.8,41.6c0.9,0.3,1.6,0.7,2.3,1.2c0.6,0.5,1.2,1.2,1.5,1.9c0.4,0.8,0.6,1.6,0.6,2.6c0,1-0.2,1.9-0.6,2.6
				c-0.4,0.8-0.9,1.4-1.5,1.9c-0.6,0.5-1.4,0.9-2.3,1.1c-0.9,0.2-1.8,0.4-2.7,0.4c-1,0-1.9-0.1-2.7-0.4c-0.9-0.2-1.6-0.6-2.3-1.1
				c-0.6-0.5-1.2-1.2-1.5-1.9c-0.4-0.8-0.6-1.6-0.6-2.6c0-1,0.2-1.9,0.6-2.6c0.4-0.8,0.9-1.4,1.5-1.9c0.6-0.5,1.4-0.9,2.3-1.2
				c0.9-0.3,1.8-0.4,2.7-0.4C53.1,41.2,54,41.3,54.8,41.6z M50.7,44.2c-0.4,0.2-0.8,0.4-1.2,0.7c-0.3,0.3-0.6,0.6-0.8,1.1
				c-0.2,0.4-0.3,0.9-0.3,1.4c0,0.5,0.1,1,0.3,1.4c0.2,0.4,0.5,0.8,0.8,1.1c0.3,0.3,0.7,0.5,1.2,0.7c0.4,0.2,0.9,0.2,1.4,0.2
				c0.5,0,1-0.1,1.4-0.2c0.4-0.2,0.8-0.4,1.2-0.7c0.3-0.3,0.6-0.6,0.8-1.1c0.2-0.4,0.3-0.9,0.3-1.4c0-0.5-0.1-1-0.3-1.4
				c-0.2-0.4-0.5-0.8-0.8-1.1c-0.3-0.3-0.7-0.5-1.2-0.7C53.1,44,52.6,44,52.1,44C51.6,44,51.1,44,50.7,44.2z"/>
			<path class="st1" d="M64.6,53c0.1,0,0.2-0.1,0.3-0.1c0.1,0,0.1-0.1,0.1-0.3c0,0,0-0.2-0.1-0.5c-0.1-0.3-0.2-0.7-0.4-1.2
				c-0.2-0.5-0.4-1.1-0.6-1.7c-0.2-0.6-0.4-1.3-0.6-1.9c-0.2-0.7-0.4-1.3-0.6-1.9c-0.2-0.6-0.4-1.2-0.6-1.7
				c-0.2-0.5-0.3-0.9-0.4-1.3c-0.1-0.3-0.2-0.5-0.2-0.6c0-0.2-0.1-0.3-0.2-0.3v-0.3h4.2v0.3c-0.1,0-0.3,0.1-0.3,0.1
				c-0.1,0-0.1,0.1-0.1,0.2c0,0,0,0.2,0.1,0.5c0.1,0.3,0.2,0.6,0.3,1c0.1,0.4,0.3,0.9,0.5,1.4c0.2,0.5,0.3,1,0.5,1.5
				c0.2,0.5,0.3,1,0.5,1.4c0.1,0.5,0.3,0.8,0.4,1.1h0c0.1-0.3,0.2-0.7,0.3-1.1c0.1-0.4,0.3-0.9,0.4-1.4c0.2-0.5,0.3-1,0.5-1.5
				c0.2-0.5,0.3-1,0.4-1.4c0.1-0.4,0.2-0.8,0.3-1.1c0.1-0.3,0.1-0.4,0.1-0.5c0-0.1-0.1-0.2-0.2-0.2c-0.1,0-0.2-0.1-0.3-0.1v-0.3h5.4
				v0.3c-0.1,0-0.2,0.1-0.3,0.1c-0.1,0-0.1,0.1-0.1,0.2c0,0,0,0.2,0.1,0.5c0.1,0.3,0.2,0.7,0.3,1.1c0.1,0.4,0.3,0.9,0.4,1.5
				c0.2,0.5,0.3,1.1,0.4,1.6c0.1,0.5,0.3,1,0.4,1.4c0.1,0.4,0.2,0.8,0.3,1h0c0-0.2,0.1-0.5,0.3-0.9c0.1-0.4,0.3-0.9,0.4-1.4
				c0.2-0.5,0.3-1,0.5-1.6c0.2-0.5,0.3-1,0.5-1.5c0.2-0.5,0.3-0.8,0.4-1.2c0.1-0.3,0.1-0.5,0.1-0.5c0-0.1,0-0.2-0.1-0.3
				c-0.1,0-0.2-0.1-0.3-0.1v-0.3h3.8v0.3c-0.1,0-0.2,0.1-0.3,0.1c-0.1,0.1-0.1,0.2-0.1,0.3c0,0-0.1,0.2-0.2,0.6
				c-0.1,0.3-0.2,0.7-0.4,1.2c-0.2,0.5-0.4,1.1-0.6,1.7s-0.4,1.3-0.7,1.9c-0.2,0.6-0.4,1.3-0.6,1.9c-0.2,0.6-0.4,1.2-0.6,1.7
				c-0.2,0.5-0.3,0.9-0.4,1.2c-0.1,0.3-0.1,0.5-0.1,0.5c0,0.1,0,0.2,0.1,0.3c0.1,0,0.2,0.1,0.3,0.1v0.3h-4.7V53
				c0.3,0,0.5-0.2,0.5-0.3c0-0.2-0.1-0.6-0.2-1.1c-0.2-0.6-0.3-1.2-0.6-2c-0.2-0.8-0.5-1.6-0.7-2.4c-0.3-0.9-0.5-1.7-0.7-2.4h0
				c-0.2,0.7-0.4,1.4-0.7,2.3c-0.3,0.9-0.5,1.7-0.8,2.5c-0.3,0.8-0.5,1.5-0.7,2.1c-0.2,0.6-0.3,0.9-0.3,1c0,0.2,0.2,0.3,0.5,0.3v0.3
				h-4.9V53z"/>
			<path class="st1" d="M93.2,48.9c0-0.2-0.1-0.3-0.2-0.4c-0.1-0.1-0.3-0.1-0.5-0.1h-4.2v2.1h7.3c0.1,0,0.2,0,0.3-0.1
				c0.1-0.1,0.1-0.3,0.1-0.6h0.3v3.9H96c0-0.2-0.1-0.3-0.1-0.4c-0.1,0-0.2-0.1-0.3-0.1H84.2V53c0.3,0,0.5-0.1,0.5-0.1
				c0.1-0.1,0.1-0.2,0.1-0.3V42c0-0.1,0-0.2-0.1-0.3c-0.1-0.1-0.2-0.1-0.5-0.1v-0.3h11.4c0.1,0,0.2,0,0.3-0.1
				c0.1-0.1,0.1-0.3,0.1-0.5h0.3v4H96c0-0.3-0.1-0.4-0.1-0.5c-0.1-0.1-0.2-0.1-0.3-0.1h-7.3v1.9h4.2c0.2,0,0.4,0,0.5-0.1
				c0.1-0.1,0.2-0.2,0.2-0.4h0.3v3.6H93.2z"/>
			<path class="st1" d="M103.6,52.9c0.1,0.1,0.2,0.1,0.5,0.1v0.3h-4.7V53c0.3,0,0.5-0.1,0.5-0.1c0.1-0.1,0.1-0.2,0.1-0.3V42
				c0-0.1,0-0.2-0.1-0.3c-0.1-0.1-0.2-0.1-0.5-0.1v-0.3h8.3c1.7,0,2.9,0.3,3.7,0.9c0.8,0.6,1.1,1.6,1.1,2.9c0,1-0.3,1.9-0.9,2.5
				c-0.6,0.6-1.4,1-2.3,1.3l2.7,3.8c0.2,0.3,0.4,0.4,0.7,0.4v0.3H108V53c0.3,0,0.5-0.2,0.5-0.4c0,0-0.1-0.1-0.2-0.3
				c-0.1-0.2-0.3-0.4-0.5-0.7c-0.2-0.3-0.4-0.5-0.6-0.8c-0.2-0.3-0.4-0.6-0.6-0.9c-0.2-0.3-0.4-0.5-0.5-0.7
				c-0.2-0.2-0.3-0.4-0.3-0.4h-2.2v3.8C103.5,52.7,103.5,52.8,103.6,52.9z M107.3,46.4c0.7,0,1.1-0.1,1.4-0.4
				c0.3-0.3,0.4-0.5,0.4-0.9c0-0.3-0.1-0.6-0.4-0.9c-0.3-0.3-0.7-0.4-1.4-0.4h-3.8v2.5H107.3z"/>
			<path class="st1" d="M114.9,47h6v2.7h-6V47z"/>
			<path class="st1" d="M131.2,49c-0.1,0-0.2,0-0.3,0.1c0,0.1-0.1,0.2-0.1,0.3h-0.3v-3.2h0.3c0,0.3,0.1,0.4,0.3,0.4h6.7v0.3
				c-0.2,0-0.4,0.1-0.4,0.4v3.8c0,0.1,0,0.2,0,0.3c0,0.1,0.1,0.1,0.2,0.1h0.1v0.3c-2.1,1.1-4.5,1.6-7.3,1.6c-1,0-1.9-0.1-2.8-0.4
				c-0.9-0.2-1.7-0.6-2.4-1.1c-0.7-0.5-1.2-1.1-1.7-1.9c-0.4-0.8-0.6-1.7-0.6-2.7c0-1,0.2-1.9,0.6-2.7c0.4-0.8,1-1.4,1.7-1.9
				c0.7-0.5,1.5-0.9,2.4-1.1c0.9-0.3,1.8-0.4,2.8-0.4c0.4,0,0.7,0,1,0c0.3,0,0.6,0,0.8,0.1c0.3,0,0.6,0.1,0.8,0.2
				c0.3,0.1,0.6,0.2,1,0.3c0.4,0.1,0.7,0.2,1,0.4c0.3,0.1,0.5,0.2,0.6,0.2c0.1,0,0.2-0.1,0.3-0.2l0.3,0.1l-1.5,3l-0.3-0.2
				c0-0.1,0-0.2,0-0.3c0-0.1-0.1-0.2-0.4-0.4c-0.3-0.1-0.6-0.2-1-0.4c-0.4-0.1-0.8-0.2-1.3-0.3c-0.5-0.1-1-0.1-1.4-0.1
				c-0.5,0-1.1,0.1-1.6,0.2c-0.5,0.1-0.9,0.4-1.3,0.7c-0.4,0.3-0.7,0.7-0.9,1.1c-0.2,0.4-0.3,1-0.3,1.6c0,0.6,0.1,1.1,0.4,1.6
				c0.3,0.4,0.6,0.8,1,1.1c0.4,0.3,0.9,0.5,1.4,0.6c0.5,0.1,1,0.2,1.5,0.2c0.6,0,1.2,0,1.7-0.1c0.5-0.1,1-0.2,1.5-0.3V49H131.2z"/>
			<path class="st1" d="M149.6,48.9c0-0.2-0.1-0.3-0.2-0.4c-0.1-0.1-0.3-0.1-0.5-0.1h-4.2v2.1h7.3c0.1,0,0.2,0,0.3-0.1
				c0.1-0.1,0.1-0.3,0.1-0.6h0.3v3.9h-0.3c0-0.2-0.1-0.3-0.1-0.4c-0.1,0-0.2-0.1-0.3-0.1h-11.4V53c0.3,0,0.5-0.1,0.5-0.1
				c0.1-0.1,0.1-0.2,0.1-0.3V42c0-0.1,0-0.2-0.1-0.3c-0.1-0.1-0.2-0.1-0.5-0.1v-0.3H152c0.1,0,0.2,0,0.3-0.1
				c0.1-0.1,0.1-0.3,0.1-0.5h0.3v4h-0.3c0-0.3-0.1-0.4-0.1-0.5c-0.1-0.1-0.2-0.1-0.3-0.1h-7.3v1.9h4.2c0.2,0,0.4,0,0.5-0.1
				c0.1-0.1,0.2-0.2,0.2-0.4h0.3v3.6H149.6z"/>
			<path class="st1" d="M156.6,41.7c-0.1-0.1-0.2-0.1-0.5-0.1v-0.3h5.5v0.3c-0.3,0-0.4,0-0.5,0.1c-0.1,0.1-0.1,0.1-0.1,0.2
				c0,0,0.1,0.2,0.3,0.4c0.2,0.2,0.5,0.5,0.8,0.9c0.3,0.4,0.7,0.8,1.1,1.2c0.4,0.4,0.8,0.9,1.2,1.3c0.4,0.4,0.8,0.9,1.2,1.3
				c0.4,0.4,0.7,0.7,1,1V42c0-0.3-0.2-0.4-0.5-0.4v-0.3h4.2v0.3c-0.3,0-0.5,0.1-0.5,0.1c-0.1,0.1-0.1,0.2-0.1,0.3v10.6
				c0,0.1,0,0.2,0.1,0.3c0.1,0.1,0.2,0.1,0.5,0.1v0.3h-4.3V53c0.2,0,0.4,0,0.4-0.1c0.1,0,0.1-0.1,0.1-0.2c0,0,0-0.1-0.1-0.2
				c0-0.1-0.1-0.2-0.3-0.4c-0.2-0.2-0.4-0.4-0.7-0.7c-0.3-0.3-0.7-0.7-1.2-1.3c-0.5-0.5-1.1-1.2-1.8-2c-0.7-0.8-1.6-1.7-2.6-2.9v7.2
				c0,0.1,0,0.2,0.1,0.3c0.1,0.1,0.2,0.1,0.5,0.1v0.3H156V53c0.3,0,0.5-0.1,0.5-0.1c0.1-0.1,0.1-0.2,0.1-0.3V42
				C156.7,41.9,156.6,41.8,156.6,41.7z"/>
		</g>
	</g>
	<g>
		<path class="st0" d="M55.9,59.2c0.1,0,0.1,0,0.2,0c0,0,0,0,0-0.1v-2c0,0,0,0,0-0.1c0,0-0.1,0-0.2,0V57h1.1v0.1
			c-0.1,0-0.2,0-0.2,0.1v2c0,0.1,0.1,0.1,0.2,0.1v0.1L55.9,59.2L55.9,59.2z"/>
		<path class="st0" d="M61.3,59.2c0.1,0,0.1,0,0.1-0.1v-2c0-0.1,0-0.1-0.1-0.1V57h1.1v0.1c0,0-0.1,0-0.1,0c0,0,0.1,0.1,0.2,0.1
			l1.8,1.3v-1.4c0-0.1,0-0.1-0.1-0.1V57h0.9v0.1c-0.1,0-0.1,0-0.1,0.1v2c0,0.1,0,0.1,0.1,0.1v0.1h-1v-0.1c0,0,0.1,0,0.1,0
			c0,0,0,0-0.1-0.1c0,0-0.1-0.1-0.2-0.1l-1.8-1.4v1.5c0,0.1,0.1,0.1,0.2,0.1v0.1L61.3,59.2L61.3,59.2z"/>
		<path class="st0" d="M70.3,59.2C70.3,59.2,70.3,59.2,70.3,59.2l0-1.8h-1c0,0-0.1,0-0.1,0c0,0-0.1,0-0.1,0.1h-0.1v-0.6h0.1
			c0,0,0,0.1,0.1,0.1c0,0,0.1,0,0.1,0H72c0,0,0.1,0,0.1,0c0,0,0.1-0.1,0.1-0.1h0.1v0.6h-0.1c0,0,0-0.1-0.1-0.1c0,0-0.1,0-0.1,0h-1
			v1.8c0,0.1,0,0.1,0.1,0.1v0.1h-1L70.3,59.2C70.3,59.2,70.3,59.2,70.3,59.2z"/>
		<path class="st0" d="M79.2,57.5c0-0.1-0.1-0.1-0.2-0.1h-1.8v0.5h1.1c0.1,0,0.1,0,0.2,0c0,0,0.1,0,0.1-0.1h0.1v0.6h-0.1
			c0,0,0-0.1-0.1-0.1c-0.1,0-0.1,0-0.2,0h-1.1V59h1.9c0.1,0,0.1,0,0.1,0c0,0,0.1,0,0.1-0.1h0.1v0.6h-0.1c0,0,0,0-0.1-0.1
			c0,0-0.1,0-0.1,0h-2.7v-0.1c0,0,0,0,0.1,0c0,0,0,0,0-0.1v-2c0,0,0,0,0-0.1c0,0,0,0-0.1,0V57H79c0.2,0,0.2,0,0.2-0.1h0.1v0.6H79.2z
			"/>
		<path class="st0" d="M86.8,57.2c0.2,0.1,0.4,0.3,0.4,0.5c0,0.1,0,0.2-0.1,0.3c0,0.1-0.1,0.1-0.2,0.2c-0.1,0.1-0.2,0.1-0.3,0.1
			c-0.1,0-0.2,0.1-0.3,0.1l0.7,0.8c0,0,0.1,0.1,0.1,0.1c0,0,0.1,0,0.2,0v0.1h-1.1v-0.1c0.1,0,0.1,0,0.1,0c0,0,0-0.1-0.1-0.2
			l-0.6-0.6h-1v0.8c0,0,0,0,0,0.1c0,0,0.1,0,0.1,0v0.1h-1v-0.1c0.1,0,0.1,0,0.1-0.1v-2c0-0.1,0-0.1-0.1-0.1V57h2
			C86.2,57,86.5,57.1,86.8,57.2z M85.7,58c0.5,0,0.7-0.1,0.7-0.3c0-0.1-0.1-0.2-0.2-0.2c-0.1-0.1-0.3-0.1-0.6-0.1h-1.2V58H85.7z"/>
		<path class="st0" d="M91.4,59.2c0.1,0,0.1,0,0.1-0.1v-2c0-0.1,0-0.1-0.1-0.1V57h1.1v0.1c0,0-0.1,0-0.1,0c0,0,0.1,0.1,0.2,0.1
			l1.8,1.3v-1.4c0-0.1,0-0.1-0.1-0.1V57h0.9v0.1c-0.1,0-0.1,0-0.1,0.1v2c0,0.1,0,0.1,0.1,0.1v0.1h-1v-0.1c0,0,0.1,0,0.1,0
			c0,0,0,0-0.1-0.1c0,0-0.1-0.1-0.2-0.1l-1.8-1.4v1.5c0,0.1,0.1,0.1,0.2,0.1v0.1L91.4,59.2L91.4,59.2z"/>
		<path class="st0" d="M99,59.2c0.1,0,0.1,0,0.1-0.1c0,0,0.1-0.1,0.1-0.1l1.1-1.7c0,0,0.1-0.1,0.1-0.1c0,0,0-0.1,0-0.1c0,0,0,0,0,0
			c0,0,0,0,0,0V57h1.1v0.1c0,0,0,0,0,0c0,0,0,0,0,0c0,0,0,0,0,0.1c0,0,0,0.1,0.1,0.1l1.2,1.8c0,0,0.1,0.1,0.1,0.1c0,0,0.1,0,0.1,0
			v0.1h-1.1v-0.1c0,0,0.1,0,0.1,0c0,0,0,0,0-0.1c0,0,0,0,0-0.1c0,0,0,0,0-0.1l-0.2-0.3h-1.6L99.9,59c0,0,0,0.1,0,0.1c0,0,0,0,0,0.1
			c0,0,0,0,0,0.1c0,0,0.1,0,0.1,0v0.1L99,59.2L99,59.2z M101.4,58.4l-0.6-0.9l-0.5,0.9H101.4z"/>
		<path class="st0" d="M107.8,59.2C107.8,59.2,107.8,59.2,107.8,59.2l0-1.8h-1c0,0-0.1,0-0.1,0c0,0-0.1,0-0.1,0.1h-0.1v-0.6h0.1
			c0,0,0,0.1,0.1,0.1c0,0,0.1,0,0.1,0h2.6c0,0,0.1,0,0.1,0c0,0,0.1-0.1,0.1-0.1h0.1v0.6h-0.1c0,0,0-0.1-0.1-0.1c0,0-0.1,0-0.1,0h-1
			v1.8c0,0.1,0,0.1,0.1,0.1v0.1h-1L107.8,59.2C107.7,59.2,107.7,59.2,107.8,59.2z"/>
		<path class="st0" d="M113.7,59.2c0.1,0,0.1,0,0.2,0c0,0,0,0,0-0.1v-2c0,0,0,0,0-0.1c0,0-0.1,0-0.2,0V57h1.1v0.1
			c-0.1,0-0.2,0-0.2,0.1v2c0,0.1,0.1,0.1,0.2,0.1v0.1L113.7,59.2L113.7,59.2z"/>
		<path class="st0" d="M121.7,57.1c0.2,0,0.4,0.1,0.6,0.2c0.2,0.1,0.3,0.2,0.4,0.4c0.1,0.2,0.2,0.3,0.2,0.5c0,0.2-0.1,0.4-0.2,0.5
			c-0.1,0.2-0.2,0.3-0.4,0.4c-0.2,0.1-0.4,0.2-0.6,0.2c-0.2,0-0.5,0.1-0.8,0.1c-0.3,0-0.5,0-0.8-0.1c-0.2,0-0.4-0.1-0.6-0.2
			c-0.2-0.1-0.3-0.2-0.4-0.4c-0.1-0.2-0.2-0.3-0.2-0.5c0-0.2,0.1-0.4,0.2-0.5c0.1-0.2,0.2-0.3,0.4-0.4c0.2-0.1,0.4-0.2,0.6-0.2
			c0.2,0,0.5-0.1,0.8-0.1C121.2,57,121.5,57,121.7,57.1z M120.5,57.4c-0.2,0-0.3,0.1-0.4,0.2c-0.1,0.1-0.2,0.2-0.3,0.3
			c-0.1,0.1-0.1,0.2-0.1,0.3c0,0.1,0,0.2,0.1,0.3c0.1,0.1,0.2,0.2,0.3,0.3c0.1,0.1,0.3,0.1,0.4,0.2c0.2,0,0.3,0.1,0.5,0.1
			c0.2,0,0.3,0,0.5-0.1c0.2,0,0.3-0.1,0.4-0.2c0.1-0.1,0.2-0.2,0.3-0.3c0.1-0.1,0.1-0.2,0.1-0.3c0-0.1,0-0.2-0.1-0.3
			c-0.1-0.1-0.2-0.2-0.3-0.3c-0.1-0.1-0.3-0.1-0.4-0.2c-0.2,0-0.3-0.1-0.5-0.1C120.8,57.4,120.6,57.4,120.5,57.4z"/>
		<path class="st0" d="M127.2,59.2c0.1,0,0.1,0,0.1-0.1v-2c0-0.1,0-0.1-0.1-0.1V57h1.1v0.1c0,0-0.1,0-0.1,0c0,0,0.1,0.1,0.2,0.1
			l1.8,1.3v-1.4c0-0.1,0-0.1-0.1-0.1V57h0.9v0.1c-0.1,0-0.1,0-0.1,0.1v2c0,0.1,0,0.1,0.1,0.1v0.1h-1v-0.1c0,0,0.1,0,0.1,0
			c0,0,0,0-0.1-0.1c0,0-0.1-0.1-0.2-0.1l-1.8-1.4v1.5c0,0.1,0.1,0.1,0.2,0.1v0.1L127.2,59.2L127.2,59.2z"/>
		<path class="st0" d="M134.7,59.2c0.1,0,0.1,0,0.1-0.1c0,0,0.1-0.1,0.1-0.1l1.1-1.7c0,0,0.1-0.1,0.1-0.1c0,0,0-0.1,0-0.1
			c0,0,0,0,0,0c0,0,0,0,0,0V57h1.1v0.1c0,0,0,0,0,0c0,0,0,0,0,0c0,0,0,0,0,0.1c0,0,0,0.1,0.1,0.1l1.2,1.8c0,0,0.1,0.1,0.1,0.1
			c0,0,0.1,0,0.1,0v0.1h-1.1v-0.1c0,0,0.1,0,0.1,0c0,0,0,0,0-0.1c0,0,0,0,0-0.1c0,0,0,0,0-0.1l-0.2-0.3h-1.6l-0.2,0.3
			c0,0,0,0.1,0,0.1c0,0,0,0,0,0.1c0,0,0,0,0,0.1c0,0,0.1,0,0.1,0v0.1L134.7,59.2L134.7,59.2z M137.2,58.4l-0.6-0.9l-0.5,0.9H137.2z"
			/>
		<path class="st0" d="M143.5,57L143.5,57c-0.1,0.1-0.2,0.1-0.2,0.2V59h2c0.1,0,0.1,0,0.1,0c0,0,0.1,0,0.1-0.1h0.1v0.6h-0.1
			c0,0,0,0-0.1,0c0,0-0.1,0-0.1,0h-2.9v-0.1c0.1,0,0.2,0,0.2-0.1v-2c0-0.1-0.1-0.1-0.2-0.1V57H143.5z"/>
	</g>
</g>
</svg>
