<?xml version="1.0" encoding="utf-8"?>
<!-- Generator: Adobe Illustrator 21.1.0, SVG Export Plug-In . SVG Version: 6.00 Build 0)  -->
<svg version="1.1" id="icons" xmlns="http://www.w3.org/2000/svg" xmlns:xlink="http://www.w3.org/1999/xlink" x="0px" y="0px"
	 viewBox="0 0 200 101.9" style="enable-background:new 0 0 200 101.9;" xml:space="preserve">
<style type="text/css">
	.st0{fill:#006097;}
	.st1{fill:#0899C6;}
	.st2{fill:#E31837;}
	.st3{fill:#FFFFFF;}
</style>
<path class="st0" d="M56.5,41.3c3.2,0,6.8,0.5,6.8,4.4c0,4.3-3.8,4.6-7.4,4.6h-4.6v-9.1H56.5z M44.8,35.6v35h6.5V55.9h4.2
	c0.1,0.2,8,14.7,8,14.7h7.8c0,0-9-15-9.2-15.4c5-0.8,7.9-4.3,7.9-9.5c0-8.3-7.1-10.1-13.1-10.1H44.8z"/>
<polygon class="st0" points="73.4,35.6 73.4,70.6 97.6,70.6 97.6,64.7 79.9,64.7 79.9,55.6 95.8,55.6 95.8,49.7 79.9,49.7 
	79.9,41.6 96.7,41.6 96.7,35.6 "/>
<path class="st1" d="M98,53.3c0,10.7,7.6,18.2,18.5,18.2c5.6,0,10.1-2.2,13.1-6.2l0.1-0.1l-5.4-3.8l-0.1,0.1
	c-2.2,2.7-4.7,4.1-7.6,4.1c-6.9,0-11.7-5.2-11.7-12.7c0-7.1,4.9-12.2,11.7-12.2c2.8,0,5,1,7.2,3.4l0.1,0.1l5.1-3.7l-0.1-0.1
	c-3.3-3.8-7.2-5.5-12.3-5.5C105.5,34.8,98,42.2,98,53.3"/>
<path class="st1" d="M135.4,52.9c0-7.1,4.9-12.2,11.7-12.2c6.8,0,11.8,5.1,11.8,12.2c0,7.5-4.8,12.7-11.8,12.7
	C140.2,65.6,135.4,60.4,135.4,52.9 M147.1,34.8L147.1,34.8L147.1,34.8z M147.1,34.8c-11,0-18.5,7.4-18.5,18.5
	c0,10.7,7.6,18.2,18.5,18.2c11.1-0.2,18.6-7.6,18.6-18.4c0-5.4-1.8-10.1-5.2-13.4C157.1,36.4,152.5,34.7,147.1,34.8"/>
<path class="st1" d="M167.8,35.6h6.5v5.3h0.1c1.7-3.6,6-6.1,11.2-6.1c6.6,0,12.4,4,12.4,13v22.8h-6.5v-21c0-6.4-3.7-8.8-7.8-8.8
	c-5.4,0-9.5,3.5-9.5,11.4v18.4h-6.5V35.6z"/>
<polygon class="st2" points="2.5,58.4 10,51.1 10,43.8 2.5,51 "/>
<polygon class="st2" points="26.8,35 26.8,27.6 19.3,34.9 19.3,42.3 19.3,42.3 19.3,43.2 23.5,47.4 19.3,51.5 19.3,58.9 26.8,51.6 
	26.8,50.5 26.8,44.3 26.8,43.1 22.6,39.1 "/>
<polygon class="st2" points="18.3,43.1 18.3,35.8 10.9,43 10.9,50.5 10.9,51.6 18.3,58.9 18.3,51.5 14,47.3 "/>
<polygon class="st2" points="35.1,35.9 27.7,43.1 27.7,44.1 27.7,44.1 27.7,51.5 35.1,58.8 35.1,51.4 30.9,47.3 35.1,43.2 "/>
<rect x="2.9" y="60.6" class="st3" width="2.5" height="10.1"/>
<path class="st3" d="M13.6,64c-0.4-0.9-1.2-1.5-2.1-1.5c-1.4,0-2.5,0.9-2.5,3.2c0,1.5,0.6,3.2,2.6,3.2c0.7,0,1.7-0.5,2.1-1.4l2,1
	C14.8,70,13.3,71,11.6,71c-3.2,0-5.1-2.5-5.1-5.3c0-2.8,1.8-5.3,4.9-5.3c2,0,3.3,1,4.2,2.6L13.6,64z"/>
<path class="st3" d="M18.3,67.7c0.9,0.8,1.7,1.3,2.9,1.3c0.7,0,1.9-0.3,1.9-1.2c0-0.5-0.4-0.8-1.1-0.9l-2.1-0.3
	c-1.9-0.3-2.9-1.3-2.9-2.8c0-2.4,2-3.4,4.1-3.4c1.7,0,3.3,0.7,4.4,1.9l-1.9,1.4c-0.7-0.8-1.6-1.3-2.7-1.3c-0.6,0-1.4,0.4-1.4,1
	c0,0.5,0.4,0.8,1.4,1l1,0.2c2,0.3,3.7,0.9,3.7,2.9c0,3-2.7,3.6-4.6,3.6c-1.7,0-3.2-0.6-4.5-2.1L18.3,67.7z"/>
<path class="st3" d="M33.5,64c-0.4-0.9-1.2-1.5-2.1-1.5c-1.4,0-2.5,0.9-2.5,3.2c0,1.5,0.6,3.2,2.6,3.2c0.7,0,1.7-0.5,2.1-1.4l2,1
	C34.7,70,33.2,71,31.5,71c-3.2,0-5.1-2.5-5.1-5.3c0-2.8,1.8-5.3,4.9-5.3c2,0,3.3,1,4.2,2.6L33.5,64z"/>
</svg>
