<?xml version="1.0" encoding="utf-8"?>
<!-- Generator: Adobe Illustrator 21.1.0, SVG Export Plug-In . SVG Version: 6.00 Build 0)  -->
<svg version="1.1" id="icons" xmlns="http://www.w3.org/2000/svg" xmlns:xlink="http://www.w3.org/1999/xlink" x="0px" y="0px"
	 viewBox="0 0 200 101.9" style="enable-background:new 0 0 200 101.9;" xml:space="preserve">
<style type="text/css">
	.st0{fill:#030303;}
	.st1{fill:#FFDD00;}
	.st2{fill:#A89200;}
	.st3{fill:#F6921E;}
	.st4{fill:#FFFFFF;}
	.st5{fill:#81ADBC;}
	.st6{fill:#EC0677;}
	.st7{fill:#F48120;}
	.st8{fill:none;}
	.st9{fill:#0094D9;}
	.st10{stroke:#000000;stroke-width:0;}
	.st11{fill:#EC1C24;}
	.st12{fill:#008F4C;}
	.st13{fill:#A5CD39;}
	.st14{fill:#50B748;}
	.st15{clip-path:url(#SVGID_4_);fill:#F9A51A;}
	.st16{fill:#790000;}
	.st17{fill:#034EA1;}
</style>
<g>
	<g>
		<path d="M55.8,65.1c0,0,36.2-25.8,84.5,0.2v24.3c0,0-37.9-25.8-84.5,0V65.1z"/>
		<path class="st0" d="M140.7,90.4l-0.7-0.5c0,0-2.4-1.6-6.6-3.6c-3.9-1.8-10.2-4.4-18-6c-8.8-1.9-17.8-2.3-26.7-1.2
			c-11.1,1.3-22.1,5-32.7,10.8l-0.6,0.3V64.9l0.2-0.1c0.1-0.1,9.3-6.5,24.3-9.7c8.8-1.9,17.9-2.3,26.9-1.2
			c11.3,1.4,22.7,5.1,33.7,11l0.2,0.1V90.4z M56.2,65.3v23.5c10.5-5.7,21.4-9.2,32.4-10.6c9-1.1,18.1-0.7,27,1.2
			c7.9,1.7,14.3,4.2,18.2,6.1c3,1.4,5.1,2.6,6,3.2V65.5c-10.9-5.8-22.1-9.5-33.2-10.8c-9-1.1-17.9-0.7-26.6,1.1
			C66.4,58.8,57.6,64.4,56.2,65.3z"/>
	</g>
	<path d="M98.4,12.8c-22.6,0-41,17.5-41,38.9c0,21.5,18.4,38.9,41,38.9c22.6,0,41-17.5,41-38.9C139.3,30.3,121,12.8,98.4,12.8z"/>
	<g>
		<ellipse class="st1" cx="99.2" cy="50.8" rx="39.7" ry="37.6"/>
		<path d="M99.2,89.1c-22.2,0-40.3-17.2-40.3-38.2c0-21.1,18.1-38.2,40.3-38.2s40.3,17.2,40.3,38.2C139.5,71.9,121.4,89.1,99.2,89.1
			z M99.2,13.9c-21.5,0-39,16.6-39,37c0,20.4,17.5,37,39,37s39-16.6,39-37C138.3,30.5,120.7,13.9,99.2,13.9z"/>
	</g>
	<g>
		<path class="st2" d="M61.3,62.2C63.9,70,69,76.7,75.8,81.4c18.6-5.2,34.8-3.1,46.3,0.3c6.6-4.4,11.8-10.8,14.5-18.2
			C101.2,46.2,72.8,56.4,61.3,62.2z"/>
	</g>
	<g>
		<path d="M99.2,89.1c-22.2,0-40.3-17.2-40.3-38.2c0-21.1,18.1-38.2,40.3-38.2s40.3,17.2,40.3,38.2C139.5,71.9,121.4,89.1,99.2,89.1
			z M99.2,13.9c-21.5,0-39,16.6-39,37c0,20.4,17.5,37,39,37s39-16.6,39-37C138.3,30.5,120.7,13.9,99.2,13.9z"/>
	</g>
	<g>
		<g>
			<path class="st2" d="M111.6,15.1C111.6,15.1,111.5,15.1,111.6,15.1C111.6,15.1,111.6,15.2,111.6,15.1
				C111.6,15.1,111.6,15.1,111.6,15.1z"/>
		</g>
		<g>
			<path class="st2" d="M68.6,59.7c2.6-0.3,4.2-1.1,5.1-2c1.2,0.9,2.7,1.1,3.9,0.5c1.5-0.9,2-3,1.2-4.9c0.4-0.3,0.8-0.6,1.2-0.9
				c0.3,0.9,0.5,1.5,0.5,1.5l0.1,0.3l0.3,0c2.5,0.4,4.5,0.3,6.2-0.1c1.8,1.6,4.2,2.6,6.9,2.6v0c0,0,0.1,0,0.1,0l0.1,0l0.1,0
				c2.6-0.1,4.9-1,6.7-2.6c-0.3,2-0.5,3.7-0.4,4l21.1,1.3c0.9,1.6,2.3,2.9,4,3.5c4,1.6,8.7-0.4,11.4-4.8c0.4-0.3,0.8-0.6,1.2-0.9
				c0.4-2,0.5-4.1,0.5-6.2c0-10-4.1-19-10.8-25.7c0,0.7,0,1.4,0.1,2.3c0,0,0.5,0.9,1.7,1.3c-1.5,1.2-2.6,3.3-2.3,6.9
				c-0.3-0.1-0.7-0.2-1.2-0.2c-1,0-1.7,0.5-1.7,0.9c0,0.2,0.1,0.3,0.3,0.5c-0.2,0.1-0.3,0.2-0.5,0.4c-0.1,0.1-0.2,0.2-0.3,0.3
				c-0.1-0.3-0.2-0.6-0.4-0.9c-0.2-0.4-0.4-0.7-0.6-1.1c0,0,0-0.1,0.1-0.1c0.2-0.7-0.1-1.8-0.5-2.6c-0.4-0.7-0.9-1.6-1.6-1.9
				c-0.4-1.2-0.6-2.4-0.5-3.7c0.1,0,0.3,0,0.4-0.1c0.5-0.2,0.7-0.8,0.7-1.6c0.4,0,0.8-0.1,1-0.5c0.2-0.4,0-0.7-0.4-1.2
				c0.8-0.2,1.6-0.6,1.5-1.3c0-0.1-0.1-0.2-0.1-0.3c0.3-0.1,0.5-0.2,0.7-0.4c-0.8-0.6-1.6-1.2-2.4-1.7c-0.2,0-0.5,0.1-0.7,0.1
				c-0.3,0.1-0.6,0.1-0.9,0.2c-4.5,1-8.3,4.1-11.4,9.2c-0.5,0.2-1.1,0.7-1.7,1.5c-0.3,0.4-1.1,1.5-1.1,2.3c-0.2,0.2-0.4,0.4-0.6,0.7
				c-0.6,0.7-1.2,1.8-1.1,2.5c0,0.2,0.1,0.4,0.2,0.5c-0.1,0.1-0.1,0.2-0.2,0.2c-0.6,0.9-1.2,2.1-1,3c0,0.2,0.2,0.4,0.3,0.5
				c-0.2,0.3-0.4,0.6-0.6,1c-0.3,0.5-0.5,1.2-0.7,1.8l-0.2-0.1c0.1-0.4,0.6-1,0.5-1.2c-0.4-0.6-0.7-1-1.1-1.5
				c-0.1-0.1-0.2-0.1-0.3-0.1l-0.1-0.1h-1.6l-0.1-0.6c0-0.4,0-0.9-0.3-1c-0.2-0.1-0.4-0.2-0.6-0.3c0.5-0.8,0.8-1.8,0.8-2.9
				c0-1.3-0.4-2.5-1.2-3.4l-0.1-0.1L97,30.9l-0.5-0.2c-0.5-0.3-1.1-0.5-1.7-0.6l-0.2-0.1h-0.3c-0.2,0-0.4,0-0.6,0
				c-0.1,0-0.3,0-0.4,0H93l-1.8,0.7l-1.9,1.4c-0.7-1.3-1.4-2.5-2.1-3.5c-0.4-0.6-0.8-1.1-1.1-1.6c1-0.2,1.5-1.1,1.7-1.4
				c0.1,0.3,0.3,0.6,0.4,0.8c0.2,0.4,0.4,0.4,0.4,0.4c1.8-0.5,3.1-1.5,3.9-2.6c2.3,6,5.6,4.3,5.6,4.3c4.7,4.1,6.9,0.3,6.9,0.3
				c2.3,0.2,3.4-0.5,3.4-0.5c3.1-3.6,2.6-7.5,2.6-7.5c0-0.2,0-0.5,0-0.7c0,0,0,0,0,0c0.6-0.6,1-1.5,1-2.4c0-1.3-0.6-2.4-1.5-3
				c-3.5-1-7.3-1.5-11.2-1.5c-5.4,0-10.5,1-15.2,2.9c-1.2,2.1-1.7,4.5-1.8,6.6c-0.6-0.5-0.9-0.8-1-0.8l-0.2-0.1l-0.2,0
				c-3.4,0.3-6.5,2.4-7.5,3.2l-3,0.2c-6.7,6.7-10.7,15.8-10.7,25.7c0,1.9,0.1,3.8,0.4,5.6c0.2,0,0.4,0,0.6,0
				C61.3,58.1,63.2,60.4,68.6,59.7z M124.3,40.1c0,0.2,0,0.3,0.1,0.4c0,0,0,0-0.1,0c-0.1-0.1-0.1-0.2-0.2-0.3
				C124.2,40.2,124.2,40.2,124.3,40.1z M77.2,39.5c-0.2-0.1-0.3-0.1-0.5-0.2c0.2-0.1,0.3-0.2,0.5-0.3C77.2,39.2,77.2,39.3,77.2,39.5
				z M73.3,37.4l2.4-7.9l1.3,0.6c0,1.8,0.1,3.7,0.2,5.6c-0.1,0.3-0.3,0.5-0.4,0.7c-0.2,0.2-0.3,0.4-0.4,0.6
				c-0.5,0.8-0.6,1.7-0.3,2.1c-0.9-0.2-1.9-0.3-2.9-0.3C73.2,38.4,73.3,37.9,73.3,37.4z"/>
		</g>
	</g>
	<g>
		<path d="M99.2,89.1c-22.2,0-40.3-17.2-40.3-38.2c0-21.1,18.1-38.2,40.3-38.2s40.3,17.2,40.3,38.2C139.5,71.9,121.4,89.1,99.2,89.1
			z M99.2,13.9c-21.5,0-39,16.6-39,37c0,20.4,17.5,37,39,37s39-16.6,39-37C138.3,30.5,120.7,13.9,99.2,13.9z"/>
	</g>
	<g>
		<g>
			<path class="st3" d="M81.4,20.4c-3.4,0.3-6.5,2.5-7.4,3.1l-5.7,0.4c0.1-0.2,0.1-0.3,0.1-0.5c-0.1-0.5-1-0.7-2-0.5
				c0.1-0.3,0-0.5-0.1-0.7c-0.4-0.4-1.3-0.1-2.1,0.5c0-0.7-0.2-1.2-0.6-1.3c-0.4-0.1-1,0.4-1.4,1.2c0,0,0,0,0-0.1
				c-0.7-1.6-1.7-2.6-2.2-2.4c-0.6,0.2-0.5,1.7,0.2,3.3c0,0.1,0.1,0.2,0.1,0.3c-0.7-0.8-1.5-1.1-2-0.8c-0.3,0.3-0.3,0.9,0,1.6
				c0,0-0.1,0-0.1,0c-1.2-0.2-2.2,0.1-2.3,0.6c0,0.2,0,0.3,0.1,0.5l0,0c-1-0.5-4.5-1.9-7.9-1.4c0,0-9.1,11.1-6.3,29.3
				c0,0,4.7,4.6,13.3,1.1c0,0,0.1-0.9,0.2-2.4c1.7,1.2,3.9,1.8,6.2,1.7c0.5,1.5,2.1,4,7.5,3.3c5.2-0.7,6.1-3.2,6.2-4.8
				c2.3-0.5,4.3-1.6,5.6-3.1c0.4,1.5,0.7,2.3,0.7,2.3c9.2,1.4,12.7-4.1,12.7-4.1C92.7,29.2,81.4,20.4,81.4,20.4z M54.8,41.3
				c-0.3-3.2-0.9-6.8-1.8-10.6l1.8-1.5l5.5,9.6C58.2,39.2,56.3,40.1,54.8,41.3z M78.6,38.6c-1.7-0.9-3.8-1.3-6-1.1l3.2-10.6l2.1,1
				C77.9,31.8,78.2,35.4,78.6,38.6z"/>
		</g>
		<g>
			<path d="M67.8,26.9c-1,0.1-1.8,0.8-2.3,1.8c-0.7-0.9-1.7-1.4-2.7-1.3c-1.8,0.2-3.1,2.3-2.8,4.8c0.3,2.4,2,4.2,3.8,4
				c1-0.1,1.8-0.8,2.3-1.8c0.7,0.9,1.7,1.4,2.7,1.3c1.8-0.2,3.1-2.3,2.8-4.8C71.3,28.5,69.6,26.7,67.8,26.9z"/>
			<path d="M63.5,36.4c-0.8,0-1.7-0.4-2.3-1.1c-0.7-0.8-1.2-1.9-1.4-3.1c-0.1-1.2,0.1-2.4,0.6-3.3c0.6-1,1.4-1.5,2.3-1.7
				c1-0.1,1.9,0.3,2.7,1.1c0.6-0.9,1.4-1.5,2.3-1.6l0,0c0.9-0.1,1.9,0.3,2.7,1.1c0.7,0.8,1.2,1.9,1.4,3.1c0.1,1.2-0.1,2.4-0.6,3.3
				c-0.6,1-1.4,1.5-2.3,1.7c-1,0.1-1.9-0.3-2.7-1.1c-0.6,0.9-1.4,1.5-2.3,1.6C63.7,36.4,63.6,36.4,63.5,36.4z M63,27.6
				c-0.1,0-0.2,0-0.3,0c-0.8,0.1-1.5,0.6-2,1.4c-0.5,0.9-0.7,2-0.6,3.1c0.1,1.1,0.6,2.1,1.3,2.9c0.7,0.7,1.5,1,2.3,1
				c0.9-0.1,1.7-0.7,2.1-1.7L66,34l0.2,0.3c0.7,0.9,1.6,1.3,2.5,1.2c0.8-0.1,1.5-0.6,2-1.4c0.5-0.9,0.7-2,0.6-3.1
				c-0.1-1.1-0.6-2.1-1.3-2.9c-0.7-0.7-1.5-1-2.3-1c-0.9,0.1-1.7,0.7-2.1,1.7l-0.1,0.3l-0.2-0.3C64.7,28,63.9,27.6,63,27.6z"/>
		</g>
		<g>
			<path class="st4" d="M67.6,27.6c-0.9,0.1-1.6,0.8-2.1,1.7c-0.6-0.9-1.5-1.4-2.5-1.3c-1.6,0.2-2.7,2.2-2.5,4.5
				c0.3,2.3,1.8,4,3.4,3.8c0.9-0.1,1.6-0.8,2.1-1.7c0.6,0.9,1.5,1.4,2.5,1.3c1.6-0.2,2.7-2.2,2.5-4.5C70.8,29.1,69.3,27.4,67.6,27.6
				z"/>
		</g>
		<g>
			<path d="M63.5,26.2c-0.5-0.3-1.1-0.5-1.7-0.4c-1.2,0.1-2.1,1.1-2.6,2.4C59.1,28.2,60.5,26.1,63.5,26.2z"/>
			<path d="M59.2,28.3L59,28.2c0.5-1.4,1.5-2.4,2.7-2.5c0.6-0.1,1.2,0.1,1.8,0.4l0.3,0.2l-0.4,0C60.6,26.2,59.3,28.2,59.2,28.3z
				 M62,25.9c-0.1,0-0.2,0-0.3,0c-0.9,0.1-1.8,0.8-2.2,1.8c0.6-0.6,1.8-1.5,3.5-1.6C62.7,25.9,62.4,25.9,62,25.9z"/>
		</g>
		<g>
			<path d="M66.6,25.8c0.4-0.4,1-0.7,1.6-0.8c1.2-0.1,2.3,0.6,3.1,1.8C71.3,26.8,69.4,25.1,66.6,25.8z"/>
			<path d="M71.2,26.9c0,0-1.8-1.7-4.6-1L66.2,26l0.3-0.3c0.5-0.5,1-0.8,1.7-0.8c1.2-0.1,2.4,0.5,3.2,1.8L71.2,26.9z M68,25.5
				c1.3,0,2.3,0.5,2.8,0.8c-0.7-0.9-1.6-1.3-2.6-1.2c-0.4,0.1-0.9,0.2-1.2,0.5C67.3,25.6,67.7,25.5,68,25.5z"/>
		</g>
		<g>
			<path class="st3" d="M70.8,30.2c-0.6-1.7-1.8-2.8-3.2-2.6c-0.9,0.1-1.6,0.8-2.1,1.7"/>
		</g>
		<g>
			<path class="st3" d="M65.6,29.3c-0.6-0.9-1.5-1.4-2.5-1.3c-1.4,0.2-2.4,1.6-2.5,3.4"/>
		</g>
		<g>
			<g>
				<ellipse transform="matrix(0.9934 -0.1145 0.1145 0.9934 -3.2722 7.5275)" cx="63.9" cy="32.2" rx="1.4" ry="2"/>
				<path d="M64,34.5c-0.8,0-1.6-0.9-1.7-2c-0.1-1.2,0.5-2.3,1.4-2.4c0.5-0.1,0.9,0.1,1.3,0.5c0.3,0.4,0.6,0.9,0.6,1.5
					c0.1,0.6,0,1.2-0.3,1.6c-0.3,0.5-0.6,0.8-1.1,0.8C64.1,34.5,64.1,34.5,64,34.5z M63.8,30.4C63.7,30.4,63.7,30.4,63.8,30.4
					c-0.8,0.1-1.2,1-1.1,2c0.1,1,0.8,1.7,1.4,1.7c0.3,0,0.6-0.2,0.8-0.6c0.2-0.4,0.3-0.9,0.2-1.3c-0.1-0.5-0.2-0.9-0.5-1.3
					C64.3,30.6,64.1,30.4,63.8,30.4z"/>
			</g>
			<g>
				<path class="st5" d="M64.1,34c0.6-0.1,1-0.9,0.9-1.9c-0.1-0.9-0.6-1.7-1.3-1.7c-0.6,0.1-1,0.9-0.9,1.9
					C62.9,33.3,63.5,34.1,64.1,34z"/>
			</g>
			<g>
				<ellipse transform="matrix(0.9934 -0.1145 0.1145 0.9934 -3.287 7.5368)" cx="64" cy="32.4" rx="0.7" ry="1.3"/>
			</g>
		</g>
		<g>
			<g>
				<ellipse transform="matrix(0.9934 -0.1145 0.1145 0.9934 -3.1948 8.0037)" cx="68.1" cy="31.8" rx="1.4" ry="2"/>
				<path d="M68.2,34c-0.4,0-0.8-0.2-1.1-0.6c-0.3-0.4-0.6-0.9-0.6-1.5c-0.1-1.2,0.5-2.3,1.4-2.4c0.5-0.1,0.9,0.1,1.3,0.5
					c0.3,0.4,0.6,0.9,0.6,1.5c0.1,1.2-0.5,2.3-1.4,2.4C68.3,34,68.2,34,68.2,34z M68,30C67.9,30,67.9,30,68,30c-0.8,0.1-1.2,1-1.1,2
					c0.1,0.5,0.2,0.9,0.5,1.3c0.3,0.3,0.6,0.4,0.9,0.4c0.7-0.1,1.1-0.9,1-1.9c-0.1-0.5-0.2-0.9-0.5-1.3C68.5,30.1,68.2,30,68,30z"/>
			</g>
			<g>
				<path class="st5" d="M68.3,33.6c0.6-0.1,1-0.9,0.9-1.9c-0.1-0.9-0.6-1.7-1.3-1.7c-0.6,0.1-1,0.9-0.9,1.9
					C67.1,32.9,67.7,33.6,68.3,33.6z"/>
			</g>
			<g>
				<ellipse transform="matrix(0.9934 -0.1145 0.1145 0.9934 -3.2102 8.0068)" cx="68.1" cy="31.9" rx="0.7" ry="1.3"/>
			</g>
		</g>
		<g>
			<path d="M58.7,32l6.1-4.2c0,0,0.6,0.8,0.7,0.7c0.1-0.1,0.7-0.8,0.7-0.8l6.6,2.7l-0.1,0.4l-7.1-1.5l-6.6,3.1L58.7,32z"/>
		</g>
		<path d="M94.6,47.5c-0.5-6.3-2.1-11.4-4-15.4c-1.1-2.5-2.3-4.5-3.4-6c-1.2-1.8-2.4-3.1-3.4-4c-1.3-1.4-2.2-2.1-2.3-2.1l-0.2-0.1
			l-0.2,0c-3.4,0.3-6.5,2.4-7.5,3.2l-5,0.3c0,0,0,0,0,0c-0.2-0.6-0.9-1-2-1c0-0.2-0.1-0.3-0.3-0.5c-0.4-0.5-1.2-0.5-2.1,0
			c-0.2-0.5-0.4-0.8-0.8-0.9c-0.5-0.1-1,0.1-1.4,0.6c-0.5-0.9-1.1-1.6-1.7-1.8c-0.4-0.2-0.7-0.1-0.8,0c-0.8,0.3-0.8,1.5-0.5,2.7
			c-0.5-0.2-0.9-0.1-1.2,0.1c-0.4,0.3-0.5,0.8-0.4,1.4c-0.7,0-1.3,0.1-1.7,0.4c-0.2,0.1-0.4,0.3-0.5,0.5c-1.5-0.6-4.5-1.5-7.4-1.1
			l-0.2,0l-0.1,0.2c-0.1,0.1-2.4,2.9-4.3,8c-1.8,4.7-3.6,12.2-2.1,21.8l0,0.2l0.1,0.1c0.2,0.2,5.1,4.8,13.9,1.3l0.3-0.1l0-0.3
			c0,0,0.1-0.6,0.1-1.6c1.6,0.9,3.4,1.4,5.4,1.3c0.7,1.7,2.5,4,7.9,3.3c2.6-0.3,4.2-1.1,5.1-2c1.2,0.9,2.7,1.2,3.9,0.5
			c1.5-0.9,2-3,1.2-4.9c0.4-0.3,0.9-0.6,1.2-0.9c0.3,0.9,0.5,1.5,0.5,1.5l0.1,0.3l0.3,0c9.4,1.4,13.1-4.1,13.2-4.4l0.1-0.1
			L94.6,47.5z M60.6,23.5C60.6,23.5,60.6,23.4,60.6,23.5C60.6,23.4,60.6,23.4,60.6,23.5C60.6,23.4,60.6,23.4,60.6,23.5z M58.5,23.4
			C58.5,23.4,58.5,23.4,58.5,23.4c0,0,0,0.1,0,0.1C58.5,23.4,58.5,23.4,58.5,23.4z M80.3,49c-0.5,0.5-1,1-1.6,1.4
			c-0.5-0.7-1.1-1.3-1.9-1.6l-4.7,3.3c0,0.7,0.3,1.5,0.7,2.2c0.2,0.3,0.3,0.5,0.5,0.8c-0.9,0.8-2.3,1.4-4.5,1.7
			c-5,0.7-6.5-1.5-6.9-2.9l-0.1-0.4l-0.4,0c-2.2,0.1-4.3-0.5-5.9-1.6l-0.2-0.1c0-1.4,0-3.3,0-5.4c0-1.3-0.1-2.9-0.2-4.5l0.1-0.1
			c1.2-1.1,2.8-1.8,4.5-2.1c2.6,4.9,6.7,5.9,7.5,6.1l0,0.1l0.1,0l0.1,0l0-0.1c0.8-0.3,4.6-2.3,6-7.6c1.7,0,3.5,0.3,4.9,1.1l0.3,0.2
			c0.2,1.5,0.5,3,0.8,4.3c0.4,2,0.8,3.8,1.2,5.2L80.3,49z M53.6,31l1.1-0.9l3.8,6.7c0.2,0.7,0.4,1.3,0.7,1.8c-1.5,0.3-2.8,0.9-4,1.8
			C54.9,37.2,54.3,34,53.6,31z M76.1,27.6l1.3,0.6c0,3.2,0.2,6.3,0.5,9.5c-1.3-0.5-2.8-0.8-4.3-0.8c0.1-0.6,0.2-1.2,0.2-1.9
			L76.1,27.6z M82.3,50.7c-1-2.2-2.1-7-3.2-14.3C78.4,31.7,79,23.1,79,23l0,0l0-0.2l-4.7,1.5l0,0.4c0.8,0.1,3,0.5,3.7,0.9
			C78,26,77.9,26.5,77.9,27l-4-2l0,0.3c-0.2,1.6,0.3,2.8,0.3,2.9l0.4-0.1l0.1-1.5l0.5,0.2l-2.3,7.7c-1.2-0.3-3.6-0.7-6.8-0.6l0,0
			L66,34l-0.1,0l0,0c-3.1,0.6-5.4,1.5-6.5,2.1l-3.9-6.9l0.5-0.4l0.5,1.4l0.4,0c0-0.1,0.2-1.3-0.4-2.9L56.4,27L53,29.9
			c-0.1-0.5-0.3-0.9-0.5-1.3c0.6-0.5,2.7-1.4,3.4-1.7l-0.1-0.4l-5-0.4l0.1,0.2l0,0c0,0.1,2.6,8.3,2.9,13.1
			c0.5,7.3,0.6,12.2,0.1,14.6c-0.7,0.4-6,3.2-11.5-0.9c-0.2-1.2-2.7-16.1,5.7-28.3c0.4,0,2.3-0.1,4.9,0.4c1.2,0.3,2.1,0.7,2.5,0.9
			l0.1,0.1l0.2,0l0.8-0.1c0,0-0.5-0.7-0.5-0.7c0-0.1,0-0.1,0-0.1c0.1-0.1,0.7-0.4,1.7-0.2c0,0,0,0,0.1,0l0,0l1.1,0.2
			c0,0-0.5-1-0.5-1c-0.1-0.2-0.2-0.4-0.2-0.5c0.1,0.4,3.9,0.4,3.8-0.2l0.3-0.7c0.3-0.7,0.7-0.9,0.7-0.9c0.1,0,0.2,0.3,0.2,0.8l0,1.1
			l0.9-0.7c0.7-0.6,1.3-0.7,1.4-0.6c0,0,0,0.1,0,0.2l-0.2,0.8l0.8-0.1c0.8-0.2,1.3,0,1.4,0.1c0,0,0,0,0,0.1l-0.4,0.8l0.9-0.1
			l5.7-0.4l0.2,0l0.1-0.1c0.4-0.3,1.3-0.9,2.4-1.5c2.3-1,4-1.3,4.5-1.4c0.7,0.6,3.3,3,6,7.1c5.5,8.8,6.1,18.2,6.1,19.2
			C88.9,52.5,83.1,51,82.3,50.7z"/>
		<path class="st6" d="M76.4,49.3l-1.8,1.5c3.2,0.6,1.9,3.5,1.9,3.5c-0.7-1.9-1.8-3.4-1.9-3.5L73,52.1c1.3,2.2,3,3.5,4.3,2.8
			C78.4,54.2,78.9,52.5,76.4,49.3z"/>
		<g>
			<path d="M77.6,40.4c0.2,2.6-2.4,2.1-2.4,2.1c1.2,0.6,1.8,0.4,2.1,0c-0.6,4.3-0.2,5.5-3.1,8.2c-2.7,2.5-6.5-1.9-6.5-1.9
				c0,0-2.6,5.2-5.9,3.4c-3.4-2-3.3-3.3-4.9-7.2c0.4,0.1,1,0,1.7-0.7c0,0-2.4,1.1-2.8-1.5c0,0,0.1,1.9,1.1,2.2c0,0.5,0.2,6.5,4.9,8
				c4.6,1.6,5.8-3.4,6-3.9c0.3,0.6,2.6,4.9,6.7,2.4c4.2-2.6,3-8.6,2.9-9C77.8,41.8,77.6,40.4,77.6,40.4z"/>
			<path d="M63.5,53.5c-0.6,0-1.1-0.1-1.8-0.3c-2-0.7-3.5-2.2-4.3-4.6c-0.6-1.6-0.7-3-0.7-3.5c-1-0.5-1.1-2.3-1.1-2.3l0.4,0
				c0.1,0.7,0.4,1.2,0.8,1.4c0.7,0.4,1.7,0,1.7,0l0.2,0.4c-0.6,0.5-1.1,0.7-1.5,0.8c0.2,0.6,0.4,1.1,0.6,1.6
				c0.9,2.6,1.3,3.7,4.1,5.2c1,0.6,3.1,1,5.5-3.2c0.1-0.1,0.1-0.2,0.2-0.2l0-0.2l0.1,0.2c0.1,0,0.1,0.1,0.2,0.1
				c0.5,0.6,2.4,2.5,4.3,2.6c0.7,0,1.3-0.2,1.9-0.7c2.3-2.1,2.4-3.3,2.8-6c0.1-0.5,0.1-0.9,0.2-1.5c-0.4,0.2-1,0.2-2-0.3l0.1-0.4
				c0,0,1,0.2,1.7-0.4c0.4-0.3,0.5-0.8,0.5-1.5l0.4-0.1c0,0.1,0.2,1.4-0.2,2.2c0.2,0.8,1.1,6.5-3,9.1c-1.2,0.8-2.4,1-3.6,0.7
				c-1.6-0.4-2.7-1.9-3.2-2.7c-0.3,0.9-1,2.6-2.5,3.4C64.8,53.3,64.2,53.5,63.5,53.5z M57.3,46.4c0.1,0.6,0.3,1.3,0.5,2
				c0.8,2.2,2.2,3.7,4,4.3c1.3,0.4,2.4,0.4,3.3-0.1c1.1-0.6,1.7-1.8,2.1-2.6c-1.7,2.5-3.7,3.4-5.5,2.4c-2.9-1.6-3.3-2.8-4.2-5.4
				C57.5,46.7,57.4,46.6,57.3,46.4z M68.5,49.8c0.5,0.8,1.4,1.7,2.6,2.1c1,0.3,2.1,0.1,3.2-0.6c1.7-1.1,2.7-2.8,3-5.2
				c0.1-0.8,0.1-1.5,0-2c0,0.2,0,0.3-0.1,0.5c-0.3,2.8-0.5,4-2.9,6.3c-0.6,0.6-1.4,0.9-2.2,0.8C70.8,51.6,69.4,50.7,68.5,49.8z
				 M57.1,44.7c0.2,0,0.3,0,0.6,0c-0.3,0-0.6-0.1-0.9-0.2c0,0-0.1,0-0.1-0.1C56.7,44.5,56.9,44.6,57.1,44.7L57.1,44.7z M76.4,42.7
				c0.4,0,0.6-0.1,0.8-0.3l0,0l0,0c0,0,0.1-0.1,0.1-0.2c0,0-0.1,0.1-0.1,0.1C76.9,42.5,76.6,42.7,76.4,42.7z"/>
		</g>
		<g>
			<path class="st4" d="M72.2,36.1c-0.5,1.9-2,2.2-2.1,2.2l0,0c0,0,0,0,0,0c0,0,0,0,0,0l0,0c-0.1,0-1.5-0.6-1.6-2.6
				C68.5,35.7,70.3,35.5,72.2,36.1z"/>
			<path class="st4" d="M70.1,38.3L70.1,38.3L70.1,38.3L70.1,38.3c-0.3-0.1-1.5-0.7-1.7-2.6l0,0l0,0c0,0,1.8-0.2,3.7,0.4l0,0l0,0
				C71.7,37.9,70.4,38.3,70.1,38.3L70.1,38.3z M68.5,35.7c0.1,1.9,1.4,2.5,1.6,2.5c0.2,0,1.5-0.3,2.1-2.2
				C70.4,35.5,68.8,35.7,68.5,35.7z"/>
		</g>
	</g>
	<g>
		<g>
			<g>
				<defs>
					<path id="SVGID_1_" d="M111.4,19C111.5,6.5,97.6,7.1,97.6,7.1c-20,1.6-14.3,20.7-14.3,20.7c-3.4,1.6-5.3,4.9-6.2,6.7
						c-0.2,0.2-0.3,0.4-0.4,0.6c-0.6,1-0.6,2-0.2,2.3c0.3,0.1,0.6,0,1-0.3c-0.2,1.1,0.1,2.1,0.7,2.3c0.6,0.2,1.3-0.3,1.8-1.2
						c0,1.2,0.5,2.1,1.1,2.2c0.5,0,0.9-0.4,1.2-1c0.2,1,0.7,1.7,1.3,1.7c0.6,0,1.1-0.6,1.3-1.6c0.5,0.7,1,1,1.5,0.9
						c0.6-0.2,0.8-0.9,0.8-2c0.5,0.6,1,0.8,1.4,0.7c0.6-0.2,0.8-1.3,0.5-2.4c0.7,0.7,1.6,1,2.1,0.7c0.5-0.4,0.5-1.3,0.1-2.4
						c0.5,0.2,0.9,0.2,1.1,0c0.4-0.4,0-1.3-0.8-2.1c-0.2-0.2-0.3-0.3-0.5-0.4c-1.6-1.9-5.6-4.5-5.6-4.5c0.3-1.6,0.3-2.6,0.3-2.6
						c1.6,0.1,2.3-1.5,2.3-1.5c0.3,1.2,0.8,1.4,0.8,1.4c2.3-0.7,3.9-2.6,3.9-2.6c2.3,6,5.6,4.3,5.6,4.3c4.7,4.1,6.9,0.3,6.9,0.3
						c2.3,0.2,3.4-0.5,3.4-0.5C111.9,22.9,111.4,19,111.4,19z"/>
				</defs>
				<use xlink:href="#SVGID_1_"  style="overflow:visible;fill:#F26F21;"/>
				<clipPath id="SVGID_2_">
					<use xlink:href="#SVGID_1_"  style="overflow:visible;"/>
				</clipPath>
			</g>
			<path d="M111.9,19c0-3.6-1.1-6.5-3.3-8.6c-4.2-4-10.8-3.8-11.1-3.8c-6.1,0.5-10.4,2.6-13,6.3c-3.8,5.5-2.3,12.8-1.9,14.6
				c-3.3,1.7-5.1,4.9-6,6.7c-0.2,0.2-0.3,0.4-0.4,0.6c-0.3,0.5-0.5,1.1-0.5,1.6c-0.1,0.9,0.3,1.2,0.6,1.4c0.2,0.1,0.4,0.2,0.7,0.1
				c0.1,1,0.5,1.7,1.1,1.9c0.5,0.2,1.1,0,1.6-0.4c0.3,0.8,0.8,1.4,1.4,1.5c0.4,0,0.8-0.1,1.1-0.4c0.4,0.7,0.9,1.1,1.4,1.1
				c0,0,0,0,0,0c0.6,0,1.1-0.4,1.5-1.1c0.5,0.4,1,0.5,1.5,0.4c0.6-0.2,0.9-0.7,1.1-1.4c0.4,0.2,0.8,0.2,1.1,0.1c0.6-0.2,1-0.9,1-1.8
				c0.6,0.3,1.2,0.3,1.7,0c0.6-0.4,0.8-1.2,0.6-2.1c0.3,0,0.5-0.1,0.6-0.3c0.6-0.6,0.3-1.8-0.8-2.9c-0.2-0.2-0.3-0.3-0.5-0.4
				c-1.4-1.6-4.4-3.7-5.4-4.4c0.1-0.8,0.2-1.5,0.2-1.9c0.7-0.1,1.3-0.5,1.7-0.9c0.3,0.5,0.6,0.7,0.7,0.7l0.2,0.1l0.2,0
				c1.6-0.5,2.9-1.5,3.6-2.2c0.9,2,2,3.3,3.4,3.9c1,0.4,1.8,0.2,2.2,0.1c1.7,1.4,3.3,2,4.8,1.8c1.3-0.2,2.1-1.1,2.5-1.5
				c2.3,0.2,3.4-0.6,3.5-0.7l0.1,0l0,0C112.3,23.3,112,19.4,111.9,19z M108.4,26.1c-0.2,0.1-1.2,0.6-3,0.4l-0.3,0l-0.2,0.3
				c0,0-0.7,1.1-1.9,1.3c-1.2,0.2-2.6-0.4-4.1-1.7l-0.3-0.2l-0.3,0.2c0,0-0.8,0.4-1.7,0c-1.2-0.5-2.3-1.9-3.1-4l-0.3-0.9l-0.6,0.7
				c0,0-1.4,1.7-3.4,2.4c-0.1-0.1-0.2-0.4-0.4-0.9l-0.4-1.4l-0.6,1.3c0,0.1-0.6,1.3-1.8,1.2l-0.6,0l0,0.6c0,0,0,1-0.3,2.5L85,28.1
				l0.3,0.2c0,0,4,2.6,5.5,4.4l0,0l0.1,0c0.2,0.1,0.3,0.2,0.4,0.4c0.6,0.6,0.8,1.2,0.8,1.4c-0.1,0-0.2,0-0.5-0.1l-1.3-0.6l0.6,1.3
				c0.4,0.8,0.4,1.5,0.1,1.7c-0.2,0.1-0.8,0-1.4-0.6l-1.4-1.3l0.5,1.9c0.3,1,0.1,1.7-0.1,1.8c-0.1,0.1-0.5-0.1-0.8-0.5l-1-1.2
				l0.1,1.6c0,0.8-0.2,1.4-0.4,1.4c-0.2,0.1-0.5-0.1-0.9-0.7l-0.6-0.9l-0.3,1c-0.2,0.8-0.6,1.2-0.8,1.2c0,0,0,0,0,0
				c-0.2,0-0.6-0.4-0.8-1.3l-0.4-1.5L82,39.1c-0.2,0.5-0.5,0.7-0.6,0.7c-0.2,0-0.6-0.6-0.6-1.7l0-1.9l-1,1.7c-0.4,0.7-0.9,1-1.2,1
				c-0.3-0.1-0.5-0.8-0.4-1.7l0.2-1.4l-1.1,0.9c-0.2,0.2-0.3,0.2-0.4,0.2c-0.1-0.2-0.1-0.8,0.4-1.5c0.1-0.2,0.2-0.4,0.4-0.5l0-0.1
				l0-0.1c0.8-1.7,2.7-4.9,5.9-6.4l0.4-0.2l-0.1-0.4c0-0.1-2.4-8.3,1.6-14.1c2.4-3.4,6.5-5.4,12.2-5.9c0.1,0,6.4-0.2,10.3,3.5
				c2,1.9,3,4.6,3,7.9l0,0l0,0C110.9,19.1,111.3,22.7,108.4,26.1z"/>
		</g>
		<g>
			<path class="st7" d="M93,9.7c0,0,5.2-2.6,10.3-1c0,0-2-7.3-11.7-6.7c0,0,1.1,2.2,0.6,4.9C92.2,6.8,94,7.8,93,9.7z"/>
			<path d="M91.8,10.9l0.7-1.4c0.7-1.4-0.4-2-0.6-2.2l-0.3-0.2l0.1-0.4c0.5-2.4-0.5-4.5-0.5-4.6l-0.4-0.7l0.8,0
				c10-0.5,12.3,7,12.3,7.1l0.3,0.9l-0.9-0.3c-4.8-1.5-9.9,1-9.9,1L91.8,10.9z M92.7,6.6c0.4,0.3,1.1,1.1,1.1,2.2
				c1.7-0.6,5.1-1.6,8.6-0.9c-0.9-1.8-3.5-5.5-10.1-5.5C92.7,3.3,93,4.8,92.7,6.6z"/>
		</g>
		<g>
			<path class="st7" d="M87.3,18.5c0,0,3.5-3.9,7.5-0.2c0,0-1,5.5-5.8,6.7c0,0-1.5-1.2-0.6-3.3C89.2,19.6,87.3,18.5,87.3,18.5z"/>
			<path d="M88.9,25.6l-0.2-0.2c-0.6-0.5-1.6-2-0.8-3.9c0.7-1.7-0.7-2.5-0.8-2.5l-0.6-0.3l0.4-0.5c0.1-0.1,1.7-1.9,4-2
				c1.5-0.1,2.9,0.5,4.2,1.7l0.2,0.2l0,0.3c0,0.2-1.1,5.9-6.2,7.2L88.9,25.6z M88.2,18.5c0.7,0.7,1.4,1.9,0.7,3.5
				c-0.5,1.3,0,2.2,0.3,2.5c3.6-1.1,4.8-4.9,5-6c-1-0.9-2.1-1.3-3.2-1.2C89.7,17.4,88.7,18,88.2,18.5z"/>
		</g>
		<g>
			<path d="M112.4,15.9c0-1.8-1.3-3.4-2.9-3.4c-0.4,0-0.8,0.1-1.2,0.3c-0.3-0.2-0.7-0.2-1.1-0.3c-1.6,0-3,1.5-3,3.3
				c0,1.8,1.3,3.4,2.9,3.4c1.1,0,2-0.6,2.5-1.6c0.9,0.7,1.7,0.7,1.7,0.7C112,17.7,112.4,16.8,112.4,15.9z"/>
			<path d="M107.2,19.3C107.2,19.3,107.1,19.3,107.2,19.3c-0.8,0-1.6-0.4-2.2-1c-0.6-0.7-0.9-1.5-0.9-2.4c0-0.9,0.3-1.8,0.9-2.4
				c0.6-0.6,1.4-1,2.2-1c0.4,0,0.7,0.1,1.1,0.2c0.4-0.2,0.8-0.3,1.2-0.3c0.8,0,1.6,0.4,2.1,1c0.6,0.7,0.9,1.5,0.9,2.4
				c0,1-0.4,1.9-1,2.5l0,0l0,0c0,0-0.8-0.1-1.7-0.7C109.2,18.7,108.2,19.3,107.2,19.3z M107.2,12.6c-0.7,0-1.4,0.3-2,0.9
				c-0.5,0.6-0.8,1.4-0.9,2.3c0,0.9,0.3,1.7,0.8,2.3c0.5,0.6,1.2,1,2,1c1,0,1.9-0.6,2.4-1.6l0.1-0.1l0.1,0.1
				c0.7,0.6,1.4,0.7,1.6,0.7c0.6-0.6,0.9-1.4,0.9-2.3l0,0c0-0.9-0.3-1.7-0.8-2.3c-0.5-0.6-1.2-1-2-1c-0.4,0-0.8,0.1-1.1,0.3l0,0l0,0
				C107.9,12.7,107.6,12.6,107.2,12.6C107.2,12.6,107.2,12.6,107.2,12.6z"/>
		</g>
		<g>
			<path class="st4" d="M107,15.7c0-1.6,1.1-2.8,2.4-2.8c1.3,0,2.3,1.3,2.3,2.9c0,0.7-0.2,1.4-0.6,1.9c0,0-1.2,0.1-2.4-1.4L107,15.7
				z"/>
		</g>
		<g>
			
				<ellipse transform="matrix(1.176073e-02 -0.9999 0.9999 1.176073e-02 93.1471 125.8559)" cx="110.2" cy="15.8" rx="1.7" ry="0.9"/>
		</g>
		<g>
			
				<ellipse transform="matrix(1.179728e-02 -0.9999 0.9999 1.179728e-02 90.4804 122.8815)" class="st4" cx="107.4" cy="15.7" rx="3.1" ry="2.6"/>
			<path d="M107.4,19C107.4,19,107.4,19,107.4,19L107.4,19c-1.6,0-2.8-1.5-2.8-3.4c0-0.9,0.3-1.7,0.8-2.4c0.5-0.6,1.3-1,2-1
				c0.8,0,1.5,0.4,2,1c0.5,0.6,0.8,1.5,0.8,2.4C110.2,17.5,108.9,19,107.4,19z M107.4,18.6C107.4,18.6,107.4,18.6,107.4,18.6
				c1.3,0,2.4-1.3,2.4-2.9c0-0.8-0.2-1.5-0.7-2.1c-0.4-0.5-1-0.8-1.6-0.9c-0.6,0-1.2,0.3-1.7,0.8c-0.5,0.5-0.7,1.3-0.7,2.1
				C105,17.2,106.1,18.6,107.4,18.6L107.4,18.6z"/>
		</g>
		<g>
			
				<ellipse transform="matrix(1.181681e-02 -0.9999 0.9999 1.181681e-02 90.0911 122.8389)" cx="107.2" cy="15.8" rx="1.7" ry="0.9"/>
		</g>
		<g>
			<polygon points="107.7,12.5 106.1,12.9 103.4,16.5 108.7,13.1 			"/>
		</g>
		<g>
			<path d="M107.6,12.3l-1.6,0.4l-0.1,0l0,0.1l-2.7,3.6l0.3,0.3l5.4-3.4l0.3-0.2l-0.3-0.2l-1.1-0.6L107.6,12.3L107.6,12.3z
				 M108.6,12.9l-5.4,3.4l0.3,0.3l2.7-3.6l-0.1,0.1l1.6-0.4l-0.2,0l1.1,0.6L108.6,12.9z"/>
		</g>
		<g>
			<polygon points="108.7,12.7 110.5,12.8 112,15 109.7,14.2 			"/>
		</g>
		<g>
			<path d="M107.7,11.5c-0.6-0.3-1.2-0.4-1.8-0.2c-1.2,0.3-2,1.3-2.3,2.7C103.6,13.9,104.8,11.7,107.7,11.5z"/>
			<path d="M103.7,13.9l-0.2-0.1c0.3-1.5,1.2-2.5,2.4-2.8c0.6-0.1,1.2,0,1.8,0.2l0.4,0.2l-0.4,0C104.9,11.8,103.7,13.9,103.7,13.9z
				 M106.5,11.3c-0.2,0-0.3,0-0.5,0.1c-0.9,0.2-1.7,0.9-2.1,2c0.5-0.6,1.6-1.6,3.4-1.9C107,11.3,106.7,11.3,106.5,11.3z"/>
		</g>
		<g>
			<path d="M108.8,11.3c0.5-0.2,0.9-0.3,1.4-0.2c0.9,0.2,1.6,1.1,1.8,2.2C112,13.3,111.1,11.5,108.8,11.3z"/>
			<path d="M111.9,13.3c0,0-0.9-1.8-3.2-2l-0.3,0l0.3-0.1c0.5-0.2,1-0.3,1.5-0.2c0.9,0.2,1.6,1.1,1.9,2.3L111.9,13.3z M109.1,11.2
				c1.4,0.2,2.3,1.1,2.7,1.6c-0.3-0.9-0.9-1.4-1.6-1.6C109.8,11.1,109.5,11.1,109.1,11.2z"/>
		</g>
		<g>
			<path d="M84.6,31.8c-0.3,0-1.1-0.1-1.6-3.6L84,28c0.1,0.9,0.4,1.9,0.6,2.4c0.1-0.4,0.3-1.1,0.5-2.4l1.1,0.2
				C85.7,30.8,85.3,31.8,84.6,31.8C84.6,31.8,84.6,31.8,84.6,31.8z"/>
		</g>
		<g>
			<path d="M96.4,22.5c0,0,0.1,2.4,2.5,4.1l-1.1,0.4C97.8,26.9,96,24.4,96.4,22.5z"/>
			<path d="M97.7,27L97.7,27c-0.1-0.2-1.9-2.6-1.4-4.6l0.2,0c0,0,0.1,2.3,2.4,4l0.2,0.1L97.7,27z M96.5,23.2c0,1.6,1.1,3.2,1.3,3.6
				l0.9-0.3C97.2,25.4,96.7,24,96.5,23.2z"/>
		</g>
		<g>
			<path d="M97.6,18c3.5,0.2,2.9-2.5,2.4-3.8c0,0,0.9,3.3-2.4,3.1c-3.3-0.3-1.8-2.6-1.9-3.2C95.7,14.1,93.9,17.8,97.6,18
				C97.5,18,97.6,18,97.6,18c-2.4,8.1,6.9,9.5,6.9,9.5l0.6-1C96.3,25.4,97.4,18.8,97.6,18z"/>
			<path d="M104.6,27.7L104.6,27.7c-0.1,0-4.6-0.7-6.6-3.8c-1-1.6-1.2-3.5-0.6-5.7c-1-0.1-1.6-0.4-2-1c-0.7-1.2,0.1-3,0.2-3.1l0.2,0
				c0,0.1,0,0.3-0.1,0.6c-0.2,0.5-0.4,1.3,0,1.8c0.3,0.4,0.9,0.7,1.9,0.7c0.9,0.1,1.6-0.1,2-0.6c0.7-0.8,0.3-2.3,0.3-2.3l0.2-0.1
				c0.5,1.4,0.5,2.4,0,3.1c-0.4,0.6-1.3,0.9-2.4,0.8c-0.1,0.6-0.4,3,1,5.1c1.2,1.7,3.4,2.8,6.4,3.2l0.2,0L104.6,27.7z M97.3,19.6
				c-0.2,1.6,0.1,2.9,0.8,4.1c1.8,2.8,5.7,3.6,6.3,3.7l0.5-0.8c-3-0.4-5.2-1.5-6.4-3.3C97.6,22.1,97.4,20.7,97.3,19.6z M97.5,17.9
				L97.5,17.9c1.2,0.1,2-0.2,2.4-0.7c0.3-0.4,0.4-0.9,0.3-1.6c0,0.4-0.2,0.8-0.5,1.2c-0.4,0.5-1.2,0.8-2.2,0.7c-1-0.1-1.7-0.4-2-0.8
				c-0.1-0.1-0.1-0.2-0.2-0.3c0,0.3,0.1,0.5,0.2,0.8C96,17.6,96.6,17.9,97.5,17.9L97.5,17.9z"/>
		</g>
		<g>
			<path d="M94,15.1c-0.6,0.3-1.3,0.2-1.6-0.3c-0.2-0.4-0.1-0.9,0.3-1.3c0.1,0,0.2-0.1,0.4-0.1c0.1-0.1,0.2-0.1,0.3-0.2c0,0,0,0,0,0
				c0,0,0,0,0,0c0.1-0.1,0.2-0.2,0.3-0.4c-0.1,0.1-0.2,0.2-0.3,0.3c-0.6,0.3-1.3,0.2-1.6-0.3c-0.3-0.5,0-1.2,0.6-1.5
				c0.1-0.1,0.3-0.1,0.4-0.1c-0.3,0-0.5,0-0.8,0.2c-0.5,0.3-0.8,0.9-0.7,1.4c-0.3,0-0.5,0-0.8,0.1c-0.8,0.3-1.2,1.1-0.9,1.8
				c0.3,0.7,1.1,1,1.9,0.6c0.2-0.1,0.4-0.2,0.5-0.3c0,0,0,0.1,0.1,0.1c0.3,0.6,1.1,0.7,1.7,0.4c0.3-0.1,0.4-0.3,0.6-0.6
				C94.2,14.9,94.1,15,94,15.1z M91.7,14.9c-0.8,0.3-1.6,0.1-1.8-0.5c-0.2-0.6,0.2-1.3,0.9-1.6c0.1,0,0.2-0.1,0.4-0.1
				c0,0.1,0.1,0.2,0.1,0.2c0.2,0.4,0.6,0.5,1,0.6c-0.4,0.3-0.5,0.8-0.4,1.2C91.8,14.8,91.8,14.8,91.7,14.9z"/>
			<path d="M93,15.8c-0.1,0-0.2,0-0.3,0c-0.3-0.1-0.6-0.3-0.8-0.5c-0.1,0.1-0.2,0.1-0.4,0.2c-0.9,0.4-1.9,0-2.3-0.8
				c-0.2-0.4-0.1-0.8,0.1-1.2c0.2-0.4,0.6-0.7,1-0.9c0.2-0.1,0.4-0.1,0.6-0.2c0-0.5,0.3-1,0.9-1.3c0.3-0.2,0.6-0.2,0.9-0.2l0,0.5
				c-0.1,0-0.2,0.1-0.3,0.1c-0.5,0.3-0.7,0.8-0.5,1.1c0.2,0.4,0.8,0.5,1.2,0.2c0.1-0.1,0.2-0.1,0.3-0.2l0.4,0.3
				c-0.1,0.2-0.2,0.3-0.3,0.4l-0.1-0.1c0,0,0,0,0,0l0.1,0.1c-0.1,0.1-0.2,0.2-0.3,0.2c-0.1,0.1-0.2,0.1-0.4,0.1
				c-0.3,0.3-0.4,0.7-0.2,0.9c0.2,0.4,0.8,0.5,1.2,0.2v0c0.1-0.1,0.2-0.1,0.3-0.2l0.4,0.3c-0.2,0.3-0.4,0.5-0.7,0.7
				C93.6,15.8,93.3,15.8,93,15.8z M91.1,13c0,0-0.1,0-0.1,0c-0.3,0.1-0.6,0.3-0.7,0.6c-0.1,0.2-0.2,0.5-0.1,0.7
				c0.2,0.4,0.8,0.6,1.4,0.3c0-0.3,0-0.6,0.2-0.9C91.5,13.6,91.3,13.4,91.1,13C91.1,13.1,91.1,13.1,91.1,13z"/>
		</g>
		<g>
			<path d="M90.1,2.9c0,0,8.3-0.5,10.4,4.9l-1.8,0C98.6,7.9,98,4.2,90.1,2.9z"/>
		</g>
		<g>
			<path d="M90.2,4.4c0,0,5.3-0.3,6.8,3.5l-1.6,0.3C95.4,8.3,95.5,5.9,90.2,4.4z"/>
		</g>
		<g>
			<path d="M91.8,18.9c0,0,1-0.5,1.3,0.1l-2.7,5.1l-0.5,0.2L91.8,18.9z"/>
		</g>
		<g>
			<path d="M89.7,19c0,0,0.7-0.6,1.3-0.3l-1.6,5.9l-0.4-0.2L89.7,19z"/>
		</g>
		<g>
			<path d="M86.6,31.4c-0.5-0.6-1.1-0.9-1.3-0.8c-0.1,0.1-0.1,0.2,0,0.4c-0.1,0-0.1,0-0.2,0C85,31.2,85,31.4,85,31.6
				c-0.1-0.1-0.2-0.1-0.3-0.1c-0.1,0-0.1,0-0.2,0.1c0,0,0,0-0.1,0c-0.1,0-0.2,0-0.3,0.1c0-0.3,0-0.5-0.2-0.6c0,0-0.1,0-0.2,0
				c0.1-0.2,0.1-0.4,0-0.4c-0.2-0.2-0.7,0.2-1.3,0.8c-0.5,0.6-0.8,1.2-0.7,1.3c0.1,0.1,0.4,0,0.8-0.3c-0.3,0.7-0.3,1.2-0.1,1.4
				c0.2,0.1,0.5-0.1,0.9-0.6c-0.1,0.8,0.1,1.5,0.5,1.6c0.2,0,0.5-0.2,0.7-0.6c0.2,0.4,0.4,0.6,0.6,0.5c0.4-0.1,0.5-0.7,0.4-1.6
				c0.3,0.4,0.7,0.7,0.9,0.5c0.3-0.1,0.2-0.7-0.1-1.4c0.3,0.3,0.6,0.4,0.8,0.3C87.4,32.6,87.1,32,86.6,31.4z"/>
			<path d="M84,35.1C83.9,35.1,83.9,35.1,84,35.1c-0.4-0.1-0.7-0.6-0.6-1.4C83,34,82.7,34.1,82.5,34c-0.3-0.2-0.3-0.7-0.1-1.2
				c-0.2,0.1-0.5,0.2-0.6,0.1c-0.3-0.2,0.2-0.9,0.7-1.5c0.3-0.3,0.6-0.5,0.8-0.7c0.3-0.2,0.5-0.2,0.6-0.1c0.1,0.1,0.1,0.2,0,0.4
				c0,0,0,0,0,0c0.1,0.1,0.2,0.2,0.2,0.5c0.1,0,0.1,0,0.2,0c0,0,0,0,0,0c0.1-0.1,0.1-0.1,0.2-0.1c0.1,0,0.1,0,0.2,0
				c0-0.3,0.1-0.4,0.2-0.5c0,0,0,0,0,0c-0.1-0.2-0.1-0.3,0-0.4c0.1-0.1,0.3-0.1,0.6,0.1c0.3,0.1,0.5,0.4,0.8,0.7
				c0.5,0.5,1,1.2,0.7,1.5c-0.1,0.1-0.4,0-0.6-0.1c0.2,0.5,0.2,1-0.1,1.2c-0.2,0.1-0.5,0-0.8-0.3c0,0.7-0.2,1.3-0.6,1.4
				c-0.2,0-0.5-0.1-0.7-0.4C84.4,34.9,84.2,35.1,84,35.1z M83.6,33l0,0.4c-0.1,0.8,0.1,1.4,0.4,1.5c0.2,0,0.4-0.2,0.6-0.6l0.1-0.2
				l0.1,0.2c0.2,0.3,0.4,0.5,0.5,0.5c0.3,0,0.5-0.6,0.4-1.5l0-0.4l0.2,0.3c0.3,0.4,0.6,0.6,0.7,0.5c0.2-0.1,0.2-0.6-0.1-1.2
				l-0.2-0.4l0.3,0.2c0.4,0.3,0.6,0.3,0.6,0.3c0.1-0.1-0.1-0.5-0.7-1.2l0,0c-0.3-0.3-0.5-0.5-0.8-0.6c-0.3-0.1-0.4-0.1-0.4-0.1
				c0,0,0,0.1,0.1,0.3l0.1,0.2l-0.2,0c0,0-0.1,0-0.1,0c-0.1,0-0.1,0.2-0.1,0.5l0,0.2l-0.2-0.1c-0.1-0.1-0.2-0.1-0.2-0.1
				c0,0-0.1,0-0.1,0.1l0,0l-0.1,0c0,0,0,0,0,0c-0.1,0-0.1,0-0.2,0.1L84,32l0-0.2c0-0.2,0-0.4-0.1-0.5c0,0-0.1,0-0.1,0l-0.2,0
				l0.1-0.2c0.1-0.2,0.1-0.3,0.1-0.3c0,0-0.1,0-0.4,0.1c-0.2,0.1-0.5,0.4-0.8,0.6c-0.6,0.6-0.8,1.1-0.7,1.2c0,0,0.2,0,0.6-0.3
				l0.3-0.2l-0.2,0.4c-0.3,0.7-0.3,1.2-0.1,1.2c0.1,0.1,0.4-0.1,0.7-0.5L83.6,33z"/>
		</g>
	</g>
	<g>
		<g>
			<g>
				<path class="st8" d="M158.1,44.6c0.1,0.4,0.1,0.7,0,1.1C159.2,45.3,159,45,158.1,44.6z"/>
			</g>
			<g>
				<path class="st8" d="M157.7,48.4C157.7,48.4,157.7,48.4,157.7,48.4c-0.2,0.4-0.4,0.7-0.6,1C158.1,49.5,158.4,49.1,157.7,48.4z"
					/>
			</g>
			<g>
				<path class="st8" d="M156.8,47.4c-0.5,0.2-1.2,0.3-1.8,0c-1.1-0.4-1.7-1.5-1.3-2.4c0.1-0.2,0.2-0.3,0.3-0.4
					c-0.2,0.8,0.2,1.7,1,2c0.5,0.2,1.1,0.1,1.5-0.1l0.1-0.1c0.4-0.3,0.6-0.7,0.7-1.1c0.1-1-0.9-1.9-2.3-2c-1.1-0.1-2,0.3-2.4,1
					c0.3-0.7,0.1-1.7-0.6-2.5c-0.9-1-2.2-1.3-3-0.7c-0.3,0.3-0.5,0.7-0.5,1.2c0,0.1,0,0.2,0,0.3c0.1,0.5,0.3,1.1,0.7,1.5
					c0.3,0.3,0.6,0.5,0.9,0.7l-0.1,0.1c-0.1,0.1-0.1,0.1-0.2,0.2l-0.2,0.2l-0.3,0l-11.2-1l-0.3,0l-0.1-0.3c-0.6-1.8-1.4-2.1-3.1-2.8
					L134,41c-1.7-0.7-3.6-0.6-5.4,0.2l-0.7,0.3l0-0.8c0-0.9-0.3-1.6-0.8-1.8c-0.2-0.1-0.5-0.1-0.8,0.1c-1,0.5-2.2,1.9-2.9,3.8
					c-0.4,1.1-0.7,2.3-0.7,3.2c1.3-1.6,3.1-2.1,3.1-2.1c-1.6,1.5-2.7,2.9-3,3.3l0,0.1l-0.1,0.2c0,0,0,0,0,0c-1.1,2.9-1.2,6-0.1,8.5
					c0.8,1.9,2.2,3.2,3.9,3.9c3.5,1.4,7.7-0.4,10.2-4.4l0.1-0.1l0.1-0.1c0.3-0.5,1.4-2.3,1.9-6.2c0,0,0.4,1.2-0.2,5
					c4-2.8,8.1-4.8,10.3-5.8c-0.2-1.1,0.1-1.9,0.1-1.9c0,0.8,0.8,1.5,0.8,1.5l0.3,0.2c0.2,0.2,0.5,0.3,0.7,0.5
					c0.2,0.1,0.4,0.1,0.5,0.1l0.5,0.1l0,0.5c0,0.7,0.5,1.5,1.3,1.8c1,0.4,2.1,0,2.4-0.8c0-0.1,0-0.1,0.1-0.2c-0.3,0-0.6,0-0.9-0.2
					c-1.1-0.4-1.7-1.5-1.3-2.4c0.1-0.2,0.2-0.3,0.3-0.4c-0.2,0.8,0.2,1.7,1,2c0.3,0.1,0.6,0.1,0.9,0.1l0.5-0.1
					c0.3-0.1,0.4-0.3,0.6-0.5c0.1-0.1,0.2-0.3,0.2-0.4c0-0.1,0-0.1,0.1-0.2C156.8,47.7,156.8,47.5,156.8,47.4z"/>
			</g>
			<g>
				<path class="st8" d="M148.2,40.4c0.3-0.2,0.6-0.4,1-0.5C148.5,39.1,148.1,39.5,148.2,40.4z"/>
			</g>
			<g>
				<path class="st8" d="M156.1,51.3c-0.2,0.3-0.5,0.5-0.9,0.7C156.2,52.5,156.4,52.2,156.1,51.3z"/>
			</g>
			<g>
				<path d="M157.9,47.9c0.1-0.4,0-0.9-0.2-1.3c0.1-0.2,0.2-0.3,0.3-0.5c2.4-0.7,1-1.6,0-2c-0.3-0.7-1-1.4-1.8-1.7
					c-1-0.4-2.1-0.3-2.9,0.3c0-0.3-0.1-0.7-0.2-1c-0.3-0.7-1-1.4-1.8-1.7c-0.5-0.2-1.1-0.3-1.6-0.2c-1.5-1.7-2.1-0.3-1.8,0.9
					c-0.2,0.2-0.3,0.4-0.4,0.7c-0.2,0.6-0.2,1.3,0.1,1.9c0.1,0.3,0.3,0.6,0.5,0.8l-9.6-0.9c-0.8-2-1.9-2.4-3.6-3.1l-0.5-0.2
					c-1.7-0.7-3.7-0.7-5.6-0.1c-0.2-1-0.7-1.7-1.4-2c-1.6-0.6-3.8,1.3-5.1,4.5c-0.7,1.7-0.9,3.5-0.7,4.8c-1.2,3.1-1.2,6.5,0,9.2
					c0.9,2.1,2.5,3.7,4.5,4.5c4,1.6,8.7-0.4,11.4-4.8c4.5-3.4,9.7-5.9,12-7c0.2,0.2,0.5,0.3,0.8,0.4c0.1,0,0.2,0.1,0.3,0.1
					c0.1,1,0.9,1.9,2,2.4c0.7,0.3,1.4,0.3,2.1,0.1c1.9,1.3,2.1-0.1,1.6-1.2c0-0.1,0.1-0.2,0.1-0.3c0.1-0.3,0.2-0.6,0.2-0.9
					c0,0,0.1-0.1,0.1-0.1C159.2,50.2,158.8,48.8,157.9,47.9z M157.7,48.5C157.7,48.4,157.7,48.4,157.7,48.5c0.7,0.6,0.4,1-0.6,0.9
					C157.4,49.1,157.6,48.8,157.7,48.5z M158.1,45.7c0.1-0.4,0.1-0.7,0-1.1C159,45,159.2,45.3,158.1,45.7z M148.2,40.4
					c-0.1-0.9,0.3-1.3,1-0.5C148.9,40,148.5,40.1,148.2,40.4z M156.1,51.3c0.3,0.9,0.1,1.2-0.9,0.7
					C155.5,51.8,155.8,51.6,156.1,51.3z"/>
			</g>
		</g>
		<g>
			<g>
				<path class="st8" d="M157.9,44.7c0.1,0.4,0.1,0.7,0,1.1C159,45.4,158.7,45.1,157.9,44.7z"/>
			</g>
			<g>
				<path class="st8" d="M157.5,48.5C157.5,48.5,157.5,48.6,157.5,48.5c-0.2,0.4-0.4,0.7-0.6,1C157.9,49.6,158.1,49.2,157.5,48.5z"
					/>
			</g>
			<g>
				<path class="st8" d="M156.6,47.5c-0.5,0.2-1.2,0.3-1.8,0c-1.1-0.4-1.7-1.5-1.3-2.4c0.1-0.2,0.2-0.3,0.3-0.4
					c-0.2,0.8,0.2,1.7,1,2c0.5,0.2,1.1,0.1,1.5-0.1l0.1-0.1c0.4-0.3,0.6-0.7,0.7-1.1c0.1-1-0.9-1.9-2.3-2c-1.1-0.1-2,0.3-2.4,1
					c0.3-0.7,0.1-1.7-0.6-2.5c-0.9-1-2.2-1.3-3-0.7c-0.3,0.3-0.5,0.7-0.5,1.2c0,0.1,0,0.2,0,0.3c0.1,0.5,0.3,1.1,0.7,1.5
					c0.3,0.3,0.6,0.5,0.9,0.7l-0.1,0.1c-0.1,0.1-0.1,0.1-0.2,0.2l-0.2,0.2l-0.3,0l-11.2-1l-0.3,0l-0.1-0.3c-0.6-1.8-1.4-2.1-3.1-2.8
					l-0.5-0.2c-1.7-0.7-3.6-0.6-5.4,0.2l-0.7,0.3l0-0.8c0-0.9-0.3-1.6-0.8-1.8c-0.2-0.1-0.5-0.1-0.8,0.1c-1,0.5-2.2,1.9-2.9,3.8
					c-0.4,1.1-0.7,2.3-0.7,3.2c1.3-1.6,3.1-2.1,3.1-2.1c-1.6,1.5-2.7,2.9-3,3.3l0,0.1l-0.1,0.2c0,0,0,0,0,0c-1.1,2.9-1.2,6-0.1,8.5
					c0.8,1.9,2.2,3.2,3.9,3.9c3.5,1.4,7.7-0.4,10.2-4.4l0.1-0.1l0.1-0.1c0.3-0.5,1.4-2.3,1.9-6.2c0,0,0.4,1.2-0.2,5
					c4-2.8,8.1-4.8,10.3-5.8c-0.2-1.1,0.1-1.9,0.1-1.9c0,0.8,0.8,1.5,0.8,1.5l0.3,0.2c0.2,0.2,0.5,0.3,0.7,0.5
					c0.2,0.1,0.4,0.1,0.5,0.1l0.5,0.1l0,0.5c0,0.7,0.5,1.5,1.3,1.8c1,0.4,2.1,0,2.4-0.8c0-0.1,0-0.1,0.1-0.2c-0.3,0-0.6,0-0.9-0.2
					c-1.1-0.4-1.7-1.5-1.3-2.4c0.1-0.2,0.2-0.3,0.3-0.4c-0.2,0.8,0.2,1.7,1,2c0.3,0.1,0.6,0.1,0.9,0.1l0.5-0.1
					c0.3-0.1,0.4-0.3,0.6-0.5c0.1-0.1,0.2-0.3,0.2-0.4c0-0.1,0-0.1,0.1-0.2C156.6,47.8,156.6,47.7,156.6,47.5z"/>
			</g>
			<g>
				<path class="st8" d="M148,40.5c0.3-0.2,0.6-0.4,1-0.5C148.3,39.2,147.8,39.6,148,40.5z"/>
			</g>
			<g>
				<path class="st8" d="M155.8,51.4c-0.2,0.3-0.5,0.5-0.9,0.7C155.9,52.7,156.2,52.3,155.8,51.4z"/>
			</g>
			<g>
				<path class="st5" d="M156.3,48.6c-0.2,0.2-0.3,0.4-0.6,0.5l-0.5,0.1c-0.3,0.1-0.6,0-0.9-0.1c-0.8-0.3-1.2-1.2-1-2
					c-0.1,0.1-0.2,0.3-0.3,0.4c-0.4,0.9,0.2,2,1.3,2.4c0.3,0.1,0.6,0.2,0.9,0.2c0,0.1,0,0.1-0.1,0.2c-0.3,0.8-1.4,1.2-2.4,0.8
					c-0.8-0.3-1.4-1.1-1.3-1.8l0-0.5l-0.5-0.1c-0.2,0-0.4-0.1-0.5-0.1c-0.3-0.1-0.5-0.3-0.7-0.5l-0.3-0.2c0,0-0.8-0.7-0.8-1.5
					c0,0-0.3,0.8-0.1,1.9c-2.1,1-6.3,3-10.3,5.8c0.5-3.8,0.2-5,0.2-5c-0.5,4-1.6,5.8-1.9,6.2l-0.1,0.1l-0.1,0.1
					c-2.5,4-6.7,5.8-10.2,4.4c-1.7-0.7-3.1-2-3.9-3.9c-1.1-2.5-1.1-5.6,0.1-8.5c0,0,0,0,0,0l0.1-0.2l0-0.1c0.3-0.4,1.4-1.8,3-3.3
					c0,0-1.8,0.6-3.1,2.1c0-1,0.2-2.1,0.7-3.2c0.7-1.8,1.9-3.3,2.9-3.8c0.3-0.1,0.6-0.2,0.8-0.1c0.4,0.2,0.7,0.8,0.8,1.8l0,0.8
					l0.7-0.3c1.9-0.8,3.7-0.9,5.4-0.2l0.5,0.2c1.8,0.7,2.5,1,3.1,2.8l0.1,0.3l0.3,0l11.2,1l0.3,0l0.2-0.2c0.1-0.1,0.1-0.1,0.2-0.2
					l0.1-0.1c-0.3-0.2-0.6-0.4-0.9-0.7c-0.4-0.5-0.7-1-0.7-1.5c0-0.1,0-0.2,0-0.3c0-0.5,0.2-0.9,0.5-1.2c0.8-0.7,2.1-0.4,3,0.7
					c0.7,0.8,0.9,1.8,0.6,2.5c0.4-0.7,1.3-1.1,2.4-1c1.4,0.1,2.4,1,2.3,2c0,0.4-0.3,0.8-0.7,1.1l-0.1,0.1c-0.4,0.3-1,0.4-1.5,0.1
					c-0.8-0.3-1.2-1.2-1-2c-0.1,0.1-0.2,0.3-0.3,0.4c-0.4,0.9,0.2,2,1.3,2.4c0.6,0.3,1.3,0.2,1.8,0c0,0.2,0,0.4,0,0.5
					c0,0.1,0,0.1-0.1,0.2C156.4,48.3,156.4,48.5,156.3,48.6z"/>
			</g>
		</g>
		<g>
			<path class="st4" d="M136.1,51.4c0.6-0.1,0.8-1.3,0.5-2.7c-0.1-0.4-0.2-0.7-0.3-1c0.1,0,0.3,0,0.3-0.1c0.2-0.3-0.1-0.8-0.7-1.2
				c-0.4-0.3-0.9-0.5-1.2-0.4c-0.5-0.6-1.2-1.2-1.9-1.5c-0.9-0.4-1.9-0.4-2.9-0.2c-0.2-0.2-0.6-0.3-1-0.3c-0.7-0.1-1.3,0.1-1.4,0.4
				c0,0.1,0,0.2,0.1,0.3c-0.3,0.1-0.6,0.3-0.9,0.5c-1.1,0.8-1.8,1.9-1.5,2.3c0,0,0,0,0.1,0.1c-0.9,1.1-1.3,2.2-0.9,2.5
				c0.1,0.1,0.2,0.1,0.3,0.1c-0.3,1-0.2,1.9,0.3,2.1c0.3,0.1,0.6,0,0.9-0.4c0.5,1.3,1.4,2.4,2.7,3c1.3,0.5,2.8,0.4,4-0.3
				c0.1,0.3,0.2,0.4,0.4,0.5c0.5,0.2,1.2-0.4,1.6-1.3c0.1,0.1,0.2,0.1,0.3,0.1C135.4,53.9,135.9,52.8,136.1,51.4
				C136,51.4,136,51.4,136.1,51.4z"/>
			<path d="M130.3,55.7c-0.6,0-1.3-0.1-1.9-0.4c-1.2-0.5-2.2-1.4-2.8-2.6c-0.4,0.2-0.7,0.1-0.9,0c-0.7-0.3-0.9-1.1-0.7-2.3
				c-0.7-0.6-0.1-1.9,0.7-3c-0.2-0.7,0.3-1.7,1.7-2.8c0.2-0.1,0.3-0.2,0.5-0.3c0-0.1,0-0.1,0-0.1c0-0.2,0.1-0.6,0.8-0.8
				c0.3-0.1,0.7-0.1,1.2-0.1c0.4,0,0.7,0.2,1,0.3c1-0.2,2-0.1,3,0.2c0.8,0.3,1.5,0.8,2,1.4c0.4,0,0.8,0.2,1.2,0.5
				c0.9,0.6,1.2,1.4,0.9,2c0,0-0.1,0.1-0.1,0.1c0.1,0.2,0.1,0.4,0.2,0.6c0.1,0.7,0.2,1.5,0.1,2c-0.1,0.7-0.4,1-0.7,1.2
				c-0.1,1.3-0.6,2.6-1.5,2.6c0,0,0,0,0,0c-0.6,1-1.4,1.4-2.1,1.2c-0.1-0.1-0.3-0.1-0.4-0.3C131.7,55.6,131,55.7,130.3,55.7z
				 M126.1,50.9l0.3,0.8c0.4,1.3,1.3,2.2,2.4,2.6c1.1,0.4,2.4,0.4,3.6-0.3l0.6-0.3l0.2,0.6c0,0.1,0.1,0.2,0.1,0.2
				c0.1,0,0.6-0.3,0.9-1.1l0.3-0.6l0.4,0.4c0.2-0.2,0.4-0.9,0.5-1.9l0-0.5h0.5c0.1-0.1,0.4-0.9,0.1-2.1c-0.1-0.3-0.2-0.6-0.3-0.9
				l-0.3-0.7l0.5,0c-0.1-0.1-0.2-0.3-0.4-0.4c-0.4-0.3-0.7-0.3-0.8-0.3l-0.3,0l-0.2-0.2c-0.5-0.6-1-1-1.7-1.3
				c-0.8-0.3-1.7-0.4-2.6-0.1l-0.2,0.1l-0.2-0.2c-0.1-0.1-0.4-0.2-0.7-0.2c-0.3,0-0.5,0-0.6,0l0.4,0.4l-0.7,0.3
				c-0.3,0.1-0.5,0.3-0.8,0.5c-1,0.7-1.3,1.4-1.3,1.6l0.3,0.3l-0.3,0.4c-0.7,0.8-0.9,1.5-1,1.7l0.6,0l-0.2,0.6
				c-0.2,0.8-0.1,1.4,0,1.4c0,0,0.2,0,0.4-0.2L126.1,50.9z"/>
		</g>
		<g>
			<path d="M152.5,47.1c0.3,0,0.6-0.2,0.8-0.5c0.2-0.4-0.1-0.9-0.6-1.1c-0.1,0-0.2-0.1-0.3-0.1c0,0,0-0.1,0.1-0.1
				c0.2-0.4-0.1-0.9-0.6-1.1c-0.5-0.2-1,0-1.2,0.4c0,0.1,0,0.1,0,0.2c-0.6,0.2-1,0.9-0.9,1.7c0.1,0.7,0.6,1.2,1.2,1.2
				c0.1,0.1,0.2,0.2,0.4,0.3c0.5,0.2,1,0,1.2-0.4C152.6,47.5,152.6,47.3,152.5,47.1z"/>
		</g>
		<g>
			<ellipse transform="matrix(0.879 -0.4768 0.4768 0.879 -1.7831 76.5169)" cx="149.9" cy="41.8" rx="0.8" ry="0.6"/>
		</g>
		<g>
			<ellipse transform="matrix(0.879 -0.4769 0.4769 0.879 -2.8329 79.8247)" cx="155.9" cy="45.5" rx="0.8" ry="0.6"/>
		</g>
		<g>
			<ellipse transform="matrix(0.1266 -0.992 0.992 0.1266 87.6203 195.9625)" cx="155.1" cy="48.2" rx="0.6" ry="0.8"/>
		</g>
		<g>
			
				<ellipse transform="matrix(7.216123e-02 -0.9974 0.9974 7.216123e-02 92.3439 199.7487)" cx="153.5" cy="50.2" rx="0.6" ry="0.8"/>
		</g>
		<g>
			<path class="st5" d="M151.7,26.7c-3.1-0.8-6.4,0.5-8.6,1.6c-0.1-0.1-0.3-0.2-0.4-0.3c0,0,0,0,0.1-0.1c0.2-0.3-0.1-0.8-0.6-1.2
				c0.2-0.1,0.4-0.2,0.4-0.4c0-0.4-0.8-0.8-1.8-0.8c0.2-0.4,0.2-0.8,0-1c-0.3-0.3-1,0-1.7,0.6c0-0.1,0-0.2-0.1-0.2
				c-0.3-1.3-1-2.3-1.5-2.1c-0.5,0.1-0.6,1.1-0.4,2.3c-0.6-0.6-1.3-0.9-1.6-0.6c-0.9-2.4-2.4-5.1-5-6.5c0,0-1.4-1-1.5,2.4
				c0,0-0.6,1.8-0.2,5.2c0,0,0.5,0.9,1.7,1.3c-1.5,1.2-2.6,3.3-2.3,6.9c-0.3-0.1-0.7-0.2-1.2-0.2c-1,0-1.7,0.5-1.7,0.9
				c0,0.2,0.1,0.3,0.3,0.5c-0.2,0.1-0.3,0.2-0.5,0.4c-0.7,0.7-1.1,1.6-0.7,1.9c0.1,0.1,0.3,0.2,0.5,0.1c-0.2,0.8-0.1,1.5,0.3,1.6
				c0.3,0.1,0.7-0.1,1.1-0.6c0.5,1.2,1.7,2.7,4.1,4.4c0,0-0.5,2.3,1.6,3l0,0c2,1,3.2-1.1,3.2-1.1c2.6,0.3,4.4,0.1,5.6-0.3
				c0,0.5,0.1,0.9,0.4,1.1c0.4,0.1,0.9-0.3,1.3-1c0.1,0.2,0.3,0.3,0.5,0.3c0.5,0,0.8-0.9,0.8-1.9c0-0.2,0-0.4-0.1-0.6
				c0.2,0,0.4,0,0.6-0.1c0.3-0.3,0.1-1.2-0.6-1.8c-0.2-0.2-0.4-0.4-0.7-0.5c0-0.1,0-0.1,0-0.1c2.5-2.3,3.2-4.5,3.1-6.3
				c1.1,0.4,2,0.1,2,0.1c2.6-2.2,3.4-4,3.4-4C153.4,26.8,151.7,26.7,151.7,26.7z"/>
			<path d="M132.9,46.5c-0.4,0-0.9-0.1-1.3-0.3l0,0c-1.7-0.6-2-2.2-1.9-3.2c-1.7-1.3-2.9-2.5-3.6-3.7c-0.4,0.3-0.8,0.4-1.1,0.2
				c-0.5-0.2-0.8-0.8-0.7-1.7c-0.1,0-0.2-0.1-0.3-0.2c-0.2-0.2-0.4-0.6-0.1-1.4c0.2-0.4,0.5-0.9,0.9-1.3c0,0,0,0,0.1-0.1
				c-0.1-0.1-0.1-0.3-0.1-0.4c0-0.8,0.9-1.4,2.2-1.5c0.2,0,0.5,0,0.7,0c0-2.6,0.6-4.7,2-6.1c-0.8-0.5-1.2-1.1-1.2-1.2l-0.1-0.1
				l0-0.1c-0.4-3.2,0.1-5,0.2-5.4c0.1-1.6,0.4-2.5,1.1-2.9c0.6-0.3,1.1,0,1.2,0.1c2.1,1.1,3.7,3.2,5,6.3c0.2,0,0.4,0.1,0.7,0.2
				c0-0.9,0.3-1.6,0.9-1.7c0.3-0.1,0.8-0.1,1.4,0.7c0.2,0.3,0.5,0.8,0.6,1.3c0.7-0.4,1.4-0.5,1.8-0.1c0.2,0.1,0.4,0.4,0.3,0.9
				c0.9,0.2,1.7,0.6,1.7,1.3c0,0.1,0,0.2-0.1,0.4c0.2,0.3,0.4,0.6,0.4,0.9c3.3-1.6,6.1-2,8.5-1.4c0.2,0,0.7,0.2,1,0.7
				c0.3,0.7-0.1,1.6-1.1,2.8c-0.2,0.4-1.1,2-3.5,4.1l-0.1,0.1l-0.1,0c0,0-0.7,0.2-1.6,0.1c-0.1,1.9-1,3.8-2.8,5.6
				c0.1,0.1,0.2,0.2,0.3,0.3c0.4,0.4,0.7,0.8,0.8,1.3c0.2,0.5,0.1,1-0.2,1.3c-0.1,0.1-0.2,0.2-0.3,0.2c0,0,0,0.1,0,0.1
				c0.1,1.4-0.5,2.4-1.3,2.5c-0.1,0-0.3,0-0.4-0.1c-0.5,0.7-1.1,0.9-1.6,0.7c-0.3-0.1-0.6-0.4-0.7-0.9c-1.3,0.3-2.9,0.4-4.9,0.1
				C134.9,45.8,134,46.5,132.9,46.5z M132.5,45.4c1.3,0.3,2-0.9,2.1-1l0.2-0.3l0.3,0c2.3,0.3,4.1,0.2,5.4-0.3l0.8-0.3l-0.1,0.8
				c0,0.3,0,0.4,0,0.5c0.1-0.1,0.4-0.3,0.6-0.7l0.4-0.7l0.5,0.6c0,0,0,0,0,0c0.1-0.1,0.3-0.6,0.3-1.3c0-0.2,0-0.4-0.1-0.5l-0.2-0.8
				l0.8,0.1c0,0,0.1,0,0.1,0c0-0.2-0.1-0.6-0.6-1.1c-0.2-0.2-0.4-0.3-0.6-0.4l-0.2-0.1l-0.1-0.2c0-0.1,0-0.1,0-0.1l-0.1-0.3l0.3-0.3
				c2.1-2,3.1-3.9,2.9-5.9l-0.1-0.8l0.8,0.3c0.7,0.2,1.3,0.2,1.6,0.1c2.4-2.1,3.1-3.7,3.1-3.7l0-0.1l0.1-0.1c1.2-1.4,1-1.8,1-1.8
				c0-0.1-0.1-0.1-0.1-0.1l-0.1,0c-2.2-0.6-5,0-8.3,1.6l-0.3,0.2l-0.3-0.3c-0.1-0.1-0.2-0.2-0.4-0.3l-0.5-0.4l0.4-0.3
				c0-0.1-0.2-0.3-0.4-0.5l-0.6-0.6l0.7-0.3c-0.2-0.1-0.6-0.2-1.1-0.3l-0.7-0.1l0.3-0.7c0.1-0.2,0.1-0.3,0.1-0.4
				c-0.2,0-0.5,0.2-1,0.6l-0.7,0.6l-0.2-0.9c0-0.1,0-0.1-0.1-0.2c-0.3-1-0.7-1.6-0.9-1.7c-0.1,0.2-0.2,0.8,0,1.7l0.4,1.7l-1.2-1.2
				c-0.5-0.5-0.9-0.6-1-0.6l-0.5,0.4l-0.2-0.6c-1.2-3.1-2.7-5.1-4.7-6.2l-0.1,0c0,0,0,0,0,0c0,0-0.1-0.1-0.2,0c0,0-0.4,0.2-0.5,2
				l0,0.1l0,0.1c0,0-0.6,1.7-0.2,4.8c0.2,0.2,0.6,0.7,1.3,1l0.8,0.3l-0.7,0.6c-1.6,1.3-2.3,3.4-2.1,6.4l0.1,0.9l-0.8-0.3
				c-0.3-0.1-0.6-0.2-1-0.1c-0.7,0-1.1,0.2-1.2,0.4c0,0,0,0,0.1,0.1l0.7,0.4l-0.6,0.5c-0.1,0.1-0.3,0.2-0.4,0.3
				c-0.5,0.5-0.7,0.9-0.7,1.1c0,0,0,0,0.1,0l0.8-0.1l-0.2,0.8c-0.1,0.5-0.1,0.9,0,1c0.1,0,0.2-0.2,0.4-0.4l0.6-0.7l0.4,0.9
				c0.5,1.3,1.9,2.7,3.9,4.2l0.3,0.2l-0.1,0.3c0,0.2-0.4,1.9,1.2,2.4L132.5,45.4L132.5,45.4z M135.7,24.9L135.7,24.9L135.7,24.9z"/>
		</g>
		<g>
			<path d="M140.1,29.9c-0.7-0.3-1.4-0.1-2.1,0.4c-0.1-0.8-0.6-1.5-1.3-1.7c-1.2-0.5-2.7,0.4-3.3,2.1c-0.6,1.6-0.2,3.3,1,3.8
				c0.7,0.3,1.4,0.1,2.1-0.4c0.1,0.8,0.6,1.5,1.3,1.7c1.2,0.5,2.7-0.4,3.3-2.1C141.8,32,141.3,30.3,140.1,29.9z"/>
			<path d="M138.4,36.2c-0.3,0-0.5,0-0.8-0.1c-0.6-0.3-1.1-0.8-1.4-1.5c-0.7,0.3-1.3,0.4-2,0.1c-0.7-0.3-1.2-0.9-1.4-1.7
				c-0.2-0.8-0.2-1.7,0.2-2.5c0.3-0.9,0.9-1.6,1.6-2c0.7-0.4,1.5-0.5,2.2-0.3c0.6,0.3,1.1,0.8,1.4,1.5c0.7-0.3,1.3-0.4,2-0.1l0,0
				c1.4,0.5,1.9,2.5,1.2,4.2C140.9,35.2,139.6,36.2,138.4,36.2z M136.7,33.4l0.1,0.5c0.1,0.7,0.5,1.3,1.1,1.5c1,0.4,2.3-0.4,2.9-1.9
				s0.2-2.9-0.8-3.3c-0.5-0.2-1.1-0.1-1.7,0.3l-0.5,0.3l-0.1-0.5c-0.1-0.7-0.5-1.3-1.1-1.5c-0.5-0.2-1-0.1-1.6,0.2
				c-0.6,0.4-1,0.9-1.3,1.6c-0.3,0.7-0.3,1.5-0.2,2.1c0.2,0.6,0.5,1,1,1.2c0.5,0.2,1.1,0.1,1.7-0.3L136.7,33.4z"/>
		</g>
		<g>
			<path class="st4" d="M139.7,30.4c-0.6-0.2-1.3-0.1-1.9,0.4c-0.1-0.8-0.5-1.4-1.1-1.6c-1.1-0.4-2.5,0.5-3.1,2
				c-0.6,1.5-0.2,3.1,0.9,3.6c0.6,0.2,0.7,1.5,1.3,1c0.1,0.8,1.1,0,1.7,0.2c1.1,0.4,2.5-0.5,3.1-2C141.2,32.5,140.8,30.9,139.7,30.4
				z"/>
		</g>
		<g>
			<path class="st9" d="M140.8,33.1c0.2-1.2-0.2-2.3-1.1-2.7c-0.4-0.2-0.9-0.1-1.3,0.1L140.8,33.1z"/>
		</g>
		<g>
			<path class="st4" d="M138.3,30.5c-0.2,0.1-0.4,0.2-0.5,0.3c0-0.2-0.1-0.3-0.1-0.5"/>
		</g>
		<g>
			<path class="st9" d="M137.7,30.3c-0.2-0.5-0.5-0.9-1-1.1c-0.9-0.3-1.9,0.2-2.6,1.2L137.7,30.3z"/>
		</g>
		<g>
			<path d="M137.7,27.7c-0.2-0.4-0.5-0.7-1-0.8c-0.8-0.3-1.7,0-2.4,0.7C134.3,27.6,135.9,26.7,137.7,27.7z"/>
		</g>
		<g>
			<path d="M137.9,27.6c-0.3-0.4-0.6-0.8-1.1-0.9c-0.9-0.3-1.8-0.1-2.7,0.7l0.3,0.3c0.1,0,1.5-0.8,3.2,0.2l0.7,0.4L137.9,27.6z
				 M134.4,27.7c0.7-0.7,1.5-0.9,2.2-0.6c0.3,0.1,0.6,0.4,0.8,0.8l0.3-0.3c-1.9-1.1-3.5-0.2-3.6-0.2L134.4,27.7z"/>
		</g>
		<g>
			<path d="M139.8,28.6c0.4-0.1,0.9-0.1,1.3,0c0.8,0.3,1.3,1.2,1.3,2.2C142.4,30.8,141.8,29.1,139.8,28.6z"/>
		</g>
		<g>
			<path d="M139.8,28.8c0.4-0.1,0.8-0.1,1.1,0c0.7,0.3,1.1,1,1.2,2l0.4-0.1c0-0.1-0.6-1.8-2.7-2.3L139.8,28.8z M142.6,30.8
				c-0.1-1.1-0.6-2-1.5-2.3c-0.4-0.2-0.9-0.2-1.4,0l-0.8,0.2l0.8,0.2c1.9,0.5,2.4,2,2.4,2L142.6,30.8z"/>
		</g>
		<g>
			<g>
				<polygon points="141.8,34.2 138.5,30.5 137.9,30.4 137.6,30 132.5,30.5 137.8,30.8 				"/>
				<path d="M141.7,34.3l-4-3.4l-5.2-0.3l0-0.4l5.2-0.5l0.3,0.4l0.6,0L142,34L141.7,34.3z M138,30.7l1.7,1.5l-1.3-1.4L138,30.7z
					 M135.5,30.5l2.2,0.1l-0.2-0.3L135.5,30.5z"/>
			</g>
			<g>
				<g>
					
						<ellipse transform="matrix(0.3663 -0.9305 0.9305 0.3663 55.855 146.4832)" class="st10" cx="135.5" cy="32.2" rx="1.4" ry="1"/>
				</g>
			</g>
			<g>
				<g>
					
						<ellipse transform="matrix(0.3664 -0.9305 0.9305 0.3664 56.6642 150.2424)" class="st10" cx="138.6" cy="33.5" rx="1.4" ry="1"/>
				</g>
			</g>
		</g>
		<g>
			<path d="M133.8,34.9l4.4,1.7l-0.1-0.9l-3.3,2.1l0.8,0.3l-1-3.8L133.8,34.9z M135.3,38.6l3.3-2.1l0.9-0.6l-1-0.4l-4.4-1.7l-1-0.4
				l0.3,1l1,3.8l0.2,0.7L135.3,38.6z"/>
		</g>
		<g>
			<path d="M130.4,20.8c0,0,2.8,1.2,3.2,4.9c0,0-0.8,0.1-1.7,0.6c0,0-1.8-1.8-1.1-3.5C131.3,21.6,130.8,21.4,130.4,20.8z"/>
		</g>
		<g>
			<path d="M150.1,28.8c0,0-2.9-1-5.7,1.4c0,0,0.6,0.6,0.8,1.6c0,0,2.5-0.1,3.2-1.8C148.9,28.8,149.4,29,150.1,28.8z"/>
		</g>
		<g>
			<path d="M139.6,39.2c0,0,0.8,0.2,1.4,0.8c-3.8,3.4-5.8,0-6.2-1l-0.1-0.2c0,0,0,0,0,0c0,0,0,0,0,0c0,0,0,0,0,0c0,0,0,0,0,0
				c-0.3,0.2-4.9,2.3-5.5-3.4c0.8,0,1.6,0.4,1.6,0.4c-1.9-2.1-2.7,0-2.7,0c0.3-0.3,0.7-0.4,1.1-0.4c-0.1,0.6-0.3,4.5,2.4,4.5
				c-0.2,1.5-0.9,8,4.7,1.9c2,1.7,4.4-1.3,4.8-1.7c0.3,0.3,0.5,0.6,0.5,1C141.6,41,142.5,38.9,139.6,39.2z M133.6,39.3"/>
		</g>
		<g>
			<path class="st11" d="M133.6,43.5C133.6,43.5,133.7,43.5,133.6,43.5c0.3-0.2,0.5-0.5,0.7-0.8c0.2-0.6,0.2-1.3-0.2-1.4
				c-0.2-0.1-0.6,0.5-0.7,0.7c0-0.2,0.1-0.9-0.1-1c-0.4-0.1-0.8,0.3-1.1,0.9c-0.2,0.6-0.2,1.1,0.1,1.3c0.1,0.1,0.3,0.2,0.5,0.3
				c0.2,0.1,0.4,0.1,0.6,0.1c0.1,0,0.1,0,0.2,0C133.5,43.5,133.5,43.5,133.6,43.5C133.6,43.5,133.6,43.5,133.6,43.5z"/>
		</g>
		<g>
			<polygon class="st6" points="134.8,35.3 137.2,36.2 135.4,37.4 			"/>
		</g>
	</g>
	<g>
		<g>
			<polygon class="st12" points="88.1,52.3 86.2,50.6 86.4,49.1 85.4,48.4 84.6,46.9 85.1,45.6 85.1,44.9 84.7,44 84.9,42.1 
				85.5,42 86.2,41.5 85.8,40.3 86.6,38.8 87.2,38.6 88.6,37.9 97.3,36.3 99.3,36.9 99.8,37.3 100.1,38.7 101.7,38.7 103,40.4 
				102.6,41.5 104,42.1 104.4,43.7 103.6,44.8 103.9,45.5 104.5,46.4 103.4,49.6 101.5,52 98.9,53.5 94.5,54.7 90.8,53.9 			"/>
		</g>
		<g>
			<polygon class="st13" points="88.3,52.3 88.3,48 88.4,46.1 88.8,44.7 89.8,43.2 90.7,42.3 91.8,42.1 93.3,41.7 93.4,42.2 
				93.6,42.9 93.9,43.6 94.5,43.7 95.9,43.7 96.5,43.3 96.6,42.7 96.5,41.3 97.4,41.3 99.4,42.3 101.2,44.3 102,46.9 102,49.3 
				102,51.5 100.8,52.5 97.6,53.9 94.7,54.7 91.5,54.2 88.8,53 			"/>
		</g>
		<g>
			<polygon class="st14" points="93.7,43.2 93.7,41.8 92.5,42.1 91,41.6 90,40.8 89.8,40.3 90,39.9 90.3,38.3 89.8,37.7 88.6,37.9 
				87.6,38.5 87.1,38.1 86.9,36.9 86.7,34.9 87.1,33 88.6,31.5 89.7,30.3 91.6,28.9 93.4,28.2 95,28.2 97.4,29.1 98.6,30.3 
				99.5,32.2 99.8,34.1 99.4,35.9 98.2,37.8 96.8,40 96.6,41.5 96.9,43.3 96.2,43.6 95,43.5 			"/>
		</g>
		<g>
			<path d="M88.8,52.7h-1.1v-6.3h0.1c0.2-1.9,1.3-3.6,3-4.7l0.6,0.9c-1.6,1-2.6,2.6-2.6,4.4l0,0.5V52.7z"/>
		</g>
		<g>
			<path d="M102.5,51.7h-1.1v-4.3h0l0-0.5c-0.1-2.4-1.8-4.5-4.4-5.2l0.3-1c2.9,0.8,4.9,3,5.2,5.7h0.1V51.7z"/>
		</g>
		<g>
			<path d="M94.5,55.2h-0.5v0c-3.3-0.2-6.3-1.8-8.2-4.3c-0.3-0.4-0.1-0.9,0-1.3c0-0.1,0.1-0.3,0.1-0.4c-0.1,0-0.2-0.1-0.3-0.1
				c-0.4-0.1-0.9-0.2-1.1-0.7c-0.2-0.7-0.4-1.3-0.5-2c-0.1-0.5,0.4-0.8,0.7-1c0.1,0,0.1-0.1,0.2-0.1c-0.1-0.1-0.2-0.2-0.3-0.3
				c-0.3-0.3-0.7-0.7-0.6-1.2c0.1-0.6,0.3-1.3,0.5-1.9c0.2-0.5,0.7-0.5,1.2-0.5c0,0,0,0,0,0c0,0,0-0.1,0-0.1
				c-0.2-0.4-0.5-0.9-0.2-1.3c0.3-0.5,0.7-1.1,1.2-1.5c-1.8-5,1.8-7.7,2.3-8c0.4-0.3,3.1-2.8,5.3-2.8c3.4,0,6.2,2.8,6.2,6.2
				c0,0.9-0.2,1.8-0.6,2.6c0,0,0.1,0,0.1,0.1c0.6,0.3,0.6,0.9,0.6,1.4c0,0.1,0,0.4,0,0.5c0.1,0,0.3-0.1,0.4-0.1
				c0.4-0.1,1-0.3,1.4,0.1c0.5,0.5,0.8,0.9,1.2,1.5c0.3,0.4,0,0.9-0.2,1.2c0,0,0,0.1,0,0.1c0,0,0,0,0,0c0.4,0,0.9,0.1,1.1,0.5
				c0.2,0.6,0.4,1.2,0.5,1.9c0.1,0.5-0.3,0.9-0.7,1.1c-0.1,0.1-0.2,0.2-0.2,0.2c0.1,0.1,0.2,0.1,0.2,0.2c0.3,0.3,0.8,0.6,0.7,1.1
				c-0.1,0.7-0.3,1.4-0.5,2c-0.2,0.4-1,2-1.3,2.5C101.2,53.6,97.9,55.2,94.5,55.2z M86.6,50.3c1.8,2.4,4.7,3.9,7.8,3.9l0.5,0
				c3-0.1,5.7-1.6,7.4-3.9c0.3-0.4,1.1-1.9,1.2-2.2c0.2-0.5,0.3-1.1,0.4-1.7c-0.1-0.1-0.2-0.1-0.3-0.2c-0.3-0.2-0.7-0.5-0.7-1
				c0-0.5,0.4-0.8,0.7-1.1c0.1-0.1,0.2-0.2,0.3-0.3c-0.1-0.5-0.2-1-0.3-1.4c-0.1,0-0.2,0-0.3,0c-0.4,0-0.9-0.1-1.1-0.5
				c-0.2-0.4,0-0.8,0.2-1.2c0-0.1,0.1-0.2,0.2-0.3c-0.3-0.5-0.6-0.8-0.9-1.2c-0.1,0-0.3,0.1-0.4,0.1c-0.4,0.1-0.9,0.2-1.3-0.1
				c-0.4-0.3-0.4-0.9-0.4-1.3c0-0.1,0-0.4,0-0.5c-0.2-0.1-0.4-0.2-0.6-0.3L98.3,37l0.3-0.5c0.5-0.8,0.7-1.7,0.7-2.6
				c0-2.8-2.3-5.1-5.2-5.1c-1.5,0-3.8,1.8-4.6,2.6l0,0l0,0c-0.2,0.1-3.7,2.4-1.8,7.1l0.1,0.3L87.5,39c-0.5,0.5-0.9,1-1.2,1.5
				c0,0.1,0.1,0.2,0.2,0.3c0.2,0.4,0.5,0.8,0.3,1.2c-0.2,0.4-0.7,0.4-1.2,0.4c-0.1,0-0.2,0-0.3,0c-0.2,0.5-0.3,0.9-0.3,1.4
				c0.1,0.1,0.2,0.2,0.3,0.3c0.3,0.3,0.7,0.6,0.7,1.1c0,0.5-0.4,0.8-0.8,1c-0.1,0-0.2,0.1-0.2,0.2c0.1,0.5,0.2,1.1,0.4,1.6
				c0.1,0,0.3,0.1,0.4,0.1c0.4,0.1,0.8,0.2,1,0.6c0.2,0.4,0.1,0.9-0.1,1.2C86.7,50,86.6,50.2,86.6,50.3z"/>
		</g>
		<g>
			<g>
				<ellipse cx="92.5" cy="32" rx="1.9" ry="2.1"/>
				<path d="M92.5,34.5c-1.2,0-2.2-1.1-2.2-2.4c0-1.3,1-2.4,2.2-2.4c1.2,0,2.2,1.1,2.2,2.4C94.7,33.4,93.7,34.5,92.5,34.5z
					 M92.5,30.2c-0.9,0-1.6,0.8-1.6,1.8c0,1,0.7,1.8,1.6,1.8c0.9,0,1.6-0.8,1.6-1.8C94,31,93.3,30.2,92.5,30.2z"/>
			</g>
			<g>
				<ellipse class="st4" cx="92.4" cy="32.1" rx="1.4" ry="1.8"/>
			</g>
			<g>
				<polygon points="91.3,30.5 95.3,32.9 95.5,32.1 92.8,29.9 				"/>
			</g>
			<g>
				<g>
					<ellipse cx="92.6" cy="32.3" rx="0.7" ry="1"/>
					<path d="M92.6,33.4c-0.5,0-0.8-0.5-0.8-1.1c0-0.6,0.4-1.1,0.8-1.1c0.5,0,0.8,0.5,0.8,1.1C93.4,32.9,93.1,33.4,92.6,33.4z
						 M92.6,31.3c-0.3,0-0.6,0.4-0.6,0.9c0,0.5,0.3,0.9,0.6,0.9c0.3,0,0.6-0.4,0.6-0.9C93.2,31.7,92.9,31.3,92.6,31.3z"/>
				</g>
			</g>
			<g>
				<path d="M92.2,29.1c0.3-0.2,0.8-0.6,1.2-0.6c0.8,0,2,0.5,1.6,2.3C95,30.8,94.4,28.8,92.2,29.1z"/>
			</g>
		</g>
		<g>
			<path d="M87.6,38.7c0,0,1.2-0.7,2.1-0.4s4.2,1.5,6-1.5l-0.5-0.1c0,0-1.5,3.1-5.4,1.1C89.8,37.7,87.8,37.4,87.6,38.7z"/>
			<path d="M87.4,39.1l0-0.4c0-0.4,0.2-0.6,0.5-0.8c0.7-0.5,1.9-0.3,2-0.3l0.1,0c1.3,0.6,2.5,0.8,3.4,0.5c1.2-0.4,1.7-1.5,1.7-1.5
				l0.1-0.2l0.9,0.2l-0.1,0.2c-1.2,2.1-3.3,2.6-6.2,1.6l0,0c-0.8-0.3-1.9,0.4-1.9,0.4L87.4,39.1z M89.3,38c0.2,0,0.4,0,0.6,0.1l0,0
				c0.2,0.1,0.6,0.2,1.1,0.3c-0.4-0.1-0.8-0.3-1.2-0.5c-0.2,0-1.1-0.1-1.6,0.2c0,0-0.1,0-0.1,0.1C88.4,38.1,88.8,38,89.3,38z
				 M95.4,36.9c-0.1,0.2-0.3,0.5-0.6,0.8C95,37.5,95.2,37.2,95.4,36.9L95.4,36.9z"/>
		</g>
		<g>
			<path d="M94.2,35.5c0,0,1.3,2,2.8,0.7c1.5-1.3,0.2-2.3,0.2-2.3S97.6,37.7,94.2,35.5z"/>
			<path d="M96,36.8c-0.1,0-0.1,0-0.2,0c-1-0.1-1.7-1.2-1.8-1.2l0.3-0.3c0.9,0.6,1.7,0.8,2.1,0.5c0.6-0.4,0.6-1.6,0.6-2l0-0.5
				l0.4,0.3c0,0,0.6,0.5,0.6,1.2c0,0.5-0.3,1-0.8,1.5C96.8,36.7,96.4,36.8,96,36.8z M95.7,36.4c0.1,0,0.1,0,0.2,0
				c0.2,0,0.5,0,0.7-0.1C96.3,36.4,96,36.4,95.7,36.4z M97.4,34.5c0,0.5-0.2,1.1-0.6,1.5c0,0,0,0,0,0c0.4-0.4,0.6-0.7,0.6-1.1
				C97.5,34.8,97.5,34.6,97.4,34.5z"/>
		</g>
		<g>
			<path d="M89.8,38.2c0,0,1.1,1.6-0.5,2.2c0,0,2.3,6,7.1-1.6c0,0-2.9,3.1-4.2,3.1c-1.3,0-1.7-0.6-2.2-1.3
				C90,40.5,91.6,39.4,89.8,38.2z"/>
			<path d="M91.9,42.7c-0.1,0-0.1,0-0.2,0c-1.7-0.2-2.5-2.2-2.5-2.3l0-0.1l0.1,0c0.4-0.2,0.7-0.4,0.8-0.7c0.2-0.6-0.3-1.3-0.3-1.3
				l0.1-0.2c0.6,0.4,0.9,0.8,0.9,1.3c0,0.5-0.4,1-0.6,1.1l0,0.1c0.5,0.6,0.8,1.1,2,1.2c0,0,0,0,0,0c1.3,0,4.1-3,4.1-3.1l0.2,0.1
				C94.8,41.4,93.3,42.7,91.9,42.7z M89.4,40.4c0.2,0.4,0.9,1.9,2.3,2.1c1.2,0.1,2.5-0.8,4-2.8c-1,0.9-2.5,2.3-3.4,2.3c0,0,0,0,0,0
				c-1.3,0-1.7-0.6-2.2-1.3l-0.2-0.2l0.1-0.1c0,0,0.6-0.4,0.6-1c0-0.3-0.2-0.5-0.4-0.8c0.1,0.3,0.2,0.7,0.1,1
				C90.1,40,89.8,40.2,89.4,40.4z"/>
		</g>
		<g>
			<path d="M95.9,36.7c0,0-2.3,4.5-5.9,3.8l0.4-0.9l-0.2-1l2,0.1l1.1-0.2l1.1-0.5l1-1.1l0.3-0.4L95.9,36.7z"/>
		</g>
		<g>
			<path d="M97.2,40.3c0.5-0.8,1.3-2.4,1.9-3.5l-0.6,0.1c0,0-0.9,1.5-2,3.5c0,0,0,0.1,0,0.1l0,0c-0.3,2.4,0.3,3.7,0.3,3.7
				c-2,0.8-3-0.1-3-0.1c0.5-1.3,0-2.6,0-2.6l-0.5,0.3c0.5,0.9-0.3,2.3-0.3,2.3c1.5,2.1,4.5,0.3,4.5,0.3C96.9,42.6,97,41,97.2,40.3z"
				/>
			<path d="M95,45.4c-0.8,0-1.5-0.3-2.1-1.1l0-0.1l0-0.1c0,0,0.7-1.4,0.3-2.2l0-0.1l0.7-0.4l0,0.1c0,0.1,0.5,1.3,0,2.6
				c0.2,0.2,1.2,0.6,2.7,0.1c-0.1-0.4-0.6-1.6-0.3-3.7l0-0.1c0-0.1,0-0.1,0-0.1l0,0c1.1-2,2-3.5,2-3.5l0,0l0.8-0.1l-0.1,0.2
				c-0.6,1.2-1.4,2.7-1.9,3.5c-0.1,0.7-0.3,2.2,0.3,4.1l0,0.1l-0.1,0C97.5,44.6,96.3,45.4,95,45.4z M93.1,44.2
				c1.3,1.8,3.8,0.5,4.3,0.2c-0.5-1.9-0.4-3.4-0.3-4.2l0,0c0.5-0.7,1.2-2.1,1.8-3.3l-0.3,0c-0.2,0.3-1,1.6-2,3.4c0,0,0,0.1,0,0.1
				l0,0c-0.3,2.3,0.3,3.6,0.3,3.6l0,0.1l-0.1,0c-2,0.8-3.1-0.1-3.1-0.1l-0.1,0l0-0.1c0.4-1,0.2-2,0.1-2.4L93.3,42
				C93.7,42.8,93.2,43.9,93.1,44.2z"/>
		</g>
		<g>
			<path class="st11" d="M90.7,39.8c-0.5-0.1,0.2-0.8,0.5-0.9c0.3,0,0.2,0.4,0.3,0.7c0.1-0.3,0.6-0.9,0.9-0.9c0.3,0,0.5,0.1,0.6,0.3
				C93.1,39.1,92.3,40.3,90.7,39.8z"/>
		</g>
		<g>
			<ellipse cx="89.5" cy="36.7" rx="0.7" ry="0.3"/>
			<path d="M89.5,37.1c-0.4,0-0.8-0.2-0.8-0.4c0-0.2,0.3-0.4,0.8-0.4c0.4,0,0.8,0.2,0.8,0.4C90.3,37,90,37.1,89.5,37.1z M89.5,36.5
				c-0.3,0-0.5,0.1-0.5,0.2c0,0.1,0.2,0.2,0.5,0.2c0.3,0,0.5-0.1,0.5-0.2C90.1,36.6,89.9,36.5,89.5,36.5z"/>
		</g>
		<g>
			<path d="M90.1,48.1c0,0,4.5,5.8,10.4,0.1C100.5,48.2,95.5,51.7,90.1,48.1z"/>
			<path d="M95.2,50.9c-0.1,0-0.3,0-0.4,0c-2.9-0.2-4.8-2.6-4.8-2.7l0.3-0.3c5.1,3.4,10.1,0.1,10.1,0.1l0.3,0.3
				C98.9,50,97.1,50.9,95.2,50.9z M91.5,49.1c0.8,0.6,2,1.3,3.4,1.4c1.4,0.1,2.8-0.3,4.1-1.3C97.3,49.8,94.5,50.4,91.5,49.1z"/>
		</g>
		<g>
			<polygon class="st14" points="92.5,43.5 93,43.4 94.2,43.6 95.4,43.7 96.5,43.3 97.5,43.4 97.9,43.9 98.2,45.3 98.8,46.4 
				98.2,46.6 96.2,47 94.2,47 92.7,46.6 92.4,46.2 92.8,44.9 			"/>
		</g>
		<g>
			<g>
				<path d="M98.6,43.7c0.1-0.1,0.2-0.1,0.2-0.2c0-0.1-0.1-0.1-0.2-0.2c0,0,0,0,0-0.1c0,0-1.8-0.3-2.2-0.3c-0.1,0.1-0.7,0.5-1.3,0.6
					c-0.7,0-1-0.4-1.1-0.5c-1.2,0.1-2,0.2-2,0.5c0,0.1,0.1,0.1,0.2,0.2c0.7,1.1-0.5,2.8-0.5,2.8c2.6,2.6,7.6,0.3,7.6,0.3
					C98.8,45.6,98.6,44.6,98.6,43.7z M93,46.1c0.1-0.2,0.2-0.4,0.3-0.6c0,0,0,0.1,0.1,0.1c0.6,0.7,2.5,0.2,1.6,0.2
					c-0.9-0.1-1.5-1-1.5-1s0,0,0,0c0-0.4,0-0.8-0.1-1.1c0.5,0.1,0.9,0.5,1.9,0.5c0.7,0,1.7-0.4,2.2-0.4c0,0.1,0,0.1,0,0.2
					c-0.2,0.3-0.7,0.9-1.4,0.9c-0.9,0.1,0.9,0.5,1.5-0.1c0.2,1,0.5,1.5,0.5,1.5C94.7,47.1,93,46.1,93,46.1z"/>
				<path d="M95.1,47.8c-1.5,0-2.7-0.4-3.5-1.3l-0.1-0.1l0.1-0.1c0,0,1.1-1.6,0.5-2.6c-0.1,0-0.2-0.1-0.2-0.3c0-0.3,0.5-0.4,2.1-0.6
					l0.1,0l0,0c0.1,0.1,0.4,0.5,1.1,0.5c0.5,0,1.1-0.4,1.2-0.5l0,0l0,0c0.5,0,2.2,0.3,2.3,0.3l0.1,0l0,0.1c0.1,0,0.2,0.1,0.2,0.3
					c0,0.1-0.1,0.2-0.2,0.2c0,1,0.3,2,0.7,3l0,0.1l-0.1,0c0,0-1.3,0.6-2.9,0.8C95.9,47.8,95.5,47.8,95.1,47.8z M91.7,46.4
					c2.3,2.2,6.7,0.6,7.4,0.3c-0.4-1-0.6-2-0.6-3.1l0-0.1l0.1,0c0.1-0.1,0.1-0.1,0.1-0.1c0,0,0,0-0.1-0.1l-0.1,0l0,0
					c-0.4-0.1-1.6-0.2-2.1-0.3c-0.2,0.2-0.8,0.5-1.3,0.6c-0.7,0-1-0.3-1.2-0.5c-1.7,0.1-1.9,0.3-1.9,0.4c0,0,0,0,0.1,0.1l0,0l0,0
					C92.8,44.7,92,46.1,91.7,46.4z M95.4,46.7c-1.6,0-2.4-0.5-2.5-0.5l-0.1-0.1l0-0.1c0.1-0.2,0.2-0.4,0.2-0.6l0.1-0.2l0.1,0.2
					c0,0,0,0.1,0.1,0.1c0.3,0.3,1,0.4,1.4,0.3c-0.7-0.1-1.2-0.8-1.4-1l-0.1,0l0-0.2c0-0.3,0-0.7-0.1-1l0-0.2l0.2,0
					c0.2,0,0.4,0.1,0.6,0.2c0.3,0.1,0.7,0.3,1.3,0.3c0.4,0,1-0.1,1.4-0.3c0.3-0.1,0.6-0.1,0.8-0.2l0.1,0l0,0.1c0,0.1,0,0.1,0,0.2
					l0,0l0,0c-0.2,0.3-0.7,0.8-1.4,0.9c0.4,0,1,0,1.3-0.3l0.1-0.1l0,0.2c0.2,0.9,0.5,1.5,0.5,1.5l0.1,0.1l-0.1,0
					C97,46.6,96.1,46.7,95.4,46.7z M93.1,46.1c0.4,0.2,2.1,0.8,4.8,0.1c-0.1-0.2-0.3-0.6-0.5-1.2c-0.6,0.3-1.5,0.3-1.7,0.1
					c-0.1-0.1-0.1-0.1-0.1-0.2c0-0.1,0.1-0.1,0.3-0.1c0.7-0.1,1.1-0.6,1.3-0.8c0,0,0,0,0-0.1c-0.2,0-0.4,0.1-0.6,0.2
					c-0.5,0.1-1,0.3-1.5,0.3c-0.7,0-1.1-0.2-1.4-0.3c-0.1-0.1-0.2-0.1-0.4-0.1c0.1,0.3,0.1,0.5,0.1,0.8l0,0c0,0,0.6,0.9,1.4,1
					c0.2,0,0.3,0,0.3,0.2c0,0,0,0.1-0.1,0.2c-0.3,0.1-1.3,0.2-1.9-0.3C93.2,45.8,93.2,45.9,93.1,46.1z"/>
			</g>
		</g>
	</g>
	<g>
		<g>
			<g>
				<defs>
					<polygon id="SVGID_3_" points="101.3,56.1 103.2,47.8 103.4,46.2 103.9,43.5 103.4,42.7 104,40.7 104.9,39.2 104.6,38.5 
						105.2,36.5 105.8,35.2 105.3,34.5 106.7,32.6 107.1,31.7 108.4,29.5 109.5,28.5 110.3,27.7 112.1,25.3 114.1,22.9 116.4,21.3 
						119.8,19.8 123,18.8 124.3,19.1 124.4,19.8 123.8,20.5 123.8,21 123.3,21.5 122.1,21.8 122.3,22.9 121.6,23.3 121.7,24.7 
						120.8,25.2 120.7,26.3 120.9,28.9 121.4,29.7 122.7,31 123.2,32.9 123.2,34.1 124.2,36.1 124.3,37.7 124.1,38.7 124.4,39.9 
						125,41.2 124.7,42.2 124.5,42.6 124.8,44.1 124.6,45.9 124.4,47.3 124.1,48.4 125.2,57.7 					"/>
				</defs>
				<use xlink:href="#SVGID_3_"  style="overflow:visible;fill:#F9A51A;"/>
				<clipPath id="SVGID_4_">
					<use xlink:href="#SVGID_3_"  style="overflow:visible;"/>
				</clipPath>
				<polygon class="st15" points="101.3,56.3 119.2,57.7 101.3,57.7 				"/>
			</g>
		</g>
		<g>
			<path d="M125.5,57.9c0.2,0-0.6-4.6-0.3-4.8c0.4-0.4-0.2-5.3-0.2-6.2c0-0.3,0-0.5,0-0.7c0.3-0.7,0.3-1.8,0.1-2.6
				c0-0.2-0.1-0.4-0.1-0.6c0.1-0.1,0.2-0.2,0.3-0.5c0.3-0.7,0.1-1.9-0.5-3.2c-0.1-0.2-0.1-0.3-0.2-0.5c0.1-0.1,0.2-0.2,0.2-0.4
				c0.3-0.8,0-2.2-0.5-3.3c-0.2-0.4-0.4-0.7-0.6-1.1c0,0,0-0.1,0.1-0.1c0.2-0.7-0.1-1.8-0.5-2.6c-0.4-0.7-0.9-1.6-1.6-1.9
				c-0.4-1.2-0.6-2.4-0.5-3.7c0.1,0,0.3,0,0.4-0.1c0.5-0.2,0.7-0.8,0.7-1.6c0.4,0,0.8-0.1,1-0.5c0.2-0.4,0-0.7-0.4-1.2
				c0.8-0.2,1.6-0.6,1.5-1.3c0-0.1-0.1-0.2-0.1-0.3c0.8-0.3,1.4-0.7,1.3-1.3c-0.1-0.4-0.3-0.7-2.2-0.8l0,0l0,0c0,0-0.1,0-0.1,0
				c0,0,0,0-0.1,0c-0.4,0-0.8,0.1-1.2,0.1c-0.3,0.1-0.6,0.1-0.9,0.2c-4.5,1-8.3,4.1-11.4,9.2c-0.5,0.2-1.1,0.7-1.7,1.5
				c-0.3,0.4-1.1,1.5-1.1,2.3c-0.2,0.2-0.4,0.4-0.6,0.7c-0.6,0.7-1.2,1.8-1.1,2.5c0,0.2,0.1,0.4,0.2,0.5c-0.1,0.1-0.1,0.2-0.2,0.2
				c-0.6,0.9-1.2,2.1-1,3c0,0.2,0.2,0.4,0.3,0.5c-0.2,0.3-0.4,0.6-0.6,1c-0.5,1-1,2.3-0.7,3.1c0.1,0.3,0.3,0.5,0.5,0.6c0,0,0,0,0,0
				c-0.2,0.4-0.3,0.8-0.5,1.3c-0.3,1-2.2,10.6-1.8,11.2L125.5,57.9z M101.5,56l1.4-6.5c-0.1-0.3,0.7-3,0.9-4c0.3-1,0.6-1.6,0.9-1.9
				l0.1-0.1l0-0.1l0,0c0,0,0,0,0,0l0,0l0.3-1.4c0,0-1.1,0.9-1.1,0.9c-0.1,0.1-0.1,0.1-0.2,0.1c0-0.3,0.1-1.1,0.7-2.1
				c0.3-0.6,0.7-1.1,1.1-1.5l-0.6-0.9c0,0,0,0,0,0c0-0.3,0.2-1.1,0.9-2.1c0.2-0.3,0.4-0.5,0.6-0.7l1.2-1.4l-1.6,0.5
				c0.1-0.3,0.3-0.9,0.8-1.5c0.2-0.3,0.5-0.6,0.7-0.8l0.3-0.3l-0.2-0.3c0-0.2,0.2-0.8,0.8-1.6c0.6-0.7,1.1-1.1,1.4-1.2l0.2,0
				l0.1-0.2c2.8-4.7,6.3-7.6,10.4-8.7c0.3-0.1,0.7-0.2,1.1-0.3c1-0.2,1.9-0.2,2.1-0.1c0,0,0,0,0.1,0c0,0,0,0,0,0c0,0,0,0,0,0.1
				c0,0.2-0.6,0.5-1.4,0.8l0,0.1c0.5,0,0.8,0.1,0.8,0.2c0,0.2-0.9,0.6-2.1,0.8c-0.5,0.1-1,0.1-1.3,0.1l1.3,0.8
				c0.2,0.1,0.4,0.3,0.5,0.4c0,0-0.1,0-0.1,0l-0.8-0.2l0.2,0.8c0.1,0.5,0.1,0.9,0.1,1.1c0,0,0,0-0.1-0.1l-0.8-0.7l-0.1,1
				c-0.2,1.7,0,3.4,0.6,5.1l0.1,0.3l0.3,0.1c0.2,0,0.7,0.5,1.2,1.5c0.4,0.9,0.5,1.5,0.5,1.8l-0.6,0.2c0,0,0.4,0.6,0.4,0.6
				c0.3,0.4,0.5,0.8,0.7,1.2c0.6,1.3,0.6,2.2,0.5,2.4l-1.1-0.2l0.6,1c0.2,0.3,0.3,0.6,0.5,0.9c0.6,1.3,0.5,2.2,0.4,2.4l-0.7,0
				l0.3,0.7c0.1,0.3,0.2,0.6,0.2,0.9c0.2,1.1,0.1,1.8,0,2l-0.1,0.2l0,0.2c0,0.2,0.1,0.5,0,0.7c0,0.7,1.2,10.4,1,10.6L101.5,56z"/>
		</g>
		<g>
			<path d="M117.4,25.5c-0.6,0-1.2,0.4-1.6,0.9c-0.4-0.6-1-1.1-1.6-1.1c-1.2,0-2.2,1.2-2.2,2.8c0,1.6,0.9,2.9,2.1,2.9
				c0.6,0,1.2-0.4,1.6-0.9c0.4,0.6,1,1.1,1.6,1.1c1.2,0,2.2-1.2,2.2-2.8C119.5,26.8,118.6,25.5,117.4,25.5z"/>
		</g>
		<g>
			<path d="M117.4,25.2c-0.7,0-1.4,0.4-1.9,1.1l0.5,0c-0.4-0.8-1.1-1.2-1.9-1.2c-1.4,0-2.5,1.4-2.5,3.1c0,1,0.3,1.9,0.9,2.5
				c0.4,0.4,0.9,0.7,1.5,0.7c0.7,0,1.4-0.4,1.9-1.1l-0.5,0c0.4,0.8,1.1,1.2,1.9,1.2c0.6,0,1.1-0.2,1.5-0.6c0.6-0.6,1-1.5,1-2.5
				c0-1-0.3-1.9-0.9-2.5C118.5,25.4,118,25.2,117.4,25.2z M119.2,28.4c0,1.4-0.9,2.5-1.9,2.5c-0.5,0-1-0.4-1.4-0.9l-0.3-0.4
				l-0.3,0.4c-0.4,0.5-0.9,0.8-1.4,0.8c-0.4,0-0.7-0.2-1-0.5c-0.5-0.5-0.7-1.3-0.7-2.1c0-0.8,0.3-1.6,0.8-2c0.3-0.3,0.7-0.5,1.1-0.5
				c0.5,0,1,0.4,1.4,0.9l0.3,0.4l0.3-0.4c0.4-0.5,0.9-0.8,1.4-0.8c0.4,0,0.7,0.2,1,0.5C118.9,26.8,119.2,27.6,119.2,28.4z"/>
		</g>
		<g>
			<path class="st4" d="M117.3,26.1c-0.6,0-1.1,0.8-1.5,1.3c-0.3-0.6-0.9-1.4-1.5-1.5c-1.1,0-2,1.2-2,2.7c0,1.5,0.8,2.7,1.9,2.8
				c0.6,0,1.1-0.3,1.5-0.9c0.3,0.6,0.9,1,1.5,1c1.1,0,2-1.2,2-2.7C119.2,27.4,118.3,26.1,117.3,26.1z"/>
		</g>
		<g>
			<path class="st7" d="M119.1,28.1c-0.2-1.1-0.9-2-1.8-2c-0.4,0-0.7,0.3-1,0.6L119.1,28.1z"/>
		</g>
		<g>
			<path class="st7" d="M115.4,26.8c-0.3-0.4-0.7-0.8-1.1-0.8c-0.9,0-1.6,0.8-1.9,1.9L115.4,26.8z"/>
		</g>
		<g>
			<path d="M115.1,24.4c-0.1-0.3-0.6-0.7-1-0.7c-0.8,0-1.5,0.8-1.9,1.6C112.1,25.3,113.2,24.1,115.1,24.4z"/>
		</g>
		<g>
			<path d="M116.8,24.7c0.3-0.2,1-0.8,1.4-0.8c0.8,0,1.3,0.5,1.5,1.9C119.7,25.7,118.9,24.1,116.8,24.7z"/>
		</g>
		<g>
			<g>
				<path d="M107.4,40.9c-0.1,0.2-0.2,0.4-0.3,0.6c-0.7,1.5-1.5,2.6-1.8,2.4c-0.4-0.2-0.1-1.5,0.5-3c0-0.1,0.1-0.2,0.1-0.3
					c-0.3,0.4-0.7,0.9-0.9,1.6c-0.6,1.4-0.7,2.8-0.2,3c0.5,0.2,1.4-0.7,2-2.2C107.3,42.3,107.4,41.5,107.4,40.9z"/>
			</g>
			<g>
				<path d="M109.7,39.4c-0.1,0.2-0.2,0.4-0.3,0.6c-0.7,1.5-1.5,2.6-1.8,2.4c-0.4-0.2-0.1-1.5,0.5-3c0-0.1,0.1-0.2,0.1-0.3
					c-0.3,0.4-0.7,0.9-0.9,1.6c-0.6,1.4-0.7,2.8-0.2,3c0.5,0.2,1.4-0.7,2-2.2C109.5,40.8,109.7,40,109.7,39.4z"/>
			</g>
			<g>
				<path d="M108.3,43.4c-0.1,0.2-0.2,0.4-0.3,0.6c-0.7,1.5-1.5,2.6-1.8,2.4c-0.4-0.2-0.1-1.5,0.5-3c0-0.1,0.1-0.2,0.1-0.3
					c-0.3,0.4-0.7,0.9-0.9,1.6c-0.6,1.4-0.7,2.8-0.2,3c0.5,0.2,1.4-0.7,2-2.2C108.1,44.8,108.3,44,108.3,43.4z"/>
			</g>
		</g>
		<g>
			<g>
				<path d="M121.3,42.6c0,0.2,0.1,0.4,0.1,0.6c0.3,1.5,0.9,2.6,1.3,2.5c0.4-0.1,0.4-1.3,0.1-2.7c0-0.1,0-0.2-0.1-0.2
					c0.2,0.4,0.5,1,0.6,1.6c0.3,1.4,0.2,2.6-0.4,2.7c-0.5,0.1-1.2-1-1.6-2.3C121.2,43.9,121.2,43.1,121.3,42.6z"/>
			</g>
			<g>
				<path d="M119.4,40.8c0,0.2,0.1,0.4,0.1,0.6c0.3,1.5,0.9,2.6,1.3,2.5c0.4-0.1,0.4-1.3,0.1-2.7c0-0.1,0-0.2-0.1-0.2
					c0.2,0.4,0.5,1,0.6,1.6c0.3,1.4,0.2,2.6-0.4,2.7c-0.5,0.1-1.2-1-1.6-2.3C119.3,42.1,119.3,41.3,119.4,40.8z"/>
			</g>
			<g>
				<path d="M120,44.6c0,0.2,0.1,0.4,0.1,0.6c0.3,1.5,0.9,2.6,1.3,2.5c0.4-0.1,0.4-1.3,0.1-2.7c0-0.1,0-0.2-0.1-0.2
					c0.2,0.4,0.5,1,0.6,1.6c0.3,1.4,0.2,2.6-0.4,2.7c-0.5,0.1-1.2-1-1.6-2.3C119.9,45.9,119.9,45.1,120,44.6z"/>
			</g>
		</g>
		<g>
			<g>
				<g>
					
						<ellipse transform="matrix(2.512617e-02 -0.9997 0.9997 2.512617e-02 82.5622 142.514)" cx="114.4" cy="28.9" rx="1.3" ry="0.7"/>
				</g>
			</g>
			<g>
				<polygon points="115.8,27.3 119.7,28.8 119.6,28 116.3,26.3 				"/>
			</g>
			<g>
				<polygon points="115.8,27.3 111.8,28.6 111.9,27.8 115.3,26.3 				"/>
			</g>
			<g>
				<g>
					
						<ellipse transform="matrix(2.520965e-02 -0.9997 0.9997 2.520965e-02 85.1473 145.4846)" cx="117.2" cy="29.1" rx="1.3" ry="0.7"/>
				</g>
			</g>
		</g>
		<g>
			<path class="st9" d="M110.6,33c0,0-0.7,0.1-0.9,0.2c-0.1,0.1-0.9,0.7-0.9,0.7l-0.6,0.8l0.1,1.5l0.7,0.8l0.8,0.3l0.6,0.1l0.5,0
				l0.5,0l0.1,0.7l0.4,1.5l0.6,2.9l0.7,1.9l0.8,1.5l0.8,0.3l0.9-0.4l0.8-1.3l1.1-2.4l0.7-2.1l0.4-1.6l0.2-0.5l0.1-0.3l0.6,0l1.1-0.3
				l1-1.4c0,0,0.1-0.9,0.1-1.1c0-0.2-0.5-0.9-0.5-0.9l-0.7-0.5l-0.8-0.2l-0.5-0.2L110.6,33z"/>
		</g>
		<g>
			<path d="M120,33c-0.5,0-1.1,0.1-1.5,0.4c0.3-0.1,0.6-0.2,0.9-0.2c1.2,0,2.1,1,2.1,2.1c0,1.1-1,2-2.2,2c-0.7,0-1.3-0.4-1.7-0.9
				c0.2,0.4,0.6,0.8,1,1c-0.4,1.6-4.2,17.4-7-0.2c0.3-0.2,0.6-0.5,0.8-0.8c-0.4,0.5-1,0.8-1.7,0.8c-1.2,0-2.1-1-2.1-2.1
				c0-1.1,1-2,2.2-2c0.3,0,0.6,0.1,0.9,0.2c-0.4-0.3-0.9-0.5-1.5-0.5c-1.4,0-2.6,1-2.6,2.3c0,1.3,1.1,2.4,2.5,2.4
				c0.4,0,0.7-0.1,1-0.2c0.2,1.3,2.7,21,8,0.2c0.2,0.1,0.4,0.1,0.6,0.1c1.4,0,2.6-1,2.6-2.3C122.6,34.1,121.4,33,120,33z"/>
		</g>
		<g>
			<g>
				<path d="M112.4,37.1c0,0,2.2,15.2,5.2,0.1L112.4,37.1z"/>
			</g>
			<g>
				<path class="st9" d="M119.7,33.3c0-1.4-1.5-2.6-4.2-2.7l0,0c-2.9-0.2-4.6,1.1-4.7,2.5c-0.1,1.4,0,2.3,1.8,3.7
					c1.5,1.2,2.2,2.6,2.4,3l0,0.1c0,0,0,0,0-0.1c0,0,0,0.1,0,0.1l0-0.1c0.2-0.4,1-1.8,2.6-2.9C119.5,35.7,119.7,34.7,119.7,33.3z"/>
				<path d="M115.4,40.1L115,40l-0.3,0.1l0,0l0.1-0.1l-0.1,0l-0.1,0c0,0,0,0,0,0l0,0l0,0c-0.2-0.5-0.9-1.7-2.3-2.7
					c-2-1.6-2.1-2.7-2-4.1c0.1-1.5,1.8-3.1,5.1-2.9l0.4,0l0,0c2.4,0.2,4.1,1.4,4.2,3.1v0c0,1.4-0.1,2.6-2.2,4
					c-1.4,1-2.2,2.2-2.4,2.6l0,0C115.5,40,115.5,40,115.4,40.1l-0.1-0.1l-0.1,0L115.4,40.1L115.4,40.1z M115,31
					c-2.4,0-3.7,1-3.7,2.1c-0.1,1.2-0.1,2,1.7,3.4c1.1,0.8,1.8,1.8,2.2,2.5l0-0.1l0,0.1c0.4-0.6,1.2-1.5,2.3-2.3
					c1.8-1.2,1.9-2.1,1.8-3.3c0-1.1-1.2-2.2-3.8-2.3L115,31L115,31C115,31,115,31,115,31z"/>
			</g>
			<g>
				<g>
					<ellipse transform="matrix(0.7755 -0.6313 0.6313 0.7755 2.9834 79.7975)" cx="113.7" cy="35.7" rx="0.4" ry="0.7"/>
				</g>
				<g>
					<ellipse transform="matrix(0.6696 -0.7427 0.7427 0.6696 11.959 98.4818)" cx="116.7" cy="35.8" rx="0.7" ry="0.4"/>
				</g>
			</g>
			<g>
				<path class="st6" d="M116.1,41.1c-0.1-1.3-0.5-1.4-0.5-1.4v0c0,0-0.1,0-0.1,0c-0.2,0-0.4,1-0.4,1.4c-0.1-0.4-0.2-1.4-0.4-1.4
					c-0.1,0-0.1,0-0.1,0.1c-0.1,0-0.4,0.2-0.6,1.4c0,0,0,0.8,0.5,1.2l0,0c0.1,0.1,0.1,0.1,0.2,0.1c0.2,0,0.3-0.3,0.4-0.7
					c0.1,0.4,0.2,0.7,0.4,0.7c0.1,0,0.2-0.1,0.3-0.2C116.1,41.8,116.1,41.1,116.1,41.1z"/>
			</g>
		</g>
	</g>
	<g>
		<defs>
			<path id="SVGID_5_" d="M128.7,89.1c13.3,3.4,21.4,8.9,21.4,8.9l-6.2-15.6l6.2-8.7c-7.5-4-14.6-6.8-21.4-8.6L128.7,89.1z"/>
		</defs>
		<use xlink:href="#SVGID_5_"  style="overflow:visible;fill:#EC1C24;"/>
		<clipPath id="SVGID_6_">
			<use xlink:href="#SVGID_5_"  style="overflow:visible;"/>
		</clipPath>
	</g>
	<g>
		<polygon class="st16" points="140.4,87.8 129,88.5 129,79.6 		"/>
	</g>
	<path d="M144.4,82.5l6.3-8.9l-0.4-0.2c-7.1-3.8-14.3-6.7-21.5-8.6l-0.5-0.1l0,24.9l0.3,0.1c6.8,1.7,12.2,4,15.6,5.7
		c3.6,1.8,5.7,3.1,5.7,3.2l1.1,0.8L144.4,82.5z M144.6,94.4c-3.1-1.5-8-3.6-14.1-5.3l10-0.7l-0.1-0.8l-11.3,0.8l0-22.7
		c6.8,1.9,13.7,4.6,20.4,8.2l-6,8.5l5.8,14.6C148.3,96.4,146.7,95.5,144.6,94.4z"/>
	<g>
		<g>
			<g>
				<defs>
					<path id="SVGID_7_" d="M67.5,88.9c-13.3,3.4-21.4,8.9-21.4,8.9l6.2-15.6l-6.2-8.7c7.5-4,14.6-6.8,21.4-8.6L67.5,88.9z"/>
				</defs>
				<use xlink:href="#SVGID_7_"  style="overflow:visible;fill:#EC1C24;"/>
				<clipPath id="SVGID_8_">
					<use xlink:href="#SVGID_7_"  style="overflow:visible;"/>
				</clipPath>
			</g>
			<path d="M45.2,98.9l6.6-16.7l-6.3-8.9l0.4-0.2c7.1-3.8,14.3-6.7,21.5-8.6l0.5-0.1l0,24.9l-0.3,0.1C60.7,91,55.3,93.4,52,95
				c-3.6,1.8-5.7,3.1-5.7,3.2L45.2,98.9z M46.7,73.6l6,8.5l-5.8,14.6c1-0.6,2.5-1.5,4.6-2.5c3.3-1.6,8.7-3.9,15.4-5.7l0-23.1
				C60.2,67.3,53.4,70.1,46.7,73.6z"/>
		</g>
		<g>
			<polygon class="st16" points="55.6,87.6 66.9,88.3 66.9,79.4 			"/>
		</g>
		<g>
			
				<rect x="61.1" y="82.2" transform="matrix(5.446449e-02 -0.9985 0.9985 5.446449e-02 -29.7376 144.7641)" width="0.9" height="11.7"/>
		</g>
	</g>
	<g>
		<defs>
			<path id="SVGID_9_" d="M55.8,63c0,0,36.2-25.8,84.5,0.2v24.3c0,0-37.9-25.8-84.5,0V63z"/>
		</defs>
		<use xlink:href="#SVGID_9_"  style="overflow:visible;fill:#EC1C23;"/>
		<clipPath id="SVGID_10_">
			<use xlink:href="#SVGID_9_"  style="overflow:visible;"/>
		</clipPath>
	</g>
	<path class="st0" d="M140.7,88.3l-0.7-0.5c0,0-2.4-1.6-6.6-3.6c-3.9-1.8-10.2-4.4-18-6c-8.8-1.9-17.8-2.3-26.7-1.2
		c-11.1,1.3-22.1,5-32.7,10.8l-0.6,0.3V62.8l0.2-0.1c0.1-0.1,9.3-6.5,24.3-9.7c8.8-1.9,17.9-2.3,26.9-1.2c11.3,1.4,22.7,5.1,33.7,11
		l0.2,0.1V88.3z M56.2,63.2v23.5c10.5-5.7,21.4-9.2,32.4-10.6c9-1.1,18.1-0.7,27,1.2c7.9,1.7,14.3,4.2,18.2,6.1c3,1.4,5.1,2.6,6,3.2
		V63.4c-10.9-5.8-22.1-9.5-33.2-10.8c-9-1.1-17.9-0.7-26.6,1.1C66.4,56.7,57.6,62.3,56.2,63.2z"/>
	<g>
		<g>
			<g>
				<path d="M55.9,59.6c-0.9,0.4-1.2,1.3-0.9,2.1c0.6,1.4,1.9,2.2,4.4,3.6c3,1.7,4.5,3,5.5,5.4c1.6,3.9-0.1,7.2-3.6,8.6
					c-1.4,0.6-2.6,0.8-3.9,0.6l0.2-3.9c0.6,0.1,1.4,0,2.2-0.3c1.1-0.4,1.6-1.5,1.1-2.7c-0.7-1.8-2.2-2.7-4.6-4.1
					c-2.9-1.6-4.3-2.9-5.1-5c-1.4-3.4-0.1-6.5,3.3-7.9c1.1-0.4,2.2-0.6,3.1-0.5l-0.2,3.7C56.8,59.3,56.4,59.4,55.9,59.6z"/>
				<path d="M58.3,81.7c-0.4,0-0.8,0-1.2-0.1l-1.6-0.2l0.5-7.4l1.9,0.3c0.2,0,0.7,0,1.2-0.2c0.1-0.1,0.2-0.1,0.2-0.1
					c0,0,0-0.1,0-0.2c-0.5-1.2-1.6-1.9-3.8-3.2c-2.8-1.6-4.8-3.1-5.9-5.8c-0.9-2.1-0.9-4.2-0.2-6.1c0.8-1.8,2.3-3.3,4.4-4.1
					c1.3-0.5,2.8-0.8,4-0.6l1.7,0.2l-0.5,7l-1.6,0.1c-0.2,0-0.4,0-0.6,0.1c0.4,0.7,1.4,1.3,3.5,2.5c3,1.7,5,3.2,6.2,6.3
					c1,2.3,1,4.6,0.1,6.7c-0.8,1.9-2.5,3.4-4.6,4.3C60.7,81.5,59.5,81.7,58.3,81.7z M59.3,77.7l0,0.4c0.4-0.1,0.8-0.2,1.3-0.4
					c1.3-0.5,2.3-1.4,2.7-2.4c0.5-1.1,0.4-2.4-0.1-3.8c-0.8-1.9-1.9-3-4.7-4.5c-2.5-1.4-4.3-2.4-5.2-4.5c-0.3-0.8-0.4-1.7,0-2.5
					c0.3-0.8,1-1.5,1.9-1.9l0,0c0.1-0.1,0.2-0.1,0.4-0.1l0-0.2c-0.1,0-0.3,0.1-0.5,0.2c-1.2,0.5-2.1,1.3-2.5,2.2
					c-0.4,0.9-0.3,2.1,0.2,3.3c0.6,1.3,1.4,2.4,4.4,4.1c2.5,1.4,4.4,2.6,5.4,4.9c0.4,1,0.4,2.1,0,3c-0.4,0.9-1.1,1.6-2.1,2
					C60.1,77.5,59.7,77.6,59.3,77.7z"/>
			</g>
			<g>
				<path d="M65.7,70.3l-2.3-9l4.2-1.1l2.5,9.9c0.3,1.1,1,1.8,1.6,1.6c0.7-0.2,0.9-1.1,0.6-2.2l-2.5-9.9l4.2-1.1l2.3,9
					c1.1,4.5-0.6,7.1-3.6,7.9C69.6,76.2,66.8,74.7,65.7,70.3z"/>
				<path d="M71.2,77.4c-1.3,0-2.6-0.4-3.7-1.1c-1.7-1.1-2.8-3-3.5-5.6L61.2,60l14.1-3.6L78,67.1c1.6,6.1-1.5,9.2-4.9,10.1
					C72.4,77.3,71.8,77.4,71.2,77.4z M65.6,62.6l1.9,7.3c0.4,1.7,1.1,2.9,2,3.5c0.8,0.5,1.7,0.6,2.7,0.4c2.9-0.8,2.9-3.5,2.3-5.7
					l-1.9-7.3L72,60.9l2.1,8.2c0.2,0.9,0.2,1.7,0,2.4c-0.3,1-1,1.7-1.9,2c-0.9,0.2-1.9-0.1-2.7-0.8c-0.5-0.5-0.9-1.3-1.1-2.1
					l-2.1-8.2L65.6,62.6z"/>
			</g>
			<g>
				<path d="M76.5,58.1l4-0.5l0.1,0.9l0.9-1.2c0.1,0,0.4-0.1,0.4-0.1c2.9-0.4,5.7,1.5,6.3,6.5c0.8,6.7-3.7,9.1-5.5,9.5l0.7,5.2
					L79.2,79L76.5,58.1z M82.3,69.5c1-0.3,2.1-1.9,1.6-5.5c-0.2-2-1.1-3.1-1.8-3.1c-0.4,0-0.7,0.5-0.8,0.8L82.3,69.5z"/>
				<path d="M77.6,81l-3.1-24.5l6-0.8l0.4-0.1c0.3-0.1,0.6-0.1,0.7-0.2c2-0.3,4,0.3,5.4,1.7c1.5,1.4,2.5,3.6,2.9,6.3
					c0.8,6.3-2.5,9.6-5.3,10.9l0.7,5.6L77.6,81z M78.5,59.7l2.2,17.4l0.7-0.1l-0.6-5.1l1.6-0.4c0.2,0,4.9-1.2,4.1-7.5
					c-0.2-1.9-0.8-3.3-1.7-4.2c-0.6-0.6-1.3-0.8-2.2-0.8l-0.1,0.1c0.6,0.1,1.5,0.4,2.3,1.6c0.5,0.8,0.8,1.8,1,3
					c0.6,4.7-1.1,6.9-2.9,7.5l-2,0.6l-1.1-9l-0.2,0.3L79,59.6L78.5,59.7z"/>
			</g>
			<g>
				<path d="M93.8,67.4c0.1,0.8,0.8,1.6,1.8,1.6c0.6,0,1-0.1,1.4-0.2l0.1,3.5c-0.4,0.1-1,0.2-1.7,0.2c-2.5,0.1-5.9-1.2-6-8
					c-0.1-6.7,2.9-8.1,5.2-8.2c2,0,4.6,1.3,4.7,4.9C99.2,65.5,95.1,67.3,93.8,67.4z M93.6,63.9c0.5,0,1.7-1.1,1.7-2.9
					c0-0.8-0.2-1.3-0.8-1.3c-0.7,0-1,1.3-0.9,3.1C93.5,63.3,93.5,63.6,93.6,63.9z"/>
				<path d="M95.2,74.3c-2,0-3.7-0.7-5-1.9c-1.7-1.7-2.6-4.3-2.7-7.8c-0.1-3.4,0.6-6.1,2.1-7.8c1.2-1.4,2.9-2.2,4.8-2.2
					c1.6,0,3.1,0.5,4.3,1.5c1,0.8,2.2,2.4,2.2,5.1c0.1,2.4-0.9,4.2-2.2,5.5l0.1,7l-1.4,0.3c-0.6,0.1-1.3,0.2-2.1,0.2
					C95.3,74.3,95.2,74.3,95.2,74.3z M92.6,58.9c-1.3,1.1-1.6,3.6-1.6,5.7c0.1,4,1.4,6.1,3.8,6.2c-1.4-0.3-2.6-1.5-2.8-3.1l-0.2-1.8
					l0.9-0.1l-0.8,0l-0.2-1.6c0-0.4-0.1-0.8-0.1-1.3C91.7,60.8,92.1,59.6,92.6,58.9z M96.2,58.7c0.2,0.2,0.3,0.3,0.4,0.5
					c0.3,0.5,0.4,1.1,0.4,1.8c0,1.2-0.3,2.3-1,3.2c-0.1,0.1-0.3,0.3-0.5,0.6c0.9-0.7,1.8-1.8,1.8-3.4c0-1.1-0.4-1.9-1-2.5
					C96.3,58.8,96.2,58.7,96.2,58.7z M93.4,60.9L93.4,60.9z"/>
			</g>
			<g>
				<path d="M107.4,60.8c-1.4-0.1-2.9,0.9-3,3.1l-0.5,8.7l-4.3-0.3l1-15.8l4,0.2l-0.1,1.5c0.3-0.4,1.3-1.5,3-1.4l0.4,0l-0.2,3.8
					L107.4,60.8z"/>
				<path d="M105.5,74.5l-7.9-0.5l1.2-19.4l7.6,0.5l0,0.1c0.4-0.1,0.8-0.1,1.2,0l2.2,0.1l-0.4,7.4l-2.1-0.1c-0.5,0-1.1,0.3-1.1,1.4
					L105.5,74.5z M101.4,70.7l0.7,0l0.4-6.2l-0.3,0.4l0.4-6.5l-0.5,0L101.4,70.7z"/>
			</g>
			<g>
				<path d="M113.8,53.7l-4.2-0.6l0.6-3.8l10.1,1.5l-7.7,18.9l4.8,0.7l-0.6,3.8l-10.6-1.6L113.8,53.7z"/>
				<path d="M118.2,76.3l-14.6-2.2l7.7-18.9l-3.7-0.6l1.1-7.3l14.1,2.1L115,68.3l4.3,0.7L118.2,76.3z M108.6,71.2l6.6,1l0-0.3
					l-5.2-0.8l7.7-18.9l-6.1-0.9l0,0.3l4.7,0.7L108.6,71.2z"/>
			</g>
			<g>
				<path d="M119.2,66.7c1.9-6.8,5.8-6.8,7.5-6.3c1.8,0.5,5.1,2.5,3.2,9.3c-1.9,6.8-5.8,6.8-7.5,6.3
					C120.5,75.5,117.2,73.4,119.2,66.7z M123.4,72.3c0.7,0.2,1.5-0.8,2.4-3.7c0.8-3,0.6-4.2-0.1-4.4c-0.7-0.2-1.5,0.8-2.4,3.7
					C122.5,70.8,122.7,72.1,123.4,72.3z"/>
				<path d="M123.7,77.9c-0.6,0-1.3-0.1-1.9-0.3c-3.4-1-6.4-4.5-4.4-11.5c2-7,6.3-8.5,9.7-7.5c3.4,1,6.4,4.5,4.4,11.5
					C130,75.9,126.7,77.9,123.7,77.9z M125.3,62c-1.4,0-3.2,0.9-4.4,5.2c-1.5,5.3,0.6,6.7,1.9,7.1c1.4,0.4,3.9,0.2,5.3-5
					c1.5-5.3-0.6-6.7-1.9-7.1C125.9,62,125.6,62,125.3,62z M123.5,74.1c-0.3,0-0.5,0-0.7-0.1c-2.9-0.8-1.7-5.2-1.3-6.6
					c0.5-1.6,0.9-2.8,1.5-3.6c1.2-1.7,2.5-1.6,3.1-1.4c0.5,0.2,1.8,0.7,1.9,2.8c0,1-0.1,2.2-0.6,3.8c-0.5,1.6-0.9,2.8-1.5,3.6
					C125.1,73.8,124.2,74.1,123.5,74.1z"/>
			</g>
			<g>
				<path d="M130.8,70c2.9-6.4,6.7-5.8,8.4-5.1c1.7,0.8,4.6,3.3,1.7,9.7c-2.9,6.4-6.7,5.8-8.4,5.1C130.9,78.9,127.9,76.4,130.8,70z
					 M134.1,76.2c0.6,0.3,1.6-0.5,2.9-3.3c1.3-2.8,1.3-4.1,0.6-4.4c-0.6-0.3-1.6,0.5-2.9,3.3C133.5,74.6,133.5,75.9,134.1,76.2z"/>
				<path d="M134.6,81.9c-1.2,0-2.2-0.3-2.8-0.6c-0.9-0.4-2.7-1.5-3.5-3.7c-0.9-2.3-0.6-5.1,0.9-8.3l0,0c1.5-3.2,3.4-5.3,5.7-6.2
					c2.2-0.8,4.1-0.2,5.1,0.2c0.9,0.4,2.7,1.5,3.5,3.7c0.9,2.3,0.6,5.1-0.9,8.3c-1.5,3.2-3.4,5.3-5.7,6.2
					C136.1,81.8,135.3,81.9,134.6,81.9z M132.5,70.7c-1,2.3-1.3,4.2-0.8,5.6c0.4,1,1.2,1.5,1.7,1.7c0.4,0.2,1.4,0.5,2.4,0.1
					c1.3-0.5,2.6-2,3.7-4.3c1-2.3,1.3-4.2,0.8-5.6c-0.4-1-1.2-1.5-1.7-1.7c-0.4-0.2-1.4-0.5-2.4-0.1C134.8,67,133.5,68.4,132.5,70.7
					L132.5,70.7z M134.4,78c-0.4,0-0.8-0.1-1-0.2c-0.5-0.2-1.7-1-1.5-3.1c0.1-1,0.5-2.2,1.2-3.7c0.7-1.5,1.3-2.6,2-3.3
					c1.4-1.5,2.8-1.2,3.3-0.9c0.5,0.2,1.7,1,1.5,3.1c-0.1,1-0.5,2.2-1.2,3.7c-0.7,1.5-1.3,2.6-2,3.3C135.8,77.8,135,78,134.4,78z"/>
			</g>
		</g>
		<path d="M144.8,65.8c-0.9-2.3-2.7-3.4-3.6-3.8c-1-0.4-3-1.1-5.3-0.2c-0.9,0.3-1.7,0.8-2.5,1.5c-0.7-4.4-4.2-5.7-5.1-5.9
			c-1.2-0.3-7.4-1.6-10,7.7c-0.2,0.8-0.4,1.5-0.5,2.2l-1.4-0.2l7.7-18.9l-14.6-2.2l-1.2,7.8l1.9,0.3l-1.6-0.1c-0.3,0-0.6,0-0.9,0
			l0-0.1l-8.1-0.5l-0.1,1.3c-1.2-0.9-2.6-1.4-4.1-1.4c-2,0-3.7,0.9-5,2.3c-0.4,0.5-0.8,1-1,1.6c-0.3-0.5-0.7-0.9-1.1-1.3
			c-1.5-1.4-3.5-2-5.6-1.7c-0.2,0-0.5,0.1-0.8,0.2l-0.4,0.1l-5,0.6l0-0.1l-0.8,0.2l-0.4,0l0,0l-6.9,1.8l0,0l-6.4,1.6l1.2,4.8
			c-0.6-0.4-1.2-0.7-1.8-1.1c-1.8-1-2.8-1.6-3.3-2.2c0.1,0,0.1,0,0.2,0l1.8-0.1l0.5-7.4l-1.9-0.2c-1.2-0.2-2.7,0.1-4.1,0.6
			c-2.2,0.9-3.7,2.4-4.5,4.3c-0.8,1.9-0.7,4,0.2,6.2c1.1,2.8,3.2,4.3,6,6c2.2,1.2,3.3,1.9,3.7,3.1c0,0,0,0,0,0c0,0,0,0,0,0
			c-0.4,0.2-0.9,0.2-1.1,0.2l-2.2-0.3l-0.5,7.9l1.8,0.3c0.4,0.1,0.8,0.1,1.3,0.1c1.2,0,2.4-0.3,3.7-0.8c2.5-1,4.2-2.8,5-4.9
			c0.1,0.1,0.2,0.2,0.3,0.3c1.1,0.8,2.4,1.2,3.8,1.2c0.7,0,1.3-0.1,2-0.3c1.3-0.3,2.5-1,3.5-2l0.7,5.9l8.3-1l-0.7-5.7
			c1.4-0.7,2.8-1.8,3.9-3.5c1.9,3.1,5,3.5,6.4,3.5c0.1,0,0.1,0,0.2,0c0.8,0,1.6-0.1,2.2-0.2l0.1,0l8.1,0.5l0-0.1l12.7,1.9l0.1-0.7
			c1.2,1.3,2.7,1.9,3.3,2c0.3,0.1,1,0.2,1.9,0.2c1.2,0,2.7-0.3,4.1-1.4c0.1,0.3,0.2,0.6,0.3,0.9c0.9,2.3,2.6,3.4,3.6,3.8
			c0.6,0.3,1.7,0.6,2.9,0.6c0.7,0,1.5-0.1,2.3-0.4c2.4-0.9,4.3-3,5.8-6.3C145.4,71,145.7,68.2,144.8,65.8z M112.1,54.2L111,57
			l0.2-2.9L112.1,54.2z M107.5,62.9c0-0.8,0.4-1.3,0.9-1.2l0.6,0l-1.7,4.2L107.5,62.9z"/>
		<path class="st4" d="M144,66.1c-0.8-2-2.3-2.9-3.2-3.3c-0.9-0.4-2.6-0.9-4.6-0.2c-1.3,0.5-2.5,1.4-3.6,2.8
			c0.1-1.7-0.2-3.2-0.9-4.4c-1.1-1.9-2.7-2.6-3.6-2.8c-0.9-0.3-2.7-0.5-4.6,0.5c-2,1.1-3.4,3.3-4.4,6.5c-0.3,1.1-0.5,2.1-0.6,3
			l-3.4-0.5l7.7-18.9l-12.6-1.9l-0.9,6l3.9,0.6l-7.2,17.9l0.5-8.5c0.1-1.5,1-2.1,1.8-2.1l1.4,0.1l0.4-6.1l-1.5-0.1
			c-0.7,0-1.3,0.1-1.9,0.2l0-0.4l-6.3-0.4l-0.1,2.5c-0.3-0.5-0.7-0.9-1.1-1.2c-1-0.9-2.4-1.4-3.8-1.3c-1.6,0-4.7,0.7-5.9,5.2
			c-0.5-1.1-1.1-2.1-1.9-2.8c-1.3-1.2-3.1-1.7-4.9-1.5c-0.1,0-0.4,0.1-0.6,0.1L82,55.3l0,0L76.4,56l0.5,3.8l-1-3.7l-6.3,1.6l2.8,11
			c0.1,0.2,0.1,0.4,0.1,0.5c-0.1-0.1-0.1-0.3-0.2-0.5l-2.8-11l-6.3,1.6l1.7,6.6c-1-1-2.3-1.9-3.8-2.7c-2.3-1.3-3.4-2-3.9-3
			c-0.1-0.1-0.1-0.3,0-0.4c0-0.1,0.1-0.2,0.3-0.3c0.4-0.2,0.6-0.2,1-0.2l1,0l0.4-5.7l-1-0.1c-1.1-0.1-2.4,0.1-3.6,0.6
			c-2,0.8-3.4,2.1-4,3.8c-0.7,1.7-0.6,3.6,0.2,5.5c0.9,2.2,2.4,3.7,5.6,5.5c2.4,1.3,3.5,2.1,4.1,3.5c0.1,0.2,0.1,0.5,0,0.7
			c-0.1,0.2-0.3,0.4-0.5,0.5c-0.6,0.3-1.2,0.3-1.6,0.3l-1.2-0.2l-0.4,6.1l1,0.2c0.4,0.1,0.7,0.1,1.1,0.1c1.1,0,2.2-0.2,3.4-0.7
			c2.8-1.2,4.5-3.3,4.8-5.9c0.4,0.5,0.9,0.9,1.4,1.3c1,0.7,2.1,1,3.3,1c0.6,0,1.2-0.1,1.8-0.2c1.9-0.5,3.3-1.6,4.1-3.1
			c0.1-0.2,0.1-0.3,0.2-0.5l0.9,7.4l6.5-0.8l-0.7-5.4c1.7-0.7,3.8-2.3,4.9-5.1c1.4,4.1,4.6,4.7,6.3,4.7c0.1,0,0.1,0,0.2,0
			c0.7,0,1.4-0.1,2-0.2l0.9-0.2l-0.1-5.8l-1.3,0.3c-0.2,0.1-0.5,0.1-0.8,0.1c1-0.5,2-1.2,2.9-2.3l-0.5,7.8l6.5,0.4l0-0.2l12.8,1.9
			l0.3-2.2c0.1,0.3,0.2,0.6,0.4,0.8c1.1,1.9,2.7,2.6,3.6,2.8c0.4,0.1,1,0.2,1.7,0.2c0.8,0,1.8-0.2,2.9-0.7c0.7-0.4,1.3-0.9,1.9-1.6
			c0,0.9,0.2,1.7,0.4,2.4c0.8,2,2.3,2.9,3.2,3.3c0.5,0.2,1.4,0.6,2.5,0.6c0.6,0,1.3-0.1,2-0.4c2.1-0.8,3.9-2.7,5.3-5.8
			C144.5,70.9,144.8,68.3,144,66.1z M83.7,62c0.1,0.3,0.1,0.6,0.2,1c0.1,0.5,0.1,0.9,0.1,1.3L83.7,62z M126.2,64.9
			c-0.1,0.5-0.2,1.2-0.5,2.2c-0.3,1-0.5,1.6-0.7,2.1c0.1-0.5,0.2-1.2,0.5-2.2C125.8,66.1,126,65.4,126.2,64.9z M137.9,69.2
			c-0.1,0.5-0.4,1.1-0.8,2.1c-0.4,0.9-0.8,1.5-1,1.9c0.1-0.5,0.4-1.1,0.8-2.1C137.3,70.2,137.7,69.6,137.9,69.2z"/>
	</g>
	<g>
		<g>
			<path class="st4" d="M145.7,69.1h1.3v0.2h-0.5v1.4h-0.2v-1.4h-0.5V69.1z"/>
		</g>
		<g>
			<path class="st4" d="M147.5,70.7v-1.6h0.3l0.5,1.4l0.5-1.4h0.3v1.6h-0.2v-0.9c0,0,0-0.1,0-0.2c0-0.1,0-0.2,0-0.2l-0.5,1.4h-0.2
				l-0.5-1.4v0c0,0,0,0.1,0,0.2c0,0.1,0,0.1,0,0.2v0.9H147.5z"/>
		</g>
	</g>
	<g>
		<g>
			<path class="st17" d="M57,58.5c-0.9,0.4-1.2,1.3-0.9,2.1c0.6,1.4,1.9,2.2,4.4,3.6c3,1.7,4.5,3,5.5,5.4c1.6,3.9-0.1,7.2-3.6,8.6
				c-1.4,0.6-2.6,0.8-3.9,0.6l0.2-3.9c0.6,0.1,1.4,0,2.2-0.3c1.1-0.4,1.6-1.5,1.1-2.7c-0.7-1.8-2.2-2.7-4.6-4.1
				c-2.9-1.6-4.3-2.9-5.1-5c-1.4-3.4-0.1-6.5,3.3-7.9c1.1-0.4,2.2-0.6,3.1-0.5l-0.2,3.7C57.9,58.2,57.5,58.3,57,58.5z"/>
			<path d="M59.4,79c-0.3,0-0.6,0-1-0.1l-0.2,0l0.3-4.3l0.2,0c0.6,0.1,1.4,0,2-0.3c0.5-0.2,0.8-0.5,1-1c0.2-0.4,0.2-0.9,0-1.4
				c-0.7-1.7-2.3-2.7-4.5-3.9c-3-1.7-4.4-3-5.2-5.1c-0.7-1.7-0.8-3.4-0.2-4.8c0.6-1.4,1.8-2.6,3.6-3.3c1-0.4,2.2-0.6,3.2-0.5l0.2,0
				l-0.3,4.1l-0.2,0c-0.4,0-0.8,0.1-1.3,0.3v0c-0.4,0.2-0.7,0.4-0.8,0.8c-0.1,0.3-0.1,0.7,0,1.1c0.6,1.3,1.8,2.1,4.3,3.5
				c3.2,1.8,4.6,3.2,5.6,5.5c1.6,3.8,0.1,7.3-3.7,8.9C61.4,78.8,60.4,79,59.4,79z M58.7,78.6c1.1,0.1,2.3-0.1,3.6-0.6
				c3.6-1.5,5-4.7,3.5-8.3c-0.9-2.3-2.3-3.6-5.4-5.3c-2.5-1.4-3.9-2.2-4.5-3.7c-0.2-0.5-0.2-0.9,0-1.4c0.2-0.4,0.5-0.8,1-1l0,0
				c0.5-0.2,0.9-0.3,1.3-0.3l0.2-3.3c-0.8-0.1-1.8,0.1-2.7,0.5c-1.6,0.7-2.8,1.7-3.3,3.1c-0.6,1.3-0.5,2.9,0.2,4.5
				c0.8,1.9,2.1,3.2,5,4.9c2.3,1.3,3.9,2.3,4.7,4.2c0.3,0.6,0.3,1.2,0,1.8c-0.2,0.5-0.7,0.9-1.3,1.2c-0.7,0.3-1.4,0.4-2,0.4
				L58.7,78.6z"/>
		</g>
		<g>
			<path class="st17" d="M66.8,69.1l-2.3-9l4.2-1.1l2.5,9.9c0.3,1.1,1,1.8,1.6,1.6c0.7-0.2,0.9-1.1,0.6-2.2l-2.5-9.9l4.2-1.1l2.3,9
				c1.1,4.5-0.6,7.1-3.6,7.9C70.7,75.1,68,73.6,66.8,69.1z"/>
			<path d="M72.3,74.7c-1,0-2-0.3-2.8-0.8c-1.3-0.9-2.3-2.5-2.9-4.7L64.3,60l4.6-1.2l2.6,10.1c0.1,0.5,0.3,0.9,0.6,1.2
				c0.2,0.2,0.4,0.4,0.7,0.3c0.3-0.1,0.5-0.4,0.5-0.6c0.1-0.4,0.1-0.8,0-1.3l-2.6-10.1l4.6-1.2l2.4,9.2c1.1,4.2-0.3,7.3-3.8,8.1
				C73.3,74.6,72.8,74.7,72.3,74.7z M64.8,60.3l2.2,8.8c0.5,2.1,1.4,3.6,2.7,4.4c1.1,0.8,2.5,1,4,0.6c3.2-0.8,4.5-3.6,3.5-7.6
				L75,57.7l-3.8,1l2.5,9.7c0.1,0.6,0.2,1.1,0,1.6c-0.1,0.5-0.4,0.8-0.8,0.9c-0.4,0.1-0.8,0-1.2-0.4c-0.3-0.3-0.6-0.8-0.7-1.4
				l-2.5-9.7L64.8,60.3z"/>
		</g>
		<g>
			<path class="st17" d="M77.6,57l4-0.5l0.1,0.9l0.9-1.2c0.1,0,0.4-0.1,0.4-0.1c2.9-0.4,5.7,1.5,6.3,6.5c0.8,6.7-3.7,9.1-5.5,9.5
				l0.7,5.2l-4.3,0.5L77.6,57z M83.4,68.4c1-0.3,2.1-1.9,1.6-5.5c-0.2-2-1.1-3.1-1.8-3.1c-0.4,0-0.7,0.5-0.8,0.8L83.4,68.4z"/>
			<path d="M80.1,78.2l-2.7-21.4l4.4-0.6l0.1,0.6l0.6-0.8l0.1,0c0.2-0.1,0.4-0.1,0.4-0.1c1.6-0.2,3,0.2,4.2,1.3
				c1.3,1.2,2.1,3,2.4,5.4c0.8,6.3-3.1,9.1-5.4,9.7l0.7,5.3L80.1,78.2z M77.9,57.2l2.6,20.5l3.8-0.5L83.6,72l0.2,0
				c2.2-0.5,6.1-3.1,5.3-9.3c-0.3-2.3-1.1-4-2.2-5.1c-1-1-2.4-1.4-3.8-1.2c-0.1,0-0.2,0-0.3,0.1l-1.1,1.5l-0.2-1.2L77.9,57.2z
				 M83.2,68.7l-1-8l0,0c0.1-0.4,0.5-1,1-1c0.5-0.1,0.9,0.2,1.3,0.9c0.4,0.6,0.6,1.4,0.8,2.4c0.5,3.7-0.7,5.4-1.8,5.8L83.2,68.7z
				 M82.7,60.6l0.9,7.4c0.7-0.4,1.7-1.9,1.2-5.2c-0.1-0.9-0.4-1.7-0.7-2.2c-0.3-0.5-0.6-0.7-0.9-0.7C83,60,82.7,60.3,82.7,60.6z"/>
		</g>
		<g>
			<path class="st17" d="M95,66.3c0.1,0.8,0.8,1.6,1.8,1.6c0.6,0,1-0.1,1.4-0.2l0.1,3.5c-0.4,0.1-1,0.2-1.7,0.2
				c-2.5,0.1-5.9-1.2-6-8c-0.1-6.7,2.9-8.1,5.2-8.2c2,0,4.6,1.3,4.7,4.9C100.3,64.4,96.2,66.2,95,66.3z M94.7,62.8
				c0.5,0,1.7-1.1,1.7-2.9c0-0.8-0.2-1.3-0.8-1.3c-0.7,0-1,1.3-0.9,3.1C94.6,62.2,94.6,62.5,94.7,62.8z"/>
			<path d="M96.3,71.6c-2.3,0-6-1.1-6.1-8.2c-0.2-7.2,3.3-8.3,5.4-8.4c1.2,0,2.3,0.4,3.2,1.1c1.1,0.9,1.6,2.3,1.7,4
				c0.1,4.2-3.8,6.1-5.2,6.3c0.2,0.6,0.7,1.2,1.5,1.2c0.6,0,0.9-0.1,1.3-0.1l0.3-0.1l0.1,3.9l-0.2,0c-0.5,0.1-1.1,0.2-1.8,0.2
				C96.4,71.6,96.3,71.6,96.3,71.6z M95.7,55.5C95.6,55.5,95.6,55.5,95.7,55.5c-2,0-5.2,1.1-5.1,7.9c0.1,2.9,0.9,7.9,5.8,7.8
				c0.6,0,1.1-0.1,1.5-0.1l-0.1-3c-0.3,0.1-0.7,0.1-1.2,0.1c0,0,0,0,0,0c-1.1,0-1.8-0.9-1.9-1.8l0-0.2l0.2,0
				c1.1-0.1,5.2-1.8,5.1-5.9c0-1.6-0.6-2.8-1.5-3.6C97.7,55.9,96.7,55.5,95.7,55.5z M94.5,63l0-0.2c0-0.3,0-0.7-0.1-1.1
				c0-1.5,0.1-3.3,1.2-3.3c0.3,0,0.6,0.1,0.8,0.4c0.1,0.2,0.2,0.6,0.2,1c0,0.8-0.2,1.6-0.7,2.2C95.5,62.7,95,63,94.7,63L94.5,63z
				 M95.6,58.9C95.6,58.9,95.6,58.9,95.6,58.9c-0.5,0-0.8,1.1-0.8,2.8c0,0.3,0,0.6,0,0.8c0.5-0.2,1.3-1.2,1.3-2.6
				c0-0.4-0.1-0.7-0.2-0.8C95.9,58.9,95.8,58.9,95.6,58.9z"/>
		</g>
		<g>
			<path class="st17" d="M108.5,59.7c-1.4-0.1-2.9,0.9-3,3.1l-0.5,8.7l-4.3-0.3l1-15.8l4,0.2l-0.1,1.5c0.3-0.4,1.3-1.5,3-1.4l0.4,0
				l-0.2,3.8L108.5,59.7z"/>
			<path d="M105.1,71.8l-4.7-0.3l1-16.3l4.5,0.3l-0.1,1.1c0.6-0.5,1.5-1,2.8-1l0.6,0l-0.3,4.3l-0.5,0c-1.3-0.1-2.7,0.8-2.8,2.9
				L105.1,71.8z M100.9,71.1l3.9,0.2l0.5-8.5c0.1-1.7,1.2-3.4,3.2-3.3l0.1,0l0.2-3.4l-0.2,0c-1.5-0.1-2.5,0.8-2.8,1.3l-0.4,0.7
				l0.1-2.1l-3.6-0.2L100.9,71.1z"/>
		</g>
		<g>
			<path class="st17" d="M114.9,52.6l-4.2-0.6l0.6-3.8l10.1,1.5l-7.7,18.9l4.8,0.7l-0.6,3.8l-10.6-1.6L114.9,52.6z"/>
			<path d="M118,73.4l-11.1-1.7l7.7-18.9l-4.1-0.6l0.6-4.2l10.5,1.6L114,68.5l4.7,0.7L118,73.4z M107.5,71.4l10.2,1.5l0.5-3.4
				l-4.8-0.7l7.7-18.9l-9.6-1.5l-0.5,3.4l4.2,0.6L107.5,71.4z"/>
		</g>
		<g>
			<path class="st17" d="M120.3,65.6c1.9-6.8,5.8-6.8,7.5-6.3c1.8,0.5,5.1,2.5,3.2,9.3c-1.9,6.8-5.8,6.8-7.5,6.3
				C121.7,74.3,118.4,72.3,120.3,65.6z M124.5,71.1c0.7,0.2,1.5-0.8,2.4-3.7c0.8-3,0.6-4.2-0.1-4.4c-0.7-0.2-1.5,0.8-2.4,3.7
				C123.6,69.7,123.8,71,124.5,71.1z"/>
			<path d="M124.8,75.2c-0.6,0-1.1-0.1-1.4-0.2c-1.3-0.4-5.4-2.1-3.3-9.5c0.8-3,2.2-5,3.9-6c1.6-0.9,3.1-0.6,3.9-0.4
				c1.3,0.4,5.4,2.1,3.3,9.5c-0.8,3-2.2,5-3.9,6C126.4,75.1,125.5,75.2,124.8,75.2z M126.4,59.3c-3.8,0-5.4,4.7-5.9,6.3
				c-0.5,1.8-1.8,7.7,3,9c0.5,0.1,1,0.2,1.4,0.2c3.8,0,5.4-4.7,5.9-6.3c0.5-1.8,1.8-7.7-3-9C127.3,59.3,126.8,59.3,126.4,59.3z
				 M124.6,71.4c-0.1,0-0.2,0-0.2,0c-0.9-0.3-1-1.8-0.2-4.7c0.4-1.4,0.8-2.5,1.3-3.1c0.5-0.8,1-0.9,1.4-0.8c0.3,0.1,0.7,0.4,0.8,1.4
				c0,0.8-0.1,1.9-0.5,3.3c-0.4,1.4-0.8,2.5-1.3,3.1C125.3,71.2,124.9,71.4,124.6,71.4z M126.6,63.2c-0.3,0-0.6,0.3-0.8,0.6
				c-0.4,0.6-0.8,1.6-1.2,3c-1,3.6-0.3,4.1-0.1,4.2c0.3,0.1,0.7-0.3,0.9-0.6c0.4-0.6,0.8-1.6,1.2-3c0.4-1.4,0.6-2.4,0.5-3.2
				c0-0.4-0.1-0.9-0.4-1C126.7,63.2,126.6,63.2,126.6,63.2z"/>
		</g>
		<g>
			<path class="st17" d="M132,68.9c2.9-6.4,6.7-5.8,8.4-5.1c1.7,0.8,4.6,3.3,1.7,9.7c-2.9,6.4-6.7,5.8-8.4,5.1
				C132,77.8,129,75.3,132,68.9z M135.3,75.1c0.6,0.3,1.6-0.5,2.9-3.3c1.3-2.8,1.3-4.1,0.6-4.4c-0.6-0.3-1.6,0.5-2.9,3.3
				C134.6,73.5,134.6,74.8,135.3,75.1z"/>
			<path d="M135.8,79.2c-0.9,0-1.7-0.3-2.2-0.5c-0.7-0.3-2-1.1-2.7-2.8c-0.7-1.9-0.4-4.3,0.9-7.1l0,0c1.3-2.8,2.9-4.6,4.8-5.3
				c1.7-0.6,3.2-0.2,3.9,0.2c0.7,0.3,2,1.1,2.7,2.8c0.7,1.9,0.4,4.3-0.9,7.1c-1.3,2.8-2.9,4.6-4.8,5.3
				C136.9,79.1,136.3,79.2,135.8,79.2z M132.1,69c-1.2,2.7-1.5,5-0.9,6.8c0.6,1.6,1.8,2.3,2.5,2.6c0.7,0.3,2,0.7,3.6,0.2
				c1.8-0.6,3.3-2.4,4.5-5.1c1.2-2.7,1.5-5,0.9-6.8c-0.6-1.6-1.8-2.3-2.5-2.6c-0.7-0.3-2-0.7-3.6-0.2
				C134.9,64.5,133.4,66.2,132.1,69L132.1,69z M135.5,75.3c-0.1,0-0.2,0-0.3-0.1l0,0l0,0c-0.3-0.1-0.6-0.5-0.5-1.5
				c0.1-0.8,0.4-1.9,1-3.2c0.6-1.3,1.2-2.3,1.7-2.9c0.7-0.7,1.2-0.7,1.5-0.6c0.3,0.1,0.6,0.5,0.5,1.5c-0.1,0.8-0.4,1.9-1,3.2
				c-0.6,1.3-1.2,2.3-1.7,2.9C136.2,75.2,135.8,75.3,135.5,75.3z M138.5,67.5c-0.3,0-0.6,0.3-0.8,0.5c-0.5,0.5-1.1,1.5-1.6,2.8
				c-0.6,1.3-0.9,2.3-1,3.1c0,0.4,0,0.9,0.3,1l0,0c0.3,0.1,0.7-0.2,1-0.5c0.5-0.5,1.1-1.5,1.6-2.8c0.6-1.3,0.9-2.3,1-3.1
				c0-0.4,0-0.9-0.3-1C138.6,67.5,138.6,67.5,138.5,67.5z"/>
		</g>
	</g>
</g>
</svg>
