<?xml version="1.0" encoding="utf-8"?>
<!-- Generator: Adobe Illustrator 21.1.0, SVG Export Plug-In . SVG Version: 6.00 Build 0)  -->
<svg version="1.1" id="Layer_1" xmlns="http://www.w3.org/2000/svg" xmlns:xlink="http://www.w3.org/1999/xlink" x="0px" y="0px"
	 viewBox="0 0 200 150" style="enable-background:new 0 0 200 150;" xml:space="preserve">
<style type="text/css">
	.st0{fill:none;}
	.st1{fill:#FFFFFF;}
</style>
<title>logos</title>
<g>
	<path d="M0,0v150h200V0C200,0,0,0,0,0z"/>
</g>
<path class="st0" d="M35,12.6h125.3V138H35V12.6z"/>
<path class="st1" d="M74.3,124.8c-17.1-8-29.3-24.6-31.2-44.3h-7.8C38,112.7,64.9,138,97.8,138l3.4-0.2l-19.9-19.9
	C81.3,117.9,74.3,124.8,74.3,124.8z M97.8,12.6l-3.4,0.2l19.9,19.9l6.9-6.9c17.1,8.1,29.3,24.6,31.1,44.3h7.8
	C157.4,37.9,130.6,12.6,97.8,12.6z M68.4,89.2c-0.7-0.6-1.3-1.6-1.3-2.7c0-1.9,1.7-3.6,3.6-3.6c1.1,0,1.8,0.4,2.4,0.9
	c1.9,1.7,4,2.5,6.7,2.5c2.8,0,4.8-1.6,4.8-4.1v-0.1c0-2.8-2.5-4.3-6.7-4.3h-1.2c-1.8,0-3.2-1.5-3.2-3.2c0-1,0.4-1.9,1.6-3.1l6.6-6.7
	H71.3c-1.8,0-3.2-1.5-3.2-3.2s1.5-3.2,3.2-3.2h16.6c2.2,0,3.8,1.3,3.8,3.3c0,1.9-0.9,2.9-2.2,4.2l-6.7,6.4c4.6,0.8,9.2,3.2,9.2,9.6
	V82c0,6.4-4.7,11.2-12.3,11.2C74.9,93,71.2,91.5,68.4,89.2z M96.4,62.1c0-2.1,1.7-3.8,3.8-3.8h9.6c10.7,0,18.1,7.4,18.1,17v0.1
	c0,9.6-7.4,17.1-18.1,17.1h-9.6c-2.1,0-3.8-1.7-3.8-3.8V62.1z M109.8,85.7c6.1,0,10.3-4.1,10.3-10.2v-0.1c0-6-4.1-10.3-10.3-10.3
	h-5.8v20.6C103.9,85.7,109.8,85.7,109.8,85.7z"/>
</svg>
