<?xml version="1.0" encoding="utf-8"?>
<!-- Generator: Adobe Illustrator 21.1.0, SVG Export Plug-In . SVG Version: 6.00 Build 0)  -->
<svg version="1.1" id="Layer_1" xmlns="http://www.w3.org/2000/svg" xmlns:xlink="http://www.w3.org/1999/xlink" x="0px" y="0px"
	 viewBox="0 0 200 150" style="enable-background:new 0 0 200 150;" xml:space="preserve">
<style type="text/css">
	.st0{fill:none;}
	.st1{fill:#FFFFFF;}
</style>
<rect x="-2.5" y="-3" width="205" height="155.5"/>
<title>logos</title>
<path class="st0" d="M35,12.6h125.3V138H35V12.6z"/>
<g>
	<path class="st1" d="M68.4,89.2c-0.7-0.6-1.3-1.6-1.3-2.7c0-1.9,1.7-3.6,3.6-3.6c1.1,0,1.8,0.4,2.4,0.9c1.9,1.7,4,2.5,6.7,2.5
		c2.8,0,4.8-1.6,4.8-4.1v-0.1c0-2.8-2.5-4.3-6.7-4.3h-1.2c-1.8,0-3.2-1.5-3.2-3.2c0-1,0.4-1.9,1.6-3.1l6.6-6.7H71.3
		c-1.8,0-3.2-1.5-3.2-3.2s1.5-3.2,3.2-3.2h16.6c2.2,0,3.8,1.3,3.8,3.3c0,1.9-0.9,2.9-2.2,4.2l-6.7,6.4c4.6,0.8,9.2,3.2,9.2,9.6V82
		c0,6.4-4.7,11.2-12.3,11.2C74.9,93,71.2,91.5,68.4,89.2z M96.4,62.1c0-2.1,1.7-3.8,3.8-3.8h9.6c10.7,0,18.1,7.4,18.1,17v0.1
		c0,9.6-7.4,17.1-18.1,17.1h-9.6c-2.1,0-3.8-1.7-3.8-3.8V62.1z M109.8,85.7c6.1,0,10.3-4.1,10.3-10.2v-0.1c0-6-4.1-10.3-10.3-10.3
		H104v20.6C103.9,85.7,109.8,85.7,109.8,85.7z"/>
	<path class="st1" d="M159.7,69.4c-2.8-31.9-29.6-56.9-62.2-56.9c-1.1,0-2.1,0-3.2,0.1l20,20.1l7.6-7.5
		c16.8,8.3,28.8,24.7,30.8,44.2H159.7z"/>
	<path class="st1" d="M159.7,69.4c-2.8-31.9-29.6-56.9-62.2-56.9c-1.1,0-2.1,0-3.2,0.1l20,20.1l7.6-7.5
		c16.8,8.3,28.8,24.7,30.8,44.2H159.7z"/>
	<path class="st1" d="M35.3,80.5c2.8,31.9,29.6,56.9,62.2,56.9c1.1,0,2.1,0,3.2-0.1l-20-20.1l-7.6,7.5
		c-16.8-8.3-28.8-24.7-30.8-44.2H35.3z"/>
</g>
</svg>
