<?xml version="1.0" encoding="utf-8"?>
<!-- Generator: Adobe Illustrator 21.0.2, SVG Export Plug-In . SVG Version: 6.00 Build 0)  -->
<svg version="1.1" id="Layer_1" xmlns="http://www.w3.org/2000/svg" xmlns:xlink="http://www.w3.org/1999/xlink" x="0px" y="0px"
	 viewBox="0 0 100 100" style="enable-background:new 0 0 100 100;" xml:space="preserve">
<style type="text/css">
	.st0{fill:#EEE81A;}
</style>
<g>
	<path class="st0" d="M84.4,91.6c-1.8,0-3.6-0.7-5-2L11.1,21.2c-2.7-2.7-2.7-7.2,0-9.9c2.7-2.7,7.2-2.7,9.9,0l68.4,68.4
		c2.7,2.7,2.7,7.2,0,9.9C88,90.9,86.2,91.6,84.4,91.6z"/>
</g>
<g>
	<path class="st0" d="M16,91.6c-1.8,0-3.6-0.7-4.9-2c-2.7-2.7-2.7-7.2,0-9.9l68.4-68.4c2.7-2.7,7.2-2.7,9.9,0c2.7,2.7,2.7,7.2,0,9.9
		L20.9,89.6C19.6,90.9,17.8,91.6,16,91.6z"/>
</g>
</svg>
