<?xml version="1.0" encoding="utf-8"?>
<!-- Generator: Adobe Illustrator 21.0.2, SVG Export Plug-In . SVG Version: 6.00 Build 0)  -->
<svg version="1.1" id="Layer_1" xmlns="http://www.w3.org/2000/svg" xmlns:xlink="http://www.w3.org/1999/xlink" x="0px" y="0px"
	 viewBox="0 0 100 100" style="enable-background:new 0 0 100 100;" xml:space="preserve">
<style type="text/css">
	.st0{fill:#F9EC00;}
	.st1{fill:#EC3092;}
	.st2{fill:#434343;}
</style>
<title>logos</title>
<g>
	<polygon class="st0" points="38.7,1 4.5,25.6 4.5,85.4 62.7,99 95.5,74.7 95.5,14.8 	"/>
	<g>
		<g>
			<g>
				<path class="st1" d="M16.3,49.9c0-1.2,0.9-2.2,2.2-2.2H26c5.7,0,9.3,3.3,9.3,8.2V56c0,5.5-4.4,8.4-9.8,8.4h-4.9v5.9
					c0,1.2-0.9,2.1-2.1,2.1c-1.2,0-2.2-0.9-2.2-2.1V49.9z M25.6,60.5c3.3,0,5.3-1.8,5.3-4.4v-0.1c0-2.9-2.1-4.4-5.3-4.4h-5v8.8H25.6
					z"/>
				<path class="st1" d="M39.7,49.9c0-1.2,0.9-2.2,2.2-2.2h7c7.7,0,13,5.3,13,12.2V60c0,6.9-5.3,12.3-13,12.3h-7
					c-1.2,0-2.2-0.9-2.2-2.2V49.9z M48.8,68.3c5.1,0,8.5-3.5,8.5-8.3V60c0-4.8-3.4-8.3-8.5-8.3H44v16.7H48.8z"/>
				<path class="st1" d="M67,49.9c0-1.2,0.9-2.2,2.2-2.2h14.3c1.1,0,2,0.9,2,2c0,1.1-0.9,2-2,2H71.4v6.7h10.6c1.1,0,2,0.9,2,2
					c0,1.1-0.9,2-2,2H71.4v8c0,1.2-0.9,2.1-2.1,2.1c-1.2,0-2.2-0.9-2.2-2.1V49.9z"/>
			</g>
		</g>
		<g>
			<g>
				<path class="st2" d="M16.3,47.5c0-1.2,0.9-2.2,2.2-2.2H26c5.7,0,9.3,3.3,9.3,8.2v0.1c0,5.5-4.4,8.4-9.8,8.4h-4.9v5.9
					c0,1.2-0.9,2.1-2.1,2.1c-1.2,0-2.2-0.9-2.2-2.1V47.5z M25.6,58.1c3.3,0,5.3-1.8,5.3-4.4v-0.1c0-2.9-2.1-4.4-5.3-4.4h-5v8.8H25.6
					z"/>
				<path class="st2" d="M39.7,47.5c0-1.2,0.9-2.2,2.2-2.2h7c7.7,0,13,5.3,13,12.2v0.1c0,6.9-5.3,12.3-13,12.3h-7
					c-1.2,0-2.2-0.9-2.2-2.2V47.5z M48.8,65.9c5.1,0,8.5-3.5,8.5-8.3v-0.1c0-4.8-3.4-8.3-8.5-8.3H44v16.7H48.8z"/>
				<path class="st2" d="M67,47.5c0-1.2,0.9-2.2,2.2-2.2h14.3c1.1,0,2,0.9,2,2c0,1.1-0.9,2-2,2H71.4V56h10.6c1.1,0,2,0.9,2,2
					c0,1.1-0.9,2-2,2H71.4v8c0,1.2-0.9,2.1-2.1,2.1C68,70,67,69.1,67,67.9V47.5z"/>
			</g>
		</g>
	</g>
	<g>
		<g>
			<g>
				<path class="st1" d="M23.5,40.4c0,0.5-0.4,0.9-0.9,0.9c-0.5,0-0.9-0.4-0.9-0.9V40c-0.6,0.8-1.3,1.4-2.6,1.4
					c-1.8,0-3.5-1.4-3.5-3.9v0c0-2.5,1.7-3.9,3.5-3.9c1.2,0,2,0.6,2.6,1.3v-3.3c0-0.5,0.4-0.9,0.9-0.9c0.5,0,0.9,0.4,0.9,0.9V40.4z
					 M17.4,37.4L17.4,37.4c0,1.5,1,2.5,2.2,2.5c1.2,0,2.2-1,2.2-2.4v0c0-1.5-1-2.4-2.2-2.4C18.4,35,17.4,35.9,17.4,37.4z"/>
				<path class="st1" d="M25.3,37.5L25.3,37.5c0-2.2,1.7-4,4-4s4,1.8,4,3.9v0c0,2.2-1.7,3.9-4.1,3.9C27,41.4,25.3,39.6,25.3,37.5z
					 M31.6,37.5L31.6,37.5c0-1.4-1-2.5-2.3-2.5c-1.4,0-2.3,1.1-2.3,2.4v0c0,1.3,1,2.4,2.3,2.4C30.7,39.9,31.6,38.8,31.6,37.5z"/>
				<path class="st1" d="M36.4,40.6l-2-5.8c0-0.1-0.1-0.3-0.1-0.4c0-0.4,0.3-0.8,0.8-0.8c0.4,0,0.7,0.3,0.8,0.7l1.5,4.6l1.5-4.6
					c0.1-0.4,0.4-0.7,0.9-0.7h0.1c0.4,0,0.8,0.3,0.9,0.7l1.5,4.6l1.5-4.6c0.1-0.4,0.4-0.7,0.8-0.7c0.5,0,0.8,0.4,0.8,0.8
					c0,0.1,0,0.3-0.1,0.4l-2.1,5.8c-0.2,0.5-0.5,0.8-1,0.8h-0.1c-0.4,0-0.8-0.2-0.9-0.7l-1.5-4.5l-1.5,4.5c-0.2,0.5-0.5,0.7-0.9,0.7
					h-0.1C37,41.4,36.6,41.1,36.4,40.6z"/>
				<path class="st1" d="M47.1,34.4c0-0.5,0.4-0.9,0.9-0.9s0.9,0.4,0.9,0.9v0.4c0.5-0.7,1.2-1.3,2.4-1.3c1.7,0,2.7,1.1,2.7,2.9v4
					c0,0.5-0.4,0.9-0.9,0.9s-0.9-0.4-0.9-0.9v-3.5c0-1.2-0.6-1.8-1.6-1.8c-1,0-1.7,0.7-1.7,1.9v3.5c0,0.5-0.4,0.9-0.9,0.9
					c-0.5,0-0.9-0.4-0.9-0.9V34.4z"/>
				<path class="st1" d="M56.1,31.6c0-0.5,0.4-0.9,0.9-0.9c0.5,0,0.9,0.4,0.9,0.9v8.9c0,0.5-0.4,0.9-0.9,0.9c-0.5,0-0.9-0.4-0.9-0.9
					V31.6z"/>
				<path class="st1" d="M59.7,37.5L59.7,37.5c0-2.2,1.7-4,4-4s4,1.8,4,3.9v0c0,2.2-1.7,3.9-4.1,3.9C61.4,41.4,59.7,39.6,59.7,37.5z
					 M66,37.5L66,37.5c0-1.4-1-2.5-2.3-2.5c-1.4,0-2.3,1.1-2.3,2.4v0c0,1.3,1,2.4,2.3,2.4C65.1,39.9,66,38.8,66,37.5z"/>
				<path class="st1" d="M69,39.1L69,39.1c0-1.7,1.3-2.5,3.1-2.5c0.8,0,1.4,0.1,2,0.3v-0.2c0-1.1-0.7-1.6-1.9-1.6
					c-0.7,0-1.2,0.1-1.7,0.3c-0.1,0-0.2,0-0.3,0c-0.4,0-0.7-0.3-0.7-0.7c0-0.3,0.2-0.6,0.5-0.7c0.7-0.3,1.4-0.4,2.4-0.4
					c1.1,0,2,0.3,2.5,0.8c0.6,0.5,0.8,1.3,0.8,2.3v3.7c0,0.5-0.4,0.8-0.8,0.8c-0.5,0-0.8-0.3-0.8-0.7v-0.3c-0.5,0.6-1.3,1.1-2.5,1.1
					C70.3,41.4,69,40.6,69,39.1z M74.2,38.5V38c-0.4-0.2-1-0.3-1.7-0.3c-1.1,0-1.8,0.5-1.8,1.3v0c0,0.7,0.6,1.1,1.5,1.1
					C73.3,40.1,74.2,39.5,74.2,38.5z"/>
				<path class="st1" d="M85.4,40.4c0,0.5-0.4,0.9-0.9,0.9c-0.5,0-0.9-0.4-0.9-0.9V40c-0.6,0.8-1.3,1.4-2.6,1.4
					c-1.8,0-3.5-1.4-3.5-3.9v0c0-2.5,1.7-3.9,3.5-3.9c1.2,0,2,0.6,2.6,1.3v-3.3c0-0.5,0.4-0.9,0.9-0.9c0.5,0,0.9,0.4,0.9,0.9V40.4z
					 M79.3,37.4L79.3,37.4c0,1.5,1,2.5,2.2,2.5c1.2,0,2.2-1,2.2-2.4v0c0-1.5-1-2.4-2.2-2.4C80.3,35,79.3,35.9,79.3,37.4z"/>
			</g>
		</g>
		<g>
			<g>
				<path class="st2" d="M23.5,39.9c0,0.5-0.4,0.9-0.9,0.9c-0.5,0-0.9-0.4-0.9-0.9v-0.5c-0.6,0.8-1.3,1.4-2.6,1.4
					c-1.8,0-3.5-1.4-3.5-3.9v0c0-2.5,1.7-3.9,3.5-3.9c1.2,0,2,0.6,2.6,1.3V31c0-0.5,0.4-0.9,0.9-0.9c0.5,0,0.9,0.4,0.9,0.9V39.9z
					 M17.4,36.9L17.4,36.9c0,1.5,1,2.5,2.2,2.5c1.2,0,2.2-1,2.2-2.4v0c0-1.5-1-2.4-2.2-2.4C18.4,34.4,17.4,35.4,17.4,36.9z"/>
				<path class="st2" d="M25.3,36.9L25.3,36.9c0-2.2,1.7-4,4-4s4,1.8,4,3.9v0c0,2.2-1.7,3.9-4.1,3.9C27,40.8,25.3,39.1,25.3,36.9z
					 M31.6,36.9L31.6,36.9c0-1.4-1-2.5-2.3-2.5c-1.4,0-2.3,1.1-2.3,2.4v0c0,1.3,1,2.4,2.3,2.4C30.7,39.3,31.6,38.2,31.6,36.9z"/>
				<path class="st2" d="M36.4,40l-2-5.8c0-0.1-0.1-0.3-0.1-0.4c0-0.4,0.3-0.8,0.8-0.8c0.4,0,0.7,0.3,0.8,0.7l1.5,4.6l1.5-4.6
					c0.1-0.4,0.4-0.7,0.9-0.7h0.1c0.4,0,0.8,0.3,0.9,0.7l1.5,4.6l1.5-4.6c0.1-0.4,0.4-0.7,0.8-0.7c0.5,0,0.8,0.4,0.8,0.8
					c0,0.1,0,0.3-0.1,0.4L43.3,40c-0.2,0.5-0.5,0.8-1,0.8h-0.1c-0.4,0-0.8-0.2-0.9-0.7l-1.5-4.5L38.4,40c-0.2,0.5-0.5,0.7-0.9,0.7
					h-0.1C37,40.8,36.6,40.5,36.4,40z"/>
				<path class="st2" d="M47.1,33.9c0-0.5,0.4-0.9,0.9-0.9s0.9,0.4,0.9,0.9v0.4c0.5-0.7,1.2-1.3,2.4-1.3c1.7,0,2.7,1.1,2.7,2.9v4
					c0,0.5-0.4,0.9-0.9,0.9s-0.9-0.4-0.9-0.9v-3.5c0-1.2-0.6-1.8-1.6-1.8c-1,0-1.7,0.7-1.7,1.9v3.5c0,0.5-0.4,0.9-0.9,0.9
					c-0.5,0-0.9-0.4-0.9-0.9V33.9z"/>
				<path class="st2" d="M56.1,31c0-0.5,0.4-0.9,0.9-0.9c0.5,0,0.9,0.4,0.9,0.9v8.9c0,0.5-0.4,0.9-0.9,0.9c-0.5,0-0.9-0.4-0.9-0.9
					V31z"/>
				<path class="st2" d="M59.7,36.9L59.7,36.9c0-2.2,1.7-4,4-4s4,1.8,4,3.9v0c0,2.2-1.7,3.9-4.1,3.9C61.4,40.8,59.7,39.1,59.7,36.9z
					 M66,36.9L66,36.9c0-1.4-1-2.5-2.3-2.5c-1.4,0-2.3,1.1-2.3,2.4v0c0,1.3,1,2.4,2.3,2.4C65.1,39.3,66,38.2,66,36.9z"/>
				<path class="st2" d="M69,38.5L69,38.5c0-1.7,1.3-2.5,3.1-2.5c0.8,0,1.4,0.1,2,0.3v-0.2c0-1.1-0.7-1.6-1.9-1.6
					c-0.7,0-1.2,0.1-1.7,0.3c-0.1,0-0.2,0-0.3,0c-0.4,0-0.7-0.3-0.7-0.7c0-0.3,0.2-0.6,0.5-0.7c0.7-0.3,1.4-0.4,2.4-0.4
					c1.1,0,2,0.3,2.5,0.8c0.6,0.5,0.8,1.3,0.8,2.3v3.7c0,0.5-0.4,0.8-0.8,0.8c-0.5,0-0.8-0.3-0.8-0.7v-0.3c-0.5,0.6-1.3,1.1-2.5,1.1
					C70.3,40.8,69,40,69,38.5z M74.2,37.9v-0.5c-0.4-0.2-1-0.3-1.7-0.3c-1.1,0-1.8,0.5-1.8,1.3v0c0,0.7,0.6,1.1,1.5,1.1
					C73.3,39.6,74.2,38.9,74.2,37.9z"/>
				<path class="st2" d="M85.4,39.9c0,0.5-0.4,0.9-0.9,0.9c-0.5,0-0.9-0.4-0.9-0.9v-0.5c-0.6,0.8-1.3,1.4-2.6,1.4
					c-1.8,0-3.5-1.4-3.5-3.9v0c0-2.5,1.7-3.9,3.5-3.9c1.2,0,2,0.6,2.6,1.3V31c0-0.5,0.4-0.9,0.9-0.9c0.5,0,0.9,0.4,0.9,0.9V39.9z
					 M79.3,36.9L79.3,36.9c0,1.5,1,2.5,2.2,2.5c1.2,0,2.2-1,2.2-2.4v0c0-1.5-1-2.4-2.2-2.4C80.3,34.4,79.3,35.4,79.3,36.9z"/>
			</g>
		</g>
	</g>
</g>
</svg>
