<?xml version="1.0" encoding="utf-8"?>
<!-- Generator: Adobe Illustrator 21.0.2, SVG Export Plug-In . SVG Version: 6.00 Build 0)  -->
<svg version="1.1" id="Layer_1" xmlns="http://www.w3.org/2000/svg" xmlns:xlink="http://www.w3.org/1999/xlink" x="0px" y="0px"
	 viewBox="0 0 100 100" style="enable-background:new 0 0 100 100;" xml:space="preserve">
<style type="text/css">
	.st0{fill:#EC3092;}
</style>
<title>logos</title>
<g>
	<polygon class="st0" points="39.2,0.6 4.8,25.4 4.8,85.7 63.4,99.4 96.4,74.9 96.4,14.6 	"/>
</g>
<g>
	<path d="M18.2,47.2c0,0.6-0.5,1-1,1c-0.6,0-1-0.4-1-1v-0.6c-0.7,0.9-1.6,1.7-3.1,1.7c-2.1,0-4.2-1.7-4.2-4.7v0c0-3,2-4.7,4.2-4.7
		c1.5,0,2.4,0.7,3.1,1.6v-3.9c0-0.6,0.5-1,1-1c0.6,0,1,0.4,1,1V47.2z M10.9,43.6L10.9,43.6c0,1.8,1.2,2.9,2.6,2.9
		c1.4,0,2.6-1.2,2.6-2.9v0c0-1.7-1.2-2.9-2.6-2.9C12.1,40.7,10.9,41.8,10.9,43.6z"/>
	<path d="M20.3,43.7L20.3,43.7c0-2.6,2.1-4.8,4.8-4.8S30,41,30,43.6v0c0,2.6-2.1,4.7-4.9,4.7C22.4,48.3,20.3,46.2,20.3,43.7z
		 M27.9,43.7L27.9,43.7c0-1.6-1.1-2.9-2.8-2.9c-1.7,0-2.7,1.3-2.7,2.9v0c0,1.6,1.1,2.9,2.8,2.9C26.8,46.5,27.9,45.2,27.9,43.7z"/>
	<path d="M33.7,47.4l-2.4-6.9c-0.1-0.1-0.1-0.4-0.1-0.5c0-0.5,0.4-1,1-1c0.5,0,0.9,0.3,1,0.8l1.7,5.5l1.8-5.5
		c0.2-0.5,0.5-0.8,1.1-0.8h0.1c0.5,0,0.9,0.3,1.1,0.8l1.8,5.5l1.8-5.5c0.1-0.4,0.5-0.8,1-0.8c0.6,0,1,0.4,1,1c0,0.2-0.1,0.4-0.1,0.5
		l-2.5,7c-0.2,0.6-0.7,0.9-1.1,0.9h-0.1c-0.5,0-0.9-0.3-1.1-0.9L37.8,42L36,47.4c-0.2,0.6-0.6,0.9-1.1,0.9h-0.1
		C34.3,48.3,33.9,48,33.7,47.4z"/>
	<path d="M46.4,40c0-0.6,0.4-1,1-1s1,0.5,1,1v0.4c0.6-0.8,1.4-1.6,2.8-1.6c2,0,3.2,1.4,3.2,3.5v4.8c0,0.6-0.4,1-1,1s-1-0.4-1-1V43
		c0-1.4-0.7-2.2-1.9-2.2c-1.2,0-2,0.8-2,2.2v4.2c0,0.6-0.5,1-1,1c-0.6,0-1-0.4-1-1V40z"/>
	<path d="M57.2,36.6c0-0.6,0.4-1,1-1c0.6,0,1,0.5,1,1v10.6c0,0.6-0.5,1-1,1c-0.6,0-1-0.4-1-1V36.6z"/>
	<path d="M61.5,43.7L61.5,43.7c0-2.6,2.1-4.8,4.8-4.8s4.8,2.1,4.8,4.7v0c0,2.6-2.1,4.7-4.9,4.7C63.5,48.3,61.5,46.2,61.5,43.7z
		 M69,43.7L69,43.7c0-1.6-1.1-2.9-2.8-2.9c-1.7,0-2.7,1.3-2.7,2.9v0c0,1.6,1.1,2.9,2.8,2.9C68,46.5,69,45.2,69,43.7z"/>
	<path d="M72.6,45.5L72.6,45.5c0-2,1.5-3,3.7-3c1,0,1.7,0.2,2.4,0.4v-0.2c0-1.3-0.8-2-2.2-2c-0.8,0-1.4,0.1-2,0.4
		c-0.1,0-0.2,0.1-0.3,0.1c-0.5,0-0.9-0.4-0.9-0.9c0-0.4,0.3-0.7,0.6-0.8c0.9-0.3,1.7-0.5,2.9-0.5c1.4,0,2.4,0.4,3,1
		c0.7,0.7,1,1.6,1,2.8v4.5c0,0.6-0.4,1-1,1c-0.6,0-1-0.4-1-0.9V47c-0.6,0.7-1.6,1.3-3,1.3C74.1,48.3,72.6,47.3,72.6,45.5z
		 M78.8,44.9v-0.6c-0.5-0.2-1.2-0.4-2.1-0.4c-1.3,0-2.1,0.6-2.1,1.5v0c0,0.9,0.8,1.4,1.8,1.4C77.8,46.8,78.8,46,78.8,44.9z"/>
	<path d="M92.2,47.2c0,0.6-0.5,1-1,1c-0.6,0-1-0.4-1-1v-0.6c-0.7,0.9-1.6,1.7-3.1,1.7c-2.1,0-4.2-1.7-4.2-4.7v0c0-3,2-4.7,4.2-4.7
		c1.5,0,2.4,0.7,3.1,1.6v-3.9c0-0.6,0.5-1,1-1c0.6,0,1,0.4,1,1V47.2z M84.9,43.6L84.9,43.6c0,1.8,1.2,2.9,2.6,2.9
		c1.4,0,2.6-1.2,2.6-2.9v0c0-1.7-1.2-2.9-2.6-2.9C86.1,40.7,84.9,41.8,84.9,43.6z"/>
</g>
<g>
	<path d="M9.3,58.1c0-0.6,0.4-1,1-1s1,0.5,1,1v0.6C12,57.7,13,57,14.5,57c2.1,0,4.2,1.7,4.2,4.7v0c0,3-2.1,4.7-4.2,4.7
		c-1.5,0-2.5-0.8-3.1-1.6V68c0,0.6-0.5,1-1,1c-0.6,0-1-0.4-1-1V58.1z M16.6,61.7L16.6,61.7c0-1.8-1.2-2.9-2.6-2.9
		c-1.4,0-2.6,1.2-2.6,2.9v0c0,1.7,1.2,2.9,2.6,2.9C15.4,64.6,16.6,63.5,16.6,61.7z"/>
	<path d="M29.7,65.3c0,0.6-0.5,1-1,1c-0.6,0-1-0.4-1-1v-0.6c-0.7,0.9-1.6,1.7-3.1,1.7c-2.1,0-4.2-1.7-4.2-4.7v0c0-3,2-4.7,4.2-4.7
		c1.5,0,2.4,0.7,3.1,1.6v-3.9c0-0.6,0.5-1,1-1c0.6,0,1,0.4,1,1V65.3z M22.4,61.7L22.4,61.7c0,1.8,1.2,2.9,2.6,2.9
		c1.4,0,2.6-1.2,2.6-2.9v0c0-1.8-1.2-2.9-2.6-2.9C23.6,58.8,22.4,59.9,22.4,61.7z"/>
	<path d="M32.8,59h-0.4c-0.5,0-0.9-0.4-0.9-0.9s0.4-0.9,0.9-0.9h0.4v-0.7c0-1,0.3-1.7,0.7-2.2c0.5-0.5,1.1-0.7,2-0.7
		c0.4,0,0.8,0,1,0.1c0.4,0.1,0.7,0.4,0.7,0.9c0,0.5-0.4,0.9-0.9,0.9c-0.1,0-0.3,0-0.4,0c-0.8,0-1.2,0.4-1.2,1.4v0.5h1.6
		c0.5,0,0.9,0.4,0.9,0.9S36.9,59,36.4,59h-1.6v6.3c0,0.6-0.5,1-1,1c-0.6,0-1-0.5-1-1V59z"/>
</g>
<g>
	<path d="M43.3,60v-5.5c0-0.3,0.3-0.4,0.5-0.3l4.8,2.8l4.8,2.8c0.2,0.1,0.2,0.4,0,0.6l-4.8,2.8l-4.8,2.8c-0.2,0.1-0.5,0-0.5-0.3V60z
		"/>
</g>
</svg>
