<?xml version="1.0" encoding="utf-8"?>
<!-- Generator: Adobe Illustrator 21.0.2, SVG Export Plug-In . SVG Version: 6.00 Build 0)  -->
<svg version="1.1" id="Layer_1" xmlns="http://www.w3.org/2000/svg" xmlns:xlink="http://www.w3.org/1999/xlink" x="0px" y="0px"
	 viewBox="0 0 100 100" style="enable-background:new 0 0 100 100;" xml:space="preserve">
<style type="text/css">
	.st0{fill:#EC3092;}
	.st1{fill:#EEE81A;}
	.st2{fill:#FFFFFF;}
</style>
<title>logos</title>
<path class="st0" d="M95.1,14.7L38.8,1.2L5,25.5H4.7v60l58.1,13.4h0.2l32.4-24.2L95.1,14.7z"/>
<g>
	<path class="st1" d="M30.9,85.9c0,0.9-0.7,1.6-1.6,1.6c-0.9,0-1.6-0.7-1.6-1.6v-3.5c-0.8,1.1-1.9,1.8-3.5,1.8
		c-2.6,0-5.2-2.1-5.2-5.9v0c0-3.8,2.5-5.9,5.2-5.9c1.7,0,2.8,0.8,3.5,1.7v0c0-0.9,0.7-1.6,1.6-1.6c0.9,0,1.6,0.7,1.6,1.6V85.9z
		 M22.2,78.3L22.2,78.3c0,1.9,1.3,3.2,2.8,3.2c1.5,0,2.8-1.3,2.8-3.1v0c0-1.9-1.2-3.1-2.8-3.1C23.4,75.1,22.2,76.4,22.2,78.3z"/>
	<path class="st1" d="M44.1,82.5c0,0.9-0.7,1.6-1.6,1.6c-0.9,0-1.6-0.7-1.6-1.6v-0.1c-0.7,1-1.7,1.8-3.3,1.8c-2.4,0-3.9-1.6-3.9-4.2
		v-5.9c0-0.9,0.7-1.6,1.6-1.6c0.9,0,1.6,0.7,1.6,1.6V79c0,1.5,0.7,2.3,1.9,2.3c1.2,0,2-0.8,2-2.3v-4.9c0-0.9,0.7-1.6,1.6-1.6
		c0.9,0,1.6,0.7,1.6,1.6V82.5z"/>
	<path class="st1" d="M46.4,78.4L46.4,78.4c0-3.3,2.6-6,6.2-6c3.5,0,6.1,2.6,6.1,5.9v0c0,3.3-2.6,5.9-6.2,5.9
		C49,84.2,46.4,81.6,46.4,78.4z M55.5,78.4L55.5,78.4c0-1.7-1.2-3.2-3-3.2c-1.8,0-2.9,1.4-2.9,3.1v0c0,1.7,1.2,3.1,3,3.1
		C54.4,81.5,55.5,80,55.5,78.4z"/>
	<path class="st1" d="M61.5,80.8v-5.4h-0.1c-0.8,0-1.4-0.6-1.4-1.4c0-0.8,0.6-1.4,1.4-1.4h0.1v-1.4c0-0.9,0.7-1.6,1.6-1.6
		c0.9,0,1.6,0.7,1.6,1.6v1.4h1.4c0.8,0,1.4,0.6,1.4,1.4c0,0.8-0.6,1.4-1.4,1.4h-1.4v4.9c0,0.7,0.3,1.1,1,1.1c0.1,0,0.3,0,0.4,0
		c0.7,0,1.3,0.6,1.3,1.3c0,0.6-0.4,1-0.8,1.2c-0.6,0.2-1.1,0.3-1.8,0.3C62.9,84.2,61.5,83.4,61.5,80.8z"/>
	<path class="st1" d="M74.8,84.2c-3.4,0-5.9-2.4-5.9-5.9v0c0-3.2,2.3-5.9,5.6-5.9c3.8,0,5.5,3.1,5.5,5.5c0,0.9-0.7,1.5-1.5,1.5h-6.4
		c0.3,1.5,1.3,2.2,2.8,2.2c0.9,0,1.6-0.3,2.3-0.8c0.2-0.2,0.4-0.3,0.8-0.3c0.7,0,1.2,0.6,1.2,1.3c0,0.4-0.2,0.7-0.4,1
		C77.8,83.7,76.5,84.2,74.8,84.2z M76.9,77.4c-0.2-1.4-1-2.4-2.4-2.4c-1.3,0-2.2,1-2.5,2.4H76.9z"/>
</g>
<g>
	<path class="st2" d="M24.1,18.9L24.1,18.9c0-4.3,3.3-7.7,7.8-7.7c2.2,0,3.7,0.5,5.1,1.4c0.3,0.2,0.7,0.7,0.7,1.3
		c0,0.9-0.7,1.6-1.6,1.6c-0.5,0-0.8-0.2-1-0.3c-0.9-0.6-1.8-1-3.2-1c-2.4,0-4.3,2.1-4.3,4.6v0c0,2.7,1.9,4.7,4.5,4.7
		c1.2,0,2.2-0.3,3.1-0.9v-2.1h-2.2c-0.8,0-1.4-0.6-1.4-1.4c0-0.8,0.6-1.4,1.4-1.4h3.7c0.9,0,1.6,0.7,1.6,1.6V23c0,1-0.4,1.6-1.1,2.1
		c-1.2,0.7-3,1.5-5.2,1.5C27.3,26.6,24.1,23.3,24.1,18.9z"/>
	<path class="st2" d="M46.4,26.6c-3.4,0-5.9-2.4-5.9-5.9v0c0-3.2,2.3-5.9,5.6-5.9c3.8,0,5.5,3.1,5.5,5.5c0,0.9-0.7,1.5-1.5,1.5h-6.4
		C44,23.2,45,24,46.5,24c0.9,0,1.6-0.3,2.3-0.8c0.2-0.2,0.4-0.3,0.8-0.3c0.7,0,1.3,0.6,1.3,1.3c0,0.4-0.2,0.7-0.4,1
		C49.4,26,48.1,26.6,46.4,26.6z M48.5,19.7c-0.2-1.4-1-2.4-2.4-2.4c-1.3,0-2.2,1-2.5,2.4H48.5z"/>
	<path class="st2" d="M54.6,23.1v-5.4h-0.1c-0.8,0-1.4-0.6-1.4-1.4c0-0.8,0.6-1.4,1.4-1.4h0.1v-1.4c0-0.9,0.7-1.6,1.6-1.6
		c0.9,0,1.6,0.7,1.6,1.6V15h1.4c0.8,0,1.4,0.6,1.4,1.4c0,0.8-0.6,1.4-1.4,1.4h-1.4v4.9c0,0.7,0.3,1.1,1,1.1c0.1,0,0.3,0,0.4,0
		c0.7,0,1.3,0.6,1.3,1.3c0,0.6-0.4,1-0.8,1.2c-0.6,0.2-1.1,0.3-1.8,0.3C55.9,26.5,54.6,25.7,54.6,23.1z"/>
	<path class="st2" d="M66.4,23.1L66.4,23.1c0-2.5,1.9-3.7,4.6-3.7c1.1,0,2,0.2,2.8,0.5v-0.2c0-1.3-0.8-2.1-2.4-2.1
		c-0.9,0-1.6,0.1-2.2,0.3C68.9,18,68.8,18,68.6,18c-0.7,0-1.3-0.6-1.3-1.3c0-0.6,0.4-1.1,0.9-1.2c1-0.4,2.1-0.6,3.6-0.6
		c1.8,0,3,0.5,3.8,1.3c0.8,0.8,1.2,2.1,1.2,3.6v5.2c0,0.9-0.7,1.5-1.6,1.5c-0.9,0-1.5-0.7-1.5-1.3v0c-0.8,0.9-1.9,1.4-3.4,1.4
		C68.2,26.5,66.4,25.3,66.4,23.1z M73.8,22.3v-0.6c-0.6-0.3-1.3-0.4-2.1-0.4c-1.4,0-2.2,0.6-2.2,1.6v0c0,0.9,0.7,1.4,1.8,1.4
		C72.8,24.3,73.8,23.5,73.8,22.3z"/>
</g>
<g>
	<path class="st1" d="M27.1,37.7h-0.2c-0.9,0-1.6-0.7-1.6-1.6c0-0.9,0.7-1.6,1.6-1.6h0.2v-0.9c0-1.5,0.4-2.6,1.1-3.3
		s1.8-1.1,3.1-1.1c0.6,0,1.1,0,1.6,0.1c0.7,0.1,1.3,0.7,1.3,1.6s-0.7,1.6-1.6,1.6h-0.3c-0.9,0-1.4,0.5-1.4,1.5v0.5h1.7
		c0.9,0,1.6,0.7,1.6,1.6c0,0.9-0.7,1.6-1.6,1.6h-1.6v8.6c0,1.1-0.9,1.9-1.9,1.9c-1.1,0-1.9-0.9-1.9-1.9V37.7z"/>
	<path class="st1" d="M36.1,36.2c0-1.1,0.9-1.9,1.9-1.9s1.9,0.9,1.9,1.9v0.6c0.6-1.3,1.5-2.6,2.6-2.6c1.2,0,1.9,0.8,1.9,1.9
		c0,1-0.7,1.6-1.5,1.8c-2,0.5-3.1,2-3.1,4.7v3.6c0,1.1-0.9,1.9-1.9,1.9s-1.9-0.9-1.9-1.9V36.2z"/>
	<path class="st1" d="M52.9,48.4c-4.1,0-7.1-2.9-7.1-7.1v-0.1c0-3.9,2.8-7.1,6.8-7.1c4.6,0,6.6,3.7,6.6,6.6c0,1.1-0.8,1.9-1.8,1.9
		h-7.7c0.4,1.8,1.6,2.7,3.3,2.7c1.1,0,2-0.3,2.8-0.9c0.3-0.2,0.5-0.3,0.9-0.3c0.9,0,1.5,0.7,1.5,1.5c0,0.5-0.2,0.9-0.5,1.1
		C56.5,47.7,54.9,48.4,52.9,48.4z M55.4,40.2c-0.2-1.7-1.3-2.9-2.9-2.9c-1.6,0-2.7,1.1-3,2.9H55.4z"/>
	<path class="st1" d="M68.6,48.4c-4.1,0-7.1-2.9-7.1-7.1v-0.1c0-3.9,2.8-7.1,6.8-7.1c4.6,0,6.6,3.7,6.6,6.6c0,1.1-0.8,1.9-1.8,1.9
		h-7.7c0.4,1.8,1.6,2.7,3.3,2.7c1.1,0,2-0.3,2.8-0.9c0.3-0.2,0.5-0.3,0.9-0.3c0.9,0,1.5,0.7,1.5,1.5c0,0.5-0.2,0.9-0.5,1.1
		C72.1,47.7,70.5,48.4,68.6,48.4z M71.1,40.2c-0.2-1.7-1.3-2.9-2.9-2.9c-1.6,0-2.7,1.1-3,2.9H71.1z"/>
</g>
<g>
	<path class="st2" d="M14.4,51.7c0-0.9,0.8-1.5,1.8-1.5c1,0,1.8,0.6,1.8,1.5v0c0,0.9-0.8,1.5-1.8,1.5C15.2,53.3,14.4,52.7,14.4,51.7
		L14.4,51.7z M14.6,55.9c0-0.9,0.7-1.6,1.6-1.6c0.9,0,1.6,0.7,1.6,1.6v8.4c0,0.9-0.7,1.6-1.6,1.6c-0.9,0-1.6-0.7-1.6-1.6V55.9z"/>
	<path class="st2" d="M20.8,55.9c0-0.9,0.7-1.6,1.6-1.6c0.9,0,1.6,0.7,1.6,1.6V56c0.7-1,1.7-1.8,3.3-1.8c2.4,0,3.9,1.6,3.9,4.2v5.9
		c0,0.9-0.7,1.6-1.6,1.6c-0.9,0-1.6-0.7-1.6-1.6v-4.9c0-1.5-0.7-2.3-1.9-2.3s-2,0.8-2,2.3v4.9c0,0.9-0.7,1.6-1.6,1.6
		c-0.9,0-1.6-0.7-1.6-1.6V55.9z"/>
	<path class="st2" d="M33.7,64.7c-0.3-0.2-0.6-0.6-0.6-1.1c0-0.7,0.6-1.3,1.3-1.3c0.2,0,0.5,0.1,0.6,0.2c1.1,0.7,2.2,1,3.1,1
		c0.9,0,1.4-0.3,1.4-0.8v0c0-0.7-1.1-0.9-2.4-1.3c-1.6-0.5-3.4-1.2-3.4-3.4v0c0-2.3,1.9-3.6,4.2-3.6c1.2,0,2.4,0.3,3.5,0.9
		c0.5,0.2,0.8,0.7,0.8,1.2c0,0.7-0.6,1.3-1.3,1.3c-0.2,0-0.4,0-0.6-0.1c-0.9-0.4-1.8-0.7-2.5-0.7c-0.8,0-1.2,0.3-1.2,0.8v0
		c0,0.6,1.1,0.9,2.3,1.4c1.6,0.5,3.4,1.3,3.4,3.4v0c0,2.5-1.9,3.7-4.3,3.7C36.6,66,35.1,65.6,33.7,64.7z"/>
	<path class="st2" d="M45,62.5v-5.4h-0.1c-0.8,0-1.4-0.6-1.4-1.4c0-0.8,0.6-1.4,1.4-1.4H45V53c0-0.9,0.7-1.6,1.6-1.6
		s1.6,0.7,1.6,1.6v1.4h1.4c0.8,0,1.4,0.6,1.4,1.4c0,0.8-0.6,1.4-1.4,1.4h-1.4V62c0,0.7,0.3,1.1,1,1.1c0.1,0,0.3,0,0.4,0
		c0.7,0,1.3,0.6,1.3,1.3c0,0.6-0.4,1-0.8,1.2c-0.6,0.2-1.1,0.3-1.8,0.3C46.3,65.9,45,65.2,45,62.5z"/>
	<path class="st2" d="M52.5,62.5L52.5,62.5c0-2.5,1.9-3.7,4.6-3.7c1.1,0,2,0.2,2.8,0.5v-0.2c0-1.3-0.8-2.1-2.4-2.1
		c-0.9,0-1.6,0.1-2.2,0.3c-0.2,0.1-0.3,0.1-0.5,0.1c-0.7,0-1.3-0.6-1.3-1.3c0-0.6,0.4-1.1,0.9-1.3c1-0.4,2.1-0.6,3.6-0.6
		c1.8,0,3,0.5,3.8,1.3c0.8,0.8,1.2,2.1,1.2,3.6v5.2c0,0.9-0.7,1.5-1.6,1.5c-0.9,0-1.5-0.7-1.5-1.3v0C59.1,65.4,58,66,56.4,66
		C54.3,66,52.5,64.7,52.5,62.5z M59.9,61.7v-0.6c-0.6-0.3-1.3-0.4-2.1-0.4c-1.4,0-2.2,0.6-2.2,1.6v0c0,0.9,0.7,1.4,1.8,1.4
		C58.9,63.7,59.9,62.9,59.9,61.7z"/>
	<path class="st2" d="M65.8,55.9c0-0.9,0.7-1.6,1.6-1.6S69,55,69,55.9V56c0.7-1,1.7-1.8,3.3-1.8c2.4,0,3.9,1.6,3.9,4.2v5.9
		c0,0.9-0.7,1.6-1.6,1.6c-0.9,0-1.6-0.7-1.6-1.6v-4.9c0-1.5-0.7-2.3-1.9-2.3c-1.2,0-2,0.8-2,2.3v4.9c0,0.9-0.7,1.6-1.6,1.6
		s-1.6-0.7-1.6-1.6V55.9z"/>
	<path class="st2" d="M79.5,62.5v-5.4h-0.1c-0.8,0-1.4-0.6-1.4-1.4c0-0.8,0.6-1.4,1.4-1.4h0.1V53c0-0.9,0.7-1.6,1.6-1.6
		c0.9,0,1.6,0.7,1.6,1.6v1.4h1.4c0.8,0,1.4,0.6,1.4,1.4c0,0.8-0.6,1.4-1.4,1.4h-1.4V62c0,0.7,0.3,1.1,1,1.1c0.1,0,0.3,0,0.4,0
		c0.7,0,1.3,0.6,1.3,1.3c0,0.6-0.4,1-0.8,1.2c-0.6,0.2-1.1,0.3-1.8,0.3C80.8,65.9,79.5,65.2,79.5,62.5z"/>
</g>
</svg>
