<?xml version="1.0" encoding="utf-8"?>
<!-- Generator: Adobe Illustrator 21.0.2, SVG Export Plug-In . SVG Version: 6.00 Build 0)  -->
<svg version="1.1" id="Layer_1" xmlns="http://www.w3.org/2000/svg" xmlns:xlink="http://www.w3.org/1999/xlink" x="0px" y="0px"
	 viewBox="0 0 100 100" style="enable-background:new 0 0 100 100;" xml:space="preserve">
<style type="text/css">
	.st0{fill:#EC3092;}
	.st1{opacity:0.75;}
	.st2{fill:#FFFFFF;}
	.st3{fill:#F9EC00;}
</style>
<polygon fill="#ec3092" points="39.6,0.8 5.2,25.5 5.2,85.8 63.8,99.4 96.8,75 96.8,14.7 "/>
<g>
	<g class="st1">
		<g>
			<path d="M21.9,44.1c0-0.9,0.7-1.6,1.6-1.6c0.9,0,1.6,0.7,1.6,1.6v6.3c1-1.5,2.5-2.7,4.8-2.7c3.3,0,6.6,2.6,6.6,7.4v0.1
				c0,4.7-3.2,7.4-6.6,7.4c-2.4,0-3.8-1.2-4.8-2.5v0.7c0,0.9-0.7,1.6-1.6,1.6c-0.9,0-1.6-0.7-1.6-1.6V44.1z M33.3,55.2L33.3,55.2
				c0-2.8-1.9-4.6-4.1-4.6c-2.2,0-4.1,1.8-4.1,4.5v0.1c0,2.7,1.9,4.5,4.1,4.5C31.5,59.8,33.3,58,33.3,55.2z"/>
			<path d="M39,58.2L39,58.2c0-3.1,2.4-4.6,5.9-4.6c1.6,0,2.7,0.2,3.8,0.6v-0.3c0-2-1.2-3.1-3.5-3.1c-1.2,0-2.3,0.2-3.1,0.6
				c-0.2,0.1-0.3,0.1-0.5,0.1c-0.8,0-1.4-0.6-1.4-1.3c0-0.6,0.4-1.1,0.9-1.3c1.3-0.5,2.7-0.8,4.6-0.8c2.1,0,3.7,0.6,4.7,1.6
				c1,1,1.5,2.5,1.5,4.4v7c0,0.9-0.7,1.6-1.6,1.6c-0.9,0-1.6-0.6-1.6-1.4v-0.5c-1,1.2-2.4,2.1-4.6,2.1C41.4,62.6,39,61,39,58.2z
				 M48.8,57.2v-1c-0.8-0.3-1.9-0.6-3.2-0.6c-2.1,0-3.3,0.9-3.3,2.4v0.1c0,1.4,1.2,2.2,2.8,2.2C47.1,60.2,48.8,59,48.8,57.2z"/>
			<path d="M55.2,60.9c-0.3-0.2-0.6-0.6-0.6-1.1c0-0.7,0.6-1.3,1.3-1.3c0.3,0,0.5,0.1,0.7,0.2c1.4,0.9,2.8,1.4,4.1,1.4
				c1.4,0,2.2-0.6,2.2-1.5v-0.1c0-1.1-1.5-1.5-3.2-2c-2.1-0.6-4.4-1.5-4.4-4.2v-0.1c0-2.7,2.2-4.3,5.1-4.3c1.5,0,3.1,0.4,4.5,1.2
				c0.5,0.2,0.8,0.7,0.8,1.2c0,0.8-0.6,1.3-1.3,1.3c-0.3,0-0.4-0.1-0.6-0.2c-1.2-0.6-2.3-1-3.3-1c-1.3,0-2,0.6-2,1.4v0.1
				c0,1,1.5,1.5,3.2,2c2.1,0.6,4.4,1.6,4.4,4.1v0.1c0,3-2.3,4.5-5.3,4.5C58.8,62.6,56.9,62,55.2,60.9z"/>
			<path d="M75.7,62.6c-4.1,0-7.3-3-7.3-7.4v-0.1c0-4.1,2.9-7.4,6.9-7.4c4.5,0,6.7,3.7,6.7,7c0,0.9-0.7,1.6-1.5,1.6h-8.9
				c0.3,2.3,2,3.6,4.1,3.6c1.4,0,2.4-0.5,3.4-1.2c0.2-0.2,0.5-0.3,0.8-0.3c0.7,0,1.3,0.6,1.3,1.3c0,0.4-0.2,0.8-0.4,1
				C79.6,61.9,78,62.6,75.7,62.6z M79,54.2c-0.2-2.1-1.5-3.7-3.6-3.7c-2,0-3.4,1.5-3.7,3.7H79z"/>
		</g>
	</g>
	<g>
		<g>
			<path class="st2" d="M21.9,42.7c0-0.9,0.7-1.6,1.6-1.6c0.9,0,1.6,0.7,1.6,1.6V49c1-1.5,2.5-2.7,4.8-2.7c3.3,0,6.6,2.6,6.6,7.4
				v0.1c0,4.7-3.2,7.4-6.6,7.4c-2.4,0-3.8-1.2-4.8-2.5v0.7c0,0.9-0.7,1.6-1.6,1.6c-0.9,0-1.6-0.7-1.6-1.6V42.7z M33.3,53.7
				L33.3,53.7c0-2.8-1.9-4.6-4.1-4.6c-2.2,0-4.1,1.8-4.1,4.5v0.1c0,2.7,1.9,4.5,4.1,4.5C31.5,58.3,33.3,56.5,33.3,53.7z"/>
			<path class="st2" d="M39,56.7L39,56.7c0-3.1,2.4-4.6,5.9-4.6c1.6,0,2.7,0.2,3.8,0.6v-0.3c0-2-1.2-3.1-3.5-3.1
				c-1.2,0-2.3,0.2-3.1,0.6c-0.2,0.1-0.3,0.1-0.5,0.1c-0.8,0-1.4-0.6-1.4-1.3c0-0.6,0.4-1.1,0.9-1.3c1.3-0.5,2.7-0.8,4.6-0.8
				c2.1,0,3.7,0.6,4.7,1.6c1,1,1.5,2.5,1.5,4.4v7c0,0.9-0.7,1.6-1.6,1.6c-0.9,0-1.6-0.6-1.6-1.4V59c-1,1.2-2.4,2.1-4.6,2.1
				C41.4,61.1,39,59.6,39,56.7z M48.8,55.7v-1c-0.8-0.3-1.9-0.6-3.2-0.6c-2.1,0-3.3,0.9-3.3,2.4v0.1c0,1.4,1.2,2.2,2.8,2.2
				C47.1,58.7,48.8,57.5,48.8,55.7z"/>
			<path class="st2" d="M55.2,59.4c-0.3-0.2-0.6-0.6-0.6-1.1c0-0.7,0.6-1.3,1.3-1.3c0.3,0,0.5,0.1,0.7,0.2c1.4,0.9,2.8,1.4,4.1,1.4
				c1.4,0,2.2-0.6,2.2-1.5v-0.1c0-1.1-1.5-1.5-3.2-2c-2.1-0.6-4.4-1.5-4.4-4.2v-0.1c0-2.7,2.2-4.3,5.1-4.3c1.5,0,3.1,0.4,4.5,1.2
				c0.5,0.2,0.8,0.7,0.8,1.2c0,0.8-0.6,1.3-1.3,1.3c-0.3,0-0.4-0.1-0.6-0.2c-1.2-0.6-2.3-1-3.3-1c-1.3,0-2,0.6-2,1.4v0.1
				c0,1,1.5,1.5,3.2,2c2.1,0.6,4.4,1.6,4.4,4.1v0.1c0,3-2.3,4.5-5.3,4.5C58.8,61.1,56.9,60.5,55.2,59.4z"/>
			<path class="st2" d="M75.7,61.1c-4.1,0-7.3-3-7.3-7.4v-0.1c0-4.1,2.9-7.4,6.9-7.4c4.5,0,6.7,3.7,6.7,7c0,0.9-0.7,1.6-1.5,1.6
				h-8.9c0.3,2.3,2,3.6,4.1,3.6c1.4,0,2.4-0.5,3.4-1.2c0.2-0.2,0.5-0.3,0.8-0.3c0.7,0,1.3,0.6,1.3,1.3c0,0.4-0.2,0.8-0.4,1
				C79.6,60.4,78,61.1,75.7,61.1z M79,52.7c-0.2-2.1-1.5-3.7-3.6-3.7c-2,0-3.4,1.5-3.7,3.7H79z"/>
		</g>
	</g>
</g>
<g>
	<g class="st1">
		<g>
			<path d="M21.7,29.9H21c-0.9,0-1.7-0.7-1.7-1.7c0-0.9,0.8-1.7,1.7-1.7h0.7v-1.3c0-1.9,0.5-3.4,1.4-4.3c0.9-0.9,2.2-1.4,3.9-1.4
				c0.8,0,1.5,0.1,2,0.2c0.7,0.1,1.4,0.8,1.4,1.7c0,0.9-0.8,1.7-1.7,1.7c-0.2,0-0.6-0.1-0.8-0.1c-1.5,0-2.3,0.8-2.3,2.6v1h3.1
				c1,0,1.7,0.7,1.7,1.7c0,0.9-0.8,1.7-1.7,1.7h-3v12.2c0,1.1-0.9,2-2,2c-1.1,0-2-0.9-2-2V29.9z"/>
			<path d="M33.2,28.3c0-1.1,0.9-2,2-2c1.1,0,2,0.9,2,2v1.8c0.9-2.2,2.6-3.8,4.4-3.8c1.3,0,2,0.8,2,2c0,1.1-0.7,1.8-1.6,1.9
				c-2.8,0.5-4.8,2.7-4.8,6.8v5.2c0,1.1-0.9,2-2,2c-1.1,0-2-0.9-2-2V28.3z"/>
			<path d="M54.3,44.4c-5.1,0-9-3.7-9-9.1v-0.1c0-5,3.5-9.1,8.5-9.1c5.6,0,8.3,4.6,8.3,8.6c0,1.1-0.9,1.9-1.9,1.9h-11
				c0.4,2.8,2.5,4.4,5,4.4c1.7,0,3-0.6,4.1-1.5c0.3-0.2,0.6-0.4,1-0.4c0.9,0,1.6,0.7,1.6,1.6c0,0.5-0.2,0.9-0.5,1.2
				C59,43.5,57,44.4,54.3,44.4z M58.3,34c-0.3-2.6-1.8-4.6-4.4-4.6c-2.4,0-4.2,1.9-4.5,4.6H58.3z"/>
			<path d="M74.3,44.4c-5.1,0-9-3.7-9-9.1v-0.1c0-5,3.5-9.1,8.5-9.1c5.6,0,8.3,4.6,8.3,8.6c0,1.1-0.9,1.9-1.9,1.9h-11
				c0.4,2.8,2.5,4.4,5,4.4c1.7,0,3-0.6,4.1-1.5c0.3-0.2,0.6-0.4,1-0.4c0.9,0,1.6,0.7,1.6,1.6c0,0.5-0.2,0.9-0.5,1.2
				C79,43.5,77,44.4,74.3,44.4z M78.3,34c-0.3-2.6-1.8-4.6-4.4-4.6c-2.5,0-4.2,1.9-4.5,4.6H78.3z"/>
		</g>
	</g>
	<g>
		<g>
			<path class="st3" d="M21.7,28.6H21c-0.9,0-1.7-0.7-1.7-1.7c0-0.9,0.8-1.7,1.7-1.7h0.7V24c0-1.9,0.5-3.4,1.4-4.3
				c0.9-0.9,2.2-1.4,3.9-1.4c0.8,0,1.5,0.1,2,0.2c0.7,0.1,1.4,0.8,1.4,1.7c0,0.9-0.8,1.7-1.7,1.7c-0.2,0-0.6-0.1-0.8-0.1
				c-1.5,0-2.3,0.8-2.3,2.6v1h3.1c1,0,1.7,0.7,1.7,1.7c0,0.9-0.8,1.7-1.7,1.7h-3v12.2c0,1.1-0.9,2-2,2c-1.1,0-2-0.9-2-2V28.6z"/>
			<path class="st3" d="M33.2,27c0-1.1,0.9-2,2-2c1.1,0,2,0.9,2,2v1.8c0.9-2.2,2.6-3.8,4.4-3.8c1.3,0,2,0.8,2,2
				c0,1.1-0.7,1.8-1.6,1.9c-2.8,0.5-4.8,2.7-4.8,6.8v5.2c0,1.1-0.9,2-2,2c-1.1,0-2-0.9-2-2V27z"/>
			<path class="st3" d="M54.3,43c-5.1,0-9-3.7-9-9.1v-0.1c0-5,3.5-9.1,8.5-9.1c5.6,0,8.3,4.6,8.3,8.6c0,1.1-0.9,1.9-1.9,1.9h-11
				c0.4,2.8,2.5,4.4,5,4.4c1.7,0,3-0.6,4.1-1.5c0.3-0.2,0.6-0.4,1-0.4c0.9,0,1.6,0.7,1.6,1.6c0,0.5-0.2,0.9-0.5,1.2
				C59,42.2,57,43,54.3,43z M58.3,32.7c-0.3-2.6-1.8-4.6-4.4-4.6c-2.4,0-4.2,1.9-4.5,4.6H58.3z"/>
			<path class="st3" d="M74.3,43c-5.1,0-9-3.7-9-9.1v-0.1c0-5,3.5-9.1,8.5-9.1c5.6,0,8.3,4.6,8.3,8.6c0,1.1-0.9,1.9-1.9,1.9h-11
				c0.4,2.8,2.5,4.4,5,4.4c1.7,0,3-0.6,4.1-1.5c0.3-0.2,0.6-0.4,1-0.4c0.9,0,1.6,0.7,1.6,1.6c0,0.5-0.2,0.9-0.5,1.2
				C79,42.2,77,43,74.3,43z M78.3,32.7c-0.3-2.6-1.8-4.6-4.4-4.6c-2.5,0-4.2,1.9-4.5,4.6H78.3z"/>
		</g>
	</g>
</g>
<g>
	<g class="st1">
		<g>
			<path d="M32.7,81.5c0,0.7-0.6,1.3-1.3,1.3c-0.7,0-1.3-0.6-1.3-1.3v-4.1c-0.8,1.2-2,2.1-3.9,2.1c-2.7,0-5.3-2.1-5.3-5.9v0
				c0-3.8,2.6-5.9,5.3-5.9c1.9,0,3.1,0.9,3.9,2V69c0-0.7,0.6-1.3,1.3-1.3c0.7,0,1.3,0.6,1.3,1.3V81.5z M23.6,73.5L23.6,73.5
				c0,2.2,1.5,3.7,3.3,3.7c1.7,0,3.3-1.5,3.3-3.6v0c0-2.2-1.5-3.6-3.3-3.6C25.1,69.9,23.6,71.2,23.6,73.5z"/>
			<path d="M46,78c0,0.7-0.6,1.3-1.3,1.3c-0.7,0-1.3-0.6-1.3-1.3v-0.6c-0.7,1.1-1.8,2-3.5,2c-2.6,0-4-1.7-4-4.4v-6
				c0-0.7,0.6-1.3,1.3-1.3c0.7,0,1.3,0.6,1.3,1.3v5.3c0,1.8,0.9,2.8,2.4,2.8c1.5,0,2.6-1,2.6-2.8V69c0-0.7,0.6-1.3,1.3-1.3
				c0.7,0,1.3,0.6,1.3,1.3V78z"/>
			<path d="M48.7,73.6L48.7,73.6c0-3.3,2.6-6,6.1-6c3.5,0,6,2.6,6,5.9v0c0,3.2-2.6,5.9-6.1,5.9C51.2,79.5,48.7,76.8,48.7,73.6z
				 M58.2,73.6L58.2,73.6c0-2-1.4-3.7-3.5-3.7c-2.1,0-3.4,1.6-3.4,3.6v0c0,2,1.4,3.6,3.5,3.6C56.8,77.2,58.2,75.5,58.2,73.6z"/>
			<path d="M63.9,76.1v-6h-0.4c-0.6,0-1.1-0.5-1.1-1.1c0-0.6,0.5-1.1,1.1-1.1h0.4v-1.9c0-0.7,0.6-1.3,1.3-1.3c0.7,0,1.3,0.6,1.3,1.3
				v1.9h2c0.6,0,1.1,0.5,1.1,1.1c0,0.6-0.5,1.1-1.1,1.1h-2v5.6c0,1,0.5,1.4,1.4,1.4c0.3,0,0.6-0.1,0.6-0.1c0.6,0,1.1,0.5,1.1,1.1
				c0,0.5-0.3,0.9-0.7,1c-0.6,0.2-1.1,0.3-1.8,0.3C65.3,79.4,63.9,78.5,63.9,76.1z"/>
			<path d="M77.1,79.5c-3.3,0-5.8-2.4-5.8-5.9v0c0-3.2,2.3-5.9,5.5-5.9c3.6,0,5.4,3,5.4,5.6c0,0.7-0.6,1.2-1.2,1.2h-7.1
				c0.3,1.8,1.6,2.9,3.3,2.9c1.1,0,2-0.4,2.7-1c0.2-0.2,0.4-0.2,0.7-0.2c0.6,0,1,0.5,1,1.1c0,0.3-0.2,0.6-0.3,0.8
				C80.2,78.9,78.9,79.5,77.1,79.5z M79.7,72.7c-0.2-1.7-1.2-3-2.9-3c-1.6,0-2.7,1.2-2.9,3H79.7z"/>
		</g>
	</g>
	<g>
		<g>
			<path class="st3" d="M32.7,80.2c0,0.7-0.6,1.3-1.3,1.3c-0.7,0-1.3-0.6-1.3-1.3V76c-0.8,1.2-2,2.1-3.9,2.1c-2.7,0-5.3-2.1-5.3-5.9
				v0c0-3.8,2.6-5.9,5.3-5.9c1.9,0,3.1,0.9,3.9,2v-0.6c0-0.7,0.6-1.3,1.3-1.3c0.7,0,1.3,0.6,1.3,1.3V80.2z M23.6,72.2L23.6,72.2
				c0,2.2,1.5,3.7,3.3,3.7c1.7,0,3.3-1.5,3.3-3.6v0c0-2.2-1.5-3.6-3.3-3.6C25.1,68.6,23.6,70,23.6,72.2z"/>
			<path class="st3" d="M46,76.7c0,0.7-0.6,1.3-1.3,1.3c-0.7,0-1.3-0.6-1.3-1.3v-0.6c-0.7,1.1-1.8,2-3.5,2c-2.6,0-4-1.7-4-4.4v-6
				c0-0.7,0.6-1.3,1.3-1.3c0.7,0,1.3,0.6,1.3,1.3V73c0,1.8,0.9,2.8,2.4,2.8c1.5,0,2.6-1,2.6-2.8v-5.2c0-0.7,0.6-1.3,1.3-1.3
				c0.7,0,1.3,0.6,1.3,1.3V76.7z"/>
			<path class="st3" d="M48.7,72.3L48.7,72.3c0-3.3,2.6-6,6.1-6c3.5,0,6,2.6,6,5.9v0c0,3.2-2.6,5.9-6.1,5.9
				C51.2,78.2,48.7,75.5,48.7,72.3z M58.2,72.3L58.2,72.3c0-2-1.4-3.7-3.5-3.7c-2.1,0-3.4,1.6-3.4,3.6v0c0,2,1.4,3.6,3.5,3.6
				C56.8,75.9,58.2,74.3,58.2,72.3z"/>
			<path class="st3" d="M63.9,74.8v-6h-0.4c-0.6,0-1.1-0.5-1.1-1.1c0-0.6,0.5-1.1,1.1-1.1h0.4v-1.9c0-0.7,0.6-1.3,1.3-1.3
				c0.7,0,1.3,0.6,1.3,1.3v1.9h2c0.6,0,1.1,0.5,1.1,1.1c0,0.6-0.5,1.1-1.1,1.1h-2v5.6c0,1,0.5,1.4,1.4,1.4c0.3,0,0.6-0.1,0.6-0.1
				c0.6,0,1.1,0.5,1.1,1.1c0,0.5-0.3,0.9-0.7,1c-0.6,0.2-1.1,0.3-1.8,0.3C65.3,78.1,63.9,77.3,63.9,74.8z"/>
			<path class="st3" d="M77.1,78.2c-3.3,0-5.8-2.4-5.8-5.9v0c0-3.2,2.3-5.9,5.5-5.9c3.6,0,5.4,3,5.4,5.6c0,0.7-0.6,1.2-1.2,1.2h-7.1
				c0.3,1.8,1.6,2.9,3.3,2.9c1.1,0,2-0.4,2.7-1c0.2-0.2,0.4-0.2,0.7-0.2c0.6,0,1,0.5,1,1.1c0,0.3-0.2,0.6-0.3,0.8
				C80.2,77.6,78.9,78.2,77.1,78.2z M79.7,71.5c-0.2-1.7-1.2-3-2.9-3c-1.6,0-2.7,1.2-2.9,3H79.7z"/>
		</g>
	</g>
</g>
</svg>
