<?xml version="1.0" encoding="utf-8"?>
<!-- Generator: Adobe Illustrator 21.0.2, SVG Export Plug-In . SVG Version: 6.00 Build 0)  -->
<svg version="1.1" id="Layer_1" xmlns="http://www.w3.org/2000/svg" xmlns:xlink="http://www.w3.org/1999/xlink" x="0px" y="0px"
	 viewBox="0 0 100 100" style="enable-background:new 0 0 100 100;" xml:space="preserve">
<style type="text/css">
	.st0{fill:#EC3092;}
	.st1{opacity:0.75;}
	.st2{fill:#F9EC00;}
	.st3{fill:#FFFFFF;}
</style>
<title>logos</title>
<polygon class="st0" points="39.2,0.6 4.8,25.4 4.8,85.7 63.4,99.4 96.4,74.9 96.4,14.6 "/>
<g>
	<g class="st1">
		<path d="M21.3,31.1h-0.7c-0.9,0-1.7-0.7-1.7-1.7c0-0.9,0.8-1.7,1.7-1.7h0.7v-1.3c0-1.9,0.5-3.4,1.4-4.3c0.9-0.9,2.2-1.4,3.9-1.4
			c0.8,0,1.5,0.1,2,0.2c0.7,0.1,1.4,0.8,1.4,1.7c0,0.9-0.8,1.7-1.7,1.7c-0.2,0-0.6-0.1-0.8-0.1c-1.5,0-2.3,0.8-2.3,2.7v1h3.1
			c1,0,1.7,0.7,1.7,1.7c0,0.9-0.8,1.7-1.7,1.7h-3v12.2c0,1.1-0.9,2-2,2c-1.1,0-2-0.9-2-2V31.1z"/>
		<path d="M32.8,29.5c0-1.1,0.9-2,2-2c1.1,0,2,0.9,2,2v1.8c0.9-2.2,2.7-3.8,4.4-3.8c1.3,0,2,0.8,2,2c0,1.1-0.7,1.8-1.6,1.9
			c-2.9,0.5-4.8,2.7-4.8,6.8v5.2c0,1.1-0.9,2-2,2c-1.1,0-2-0.9-2-2V29.5z"/>
		<path d="M53.9,45.6c-5.1,0-9-3.7-9-9.1v-0.1c0-5,3.5-9.1,8.6-9.1c5.6,0,8.3,4.6,8.3,8.6c0,1.1-0.9,1.9-1.9,1.9H49
			c0.4,2.9,2.5,4.4,5,4.4c1.7,0,3-0.6,4.1-1.5c0.3-0.2,0.6-0.4,1-0.4c0.9,0,1.6,0.7,1.6,1.6c0,0.5-0.2,0.9-0.5,1.2
			C58.6,44.7,56.7,45.6,53.9,45.6z M57.9,35.2c-0.3-2.6-1.8-4.6-4.4-4.6c-2.5,0-4.2,1.9-4.5,4.6H57.9z"/>
		<path d="M74,45.6c-5.1,0-9-3.7-9-9.1v-0.1c0-5,3.5-9.1,8.6-9.1c5.6,0,8.3,4.6,8.3,8.6c0,1.1-0.9,1.9-1.9,1.9H69
			c0.4,2.9,2.5,4.4,5,4.4c1.7,0,3-0.6,4.1-1.5c0.3-0.2,0.6-0.4,1-0.4c0.9,0,1.6,0.7,1.6,1.6c0,0.5-0.2,0.9-0.5,1.2
			C78.7,44.7,76.7,45.6,74,45.6z M77.9,35.2c-0.3-2.6-1.8-4.6-4.4-4.6c-2.5,0-4.2,1.9-4.5,4.6H77.9z"/>
	</g>
	<g>
		<path class="st2" d="M21.3,29.8h-0.7c-0.9,0-1.7-0.7-1.7-1.7c0-0.9,0.8-1.7,1.7-1.7h0.7v-1.3c0-1.9,0.5-3.4,1.4-4.3
			c0.9-0.9,2.2-1.4,3.9-1.4c0.8,0,1.5,0.1,2,0.2c0.7,0.1,1.4,0.8,1.4,1.7c0,0.9-0.8,1.7-1.7,1.7c-0.2,0-0.6-0.1-0.8-0.1
			c-1.5,0-2.3,0.8-2.3,2.7v1h3.1c1,0,1.7,0.7,1.7,1.7c0,0.9-0.8,1.7-1.7,1.7h-3V42c0,1.1-0.9,2-2,2c-1.1,0-2-0.9-2-2V29.8z"/>
		<path class="st2" d="M32.8,28.2c0-1.1,0.9-2,2-2c1.1,0,2,0.9,2,2V30c0.9-2.2,2.7-3.8,4.4-3.8c1.3,0,2,0.8,2,2
			c0,1.1-0.7,1.8-1.6,1.9c-2.9,0.5-4.8,2.7-4.8,6.8V42c0,1.1-0.9,2-2,2c-1.1,0-2-0.9-2-2V28.2z"/>
		<path class="st2" d="M53.9,44.2c-5.1,0-9-3.7-9-9.1v-0.1c0-5,3.5-9.1,8.6-9.1c5.6,0,8.3,4.6,8.3,8.6c0,1.1-0.9,1.9-1.9,1.9H49
			c0.4,2.9,2.5,4.4,5,4.4c1.7,0,3-0.6,4.1-1.5c0.3-0.2,0.6-0.4,1-0.4c0.9,0,1.6,0.7,1.6,1.6c0,0.5-0.2,0.9-0.5,1.2
			C58.6,43.4,56.7,44.2,53.9,44.2z M57.9,33.9c-0.3-2.6-1.8-4.6-4.4-4.6c-2.5,0-4.2,1.9-4.5,4.6H57.9z"/>
		<path class="st2" d="M74,44.2c-5.1,0-9-3.7-9-9.1v-0.1c0-5,3.5-9.1,8.6-9.1c5.6,0,8.3,4.6,8.3,8.6c0,1.1-0.9,1.9-1.9,1.9H69
			c0.4,2.9,2.5,4.4,5,4.4c1.7,0,3-0.6,4.1-1.5c0.3-0.2,0.6-0.4,1-0.4c0.9,0,1.6,0.7,1.6,1.6c0,0.5-0.2,0.9-0.5,1.2
			C78.7,43.4,76.7,44.2,74,44.2z M77.9,33.9c-0.3-2.6-1.8-4.6-4.4-4.6c-2.5,0-4.2,1.9-4.5,4.6H77.9z"/>
	</g>
</g>
<g>
	<g class="st1">
		<path d="M19.3,47.9c0-0.7,0.6-1.1,1.3-1.1c0.7,0,1.3,0.4,1.3,1.1V48c0,0.7-0.6,1.1-1.3,1.1c-0.7,0-1.3-0.5-1.3-1.1V47.9z
			 M19.4,51.6c0-0.7,0.5-1.2,1.1-1.2c0.7,0,1.2,0.5,1.2,1.2v8c0,0.7-0.5,1.1-1.2,1.1c-0.6,0-1.1-0.5-1.1-1.1V51.6z"/>
		<path d="M24.8,51.6c0-0.7,0.5-1.2,1.1-1.2c0.7,0,1.2,0.5,1.2,1.2v0.5c0.7-0.9,1.6-1.8,3.2-1.8c2.3,0,3.6,1.5,3.6,3.9v5.4
			c0,0.7-0.5,1.1-1.1,1.1c-0.7,0-1.2-0.5-1.2-1.1V55c0-1.6-0.8-2.5-2.2-2.5c-1.3,0-2.3,0.9-2.3,2.5v4.6c0,0.7-0.5,1.1-1.2,1.1
			c-0.6,0-1.1-0.5-1.1-1.1V51.6z"/>
		<path d="M36.2,59.7c-0.2-0.1-0.4-0.4-0.4-0.8c0-0.5,0.4-0.9,0.9-0.9c0.2,0,0.4,0.1,0.5,0.1c1,0.7,2,1,2.9,1c1,0,1.6-0.4,1.6-1.1v0
			c0-0.8-1.1-1.1-2.3-1.4c-1.5-0.4-3.2-1-3.2-3v0c0-1.9,1.6-3.1,3.6-3.1c1.1,0,2.2,0.3,3.2,0.8c0.3,0.2,0.6,0.5,0.6,0.9
			c0,0.5-0.4,0.9-1,0.9c-0.2,0-0.3,0-0.5-0.1c-0.8-0.4-1.7-0.7-2.4-0.7c-0.9,0-1.4,0.4-1.4,1v0c0,0.7,1.1,1.1,2.3,1.4
			c1.5,0.5,3.1,1.1,3.1,2.9v0c0,2.1-1.6,3.2-3.8,3.2C38.8,60.9,37.4,60.5,36.2,59.7z"/>
		<path d="M46.5,57.9v-5.3h-0.4c-0.6,0-1-0.4-1-1c0-0.6,0.4-1,1-1h0.4v-1.7c0-0.6,0.5-1.1,1.2-1.1c0.6,0,1.1,0.5,1.1,1.1v1.7h1.8
			c0.6,0,1,0.4,1,1c0,0.6-0.5,1-1,1h-1.8v5c0,0.9,0.5,1.3,1.2,1.3c0.3,0,0.5-0.1,0.6-0.1c0.5,0,1,0.4,1,1c0,0.4-0.3,0.8-0.6,0.9
			c-0.5,0.2-1,0.3-1.6,0.3C47.7,60.9,46.5,60.1,46.5,57.9z"/>
		<path d="M53.2,57.8L53.2,57.8c0-2.2,1.7-3.3,4.2-3.3c1.1,0,1.9,0.2,2.7,0.4v-0.2c0-1.4-0.9-2.2-2.5-2.2c-0.9,0-1.6,0.2-2.2,0.4
			c-0.1,0-0.2,0.1-0.4,0.1c-0.5,0-1-0.4-1-1c0-0.4,0.3-0.8,0.6-0.9c1-0.4,1.9-0.6,3.3-0.6c1.5,0,2.6,0.4,3.3,1.1
			c0.7,0.7,1.1,1.8,1.1,3.1v5c0,0.6-0.5,1.1-1.1,1.1c-0.7,0-1.1-0.5-1.1-1v-0.4c-0.7,0.8-1.7,1.5-3.3,1.5
			C54.9,60.9,53.2,59.8,53.2,57.8z M60.2,57.1v-0.7c-0.6-0.2-1.4-0.4-2.3-0.4c-1.5,0-2.4,0.6-2.4,1.7v0c0,1,0.9,1.5,2,1.5
			C59,59.2,60.2,58.3,60.2,57.1z"/>
		<path d="M65.1,51.6c0-0.7,0.5-1.2,1.1-1.2c0.7,0,1.2,0.5,1.2,1.2v0.5c0.7-0.9,1.6-1.8,3.2-1.8c2.3,0,3.6,1.5,3.6,3.9v5.4
			c0,0.7-0.5,1.1-1.1,1.1c-0.7,0-1.2-0.5-1.2-1.1V55c0-1.6-0.8-2.5-2.2-2.5c-1.3,0-2.3,0.9-2.3,2.5v4.6c0,0.7-0.5,1.1-1.2,1.1
			c-0.6,0-1.1-0.5-1.1-1.1V51.6z"/>
		<path d="M77.5,57.9v-5.3h-0.4c-0.6,0-1-0.4-1-1c0-0.6,0.4-1,1-1h0.4v-1.7c0-0.6,0.5-1.1,1.2-1.1c0.6,0,1.1,0.5,1.1,1.1v1.7h1.8
			c0.6,0,1,0.4,1,1c0,0.6-0.5,1-1,1h-1.8v5c0,0.9,0.5,1.3,1.2,1.3c0.3,0,0.5-0.1,0.6-0.1c0.5,0,1,0.4,1,1c0,0.4-0.3,0.8-0.6,0.9
			c-0.5,0.2-1,0.3-1.6,0.3C78.7,60.9,77.5,60.1,77.5,57.9z"/>
	</g>
	<g>
		<path class="st3" d="M19.3,46.6c0-0.7,0.6-1.1,1.3-1.1c0.7,0,1.3,0.4,1.3,1.1v0.1c0,0.7-0.6,1.1-1.3,1.1c-0.7,0-1.3-0.5-1.3-1.1
			V46.6z M19.4,50.3c0-0.7,0.5-1.2,1.1-1.2c0.7,0,1.2,0.5,1.2,1.2v8c0,0.7-0.5,1.1-1.2,1.1c-0.6,0-1.1-0.5-1.1-1.1V50.3z"/>
		<path class="st3" d="M24.8,50.3c0-0.7,0.5-1.2,1.1-1.2c0.7,0,1.2,0.5,1.2,1.2v0.5c0.7-0.9,1.6-1.8,3.2-1.8c2.3,0,3.6,1.5,3.6,3.9
			v5.4c0,0.7-0.5,1.1-1.1,1.1c-0.7,0-1.2-0.5-1.2-1.1v-4.7c0-1.6-0.8-2.5-2.2-2.5c-1.3,0-2.3,0.9-2.3,2.5v4.6c0,0.7-0.5,1.1-1.2,1.1
			c-0.6,0-1.1-0.5-1.1-1.1V50.3z"/>
		<path class="st3" d="M36.2,58.4c-0.2-0.1-0.4-0.4-0.4-0.8c0-0.5,0.4-0.9,0.9-0.9c0.2,0,0.4,0.1,0.5,0.1c1,0.7,2,1,2.9,1
			c1,0,1.6-0.4,1.6-1.1v0c0-0.8-1.1-1.1-2.3-1.4c-1.5-0.4-3.2-1-3.2-3v0c0-1.9,1.6-3.1,3.6-3.1c1.1,0,2.2,0.3,3.2,0.8
			c0.3,0.2,0.6,0.5,0.6,0.9c0,0.5-0.4,0.9-1,0.9c-0.2,0-0.3,0-0.5-0.1c-0.8-0.4-1.7-0.7-2.4-0.7c-0.9,0-1.4,0.4-1.4,1v0
			c0,0.7,1.1,1.1,2.3,1.4c1.5,0.5,3.1,1.1,3.1,2.9v0c0,2.1-1.6,3.2-3.8,3.2C38.8,59.6,37.4,59.2,36.2,58.4z"/>
		<path class="st3" d="M46.5,56.6v-5.3h-0.4c-0.6,0-1-0.4-1-1c0-0.6,0.4-1,1-1h0.4v-1.7c0-0.6,0.5-1.1,1.2-1.1
			c0.6,0,1.1,0.5,1.1,1.1v1.7h1.8c0.6,0,1,0.4,1,1c0,0.6-0.5,1-1,1h-1.8v5c0,0.9,0.5,1.3,1.2,1.3c0.3,0,0.5-0.1,0.6-0.1
			c0.5,0,1,0.4,1,1c0,0.4-0.3,0.8-0.6,0.9c-0.5,0.2-1,0.3-1.6,0.3C47.7,59.6,46.5,58.8,46.5,56.6z"/>
		<path class="st3" d="M53.2,56.5L53.2,56.5c0-2.2,1.7-3.3,4.2-3.3c1.1,0,1.9,0.2,2.7,0.4v-0.2c0-1.4-0.9-2.2-2.5-2.2
			c-0.9,0-1.6,0.2-2.2,0.4c-0.1,0-0.2,0.1-0.4,0.1c-0.5,0-1-0.4-1-1c0-0.4,0.3-0.8,0.6-0.9c1-0.4,1.9-0.6,3.3-0.6
			c1.5,0,2.6,0.4,3.3,1.1c0.7,0.7,1.1,1.8,1.1,3.1v5c0,0.6-0.5,1.1-1.1,1.1c-0.7,0-1.1-0.5-1.1-1v-0.4c-0.7,0.8-1.7,1.5-3.3,1.5
			C54.9,59.6,53.2,58.5,53.2,56.5z M60.2,55.7v-0.7c-0.6-0.2-1.4-0.4-2.3-0.4c-1.5,0-2.4,0.6-2.4,1.7v0c0,1,0.9,1.5,2,1.5
			C59,57.9,60.2,57,60.2,55.7z"/>
		<path class="st3" d="M65.1,50.3c0-0.7,0.5-1.2,1.1-1.2c0.7,0,1.2,0.5,1.2,1.2v0.5c0.7-0.9,1.6-1.8,3.2-1.8c2.3,0,3.6,1.5,3.6,3.9
			v5.4c0,0.7-0.5,1.1-1.1,1.1c-0.7,0-1.2-0.5-1.2-1.1v-4.7c0-1.6-0.8-2.5-2.2-2.5c-1.3,0-2.3,0.9-2.3,2.5v4.6c0,0.7-0.5,1.1-1.2,1.1
			c-0.6,0-1.1-0.5-1.1-1.1V50.3z"/>
		<path class="st3" d="M77.5,56.6v-5.3h-0.4c-0.6,0-1-0.4-1-1c0-0.6,0.4-1,1-1h0.4v-1.7c0-0.6,0.5-1.1,1.2-1.1
			c0.6,0,1.1,0.5,1.1,1.1v1.7h1.8c0.6,0,1,0.4,1,1c0,0.6-0.5,1-1,1h-1.8v5c0,0.9,0.5,1.3,1.2,1.3c0.3,0,0.5-0.1,0.6-0.1
			c0.5,0,1,0.4,1,1c0,0.4-0.3,0.8-0.6,0.9c-0.5,0.2-1,0.3-1.6,0.3C78.7,59.6,77.5,58.8,77.5,56.6z"/>
	</g>
</g>
<g>
	<g class="st1">
		<path d="M31.1,80c0,0.8-0.6,1.3-1.3,1.3c-0.8,0-1.4-0.6-1.4-1.3v-4.3c-0.9,1.2-2.1,2.2-4,2.2c-2.8,0-5.4-2.2-5.4-6.1v0
			c0-3.9,2.6-6.1,5.4-6.1c1.9,0,3.2,1,4,2.1v-0.6c0-0.7,0.6-1.3,1.3-1.3c0.8,0,1.4,0.6,1.4,1.4V80z M21.6,71.8L21.6,71.8
			c0,2.3,1.6,3.8,3.4,3.8c1.8,0,3.4-1.5,3.4-3.8v0c0-2.3-1.6-3.8-3.4-3.8C23.2,68,21.6,69.4,21.6,71.8z"/>
		<path d="M44.9,76.4c0,0.7-0.6,1.3-1.4,1.3c-0.7,0-1.4-0.6-1.4-1.3v-0.6c-0.8,1.1-1.8,2.1-3.7,2.1c-2.6,0-4.2-1.8-4.2-4.5v-6.2
			c0-0.8,0.6-1.4,1.3-1.4c0.8,0,1.4,0.6,1.4,1.4v5.4c0,1.8,0.9,2.8,2.5,2.8c1.6,0,2.6-1.1,2.6-2.9v-5.4c0-0.8,0.6-1.4,1.4-1.4
			c0.7,0,1.4,0.6,1.4,1.4V76.4z"/>
		<path d="M47.6,71.8L47.6,71.8c0-3.4,2.7-6.2,6.3-6.2c3.6,0,6.2,2.7,6.2,6.1v0c0,3.3-2.7,6.1-6.3,6.1
			C50.2,77.9,47.6,75.2,47.6,71.8z M57.4,71.8L57.4,71.8c0-2.1-1.5-3.8-3.6-3.8c-2.2,0-3.5,1.7-3.5,3.7v0c0,2,1.5,3.8,3.6,3.8
			C56,75.6,57.4,73.9,57.4,71.8z"/>
		<path d="M63.4,74.4v-6.2H63c-0.6,0-1.2-0.5-1.2-1.2c0-0.6,0.5-1.2,1.2-1.2h0.4v-2c0-0.7,0.6-1.3,1.4-1.3c0.7,0,1.3,0.6,1.3,1.3v2
			h2.1c0.6,0,1.2,0.5,1.2,1.2c0,0.6-0.5,1.2-1.2,1.2h-2.1V74c0,1,0.5,1.5,1.4,1.5c0.3,0,0.6-0.1,0.7-0.1c0.6,0,1.1,0.5,1.1,1.1
			c0,0.5-0.3,0.9-0.7,1c-0.6,0.2-1.1,0.3-1.8,0.3C64.8,77.8,63.4,77,63.4,74.4z"/>
		<path d="M77,77.9c-3.4,0-6-2.5-6-6.1v0c0-3.4,2.4-6.1,5.7-6.1c3.7,0,5.6,3.1,5.6,5.8c0,0.8-0.6,1.3-1.3,1.3h-7.4
			c0.3,1.9,1.6,3,3.4,3c1.1,0,2-0.4,2.8-1c0.2-0.2,0.4-0.2,0.7-0.2c0.6,0,1.1,0.5,1.1,1.1c0,0.3-0.2,0.6-0.4,0.8
			C80.2,77.3,78.9,77.9,77,77.9z M79.7,70.9c-0.2-1.7-1.2-3.1-3-3.1c-1.6,0-2.8,1.3-3,3.1H79.7z"/>
	</g>
	<g>
		<path class="st2" d="M31.1,78.7c0,0.8-0.6,1.3-1.3,1.3c-0.8,0-1.4-0.6-1.4-1.3v-4.3c-0.9,1.2-2.1,2.2-4,2.2
			c-2.8,0-5.4-2.2-5.4-6.1v0c0-3.9,2.6-6.1,5.4-6.1c1.9,0,3.2,1,4,2.1v-0.6c0-0.7,0.6-1.3,1.3-1.3c0.8,0,1.4,0.6,1.4,1.4V78.7z
			 M21.6,70.4L21.6,70.4c0,2.3,1.6,3.8,3.4,3.8c1.8,0,3.4-1.5,3.4-3.8v0c0-2.3-1.6-3.8-3.4-3.8C23.2,66.7,21.6,68.1,21.6,70.4z"/>
		<path class="st2" d="M44.9,75.1c0,0.7-0.6,1.3-1.4,1.3c-0.7,0-1.4-0.6-1.4-1.3v-0.6c-0.8,1.1-1.8,2.1-3.7,2.1
			c-2.6,0-4.2-1.8-4.2-4.5v-6.2c0-0.8,0.6-1.4,1.3-1.4c0.8,0,1.4,0.6,1.4,1.4v5.4c0,1.8,0.9,2.8,2.5,2.8c1.6,0,2.6-1.1,2.6-2.9v-5.4
			c0-0.8,0.6-1.4,1.4-1.4c0.7,0,1.4,0.6,1.4,1.4V75.1z"/>
		<path class="st2" d="M47.6,70.5L47.6,70.5c0-3.4,2.7-6.2,6.3-6.2c3.6,0,6.2,2.7,6.2,6.1v0c0,3.3-2.7,6.1-6.3,6.1
			C50.2,76.6,47.6,73.9,47.6,70.5z M57.4,70.5L57.4,70.5c0-2.1-1.5-3.8-3.6-3.8c-2.2,0-3.5,1.7-3.5,3.7v0c0,2,1.5,3.8,3.6,3.8
			C56,74.2,57.4,72.5,57.4,70.5z"/>
		<path class="st2" d="M63.4,73.1v-6.2H63c-0.6,0-1.2-0.5-1.2-1.2c0-0.6,0.5-1.2,1.2-1.2h0.4v-2c0-0.7,0.6-1.3,1.4-1.3
			c0.7,0,1.3,0.6,1.3,1.3v2h2.1c0.6,0,1.2,0.5,1.2,1.2c0,0.6-0.5,1.2-1.2,1.2h-2.1v5.8c0,1,0.5,1.5,1.4,1.5c0.3,0,0.6-0.1,0.7-0.1
			c0.6,0,1.1,0.5,1.1,1.1c0,0.5-0.3,0.9-0.7,1c-0.6,0.2-1.1,0.3-1.8,0.3C64.8,76.5,63.4,75.7,63.4,73.1z"/>
		<path class="st2" d="M77,76.6c-3.4,0-6-2.5-6-6.1v0c0-3.4,2.4-6.1,5.7-6.1c3.7,0,5.6,3.1,5.6,5.8c0,0.8-0.6,1.3-1.3,1.3h-7.4
			c0.3,1.9,1.6,3,3.4,3c1.1,0,2-0.4,2.8-1c0.2-0.2,0.4-0.2,0.7-0.2c0.6,0,1.1,0.5,1.1,1.1c0,0.3-0.2,0.6-0.4,0.8
			C80.2,76,78.9,76.6,77,76.6z M79.7,69.6c-0.2-1.7-1.2-3.1-3-3.1c-1.6,0-2.8,1.3-3,3.1H79.7z"/>
	</g>
</g>
</svg>
