<?xml version="1.0" encoding="utf-8"?>
<!-- Generator: Adobe Illustrator 21.0.2, SVG Export Plug-In . SVG Version: 6.00 Build 0)  -->
<svg version="1.1" id="Layer_1" xmlns="http://www.w3.org/2000/svg" xmlns:xlink="http://www.w3.org/1999/xlink" x="0px" y="0px"
	 viewBox="0 0 182 100" style="enable-background:new 0 0 182 100;" xml:space="preserve">
<style type="text/css">
	.st0{fill:#434343;}
	.st1{fill:#FFFFFF;}
	.st2{fill:#737373;}
	.st3{fill:#B3B3B3;}
</style>
<path id="XMLID_203_" class="st0" d="M136.3,48.4c1.6,1.1,2.9,2.5,3.9,4.2c1,1.7,1.5,3.7,1.5,5.7V74h-5.3v-5.6v-10
	c0-0.9-0.2-1.7-0.5-2.5c-0.3-0.8-0.8-1.5-1.4-2.1c-0.6-0.6-1.3-1.1-2.1-1.4c-0.8-0.3-1.6-0.5-2.5-0.5c-0.9,0-1.8,0.2-2.6,0.5
	c-0.8,0.3-1.5,0.8-2.1,1.4c-0.6,0.6-1.1,1.3-1.4,2.1c-0.3,0.8-0.5,1.6-0.5,2.5v10V74h-5.3v-5.6v-10c0-0.9-0.2-1.7-0.5-2.5
	c-0.3-0.8-0.8-1.5-1.4-2.1c-0.6-0.6-1.3-1.1-2.1-1.4c-0.8-0.3-1.6-0.5-2.5-0.5c-0.9,0-1.8,0.2-2.6,0.5c-0.8,0.3-1.5,0.8-2.1,1.4
	c-0.6,0.6-1.1,1.3-1.4,2.1c-0.3,0.8-0.5,1.6-0.5,2.5v10V74h-5.3V58.4V46.5h5.3v2c1-0.6,2-1.1,3.1-1.5c1.1-0.3,2.3-0.5,3.5-0.5
	c1.2,0,2.4,0.2,3.5,0.5c1.1,0.3,2.2,0.8,3.1,1.5c1,0.7,1.9,1.5,2.7,2.5c0.8-1,1.6-1.8,2.6-2.5c1-0.6,2-1.1,3.1-1.5
	c1.1-0.3,2.3-0.5,3.5-0.5c1.2,0,2.4,0.2,3.5,0.5C134.3,47.3,135.4,47.8,136.3,48.4z"/>
<path id="XMLID_201_" class="st0" d="M159.9,52.4h-5V74h-5.3V52.4h-5v-5.3h5v-8.3h5.3v8.3h5V52.4z"/>
<path id="XMLID_199_" class="st0" d="M178.2,61.7c0.5,0.7,0.9,1.4,1.1,2.3c0.3,0.8,0.4,1.7,0.4,2.6c0,1.1-0.3,2.2-0.8,3.2
	c-0.5,1-1.1,1.8-1.9,2.5c-0.8,0.7-1.7,1.3-2.8,1.7c-1.1,0.4-2.2,0.6-3.4,0.5c-1.7-0.1-3.2-0.5-4.5-1.3c-1.3-0.8-2.3-1.8-3-3.2
	l4.5-3.1c0.2,0.6,0.6,1.1,1.1,1.6c0.6,0.4,1.3,0.6,2.1,0.6c0.9,0,1.7-0.2,2.4-0.8c0.7-0.5,1-1.2,1-2c0-0.2,0-0.4-0.1-0.5v-0.1
	c0-0.1-0.1-0.1-0.1-0.2c0-0.1,0-0.1-0.1-0.2c-0.2-0.6-0.7-1.1-1.3-1.5c-0.1-0.1-0.3-0.1-0.5-0.2l0.1-0.1c-0.5-0.3-1-0.5-1.6-0.8
	c-0.6-0.3-1.2-0.5-1.8-0.8c-0.6-0.3-1.2-0.6-1.8-0.9c-0.6-0.3-1.1-0.7-1.7-1.2v-0.1l-0.2-0.2c-0.7-0.7-1.3-1.5-1.7-2.4
	c-0.4-0.9-0.6-1.9-0.6-2.9c0-1,0.3-2,0.7-2.9c0.4-0.9,1-1.7,1.8-2.3c0.7-0.7,1.6-1.2,2.6-1.6c1-0.4,2.1-0.6,3.2-0.5
	c1.5,0.1,2.8,0.4,4,1.1c1.2,0.7,2.1,1.5,2.8,2.6l-4.4,3c-0.2-0.4-0.5-0.7-1-1c-0.5-0.3-1-0.4-1.6-0.4c-0.8,0-1.5,0.2-2,0.6
	c-0.6,0.4-0.9,0.9-0.9,1.5c0,0.2,0,0.3,0.1,0.4c0.1,0.4,0.2,0.7,0.5,1c0.3,0.3,0.6,0.5,1,0.7c0.7,0.4,1.4,0.8,2.3,1.2
	c0.8,0.4,1.7,0.8,2.6,1.3c0.6,0.3,1.2,0.7,1.9,1.2l0.3,0.3C177.4,60.7,177.8,61.2,178.2,61.7z"/>
<polygon id="XMLID_147_" class="st1" points="37.1,5.3 11.7,23.8 31.1,28.4 31.2,32.3 1.7,25.3 34.9,1.4 90.4,14.7 58.5,38.8 
	40.9,34.6 40.9,30.7 56.4,34.4 81.4,16.3 "/>
<path id="XMLID_145_" class="st2" d="M90.4,14.7l-32,24l0.1,20.9l3.9,0.9l0.1-18.4L87,24.1l0.2,45.9l-24.9,18l0.1-17.8l-3.8-0.9
	l0.1,28.1l31.7-23.8L90.4,14.7z"/>
<polygon id="XMLID_144_" class="st1" points="62.4,88.1 87.2,70.1 81.1,68.5 62.4,82.6 "/>
<polygon id="XMLID_143_" class="st3" points="81.1,68.5 81.1,28.5 87,24.1 87.2,70.1 "/>
<polygon id="XMLID_142_" class="st2" points="11.7,23.8 37.1,5.3 37.1,12.4 19.2,25.6 "/>
<polygon id="XMLID_141_" class="st2" points="40.8,13.2 37.1,12.4 37.5,57.9 40.9,55.4 "/>
<polygon id="XMLID_140_" class="st3" points="37.1,5.3 37.1,12.4 74.7,21.2 81.4,16.3 "/>
<polygon id="XMLID_139_" class="st3" points="52.4,43.8 40.8,41 40.9,34.6 58.5,38.8 58.6,59.6 52.3,58.1 "/>
<polygon id="XMLID_138_" class="st2" points="37.5,64.3 37.5,57.9 12.5,76.4 19.1,77.9 "/>
<polygon id="XMLID_137_" class="st1" points="37.5,57.9 12.5,76.4 12.5,70.5 31.4,56.6 "/>
<polygon id="XMLID_136_" class="st2" points="12.5,76.4 7.7,79.6 7.7,33.4 12.5,34.5 "/>
<polygon id="XMLID_135_" class="st1" points="7.7,79.6 12.5,76.4 52.2,85.4 52.2,89.8 "/>
<polygon id="XMLID_134_" class="st3" points="81.2,68.5 37.5,57.9 37.5,64.3 52.4,67.9 52.2,89.8 7.8,79.6 7.8,33.4 31.2,38.8 
	31.4,56.7 37.5,57.9 37.1,12.4 31,16.9 31.2,32.3 1.7,25.3 1.7,84.2 58.8,97.5 58.7,69.4 74.9,73.3 "/>
<polygon id="XMLID_12_" class="st1" points="40.9,55.4 37.5,57.9 81.1,68.5 81.1,65 "/>
</svg>
