<?xml version="1.0" encoding="utf-8"?>
<!-- Generator: Adobe Illustrator 21.0.2, SVG Export Plug-In . SVG Version: 6.00 Build 0)  -->
<svg version="1.1" id="Layer_1" xmlns="http://www.w3.org/2000/svg" xmlns:xlink="http://www.w3.org/1999/xlink" x="0px" y="0px"
	 viewBox="0 0 81.3 100" style="enable-background:new 0 0 81.3 100;" xml:space="preserve">
<style type="text/css">
	.st0{fill:#2CBDC0;}
	.st1{fill:#EEE81A;}
	.st2{fill:#EC3092;}
</style>
<path class="st0" d="M78.9,17.6L31.1,6.1L2.5,26.7l25.3,6.1l0,0L2.2,26.7v50.8l49.3,11.4V64.7l14,3.3l5.4-4L54.7,76.1l0.1-10.6
	l-3.3-0.8l0.1,24.2L79,68.4L78.9,17.6z M36.3,40.2l9.9,2.4L46.1,55l-9.8-2.4V40.2z M49.6,34.5l-13.4-3.1V16.3l29.1,6.8l5.9-4.2
	L49.6,34.5z M11.1,25.5l6.5,1.5L33,15.6v0.1l-5.2,3.8v9.9L11.1,25.5z M27.9,38.3l0.2,15.4L11.8,65.6v-31L27.9,38.3z M17.5,72
	l15.8-11.7l12.8,3.1L46,78.5l-34.2-7.7L17.5,72z M9.3,34.1l-1.6-0.3l0,0L9.3,34.1z M54.8,57l0.1-15.7l15.9-11.8l0.1,31.4L54.8,57z"
	/>
<g id="XMLID_184_">
	<polygon id="XMLID_558_" class="st1" points="33,9.5 11.1,25.5 27.8,29.4 27.9,32.8 2.5,26.7 31.1,6.1 78.9,17.6 51.4,38.3 
		36.2,34.7 36.2,31.4 49.6,34.5 71.2,19 	"/>
	<path id="XMLID_473_" class="st2" d="M78.9,17.6L51.4,38.3l0.1,18l3.3,0.8l0.1-15.8L76,25.7l0.2,39.6L54.7,80.8l0.1-15.3l-3.3-0.8
		l0.1,24.2L79,68.4L78.9,17.6z"/>
	<polygon id="XMLID_472_" class="st1" points="54.7,80.8 76.2,65.3 70.9,64 54.7,76.1 	"/>
	<polygon id="XMLID_1_" class="st0" points="70.9,64 70.8,29.5 76,25.7 76.2,65.3 	"/>
	<polygon id="XMLID_246_" class="st2" points="11.1,25.5 33,9.5 33,15.6 17.6,27 	"/>
	<polygon id="XMLID_193_" class="st2" points="36.2,16.3 33,15.6 33.3,54.8 36.3,52.6 	"/>
	<polygon id="XMLID_192_" class="st0" points="33,9.5 33,15.6 65.3,23.2 71.2,19 	"/>
	<polygon id="XMLID_191_" class="st0" points="46.2,42.6 36.2,40.2 36.2,34.7 51.4,38.3 51.5,56.3 46.1,55 	"/>
	<polygon id="XMLID_190_" class="st2" points="33.3,60.3 33.3,54.8 11.8,70.8 17.5,72 	"/>
	<polygon id="XMLID_189_" class="st1" points="33.3,54.8 11.8,70.8 11.8,65.6 28.1,53.7 	"/>
	<polygon id="XMLID_188_" class="st2" points="11.8,70.8 7.6,73.5 7.6,33.7 11.8,34.6 	"/>
	<polygon id="XMLID_187_" class="st1" points="7.6,73.5 11.8,70.8 46.2,78.5 46.2,82.5 	"/>
	<polygon id="XMLID_186_" class="st0" points="70.9,64 33.3,54.8 33.3,60.3 46.1,63.4 46,82.3 7.7,73.5 7.7,33.7 27.9,38.3 
		28.1,53.7 33.3,54.8 33.1,15.6 27.8,19.5 27.8,32.8 2.2,26.7 2.2,77.5 51.5,88.9 51.5,64.7 65.5,68 	"/>
	<polygon id="XMLID_185_" class="st1" points="36.3,52.6 33.3,54.8 70.9,64 70.9,60.9 	"/>
</g>
</svg>
