<?xml version="1.0" encoding="utf-8"?>
<!-- Generator: Adobe Illustrator 21.1.0, SVG Export Plug-In . SVG Version: 6.00 Build 0)  -->
<svg version="1.1" id="Layer_1" xmlns="http://www.w3.org/2000/svg" xmlns:xlink="http://www.w3.org/1999/xlink" x="0px" y="0px"
	 viewBox="0 0 200 150" style="enable-background:new 0 0 200 150;" xml:space="preserve">
<style type="text/css">
	.st0{fill:none;}
	.st1{fill:#FFFFFF;}
</style>
<rect x="-2.5" y="-3" width="205" height="155.5"/>
<title>logos</title>
<path class="st0" d="M35,12.6h125.3V138H35V12.6z"/>
<g>
	<path class="st1" d="M97.5,19.8c30.5,0,55.2,24.8,55.2,55.2s-24.8,55.2-55.2,55.2S42.3,105.5,42.3,75S67,19.8,97.5,19.8 M97.5,12.8
		c-34.4,0-62.2,27.9-62.2,62.2s27.9,62.2,62.2,62.2s62.2-27.9,62.2-62.2S131.9,12.8,97.5,12.8L97.5,12.8z"/>
	<path class="st1" d="M90.7,63.7l10.5,6.1l10.5,6l-10.5,6.1L90.7,88V63.7 M87.1,54.5c-0.5,0-1,0.1-1.5,0.4c-1,0.6-1.5,1.6-1.5,2.6
		v36.7c0,1.1,0.6,2.1,1.5,2.6c0.5,0.3,1,0.4,1.5,0.4c0.5,0,1.1-0.2,1.5-0.4l15.9-9.2l15.9-9.2c1-0.6,1.5-1.6,1.5-2.6
		c0-1.1-0.6-2.1-1.5-2.6l-15.9-9.1l-15.9-9.2C88.1,54.6,87.6,54.5,87.1,54.5L87.1,54.5z"/>
</g>
<g>
	<path class="st1" d="M-167.8,19.8c30.5,0,55.2,24.8,55.2,55.2s-24.8,55.2-55.2,55.2s-55.2-24.8-55.2-55.2S-198.3,19.8-167.8,19.8
		 M-167.8,12.8c-34.4,0-62.2,27.9-62.2,62.2s27.9,62.2,62.2,62.2s62.2-27.9,62.2-62.2S-133.5,12.8-167.8,12.8L-167.8,12.8z"/>
</g>
<g>
	<path class="st1" d="M-174.6,63.7l10.5,6.1l10.5,6l-10.5,6.1l-10.5,6.1V63.7 M-178.2,54.5c-0.5,0-1,0.1-1.5,0.4
		c-1,0.6-1.5,1.6-1.5,2.6v36.7c0,1.1,0.6,2.1,1.5,2.6c0.5,0.3,1,0.4,1.5,0.4c0.5,0,1.1-0.2,1.5-0.4l15.9-9.2l15.9-9.2
		c1-0.6,1.5-1.6,1.5-2.6c0-1.1-0.6-2.1-1.5-2.6l-15.9-9.1l-15.9-9.2C-177.2,54.6-177.7,54.5-178.2,54.5L-178.2,54.5z"/>
</g>
<path class="st0" d="M35,12.6h125.3V138H35V12.6z"/>
</svg>
