<?xml version="1.0" encoding="utf-8"?>
<!-- Generator: Adobe Illustrator 21.0.2, SVG Export Plug-In . SVG Version: 6.00 Build 0)  -->
<svg version="1.1" id="Layer_1" xmlns="http://www.w3.org/2000/svg" xmlns:xlink="http://www.w3.org/1999/xlink" x="0px" y="0px"
	 viewBox="0 0 100 100" style="enable-background:new 0 0 100 100;" xml:space="preserve">
<style type="text/css">
	.st0{fill:#FFFFFF;}
</style>
<g>
	<g>
		<g>
			<path class="st0" d="M16.9,51c-0.3-0.1-0.5-0.3-0.5-0.7s0.3-0.7,0.7-0.7c0.1,0,0.2,0,0.3,0.1c0.2,0.1,0.4,0.1,0.6,0.1
				c0.5,0,0.8-0.2,1.1-0.8l0.1-0.2l-2.9-6.3c-0.1-0.1-0.1-0.3-0.1-0.4c0-0.5,0.4-0.8,0.9-0.8c0.4,0,0.7,0.3,0.8,0.7l2,5l1.9-5
				c0.1-0.4,0.4-0.7,0.8-0.7c0.5,0,0.8,0.4,0.8,0.8c0,0.1,0,0.3-0.1,0.4l-2.8,6.6c-0.6,1.5-1.3,2.1-2.5,2.1
				C17.6,51.2,17.2,51.2,16.9,51z"/>
		</g>
		<g>
			<path class="st0" d="M24.4,45.2L24.4,45.2c0-2.2,1.7-4,4-4s4,1.8,4,3.9l0,0c0,2.1-1.7,3.9-4,3.9C26.1,49.1,24.4,47.3,24.4,45.2z
				 M30.7,45.2L30.7,45.2c0-1.4-1-2.5-2.3-2.5c-1.4,0-2.3,1.1-2.3,2.4l0,0c0,1.3,1,2.4,2.3,2.4C29.8,47.6,30.7,46.5,30.7,45.2z"/>
		</g>
		<g>
			<path class="st0" d="M40.9,48.1c0,0.5-0.4,0.9-0.9,0.9s-0.9-0.4-0.9-0.9v-0.4c-0.5,0.7-1.2,1.3-2.4,1.3C35,49,34,47.9,34,46.1v-4
				c0-0.5,0.4-0.9,0.9-0.9c0.5,0,0.9,0.4,0.9,0.9v3.5c0,1.2,0.6,1.8,1.6,1.8s1.7-0.7,1.7-1.9V42c0-0.5,0.4-0.9,0.9-0.9
				s0.9,0.4,0.9,0.9C40.9,42,40.9,48.1,40.9,48.1z"/>
		</g>
		<g>
			<path class="st0" d="M43,42.2c0-0.5,0.4-0.9,0.9-0.9s0.9,0.4,0.9,0.9V43c0.4-0.9,1.1-1.7,1.9-1.7c0.5,0,0.9,0.4,0.9,0.9
				S47.3,43,46.9,43c-1.2,0.2-2.1,1.2-2.1,2.9v2.2c0,0.5-0.4,0.9-0.9,0.9S43,48.6,43,48.1C43,48.1,43,42.2,43,42.2z"/>
		</g>
		<g>
			<path class="st0" d="M53.3,39.3c0-0.5,0.4-0.9,0.9-0.9s0.9,0.4,0.9,0.9v8.9c0,0.5-0.4,0.9-0.9,0.9s-0.9-0.4-0.9-0.9V39.3z"/>
		</g>
		<g>
			<path class="st0" d="M56.9,45.2L56.9,45.2c0-2.2,1.7-4,4-4s4,1.8,4,3.9l0,0c0,2.1-1.7,3.9-4,3.9C58.6,49.1,56.9,47.3,56.9,45.2z
				 M63.2,45.2L63.2,45.2c0-1.4-1-2.5-2.3-2.5c-1.4,0-2.3,1.1-2.3,2.4l0,0c0,1.3,1,2.4,2.3,2.4C62.3,47.6,63.2,46.5,63.2,45.2z"/>
		</g>
		<g>
			<path class="st0" d="M67.1,50.5c-0.3-0.1-0.5-0.4-0.5-0.7c0-0.4,0.3-0.7,0.7-0.7c0.1,0,0.2,0,0.3,0.1c0.7,0.4,1.4,0.6,2.3,0.6
				c1.5,0,2.4-0.8,2.4-2.3v-0.6c-0.6,0.8-1.4,1.4-2.7,1.4c-1.8,0-3.4-1.3-3.4-3.5l0,0c0-2.2,1.7-3.5,3.4-3.5c1.3,0,2.1,0.6,2.6,1.3
				v-0.4c0-0.5,0.4-0.9,0.9-0.9s0.9,0.4,0.9,0.9v5.2c0,1.3-0.3,2.2-1,2.8c-0.7,0.7-1.7,1-3.1,1C69,51.2,68,51,67.1,50.5z M72.4,44.8
				L72.4,44.8c0-1.3-1-2.1-2.2-2.1s-2.1,0.8-2.1,2.1l0,0c0,1.2,1,2.1,2.1,2.1C71.4,46.8,72.4,46,72.4,44.8z"/>
		</g>
		<g>
			<path class="st0" d="M75.8,45.2L75.8,45.2c0-2.2,1.7-4,4-4s4,1.8,4,3.9l0,0c0,2.1-1.7,3.9-4,3.9C77.5,49.1,75.8,47.3,75.8,45.2z
				 M82.1,45.2L82.1,45.2c0-1.4-1-2.5-2.3-2.5c-1.4,0-2.3,1.1-2.3,2.4l0,0c0,1.3,1,2.4,2.3,2.4C81.3,47.6,82.1,46.5,82.1,45.2z"/>
		</g>
		<g>
			<path class="st0" d="M16.7,56.4c0-0.5,0.4-0.9,0.9-0.9s0.9,0.4,0.9,0.9v3.3c0.5-0.7,1.2-1.3,2.4-1.3c1.7,0,2.7,1.1,2.7,2.9v4
				c0,0.5-0.4,0.9-0.9,0.9s-0.9-0.4-0.9-0.9v-3.5c0-1.2-0.6-1.8-1.6-1.8s-1.7,0.7-1.7,1.9v3.5c0,0.5-0.4,0.9-0.9,0.9
				s-0.9-0.4-0.9-0.9C16.7,65.4,16.7,56.4,16.7,56.4z"/>
		</g>
		<g>
			<path class="st0" d="M29,66.2c-2.2,0-3.9-1.6-3.9-3.9l0,0c0-2.2,1.5-3.9,3.7-3.9c2.4,0,3.6,2,3.6,3.7c0,0.5-0.4,0.8-0.8,0.8h-4.7
				c0.2,1.2,1.1,1.9,2.2,1.9c0.7,0,1.3-0.3,1.8-0.7c0.1-0.1,0.2-0.2,0.4-0.2c0.4,0,0.7,0.3,0.7,0.7c0,0.2-0.1,0.4-0.2,0.5
				C31.1,65.8,30.2,66.2,29,66.2z M30.7,61.7c-0.1-1.1-0.8-2-1.9-2c-1.1,0-1.8,0.8-2,2H30.7z"/>
		</g>
		<g>
			<path class="st0" d="M34.2,59.3c0-0.5,0.4-0.9,0.9-0.9s0.9,0.4,0.9,0.9v0.8c0.4-0.9,1.1-1.7,1.9-1.7c0.5,0,0.9,0.4,0.9,0.9
				s-0.3,0.8-0.7,0.8C36.9,60.3,36,61.3,36,63v2.2c0,0.5-0.4,0.9-0.9,0.9c-0.5,0-0.9-0.4-0.9-0.9C34.2,65.2,34.2,59.3,34.2,59.3z"/>
		</g>
		<g>
			<path class="st0" d="M43.3,66.2c-2.2,0-3.9-1.6-3.9-3.9l0,0c0-2.2,1.5-3.9,3.7-3.9c2.4,0,3.6,2,3.6,3.7c0,0.5-0.4,0.8-0.8,0.8
				h-4.7c0.1,1.2,1,1.9,2.1,1.9c0.7,0,1.3-0.3,1.8-0.7c0.1-0.1,0.2-0.2,0.4-0.2c0.4,0,0.7,0.3,0.7,0.7c0,0.2-0.1,0.4-0.2,0.5
				C45.3,65.8,44.5,66.2,43.3,66.2z M45,61.7c-0.1-1.1-0.8-2-1.9-2c-1.1,0-1.8,0.8-2,2H45z"/>
		</g>
		<g>
			<path class="st0" d="M53.7,58.4c0.6,0,1,0.4,1,1v0.1c0,0.6-0.4,1-1,1s-1-0.4-1-1v-0.1C52.6,58.8,53.1,58.4,53.7,58.4z M53.7,64
				c0.6,0,1,0.4,1,1v0.1c0,0.6-0.4,1-1,1s-1-0.4-1-1V65C52.6,64.4,53.1,64,53.7,64z"/>
		</g>
		<g>
			<path class="st0" d="M56.3,67.3c0-0.3,0.1-0.5,0.3-0.6c1.8-1.3,2.7-2.7,2.7-4.7c0-2-0.9-3.5-2.7-4.7c-0.2-0.1-0.3-0.3-0.3-0.6
				c0-0.4,0.3-0.7,0.7-0.7c0.2,0,0.4,0.1,0.4,0.1c2.4,1.4,3.6,3.3,3.6,5.9s-1.3,4.5-3.6,5.9c-0.1,0-0.2,0.1-0.4,0.1
				C56.6,68,56.3,67.6,56.3,67.3z"/>
		</g>
	</g>
	<g>
		<g>
			<path class="st0" d="M91.9,91.9h-3.5c-0.6,0-1-0.4-1-1s0.4-1,1-1h1.5v-1.5c0-0.6,0.4-1,1-1s1,0.4,1,1V91.9z"/>
		</g>
		<g>
			<path class="st0" d="M83.3,91.9h-5.1c-0.6,0-1-0.4-1-1s0.4-1,1-1h5.1c0.6,0,1,0.4,1,1S83.8,91.9,83.3,91.9z M73,91.9h-5.1
				c-0.6,0-1-0.4-1-1s0.4-1,1-1H73c0.6,0,1,0.4,1,1S73.6,91.9,73,91.9z M62.8,91.9h-5.1c-0.6,0-1-0.4-1-1s0.4-1,1-1h5.1
				c0.6,0,1,0.4,1,1S63.4,91.9,62.8,91.9z M52.6,91.9h-5.1c-0.6,0-1-0.4-1-1s0.4-1,1-1h5.1c0.6,0,1,0.4,1,1S53.1,91.9,52.6,91.9z
				 M42.3,91.9h-5.1c-0.6,0-1-0.4-1-1s0.4-1,1-1h5.1c0.6,0,1,0.4,1,1S42.9,91.9,42.3,91.9z M32.1,91.9H27c-0.6,0-1-0.4-1-1
				s0.4-1,1-1h5.1c0.6,0,1,0.4,1,1S32.6,91.9,32.1,91.9z M21.8,91.9h-5.1c-0.6,0-1-0.4-1-1s0.4-1,1-1h5.1c0.6,0,1,0.4,1,1
				S22.4,91.9,21.8,91.9z"/>
		</g>
		<g>
			<path class="st0" d="M11.6,91.9H8.1v-3.5c0-0.6,0.4-1,1-1s1,0.4,1,1v1.5h1.5c0.6,0,1,0.4,1,1S12.1,91.9,11.6,91.9z"/>
		</g>
		<g>
			<path class="st0" d="M9.1,84.3c-0.6,0-1-0.4-1-1v-5.1c0-0.6,0.4-1,1-1s1,0.4,1,1v5.1C10.1,83.8,9.6,84.3,9.1,84.3z M9.1,74
				c-0.6,0-1-0.4-1-1v-5.1c0-0.6,0.4-1,1-1s1,0.4,1,1V73C10.1,73.6,9.6,74,9.1,74z M9.1,63.8c-0.6,0-1-0.4-1-1v-5.1c0-0.6,0.4-1,1-1
				s1,0.4,1,1v5.1C10.1,63.4,9.6,63.8,9.1,63.8z M9.1,53.6c-0.6,0-1-0.4-1-1v-5.1c0-0.6,0.4-1,1-1s1,0.4,1,1v5.1
				C10.1,53.1,9.6,53.6,9.1,53.6z M9.1,43.3c-0.6,0-1-0.4-1-1v-5.1c0-0.6,0.4-1,1-1s1,0.4,1,1v5.1C10.1,42.9,9.6,43.3,9.1,43.3z
				 M9.1,33.1c-0.6,0-1-0.4-1-1V27c0-0.6,0.4-1,1-1s1,0.4,1,1v5.1C10.1,32.6,9.6,33.1,9.1,33.1z M9.1,22.8c-0.6,0-1-0.4-1-1v-5.1
				c0-0.6,0.4-1,1-1s1,0.4,1,1v5.1C10.1,22.4,9.6,22.8,9.1,22.8z"/>
		</g>
		<g>
			<path class="st0" d="M9.1,12.6c-0.6,0-1-0.4-1-1V8.1h3.5c0.6,0,1,0.4,1,1s-0.4,1-1,1h-1.5v1.5C10.1,12.2,9.6,12.6,9.1,12.6z"/>
		</g>
		<g>
			<path class="st0" d="M83.3,10.1h-5.1c-0.6,0-1-0.4-1-1s0.4-1,1-1h5.1c0.6,0,1,0.4,1,1S83.8,10.1,83.3,10.1z M73,10.1h-5.1
				c-0.6,0-1-0.4-1-1s0.4-1,1-1H73c0.6,0,1,0.4,1,1S73.6,10.1,73,10.1z M62.8,10.1h-5.1c-0.6,0-1-0.4-1-1s0.4-1,1-1h5.1
				c0.6,0,1,0.4,1,1S63.4,10.1,62.8,10.1z M52.6,10.1h-5.1c-0.6,0-1-0.4-1-1s0.4-1,1-1h5.1c0.6,0,1,0.4,1,1S53.1,10.1,52.6,10.1z
				 M42.3,10.1h-5.1c-0.6,0-1-0.4-1-1s0.4-1,1-1h5.1c0.6,0,1,0.4,1,1S42.9,10.1,42.3,10.1z M32.1,10.1H27c-0.6,0-1-0.4-1-1
				s0.4-1,1-1h5.1c0.6,0,1,0.4,1,1S32.6,10.1,32.1,10.1z M21.8,10.1h-5.1c-0.6,0-1-0.4-1-1s0.4-1,1-1h5.1c0.6,0,1,0.4,1,1
				S22.4,10.1,21.8,10.1z"/>
		</g>
		<g>
			<path class="st0" d="M90.9,12.6c-0.6,0-1-0.4-1-1v-1.5h-1.5c-0.6,0-1-0.4-1-1s0.4-1,1-1h3.5v3.5C91.9,12.2,91.5,12.6,90.9,12.6z"
				/>
		</g>
		<g>
			<path class="st0" d="M90.9,84.3c-0.6,0-1-0.4-1-1v-5.1c0-0.6,0.4-1,1-1s1,0.4,1,1v5.1C91.9,83.8,91.5,84.3,90.9,84.3z M90.9,74
				c-0.6,0-1-0.4-1-1v-5.1c0-0.6,0.4-1,1-1s1,0.4,1,1V73C91.9,73.6,91.5,74,90.9,74z M90.9,63.8c-0.6,0-1-0.4-1-1v-5.1
				c0-0.6,0.4-1,1-1s1,0.4,1,1v5.1C91.9,63.4,91.5,63.8,90.9,63.8z M90.9,53.6c-0.6,0-1-0.4-1-1v-5.1c0-0.6,0.4-1,1-1s1,0.4,1,1v5.1
				C91.9,53.1,91.5,53.6,90.9,53.6z M90.9,43.3c-0.6,0-1-0.4-1-1v-5.1c0-0.6,0.4-1,1-1s1,0.4,1,1v5.1C91.9,42.9,91.5,43.3,90.9,43.3
				z M90.9,33.1c-0.6,0-1-0.4-1-1V27c0-0.6,0.4-1,1-1s1,0.4,1,1v5.1C91.9,32.6,91.5,33.1,90.9,33.1z M90.9,22.8c-0.6,0-1-0.4-1-1
				v-5.1c0-0.6,0.4-1,1-1s1,0.4,1,1v5.1C91.9,22.4,91.5,22.8,90.9,22.8z"/>
		</g>
	</g>
</g>
</svg>
