<?xml version="1.0" encoding="utf-8"?>
<!-- Generator: Adobe Illustrator 21.0.2, SVG Export Plug-In . SVG Version: 6.00 Build 0)  -->
<svg version="1.1" id="Layer_1" xmlns="http://www.w3.org/2000/svg" xmlns:xlink="http://www.w3.org/1999/xlink" x="0px" y="0px"
	 viewBox="0 0 93 100" style="enable-background:new 0 0 93 100;" xml:space="preserve">
<style type="text/css">
	.st0{fill:#FFFFFF;}
</style>
<g>
	<g>
		<path class="st0" d="M85.9,21.8c-0.6,0-1-0.4-1-1l0-1.7l-1.7-0.4c-0.5-0.1-0.9-0.7-0.7-1.2c0.1-0.5,0.7-0.9,1.2-0.7l2.4,0.6
			c0.4,0.1,0.7,0.4,0.7,0.7c0,0.1,0,0.2,0,0.3l0,2.4C86.9,21.3,86.5,21.8,85.9,21.8C85.9,21.8,85.9,21.8,85.9,21.8z"/>
	</g>
	<g>
		<path class="st0" d="M78.5,17.5c-0.1,0-0.2,0-0.2,0l-5-1.2c-0.5-0.1-0.9-0.7-0.7-1.2c0.1-0.5,0.7-0.9,1.2-0.7l5,1.2
			c0.5,0.1,0.9,0.7,0.7,1.2C79.4,17.2,79,17.5,78.5,17.5z M68.5,15.1c-0.1,0-0.2,0-0.2,0l-5-1.2c-0.5-0.1-0.9-0.7-0.7-1.2
			c0.1-0.5,0.7-0.9,1.2-0.7l5,1.2c0.5,0.1,0.9,0.7,0.7,1.2C69.4,14.8,68.9,15.1,68.5,15.1z M58.5,12.7c-0.1,0-0.2,0-0.2,0l-5-1.2
			c-0.5-0.1-0.9-0.7-0.7-1.2s0.7-0.9,1.2-0.7l5,1.2c0.5,0.1,0.9,0.7,0.7,1.2C59.3,12.4,58.9,12.7,58.5,12.7z M48.5,10.3
			c-0.1,0-0.2,0-0.2,0l-5-1.2c-0.5-0.1-0.9-0.7-0.7-1.2s0.7-0.9,1.2-0.7l5,1.2c0.5,0.1,0.9,0.7,0.7,1.2
			C49.3,9.9,48.9,10.3,48.5,10.3z"/>
	</g>
	<g>
		<path class="st0" d="M34,8.7c-0.3,0-0.6-0.1-0.8-0.4c-0.3-0.4-0.2-1.1,0.2-1.4l2-1.5c0.2-0.2,0.5-0.2,0.8-0.2l2.4,0.6
			c0.5,0.1,0.9,0.7,0.7,1.2c-0.1,0.5-0.7,0.9-1.2,0.7l-2-0.5l-1.7,1.2C34.4,8.7,34.2,8.7,34,8.7z"/>
	</g>
	<g>
		<path class="st0" d="M11.9,24.6c-0.3,0-0.6-0.1-0.8-0.4c-0.3-0.4-0.2-1.1,0.2-1.4l3.7-2.7c0.4-0.3,1.1-0.2,1.4,0.2
			c0.3,0.4,0.2,1.1-0.2,1.4l-3.7,2.7C12.4,24.6,12.1,24.6,11.9,24.6z M19.3,19.3c-0.3,0-0.6-0.1-0.8-0.4c-0.3-0.4-0.2-1.1,0.2-1.4
			l3.7-2.7c0.4-0.3,1.1-0.2,1.4,0.2c0.3,0.4,0.2,1.1-0.2,1.4l-3.7,2.7C19.7,19.3,19.5,19.3,19.3,19.3z M26.7,14
			c-0.3,0-0.6-0.1-0.8-0.4c-0.3-0.4-0.2-1.1,0.2-1.4l3.7-2.7c0.4-0.3,1.1-0.2,1.4,0.2c0.3,0.4,0.2,1.1-0.2,1.4l-3.7,2.7
			C27.1,14,26.9,14,26.7,14z"/>
	</g>
	<g>
		<path class="st0" d="M6.2,31.3c-0.6,0-1-0.4-1-1v-2.5c0-0.4,0.2-0.7,0.5-0.9l2-1.4c0.4-0.3,1.1-0.2,1.4,0.2
			c0.3,0.4,0.2,1.1-0.2,1.4l-1.6,1.2v2C7.2,30.8,6.8,31.3,6.2,31.3z"/>
	</g>
	<g>
		<path class="st0" d="M6.2,73.9c-0.6,0-1-0.4-1-1v-5.3c0-0.6,0.4-1,1-1s1,0.4,1,1v5.3C7.2,73.4,6.8,73.9,6.2,73.9z M6.2,63.2
			c-0.6,0-1-0.4-1-1v-5.3c0-0.6,0.4-1,1-1s1,0.4,1,1v5.3C7.2,62.8,6.8,63.2,6.2,63.2z M6.2,52.6c-0.6,0-1-0.4-1-1v-5.3
			c0-0.6,0.4-1,1-1s1,0.4,1,1v5.3C7.2,52.1,6.8,52.6,6.2,52.6z M6.2,41.9c-0.6,0-1-0.4-1-1v-5.3c0-0.6,0.4-1,1-1s1,0.4,1,1v5.3
			C7.2,41.5,6.8,41.9,6.2,41.9z"/>
	</g>
	<g>
		<path class="st0" d="M8.7,82.3c-0.1,0-0.2,0-0.2,0L6,81.7c-0.5-0.1-0.8-0.5-0.8-1v-2.5c0-0.6,0.4-1,1-1s1,0.4,1,1v1.7l1.7,0.4
			c0.5,0.1,0.9,0.7,0.7,1.2C9.5,82,9.1,82.3,8.7,82.3z"/>
	</g>
	<g>
		<path class="st0" d="M49.9,91.9c-0.1,0-0.2,0-0.2,0l-5.2-1.2c-0.5-0.1-0.9-0.7-0.7-1.2s0.7-0.9,1.2-0.7l5.2,1.2
			c0.5,0.1,0.9,0.7,0.7,1.2C50.8,91.6,50.4,91.9,49.9,91.9z M39.6,89.5c-0.1,0-0.2,0-0.2,0l-5.2-1.2c-0.5-0.1-0.9-0.7-0.7-1.2
			c0.1-0.5,0.7-0.9,1.2-0.7l5.2,1.2c0.5,0.1,0.9,0.7,0.7,1.2C40.5,89.2,40.1,89.5,39.6,89.5z M29.3,87.1c-0.1,0-0.2,0-0.2,0
			l-5.2-1.2c-0.5-0.1-0.9-0.7-0.7-1.2c0.1-0.5,0.7-0.9,1.2-0.7l5.2,1.2c0.5,0.1,0.9,0.7,0.7,1.2C30.2,86.8,29.8,87.1,29.3,87.1z
			 M19,84.7c-0.1,0-0.2,0-0.2,0l-5.2-1.2c-0.5-0.1-0.9-0.7-0.7-1.2c0.1-0.5,0.7-0.9,1.2-0.7l5.2,1.2c0.5,0.1,0.9,0.7,0.7,1.2
			C19.9,84.4,19.4,84.7,19,84.7z"/>
	</g>
	<g>
		<path class="st0" d="M57.5,93.6c-0.1,0-0.2,0-0.2,0L54.9,93c-0.5-0.1-0.9-0.7-0.7-1.2s0.7-0.9,1.2-0.7l2,0.5l1.6-1.2
			c0.4-0.3,1.1-0.2,1.4,0.2c0.3,0.4,0.2,1.1-0.2,1.4l-2,1.5C57.9,93.6,57.7,93.6,57.5,93.6z"/>
	</g>
	<g>
		<path class="st0" d="M63,89.5c-0.3,0-0.6-0.1-0.8-0.4c-0.3-0.4-0.2-1.1,0.2-1.4l3.5-2.6c0.4-0.3,1.1-0.2,1.4,0.2
			c0.3,0.4,0.2,1.1-0.2,1.4l-3.5,2.6C63.4,89.4,63.2,89.5,63,89.5z M70,84.3c-0.3,0-0.6-0.1-0.8-0.4c-0.3-0.4-0.2-1.1,0.2-1.4
			l3.5-2.6c0.4-0.3,1.1-0.2,1.4,0.2c0.3,0.4,0.2,1.1-0.2,1.4l-3.5,2.6C70.4,84.2,70.2,84.3,70,84.3z M77,79c-0.3,0-0.6-0.1-0.8-0.4
			c-0.3-0.4-0.2-1.1,0.2-1.4l3.5-2.6c0.4-0.3,1.1-0.2,1.4,0.2c0.3,0.4,0.2,1.1-0.2,1.4l-3.5,2.6C77.4,78.9,77.2,79,77,79z"/>
	</g>
	<g>
		<path class="st0" d="M84,73.8c-0.3,0-0.6-0.1-0.8-0.4c-0.3-0.4-0.2-1.1,0.2-1.4l1.6-1.2l0-2c0-0.6,0.4-1,1-1c0,0,0,0,0,0
			c0.6,0,1,0.4,1,1l0,2.5c0,0.3-0.1,0.6-0.4,0.8l-2,1.5C84.4,73.7,84.2,73.8,84,73.8z"/>
	</g>
	<g>
		<path class="st0" d="M86,64.4c-0.6,0-1-0.4-1-1l0-5.3c0-0.6,0.4-1,1-1c0,0,0,0,0,0c0.6,0,1,0.4,1,1l0,5.3C87,64,86.5,64.4,86,64.4
			C86,64.4,86,64.4,86,64.4z M86,53.8c-0.6,0-1-0.4-1-1l0-5.3c0-0.6,0.4-1,1-1c0,0,0,0,0,0c0.6,0,1,0.4,1,1l0,5.3
			C87,53.3,86.5,53.8,86,53.8C86,53.8,86,53.8,86,53.8z M86,43.1c-0.6,0-1-0.4-1-1l0-5.3c0-0.6,0.4-1,1-1c0,0,0,0,0,0
			c0.6,0,1,0.4,1,1l0,5.3C87,42.7,86.5,43.1,86,43.1C86,43.1,86,43.1,86,43.1z M86,32.4c-0.6,0-1-0.4-1-1l0-5.3c0-0.6,0.4-1,1-1
			c0,0,0,0,0,0c0.6,0,1,0.4,1,1l0,5.3C87,32,86.5,32.4,86,32.4C86,32.4,86,32.4,86,32.4z"/>
	</g>
</g>
<g>
	<path class="st0" d="M13.6,50.2c-0.3-0.1-0.5-0.3-0.5-0.7c0-0.4,0.3-0.7,0.7-0.7c0.1,0,0.2,0,0.3,0.1c0.2,0.1,0.4,0.1,0.6,0.1
		c0.5,0,0.8-0.2,1.1-0.8l0.1-0.2L13,41.7c-0.1-0.1-0.1-0.3-0.1-0.4c0-0.5,0.4-0.8,0.9-0.8c0.4,0,0.7,0.3,0.8,0.7l2,5l1.9-5
		c0.1-0.4,0.4-0.7,0.8-0.7c0.5,0,0.8,0.4,0.8,0.8c0,0.1,0,0.3-0.1,0.4l-2.8,6.6c-0.6,1.5-1.3,2.1-2.5,2.1
		C14.3,50.4,13.9,50.4,13.6,50.2z"/>
	<path class="st0" d="M21.1,44.4L21.1,44.4c0-2.2,1.7-4,4-4c2.3,0,4,1.8,4,3.9v0c0,2.1-1.7,3.9-4,3.9C22.8,48.3,21.1,46.5,21.1,44.4
		z M27.4,44.4L27.4,44.4c0-1.4-1-2.5-2.3-2.5c-1.4,0-2.3,1.1-2.3,2.4v0c0,1.3,1,2.4,2.3,2.4C26.5,46.8,27.4,45.7,27.4,44.4z"/>
	<path class="st0" d="M37.6,47.3c0,0.5-0.4,0.9-0.9,0.9c-0.5,0-0.9-0.4-0.9-0.9v-0.4c-0.5,0.7-1.2,1.3-2.4,1.3
		c-1.7,0-2.7-1.1-2.7-2.9v-4c0-0.5,0.4-0.9,0.9-0.9c0.5,0,0.9,0.4,0.9,0.9v3.5c0,1.2,0.6,1.8,1.6,1.8c1,0,1.7-0.7,1.7-1.9v-3.5
		c0-0.5,0.4-0.9,0.9-0.9c0.5,0,0.9,0.4,0.9,0.9V47.3z"/>
	<path class="st0" d="M39.7,41.4c0-0.5,0.4-0.9,0.9-0.9s0.9,0.4,0.9,0.9v0.8c0.4-0.9,1.1-1.7,1.9-1.7c0.5,0,0.9,0.4,0.9,0.9
		c0,0.5-0.3,0.8-0.7,0.8c-1.2,0.2-2.1,1.2-2.1,2.9v2.2c0,0.5-0.4,0.9-0.9,0.9c-0.5,0-0.9-0.4-0.9-0.9V41.4z"/>
	<path class="st0" d="M50,38.5c0-0.5,0.4-0.9,0.9-0.9c0.5,0,0.9,0.4,0.9,0.9v8.9c0,0.5-0.4,0.9-0.9,0.9c-0.5,0-0.9-0.4-0.9-0.9V38.5
		z"/>
	<path class="st0" d="M53.6,44.4L53.6,44.4c0-2.2,1.7-4,4-4c2.3,0,4,1.8,4,3.9v0c0,2.1-1.7,3.9-4,3.9C55.3,48.3,53.6,46.5,53.6,44.4
		z M59.9,44.4L59.9,44.4c0-1.4-1-2.5-2.3-2.5c-1.4,0-2.3,1.1-2.3,2.4v0c0,1.3,1,2.4,2.3,2.4C59,46.8,59.9,45.7,59.9,44.4z"/>
	<path class="st0" d="M63.8,49.7c-0.3-0.1-0.5-0.4-0.5-0.7c0-0.4,0.3-0.7,0.7-0.7c0.1,0,0.2,0,0.3,0.1c0.7,0.4,1.4,0.6,2.3,0.6
		c1.5,0,2.4-0.8,2.4-2.3v-0.6c-0.6,0.8-1.4,1.4-2.7,1.4c-1.8,0-3.4-1.3-3.4-3.5v0c0-2.2,1.7-3.5,3.4-3.5c1.3,0,2.1,0.6,2.6,1.3v-0.4
		c0-0.5,0.4-0.9,0.9-0.9c0.5,0,0.9,0.4,0.9,0.9v5.2c0,1.3-0.3,2.2-1,2.8c-0.7,0.7-1.7,1-3.1,1C65.7,50.4,64.7,50.2,63.8,49.7z
		 M69.1,44L69.1,44c0-1.3-1-2.1-2.2-2.1s-2.1,0.8-2.1,2.1v0c0,1.2,1,2.1,2.1,2.1C68.1,46,69.1,45.2,69.1,44z"/>
	<path class="st0" d="M72.5,44.4L72.5,44.4c0-2.2,1.7-4,4-4c2.3,0,4,1.8,4,3.9v0c0,2.1-1.7,3.9-4,3.9C74.2,48.3,72.5,46.5,72.5,44.4
		z M78.8,44.4L78.8,44.4c0-1.4-1-2.5-2.3-2.5c-1.4,0-2.3,1.1-2.3,2.4v0c0,1.3,1,2.4,2.3,2.4C78,46.8,78.8,45.7,78.8,44.4z"/>
	<path class="st0" d="M13.4,55.6c0-0.5,0.4-0.9,0.9-0.9s0.9,0.4,0.9,0.9v3.3c0.5-0.7,1.2-1.3,2.4-1.3c1.7,0,2.7,1.1,2.7,2.9v4
		c0,0.5-0.4,0.9-0.9,0.9c-0.5,0-0.9-0.4-0.9-0.9V61c0-1.2-0.6-1.8-1.6-1.8c-1,0-1.7,0.7-1.7,1.9v3.5c0,0.5-0.4,0.9-0.9,0.9
		c-0.5,0-0.9-0.4-0.9-0.9V55.6z"/>
	<path class="st0" d="M25.7,65.4c-2.2,0-3.9-1.6-3.9-3.9v0c0-2.2,1.5-3.9,3.7-3.9c2.4,0,3.6,2,3.6,3.7c0,0.5-0.4,0.8-0.8,0.8h-4.7
		c0.2,1.2,1.1,1.9,2.2,1.9c0.7,0,1.3-0.3,1.8-0.7c0.1-0.1,0.2-0.2,0.4-0.2c0.4,0,0.7,0.3,0.7,0.7c0,0.2-0.1,0.4-0.2,0.5
		C27.8,65,26.9,65.4,25.7,65.4z M27.4,60.9c-0.1-1.1-0.8-2-1.9-2c-1.1,0-1.8,0.8-2,2H27.4z"/>
	<path class="st0" d="M30.9,58.5c0-0.5,0.4-0.9,0.9-0.9s0.9,0.4,0.9,0.9v0.8c0.4-0.9,1.1-1.7,1.9-1.7c0.5,0,0.9,0.4,0.9,0.9
		c0,0.5-0.3,0.8-0.7,0.8c-1.2,0.2-2.1,1.2-2.1,2.9v2.2c0,0.5-0.4,0.9-0.9,0.9c-0.5,0-0.9-0.4-0.9-0.9V58.5z"/>
	<path class="st0" d="M40,65.4c-2.2,0-3.9-1.6-3.9-3.9v0c0-2.2,1.5-3.9,3.7-3.9c2.4,0,3.6,2,3.6,3.7c0,0.5-0.4,0.8-0.8,0.8h-4.7
		C38,63.3,38.9,64,40,64c0.7,0,1.3-0.3,1.8-0.7c0.1-0.1,0.2-0.2,0.4-0.2c0.4,0,0.7,0.3,0.7,0.7c0,0.2-0.1,0.4-0.2,0.5
		C42,65,41.2,65.4,40,65.4z M41.7,60.9c-0.1-1.1-0.8-2-1.9-2c-1.1,0-1.8,0.8-2,2H41.7z"/>
	<path class="st0" d="M50.4,57.6c0.6,0,1,0.4,1,1v0.1c0,0.6-0.4,1-1,1c-0.6,0-1-0.4-1-1v-0.1C49.3,58,49.8,57.6,50.4,57.6z
		 M50.4,63.2c0.6,0,1,0.4,1,1v0.1c0,0.6-0.4,1-1,1c-0.6,0-1-0.4-1-1v-0.1C49.3,63.6,49.8,63.2,50.4,63.2z"/>
	<path class="st0" d="M53,66.5c0-0.3,0.1-0.5,0.3-0.6c1.8-1.3,2.7-2.7,2.7-4.7c0-2-0.9-3.5-2.7-4.7c-0.2-0.1-0.3-0.3-0.3-0.6
		c0-0.4,0.3-0.7,0.7-0.7c0.2,0,0.4,0.1,0.4,0.1c2.4,1.4,3.6,3.3,3.6,5.9s-1.3,4.5-3.6,5.9c-0.1,0-0.2,0.1-0.4,0.1
		C53.3,67.2,53,66.8,53,66.5z"/>
</g>
</svg>
