<?xml version="1.0" encoding="utf-8"?>
<!-- Generator: Adobe Illustrator 21.0.2, SVG Export Plug-In . SVG Version: 6.00 Build 0)  -->
<svg version="1.1" id="Layer_1" xmlns="http://www.w3.org/2000/svg" xmlns:xlink="http://www.w3.org/1999/xlink" x="0px" y="0px"
	 viewBox="0 0 150 100" style="enable-background:new 0 0 150 100;" xml:space="preserve">
<style type="text/css">
	.st0{fill:#FFFFFF;}
	.st1{fill:#D9D9D9;}
	.st2{fill:#EDEBEC;}
	.st3{fill:#383838;}
</style>
<g id="XMLID_1030_">
	<g id="XMLID_1143_">
		<polygon id="XMLID_1158_" class="st0" points="32.2,8.5 10.2,24.5 27,28.5 27.1,31.9 1.6,25.8 30.3,5.1 78.3,16.6 50.7,37.4 
			35.5,33.8 35.5,30.5 48.9,33.6 70.6,18 		"/>
		<path id="XMLID_1156_" class="st1" d="M78.3,16.6L50.7,37.4l0.1,18l3.3,0.8l0.1-15.9l21.2-15.6l0.2,39.8L54.1,80.1l0.1-15.4
			l-3.3-0.8l0.1,24.3l27.6-20.6L78.3,16.6z"/>
		<polygon id="XMLID_1155_" class="st0" points="54.1,80.1 75.6,64.5 70.3,63.2 54.1,75.3 		"/>
		<polygon id="XMLID_1154_" class="st2" points="70.3,63.2 70.2,28.5 75.4,24.7 75.6,64.5 		"/>
		<polygon id="XMLID_1153_" class="st1" points="10.2,24.5 32.2,8.5 32.2,14.6 16.7,26.1 		"/>
		<polygon id="XMLID_1152_" class="st1" points="35.4,15.3 32.2,14.6 32.5,54 35.5,51.8 		"/>
		<polygon id="XMLID_1151_" class="st2" points="32.2,8.5 32.2,14.6 64.7,22.2 70.6,18 		"/>
		<polygon id="XMLID_1150_" class="st2" points="45.5,41.8 35.4,39.4 35.5,33.8 50.7,37.4 50.8,55.5 45.4,54.2 		"/>
		<polygon id="XMLID_1149_" class="st1" points="32.5,59.5 32.5,54 10.9,70 16.6,71.3 		"/>
		<polygon id="XMLID_1148_" class="st0" points="32.5,54 10.9,70 10.9,64.8 27.3,52.9 		"/>
		<polygon id="XMLID_1147_" class="st1" points="10.9,70 6.7,72.8 6.7,32.7 10.9,33.7 		"/>
		<polygon id="XMLID_1146_" class="st0" points="6.7,72.8 10.9,70 45.5,77.8 45.5,81.8 		"/>
		<polygon id="XMLID_1145_" class="st2" points="70.3,63.2 32.5,54 32.5,59.5 45.4,62.6 45.3,81.6 6.8,72.8 6.8,32.7 27.1,37.4 
			27.3,52.9 32.5,54 32.3,14.6 27,18.5 27,31.9 1.3,25.8 1.3,76.8 50.8,88.2 50.8,63.9 64.8,67.3 		"/>
		<polygon id="XMLID_1144_" class="st0" points="35.5,51.8 32.5,54 70.3,63.2 70.3,60.1 		"/>
	</g>
	<g id="XMLID_1035_">
		<g>
			<path id="XMLID_272_" class="st3" d="M98.6,43.7c0.6,0.4,1.1,0.9,1.5,1.6c0.4,0.7,0.5,1.4,0.5,2.1v5.9h-2v-2.1v-3.8
				c0-0.3-0.1-0.7-0.2-1c-0.1-0.3-0.3-0.6-0.5-0.8c-0.2-0.2-0.5-0.4-0.8-0.5c-0.3-0.1-0.6-0.2-1-0.2c-0.3,0-0.7,0.1-1,0.2
				c-0.3,0.1-0.6,0.3-0.8,0.5c-0.2,0.2-0.4,0.5-0.5,0.8c-0.1,0.3-0.2,0.6-0.2,1v3.8v2.1h-2v-2.1v-3.8c0-0.3-0.1-0.7-0.2-1
				c-0.1-0.3-0.3-0.6-0.5-0.8c-0.2-0.2-0.5-0.4-0.8-0.5c-0.3-0.1-0.6-0.2-1-0.2c-0.3,0-0.7,0.1-1,0.2c-0.3,0.1-0.6,0.3-0.8,0.5
				c-0.2,0.2-0.4,0.5-0.5,0.8c-0.1,0.3-0.2,0.6-0.2,1v3.8v2.1h-2v-5.9V43h2v0.7c0.4-0.2,0.8-0.4,1.2-0.5c0.4-0.1,0.9-0.2,1.3-0.2
				c0.5,0,0.9,0.1,1.3,0.2c0.4,0.1,0.8,0.3,1.2,0.5c0.4,0.2,0.7,0.6,1,0.9c0.3-0.4,0.6-0.7,1-0.9c0.4-0.2,0.8-0.4,1.2-0.5
				c0.4-0.1,0.9-0.2,1.3-0.2c0.5,0,0.9,0.1,1.3,0.2C97.9,43.3,98.2,43.5,98.6,43.7z"/>
			<path id="XMLID_269_" class="st3" d="M108.3,43c0.7,0,1.4,0.1,2,0.4c0.6,0.3,1.2,0.6,1.6,1.1c0.5,0.5,0.8,1,1.1,1.6
				c0.3,0.6,0.4,1.3,0.4,2c0,0.7-0.1,1.4-0.4,2c-0.3,0.6-0.6,1.2-1.1,1.6c-0.5,0.5-1,0.8-1.6,1.1c-0.6,0.3-1.3,0.4-2,0.4
				c-0.7,0-1.4-0.1-2-0.4c-0.6-0.3-1.2-0.6-1.6-1.1c-0.5-0.5-0.8-1-1.1-1.6c-0.3-0.6-0.4-1.3-0.4-2c0-0.7,0.1-1.4,0.4-2
				c0.3-0.6,0.6-1.2,1.1-1.6c0.5-0.5,1-0.8,1.6-1.1C106.9,43.1,107.6,43,108.3,43z M108.3,51.3c0.4,0,0.8-0.1,1.2-0.2
				c0.4-0.2,0.7-0.4,1-0.7c0.3-0.3,0.5-0.6,0.7-1c0.2-0.4,0.2-0.8,0.2-1.2c0-0.4-0.1-0.8-0.2-1.2c-0.2-0.4-0.4-0.7-0.7-1
				c-0.3-0.3-0.6-0.5-1-0.7c-0.4-0.2-0.8-0.2-1.2-0.2c-0.4,0-0.8,0.1-1.2,0.2c-0.4,0.2-0.7,0.4-1,0.7c-0.3,0.3-0.5,0.6-0.7,1
				c-0.2,0.4-0.3,0.8-0.3,1.2c0,0.4,0.1,0.8,0.3,1.2c0.2,0.4,0.4,0.7,0.7,1c0.3,0.3,0.6,0.5,1,0.7C107.5,51.2,107.9,51.3,108.3,51.3
				z"/>
			<path id="XMLID_267_" class="st3" d="M123.2,43.8c0.4,0.3,0.8,0.6,1.1,1.1l-1.1,0.9l-0.4,0.3c-0.2-0.3-0.5-0.6-0.9-0.8
				c-0.4-0.2-0.7-0.3-1.2-0.3c-0.3,0-0.7,0.1-1,0.2c-0.3,0.1-0.6,0.3-0.8,0.5c-0.2,0.2-0.4,0.5-0.5,0.8c-0.1,0.3-0.2,0.6-0.2,1v3.7
				v2.1h-2v-5.8V43h2v0.7c0.3-0.2,0.7-0.4,1.1-0.5c0.4-0.1,0.8-0.2,1.3-0.2c0.5,0,0.9,0.1,1.3,0.2C122.5,43.3,122.9,43.5,123.2,43.8
				z"/>
			<path id="XMLID_264_" class="st3" d="M131.9,48.8h-3.9c0.1,0.3,0.2,0.7,0.4,1c0.2,0.3,0.4,0.6,0.7,0.8c0.3,0.2,0.6,0.4,0.9,0.5
				c0.3,0.1,0.7,0.2,1.1,0.2c0.5,0,0.9-0.1,1.3-0.3c0.4-0.2,0.7-0.4,1-0.8h0.4h2c-0.1,0.2-0.2,0.4-0.3,0.6c-0.1,0.2-0.2,0.3-0.4,0.5
				c-0.5,0.6-1,1.1-1.7,1.4c-0.7,0.4-1.5,0.5-2.3,0.5c-0.7,0-1.4-0.1-2-0.4c-0.6-0.3-1.2-0.6-1.6-1.1c-0.5-0.5-0.8-1-1.1-1.6
				c-0.3-0.6-0.4-1.3-0.4-2c0-0.7,0.1-1.4,0.4-2c0.3-0.6,0.6-1.2,1.1-1.6c0.5-0.5,1-0.8,1.6-1.1c0.6-0.3,1.3-0.4,2-0.4
				c0.8,0,1.6,0.2,2.3,0.5c0.7,0.4,1.3,0.8,1.7,1.4c0.4,0.5,0.7,1.1,0.9,1.8c0.1,0.4,0.2,0.9,0.2,1.3c0,0.2,0,0.5-0.1,0.7h-2H131.9z
				 M131,45c-0.6,0-1.2,0.2-1.7,0.5c-0.5,0.3-0.9,0.8-1.1,1.3h4.5h1.1c-0.1-0.1-0.1-0.2-0.2-0.3c-0.1-0.1-0.1-0.2-0.2-0.3
				c-0.3-0.4-0.7-0.7-1.1-0.9C132,45.1,131.5,45,131,45z"/>
			<path id="XMLID_262_" class="st3" d="M90.4,63.9h-1.9v8.1h-2v-8.1h-1.9v-2h1.9v-3.1h2v3.1h1.9V63.9z"/>
			<path id="XMLID_260_" class="st3" d="M100.1,62.4c0.6,0.4,1.1,0.9,1.5,1.6c0.4,0.7,0.5,1.4,0.5,2.1V72h-2v-2.1v-3.7
				c0-0.3-0.1-0.7-0.2-1c-0.1-0.3-0.3-0.6-0.5-0.8c-0.2-0.2-0.5-0.4-0.8-0.5c-0.3-0.1-0.6-0.2-1-0.2c-0.3,0-0.7,0.1-1,0.2
				c-0.3,0.1-0.6,0.3-0.8,0.5c-0.2,0.2-0.4,0.5-0.5,0.8c-0.1,0.3-0.2,0.6-0.2,1v3.7V72h-2v-5.8v-8.8h2v5.1c0.3-0.2,0.7-0.4,1.2-0.5
				c0.4-0.1,0.9-0.2,1.3-0.2c0.5,0,0.9,0.1,1.3,0.2C99.3,62,99.7,62.2,100.1,62.4z"/>
			<path id="XMLID_257_" class="st3" d="M109.7,61.7c0.7,0,1.4,0.1,2,0.4c0.6,0.3,1.2,0.6,1.6,1.1c0.5,0.5,0.8,1,1.1,1.7
				c0.3,0.6,0.4,1.3,0.4,2v5h-2V71c-0.4,0.3-0.9,0.6-1.5,0.8c-0.5,0.2-1.1,0.3-1.7,0.3c-0.7,0-1.4-0.1-2-0.4
				c-0.6-0.3-1.2-0.6-1.6-1.1c-0.5-0.5-0.8-1-1.1-1.6c-0.3-0.6-0.4-1.3-0.4-2c0-0.7,0.1-1.4,0.4-2c0.3-0.6,0.6-1.2,1.1-1.7
				c0.5-0.5,1-0.8,1.6-1.1C108.4,61.8,109,61.7,109.7,61.7z M109.7,70c0.4,0,0.9-0.1,1.2-0.3c0.4-0.2,0.7-0.4,1-0.7
				c0.3-0.3,0.5-0.6,0.7-1c0.2-0.4,0.3-0.8,0.3-1.2c0-0.4-0.1-0.9-0.3-1.2c-0.2-0.4-0.4-0.7-0.7-1c-0.3-0.3-0.6-0.5-1-0.7
				c-0.4-0.2-0.8-0.3-1.2-0.3c-0.4,0-0.9,0.1-1.2,0.3c-0.4,0.2-0.7,0.4-1,0.7c-0.3,0.3-0.5,0.6-0.7,1c-0.2,0.4-0.3,0.8-0.3,1.2
				c0,0.4,0.1,0.8,0.3,1.2c0.2,0.4,0.4,0.7,0.7,1c0.3,0.3,0.6,0.5,1,0.7C108.9,70,109.3,70,109.7,70z"/>
			<path id="XMLID_255_" class="st3" d="M124.9,62.3c0.6,0.4,1.1,0.9,1.5,1.6c0.4,0.7,0.5,1.4,0.5,2.1v5.9h-2v-2.1v-3.7
				c0-0.3-0.1-0.7-0.2-1c-0.1-0.3-0.3-0.6-0.5-0.8c-0.2-0.2-0.5-0.4-0.8-0.5c-0.3-0.1-0.6-0.2-1-0.2s-0.7,0.1-1,0.2
				c-0.3,0.1-0.6,0.3-0.8,0.5c-0.2,0.2-0.4,0.5-0.5,0.8c-0.1,0.3-0.2,0.6-0.2,1v3.7v2.1h-2v-5.9v-4.5h2l0,0.7
				c0.3-0.2,0.7-0.4,1.2-0.5c0.4-0.1,0.9-0.2,1.3-0.2c0.5,0,0.9,0.1,1.3,0.2C124.2,61.9,124.6,62.1,124.9,62.3z"/>
			<path id="XMLID_253_" class="st3" d="M90,83.8c0.2,0.3,0.3,0.5,0.4,0.8c0.1,0.3,0.1,0.6,0.1,1c0,0.4-0.1,0.8-0.3,1.2
				c-0.2,0.4-0.4,0.7-0.7,1c-0.3,0.3-0.6,0.5-1,0.6c-0.4,0.1-0.8,0.2-1.3,0.2c-0.6,0-1.2-0.2-1.7-0.5c-0.5-0.3-0.9-0.7-1.1-1.2
				l1.7-1.2c0.1,0.2,0.2,0.4,0.4,0.6c0.2,0.2,0.5,0.2,0.8,0.2c0.3,0,0.6-0.1,0.9-0.3c0.3-0.2,0.4-0.5,0.4-0.7c0-0.1,0-0.2,0-0.2v0
				c0,0,0,0,0-0.1c0,0,0,0,0-0.1c-0.1-0.2-0.3-0.4-0.5-0.5c0,0-0.1-0.1-0.2-0.1l0,0c-0.2-0.1-0.4-0.2-0.6-0.3
				c-0.2-0.1-0.4-0.2-0.7-0.3c-0.2-0.1-0.5-0.2-0.7-0.3c-0.2-0.1-0.4-0.3-0.6-0.4v0L85.3,83c-0.3-0.3-0.5-0.6-0.6-0.9
				c-0.2-0.3-0.2-0.7-0.2-1.1c0-0.4,0.1-0.8,0.3-1.1c0.2-0.3,0.4-0.6,0.7-0.9c0.3-0.2,0.6-0.4,1-0.6c0.4-0.1,0.8-0.2,1.2-0.2
				c0.6,0,1.1,0.2,1.5,0.4c0.4,0.2,0.8,0.6,1.1,1l-1.6,1.1c-0.1-0.1-0.2-0.3-0.4-0.4c-0.2-0.1-0.4-0.2-0.6-0.2
				c-0.3,0-0.6,0.1-0.8,0.2c-0.2,0.2-0.3,0.3-0.3,0.6c0,0.1,0,0.1,0,0.1c0,0.1,0.1,0.3,0.2,0.4c0.1,0.1,0.2,0.2,0.4,0.3
				c0.2,0.1,0.5,0.3,0.8,0.4c0.3,0.1,0.6,0.3,1,0.5c0.2,0.1,0.5,0.3,0.7,0.4l0.1,0.1C89.7,83.4,89.9,83.6,90,83.8z"/>
			<path id="XMLID_250_" class="st3" d="M98.3,78.2c0.7,0,1.4,0.1,2,0.4c0.6,0.3,1.2,0.6,1.6,1.1c0.5,0.5,0.8,1,1.1,1.6
				c0.3,0.6,0.4,1.3,0.4,2c0,0.7-0.1,1.4-0.4,2c-0.3,0.6-0.6,1.2-1.1,1.6c-0.5,0.5-1,0.8-1.6,1.1c-0.6,0.3-1.3,0.4-2,0.4
				c-0.6,0-1.2-0.1-1.7-0.3c-0.5-0.2-1-0.5-1.5-0.8v6.1h-2V83.4v0c0-0.7,0.1-1.4,0.4-2s0.6-1.2,1.1-1.6c0.5-0.5,1-0.8,1.6-1.1
				C96.9,78.4,97.6,78.2,98.3,78.2z M98.3,86.5c0.4,0,0.8-0.1,1.2-0.3c0.4-0.2,0.7-0.4,1-0.7c0.3-0.3,0.5-0.6,0.7-1
				c0.2-0.4,0.3-0.8,0.3-1.2s-0.1-0.8-0.3-1.2c-0.2-0.4-0.4-0.7-0.7-1c-0.3-0.3-0.6-0.5-1-0.7c-0.4-0.2-0.8-0.3-1.2-0.3
				c-0.4,0-0.9,0.1-1.2,0.3c-0.4,0.2-0.7,0.4-1,0.7c-0.3,0.3-0.5,0.6-0.7,1c-0.2,0.4-0.2,0.8-0.2,1.2v0c0,0.4,0.1,0.8,0.3,1.2
				c0.2,0.4,0.4,0.7,0.7,1c0.3,0.3,0.6,0.5,1,0.7C97.4,86.5,97.9,86.5,98.3,86.5z"/>
			<path id="XMLID_247_" class="st3" d="M110.8,78.3c0.7,0,1.4,0.1,2,0.4c0.6,0.3,1.2,0.6,1.6,1.1c0.5,0.5,0.8,1,1.1,1.7
				c0.3,0.6,0.4,1.3,0.4,2v5h-2v-0.9c-0.4,0.3-0.9,0.6-1.5,0.8c-0.5,0.2-1.1,0.3-1.7,0.3c-0.7,0-1.4-0.1-2-0.4
				c-0.6-0.3-1.2-0.6-1.6-1.1c-0.5-0.5-0.8-1-1.1-1.6c-0.3-0.6-0.4-1.3-0.4-2s0.1-1.4,0.4-2c0.3-0.6,0.6-1.2,1.1-1.7
				c0.5-0.5,1-0.8,1.6-1.1C109.5,78.4,110.1,78.3,110.8,78.3z M110.9,86.6c0.4,0,0.9-0.1,1.2-0.3c0.4-0.2,0.7-0.4,1-0.7
				c0.3-0.3,0.5-0.6,0.7-1c0.2-0.4,0.3-0.8,0.3-1.2c0-0.4-0.1-0.9-0.3-1.2c-0.2-0.4-0.4-0.7-0.7-1c-0.3-0.3-0.6-0.5-1-0.7
				c-0.4-0.2-0.8-0.3-1.2-0.3c-0.4,0-0.9,0.1-1.2,0.3c-0.4,0.2-0.7,0.4-1,0.7c-0.3,0.3-0.5,0.6-0.7,1c-0.2,0.4-0.3,0.8-0.3,1.2
				c0,0.4,0.1,0.8,0.3,1.2c0.2,0.4,0.4,0.7,0.7,1c0.3,0.3,0.6,0.5,1,0.7C110,86.6,110.4,86.6,110.9,86.6z"/>
			<path id="XMLID_245_" class="st3" d="M123.7,86.5c0.5,0,1-0.1,1.4-0.3c0.4-0.2,0.8-0.5,1.1-0.9l1.6,1.2c-0.5,0.6-1,1.1-1.7,1.4
				c-0.7,0.4-1.5,0.5-2.3,0.5c-0.7,0-1.4-0.1-2-0.4c-0.6-0.3-1.2-0.6-1.6-1.1c-0.5-0.5-0.8-1-1.1-1.6c-0.3-0.6-0.4-1.3-0.4-2
				c0-0.7,0.1-1.4,0.4-2c0.3-0.6,0.6-1.2,1.1-1.6c0.5-0.5,1-0.8,1.6-1.1c0.6-0.3,1.3-0.4,2-0.4c0.8,0,1.6,0.2,2.3,0.5
				c0.7,0.4,1.3,0.8,1.7,1.5l-1.6,1.2c-0.3-0.4-0.6-0.7-1.1-0.9c-0.4-0.2-0.9-0.3-1.4-0.3c-0.4,0-0.8,0.1-1.2,0.2
				c-0.4,0.2-0.7,0.4-1,0.7c-0.3,0.3-0.5,0.6-0.7,1c-0.2,0.4-0.2,0.8-0.2,1.2c0,0.4,0.1,0.8,0.2,1.2c0.2,0.4,0.4,0.7,0.7,1
				c0.3,0.3,0.6,0.5,1,0.7C122.9,86.4,123.3,86.5,123.7,86.5z"/>
			<path id="XMLID_242_" class="st3" d="M135.9,84.1H132c0.1,0.3,0.2,0.7,0.4,1c0.2,0.3,0.4,0.6,0.7,0.8c0.3,0.2,0.6,0.4,0.9,0.5
				c0.3,0.1,0.7,0.2,1.1,0.2c0.5,0,0.9-0.1,1.3-0.3c0.4-0.2,0.7-0.4,1-0.8h0.4h2c-0.1,0.2-0.2,0.4-0.3,0.6c-0.1,0.2-0.2,0.3-0.4,0.5
				c-0.5,0.6-1,1.1-1.7,1.4c-0.7,0.4-1.5,0.5-2.3,0.5c-0.7,0-1.4-0.1-2-0.4c-0.6-0.3-1.2-0.6-1.6-1.1c-0.5-0.5-0.8-1-1.1-1.6
				c-0.3-0.6-0.4-1.3-0.4-2c0-0.7,0.1-1.4,0.4-2c0.3-0.6,0.6-1.2,1.1-1.6c0.5-0.5,1-0.8,1.6-1.1c0.6-0.3,1.3-0.4,2-0.4
				c0.8,0,1.6,0.2,2.3,0.5c0.7,0.4,1.3,0.8,1.7,1.4c0.4,0.5,0.7,1.1,0.9,1.8c0.1,0.4,0.2,0.9,0.2,1.3c0,0.2,0,0.5-0.1,0.7h-2H135.9z
				 M135.1,80.3c-0.6,0-1.2,0.2-1.7,0.5c-0.5,0.3-0.9,0.8-1.1,1.3h4.5h1.1c-0.1-0.1-0.1-0.2-0.2-0.3c-0.1-0.1-0.1-0.2-0.2-0.3
				c-0.3-0.4-0.7-0.7-1.1-0.9C136.1,80.4,135.6,80.3,135.1,80.3z"/>
			<path id="XMLID_240_" class="st3" d="M148.1,83.8c0.2,0.3,0.3,0.5,0.4,0.8c0.1,0.3,0.1,0.6,0.1,1c0,0.4-0.1,0.8-0.3,1.2
				c-0.2,0.4-0.4,0.7-0.7,1c-0.3,0.3-0.6,0.5-1,0.6c-0.4,0.1-0.8,0.2-1.3,0.2c-0.6,0-1.2-0.2-1.7-0.5c-0.5-0.3-0.9-0.7-1.1-1.2
				l1.7-1.2c0.1,0.2,0.2,0.4,0.4,0.6c0.2,0.2,0.5,0.2,0.8,0.2c0.3,0,0.6-0.1,0.9-0.3c0.3-0.2,0.4-0.5,0.4-0.7c0-0.1,0-0.2,0-0.2v0
				c0,0,0,0,0-0.1c0,0,0,0,0-0.1c-0.1-0.2-0.3-0.4-0.5-0.5c0,0-0.1-0.1-0.2-0.1l0,0c-0.2-0.1-0.4-0.2-0.6-0.3
				c-0.2-0.1-0.4-0.2-0.7-0.3c-0.2-0.1-0.5-0.2-0.7-0.3c-0.2-0.1-0.4-0.3-0.6-0.4v0l-0.1-0.1c-0.3-0.3-0.5-0.6-0.6-0.9
				c-0.2-0.3-0.2-0.7-0.2-1.1c0-0.4,0.1-0.8,0.3-1.1c0.2-0.3,0.4-0.6,0.7-0.9c0.3-0.2,0.6-0.4,1-0.6c0.4-0.1,0.8-0.2,1.2-0.2
				c0.6,0,1.1,0.2,1.5,0.4c0.4,0.2,0.8,0.6,1.1,1l-1.6,1.1c-0.1-0.1-0.2-0.3-0.4-0.4c-0.2-0.1-0.4-0.2-0.6-0.2
				c-0.3,0-0.6,0.1-0.8,0.2c-0.2,0.2-0.3,0.3-0.3,0.6c0,0.1,0,0.1,0,0.1c0,0.1,0.1,0.3,0.2,0.4c0.1,0.1,0.2,0.2,0.4,0.3
				c0.2,0.1,0.5,0.3,0.8,0.4c0.3,0.1,0.6,0.3,1,0.5c0.2,0.1,0.5,0.3,0.7,0.4l0.1,0.1C147.8,83.4,148,83.6,148.1,83.8z"/>
		</g>
	</g>
</g>
</svg>
