<?xml version="1.0" encoding="utf-8"?>
<!-- Generator: Adobe Illustrator 21.0.2, SVG Export Plug-In . SVG Version: 6.00 Build 0)  -->
<svg version="1.1" id="Layer_1" xmlns="http://www.w3.org/2000/svg" xmlns:xlink="http://www.w3.org/1999/xlink" x="0px" y="0px"
	 viewBox="0 0 300 101.9" style="enable-background:new 0 0 300 101.9;" xml:space="preserve">
<style type="text/css">
	.st0{fill:#FFFFFF;}
</style>
<g id="XMLID_74_">
	<g>
		<path class="st0" d="M127.6,28.8c0.5-0.6,0.5-1.4-0.2-2.1c-0.6-0.5-1.5-0.3-1.8,0.1l-3.5,4.2l2.2,1.8L127.6,28.8z"/>
		<path class="st0" d="M149.7,8.3c-23.9,0-43.3,19.4-43.3,43.3s19.4,43.3,43.3,43.3S193,75.5,193,51.6S173.6,8.3,149.7,8.3z
			 M143.2,10.7h3.4l3.1,8.1l3.1-8.1h3.4V22h-2.3v-7.9l-3,7.9h-2.5l-3-7.9V22h-2.3L143.2,10.7L143.2,10.7z M115,29.1l5.5-6.6
			c1.1-1.4,2.7-2.4,4.2-1.1c0.5,0.5,0.7,0.6,1.3,1.6c0.1,0.3,0.2,1,0,1.7c1.4-0.8,2.7-0.6,3.7,0.3c1.5,1.4,1.3,2.9-0.1,4.5l-5.8,7
			L115,29.1z M149.7,80.4c-15.9,0-28.8-12.9-28.8-28.8s12.9-28.8,28.8-28.8s28.8,12.9,28.8,28.8S165.6,80.4,149.7,80.4z M176.4,36.6
			l-1.9-2.4l3.7-5.6l-6.2,2.6l-1.9-2.4l6.4-8.6l1.7,2.1l-4.1,5.4l6.3-2.7l1.8,2.2l-3.9,5.6l6.1-3l1.7,1.9L176.4,36.6z"/>
		<path class="st0" d="M123.6,24.2c-0.6-0.5-1.5-0.5-1.8,0l-3.3,4l2.1,1.6l3.3-3.9C124.1,25.5,124.1,24.7,123.6,24.2z"/>
	</g>
	<g id="XMLID_75_">
		<path class="st0" d="M149.4,24.5h-0.6l0,0c-14.2,0.6-25.6,11.9-26.1,26l0,0v0.6h26.1h0.5v-0.6L149.4,24.5z"/>
		<path class="st0" d="M176.3,51.9L176.3,51.9l-25.6,0.2h-0.5v0.5v25.5v0.3v0.1c14.5-0.2,26.3-12,26.6-26.6
			C176.9,51.9,176.3,51.9,176.3,51.9z"/>
	</g>
</g>
</svg>
