<?xml version="1.0" encoding="utf-8"?>
<!-- Generator: Adobe Illustrator 21.0.2, SVG Export Plug-In . SVG Version: 6.00 Build 0)  -->
<svg version="1.1" id="Layer_1" xmlns="http://www.w3.org/2000/svg" xmlns:xlink="http://www.w3.org/1999/xlink" x="0px" y="0px"
	 viewBox="0 0 300 101.9" style="enable-background:new 0 0 300 101.9;" xml:space="preserve">
<style type="text/css">
	.st0{fill:#FFFFFF;}
</style>
<title>logos</title>
<path class="st0" d="M70.2,59.2c0,0.1-0.1,0.2-0.1,0.2c-2.9,5.6-8.7,9.2-15.1,9.2c-9.7-0.3-17.4-8.4-17.2-18.1
	C38,41.1,45.6,33.6,55,33.3c6.4,0.1,12.2,3.7,15.1,9.4c0.1,0.1,0.1,0.2,0.2,0.3c0,0-5.5,4-5.5,3.9c0-0.1-0.1-0.2-0.1-0.2
	c-1.6-4-5.4-6.6-9.7-6.5c-6,0-10.8,4.8-10.8,10.8c0,6,4.8,10.8,10.8,10.8c4.1,0,7.8-2.5,9.5-6.2c0.1-0.1,0.1-0.2,0.2-0.4L70.2,59.2z
	"/>
<polygon class="st0" points="101.2,33.7 101.2,46 83.9,46 83.9,33.7 77.3,33.7 77.3,67.9 83.9,67.9 83.9,52.9 101.2,52.9 
	101.2,67.9 107.9,67.9 107.9,33.7 "/>
<polygon class="st0" points="201.1,33.7 201.1,67.9 227.5,67.9 227.5,61.1 207.7,61.1 207.7,54.3 223.7,54.3 223.7,47.4 207.7,47.4 
	207.7,40.6 225,40.6 225,33.7 "/>
<polygon class="st0" points="236.8,33.7 236.8,67.9 262.2,67.9 262.2,61.1 243.5,61.1 243.5,33.7 "/>
<polygon class="st0" points="182.3,33.7 182.3,54.3 167.6,33.7 158.8,33.7 158.3,33.7 158.3,67.9 164.8,67.9 165,67.9 165,42.1 
	183.7,67.9 189,67.9 189,33.7 "/>
<path class="st0" d="M133,40.6l6.1,13.7h-12L133,40.6z M128.4,33.7L113.2,68h7.9l3.1-6.8H142l3.1,6.8h7.9l-15.3-34.3H128.4z"/>
</svg>
