<?xml version="1.0" encoding="utf-8"?>
<!-- Generator: Adobe Illustrator 21.0.2, SVG Export Plug-In . SVG Version: 6.00 Build 0)  -->
<svg version="1.1" id="Layer_1" xmlns="http://www.w3.org/2000/svg" xmlns:xlink="http://www.w3.org/1999/xlink" x="0px" y="0px"
	 viewBox="0 0 300 101.9" style="enable-background:new 0 0 300 101.9;" xml:space="preserve">
<style type="text/css">
	.st0{fill:#FFFFFF;}
</style>
<title>logos</title>
<g>
	<polygon class="st0" points="55.4,88 55.4,83.1 60.1,83.1 60.1,88 62.5,88 62.5,76.8 60,76.8 60,81.2 55.4,81.2 55.4,76.8 
		52.9,76.8 52.9,88 	"/>
	<path class="st0" d="M84.1,76.8v6.1c0,1.9-0.1,3.6-2.4,3.6c-2.4,0-2.4-1.7-2.4-3.6v-6.1h-2.5v7c0,3,2.2,4.4,5,4.4
		c2.8,0,5-1.4,5-4.4v-7H84.1z"/>
	<path class="st0" d="M108.4,83.9v2.3c-0.6,0.2-1.2,0.3-2.2,0.3c-2.3,0-3.3-1.6-3.3-4.1c0-2.5,0.9-4.1,3.1-4.1
		c1.4,0,2.3,0.9,2.3,1.9h2.5c0-2.2-2-3.6-4.9-3.6c-2.3,0-5.5,1.4-5.5,5.8c0,4.5,3.1,5.8,5.8,5.8c2.3,0,3.8-0.5,4.7-0.9V82h-4.7v1.9
		H108.4z"/>
	<path class="st0" d="M221.9,79.9c0-2.3-2.2-3.5-4.3-3.5c-2.1,0-4.4,1.3-4.4,3.5c0,1.6,1.2,2.5,2.8,2.9c0.5,0.1,1.4,0.4,1.8,0.5
		c1.5,0.4,2.1,0.8,2.1,1.8c0,1.2-1.2,1.6-1.9,1.6c-1.8,0-2.5-1.1-2.5-2.3h-2.4c0,2.5,1.8,3.9,4.9,3.9c2.4,0,4.5-1.3,4.5-3.6
		c0-1.8-1.3-2.7-3.1-3.2c-0.6-0.2-1.2-0.3-1.8-0.5c-1.4-0.4-1.9-0.8-1.9-1.6c0-0.8,0.6-1.5,1.9-1.5s2,0.8,2,2H221.9z"/>
	<path class="st0" d="M245.9,79.9c0-2.3-2.2-3.5-4.3-3.5c-2.1,0-4.4,1.3-4.4,3.5c0,1.6,1.2,2.5,2.8,2.9c0.5,0.1,1.4,0.4,1.8,0.5
		c1.5,0.4,2.1,0.8,2.1,1.8c0,1.2-1.2,1.6-1.9,1.6c-1.8,0-2.5-1.1-2.5-2.3H237c0,2.5,1.8,3.9,4.9,3.9c2.4,0,4.5-1.3,4.5-3.6
		c0-1.8-1.3-2.7-3.1-3.2c-0.6-0.2-1.2-0.3-1.8-0.5c-1.4-0.4-1.9-0.8-1.9-1.6c0-0.8,0.6-1.5,1.9-1.5c1.3,0,2,0.8,2,2H245.9z"/>
	<path class="st0" d="M130.2,88.3c3.8,0,5.6-2.6,5.6-6c0-3.4-1.7-6-5.6-6s-5.6,2.6-5.6,6C124.6,85.7,126.3,88.3,130.2,88.3
		 M130.2,78.2c2.4,0,2.9,2.2,2.9,4.2c0,2-0.5,4.2-2.9,4.2c-2.5,0-2.9-2.2-2.9-4.2C127.3,80.4,127.7,78.2,130.2,78.2"/>
	<path class="st0" d="M168.8,88.1c2.3,0,4.4-1.1,4.4-3.2c0-1.7-1.4-2.7-2.7-2.8c0.9-0.1,2.2-1.1,2.2-2.5c0-2-1.6-3-3.9-3h-4.9v11.4
		H168.8z M166.2,86.3v-3.3h2.2c1.1,0,2,0.3,2,1.6c0,1.2-1,1.7-2,1.7H166.2z M166.2,81.3v-2.9h2.3c1,0,1.6,0.6,1.6,1.5
		c0,0.9-0.8,1.4-1.7,1.4H166.2z"/>
	<path class="st0" d="M193,88.4c3.9,0,5.6-2.6,5.6-6c0-3.4-1.8-6-5.6-6c-3.9,0-5.6,2.6-5.6,6C187.4,85.8,189.1,88.4,193,88.4
		 M193,78.1c2.5,0,3,2.2,3,4.2c0,2-0.5,4.2-3,4.2c-2.5,0-3-2.2-3-4.2C190,80.3,190.5,78.1,193,78.1"/>
	<path class="st0" d="M203.3,50.6c0.5,5.8-2,16.5-18.4,17.2c-7.2,0.3-16.3-2-19.9-3.6V50.3h1.8c0.4,1.7,3.8,14.5,15.7,15.1
		c6.9,0.3,12.2-2.6,12.3-8.3c0.2-6.7-7.2-9-13.9-11.6c-7.5-3-14.8-6-15.8-14.2c-1.2-9.5,7.6-16,17.7-15.6c5.6,0.2,11.1,1.6,15.4,3.3
		v11.7h-1.8c-1-6.4-4.8-12.4-13.5-12.9c-5.1-0.3-9.7,1.6-9.7,7.1c0,5.5,9.2,7.8,15.9,10.4C195.9,38,202.5,41.6,203.3,50.6"/>
	<path class="st0" d="M248.9,50.6c0.5,5.8-2,16.5-18.4,17.2c-7.2,0.3-16.3-2-19.9-3.6V50.3h1.8c0.4,1.7,3.8,14.5,15.7,15.1
		c6.9,0.3,12.2-2.6,12.3-8.3c0.2-6.7-7.2-9-13.9-11.6c-7.5-3-14.8-6-15.8-14.2c-1.2-9.5,7.6-16,17.7-15.6c5.6,0.2,11.1,1.6,15.4,3.3
		v11.7h-1.8c-1-6.4-4.8-12.4-13.5-12.9c-5.1-0.3-9.7,1.6-9.7,7.1c0,5.5,9.2,7.8,15.9,10.4C241.5,38,248.1,41.6,248.9,50.6"/>
	<path class="st0" d="M104.1,41.8c0-14.7,11.9-26.6,26.6-26.6c14.7,0,26.6,11.9,26.6,26.6c0,14.7-11.9,26.6-26.6,26.6
		C116,68.4,104.1,56.5,104.1,41.8 M130.7,66.2c10.4-0.1,14-13.4,14-24.4c0-11-4.5-24.5-14-24.5c-10,0-14,13.5-14,24.5
		C116.7,52.8,120.3,66.3,130.7,66.2"/>
	<path class="st0" d="M55,62.9c0,1.5-1.7,2.2-3.3,2.2h-1.2V67h27.1c9.5,0,19.7-4.4,19.8-14.2C97.5,41.5,86,39.6,82.5,39.3
		c5.7-0.9,12.3-5.6,12-12.4c-0.3-7.2-7.9-10.5-15.1-10.5l-28.5,0v1.9h1.4c1.1,0,2.8,0.3,2.8,1.9V62.9z M66.6,64.9V40.6h6.7
		c7.5,0,11.5,5.3,11.8,11.4c0.4,7.3-5,12.9-11.8,12.9H66.6z M66.6,38.7V18.3h5.7c5.5,0,10,3.5,10.3,9.8c0.2,6-4.3,10.6-10,10.6H66.6
		z"/>
</g>
</svg>
