<?xml version="1.0" encoding="utf-8"?>
<!-- Generator: Adobe Illustrator 21.0.2, SVG Export Plug-In . SVG Version: 6.00 Build 0)  -->
<svg version="1.1" id="Layer_1" xmlns="http://www.w3.org/2000/svg" xmlns:xlink="http://www.w3.org/1999/xlink" x="0px" y="0px"
	 viewBox="0 0 300 101.9" style="enable-background:new 0 0 300 101.9;" xml:space="preserve">
<style type="text/css">
	.st0{fill:#FFFFFF;}
	.st1{fill:#595959;}
</style>
<g id="XMLID_74_">
	<g>
		<path class="st0" d="M130.3,31.6c0.4-0.5,0.4-1.2-0.2-1.8c-0.5-0.4-1.3-0.3-1.6,0.1l-3.1,3.7l1.9,1.6L130.3,31.6z"/>
		<path class="st0" d="M149.7,13.7c-20.9,0-37.9,17-37.9,37.9s17,37.9,37.9,37.9s37.9-17,37.9-37.9S170.6,13.7,149.7,13.7z
			 M144,15.8h3l2.7,7.1l2.7-7.1h3v9.9h-2v-6.9l-2.6,6.9h-2.2l-2.6-6.9v6.9h-2V15.8z M119.3,31.9l4.8-5.8c1-1.2,2.4-2.1,3.7-1
			c0.4,0.4,0.6,0.5,1.1,1.4c0.1,0.3,0.2,0.9,0,1.5c1.2-0.7,2.4-0.5,3.2,0.3c1.3,1.2,1.1,2.5-0.1,3.9l-5.1,6.1L119.3,31.9z
			 M149.7,76.8c-13.9,0-25.2-11.3-25.2-25.2c0-13.9,11.3-25.2,25.2-25.2c13.9,0,25.2,11.3,25.2,25.2
			C174.9,65.5,163.6,76.8,149.7,76.8z M173.1,38.5l-1.7-2.1l3.2-4.9l-5.4,2.3l-1.7-2.1l5.6-7.5l1.5,1.8l-3.6,4.7l5.5-2.4l1.6,1.9
			l-3.4,4.9l5.3-2.6l1.5,1.7L173.1,38.5z"/>
		<path class="st0" d="M126.8,27.6c-0.5-0.4-1.3-0.4-1.6,0l-2.9,3.5l1.8,1.4l2.9-3.4C127.3,28.7,127.3,28,126.8,27.6z"/>
	</g>
	<g id="XMLID_75_">
		<path class="st0" d="M149.4,27.9c0,0-0.5,0-0.5,0l0,0c-12.4,0.5-22.4,10.4-22.9,22.8l0,0v0.5h22.9h0.4l0-0.5L149.4,27.9z"/>
		<path class="st0" d="M173,51.9C173,51.9,173,51.9,173,51.9l-22.4,0.2h-0.4v0.4v22.3v0.3v0.1c12.7-0.2,23-10.5,23.3-23.3H173z"/>
	</g>
</g>
<g id="XMLID_1_">
	<path id="XMLID_8_" class="st0" d="M149.5-100.1c-21.9,0-39.6,17.7-39.6,39.6s17.7,39.6,39.6,39.6s39.6-17.7,39.6-39.6
		C189.2-82.4,171.4-100.1,149.5-100.1z"/>
	<path d="M149.7-98.3c-20.9,0-37.9,17-37.9,37.9s17,37.9,37.9,37.9s37.9-17,37.9-37.9S170.6-98.3,149.7-98.3z M149.7-35.2
		c-13.9,0-25.2-11.3-25.2-25.2c0-13.9,11.3-25.2,25.2-25.2c13.9,0,25.2,11.3,25.2,25.2C174.9-46.5,163.6-35.2,149.7-35.2z"/>
	<g id="XMLID_6_">
		<polygon id="XMLID_7_" class="st0" points="150.8,-86.3 153.4,-93.2 153.4,-86.3 155.4,-86.3 155.4,-96.2 152.4,-96.2 
			149.7,-89.1 149.7,-89.1 147,-96.2 144,-96.2 144,-86.3 146,-86.3 146,-93.2 148.6,-86.3 		"/>
	</g>
	<g id="XMLID_4_">
		<polygon id="XMLID_5_" class="st0" points="178.1,-81.8 174.7,-76.9 180,-79.5 181.5,-77.8 173.1,-73.5 171.4,-75.6 174.6,-80.5 
			174.6,-80.5 169.2,-78.2 167.5,-80.3 173.1,-87.8 174.6,-86 171,-81.3 176.5,-83.7 		"/>
	</g>
	<path id="XMLID_3_" class="st0" d="M132.1-83.7c-0.8-0.8-2-1-3.2-0.3c0.2-0.6,0.1-1.2,0-1.5c-0.5-0.9-0.7-1-1.1-1.4
		c-1.3-1.1-2.7-0.2-3.7,1l-4.8,5.8l7.6,6.4l5.1-6.1C133.2-81.2,133.4-82.5,132.1-83.7z M122.3-80.9l2.9-3.5c0.3-0.4,1.1-0.4,1.6,0
		s0.5,1.1,0.2,1.5l-2.9,3.4L122.3-80.9z M130.3-80.4l-3,3.6l-1.9-1.6l3.1-3.7c0.3-0.4,1.1-0.5,1.6-0.1
		C130.7-81.6,130.7-80.9,130.3-80.4z"/>
	<g id="XMLID_2_">
		<path class="st1" d="M149.4-84.1c0,0-0.5,0-0.5,0l0,0c-12.4,0.5-22.4,10.4-22.9,22.8l0,0v0.5h22.9h0.4l0-0.5L149.4-84.1z"/>
		<path class="st1" d="M173-60.1C173-60.1,173-60.1,173-60.1l-22.4,0.2h-0.4v0.4v22.3v0.3v0.1c12.7-0.2,23-10.5,23.3-23.3H173z"/>
	</g>
</g>
</svg>
