<?xml version="1.0" encoding="utf-8"?>
<!-- Generator: Adobe Illustrator 21.0.2, SVG Export Plug-In . SVG Version: 6.00 Build 0)  -->
<svg version="1.1" id="Layer_1" xmlns="http://www.w3.org/2000/svg" xmlns:xlink="http://www.w3.org/1999/xlink" x="0px" y="0px"
	 viewBox="0 0 300 101.9" style="enable-background:new 0 0 300 101.9;" xml:space="preserve">
<style type="text/css">
	.st0{fill:#FFFFFF;}
</style>
<title>logos</title>
<g>
	<g>
		<g>
			<g>
				<path class="st0" d="M223.9,33.9c-5,4.9-7.4,10.8-7.4,17.8c0,14,11.3,25.1,25.3,25.1c14,0,25.3-11,25.3-25.1
					c0-6.9-2.5-12.8-7.4-17.7c-4.9-5-10.9-7.4-17.9-7.4C234.8,26.5,228.8,29,223.9,33.9 M194.7,53.3h17v-7.6h-17V35h18.6v-7.7h-26.5
					V76h26.6v-7.7h-18.6V53.3z M77.7,27.3V76h8V27.3H77.7z M42.8,76c8.9,0,15.8-2,20.4-6.2c5.3-4.7,8-10.8,8-18.1
					c0-7.7-2.7-13.9-8.1-18.5c-4.6-3.9-11.4-5.9-20.1-5.9H32.5V76H42.8z M121.6,65.4L126,76h8.8l-20.7-48.8h-4L88.8,76h8.8l4.7-10.8
					c0.1-0.3,0.2-0.5,0.2-0.7c0.2,0.1,0.5,0.2,0.8,0.3c2.6,1,5.7,1.6,8.8,1.6c3,0,6-0.6,7.7-1.2c0.9-0.3,1.2-0.5,1.5-0.6
					C121.4,64.8,121.5,65.2,121.6,65.4z M173.1,42.2l6.1-5.2c-5.2-7-12.2-10.4-20.5-10.4c-14,0-25.3,11.2-25.3,25.2
					c0,13.7,11.3,25,25,25c3.5,0,6.8-0.8,10-2.2c3.1-1.4,5.8-3.4,8-5.9c2.1-2.4,3.5-5.1,4.3-8c0.7-2.5,1.1-5.5,0.8-9.1l-0.1-1.5
					h-21.9v7.7h13.5c-0.3,3-1.9,5.6-4.6,7.8c-2.9,2.4-6.3,3.6-10.1,3.6c-4.4,0-8.3-1.8-11.9-5.4c-3.3-3.3-4.9-7.3-4.9-11.9
					c0-4.9,1.7-9.1,5.2-12.6c3.3-3.4,7.3-5,12-5C164.5,34.2,169.2,36.9,173.1,42.2z M253.9,39.3c3.4,3.3,5.1,7.5,5.1,12.3
					c0,4.8-1.7,8.9-5.1,12.4c-3.4,3.4-7.4,5.1-12.2,5.1c-9.6,0-17.2-7.9-17.2-17.4c0-4.8,1.7-9,5.1-12.4c3.3-3.4,7.4-5,12.2-5
					C246.5,34.2,250.5,35.9,253.9,39.3z M43,35c6.8,0,11.6,1.4,14.7,4.1c3.6,3.2,5.4,7.3,5.4,12.5c0,5-1.8,9.1-5.2,12.3
					c-3,2.9-8,4.4-14.9,4.4h-2.2V35H43z M105.3,57.7c0.1-0.3,0.4-0.8,0.5-1.1l6.1-14.9l6,15c0.1,0.3,0.3,0.7,0.4,1l-0.7,0.1
					c-1.7,0.5-3.6,0.8-5.6,0.8c-1.9,0-3.7-0.3-5.7-0.8C106.1,57.8,105.6,57.7,105.3,57.7z"/>
			</g>
		</g>
	</g>
</g>
</svg>
