<?xml version="1.0" encoding="utf-8"?>
<!-- Generator: Adobe Illustrator 21.0.2, SVG Export Plug-In . SVG Version: 6.00 Build 0)  -->
<svg version="1.1" id="Layer_1" xmlns="http://www.w3.org/2000/svg" xmlns:xlink="http://www.w3.org/1999/xlink" x="0px" y="0px"
	 viewBox="0 0 300 101.9" style="enable-background:new 0 0 300 101.9;" xml:space="preserve">
<style type="text/css">
	.st0{fill:#FFFFFF;}
</style>
<title>logos</title>
<path class="st0" d="M81.6,20.8C69.6,34.9,58.1,52.3,58,65.3c-0.2,4.7,1.7,9.3,5.3,12.4c4.8,4.2,10.9,6.4,17.3,6.3
	c8.7,0,17.3-3.5,24-6.2c11.3-4.5,136.7-59,136.7-59c1.2-0.6,1-1.4-0.5-1L104.3,54.9c-2.6,0.7-5.2,1.1-7.9,1.2
	c-10.4,0.1-19.7-5.7-19.7-17.9C76.7,33.4,78.2,27.6,81.6,20.8"/>
</svg>
