<?xml version="1.0" encoding="utf-8"?>
<!-- Generator: Adobe Illustrator 21.0.2, SVG Export Plug-In . SVG Version: 6.00 Build 0)  -->
<svg version="1.1" id="Layer_1" xmlns="http://www.w3.org/2000/svg" xmlns:xlink="http://www.w3.org/1999/xlink" x="0px" y="0px"
	 viewBox="0 0 258.3 206.6" style="enable-background:new 0 0 258.3 206.6;" xml:space="preserve">
<style type="text/css">
	.st0{fill:#262626;}
	.st1{fill:#E0E221;}
	.st2{fill:#EC3092;}
	.st3{fill:#2CBDC0;}
</style>
<g>
	<path class="st0" d="M-0.1-0.2v206.7h258.3V-0.2C258.1-0.2-0.1-0.2-0.1-0.2z"/>
</g>
<g id="XMLID_5_">
	<g id="XMLID_184_">
		<polygon id="XMLID_558_" class="st1" points="121.5,65.3 99.6,81.3 116.3,85.2 116.4,88.6 91,82.5 119.6,61.9 167.4,73.4 
			139.9,94.1 124.7,90.5 124.7,87.2 138.1,90.3 159.7,74.8 		"/>
		<path id="XMLID_473_" class="st2" d="M167.4,73.4l-27.5,20.7l0.1,18l3.3,0.8l0.1-15.8l21.1-15.6l0.2,39.6l-21.5,15.5l0.1-15.3
			l-3.3-0.8l0.1,24.2l27.4-20.5L167.4,73.4z"/>
		<polygon id="XMLID_472_" class="st1" points="143.2,136.6 164.7,121.1 159.4,119.8 143.2,131.9 		"/>
		<polygon id="XMLID_1_" class="st3" points="159.4,119.8 159.3,85.3 164.5,81.5 164.7,121.1 		"/>
		<polygon id="XMLID_246_" class="st2" points="99.6,81.3 121.5,65.3 121.5,71.4 106.1,82.8 		"/>
		<polygon id="XMLID_193_" class="st2" points="124.7,72.1 121.5,71.4 121.8,110.6 124.8,108.4 		"/>
		<polygon id="XMLID_192_" class="st3" points="121.5,65.3 121.5,71.4 153.8,79 159.7,74.8 		"/>
		<polygon id="XMLID_191_" class="st3" points="134.7,98.4 124.7,96 124.7,90.5 139.9,94.1 140,112.1 134.6,110.8 		"/>
		<polygon id="XMLID_190_" class="st2" points="121.8,116.1 121.8,110.6 100.3,126.6 106,127.8 		"/>
		<polygon id="XMLID_189_" class="st1" points="121.8,110.6 100.3,126.6 100.3,121.4 116.6,109.5 		"/>
		<polygon id="XMLID_188_" class="st2" points="100.3,126.6 96.1,129.3 96.1,89.5 100.3,90.4 		"/>
		<polygon id="XMLID_187_" class="st1" points="96.1,129.3 100.3,126.6 134.7,134.3 134.7,138.3 		"/>
		<polygon id="XMLID_186_" class="st3" points="159.4,119.8 121.8,110.6 121.8,116.1 134.6,119.2 134.5,138.1 96.2,129.3 96.2,89.5 
			116.4,94.1 116.6,109.5 121.8,110.6 121.6,71.4 116.3,75.3 116.3,88.6 90.7,82.5 90.7,133.3 140,144.7 140,120.5 154,123.8 		"/>
		<polygon id="XMLID_185_" class="st1" points="124.8,108.4 121.8,110.6 159.4,119.8 159.4,116.7 		"/>
	</g>
</g>
</svg>
