<?xml version="1.0" encoding="utf-8"?>
<!-- Generator: Adobe Illustrator 21.0.2, SVG Export Plug-In . SVG Version: 6.00 Build 0)  -->
<svg version="1.1" id="Layer_1" xmlns="http://www.w3.org/2000/svg" xmlns:xlink="http://www.w3.org/1999/xlink" x="0px" y="0px"
	 viewBox="0 0 258.3 206.6" style="enable-background:new 0 0 258.3 206.6;" xml:space="preserve">
<style type="text/css">
	.st0{fill:#FFFFFF;}
</style>
<path class="st0" d="M207.7,40.8L109,17L49.9,59.5l52.2,12.6l0,0L49.3,59.5v104.9L151.1,188v-50l28.9,6.8l11.2-8.3l-33.5,25
	l0.2-21.9l-6.8-1.7l0.2,50l56.6-42.3L207.7,40.8z M119.7,87.4l20.4,5L140,118l-20.2-5V87.4z M147.2,75.7l-27.7-6.4V38.1l60.1,14
	l12.2-8.7L147.2,75.7z M67.7,57.1l13.4,3.1l31.8-23.5v0.2l-10.7,7.8v20.4L67.7,57.1z M102.4,83.5l0.4,31.8l-33.7,24.6v-64
	L102.4,83.5z M80.9,153.1l32.6-24.2l26.4,6.4l-0.2,31.2l-70.6-15.9L80.9,153.1z M64,74.8l-3.3-0.6l0,0L64,74.8z M157.9,122.1
	l0.2-32.4L191,65.3l0.2,64.8L157.9,122.1z"/>
</svg>
