<?xml version="1.0" encoding="utf-8"?>
<!-- Generator: Adobe Illustrator 21.0.2, SVG Export Plug-In . SVG Version: 6.00 Build 0)  -->
<svg version="1.1" id="Layer_1" xmlns="http://www.w3.org/2000/svg" xmlns:xlink="http://www.w3.org/1999/xlink" x="0px" y="0px"
	 viewBox="0 0 221 147.3" style="enable-background:new 0 0 221 147.3;" xml:space="preserve">
<style type="text/css">
	.st0{fill:none;}
	.st1{fill:#FFFFFF;}
</style>
<title>logos</title>
<g>
	<path d="M-1.2-1.3v154h226.7v-154C225.5-1.3-1.2-1.3-1.2-1.3z"/>
</g>
<path class="st0" d="M47.3,11.3h125.3v125.3H47.3V11.3z"/>
<path class="st1" d="M86.6,123.5c-17.1-8-29.3-24.6-31.2-44.3h-7.8c2.7,32.2,29.6,57.4,62.4,57.4l3.4-0.2l-19.9-19.9
	C93.6,116.6,86.6,123.5,86.6,123.5z M110,11.3l-3.4,0.2l19.9,19.9l6.9-6.9c17.1,8.1,29.3,24.6,31.1,44.3h7.8
	C169.7,36.6,142.8,11.3,110,11.3z M80.7,87.8c-0.7-0.6-1.3-1.6-1.3-2.7c0-1.9,1.7-3.6,3.6-3.6c1.1,0,1.8,0.4,2.4,0.9
	c1.9,1.7,4,2.5,6.7,2.5c2.8,0,4.8-1.6,4.8-4.1v-0.1c0-2.8-2.5-4.3-6.7-4.3h-1.2c-1.8,0-3.2-1.5-3.2-3.2c0-1,0.4-1.9,1.6-3.1l6.6-6.7
	H83.6c-1.8,0-3.2-1.5-3.2-3.2s1.5-3.2,3.2-3.2h16.6c2.2,0,3.8,1.3,3.8,3.3c0,1.9-0.9,2.9-2.2,4.2l-6.7,6.4c4.6,0.8,9.2,3.2,9.2,9.6
	v0.1c0,6.4-4.7,11.2-12.3,11.2C87.2,91.7,83.5,90.2,80.7,87.8z M108.7,60.8c0-2.1,1.7-3.8,3.8-3.8h9.6c10.7,0,18.1,7.4,18.1,17v0.1
	c0,9.6-7.4,17.1-18.1,17.1h-9.6c-2.1,0-3.8-1.7-3.8-3.8V60.8z M122,84.3c6.1,0,10.3-4.1,10.3-10.2v-0.1c0-6-4.1-10.3-10.3-10.3h-5.8
	v20.6H122z"/>
</svg>
