<svg xmlns="http://www.w3.org/2000/svg" viewBox="0 0 300 101.94"><title>logos</title><path d="M233.65,77.31h-.4v-.66h.82a.35.35,0,0,1,.2.11.3.3,0,0,1,.07.21.34.34,0,0,1-.06.2.29.29,0,0,1-.15.11,2.11,2.11,0,0,1-.48,0m.84.59a1.41,1.41,0,0,0-.3-.22.86.86,0,0,0,.54-.25.68.68,0,0,0,.17-.48.74.74,0,0,0-.12-.42.6.6,0,0,0-.31-.25,1.89,1.89,0,0,0-.63-.07H232.7v2.64h.54v-1.1h.12a.82.82,0,0,1,.27,0,.43.43,0,0,1,.16.11,3.61,3.61,0,0,1,.29.39l.39.57h.65l-.33-.51a3.31,3.31,0,0,0-.3-.43m-3.63.11-.49-1.81h-.81v2.64h.5V76.76l.53,2.08h.53l.53-2.08v2.08h.5V76.19h-.83ZM126.49,54.66c-.48.74-1,1.46-1.44,2A14.34,14.34,0,0,1,123.91,58a8.38,8.38,0,0,1-.83.78,3.21,3.21,0,0,1-1.07.6,1.48,1.48,0,0,1-1.52-.44,1.78,1.78,0,0,1-.43-1.51,5.55,5.55,0,0,1,.22-1.09,12.64,12.64,0,0,1,.62-1.72A27.18,27.18,0,0,1,122.27,52c.63-1.07,1.46-2.37,2.45-3.73s2.12-2.78,3.16-4a36.41,36.41,0,0,1,2.72-2.8,12.75,12.75,0,0,1,1.7-1.37,4.17,4.17,0,0,1,.93-.5,1.44,1.44,0,0,1,1.19,0c.64.42.36,1.2.3,1.6a3.65,3.65,0,0,1-.39.82c-.3.51-.85,1.39-1.39,2.27Zm-30.32-12A9.39,9.39,0,0,1,96,43.78a6.85,6.85,0,0,1-.44,1.3c-.26.62-.69,1.51-1.15,2.4a15.89,15.89,0,0,1-1.58-.66,6.83,6.83,0,0,1-1-.61,3.78,3.78,0,0,1-.6-.55,3.83,3.83,0,0,1-.39-.5,3.22,3.22,0,0,1,.75-4.24,5.3,5.3,0,0,1,.72-.57,4.54,4.54,0,0,1,.83-.45c.85-.32,1.66-.64,2.41,0a3.54,3.54,0,0,1,.61,2.83M88.84,55.85a15.84,15.84,0,0,1-2,2.31,10.31,10.31,0,0,1-1,.81,4.76,4.76,0,0,1-.76.43c-1.08.47-2.29.54-3-.62a2.47,2.47,0,0,1-.25-1.57,7,7,0,0,1,.34-1.46,17.31,17.31,0,0,1,1-2.42,33.2,33.2,0,0,1,2.15-3.57,52,52,0,0,1,3.25-4.23,19.32,19.32,0,0,0,1.53,1.88,5.39,5.39,0,0,0,1.3,1,14,14,0,0,0,1.91.91c-1.68,2.54-3.43,5-4.53,6.49m47,.24A18.35,18.35,0,0,1,134,58a5.21,5.21,0,0,1-.76.62,1.7,1.7,0,0,1-1.23.32.62.62,0,0,1-.55-.67,1.2,1.2,0,0,1,.15-.71c.12-.27.32-.73.89-1.86S134,52.83,135,51.06l8.33-14.19H138l-1,1.21a15.69,15.69,0,0,0-2-1,4.28,4.28,0,0,0-1.21-.34,7.42,7.42,0,0,0-1.12-.08,7.93,7.93,0,0,0-4,1.26,22,22,0,0,0-2,1.43A24.76,24.76,0,0,0,123,42.88c-1.87,2.09-4.6,5.45-6.86,8.16s-4.05,4.82-5.33,6.18a18,18,0,0,1-2.66,2.41,10.72,10.72,0,0,1-1.54,1,5,5,0,0,1-1.15.44,3.11,3.11,0,0,1-2.52-.28,1.65,1.65,0,0,1-.6-1,6.47,6.47,0,0,1,.21-2.8,15.43,15.43,0,0,1,.62-2,22.55,22.55,0,0,1,1.17-2.59,34.24,34.24,0,0,1,2-3.27A42.91,42.91,0,0,1,112,42.25a18.41,18.41,0,0,1,2.18-1.83,6.85,6.85,0,0,1,1.27-.73,1.88,1.88,0,0,1,.73-.18,1.25,1.25,0,0,1,.79.24,1.12,1.12,0,0,1,.4.92,6.61,6.61,0,0,1,0,.77,10.77,10.77,0,0,0-1.4.32,5.34,5.34,0,0,0-.91.38,5.46,5.46,0,0,0-.61.38A3.26,3.26,0,0,0,113,45.32a1.86,1.86,0,0,0,.62,1c.93.82,2.15.28,3.4-1.19a8.85,8.85,0,0,0,.67-.91,9.24,9.24,0,0,0,1.31-3A3.87,3.87,0,0,0,117.62,37a3.31,3.31,0,0,0-2-.57,7.61,7.61,0,0,0-1.52.17,10.82,10.82,0,0,0-1.74.55,9.91,9.91,0,0,0-2.67,1.65c-1.32,1.07-3.27,2.86-4.8,4.16a31.16,31.16,0,0,1-3.63,2.72A17.18,17.18,0,0,1,98.71,47a16.6,16.6,0,0,1-2.32.74c.46-1,.88-2.05,1.2-2.94s.54-1.64.68-2.21a7.49,7.49,0,0,0,.25-1.37,5.46,5.46,0,0,0-.27-2.28,3.64,3.64,0,0,0-.43-.82A3.18,3.18,0,0,0,96.54,37a5.32,5.32,0,0,0-3.65-.12,12.44,12.44,0,0,0-2.32.89,20.43,20.43,0,0,0-3,1.81,30.1,30.1,0,0,0-3.45,2.91,39.4,39.4,0,0,0-3.41,3.77,34.37,34.37,0,0,0-4.65,7.69A22.07,22.07,0,0,0,75,57.06a17.7,17.7,0,0,0-.46,2.49,8.37,8.37,0,0,0,0,1.7,5,5,0,0,0,.28,1.27,3.83,3.83,0,0,0,.52,1,3.51,3.51,0,0,0,.77.78,3.75,3.75,0,0,0,1.06.51,4.93,4.93,0,0,0,1.36.19,7.76,7.76,0,0,0,1.65-.2,9.3,9.3,0,0,0,1.85-.66,14.39,14.39,0,0,0,2.14-1.27,23.62,23.62,0,0,0,2.67-2.28,42.27,42.27,0,0,0,3.63-4.12c1.45-1.87,3.2-4.34,4.84-6.86l4.06-1c-1.2,2.18-2.32,4.41-3,5.84a11.56,11.56,0,0,0-1,2.69c-.44,2.07-.58,4.18.37,5.83a4.94,4.94,0,0,0,1.11,1.31,4.76,4.76,0,0,0,1.59.86,6.31,6.31,0,0,0,2,.3,9.88,9.88,0,0,0,5.66-1.82A20.18,20.18,0,0,0,109,61.55c1.16-1,2.61-2.48,4-4-.12,1.33-.2,2.66-.21,3.51a7,7,0,0,0,.12,1.57,4.6,4.6,0,0,0,.21.76,3.11,3.11,0,0,0,.26.53,2.24,2.24,0,0,0,1.17.91,5.71,5.71,0,0,0,4.18-.51,12,12,0,0,0,1.91-1.16,32,32,0,0,0,2.66-2.23,13.86,13.86,0,0,0-.07,1.49,4.91,4.91,0,0,0,.09.84,2,2,0,0,0,.35.86,2.44,2.44,0,0,0,1.8.85,9.33,9.33,0,0,0,1,.06,8.42,8.42,0,0,0,4.57-1.62A18.47,18.47,0,0,0,134,61a33.24,33.24,0,0,0,3.38-4A56.64,56.64,0,0,0,141,51.3l-1.09-.24c-1.5,2-3,3.86-4,5m52.8-29.29a20.12,20.12,0,0,1-.64,3.31,35.28,35.28,0,0,1-1.34,3.95A33.6,33.6,0,0,1,185,37.6a22.52,22.52,0,0,1-1.61,2.48,9.59,9.59,0,0,1-3.53,3.15,3.36,3.36,0,0,1-3.27,0,1.75,1.75,0,0,1-.65-.92,6.48,6.48,0,0,1,.65-3.52,13.47,13.47,0,0,1,.89-1.73,18,18,0,0,1,1.48-2.13,27.8,27.8,0,0,1,2.39-2.63,35.4,35.4,0,0,1,3.43-2.94,31.54,31.54,0,0,1,3.89-2.51M174,58.94a22,22,0,0,0,.6-3.52,6,6,0,0,0-.2-2.36,3.49,3.49,0,0,0-.38-.77,2.85,2.85,0,0,0-1.23-1,3.84,3.84,0,0,0-1-.3,6.4,6.4,0,0,0-1.29-.11,9.58,9.58,0,0,0-1.62.15,12.61,12.61,0,0,0-7.08,4.36A22.05,22.05,0,0,0,160,57.8a27.1,27.1,0,0,0-1.78,3.11,32.81,32.81,0,0,0-1.54,3.69,36,36,0,0,0-1.11,4c1.27-1.05,2.57-2.08,3.51-2.77a18,18,0,0,1,2.26-1.45c.76-.41,1.72-.88,2.68-1.32a20.25,20.25,0,0,1,1.48-4.36,13.14,13.14,0,0,1,.87-1.59,9.65,9.65,0,0,1,.85-1.16,5.81,5.81,0,0,1,2.24-1.75c1.07-.36,1.91-.5,2.79.33a2.29,2.29,0,0,1,.51,1.36,15.44,15.44,0,0,1-1.09,5.36,22.51,22.51,0,0,1-1.19,2.63,24.8,24.8,0,0,1-1.77,2.84,29.82,29.82,0,0,1-5.5,5.77,19.28,19.28,0,0,1-5.63,3.25,6.08,6.08,0,0,1-1.75.32,4.4,4.4,0,0,1-1.44-.21,5.56,5.56,0,0,1-2.58-1.8,6.77,6.77,0,0,1-.88-1.48,6.61,6.61,0,0,1-.52-3.24,18.08,18.08,0,0,1,1.24-4.54,84.3,84.3,0,0,1,3.8-8.41c1.73-3.32,3.89-7,6-10.23A96.85,96.85,0,0,1,167.36,38a63.49,63.49,0,0,1,4.88-5.41,42.6,42.6,0,0,1,3.88-3.41,28.34,28.34,0,0,1,3.09-2.05,18.75,18.75,0,0,1,2.53-1.2,14.56,14.56,0,0,1,6-.82,37.28,37.28,0,0,0-4.55,3.07A29.92,29.92,0,0,0,177,34.61a20.89,20.89,0,0,0-1.6,2.76,14.29,14.29,0,0,0-.9,2.42,13.13,13.13,0,0,0-.39,2,5.38,5.38,0,0,0,0,1.31,3.92,3.92,0,0,0,.25,1,3,3,0,0,0,.45.72,2.52,2.52,0,0,0,.65.54,3.25,3.25,0,0,0,.91.35,4.5,4.5,0,0,0,1.15.13,6.53,6.53,0,0,0,2.75-.7A11.77,11.77,0,0,0,182,44a18.7,18.7,0,0,0,2.08-1.77,25.15,25.15,0,0,0,2.17-2.48,26.88,26.88,0,0,0,1.94-2.93,22.26,22.26,0,0,0,2.3-5.56,14.66,14.66,0,0,0,.4-2.3c0-.18,0-.37,0-.74s0-.91,0-1.3a7.82,7.82,0,0,1,0-.85,18.16,18.16,0,0,1,10.83,3.2,79.76,79.76,0,0,1,8,5.94l5.35-5.54a51.58,51.58,0,0,0-5.25-4,27.12,27.12,0,0,0-4.25-2.31,18.58,18.58,0,0,0-3.34-1.08,13.15,13.15,0,0,0-4.51-.22,14,14,0,0,0-2.39.5c-1.2.34-3,.92-4.76,1.57A21.42,21.42,0,0,0,188,22.65a5.91,5.91,0,0,0-1.66-.53,12.12,12.12,0,0,0-5.57.54A32.17,32.17,0,0,0,175,25.05a57,57,0,0,0-7.45,4.77A77.55,77.55,0,0,0,153,44.23a63.77,63.77,0,0,0-4.86,7.22A51,51,0,0,0,145,57.84a41.32,41.32,0,0,0-1.82,5.59,31.78,31.78,0,0,0-.81,4.65,13.29,13.29,0,0,0,0,3.24,10.88,10.88,0,0,0,.72,2.71,10.12,10.12,0,0,0,1.4,2.36,9.56,9.56,0,0,0,2.06,1.91,10.1,10.1,0,0,0,2.61,1.22,10,10,0,0,0,5.93-.05,19.35,19.35,0,0,0,3.77-1.61,33.57,33.57,0,0,0,13.83-15.16A27.23,27.23,0,0,0,174,58.94m43.89,9.46a29.37,29.37,0,0,1-2.05,2.81,12.55,12.55,0,0,1-1.46,1.57,4.09,4.09,0,0,1-1.06.7,1.74,1.74,0,0,1-1.85-.07c-.38-.47-.34-.83-.29-1.51,0-.3.1-.71.19-1.16a14.51,14.51,0,0,1,.47-1.57,19.36,19.36,0,0,1,.86-2c.38-.76.86-1.63,1.46-2.59s1.34-2,2.19-3.12,1.81-2.23,2.74-3.21a33.21,33.21,0,0,1,2.58-2.48,15.37,15.37,0,0,1,1.81-1.36,5.87,5.87,0,0,1,1-.53,1.79,1.79,0,0,1,.63-.13,1.47,1.47,0,0,1,.84.16c.37.35.17.74,0,1.21a7.43,7.43,0,0,1-.43,1,14.42,14.42,0,0,1-.8,1.42ZM191.73,56.83a9.46,9.46,0,0,1-.15,1,6.39,6.39,0,0,1-.47,1.39c-.3.71-.83,1.81-1.39,2.88a12.25,12.25,0,0,1-1.62-.66,4.39,4.39,0,0,1-.89-.56,3.17,3.17,0,0,1-.52-.5,3,3,0,0,1-.59-1A4.36,4.36,0,0,1,188,54.27a3.34,3.34,0,0,1,1.81-.54,2,2,0,0,1,1.47.44,2.27,2.27,0,0,1,.5,1.63c0,.29,0,.66-.05,1m-4.65,10.24a35,35,0,0,1-2.18,2.85,25.18,25.18,0,0,1-2,2.12,12.06,12.06,0,0,1-1.5,1.22,5.5,5.5,0,0,1-1,.53,1.44,1.44,0,0,1-.6.14,1.92,1.92,0,0,1-1.56-.87,2.79,2.79,0,0,1-.36-.69,4.13,4.13,0,0,1-.19-1.93,11.41,11.41,0,0,1,.29-1.65,12.56,12.56,0,0,1,.67-1.93A19.58,19.58,0,0,1,184,60a5.49,5.49,0,0,0,1,1.59,6.17,6.17,0,0,0,.81.73,6.78,6.78,0,0,0,1.27.75,16.56,16.56,0,0,0,2.07.78c-.65,1.13-1.34,2.22-2.07,3.24m43.68-1.58c-1,1.39-2.08,2.75-2.94,3.78s-1.51,1.71-2,2.23a13.2,13.2,0,0,1-1.26,1.1,6.51,6.51,0,0,1-.8.53,1.73,1.73,0,0,1-1.18.26c-.42-.1-.4-.47-.38-.7s-.07.07.52-1.06c.44-.84,1.28-2.42,2.14-4l9.89-16.83h-4.87l-1.67,1.44a14.07,14.07,0,0,0-1.7-1,3.8,3.8,0,0,0-1-.36,5,5,0,0,0-.92-.08,9.8,9.8,0,0,0-5,1.61,18.41,18.41,0,0,0-1.73,1.19c-.63.49-1.34,1.11-2.19,1.91a32.22,32.22,0,0,0-3.63,4c-1.77,2.23-4.32,5.68-6.11,8S203,71.22,202.24,72a8,8,0,0,1-1.42,1.35,3.42,3.42,0,0,1-.75.42,1.46,1.46,0,0,1-.79.11c-.46,0-1-.69-1.06-1.15a5.21,5.21,0,0,1,.24-2.59c.18-.79.51-1.95,1-3.43s1.12-3.29,1.81-5.07a110.58,110.58,0,0,0,10.22-7.41,51,51,0,0,0,6.77-6.65,81.67,81.67,0,0,0,6-8.07l-2.24.24a63.22,63.22,0,0,1-4.86,6.11,78.27,78.27,0,0,1-6.29,6.27A81.76,81.76,0,0,1,203.35,58c1.66-3.13,3.42-6.22,5.27-9.23s3.8-5.94,5.72-8.64S218.17,35,219.88,33s3.24-3.65,4.48-4.86a27.1,27.1,0,0,1,3-2.52,8.92,8.92,0,0,1,1.69-1,2.48,2.48,0,0,1,1-.23.68.68,0,0,1,.39.13c.53.46.43.73.34,1.23a3.6,3.6,0,0,1-.29.87c-.23.58-.65,1.58-1.09,2.57l2-.24a17.87,17.87,0,0,0,.92-1.61,3.57,3.57,0,0,0,.35-.91,5.86,5.86,0,0,0,.13-.85,3.1,3.1,0,0,0-1-2.74,2.63,2.63,0,0,0-.82-.47,5.43,5.43,0,0,0-3.16.18,14.43,14.43,0,0,0-2.93,1.24,28.21,28.21,0,0,0-4.06,2.75,55.19,55.19,0,0,0-5.6,5.18,95.6,95.6,0,0,0-7,8.21c-2.45,3.22-5,6.89-7.29,10.65a129.2,129.2,0,0,0-6.32,11.54h-2.66c.52-1.1,1-2.23,1.33-3a12.85,12.85,0,0,0,.55-1.8,6.85,6.85,0,0,0-.14-4,3.82,3.82,0,0,0-.58-1,3.2,3.2,0,0,0-2.71-1.22,6.82,6.82,0,0,0-1.54.22,9.56,9.56,0,0,0-2,.75,17.35,17.35,0,0,0-2.61,1.55A28.49,28.49,0,0,0,181,56.25a41,41,0,0,0-3.52,3.82,40,40,0,0,0-5.29,8.47A24.35,24.35,0,0,0,171,71.79a15.23,15.23,0,0,0-.48,2.48,7.31,7.31,0,0,0,0,1.85,4.79,4.79,0,0,0,.45,1.45,3.88,3.88,0,0,0,.83,1.12,3.58,3.58,0,0,0,1.17.72,4.24,4.24,0,0,0,1.44.25,7.18,7.18,0,0,0,3.32-.89,15.39,15.39,0,0,0,2.21-1.4,26.36,26.36,0,0,0,2.81-2.53,44.61,44.61,0,0,0,3.67-4.33c1.38-1.82,2.95-4.12,4.4-6.47h2.66c-.89,2.3-1.71,4.62-2.19,6.09a17,17,0,0,0-.71,2.69,12.56,12.56,0,0,0-.24,3.19,5.55,5.55,0,0,0,.27,1.21,4,4,0,0,0,.51,1,3.76,3.76,0,0,0,.76.77,3.63,3.63,0,0,0,1,.5,4.46,4.46,0,0,0,1.22.18A8.06,8.06,0,0,0,198.78,78a21,21,0,0,0,2.3-1.89c.89-.85,1.94-2,2.94-3.12a17.82,17.82,0,0,0-.08,2.05,11.3,11.3,0,0,0,.12,1.46,7.62,7.62,0,0,0,.24,1,3.62,3.62,0,0,0,.3.68,2.66,2.66,0,0,0,.76.87,2.7,2.7,0,0,0,1.7.47,6.71,6.71,0,0,0,1-.11,7,7,0,0,0,2.38-1,12.1,12.1,0,0,0,1.7-1.27c.71-.62,1.63-1.52,2.51-2.45-.06.66-.08,1.33-.08,1.83a6.3,6.3,0,0,0,.11,1.11,3.12,3.12,0,0,0,.18.68,2.07,2.07,0,0,0,1.21,1.25,5.8,5.8,0,0,0,4.31-.73,14.62,14.62,0,0,0,2.16-1.39,24.61,24.61,0,0,0,2.67-2.47,38.25,38.25,0,0,0,3.26-4,61.71,61.71,0,0,0,3.57-5.64ZM237.3,27.7a24.89,24.89,0,0,1-6.92,2.95,30.72,30.72,0,0,1-7.89.93l-5,6c.41.06.81.11,1.15.14a18.59,18.59,0,0,0,2.36.1,20.86,20.86,0,0,0,5.47-.73,30,30,0,0,0,11.38-6,28.3,28.3,0,0,0,4.22-4.4,20.71,20.71,0,0,0,2.64-4.48,51.69,51.69,0,0,1-7.46,5.5m-83.59,9.21H148l-2.9,5.29h5.52ZM122.06,70.42a40.77,40.77,0,0,0-8.81-.85,36,36,0,0,0-10.64,1.22C97.53,72,90.21,74,85.35,75.24a41.75,41.75,0,0,1-9.65,1.55,18.89,18.89,0,0,1-3.37-.29,12.25,12.25,0,0,1-2.68-.79,9.41,9.41,0,0,1-2-1.11,8.73,8.73,0,0,1-1.47-1.37,7.5,7.5,0,0,1-1.05-1.58,9.31,9.31,0,0,1-.7-1.83,11.49,11.49,0,0,1-.34-2.14,15.26,15.26,0,0,1,0-2.42A19.79,19.79,0,0,1,65,61.06a48.92,48.92,0,0,1,2.55-6.39A89.79,89.79,0,0,1,72.31,46a99.19,99.19,0,0,1,6-8.49,67.83,67.83,0,0,1,5.49-6.15,40.33,40.33,0,0,1,4.28-3.69,21,21,0,0,1,3.15-1.93,11.71,11.71,0,0,1,2.39-.91,7.59,7.59,0,0,1,2-.27,1.52,1.52,0,0,1,1,.3A1.4,1.4,0,0,1,96.94,26c0,.21,0,.5,0,.79a12.78,12.78,0,0,0-2.77,1.82,10,10,0,0,0-.86.85,3.54,3.54,0,0,0-1,1.88,2,2,0,0,0,.77,1.54c1.13.88,2.54.29,3.94-1.29a8.14,8.14,0,0,0,.8-1.11,9.73,9.73,0,0,0,.65-1.3c.7-1.79,1.09-3.63.06-5.2a3.56,3.56,0,0,0-.91-.93,4.41,4.41,0,0,0-1.31-.61,5.9,5.9,0,0,0-1.93-.2,16.67,16.67,0,0,0-3.28.43,24.09,24.09,0,0,0-4.35,1.49,37.15,37.15,0,0,0-5.41,3,58,58,0,0,0-6.44,5,74.53,74.53,0,0,0-6.72,6.93A67.06,67.06,0,0,0,58.43,54a40.5,40.5,0,0,0-2.2,5.82,25.15,25.15,0,0,0-.9,4.71,20.34,20.34,0,0,0,.2,5.59,13,13,0,0,0,.62,2.16,10.41,10.41,0,0,0,.92,1.84,9.52,9.52,0,0,0,1.27,1.59,9.8,9.8,0,0,0,1.71,1.38,12.06,12.06,0,0,0,2.33,1.15,16.21,16.21,0,0,0,3.29.85,28.23,28.23,0,0,0,4.46.34,35.24,35.24,0,0,0,9.19-1c4.21-.93,10.12-2.56,14.34-3.47a34.92,34.92,0,0,1,9.24-1,25.6,25.6,0,0,1,4.41.33,12.05,12.05,0,0,1,3.09.9A10.26,10.26,0,0,1,113,76.71a19.17,19.17,0,0,1,2.71,2.73,20.8,20.8,0,0,1,7.73-3.32,15.31,15.31,0,0,1,3-.3,10.2,10.2,0,0,1,1.27.11,13.11,13.11,0,0,1,2.54.66c1.52.5,4,1.41,6.52,2.36a44.36,44.36,0,0,0-7.52-5.74,22.63,22.63,0,0,0-7.16-2.79" style="fill:#fff"/></svg>