<svg xmlns="http://www.w3.org/2000/svg" viewBox="0 0 300 101.94"><title>logos</title><path d="M210.06,54.6h-8a2.2,2.2,0,0,0-1.73.52,4,4,0,0,0-.73,2.22c0,.84.76,1.32,2,1.32h5.72c-.79,4-3.32,6.76-7.69,6.76-4.57,0-7.66-2.91-7.83-7.87-.21-6.24,3.92-11.36,9.78-11.36a7.75,7.75,0,0,1,7.21,4.26c.14.18,3.32.18,3.22-2.53a4.7,4.7,0,0,0-1.63-3.08c-1.7-1.66-4.85-3.12-9-3.12a14.36,14.36,0,0,0-13,7.94s0,0,0,0a2.6,2.6,0,0,0-2-.94c-1.32,0-2.15.42-3.43,2.63l-6.28,11-2.36-11c-.45-2-1.18-2.67-2.49-2.67-1.52,0-2.77,1.11-2.7,1.39l4.47,17.71-4.68,7.55c-.48.83-.52,1.91,1.25,1.91h1c1.84,0,2.43-1.11,3.33-2.64L187,53.28a16.37,16.37,0,0,0-.49,4.71c.24,7.18,5.06,11.47,12.14,11.47a9.26,9.26,0,0,0,7.52-3.22c-.11,2.08,1,2.91,2.49,2.91.84,0,1.42-.28,1.42-.42l2-11.48c.31-1.76-.35-2.67-2-2.67m-46.27,2.08H152.53A6.94,6.94,0,0,1,159.29,52a4.68,4.68,0,0,1,3.64,1.35,4.37,4.37,0,0,1,.86,3.29m-4.19-8.28c-8.81,0-12,6.48-12,12.13,0,5.37,3.88,8.94,9.85,8.94s9.32-2.67,9.32-4.78c0-1.42-1-1.91-2.15-2a7.87,7.87,0,0,1-6.69,3c-2.6,0-5.72-1-5.92-5.65H165.6a2.39,2.39,0,0,0,2.56-2.67,9.3,9.3,0,0,0-1.8-6.17,8.47,8.47,0,0,0-6.76-2.77m121,0a8.24,8.24,0,0,0-7.31,4.33,6,6,0,0,0-6.1-4.33A7.62,7.62,0,0,0,260.74,52c.07-2.49-1.39-3.26-2.88-3.26a2.32,2.32,0,0,0-1.32.28l-3.12,17.71c-.31,1.84.73,2.36,2,2.36H256c1.25,0,2-.52,2.36-2.36l1.93-11c1.42-2.18,2.74-3.12,4.85-3.12s3.33,1.52,3.33,3.85a7.56,7.56,0,0,1-.1,1.21l-1.56,9c-.31,1.84.76,2.36,2,2.36h.52c1.28,0,2.08-.55,2.39-2.36l1.94-11c1.42-2.18,2.78-3.12,4.85-3.12S282,53.83,282,56.3a15.39,15.39,0,0,1-.24,2.22l-1.45,8.21c-.31,1.84.73,2.36,2,2.36h.55c1.45,0,2-.59,2.35-2.36l1.59-9a16,16,0,0,0,.28-2.71,6.17,6.17,0,0,0-6.54-6.55M234.08,60.21c0-4,2.36-8,6.72-8,3.54,0,5,2.6,5,5.48,0,3.6-2.43,7.93-6.93,7.93-3.05,0-4.82-1.94-4.82-5.37m16.45-11.47c-1.93,0-3,.94-3.63,3.4a7.41,7.41,0,0,0-6.72-3.71c-6.27,0-10.64,5.58-10.64,11.92,0,5.23,3.22,9.08,8.28,9.08a7.66,7.66,0,0,0,7-3.85c-.21,2.67.31,3.51,2.22,3.51,1.74,0,2.29-.62,2.46-2.53.24-3.5,1.42-9.22,2.81-17.22,0-.14-.77-.59-1.78-.59m-23.87-.31c-2.36,0-4.09,1.35-5.3,3.81.17-2.7-1.32-3.5-2.84-3.5a2.14,2.14,0,0,0-1.32.28L214,66.73c-.31,1.84.91,2.36,2.22,2.36h.56c1.25,0,1.87-.59,2.18-2.36l1-5.92c.79-4.61,2.49-7.83,5.26-7.83a3.6,3.6,0,0,1,2.78,1.18A3.09,3.09,0,0,0,230.17,51c-.07-1.52-1.6-2.53-3.51-2.53m-88,0A7.61,7.61,0,0,0,132,52.24c.14-2.7-1.35-3.5-2.88-3.5a2.23,2.23,0,0,0-1.32.28l-3.12,17.71c-.31,1.84.73,2.36,2,2.36h.56c1.45,0,2-.59,2.36-2.36l1.87-10.64c1.35-2.36,2.84-3.46,5.13-3.46a3.46,3.46,0,0,1,3.74,3.68,11.41,11.41,0,0,1-.24,2.22l-1.46,8.21c-.31,1.84.73,2.36,2,2.36h.55c1.46,0,2.05-.59,2.36-2.36l1.59-9a13.61,13.61,0,0,0,.28-2.71,6.42,6.42,0,0,0-6.86-6.55M112.4,65.58c-3.26,0-5.3-2.36-5.41-5.54-.14-4.12,2.57-7.8,6.45-7.8a5.5,5.5,0,0,1,5.44,5.58c.14,4.37-2.6,7.76-6.48,7.76m1.08-17.15c-6.9,0-11.12,5.61-10.92,11.78.21,5.62,4.09,9.22,9.81,9.22,7.07,0,11.12-5.65,10.92-11.82-.17-5.26-3.78-9.18-9.8-9.18M100.09,42H98.53c-1.52,0-2.18.45-3.22,2.12L87,57.65,83.49,44.27c-.42-1.59-.87-2.25-2.6-2.25H79.58a3,3,0,0,0-3.12,2.81L72.58,66.59c-.28,1.63.45,2.5,1.87,2.5H75c1.49,0,2.15-.73,2.42-2.36l3.12-17.6,3,11.78c.24,1.18.48,2,2.74,2a2.83,2.83,0,0,0,3-1.77L96.73,49l-3.12,17.6c-.28,1.66.45,2.5,1.84,2.5h.62c1.49,0,2.15-.76,2.42-2.36l3.88-21.83c.31-1.73-.52-2.88-2.29-2.88" style="fill:#fff"/><path d="M291.95,65.79c.48,0,.73-.25.73-.66s-.23-.47-.64-.47h-.59l-.22,1.13Zm.48,1c.16.26.24.36.47.37,0,0,0,.31-.32.31s-.36-.1-.59-.52l-.43-.76h-.39l-.19,1c0,.16-.11.23-.25.23h-.07c-.14,0-.21-.09-.18-.25l.52-2.67a.29.29,0,0,1,.32-.28h.77c.72,0,1.1.29,1.11.83a1,1,0,0,1-1.13,1.08Z" style="fill:#fff"/><path d="M291.82,63A3.06,3.06,0,1,0,294.87,66,3.07,3.07,0,0,0,291.82,63m0,.43A2.63,2.63,0,1,1,289.19,66a2.63,2.63,0,0,1,2.63-2.63" style="fill:#fff"/><path d="M33.36,22.95a19.16,19.16,0,0,0-3.5.9,27.15,27.15,0,0,0-12.47,9.21c-2.68,3.57-4.66,7.67-4.66,12.46,0,6.9,5.42,10,10.27,10s10.72-2.47,15.47-7l.32-.32H31.9a2.08,2.08,0,0,1-2.17-2.47c0-.1.09-.51.11-.6a2.9,2.9,0,0,1,3.07-2.26H46.12a2.14,2.14,0,0,1,2.15,2.66L45.93,58.75a3,3,0,0,1-2.76,2.67h-.58a2.17,2.17,0,0,1-2.08-2.67c.25-1.46,1.09-6.19,1.09-6.19-6.51,6-14.24,9.26-20.85,9.32-4.35,0-14.57-1.8-14.57-14.49A23,23,0,0,1,7.82,39,27.93,27.93,0,1,0,33.55,22.95h-.19" style="fill:#fff"/></svg>