<svg xmlns="http://www.w3.org/2000/svg" viewBox="0 0 300 101.94"><title>logos</title><path d="M84.19,57.72a2.1,2.1,0,0,0-.09.2A14.12,14.12,0,0,1,71.66,65.5a14.54,14.54,0,0,1,0-29.07,14.1,14.1,0,0,1,12.46,7.72,1.38,1.38,0,0,1,.15.27s-4.51,3.29-4.56,3.23a.42.42,0,0,0-.09-.2,8.4,8.4,0,0,0-8-5.35,8.89,8.89,0,0,0,0,17.78,8.67,8.67,0,0,0,7.83-5.13,2.16,2.16,0,0,0,.13-.29Z" style="fill:#fff"/><polygon points="109.79 36.7 109.79 46.86 95.5 46.86 95.5 36.7 90.05 36.7 90.05 64.95 95.5 64.95 95.5 52.54 109.79 52.54 109.79 64.95 115.27 64.95 115.27 36.7 109.79 36.7" style="fill:#fff"/><polygon points="192.09 36.7 192.09 64.95 213.86 64.95 213.86 59.33 197.6 59.33 197.6 53.69 210.76 53.69 210.76 48.05 197.6 48.05 197.6 42.41 211.85 42.41 211.85 36.7 192.09 36.7" style="fill:#fff"/><polygon points="221.58 36.7 221.58 64.95 242.47 64.95 242.47 59.33 227.11 59.33 227.11 36.7 221.58 36.7" style="fill:#fff"/><polygon points="176.65 36.7 176.65 53.69 164.54 36.7 157.27 36.7 156.87 36.7 156.87 64.95 162.22 64.95 162.4 64.95 162.4 43.65 177.75 64.95 182.13 64.95 182.13 36.7 176.65 36.7" style="fill:#fff"/><path d="M136,42.41l5,11.28h-9.87ZM132.2,36.7,119.67,65h6.55l2.52-5.62h14.63L145.92,65h6.54L139.85,36.7Z" style="fill:#fff"/></svg>