<?xml version="1.0" encoding="utf-8"?>
<!-- Generator: Adobe Illustrator 21.0.2, SVG Export Plug-In . SVG Version: 6.00 Build 0)  -->
<svg version="1.1" id="Layer_1" xmlns="http://www.w3.org/2000/svg" xmlns:xlink="http://www.w3.org/1999/xlink" x="0px" y="0px"
	 viewBox="0 0 65 65" style="enable-background:new 0 0 65 65;" xml:space="preserve">
<style type="text/css">
	.st0{fill:#D42B84;}
	.st1{fill:#EC3092;}
	.st2{fill:#FFFFFF;}
</style>
<title>logos</title>
<g>
	<g>
		<polygon class="st0" points="58.1,47.9 58,12.9 25.1,5 5.2,19.2 5.2,54.2 39.1,62 39.1,61.9 39.2,62 		"/>
	</g>
	<g>
		<polygon class="st0" points="9,24 9.3,24.1 9.2,24.1 		"/>
	</g>
</g>
<g>
	<path class="st1" d="M58.1,48.1l-0.1-35L25.1,5.2L5.4,19.4H5.2v35l33.9,7.8h0.1L58.1,48.1z M9,24.3L9,24.3l1.1,0.2L9,24.3z
		 M15.8,19.6l7-5.2v6.8L15.8,19.6z M23,38l-11.2,8.2V24.9l11.1,2.5L23,38z M35.4,55.1l-23.6-5.3l3.9,0.8l10.9-8.1l8.8,2.1V55.1z
		 M35.4,38.9l-6.7-1.6v-8.5l6.8,1.6L35.4,38.9z M37.8,24.8l-9.2-2.1V12.3l20,4.7l4.1-2.9L37.8,24.8z M52.5,43l-11.1-2.7l0.1-10.8
		l10.9-8.1L52.5,43z M48.8,47.9l-7.4,5.6v-7.3L48.8,47.9z"/>
</g>
<g>
	<circle class="st2" cx="37.8" cy="19.7" r="17.5"/>
</g>
<g>
	<path d="M8.2,43.4c0-0.3,0.3-0.6,0.7-0.6s0.7,0.2,0.7,0.6l0,0c0,0.3-0.3,0.6-0.7,0.6C8.4,44,8.2,43.8,8.2,43.4L8.2,43.4z M8.2,45
		c0-0.3,0.3-0.6,0.6-0.6s0.6,0.3,0.6,0.6v3.1c0,0.3-0.3,0.6-0.6,0.6s-0.6-0.3-0.6-0.6V45z"/>
	<path d="M10.6,45c0-0.3,0.3-0.6,0.6-0.6s0.6,0.3,0.6,0.6l0,0c0.3-0.4,0.6-0.7,1.2-0.7c0.9,0,1.4,0.6,1.4,1.6v2.2
		c0,0.3-0.3,0.6-0.6,0.6s-0.6-0.3-0.6-0.6v-1.8c0-0.6-0.3-0.9-0.7-0.9c-0.5,0-0.8,0.3-0.8,0.9v1.8c0,0.3-0.3,0.6-0.6,0.6
		s-0.6-0.3-0.6-0.6V45H10.6z"/>
	<path d="M15.4,48.2c-0.1-0.1-0.2-0.2-0.2-0.4c0-0.3,0.2-0.5,0.5-0.5c0.1,0,0.2,0,0.2,0.1c0.4,0.3,0.8,0.4,1.1,0.4
		c0.3,0,0.5-0.1,0.5-0.3l0,0c0-0.3-0.4-0.3-0.9-0.5c-0.6-0.2-1.3-0.5-1.3-1.3l0,0c0-0.9,0.7-1.3,1.5-1.3c0.4,0,0.9,0.1,1.3,0.3
		c0.2,0.1,0.3,0.2,0.3,0.5s-0.2,0.5-0.5,0.5c-0.1,0-0.1,0-0.2-0.1c-0.3-0.2-0.7-0.3-0.9-0.3c-0.3,0-0.4,0.1-0.4,0.3l0,0
		c0,0.2,0.4,0.3,0.9,0.5c0.6,0.2,1.3,0.5,1.3,1.3l0,0c0,0.9-0.7,1.4-1.6,1.4C16.4,48.7,15.9,48.6,15.4,48.2z"/>
	<path d="M19.6,47.4v-2l0,0c-0.3,0-0.5-0.2-0.5-0.5s0.2-0.5,0.5-0.5l0,0v-0.5c0-0.3,0.3-0.6,0.6-0.6s0.6,0.3,0.6,0.6v0.5h0.5
		c0.3,0,0.5,0.2,0.5,0.5s-0.2,0.5-0.5,0.5h-0.5v1.8c0,0.3,0.1,0.4,0.4,0.4h0.1c0.3,0,0.5,0.2,0.5,0.5c0,0.2-0.1,0.4-0.3,0.5
		c-0.2,0.1-0.4,0.1-0.7,0.1C20.1,48.7,19.6,48.4,19.6,47.4z"/>
	<path d="M22.4,47.4L22.4,47.4c0-0.9,0.7-1.4,1.7-1.4c0.4,0,0.7,0.1,1,0.2v-0.1c0-0.5-0.3-0.8-0.9-0.8c-0.3,0-0.6,0-0.8,0.1
		c-0.1,0-0.1,0-0.2,0c-0.3,0-0.5-0.2-0.5-0.5c0-0.2,0.1-0.4,0.3-0.5c0.4-0.1,0.8-0.2,1.4-0.2c0.7,0,1.1,0.2,1.4,0.5s0.5,0.8,0.5,1.4
		V48c0,0.3-0.3,0.6-0.6,0.6c-0.3,0-0.6-0.2-0.6-0.5l0,0c-0.3,0.3-0.7,0.5-1.3,0.5C23.1,48.7,22.4,48.3,22.4,47.4z M25.2,47.1v-0.2
		c-0.2-0.1-0.5-0.2-0.8-0.2c-0.5,0-0.8,0.2-0.8,0.6l0,0c0,0.3,0.3,0.5,0.7,0.5C24.8,47.9,25.2,47.6,25.2,47.1z"/>
	<path d="M27.2,45.9L27.2,45.9c0-1.6,1.2-2.9,2.9-2.9s2.9,1.3,2.9,2.8l0,0c0,0.6-0.2,1.1-0.5,1.6l0.2,0.2c0.1,0.1,0.2,0.3,0.2,0.5
		c0,0.3-0.3,0.6-0.6,0.6c-0.2,0-0.3-0.1-0.4-0.2l-0.3-0.3c-0.5,0.3-1,0.5-1.6,0.5C28.4,48.7,27.2,47.5,27.2,45.9z M30.1,46.5
		c0-0.3,0.3-0.6,0.6-0.6c0.2,0,0.3,0.1,0.4,0.2l0.6,0.5c0.1-0.2,0.2-0.5,0.2-0.8l0,0c0-0.9-0.7-1.7-1.7-1.7s-1.7,0.8-1.7,1.7l0,0
		c0,0.9,0.7,1.7,1.7,1.7c0.3,0,0.5,0,0.7-0.2L30.3,47C30.2,46.9,30.1,46.7,30.1,46.5z"/>
	<path d="M37.9,48.1c0,0.3-0.3,0.6-0.6,0.6s-0.6-0.3-0.6-0.6l0,0c-0.3,0.4-0.6,0.7-1.2,0.7c-0.9,0-1.4-0.6-1.4-1.6V45
		c0-0.3,0.3-0.6,0.6-0.6s0.6,0.3,0.6,0.6v1.8c0,0.6,0.3,0.9,0.7,0.9c0.5,0,0.8-0.3,0.8-0.9V45c0-0.3,0.3-0.6,0.6-0.6S38,44.7,38,45
		L37.9,48.1L37.9,48.1z"/>
	<path d="M38.8,46.5L38.8,46.5c0-1.2,1-2.2,2.3-2.2s2.3,1,2.3,2.2l0,0c0,1.2-1,2.2-2.3,2.2C39.7,48.7,38.8,47.8,38.8,46.5z
		 M42.2,46.5L42.2,46.5c0-0.6-0.5-1.2-1.1-1.2c-0.7,0-1.1,0.5-1.1,1.2l0,0c0,0.6,0.5,1.2,1.1,1.2C41.8,47.7,42.2,47.2,42.2,46.5z"/>
	<path d="M44.4,47.4v-2l0,0c-0.3,0-0.5-0.2-0.5-0.5s0.2-0.5,0.5-0.5l0,0v-0.5c0-0.3,0.3-0.6,0.6-0.6s0.6,0.3,0.6,0.6v0.5h0.5
		c0.3,0,0.5,0.2,0.5,0.5s-0.2,0.5-0.5,0.5h-0.5v1.8c0,0.3,0.1,0.4,0.4,0.4h0.1c0.3,0,0.5,0.2,0.5,0.5c0,0.2-0.1,0.4-0.3,0.5
		s-0.4,0.1-0.7,0.1C44.9,48.7,44.4,48.4,44.4,47.4z"/>
	<path d="M49.4,48.7c-1.3,0-2.2-0.9-2.2-2.2l0,0c0-1.2,0.9-2.2,2.1-2.2c1.4,0,2,1.2,2,2c0,0.3-0.2,0.6-0.6,0.6h-2.4
		c0.1,0.5,0.5,0.8,1,0.8c0.3,0,0.6-0.1,0.9-0.3c0.1-0.1,0.2-0.1,0.3-0.1c0.3,0,0.5,0.2,0.5,0.5c0,0.2-0.1,0.3-0.2,0.4
		C50.5,48.5,50,48.7,49.4,48.7z M50.2,46.2c-0.1-0.5-0.4-0.9-0.9-0.9s-0.8,0.4-0.9,0.9H50.2z"/>
	<path d="M52.3,43.5c0-0.2,0.1-0.4,0.3-0.4h0.8c0.2,0,0.3,0.2,0.3,0.4l-0.3,3c0,0.2-0.2,0.3-0.4,0.3s-0.3-0.1-0.4-0.3L52.3,43.5z
		 M53,47.3c0.4,0,0.7,0.3,0.7,0.7l0,0c0,0.4-0.3,0.7-0.7,0.7s-0.7-0.3-0.7-0.7l0,0C52.3,47.6,52.6,47.3,53,47.3z"/>
	<g>
		<path d="M8.3,40.9c-0.1,0-0.1-0.1-0.1-0.2c0-0.1,0.1-0.2,0.2-0.2c0,0,0.1,0,0.1,0c0.4,0.3,0.8,0.4,1.3,0.4c0.8,0,1.3-0.4,1.3-1.3
			v-0.4c-0.3,0.4-0.8,0.8-1.4,0.8c-0.9,0-1.7-0.7-1.7-1.7v0c0-1.1,0.8-1.7,1.7-1.7c0.7,0,1.1,0.3,1.4,0.7v-0.4
			c0-0.1,0.1-0.3,0.3-0.3s0.3,0.1,0.3,0.3v2.8c0,0.6-0.2,1-0.5,1.3c-0.3,0.3-0.8,0.5-1.4,0.5C9.3,41.3,8.8,41.2,8.3,40.9z
			 M11.2,38.2L11.2,38.2c0-0.8-0.6-1.2-1.3-1.2s-1.3,0.5-1.3,1.2v0c0,0.7,0.6,1.2,1.3,1.2C10.5,39.4,11.2,38.9,11.2,38.2z"/>
		<path d="M14.5,40.2c-1,0-1.8-0.8-1.8-1.9v0c0-1.1,0.7-1.9,1.7-1.9c1.1,0,1.7,0.9,1.7,1.8c0,0.1-0.1,0.3-0.3,0.3h-2.6
			c0.1,0.8,0.6,1.2,1.3,1.2c0.5,0,0.8-0.2,1.1-0.4c0,0,0.1-0.1,0.2-0.1c0.1,0,0.2,0.1,0.2,0.2c0,0.1,0,0.1-0.1,0.2
			C15.5,40,15.1,40.2,14.5,40.2z M15.6,38.1c-0.1-0.7-0.4-1.2-1.2-1.2c-0.6,0-1.1,0.5-1.2,1.2H15.6z"/>
		<path d="M17.3,39.2V37H17c-0.1,0-0.2-0.1-0.2-0.2c0-0.1,0.1-0.2,0.2-0.2h0.3v-0.9c0-0.1,0.1-0.3,0.3-0.3c0.1,0,0.3,0.1,0.3,0.3
			v0.9h0.9c0.1,0,0.2,0.1,0.2,0.2c0,0.1-0.1,0.2-0.2,0.2h-0.9v2.1c0,0.4,0.2,0.6,0.6,0.6c0.2,0,0.3,0,0.3,0c0.1,0,0.2,0.1,0.2,0.2
			c0,0.1-0.1,0.2-0.2,0.2c-0.2,0.1-0.3,0.1-0.5,0.1C17.7,40.2,17.3,39.9,17.3,39.2z"/>
		<path d="M20.9,39.1L20.9,39.1c0-0.8,0.6-1.2,1.6-1.2c0.5,0,0.8,0.1,1.1,0.2v-0.1c0-0.7-0.4-1-1.1-1c-0.4,0-0.7,0.1-0.9,0.2
			c0,0-0.1,0-0.1,0c-0.1,0-0.2-0.1-0.2-0.2c0-0.1,0.1-0.2,0.1-0.2c0.4-0.2,0.7-0.2,1.2-0.2c0.5,0,0.9,0.1,1.2,0.4
			c0.2,0.2,0.4,0.6,0.4,1.1v2c0,0.2-0.1,0.3-0.3,0.3c-0.2,0-0.3-0.1-0.3-0.3v-0.3c-0.3,0.3-0.7,0.6-1.3,0.6
			C21.6,40.2,20.9,39.8,20.9,39.1z M23.6,38.8v-0.4c-0.3-0.1-0.6-0.2-1.1-0.2c-0.7,0-1.1,0.3-1.1,0.8v0c0,0.5,0.4,0.7,0.9,0.7
			C23,39.8,23.6,39.4,23.6,38.8z"/>
		<path d="M25.2,36.8c0-0.1,0.1-0.3,0.3-0.3c0.2,0,0.3,0.1,0.3,0.3v0.4c0.2-0.4,0.6-0.7,1.2-0.7c0.9,0,1.4,0.6,1.4,1.5v2
			c0,0.2-0.1,0.3-0.3,0.3c-0.2,0-0.3-0.1-0.3-0.3V38c0-0.7-0.4-1.1-1-1.1c-0.6,0-1.1,0.5-1.1,1.1v1.8c0,0.2-0.1,0.3-0.3,0.3
			c-0.2,0-0.3-0.1-0.3-0.3V36.8z"/>
	</g>
</g>
<g>
	<path d="M25,19.7l2.4-2c1-0.9,1.5-1.3,1.5-2c0-0.7-0.5-1.1-1.1-1.1c-0.5,0-0.9,0.2-1.4,0.7c-0.1,0.1-0.3,0.3-0.6,0.3
		c-0.5,0-0.8-0.4-0.8-0.8c0-0.2,0.1-0.4,0.2-0.6c0.7-0.8,1.5-1.2,2.8-1.2c1.8,0,2.9,1,2.9,2.6l0,0c0,1.4-0.7,2.1-2.2,3.3L27.3,20
		h2.9c0.4,0,0.8,0.4,0.8,0.8s-0.4,0.8-0.8,0.8h-4.6c-0.6,0-1-0.3-1-0.9C24.5,20.3,24.7,20,25,19.7z"/>
	<path d="M32.1,17.3L32.1,17.3c0-2.5,1.5-4.4,3.8-4.4c2.2,0,3.7,1.9,3.7,4.3l0,0c0,2.5-1.5,4.4-3.8,4.4
		C33.6,21.7,32.1,19.8,32.1,17.3z M37.7,17.3L37.7,17.3c0-1.6-0.7-2.7-1.9-2.7S34,15.7,34,17.3l0,0c0,1.5,0.7,2.7,1.9,2.7
		S37.7,18.8,37.7,17.3z"/>
	<path d="M40.8,15.2L40.8,15.2c0-1.2,0.8-2.2,2.1-2.2c1.2,0,2,1,2,2.1l0,0c0,1.2-0.8,2.2-2.1,2.2C41.7,17.3,40.8,16.3,40.8,15.2z
		 M43.7,15.2L43.7,15.2c0-0.6-0.3-1.1-0.8-1.1s-0.8,0.5-0.8,1l0,0c0,0.6,0.3,1.1,0.8,1.1C43.4,16.2,43.7,15.7,43.7,15.2z M42.3,20.6
		l5.4-7.4c0.1-0.2,0.3-0.3,0.5-0.3c0.3,0,0.6,0.3,0.6,0.6c0,0.2,0,0.3-0.1,0.4l-5.4,7.4c-0.1,0.2-0.3,0.3-0.5,0.3
		c-0.3,0-0.6-0.3-0.6-0.6C42.2,20.9,42.2,20.7,42.3,20.6z M46,19.5L46,19.5c0-1.2,0.8-2.2,2.1-2.2c1.2,0,2,1,2,2.1l0,0
		c0,1.2-0.8,2.2-2.1,2.2C46.8,21.6,46,20.7,46,19.5z M48.9,19.5L48.9,19.5c0-0.6-0.3-1.1-0.8-1.1s-0.8,0.5-0.8,1l0,0
		c0,0.6,0.3,1.1,0.8,1.1C48.6,20.5,48.9,20,48.9,19.5z"/>
	<path d="M40,27.5L40,27.5c0-1.2,0.9-2.2,2.2-2.2c1.2,0,2.2,1,2.2,2.1l0,0c0,1.2-0.9,2.2-2.2,2.2C41,29.6,40,28.6,40,27.5z
		 M43.7,27.5L43.7,27.5c0-0.9-0.7-1.6-1.5-1.6c-0.9,0-1.5,0.7-1.5,1.6l0,0c0,0.9,0.7,1.6,1.5,1.6C43.1,29.1,43.7,28.3,43.7,27.5z"/>
	<path d="M45.7,25.9h-0.3c-0.2,0-0.3-0.1-0.3-0.3c0-0.1,0.1-0.3,0.3-0.3h0.3V25c0-0.5,0.1-0.8,0.4-1.1c0.2-0.2,0.5-0.3,0.9-0.3
		c0.2,0,0.4,0,0.5,0s0.2,0.1,0.2,0.3c0,0.2-0.1,0.3-0.3,0.3c-0.1,0-0.2,0-0.3,0c-0.5,0-0.7,0.3-0.7,0.9v0.3h1.1
		c0.2,0,0.3,0.1,0.3,0.3c0,0.1-0.1,0.3-0.3,0.3h-1.1v3.3c0,0.2-0.1,0.3-0.3,0.3s-0.3-0.1-0.3-0.3v-3.4H45.7z M48.6,25.9h-0.3
		c-0.2,0-0.3-0.1-0.3-0.3c0-0.1,0.1-0.3,0.3-0.3h0.3V25c0-0.5,0.1-0.8,0.4-1.1c0.2-0.2,0.5-0.3,0.9-0.3c0.2,0,0.4,0,0.5,0
		s0.2,0.1,0.2,0.3c0,0.2-0.1,0.3-0.3,0.3c-0.1,0-0.2,0-0.3,0c-0.5,0-0.7,0.3-0.7,0.9v0.3h1.1c0.2,0,0.3,0.1,0.3,0.3
		c0,0.1-0.1,0.3-0.3,0.3h-1.1v3.3c0,0.2-0.1,0.3-0.3,0.3s-0.3-0.1-0.3-0.3v-3.4H48.6z"/>
</g>
</svg>
