<?xml version="1.0" encoding="utf-8"?>
<!-- Generator: Adobe Illustrator 21.0.2, SVG Export Plug-In . SVG Version: 6.00 Build 0)  -->
<svg version="1.1" id="Layer_1" xmlns="http://www.w3.org/2000/svg" xmlns:xlink="http://www.w3.org/1999/xlink" x="0px" y="0px"
	 viewBox="0 0 65 65" style="enable-background:new 0 0 65 65;" xml:space="preserve">
<style type="text/css">
	.st0{fill:#D42B84;}
	.st1{fill:#EC3092;}
	.st2{fill:#FFFFFF;}
</style>
<title>logos</title>
<g>
	<g>
		<polygon class="st0" points="58.1,47.9 58,12.9 25.1,5 5.2,19.2 5.2,54.2 39.1,62 39.1,61.9 39.2,62 		"/>
	</g>
	<g>
		<polygon class="st0" points="9,24 9.3,24.1 9.2,24.1 		"/>
	</g>
</g>
<g>
	<path class="st1" d="M58.1,48.1l-0.1-35L25.1,5.2L5.4,19.4H5.2v35l33.9,7.8h0.1L58.1,48.1z M9,24.3L9,24.3l1.1,0.2L9,24.3z
		 M15.8,19.6l7-5.2v6.8L15.8,19.6z M23,38l-11.2,8.2V24.9l11.1,2.5L23,38z M35.4,55.1l-23.6-5.3l3.9,0.8l10.9-8.1l8.8,2.1L35.4,55.1
		z M35.4,38.9l-6.7-1.6l0-8.5l6.8,1.6L35.4,38.9z M37.8,24.8l-9.2-2.1l0-10.4l20,4.7l4.1-2.9L37.8,24.8z M52.5,43l-11.1-2.7
		l0.1-10.8l10.9-8.1L52.5,43z M48.8,47.9l-7.4,5.6l0-7.3L48.8,47.9z"/>
</g>
<g>
	<circle class="st2" cx="37.8" cy="19.7" r="17.5"/>
</g>
<g>
	<path d="M8.4,39.4c-0.1,0-0.2-0.1-0.2-0.3c0-0.1,0.1-0.3,0.3-0.3c0.1,0,0.1,0,0.1,0c0.4,0.3,0.9,0.4,1.4,0.4c0.9,0,1.5-0.5,1.5-1.5
		v-0.5c-0.4,0.5-0.9,0.9-1.6,0.9c-1,0-1.9-0.7-1.9-1.9v0c0-1.2,0.9-1.9,1.9-1.9c0.8,0,1.3,0.4,1.6,0.8v-0.5c0-0.2,0.1-0.3,0.3-0.3
		c0.2,0,0.3,0.1,0.3,0.3v3.1c0,0.6-0.2,1.1-0.5,1.4c-0.4,0.4-0.9,0.5-1.6,0.5C9.5,39.9,8.9,39.8,8.4,39.4z M11.6,36.4L11.6,36.4
		c0-0.9-0.7-1.4-1.5-1.4c-0.8,0-1.4,0.5-1.4,1.4v0c0,0.8,0.7,1.4,1.4,1.4C10.9,37.8,11.6,37.2,11.6,36.4z"/>
	<path d="M15.3,38.7c-1.1,0-2-0.9-2-2.1v0c0-1.2,0.8-2.1,2-2.1c1.2,0,1.9,1,1.9,2.1c0,0.2-0.1,0.3-0.3,0.3h-3
		c0.1,0.9,0.7,1.4,1.4,1.4c0.5,0,0.9-0.2,1.2-0.5c0,0,0.1-0.1,0.2-0.1c0.2,0,0.3,0.1,0.3,0.3c0,0.1,0,0.1-0.1,0.2
		C16.5,38.5,16,38.7,15.3,38.7z M16.6,36.4c-0.1-0.7-0.5-1.4-1.3-1.4c-0.7,0-1.2,0.6-1.3,1.4H16.6z"/>
	<path d="M18.5,37.6v-2.5h-0.3c-0.1,0-0.3-0.1-0.3-0.3c0-0.1,0.1-0.3,0.3-0.3h0.3v-1c0-0.2,0.1-0.3,0.3-0.3c0.2,0,0.3,0.1,0.3,0.3v1
		h1.1c0.2,0,0.3,0.1,0.3,0.3c0,0.2-0.1,0.3-0.3,0.3h-1.1v2.4c0,0.5,0.3,0.7,0.7,0.7c0.2,0,0.3-0.1,0.4-0.1c0.1,0,0.3,0.1,0.3,0.3
		c0,0.1-0.1,0.2-0.2,0.2c-0.2,0.1-0.4,0.1-0.6,0.1C18.9,38.7,18.5,38.4,18.5,37.6z"/>
	<path d="M8.2,42.4c0-0.3,0.3-0.6,0.7-0.6c0.4,0,0.7,0.2,0.7,0.6v0c0,0.3-0.3,0.6-0.7,0.6C8.4,43,8.2,42.8,8.2,42.4L8.2,42.4z
		 M8.2,44c0-0.3,0.3-0.6,0.6-0.6s0.6,0.3,0.6,0.6v3.1c0,0.3-0.3,0.6-0.6,0.6s-0.6-0.3-0.6-0.6V44z"/>
	<path d="M10.6,44c0-0.3,0.3-0.6,0.6-0.6c0.3,0,0.6,0.3,0.6,0.6v0c0.3-0.4,0.6-0.7,1.2-0.7c0.9,0,1.4,0.6,1.4,1.6v2.2
		c0,0.3-0.3,0.6-0.6,0.6s-0.6-0.3-0.6-0.6v-1.8c0-0.6-0.3-0.9-0.7-0.9c-0.5,0-0.8,0.3-0.8,0.9v1.8c0,0.3-0.3,0.6-0.6,0.6
		c-0.3,0-0.6-0.3-0.6-0.6V44z"/>
	<path d="M15.4,47.2c-0.1-0.1-0.2-0.2-0.2-0.4c0-0.3,0.2-0.5,0.5-0.5c0.1,0,0.2,0,0.2,0.1c0.4,0.3,0.8,0.4,1.1,0.4
		c0.3,0,0.5-0.1,0.5-0.3v0c0-0.3-0.4-0.3-0.9-0.5c-0.6-0.2-1.3-0.5-1.3-1.3v0c0-0.9,0.7-1.3,1.5-1.3c0.4,0,0.9,0.1,1.3,0.3
		c0.2,0.1,0.3,0.2,0.3,0.5c0,0.3-0.2,0.5-0.5,0.5c-0.1,0-0.1,0-0.2-0.1c-0.3-0.2-0.7-0.3-0.9-0.3c-0.3,0-0.4,0.1-0.4,0.3v0
		c0,0.2,0.4,0.3,0.9,0.5c0.6,0.2,1.3,0.5,1.3,1.3v0c0,0.9-0.7,1.4-1.6,1.4C16.4,47.7,15.9,47.6,15.4,47.2z"/>
	<path d="M19.6,46.4v-2h0c-0.3,0-0.5-0.2-0.5-0.5c0-0.3,0.2-0.5,0.5-0.5h0v-0.5c0-0.3,0.3-0.6,0.6-0.6s0.6,0.3,0.6,0.6v0.5h0.5
		c0.3,0,0.5,0.2,0.5,0.5c0,0.3-0.2,0.5-0.5,0.5h-0.5v1.8c0,0.3,0.1,0.4,0.4,0.4c0,0,0.1,0,0.1,0c0.3,0,0.5,0.2,0.5,0.5
		c0,0.2-0.1,0.4-0.3,0.5c-0.2,0.1-0.4,0.1-0.7,0.1C20.1,47.7,19.6,47.4,19.6,46.4z"/>
	<path d="M22.4,46.4L22.4,46.4c0-0.9,0.7-1.4,1.7-1.4c0.4,0,0.7,0.1,1,0.2v-0.1c0-0.5-0.3-0.8-0.9-0.8c-0.3,0-0.6,0-0.8,0.1
		c-0.1,0-0.1,0-0.2,0c-0.3,0-0.5-0.2-0.5-0.5c0-0.2,0.1-0.4,0.3-0.5c0.4-0.1,0.8-0.2,1.4-0.2c0.7,0,1.1,0.2,1.4,0.5
		c0.3,0.3,0.5,0.8,0.5,1.4v1.9c0,0.3-0.3,0.6-0.6,0.6c-0.3,0-0.6-0.2-0.6-0.5v0c-0.3,0.3-0.7,0.5-1.3,0.5
		C23.1,47.7,22.4,47.3,22.4,46.4z M25.2,46.1v-0.2c-0.2-0.1-0.5-0.2-0.8-0.2c-0.5,0-0.8,0.2-0.8,0.6v0c0,0.3,0.3,0.5,0.7,0.5
		C24.8,46.9,25.2,46.6,25.2,46.1z"/>
	<path d="M27.2,44.9L27.2,44.9c0-1.6,1.2-2.9,2.9-2.9s2.9,1.3,2.9,2.8v0c0,0.6-0.2,1.1-0.5,1.6l0.2,0.2c0.1,0.1,0.2,0.3,0.2,0.5
		c0,0.3-0.3,0.6-0.6,0.6c-0.2,0-0.3-0.1-0.4-0.2l-0.3-0.3c-0.5,0.3-1,0.5-1.6,0.5C28.4,47.7,27.2,46.5,27.2,44.9z M30.1,45.5
		c0-0.3,0.3-0.6,0.6-0.6c0.2,0,0.3,0.1,0.4,0.2l0.6,0.5c0.1-0.2,0.2-0.5,0.2-0.8v0c0-0.9-0.7-1.7-1.7-1.7c-1,0-1.7,0.8-1.7,1.7v0
		c0,0.9,0.7,1.7,1.7,1.7c0.3,0,0.5,0,0.7-0.2L30.3,46C30.2,45.9,30.1,45.7,30.1,45.5z"/>
	<path d="M37.9,47.1c0,0.3-0.3,0.6-0.6,0.6s-0.6-0.3-0.6-0.6v0c-0.3,0.4-0.6,0.7-1.2,0.7c-0.9,0-1.4-0.6-1.4-1.6V44
		c0-0.3,0.3-0.6,0.6-0.6s0.6,0.3,0.6,0.6v1.8c0,0.6,0.3,0.9,0.7,0.9c0.5,0,0.8-0.3,0.8-0.9V44c0-0.3,0.3-0.6,0.6-0.6
		s0.6,0.3,0.6,0.6V47.1z"/>
	<path d="M38.8,45.5L38.8,45.5c0-1.2,1-2.2,2.3-2.2c1.3,0,2.3,1,2.3,2.2v0c0,1.2-1,2.2-2.3,2.2C39.7,47.7,38.8,46.8,38.8,45.5z
		 M42.2,45.5L42.2,45.5c0-0.6-0.5-1.2-1.1-1.2c-0.7,0-1.1,0.5-1.1,1.2v0c0,0.6,0.5,1.2,1.1,1.2C41.8,46.7,42.2,46.2,42.2,45.5z"/>
	<path d="M44.4,46.4v-2h0c-0.3,0-0.5-0.2-0.5-0.5c0-0.3,0.2-0.5,0.5-0.5h0v-0.5c0-0.3,0.3-0.6,0.6-0.6s0.6,0.3,0.6,0.6v0.5h0.5
		c0.3,0,0.5,0.2,0.5,0.5c0,0.3-0.2,0.5-0.5,0.5h-0.5v1.8c0,0.3,0.1,0.4,0.4,0.4c0,0,0.1,0,0.1,0c0.3,0,0.5,0.2,0.5,0.5
		c0,0.2-0.1,0.4-0.3,0.5c-0.2,0.1-0.4,0.1-0.7,0.1C44.9,47.7,44.4,47.4,44.4,46.4z"/>
	<path d="M49.4,47.7c-1.3,0-2.2-0.9-2.2-2.2v0c0-1.2,0.9-2.2,2.1-2.2c1.4,0,2,1.2,2,2c0,0.3-0.2,0.6-0.6,0.6h-2.4
		c0.1,0.5,0.5,0.8,1,0.8c0.3,0,0.6-0.1,0.9-0.3c0.1-0.1,0.2-0.1,0.3-0.1c0.3,0,0.5,0.2,0.5,0.5c0,0.2-0.1,0.3-0.2,0.4
		C50.5,47.5,50,47.7,49.4,47.7z M50.2,45.2c-0.1-0.5-0.4-0.9-0.9-0.9c-0.5,0-0.8,0.4-0.9,0.9H50.2z"/>
	<path d="M52.3,42.5c0-0.2,0.1-0.4,0.3-0.4h0.8c0.2,0,0.3,0.2,0.3,0.4l-0.3,3c0,0.2-0.2,0.3-0.4,0.3c-0.2,0-0.3-0.1-0.4-0.3
		L52.3,42.5z M53,46.3c0.4,0,0.7,0.3,0.7,0.7v0c0,0.4-0.3,0.7-0.7,0.7c-0.4,0-0.7-0.3-0.7-0.7v0C52.3,46.6,52.6,46.3,53,46.3z"/>
</g>
<g>
	<path d="M25,19.7l2.4-2c1-0.9,1.5-1.3,1.5-2c0-0.7-0.5-1.1-1.1-1.1c-0.5,0-0.9,0.2-1.4,0.7c-0.1,0.1-0.3,0.3-0.6,0.3
		c-0.5,0-0.8-0.4-0.8-0.8c0-0.2,0.1-0.4,0.2-0.6c0.7-0.8,1.5-1.2,2.8-1.2c1.8,0,2.9,1,2.9,2.6v0c0,1.4-0.7,2.1-2.2,3.3l-1.4,1.1h2.9
		c0.4,0,0.8,0.4,0.8,0.8c0,0.4-0.4,0.8-0.8,0.8h-4.6c-0.6,0-1-0.3-1-0.9C24.5,20.3,24.7,20,25,19.7z"/>
	<path d="M32.1,17.3L32.1,17.3c0-2.5,1.5-4.4,3.8-4.4c2.2,0,3.7,1.9,3.7,4.3v0c0,2.5-1.5,4.4-3.8,4.4C33.6,21.7,32.1,19.8,32.1,17.3
		z M37.7,17.3L37.7,17.3c0-1.6-0.7-2.7-1.9-2.7S34,15.7,34,17.3v0c0,1.5,0.7,2.7,1.9,2.7S37.7,18.8,37.7,17.3z"/>
	<path d="M40.8,15.2L40.8,15.2c0-1.2,0.8-2.2,2.1-2.2c1.2,0,2,1,2,2.1v0c0,1.2-0.8,2.2-2.1,2.2C41.7,17.3,40.8,16.3,40.8,15.2z
		 M43.7,15.2L43.7,15.2c0-0.6-0.3-1.1-0.8-1.1c-0.5,0-0.8,0.5-0.8,1v0c0,0.6,0.3,1.1,0.8,1.1C43.4,16.2,43.7,15.7,43.7,15.2z
		 M42.3,20.6l5.4-7.4c0.1-0.2,0.3-0.3,0.5-0.3c0.3,0,0.6,0.3,0.6,0.6c0,0.2,0,0.3-0.1,0.4l-5.4,7.4c-0.1,0.2-0.3,0.3-0.5,0.3
		c-0.3,0-0.6-0.3-0.6-0.6C42.2,20.9,42.2,20.7,42.3,20.6z M46,19.5L46,19.5c0-1.2,0.8-2.2,2.1-2.2c1.2,0,2,1,2,2.1v0
		c0,1.2-0.8,2.2-2.1,2.2C46.8,21.6,46,20.7,46,19.5z M48.9,19.5L48.9,19.5c0-0.6-0.3-1.1-0.8-1.1c-0.5,0-0.8,0.5-0.8,1v0
		c0,0.6,0.3,1.1,0.8,1.1C48.6,20.5,48.9,20,48.9,19.5z"/>
	<path d="M40,27.5L40,27.5c0-1.2,0.9-2.2,2.2-2.2c1.2,0,2.2,1,2.2,2.1v0c0,1.2-0.9,2.2-2.2,2.2C41,29.6,40,28.6,40,27.5z M43.7,27.5
		L43.7,27.5c0-0.9-0.7-1.6-1.5-1.6c-0.9,0-1.5,0.7-1.5,1.6v0c0,0.9,0.7,1.6,1.5,1.6C43.1,29.1,43.7,28.3,43.7,27.5z"/>
	<path d="M45.7,25.9h-0.3c-0.2,0-0.3-0.1-0.3-0.3c0-0.1,0.1-0.3,0.3-0.3h0.3V25c0-0.5,0.1-0.8,0.4-1.1c0.2-0.2,0.5-0.3,0.9-0.3
		c0.2,0,0.4,0,0.5,0c0.1,0,0.2,0.1,0.2,0.3c0,0.2-0.1,0.3-0.3,0.3c-0.1,0-0.2,0-0.3,0c-0.5,0-0.7,0.3-0.7,0.9v0.3h1.1
		c0.2,0,0.3,0.1,0.3,0.3c0,0.1-0.1,0.3-0.3,0.3h-1.1v3.3c0,0.2-0.1,0.3-0.3,0.3s-0.3-0.1-0.3-0.3V25.9z M48.6,25.9h-0.3
		c-0.2,0-0.3-0.1-0.3-0.3c0-0.1,0.1-0.3,0.3-0.3h0.3V25c0-0.5,0.1-0.8,0.4-1.1c0.2-0.2,0.5-0.3,0.9-0.3c0.2,0,0.4,0,0.5,0
		c0.1,0,0.2,0.1,0.2,0.3c0,0.2-0.1,0.3-0.3,0.3c-0.1,0-0.2,0-0.3,0c-0.5,0-0.7,0.3-0.7,0.9v0.3h1.1c0.2,0,0.3,0.1,0.3,0.3
		c0,0.1-0.1,0.3-0.3,0.3h-1.1v3.3c0,0.2-0.1,0.3-0.3,0.3s-0.3-0.1-0.3-0.3V25.9z"/>
</g>
</svg>
