<?xml version="1.0" encoding="utf-8"?>
<!-- Generator: Adobe Illustrator 21.0.2, SVG Export Plug-In . SVG Version: 6.00 Build 0)  -->
<svg version="1.1" id="Layer_1" xmlns="http://www.w3.org/2000/svg" xmlns:xlink="http://www.w3.org/1999/xlink" x="0px" y="0px"
	 viewBox="0 0 65 65" style="enable-background:new 0 0 65 65;" xml:space="preserve">
<style type="text/css">
	.st0{fill:#D42B84;}
	.st1{fill:#EC3092;}
</style>
<title>logos</title>
<g>
	<g>
		<polygon class="st0" points="58.1,47.9 58,12.9 25.1,5 5.2,19.2 5.2,54.2 39.1,62 39.1,61.9 39.2,62 		"/>
	</g>
	<g>
		<polygon class="st0" points="9,24 9.3,24.1 9.2,24.1 		"/>
	</g>
</g>
<g>
	<path class="st1" d="M58.1,48.1l-0.1-35L25.1,5.2L5.4,19.4H5.2v35l33.9,7.8h0.1L58.1,48.1z M9,24.3L9,24.3l1.1,0.2L9,24.3z
		 M15.8,19.6l7-5.2v6.8L15.8,19.6z M23,38l-11.2,8.2V24.9l11.1,2.5L23,38z M35.4,55.1l-23.6-5.3l3.9,0.8l10.9-8.1l8.8,2.1V55.1z
		 M35.4,38.9l-6.7-1.6v-8.5l6.8,1.6L35.4,38.9z M37.8,24.8l-9.2-2.1V12.3l20,4.7l4.1-2.9L37.8,24.8z M52.5,43l-11.1-2.7l0.1-10.8
		l10.9-8.1L52.5,43z M48.8,47.9l-7.4,5.6v-7.3L48.8,47.9z"/>
</g>
<g>
	<path d="M9.2,35.4c0-0.3,0.3-0.6,0.7-0.6s0.7,0.2,0.7,0.6l0,0c0,0.3-0.3,0.6-0.7,0.6C9.4,36,9.2,35.8,9.2,35.4L9.2,35.4z M9.2,37
		c0-0.3,0.3-0.6,0.6-0.6s0.6,0.3,0.6,0.6v3.1c0,0.3-0.3,0.6-0.6,0.6s-0.6-0.3-0.6-0.6V37z"/>
	<path d="M11.6,37c0-0.3,0.3-0.6,0.6-0.6s0.6,0.3,0.6,0.6l0,0c0.3-0.4,0.6-0.7,1.2-0.7c0.9,0,1.4,0.6,1.4,1.6v2.2
		c0,0.3-0.3,0.6-0.6,0.6s-0.6-0.3-0.6-0.6v-1.8c0-0.6-0.3-0.9-0.7-0.9c-0.5,0-0.8,0.3-0.8,0.9v1.8c0,0.3-0.3,0.6-0.6,0.6
		s-0.6-0.3-0.6-0.6V37H11.6z"/>
	<path d="M16.4,40.2c-0.1-0.1-0.2-0.2-0.2-0.4c0-0.3,0.2-0.5,0.5-0.5c0.1,0,0.2,0,0.2,0.1c0.4,0.3,0.8,0.4,1.1,0.4
		c0.3,0,0.5-0.1,0.5-0.3l0,0c0-0.3-0.4-0.3-0.9-0.5c-0.6-0.2-1.3-0.5-1.3-1.3l0,0c0-0.9,0.7-1.3,1.5-1.3c0.4,0,0.9,0.1,1.3,0.3
		c0.2,0.1,0.3,0.2,0.3,0.5s-0.2,0.5-0.5,0.5c-0.1,0-0.1,0-0.2-0.1c-0.3-0.2-0.7-0.3-0.9-0.3c-0.3,0-0.4,0.1-0.4,0.3l0,0
		c0,0.2,0.4,0.3,0.9,0.5c0.6,0.2,1.3,0.5,1.3,1.3l0,0c0,0.9-0.7,1.4-1.6,1.4C17.4,40.7,16.9,40.6,16.4,40.2z"/>
	<path d="M20.6,39.4v-2l0,0c-0.3,0-0.5-0.2-0.5-0.5s0.2-0.5,0.5-0.5l0,0v-0.5c0-0.3,0.3-0.6,0.6-0.6s0.6,0.3,0.6,0.6v0.5h0.5
		c0.3,0,0.5,0.2,0.5,0.5s-0.2,0.5-0.5,0.5h-0.5v1.8c0,0.3,0.1,0.4,0.4,0.4h0.1c0.3,0,0.5,0.2,0.5,0.5c0,0.2-0.1,0.4-0.3,0.5
		c-0.2,0.1-0.4,0.1-0.7,0.1C21.1,40.7,20.6,40.4,20.6,39.4z"/>
	<path d="M23.4,39.4L23.4,39.4c0-0.9,0.7-1.4,1.7-1.4c0.4,0,0.7,0.1,1,0.2v-0.1c0-0.5-0.3-0.8-0.9-0.8c-0.3,0-0.6,0-0.8,0.1
		c-0.1,0-0.1,0-0.2,0c-0.3,0-0.5-0.2-0.5-0.5c0-0.2,0.1-0.4,0.3-0.5c0.4-0.1,0.8-0.2,1.4-0.2c0.7,0,1.1,0.2,1.4,0.5s0.5,0.8,0.5,1.4
		V40c0,0.3-0.3,0.6-0.6,0.6c-0.3,0-0.6-0.2-0.6-0.5l0,0c-0.3,0.3-0.7,0.5-1.3,0.5C24.1,40.7,23.4,40.3,23.4,39.4z M26.2,39.1v-0.2
		c-0.2-0.1-0.5-0.2-0.8-0.2c-0.5,0-0.8,0.2-0.8,0.6l0,0c0,0.3,0.3,0.5,0.7,0.5C25.8,39.9,26.2,39.6,26.2,39.1z"/>
	<path d="M28.2,37.9L28.2,37.9c0-1.6,1.2-2.9,2.9-2.9s2.9,1.3,2.9,2.8l0,0c0,0.6-0.2,1.1-0.5,1.6l0.2,0.2c0.1,0.1,0.2,0.3,0.2,0.5
		c0,0.3-0.3,0.6-0.6,0.6c-0.2,0-0.3-0.1-0.4-0.2l-0.3-0.3c-0.5,0.3-1,0.5-1.6,0.5C29.4,40.7,28.2,39.5,28.2,37.9z M31.1,38.5
		c0-0.3,0.3-0.6,0.6-0.6c0.2,0,0.3,0.1,0.4,0.2l0.6,0.5c0.1-0.2,0.2-0.5,0.2-0.8l0,0c0-0.9-0.7-1.7-1.7-1.7s-1.7,0.8-1.7,1.7l0,0
		c0,0.9,0.7,1.7,1.7,1.7c0.3,0,0.5,0,0.7-0.2L31.3,39C31.2,38.9,31.1,38.7,31.1,38.5z"/>
	<path d="M38.9,40.1c0,0.3-0.3,0.6-0.6,0.6s-0.6-0.3-0.6-0.6l0,0c-0.3,0.4-0.6,0.7-1.2,0.7c-0.9,0-1.4-0.6-1.4-1.6V37
		c0-0.3,0.3-0.6,0.6-0.6s0.6,0.3,0.6,0.6v1.8c0,0.6,0.3,0.9,0.7,0.9c0.5,0,0.8-0.3,0.8-0.9V37c0-0.3,0.3-0.6,0.6-0.6S39,36.7,39,37
		L38.9,40.1L38.9,40.1z"/>
	<path d="M39.8,38.5L39.8,38.5c0-1.2,1-2.2,2.3-2.2s2.3,1,2.3,2.2l0,0c0,1.2-1,2.2-2.3,2.2C40.7,40.7,39.8,39.8,39.8,38.5z
		 M43.2,38.5L43.2,38.5c0-0.6-0.5-1.2-1.1-1.2c-0.7,0-1.1,0.5-1.1,1.2l0,0c0,0.6,0.5,1.2,1.1,1.2C42.8,39.7,43.2,39.2,43.2,38.5z"/>
	<path d="M45.4,39.4v-2l0,0c-0.3,0-0.5-0.2-0.5-0.5s0.2-0.5,0.5-0.5l0,0v-0.5c0-0.3,0.3-0.6,0.6-0.6s0.6,0.3,0.6,0.6v0.5h0.5
		c0.3,0,0.5,0.2,0.5,0.5s-0.2,0.5-0.5,0.5h-0.5v1.8c0,0.3,0.1,0.4,0.4,0.4h0.1c0.3,0,0.5,0.2,0.5,0.5c0,0.2-0.1,0.4-0.3,0.5
		s-0.4,0.1-0.7,0.1C45.9,40.7,45.4,40.4,45.4,39.4z"/>
	<path d="M50.4,40.7c-1.3,0-2.2-0.9-2.2-2.2l0,0c0-1.2,0.9-2.2,2.1-2.2c1.4,0,2,1.2,2,2c0,0.3-0.2,0.6-0.6,0.6h-2.4
		c0.1,0.5,0.5,0.8,1,0.8c0.3,0,0.6-0.1,0.9-0.3c0.1-0.1,0.2-0.1,0.3-0.1c0.3,0,0.5,0.2,0.5,0.5c0,0.2-0.1,0.3-0.2,0.4
		C51.5,40.5,51,40.7,50.4,40.7z M51.2,38.2c-0.1-0.5-0.4-0.9-0.9-0.9s-0.8,0.4-0.9,0.9H51.2z"/>
	<path d="M53.3,35.5c0-0.2,0.1-0.4,0.3-0.4h0.8c0.2,0,0.3,0.2,0.3,0.4l-0.3,3c0,0.2-0.2,0.3-0.4,0.3s-0.3-0.1-0.4-0.3L53.3,35.5z
		 M54,39.3c0.4,0,0.7,0.3,0.7,0.7l0,0c0,0.4-0.3,0.7-0.7,0.7s-0.7-0.3-0.7-0.7l0,0C53.3,39.6,53.6,39.3,54,39.3z"/>
	<g>
		<path d="M9.3,32.9c-0.1,0-0.1-0.1-0.1-0.2c0-0.1,0.1-0.2,0.2-0.2h0.1c0.4,0.3,0.8,0.4,1.3,0.4c0.8,0,1.3-0.4,1.3-1.3v-0.4
			c-0.3,0.4-0.8,0.8-1.4,0.8C9.8,32,9,31.3,9,30.3l0,0c0-1.1,0.8-1.7,1.7-1.7c0.7,0,1.1,0.3,1.4,0.7v-0.4c0-0.1,0.1-0.3,0.3-0.3
			s0.3,0.1,0.3,0.3v2.8c0,0.6-0.2,1-0.5,1.3s-0.8,0.5-1.4,0.5C10.3,33.3,9.8,33.2,9.3,32.9z M12.2,30.2L12.2,30.2
			c0-0.8-0.6-1.2-1.3-1.2s-1.3,0.5-1.3,1.2l0,0c0,0.7,0.6,1.2,1.3,1.2C11.5,31.4,12.2,30.9,12.2,30.2z"/>
		<path d="M15.5,32.2c-1,0-1.8-0.8-1.8-1.9l0,0c0-1.1,0.7-1.9,1.7-1.9c1.1,0,1.7,0.9,1.7,1.8c0,0.1-0.1,0.3-0.3,0.3h-2.6
			c0.1,0.8,0.6,1.2,1.3,1.2c0.5,0,0.8-0.2,1.1-0.4c0,0,0.1-0.1,0.2-0.1c0.1,0,0.2,0.1,0.2,0.2c0,0.1,0,0.1-0.1,0.2
			C16.5,32,16.1,32.2,15.5,32.2z M16.6,30.1c-0.1-0.7-0.4-1.2-1.2-1.2c-0.6,0-1.1,0.5-1.2,1.2H16.6z"/>
		<path d="M18.3,31.2V29H18c-0.1,0-0.2-0.1-0.2-0.2c0-0.1,0.1-0.2,0.2-0.2h0.3v-0.9c0-0.1,0.1-0.3,0.3-0.3c0.1,0,0.3,0.1,0.3,0.3
			v0.9h0.9c0.1,0,0.2,0.1,0.2,0.2c0,0.1-0.1,0.2-0.2,0.2h-0.9v2.1c0,0.4,0.2,0.6,0.6,0.6c0.2,0,0.3,0,0.3,0c0.1,0,0.2,0.1,0.2,0.2
			c0,0.1-0.1,0.2-0.2,0.2c-0.2,0.1-0.3,0.1-0.5,0.1C18.7,32.2,18.3,31.9,18.3,31.2z"/>
		<path d="M21.9,31.1L21.9,31.1c0-0.8,0.6-1.2,1.6-1.2c0.5,0,0.8,0.1,1.1,0.2V30c0-0.7-0.4-1-1.1-1c-0.4,0-0.7,0.1-0.9,0.2h-0.1
			c-0.1,0-0.2-0.1-0.2-0.2c0-0.1,0.1-0.2,0.1-0.2c0.4-0.2,0.7-0.2,1.2-0.2s0.9,0.1,1.2,0.4c0.2,0.2,0.4,0.6,0.4,1.1v2
			c0,0.2-0.1,0.3-0.3,0.3c-0.2,0-0.3-0.1-0.3-0.3v-0.3c-0.3,0.3-0.7,0.6-1.3,0.6C22.6,32.2,21.9,31.8,21.9,31.1z M24.6,30.8v-0.4
			c-0.3-0.1-0.6-0.2-1.1-0.2c-0.7,0-1.1,0.3-1.1,0.8l0,0c0,0.5,0.4,0.7,0.9,0.7C24,31.8,24.6,31.4,24.6,30.8z"/>
		<path d="M26.2,28.8c0-0.1,0.1-0.3,0.3-0.3c0.2,0,0.3,0.1,0.3,0.3v0.4c0.2-0.4,0.6-0.7,1.2-0.7c0.9,0,1.4,0.6,1.4,1.5v2
			c0,0.2-0.1,0.3-0.3,0.3c-0.2,0-0.3-0.1-0.3-0.3v-2c0-0.7-0.4-1.1-1-1.1s-1.1,0.5-1.1,1.1v1.8c0,0.2-0.1,0.3-0.3,0.3
			c-0.2,0-0.3-0.1-0.3-0.3L26.2,28.8L26.2,28.8z"/>
	</g>
</g>
</svg>
