<?xml version="1.0" encoding="utf-8"?>
<!-- Generator: Adobe Illustrator 21.0.2, SVG Export Plug-In . SVG Version: 6.00 Build 0)  -->
<svg version="1.1" id="Layer_1" xmlns="http://www.w3.org/2000/svg" xmlns:xlink="http://www.w3.org/1999/xlink" x="0px" y="0px"
	 viewBox="0 0 150 100" style="enable-background:new 0 0 150 100;" xml:space="preserve">
<style type="text/css">
	.st0{fill:#2CBDC0;}
	.st1{fill:#E0E221;}
	.st2{fill:#EC3092;}
	.st3{fill:#2D2D2D;}
</style>
<g id="XMLID_5_">
	<path class="st0" d="M78.9,17.6L31.1,6.1L2.5,26.7l25.3,6.1v0L2.2,26.7v50.8l49.3,11.4V64.7l14,3.3l5.4-4L54.7,76.1l0.1-10.6
		l-3.3-0.8l0.1,24.2L79,68.4L78.9,17.6z M36.3,40.2l9.9,2.4L46.1,55l-9.8-2.4L36.3,40.2z M49.6,34.5l-13.4-3.1l0-15.1l29.1,6.8
		l5.9-4.2L49.6,34.5z M11.1,25.5l6.5,1.5L33,15.6l0,0.1l-5.2,3.8v9.9L11.1,25.5z M27.9,38.3l0.2,15.4L11.8,65.6v-31L27.9,38.3z
		 M17.5,72l15.8-11.7l12.8,3.1L46,78.5l-34.2-7.7L17.5,72z M9.3,34.1l-1.6-0.3v0L9.3,34.1z M54.8,57l0.1-15.7l15.9-11.8l0.1,31.4
		L54.8,57z"/>
	<g id="XMLID_184_">
		<polygon id="XMLID_558_" class="st1" points="33,9.5 11.1,25.5 27.8,29.4 27.9,32.8 2.5,26.7 31.1,6.1 78.9,17.6 51.4,38.3 
			36.2,34.7 36.2,31.4 49.6,34.5 71.2,19 		"/>
		<path id="XMLID_473_" class="st2" d="M78.9,17.6L51.4,38.3l0.1,18l3.3,0.8l0.1-15.8L76,25.7l0.2,39.6L54.7,80.8l0.1-15.3l-3.3-0.8
			l0.1,24.2L79,68.4L78.9,17.6z"/>
		<polygon id="XMLID_472_" class="st1" points="54.7,80.8 76.2,65.3 70.9,64 54.7,76.1 		"/>
		<polygon id="XMLID_1_" class="st0" points="70.9,64 70.8,29.5 76,25.7 76.2,65.3 		"/>
		<polygon id="XMLID_246_" class="st2" points="11.1,25.5 33,9.5 33,15.6 17.6,27 		"/>
		<polygon id="XMLID_193_" class="st2" points="36.2,16.3 33,15.6 33.3,54.8 36.3,52.6 		"/>
		<polygon id="XMLID_192_" class="st0" points="33,9.5 33,15.6 65.3,23.2 71.2,19 		"/>
		<polygon id="XMLID_191_" class="st0" points="46.2,42.6 36.2,40.2 36.2,34.7 51.4,38.3 51.5,56.3 46.1,55 		"/>
		<polygon id="XMLID_190_" class="st2" points="33.3,60.3 33.3,54.8 11.8,70.8 17.5,72 		"/>
		<polygon id="XMLID_189_" class="st1" points="33.3,54.8 11.8,70.8 11.8,65.6 28.1,53.7 		"/>
		<polygon id="XMLID_188_" class="st2" points="11.8,70.8 7.6,73.5 7.6,33.7 11.8,34.6 		"/>
		<polygon id="XMLID_187_" class="st1" points="7.6,73.5 11.8,70.8 46.2,78.5 46.2,82.5 		"/>
		<polygon id="XMLID_186_" class="st0" points="70.9,64 33.3,54.8 33.3,60.3 46.1,63.4 46,82.3 7.7,73.5 7.7,33.7 27.9,38.3 
			28.1,53.7 33.3,54.8 33.1,15.6 27.8,19.5 27.8,32.8 2.2,26.7 2.2,77.5 51.5,88.9 51.5,64.7 65.5,68 		"/>
		<polygon id="XMLID_185_" class="st1" points="36.3,52.6 33.3,54.8 70.9,64 70.9,60.9 		"/>
	</g>
	<g id="XMLID_6_">
		<path id="XMLID_182_" class="st3" d="M99.1,44.6c0.6,0.4,1.1,0.9,1.5,1.6c0.4,0.7,0.5,1.4,0.5,2.1v5.8h-2V52v-3.7
			c0-0.3-0.1-0.7-0.2-0.9c-0.1-0.3-0.3-0.6-0.5-0.8s-0.5-0.4-0.8-0.5s-0.6-0.2-0.9-0.2s-0.7,0.1-1,0.2c-0.3,0.1-0.6,0.3-0.8,0.5
			c-0.2,0.2-0.4,0.5-0.5,0.8s-0.2,0.6-0.2,0.9V52v2.1h-2V52v-3.7c0-0.3-0.1-0.7-0.2-0.9c-0.1-0.3-0.3-0.6-0.5-0.8s-0.5-0.4-0.8-0.5
			s-0.6-0.2-0.9-0.2s-0.7,0.1-1,0.2c-0.3,0.1-0.6,0.3-0.8,0.5c-0.2,0.2-0.4,0.5-0.5,0.8s-0.2,0.6-0.2,0.9V52v2.1h-2v-5.8v-4.5h2v0.7
			c0.4-0.2,0.8-0.4,1.2-0.5c0.4-0.1,0.9-0.2,1.3-0.2c0.5,0,0.9,0.1,1.3,0.2c0.4,0.1,0.8,0.3,1.2,0.5c0.4,0.2,0.7,0.6,1,0.9
			c0.3-0.4,0.6-0.7,1-0.9s0.8-0.4,1.2-0.5c0.4-0.1,0.9-0.2,1.3-0.2c0.5,0,0.9,0.1,1.3,0.2C98.3,44.2,98.7,44.3,99.1,44.6z"/>
		<path id="XMLID_179_" class="st3" d="M108.7,43.9c0.7,0,1.4,0.1,2,0.4c0.6,0.3,1.2,0.6,1.6,1.1c0.5,0.5,0.8,1,1.1,1.6
			c0.3,0.6,0.4,1.3,0.4,2s-0.1,1.4-0.4,2s-0.6,1.2-1.1,1.6c-0.5,0.5-1,0.8-1.6,1.1s-1.3,0.4-2,0.4s-1.4-0.1-2-0.4
			c-0.6-0.3-1.2-0.6-1.6-1.1c-0.5-0.5-0.8-1-1.1-1.6c-0.3-0.6-0.4-1.3-0.4-2s0.1-1.4,0.4-2s0.6-1.2,1.1-1.6c0.5-0.5,1-0.8,1.6-1.1
			C107.4,44,108,43.9,108.7,43.9z M108.7,52.1c0.4,0,0.8-0.1,1.2-0.2c0.4-0.2,0.7-0.4,1-0.7s0.5-0.6,0.7-1s0.2-0.8,0.2-1.2
			s-0.1-0.8-0.2-1.2c-0.2-0.4-0.4-0.7-0.7-1c-0.3-0.3-0.6-0.5-1-0.7s-0.8-0.2-1.2-0.2c-0.4,0-0.8,0.1-1.2,0.2
			c-0.4,0.2-0.7,0.4-1,0.7s-0.5,0.6-0.7,1s-0.3,0.8-0.3,1.2s0.1,0.8,0.3,1.2c0.2,0.4,0.4,0.7,0.7,1c0.3,0.3,0.6,0.5,1,0.7
			C107.9,52,108.3,52.1,108.7,52.1z"/>
		<path id="XMLID_177_" class="st3" d="M123.6,44.6c0.4,0.3,0.8,0.6,1.1,1.1l-1.1,0.9l-0.4,0.3c-0.2-0.3-0.5-0.6-0.9-0.8
			s-0.7-0.3-1.2-0.3c-0.3,0-0.7,0.1-0.9,0.2c-0.3,0.1-0.6,0.3-0.8,0.5c-0.2,0.2-0.4,0.5-0.5,0.8s-0.2,0.6-0.2,0.9V52v2.1h-2v-5.8
			v-4.4h2v0.7c0.3-0.2,0.7-0.4,1.1-0.5s0.8-0.2,1.3-0.2s0.9,0.1,1.3,0.2C122.9,44.2,123.2,44.4,123.6,44.6z"/>
		<path id="XMLID_174_" class="st3" d="M132.2,49.7h-3.9c0.1,0.3,0.2,0.7,0.4,1s0.4,0.6,0.7,0.8s0.6,0.4,0.9,0.5
			c0.3,0.1,0.7,0.2,1.1,0.2c0.5,0,0.9-0.1,1.3-0.3c0.4-0.2,0.7-0.4,1-0.8h0.4h2c-0.1,0.2-0.2,0.4-0.3,0.6c-0.1,0.2-0.2,0.3-0.4,0.5
			c-0.5,0.6-1,1.1-1.7,1.4c-0.7,0.4-1.5,0.5-2.3,0.5c-0.7,0-1.4-0.1-2-0.4c-0.6-0.3-1.2-0.6-1.6-1.1c-0.5-0.5-0.8-1-1.1-1.6
			c-0.3-0.6-0.4-1.3-0.4-2s0.1-1.4,0.4-2s0.6-1.2,1.1-1.6c0.5-0.5,1-0.8,1.6-1.1s1.3-0.4,2-0.4c0.8,0,1.6,0.2,2.3,0.5
			c0.7,0.4,1.3,0.8,1.7,1.4c0.4,0.5,0.7,1.1,0.9,1.8c0.1,0.4,0.2,0.9,0.2,1.3c0,0.2,0,0.5-0.1,0.7h-2L132.2,49.7L132.2,49.7z
			 M131.3,45.9c-0.6,0-1.2,0.2-1.7,0.5s-0.9,0.8-1.1,1.3h4.5h1.1c-0.1-0.1-0.1-0.2-0.2-0.3c-0.1-0.1-0.1-0.2-0.2-0.3
			c-0.3-0.4-0.7-0.7-1.1-0.9C132.3,46,131.8,45.9,131.3,45.9z"/>
		<path id="XMLID_172_" class="st3" d="M90.9,64.7H89v8h-2v-8h-1.9v-2H87v-3.1h2v3.1h1.9V64.7z"/>
		<path id="XMLID_170_" class="st3" d="M100.5,63.2c0.6,0.4,1.1,0.9,1.5,1.6c0.4,0.7,0.5,1.4,0.5,2.1v5.8h-2v-2.1v-3.7
			c0-0.3-0.1-0.7-0.2-0.9c-0.1-0.3-0.3-0.6-0.5-0.8c-0.2-0.2-0.5-0.4-0.8-0.5s-0.6-0.2-0.9-0.2s-0.7,0.1-1,0.2s-0.6,0.3-0.8,0.5
			c-0.2,0.2-0.4,0.5-0.5,0.8s-0.2,0.6-0.2,0.9v3.7v2.1h-2v-5.8v-8.7h2v5c0.3-0.2,0.7-0.4,1.2-0.5c0.4-0.1,0.9-0.2,1.3-0.2
			c0.5,0,0.9,0.1,1.3,0.2C99.8,62.8,100.2,63,100.5,63.2z"/>
		<path id="XMLID_167_" class="st3" d="M110.2,62.5c0.7,0,1.4,0.1,2,0.4c0.6,0.3,1.2,0.6,1.6,1.1c0.5,0.5,0.8,1,1.1,1.6
			c0.3,0.6,0.4,1.3,0.4,2v5h-2v-0.9c-0.4,0.3-0.9,0.6-1.5,0.8c-0.5,0.2-1.1,0.3-1.7,0.3c-0.7,0-1.4-0.1-2-0.4s-1.2-0.6-1.6-1.1
			c-0.5-0.5-0.8-1-1.1-1.6c-0.3-0.6-0.4-1.3-0.4-2s0.1-1.4,0.4-2s0.6-1.2,1.1-1.6c0.5-0.5,1-0.8,1.6-1.1
			C108.8,62.6,109.5,62.5,110.2,62.5z M110.2,70.8c0.4,0,0.8-0.1,1.2-0.3c0.4-0.2,0.7-0.4,1-0.7c0.3-0.3,0.5-0.6,0.7-1
			s0.3-0.8,0.3-1.2c0-0.4-0.1-0.9-0.3-1.2c-0.2-0.4-0.4-0.7-0.7-1c-0.3-0.3-0.6-0.5-1-0.7s-0.8-0.3-1.2-0.3c-0.4,0-0.8,0.1-1.2,0.3
			c-0.4,0.2-0.7,0.4-1,0.7c-0.3,0.3-0.5,0.6-0.7,1s-0.3,0.8-0.3,1.2c0,0.4,0.1,0.8,0.3,1.2c0.2,0.4,0.4,0.7,0.7,1
			c0.3,0.3,0.6,0.5,1,0.7C109.3,70.7,109.7,70.8,110.2,70.8z"/>
		<path id="XMLID_165_" class="st3" d="M125.3,63.1c0.6,0.4,1.1,0.9,1.5,1.6s0.5,1.4,0.5,2.1v5.8h-2v-2.1v-3.7c0-0.3-0.1-0.7-0.2-1
			s-0.3-0.6-0.5-0.8c-0.2-0.2-0.5-0.4-0.8-0.5s-0.6-0.2-1-0.2s-0.7,0.1-1,0.2s-0.6,0.3-0.8,0.5c-0.2,0.2-0.4,0.5-0.5,0.8
			s-0.2,0.6-0.2,1v3.7v2.1h-2v-5.8v-4.5h2V63c0.3-0.2,0.7-0.4,1.2-0.5c0.4-0.1,0.9-0.2,1.3-0.2c0.5,0,0.9,0.1,1.3,0.2
			C124.6,62.7,124.9,62.9,125.3,63.1z"/>
		<path id="XMLID_163_" class="st3" d="M90.5,84.5c0.2,0.3,0.3,0.5,0.4,0.8s0.1,0.6,0.1,1s-0.1,0.8-0.3,1.2
			c-0.2,0.4-0.4,0.7-0.7,0.9c-0.3,0.3-0.6,0.5-1,0.6s-0.8,0.2-1.3,0.2c-0.6,0-1.2-0.2-1.7-0.5s-0.9-0.7-1.1-1.2l1.7-1.2
			c0.1,0.2,0.2,0.4,0.4,0.6c0.2,0.2,0.5,0.2,0.8,0.2s0.6-0.1,0.9-0.3c0.3-0.2,0.4-0.4,0.4-0.7c0-0.1,0-0.2,0-0.2l0,0c0,0,0,0,0-0.1
			c0,0,0,0,0-0.1c-0.1-0.2-0.3-0.4-0.5-0.5c0,0-0.1-0.1-0.2-0.1l0,0c-0.2-0.1-0.4-0.2-0.6-0.3c-0.2-0.1-0.4-0.2-0.7-0.3
			c-0.2-0.1-0.4-0.2-0.7-0.3c-0.2-0.1-0.4-0.3-0.6-0.4l0,0l-0.1-0.1c-0.3-0.3-0.5-0.6-0.6-0.9c-0.2-0.3-0.2-0.7-0.2-1.1
			s0.1-0.7,0.3-1.1c0.2-0.3,0.4-0.6,0.7-0.9c0.3-0.2,0.6-0.4,1-0.6c0.4-0.1,0.8-0.2,1.2-0.2c0.6,0,1.1,0.2,1.5,0.4
			c0.4,0.2,0.8,0.6,1.1,1L89,81.5c-0.1-0.1-0.2-0.3-0.4-0.4c-0.2,0-0.4-0.1-0.6-0.1c-0.3,0-0.6,0.1-0.8,0.2
			c-0.2,0.2-0.3,0.3-0.3,0.6c0,0.1,0,0.1,0,0.1c0,0.1,0.1,0.3,0.2,0.4s0.2,0.2,0.4,0.3c0.2,0.1,0.5,0.3,0.8,0.4s0.6,0.3,1,0.5
			c0.2,0.1,0.5,0.3,0.7,0.4l0.1,0.1C90.2,84.1,90.4,84.3,90.5,84.5z"/>
		<path id="XMLID_160_" class="st3" d="M98.8,79c0.7,0,1.4,0.1,2,0.4s1.2,0.6,1.6,1.1c0.5,0.5,0.8,1,1.1,1.6c0.3,0.6,0.4,1.3,0.4,2
			s-0.1,1.4-0.4,2s-0.6,1.2-1.1,1.6c-0.5,0.5-1,0.8-1.6,1.1c-0.6,0.3-1.3,0.4-2,0.4c-0.6,0-1.2-0.1-1.7-0.3s-1-0.5-1.5-0.8v6.1h-2
			V84.1l0,0c0-0.7,0.1-1.4,0.4-2s0.6-1.2,1.1-1.6c0.5-0.5,1-0.8,1.6-1.1C97.4,79.1,98,79,98.8,79z M98.8,87.2c0.4,0,0.8-0.1,1.2-0.3
			c0.4-0.2,0.7-0.4,1-0.7c0.3-0.3,0.5-0.6,0.7-1s0.3-0.8,0.3-1.2s-0.1-0.8-0.3-1.2c-0.2-0.4-0.4-0.7-0.7-1c-0.3-0.3-0.6-0.5-1-0.7
			C99.6,81,99.2,81,98.8,81c-0.4,0-0.8,0.1-1.2,0.3c-0.4,0.2-0.7,0.4-1,0.7c-0.3,0.3-0.5,0.6-0.7,1s-0.2,0.8-0.2,1.2l0,0
			c0,0.4,0.1,0.8,0.3,1.2c0.2,0.4,0.4,0.7,0.7,1c0.3,0.3,0.6,0.5,1,0.7C97.9,87.1,98.3,87.2,98.8,87.2z"/>
		<path id="XMLID_157_" class="st3" d="M111.3,79c0.7,0,1.4,0.1,2,0.4s1.2,0.6,1.6,1.1c0.5,0.5,0.8,1,1.1,1.6c0.3,0.6,0.4,1.3,0.4,2
			v5h-2v-0.9c-0.4,0.3-0.9,0.6-1.5,0.8c-0.5,0.2-1.1,0.3-1.7,0.3c-0.7,0-1.4-0.1-2-0.4s-1.2-0.6-1.6-1.1c-0.5-0.5-0.8-1-1.1-1.6
			c-0.3-0.6-0.4-1.3-0.4-2s0.1-1.4,0.4-2s0.6-1.2,1.1-1.6c0.5-0.5,1-0.8,1.6-1.1C109.9,79.1,110.6,79,111.3,79z M111.3,87.3
			c0.4,0,0.8-0.1,1.2-0.3c0.4-0.2,0.7-0.4,1-0.7c0.3-0.3,0.5-0.6,0.7-1s0.3-0.8,0.3-1.2c0-0.4-0.1-0.9-0.3-1.2
			c-0.2-0.4-0.4-0.7-0.7-1c-0.3-0.3-0.6-0.5-1-0.7s-0.8-0.3-1.2-0.3c-0.4,0-0.8,0.1-1.2,0.3c-0.4,0.2-0.7,0.4-1,0.7
			c-0.3,0.3-0.5,0.6-0.7,1s-0.3,0.8-0.3,1.2c0,0.4,0.1,0.8,0.3,1.2c0.2,0.4,0.4,0.7,0.7,1c0.3,0.3,0.6,0.5,1,0.7
			C110.4,87.2,110.8,87.3,111.3,87.3z"/>
		<path id="XMLID_155_" class="st3" d="M124.1,87.2c0.5,0,1-0.1,1.4-0.3c0.4-0.2,0.8-0.5,1.1-0.9l1.6,1.2c-0.5,0.6-1,1.1-1.7,1.4
			s-1.5,0.5-2.3,0.5c-0.7,0-1.4-0.1-2-0.4s-1.2-0.6-1.6-1.1c-0.5-0.5-0.8-1-1.1-1.6c-0.3-0.6-0.4-1.3-0.4-2s0.1-1.4,0.4-2
			s0.6-1.2,1.1-1.6c0.5-0.5,1-0.8,1.6-1.1c0.6-0.3,1.3-0.4,2-0.4c0.8,0,1.6,0.2,2.3,0.5c0.7,0.4,1.3,0.8,1.7,1.4l-1.6,1.2
			c-0.3-0.4-0.6-0.7-1.1-0.9c-0.4-0.2-0.9-0.3-1.4-0.3c-0.4,0-0.8,0.1-1.2,0.2c-0.4,0.2-0.7,0.4-1,0.7c-0.3,0.3-0.5,0.6-0.7,1
			s-0.2,0.8-0.2,1.2c0,0.4,0.1,0.8,0.2,1.2c0.2,0.4,0.4,0.7,0.7,1c0.3,0.3,0.6,0.5,1,0.7C123.2,87.1,123.6,87.2,124.1,87.2z"/>
		<path id="XMLID_152_" class="st3" d="M136.3,84.8h-3.9c0.1,0.3,0.2,0.7,0.4,1s0.4,0.6,0.7,0.8c0.3,0.2,0.6,0.4,0.9,0.5
			c0.3,0.1,0.7,0.2,1.1,0.2c0.5,0,0.9-0.1,1.3-0.3c0.4-0.2,0.7-0.4,1-0.8h0.4h2c-0.1,0.2-0.2,0.4-0.3,0.6s-0.2,0.3-0.4,0.5
			c-0.5,0.6-1,1.1-1.7,1.4c-0.7,0.4-1.5,0.5-2.3,0.5c-0.7,0-1.4-0.1-2-0.4s-1.2-0.6-1.6-1.1c-0.5-0.5-0.8-1-1.1-1.6s-0.4-1.3-0.4-2
			s0.1-1.4,0.4-2s0.6-1.2,1.1-1.6c0.5-0.5,1-0.8,1.6-1.1c0.6-0.3,1.3-0.4,2-0.4c0.8,0,1.6,0.2,2.3,0.5c0.7,0.4,1.3,0.8,1.7,1.4
			c0.4,0.5,0.7,1.1,0.9,1.8c0.1,0.4,0.2,0.9,0.2,1.3c0,0.2,0,0.5-0.1,0.7h-2L136.3,84.8L136.3,84.8z M135.4,81
			c-0.6,0-1.2,0.2-1.7,0.5s-0.9,0.8-1.1,1.3h4.5h1.1c-0.1-0.1-0.1-0.2-0.2-0.3c-0.1-0.1-0.1-0.2-0.2-0.3c-0.3-0.4-0.7-0.7-1.1-0.9
			C136.4,81.1,135.9,81,135.4,81z"/>
		<path id="XMLID_150_" class="st3" d="M148.4,84.5c0.2,0.3,0.3,0.5,0.4,0.8c0.1,0.3,0.1,0.6,0.1,1s-0.1,0.8-0.3,1.2
			c-0.2,0.4-0.4,0.7-0.7,0.9c-0.3,0.3-0.6,0.5-1,0.6s-0.8,0.2-1.3,0.2c-0.6,0-1.2-0.2-1.7-0.5s-0.9-0.7-1.1-1.2l1.7-1.2
			c0.1,0.2,0.2,0.4,0.4,0.6s0.5,0.2,0.8,0.2s0.6-0.1,0.9-0.3c0.3-0.2,0.4-0.4,0.4-0.7c0-0.1,0-0.2,0-0.2l0,0c0,0,0,0,0-0.1
			c0,0,0,0,0-0.1c-0.1-0.2-0.3-0.4-0.5-0.5c0,0-0.1-0.1-0.2-0.1l0,0c-0.2-0.1-0.4-0.2-0.6-0.3c-0.2-0.1-0.4-0.2-0.7-0.3
			c-0.2-0.1-0.4-0.2-0.7-0.3c-0.2-0.1-0.4-0.3-0.6-0.4l0,0l-0.1-0.1c-0.3-0.3-0.5-0.6-0.6-0.9c-0.2-0.3-0.2-0.7-0.2-1.1
			s0.1-0.7,0.3-1.1c0.2-0.3,0.4-0.6,0.7-0.9c0.3-0.2,0.6-0.4,1-0.6c0.4-0.1,0.8-0.2,1.2-0.2c0.6,0,1.1,0.2,1.5,0.4
			c0.4,0.2,0.8,0.6,1.1,1l-1.6,1.1c-0.1-0.1-0.2-0.3-0.4-0.4s-0.4-0.2-0.6-0.2c-0.3,0-0.6,0.1-0.8,0.2c-0.2,0.2-0.3,0.3-0.3,0.6
			c0,0.1,0,0.1,0,0.1c0,0.1,0.1,0.3,0.2,0.4c0.1,0.1,0.2,0.2,0.4,0.3c0.2,0.1,0.5,0.3,0.8,0.4s0.6,0.3,1,0.5
			c0.2,0.1,0.5,0.3,0.7,0.4l0,0.3C148.1,84.1,148.2,84.3,148.4,84.5z"/>
	</g>
</g>
</svg>
