<?xml version="1.0" encoding="utf-8"?>
<svg version="1.1" id="Layer_1" xmlns="http://www.w3.org/2000/svg" xmlns:xlink="http://www.w3.org/1999/xlink" x="0px" y="0px"
	 viewBox="0 0 800 800" style="enable-background:new 0 0 800 800;" xml:space="preserve">
<g>
	<polygon class="yellow" points="394.8,415.5 383.4,423.9 528.6,459.3 528.6,447.5 	"/>
	<polygon class="yellow" points="445.9,238.9 394.2,226.8 394.2,239.7 452.8,253.5 	"/>
	<polygon class="yellow" points="296.9,151.2 361.5,166.6 361.7,179.5 263.7,156.2 	"/>
	<polygon class="yellow" points="278.5,203.6 194.3,264.3 214.3,268.8 297.8,208 	"/>
	<polygon class="yellow" points="374.1,130.6 381.5,143.6 528.9,180.2 558.9,175.1 	"/>
	<polygon class="yellow" points="468,349 546.9,289.8 529.6,285.5 447.9,344.4 	"/>
	<polygon class="yellow" points="466.1,524.4 548.9,464.4 528.6,459.3 466.2,506 	"/>
	<polygon class="blue" points="528.6,459.3 528.4,326 548.2,311.3 548.9,464.4 	"/>
	<polygon class="pink" points="297.8,310.2 382.2,248.9 382.2,272.4 323.1,316 	"/>
	<polygon class="pink" points="394.5,275.3 382.2,272.4 383.4,423.9 394.8,415.5 	"/>
	<polygon class="blue" points="382.2,248.9 382.2,272.4 507.1,301.7 529.6,285.5 	"/>
	<polygon class="pink" points="384.7,422.8 384.7,401.4 301.5,463.1 323.4,468 	"/>
	<polygon class="yellow" points="232.8,425 151.1,485.5 151.1,465.7 212.7,420.5 	"/>
	<polygon class="pink" points="300.2,485.5 284.1,496.1 284.1,342.7 300.2,346.4 	"/>
	<polygon class="yellow" points="284.1,496.1 300.2,485.5 432.4,515.3 432.3,530 	"/>
	<polygon class="blue" points="429.7,495.3 482,508 461,523.8 408,511.1 	"/>
	<polygon class="blue" points="170.4,452.5 72.4,429.2 72.4,623.3 92.6,608.7 92.6,455.9 170.6,474 	"/>
	<polygon class="blue" points="313.1,575.8 292.1,570.8 291.7,643.7 147.8,610.7 126.7,626 313.5,669.4 	"/>
	<polygon class="blue" points="259.2,355.5 238.8,370.6 239.3,420.1 259.6,405.1 	"/>
	<polygon class="blue" points="269.7,431.9 270.4,509.7 250.2,505.1 249.5,446.5 	"/>
	<polygon class="blue" points="349,540.9 299.5,529.1 299.5,507.8 349,519.8 	"/>
	<polygon class="blue" points="388.3,421.6 349.7,412.4 349.9,391.1 408.4,405 408.8,474.4 388,469.4 	"/>
	<polygon class="pink" points="466.4,465.1 453.8,462.1 454.3,555.7 486.5,531.5 486.6,509.4 466.1,524.3 	"/>
	<polygon class="pink" points="563,369.7 611.5,333.9 611.5,311.7 563.1,348.1 	"/>
	<polygon class="pink" points="502.9,429.6 515.8,432.6 516,371.6 517.8,370.2 517.8,348.7 502.5,360.2 	"/>
	<polygon class="pink" points="716,342.6 716.7,464.4 706.2,472 705.7,493 727.6,476.5 727.4,345.2 	"/>
	<polygon class="pink" points="561.7,531.5 613.1,493 613.6,472 562,509.4 	"/>
	<polygon class="pink" points="679.1,340.2 679,280.3 637.7,311.3 637.5,333.6 667.5,311.5 667.7,337.6 	"/>
</g>
</svg>
