<svg version="1.1" xmlns="http://www.w3.org/2000/svg" xmlns:xlink="http://www.w3.org/1999/xlink" x="0px" y="0px"
	 viewBox="0 0 100 100" style="enable-background:new 0 0 100 100;" xml:space="preserve">
	<path class="st0" d="M73.2,30.9C71,33.1,38.7,63.5,38.4,63.8l-0.3,0.3l-0.3-0.3C37.7,63.7,26.5,51,25.5,50.1
		c-0.4-0.4-1.1-0.7-1.8-0.7c0,0-0.1,0-0.1,0c-0.8,0-1.5,0.3-2,0.8c-1.7,1.7-0.6,3.4-0.2,3.8c0.8,1,8.2,9.2,14.1,15.7
		c0.8,0.8,1.6,1.3,2.4,1.3c0.8,0,1.7-0.3,2.5-1.1c2.3-2.1,34.9-32.8,37.1-35.1c1.1-1.1,1.7-2,1.8-2.9c0.1-0.7-0.2-1.4-0.8-2
		c-0.7-0.7-1.4-1-2.1-0.9C75.4,29.1,74.4,29.7,73.2,30.9z"/>
	<path d="M50,98C23.5,98,2,76.5,2,50C2,23.5,23.5,2,50,2c26.5,0,48,21.6,48,48C98,76.5,76.5,98,50,98z M50,5.2
		C25.3,5.2,5.2,25.3,5.2,50c0,24.7,20.1,44.8,44.8,44.8c24.7,0,44.8-20.1,44.8-44.8C94.8,25.3,74.7,5.2,50,5.2z"/>
</svg>
