<?xml version="1.0" encoding="utf-8"?>
<!-- Generator: Adobe Illustrator 21.0.2, SVG Export Plug-In . SVG Version: 6.00 Build 0)  -->
<svg version="1.1" id="Layer_1" xmlns="http://www.w3.org/2000/svg" xmlns:xlink="http://www.w3.org/1999/xlink" x="0px" y="0px"
	 viewBox="0 0 100 100" style="enable-background:new 0 0 100 100;" xml:space="preserve">
<style type="text/css">
	.st0{fill:none;stroke:#000000;stroke-width:3;stroke-miterlimit:10;}
</style>
<path d="M73.2,30.9C71,33.1,38.7,63.5,38.4,63.8l-0.3,0.3l-0.3-0.3C37.7,63.7,26.5,51,25.5,50.1c-0.4-0.4-1.1-0.7-1.8-0.7h-0.1
	c-0.8,0-1.5,0.3-2,0.8c-1.7,1.7-0.6,3.4-0.2,3.8c0.8,1,8.2,9.2,14.1,15.7c0.8,0.8,1.6,1.3,2.4,1.3c0.8,0,1.7-0.3,2.5-1.1
	c2.3-2.1,34.9-32.8,37.1-35.1c1.1-1.1,1.7-2,1.8-2.9c0.1-0.7-0.2-1.4-0.8-2c-0.7-0.7-1.4-1-2.1-0.9C75.4,29.1,74.4,29.7,73.2,30.9z"
	/>
<circle class="st0" cx="49.8" cy="50.2" r="46.2"/>
</svg>
