<?xml version="1.0" encoding="utf-8"?>
<!-- Generator: Adobe Illustrator 21.0.2, SVG Export Plug-In . SVG Version: 6.00 Build 0)  -->
<svg version="1.1" id="Layer_1" xmlns="http://www.w3.org/2000/svg" xmlns:xlink="http://www.w3.org/1999/xlink" x="0px" y="0px"
	 viewBox="0 0 100 100" style="enable-background:new 0 0 100 100;" xml:space="preserve">
<g>
	<path d="M72.2,66.6c-0.5-0.2-0.8-0.7-1.2-1.6c-0.4-0.8-0.9-1.8-1.9-2.5c-1.4-0.9-14.4-8.9-18.1-11.1l1.1-1.9
		c3.5,2.1,16.1,9.5,18.2,10.6c1.5,0.8,2.6,0.6,3.5,0.5c0.8-0.1,1.3-0.2,2.1,0.3c1.7,1,4.2,3.5,5.2,4.6l-1.5,3.1
		C78.4,68.5,75.7,67.9,72.2,66.6 M22.9,40.2c-1.4-0.8-2.7-2-3.4-3.2c-0.8-1.4-0.9-2.7-0.2-4c1-1.8,2.1-2.9,3.3-3.2
		c1.6-0.4,3.4,0.1,6.3,1.7c14.6,8.2,21,12,23.2,13.4l-4.7,8.2l-0.3,0.5C42.8,51.1,25.3,41.6,22.9,40.2 M84,65.2l-0.5-0.6
		c-0.2-0.2-3.8-4.2-6.3-5.6c-1.5-0.9-2.7-0.8-3.6-0.6c-0.7,0.1-1.3,0.2-2.2-0.3c-2-1-14.4-8.4-18-10.5l1.9-3.6l-0.9-0.6
		c-0.1,0-5.3-3.3-24.3-14c-2.4-1.4-5.3-2.7-8.1-1.9c-1.9,0.5-3.5,2-4.7,4.4c-0.9,1.7-1,3.5-0.3,5.2c0.1,0.4,0.3,0.7,0.5,1.1
		c0.9,1.6,2.5,3,4.2,4c2.8,1.5,25.1,13.7,25.3,13.9l1,0.5l1.8-3.1c3.8,2.3,16.6,10.1,17.9,11c0.5,0.3,0.8,0.9,1.1,1.6
		c0.5,1,1.1,2.2,2.5,2.7c5.1,1.8,8.7,2.3,8.9,2.3l0.8,0.1L84,65.2z"/>
	<rect x="34.9" y="32.3" transform="matrix(0.4866 -0.8736 0.8736 0.4866 -17.8163 52.8933)" width="2.3" height="18.5"/>
	<path d="M50,98.1C23.5,98.1,1.9,76.5,1.9,50C1.9,23.5,23.5,1.9,50,1.9c26.5,0,48.1,21.6,48.1,48.1C98.1,76.5,76.5,98.1,50,98.1
		 M50,5.1C25.2,5.1,5.1,25.2,5.1,50c0,24.8,20.1,44.9,44.9,44.9c24.8,0,44.9-20.1,44.9-44.9C94.9,25.2,74.8,5.1,50,5.1"/>
</g>
</svg>
