<?xml version="1.0" encoding="utf-8"?>
<!-- Generator: Adobe Illustrator 21.0.2, SVG Export Plug-In . SVG Version: 6.00 Build 0)  -->
<svg version="1.1" id="Layer_1" xmlns="http://www.w3.org/2000/svg" xmlns:xlink="http://www.w3.org/1999/xlink" x="0px" y="0px"
	 viewBox="0 0 100 100" style="enable-background:new 0 0 100 100;" xml:space="preserve">
<circle cx="49.8" cy="50.2" r="46.2"/>
<path d="M56,72.1L56,72.1c0.2,0.1,0.3,0.1,0.6,0.1c0.3,0,0.5-0.1,0.7-0.2l15.5-10.5c0.2-0.2,0.6-0.6,0.6-1.1V52
	c0-0.5-0.2-0.9-0.6-1.1l-7.6-5.2V25.9c-0.1-0.7-0.7-1.3-1.4-1.3H24.7c-0.7,0-1.3,0.6-1.3,1.3v27.9c0,0.7,0.6,1.3,1.3,1.3H30v1.2
	c0,8,3.6,15.4,9.9,20.5c0.2,0.2,0.5,0.3,0.8,0.3c0.4,0,0.8-0.2,1.1-0.5c0.4-0.6,0.4-1.4-0.2-1.8c-5.7-4.5-8.9-11.2-8.9-18.3v-1.2
	h5.6v1.2c0,5.5,2.5,10.6,6.7,14c0.2,0.2,0.5,0.3,0.8,0.3c0.4,0,0.8-0.2,1.1-0.5c0.4-0.6,0.3-1.3-0.2-1.8c-3.7-2.8-5.7-7.2-5.7-12V55
	h5.7v1.2c0,3,1.3,5.7,3.6,7.4c0.2,0.2,0.5,0.3,0.8,0.3c0.4,0,0.8-0.2,1.1-0.5c0.4-0.6,0.3-1.4-0.2-1.8c-1.6-1.4-2.6-3.3-2.6-5.4
	c0-0.3,0-0.7,0.1-0.9l0.1-0.3h5.8v16C55.3,71.4,55.6,71.8,56,72.1 M70.8,52.8v7l-12.9,8.7V44.1L70.8,52.8z M55.2,41.6v10.8h-5
	l0.8-0.8c0.3-0.3,0.6-0.6,0.9-0.8c0.6-0.5,0.7-1.2,0.3-1.8c-0.2-0.3-0.5-0.5-0.9-0.5c-0.3-0.1-0.7,0-1,0.3c-1.3,1-2.3,2.2-2.8,3.4
	l-0.1,0.3h-6.1l0.2-0.6c0.9-3.1,2.8-5.8,5.4-7.7c0.6-0.5,0.7-1.2,0.3-1.8c-0.2-0.3-0.5-0.5-0.9-0.5c-0.3-0.1-0.7,0-1,0.3
	c-3.4,2.5-5.7,6-6.7,10.1l-0.1,0.4h-5.6l0.1-0.6c1.1-5.7,4.3-10.8,8.9-14.3c0.6-0.5,0.7-1.2,0.3-1.8c-0.5-0.6-1.2-0.7-1.8-0.3
	c-5.3,4-8.9,9.9-10.1,16.6l-0.1,0.4H26V27.2h36.6V44l-5.3-3.6c-0.4-0.3-0.9-0.3-1.3-0.1l0,0C55.5,40.6,55.2,41.1,55.2,41.6"/>
<path d="M81.2,51.5h-4.4c-0.7,0-1.3,0.6-1.3,1.3v6.9c0,0.7,0.6,1.3,1.3,1.3h4.4c0.7,0,1.3-0.6,1.3-1.3v-6.9
	C82.5,52.1,82,51.5,81.2,51.5 M80.5,59.2h-2.9v-5.8h2.9V59.2z"/>
</svg>
