<svg version="1.1" xmlns="http://www.w3.org/2000/svg" xmlns:xlink="http://www.w3.org/1999/xlink" x="0px" y="0px"
	 viewBox="0 0 100 100" style="enable-background:new 0 0 100 100;" xml:space="preserve">
<path d="M50.3,83.1c-0.2,0-0.5-0.1-0.7-0.2L24,64.6c-0.2-0.1-0.3-0.3-0.4-0.5v0c0,0,0,0,0,0v0c0,0,0,0,0,0v0v0c0,0,0,0,0,0v0
	c0,0,0-0.1,0-0.1v0v0c0,0,0,0,0,0v0c0,0,0,0,0,0v0c0-0.1,0-0.2,0-0.3V27c0-0.5,0.3-0.9,0.7-1l23.5-9.1c0.1,0,0.1,0,0.2-0.1
	c0,0,0,0,0,0c0,0,0,0,0,0c0,0,0,0,0,0h0c0.1,0,0.2,0,0.3,0c0,0,0,0,0,0h0c0.1,0,0.3,0,0.4,0.1c0,0,0,0,0,0c0,0,0.1,0,0.1,0.1
	L76,32.4c0.4,0.2,0.6,0.6,0.6,1v38c0,0,0,0,0,0v0v0c0,0.1,0,0.2,0,0.2v0v0c0,0,0,0,0,0c0,0.1-0.1,0.2-0.1,0.3c0,0,0,0,0,0v0
	c-0.1,0.1-0.1,0.2-0.2,0.3c0,0,0,0,0,0v0c-0.1,0.1-0.1,0.1-0.2,0.1l0,0h0c0,0,0,0-0.1,0L50.7,83C50.6,83.1,50.5,83.1,50.3,83.1
	 M27,63.9l23.4,16.8L73,71.2L48.1,55.8L27,63.9z M49.4,54l24.9,15.4V34L49.4,19.9V54z M25.8,27.8V62l21.3-8.2V19.6L25.8,27.8z
	 M29.3,41.6c-0.2,0-0.4-0.1-0.6-0.2c-0.3-0.2-0.5-0.6-0.5-0.9v-10c0-0.5,0.3-0.9,0.7-1l14.3-5.5c0.3-0.1,0.7-0.1,1,0.1
	c0.3,0.2,0.5,0.6,0.5,0.9v10c0,0.5-0.3,0.9-0.7,1l-14.3,5.6C29.6,41.6,29.5,41.6,29.3,41.6 M30.4,31.3v7.6l12-4.7v-7.6L30.4,31.3z"
	/>
	<circle cx="49.8" cy="50.2" r="46.2"/>
</svg>
