<svg version="1.1" xmlns="http://www.w3.org/2000/svg" xmlns:xlink="http://www.w3.org/1999/xlink" x="0px" y="0px"
	 viewBox="0 0 100 100" style="enable-background:new 0 0 100 100;" xml:space="preserve">
	<path d="M69.7,46.7c0.2,0,0.4-0.1,0.6-0.2c0.3-0.2,0.6-0.6,0.6-1V35.4c0-0.4-0.2-0.8-0.6-1l-6.3-3.7c-0.5,0.6-1,1.2-1.5,1.7
		l6.2,3.5v7.6l-10.6-6.1c-0.5,0.6-1,1.2-1.5,1.7l12.7,7.3C69.3,46.7,69.5,46.7,69.7,46.7"/>
	<path d="M55.6,25.9c-0.3-0.2-0.8-0.2-1.1,0c-0.3,0.2-0.6,0.6-0.6,1v6.6c0.7-0.8,1.5-1.7,2.2-2.6v-2.1l1.2,0.7
		c0.5-0.6,1-1.1,1.5-1.7L55.6,25.9z"/>
	<path d="M43.9,24.1l-14.7,5.7c-0.4,0.2-0.7,0.6-0.7,1v10.3c0,0.4,0.2,0.7,0.5,0.9c0.2,0.1,0.4,0.2,0.6,0.2c0.1,0,0.3,0,0.4-0.1
		l14.7-5.7c0.4-0.2,0.7-0.6,0.7-1V25.1c0-0.4-0.2-0.7-0.5-0.9C44.6,24,44.2,23.9,43.9,24.1 M43.1,34.6l-12.4,4.8v-7.8l12.4-4.8V34.6
		z"/>
	<path d="M77.5,32.8l-10.3-5.8c-0.5,0.6-1,1.2-1.5,1.7l10.1,5.7v36.4L50.2,54.9v-9.8c-0.1,0-0.1,0-0.2,0c-0.7,0-1.5-0.2-2.1-0.8
		c0,0,0,0,0,0v10.5L26,63.2V28l21.9-8.4v20.7c0.1-0.1,0.2-0.3,0.4-0.4c0.2-0.2,0.9-1,1.9-2.1V19.9l10.5,5.9c0.5-0.6,1-1.2,1.5-1.7
		L49.6,17c0,0-0.1,0-0.1,0c0,0,0,0,0,0l0,0c-0.1-0.1-0.3-0.1-0.4-0.1h0c-0.1,0-0.2,0-0.3,0c0,0,0,0,0,0c0,0,0,0,0,0c0,0,0,0,0,0
		c-0.1,0-0.1,0-0.2,0.1l-24.2,9.3c-0.4,0.2-0.7,0.6-0.7,1v37.6c0,0.1,0,0.2,0,0.3v0c0,0,0,0,0,0v0v0c0,0,0,0,0,0v0l0,0v0v0
		c0,0,0,0,0,0v0c0,0,0,0,0,0l0,0v0v0c0,0,0,0,0,0c0,0,0,0,0,0c0,0,0,0,0,0v0h0v0v0l0,0c0,0,0,0,0,0c0,0,0,0,0,0v0v0c0,0,0,0,0,0v0
		c0,0,0,0,0,0v0v0c0,0,0,0,0,0v0c0.1,0.2,0.2,0.4,0.4,0.5l26.3,18.9c0.2,0.1,0.4,0.2,0.7,0.2c0.1,0,0.3,0,0.4-0.1l25.8-10.9
		c0,0,0,0,0,0c0,0,0,0,0,0c0.1,0,0.2-0.1,0.3-0.2c0,0,0,0,0,0v0c0,0,0,0,0,0c0.1-0.1,0.1-0.1,0.2-0.2c0,0,0,0,0,0v0l0,0v0
		c0,0,0,0,0,0c0,0,0,0,0,0c0.1-0.1,0.1-0.2,0.1-0.3v0c0,0,0,0,0,0v0v0c0,0,0,0,0,0c0-0.1,0-0.2,0-0.2c0,0,0,0,0,0V33.8
		C78.1,33.4,77.9,33,77.5,32.8 M51.3,82.5L27.2,65.2l21.7-8.4l25.6,15.8L51.3,82.5z"/>
	<path d="M42.9,45.5c-1.3,0.1-2.6,0.6-3.8,1.9c-1,1.1-2,4.8-3,5.7c-1,0.9-3.4,1.6-3.4,1.6s5.3,1.3,8.4,0.9c3-0.4,6.2-3.5,6.2-6.2
		C47.4,46.7,45.8,45.3,42.9,45.5"/>
	<path d="M50,1.9C23.5,1.9,1.9,23.5,1.9,50c0,26.5,21.6,48.1,48.1,48.1S98.1,76.5,98.1,50C98.1,23.5,76.5,1.9,50,1.9 M50,94.9
		C25.2,94.9,5.1,74.8,5.1,50C5.1,25.2,25.2,5.1,50,5.1c8.8,0,17.3,2.7,24.2,7.1L49.1,40.7c-0.9,1-1.4,2.1-0.5,3
		c1,0.9,2.1,0.3,2.9-0.7L77,14.1C87.8,22.3,94.9,35.4,94.9,50C94.9,74.8,74.8,94.9,50,94.9"/>
</svg>
