<?xml version="1.0" encoding="utf-8"?>
<!-- Generator: Adobe Illustrator 21.0.2, SVG Export Plug-In . SVG Version: 6.00 Build 0)  -->
<svg version="1.1" id="Layer_1" xmlns="http://www.w3.org/2000/svg" xmlns:xlink="http://www.w3.org/1999/xlink" x="0px" y="0px"
	 viewBox="0 0 100 100" style="enable-background:new 0 0 100 100;" xml:space="preserve">
<path d="M69.8,46.8c0.2,0,0.4,0,0.6-0.1c0.3-0.2,0.6-0.6,0.6-1V35.5c0-0.4-0.2-0.8-0.6-1l-6.3-3.6c-0.5,0.6-1,1.2-1.5,1.7l6.1,3.5
	v7.6l-10.6-6.1c-0.5,0.6-1,1.2-1.5,1.7l12.6,7.3C69.5,46.8,69.6,46.8,69.8,46.8"/>
<path d="M55.8,26.2c-0.3-0.2-0.8-0.2-1.1,0c-0.3,0.2-0.6,0.6-0.6,1v6.6c0.7-0.8,1.5-1.7,2.2-2.5v-2.1l1.2,0.7c0.5-0.6,1-1.1,1.5-1.7
	L55.8,26.2z"/>
<path d="M44.2,24.3L29.6,30c-0.4,0.2-0.7,0.6-0.7,1v10.2c0,0.4,0.2,0.7,0.5,0.9c0.2,0.1,0.4,0.2,0.6,0.2c0.1,0,0.3,0,0.4-0.1
	L45,36.6c0.4-0.2,0.7-0.6,0.7-1V25.4c0-0.4-0.2-0.7-0.5-0.9C44.9,24.2,44.5,24.2,44.2,24.3 M43.5,34.8l-12.3,4.8v-7.8L43.5,27V34.8z
	"/>
<path d="M77.7,33l-10.3-5.8c-0.5,0.6-1,1.2-1.5,1.7L76,34.6v36.2L50.5,55v-9.8c-0.1,0-0.1,0-0.2,0c-0.7,0-1.5-0.2-2-0.8c0,0,0,0,0,0
	v10.4l-21.8,8.4v-35l21.8-8.4v20.6c0.1-0.1,0.2-0.3,0.4-0.4c0.2-0.2,0.9-1,1.9-2.1V20.1L60.9,26c0.5-0.6,1-1.1,1.5-1.7l-12.5-7.1
	c0,0-0.1,0-0.1,0c0,0,0,0,0,0l0,0c-0.1-0.1-0.3-0.1-0.4-0.1h0c-0.1,0-0.2,0-0.3,0c0,0,0,0,0,0c0,0,0,0,0,0c0,0,0,0,0,0
	c-0.1,0-0.1,0-0.2,0.1l-24.1,9.3c-0.4,0.2-0.7,0.6-0.7,1v37.4c0,0.1,0,0.2,0,0.3v0c0,0,0,0,0,0v0v0c0,0,0,0,0,0v0l0,0v0v0
	c0,0,0,0,0,0v0c0,0,0,0,0,0l0,0v0v0c0,0,0,0,0,0c0,0,0,0,0,0c0,0,0,0,0,0v0h0v0v0l0,0c0,0,0,0,0,0c0,0,0,0,0,0v0v0c0,0,0,0,0,0v0
	c0,0,0,0,0,0v0v0c0,0,0,0,0,0v0c0.1,0.2,0.2,0.4,0.4,0.5l26.2,18.8c0.2,0.1,0.4,0.2,0.7,0.2c0.1,0,0.3,0,0.4-0.1l25.6-10.8
	c0,0,0,0,0,0c0,0,0,0,0,0c0.1,0,0.2-0.1,0.3-0.2c0,0,0,0,0,0v0c0,0,0,0,0,0c0.1-0.1,0.1-0.1,0.2-0.2c0,0,0,0,0,0v0l0,0v0
	c0,0,0,0,0,0c0,0,0,0,0,0c0.1-0.1,0.1-0.2,0.1-0.3v0c0,0,0,0,0,0v0v0c0,0,0,0,0,0c0-0.1,0-0.2,0-0.2c0,0,0,0,0,0V33.9
	C78.2,33.5,78,33.2,77.7,33 M51.6,82.4l-24-17.2l21.6-8.3l25.5,15.8L51.6,82.4z"/>
<path d="M43.2,45.6c-1.3,0.1-2.6,0.6-3.8,1.9c-1,1.1-2,4.8-3,5.7c-1,0.9-3.4,1.6-3.4,1.6s5.3,1.3,8.3,0.9c3-0.4,6.2-3.5,6.2-6.2
	C47.7,46.8,46.1,45.4,43.2,45.6"/>
<path d="M50.3,2.2C23.9,2.2,2.4,23.7,2.4,50.1C2.4,76.5,23.9,98,50.3,98s47.9-21.5,47.9-47.9C98.1,23.7,76.7,2.2,50.3,2.2
	 M50.3,94.8c-24.6,0-44.7-20-44.7-44.7c0-24.6,20-44.7,44.7-44.7c8.8,0,17.2,2.7,24.1,7l-25,28.3c-0.9,1-1.4,2.1-0.4,3
	c1,0.9,2.1,0.3,2.9-0.7l25.3-28.8c10.8,8.2,17.8,21.2,17.8,35.7C94.9,74.7,74.9,94.8,50.3,94.8"/>
</svg>
