<?xml version="1.0" encoding="utf-8"?>
<!-- Generator: Adobe Illustrator 21.0.2, SVG Export Plug-In . SVG Version: 6.00 Build 0)  -->
<svg version="1.1" id="Layer_1" xmlns="http://www.w3.org/2000/svg" xmlns:xlink="http://www.w3.org/1999/xlink" x="0px" y="0px"
	 viewBox="0 0 100 100" style="enable-background:new 0 0 100 100;" xml:space="preserve">
<style type="text/css">
	.st0{fill:none;stroke:#000000;stroke-width:3;stroke-miterlimit:10;}
</style>
<path d="M53,37.9l14.3,8.2c0.2,0.1,0.4,0.1,0.6,0.1s0.4-0.1,0.6-0.2c0.3-0.2,0.6-0.6,0.6-1V35c0-0.4-0.2-0.8-0.6-1l-14.3-8.2
	c-0.3-0.2-0.8-0.2-1.1,0s-0.6,0.6-0.6,1v10C52.4,37.3,52.6,37.7,53,37.9 M54.6,28.9l12,6.9v7.4l-12-6.9V28.9z"/>
<path d="M28.5,42c0.1,0,0.3,0,0.4-0.1l14.3-5.6c0.4-0.2,0.7-0.6,0.7-1v-10c0-0.4-0.2-0.7-0.5-0.9c-0.3-0.2-0.7-0.3-1-0.1l-14.3,5.5
	c-0.4,0.2-0.7,0.6-0.7,1v10c0,0.4,0.2,0.7,0.5,0.9C28.1,41.9,28.3,42,28.5,42 M29.6,31.6l12-4.7v7.6l-12,4.7
	C29.6,39.2,29.6,31.6,29.6,31.6z"/>
<path d="M75.2,32.7L48,17.3c-0.1,0-0.1-0.1-0.2-0.1l0,0l0,0c-0.1,0-0.2-0.1-0.3-0.1l0,0l0,0l0,0c-0.1,0-0.2,0-0.3,0l0,0l0,0
	c-0.1,0-0.1,0-0.2,0.1l-23.6,9.1c-0.4,0.2-0.7,0.6-0.7,1.1v36.7c0,0.1,0,0.2,0,0.3l0,0l0,0l0,0l0,0l0,0c0,0.1,0,0.1,0.1,0.2l0,0l0,0
	l0,0l0,0l0,0l0,0l0,0c0.1,0.1,0.2,0.3,0.3,0.4l0,0l0,0c0,0,0,0,0.1,0.1l25.7,18.4c0.2,0.1,0.4,0.2,0.7,0.2c0.1,0,0.3,0,0.4-0.1
	L75.1,73c0,0,0,0,0.1,0l0,0l0,0c0.1,0,0.2-0.1,0.2-0.2c0.1-0.1,0.2-0.2,0.2-0.2l0,0l0,0l0,0l0,0l0,0l0,0c0.1-0.1,0.1-0.2,0.1-0.3
	l0,0l0,0l0,0l0,0c0-0.1,0-0.2,0-0.2l0,0l0,0V33.7C75.8,33.3,75.6,32.9,75.2,32.7 M30.4,51.5l0.3,0.2l5,3.5v0.2l-0.1,9.9l-5.2-3.8
	C30.4,61.5,30.4,51.5,30.4,51.5z M37.9,55.4l16-6.5v10.2l-16.1,6.7L37.9,55.4z M44.7,50.2L37,53.3l-5-3.5l-0.3-0.2l15.5-5.7l5.3,3.1
	L44.7,50.2z M25,28.1l21.3-8.2v21.9l-17.4,6.4l0,0l0,0c0,0,0,0-0.1,0c0,0,0,0-0.1,0l0,0c0,0,0,0-0.1,0c0,0,0,0-0.1,0l0,0
	c0,0,0,0-0.1,0.1l0,0c0,0,0,0-0.1,0.1l0,0c0,0,0,0.1-0.1,0.1l0,0v0.1l0,0v0.1l0,0v0.1l0,0c0,0,0,0,0,0.1V49v11.9L25,62.4V28.1z
	 M49.7,81.2L26.2,64.4l2.9-1.1l6.9,5.1l0,0l0,0c0,0,0,0,0.1,0c0,0,0,0,0.1,0h0.1c0,0,0,0,0.1,0h0.1l0,0c0.1,0,0.1,0,0.2,0h0.1l0,0
	h0.1l0,0H37l0,0l0,0L55,61l17.2,10.6L49.7,81.2z M73.6,69.8L56.2,59.1V47.2l0,0c0,0,0,0,0-0.1V47c0,0,0,0,0-0.1v-0.1c0,0,0,0,0-0.1
	v-0.1l0,0c0,0,0-0.1-0.1-0.1l0,0c0,0,0-0.1-0.1-0.1l0,0c0,0,0,0-0.1-0.1c0,0,0,0-0.1,0l0,0l0,0l0,0l-7.1-4.1v-22l25,14.2v35.4H73.6z
	"/>
<circle class="st0" cx="49.8" cy="50.2" r="46.2"/>
</svg>
