<svg version="1.1" xmlns="http://www.w3.org/2000/svg" xmlns:xlink="http://www.w3.org/1999/xlink" x="0px" y="0px"
	 viewBox="0 0 100 100" style="enable-background:new 0 0 100 100;" xml:space="preserve">
<path d="M69.7,46.7c0.2,0,0.4-0.1,0.6-0.2c0.3-0.2,0.6-0.6,0.6-1V35.4c0-0.4-0.2-0.8-0.6-1L64,30.7c-0.5,0.6-1,1.2-1.5,1.7l6.2,3.5
	v7.6l-10.6-6.1c-0.5,0.6-1,1.2-1.5,1.7l12.7,7.3C69.3,46.7,69.5,46.7,69.7,46.7"/>
<path d="M55.6,25.9c-0.3-0.2-0.8-0.2-1.1,0s-0.6,0.6-0.6,1v6.6c0.7-0.8,1.5-1.7,2.2-2.6v-2.1l1.2,0.7c0.5-0.6,1-1.1,1.5-1.7
	L55.6,25.9z"/>
<path d="M43.9,24.1l-14.7,5.7c-0.4,0.2-0.7,0.6-0.7,1v10.3c0,0.4,0.2,0.7,0.5,0.9c0.2,0.1,0.4,0.2,0.6,0.2c0.1,0,0.3,0,0.4-0.1
	l14.7-5.7c0.4-0.2,0.7-0.6,0.7-1V25.1c0-0.4-0.2-0.7-0.5-0.9C44.6,24,44.2,23.9,43.9,24.1 M43.1,34.6l-12.4,4.8v-7.8l12.4-4.8V34.6z
	"/>
<path d="M77.5,32.8L67.2,27c-0.5,0.6-1,1.2-1.5,1.7l10.1,5.7v36.4L50.2,54.9v-9.8c-0.1,0-0.1,0-0.2,0c-0.7,0-1.5-0.2-2.1-0.8l0,0
	v10.5L26,63.2V28l21.9-8.4v20.7c0.1-0.1,0.2-0.3,0.4-0.4c0.2-0.2,0.9-1,1.9-2.1V19.9l10.5,5.9c0.5-0.6,1-1.2,1.5-1.7L49.6,17h-0.1
	l0,0l0,0c-0.1-0.1-0.3-0.1-0.4-0.1l0,0c-0.1,0-0.2,0-0.3,0l0,0l0,0l0,0c-0.1,0-0.1,0-0.2,0.1l-24.2,9.3c-0.4,0.2-0.7,0.6-0.7,1v37.6
	c0,0.1,0,0.2,0,0.3l0,0l0,0l0,0l0,0l0,0l0,0l0,0l0,0l0,0l0,0l0,0l0,0l0,0l0,0l0,0l0,0l0,0l0,0l0,0l0,0l0,0l0,0l0,0l0,0l0,0l0,0l0,0
	l0,0l0,0l0,0l0,0l0,0l0,0l0,0c0.1,0.2,0.2,0.4,0.4,0.5l26.3,18.9c0.2,0.1,0.4,0.2,0.7,0.2c0.1,0,0.3,0,0.4-0.1l25.8-10.9l0,0l0,0
	c0.1,0,0.2-0.1,0.3-0.2l0,0l0,0l0,0c0.1-0.1,0.1-0.1,0.2-0.2l0,0l0,0l0,0l0,0l0,0l0,0c0.1-0.1,0.1-0.2,0.1-0.3l0,0l0,0l0,0l0,0l0,0
	c0-0.1,0-0.2,0-0.2l0,0V33.8C78.1,33.4,77.9,33,77.5,32.8 M51.3,82.5L27.2,65.2l21.7-8.4l25.6,15.8L51.3,82.5z"/>
<path d="M42.9,45.5c-1.3,0.1-2.6,0.6-3.8,1.9c-1,1.1-2,4.8-3,5.7s-3.4,1.6-3.4,1.6s5.3,1.3,8.4,0.9c3-0.4,6.2-3.5,6.2-6.2
	C47.4,46.7,45.8,45.3,42.9,45.5"/>
	<path d="M49.9,43.8c-0.4,0-0.7-0.1-1-0.4c-0.6-0.5-0.7-1.5-0.1-2.1L75,11.5c0.5-0.6,1.5-0.7,2.1-0.1c0.6,0.5,0.7,1.5,0.1,2.1
		L51,43.2C50.7,43.6,50.3,43.8,49.9,43.8z"/>
<circle class="st0" cx="49.8" cy="50.2" r="46.2"/>
</svg>
