<svg version="1.1" xmlns="http://www.w3.org/2000/svg" xmlns:xlink="http://www.w3.org/1999/xlink" x="0px" y="0px"
	 viewBox="0 0 100 100" style="enable-background:new 0 0 100 100;" xml:space="preserve">
		<path d="M50,97.9C23.6,97.9,2.1,76.4,2.1,50C2.1,23.6,23.6,2.1,50,2.1c26.4,0,47.9,21.5,47.9,47.9C97.9,76.4,76.4,97.9,50,97.9z
			 M50,5.3C25.3,5.3,5.3,25.3,5.3,50c0,24.7,20.1,44.7,44.7,44.7c24.7,0,44.7-20.1,44.7-44.7C94.7,25.3,74.7,5.3,50,5.3z"/>
	<path d="M73.2,66.3c4.9-3.5,9.5-7.7,9.5-14.6c0-6.9-5.6-12.4-10.2-14.8c0.9,4.6,3.5,12.7-7.6,21.5c-7.7,6.1-14.2,7-24.8,7.2
		c0,0,7.6,6.5,22,4.2c1.6-0.3,1.7,0,2.1,0.2c5.6,3.6,11.1,4.9,12.3,4.9c1.2,0,1.6-0.4,1.6-1.2C78,72.3,72.9,68.2,73.2,66.3
		 M68.8,41.8c0-5.1-6-18.1-24.8-18.1c-22.8,0-26.6,14.5-26.6,18.1c0,3,0,8.9,9.7,15.3c0,0-0.6,2-2.3,3.9c-1.1,1.3-2.8,2.2-2.8,3.5
		c0,0.3,0,1.2,1.2,1.2c3.5,0,8.8-2.2,11.8-4.2c2-1.3,3.9-0.4,6.9-0.5C64.8,60.7,68.8,46.9,68.8,41.8"/>
</svg>
