<?xml version="1.0" encoding="utf-8"?>
<!-- Generator: Adobe Illustrator 21.0.2, SVG Export Plug-In . SVG Version: 6.00 Build 0)  -->
<svg version="1.1" id="Layer_1" xmlns="http://www.w3.org/2000/svg" xmlns:xlink="http://www.w3.org/1999/xlink" x="0px" y="0px"
	 viewBox="0 0 100 100" style="enable-background:new 0 0 100 100;" xml:space="preserve">
<style type="text/css">
	.st0{fill:none;stroke:#000000;stroke-width:3;stroke-miterlimit:10;}
</style>
<path d="M73.2,66.3c4.9-3.5,9.5-7.7,9.5-14.6s-5.6-12.4-10.2-14.8c0.9,4.6,3.5,12.7-7.6,21.5c-7.7,6.1-14.2,7-24.8,7.2
	c0,0,7.6,6.5,22,4.2c1.6-0.3,1.7,0,2.1,0.2c5.6,3.6,11.1,4.9,12.3,4.9c1.2,0,1.6-0.4,1.6-1.2C78,72.3,72.9,68.2,73.2,66.3
	 M68.8,41.8c0-5.1-6-18.1-24.8-18.1c-22.8,0-26.6,14.5-26.6,18.1c0,3,0,8.9,9.7,15.3c0,0-0.6,2-2.3,3.9c-1.1,1.3-2.8,2.2-2.8,3.5
	c0,0.3,0,1.2,1.2,1.2c3.5,0,8.8-2.2,11.8-4.2c2-1.3,3.9-0.4,6.9-0.5C64.8,60.7,68.8,46.9,68.8,41.8"/>
<circle class="st0" cx="49.8" cy="50.2" r="46.2"/>
</svg>
