<?xml version="1.0" encoding="utf-8"?>
<!-- Generator: Adobe Illustrator 21.0.2, SVG Export Plug-In . SVG Version: 6.00 Build 0)  -->
<svg version="1.1" id="Layer_1" xmlns="http://www.w3.org/2000/svg" xmlns:xlink="http://www.w3.org/1999/xlink" x="0px" y="0px"
	 viewBox="0 0 100 100" style="enable-background:new 0 0 100 100;" xml:space="preserve">
<style type="text/css">
	.st0{fill:#231F20;}
</style>
<g>
	<path class="st0" d="M49.7,2.5C23.4,2.5,2,23.9,2,50.1c0,26.3,21.4,47.6,47.6,47.6s47.6-21.4,47.6-47.6
		C97.3,23.9,75.9,2.5,49.7,2.5z M49.7,94.6c-24.5,0-44.4-19.9-44.4-44.4S25.2,5.7,49.7,5.7c24.5,0,44.4,19.9,44.4,44.4
		S74.2,94.6,49.7,94.6z"/>
	<path class="st0" d="M56.4,64.4c-0.3-0.1-0.7-0.1-1.3,0.1c-2.1,0.8-9.8,3.8-10.7,4.1c-0.6,0.3-1,0.5-1.2,0.9
		c-0.1,0.2-0.1,0.4,0,0.7c0.2,0.4,0.6,0.7,1,0.7c0.2,0,0.3,0,0.5-0.1c3.8-1.5,7.2-2.9,9.1-3.6c0.6-0.2,1.1-0.4,1.4-0.5
		c0.8-0.3,1.9-0.8,1.6-1.6C56.8,64.7,56.6,64.5,56.4,64.4z"/>
	<path class="st0" d="M53.4,68.4c-0.7,0.3-1.7,0.7-2.8,1.1c-1.3,0.5-2.8,1.2-4.3,1.8c-0.4,0.1-0.7,0.4-0.8,0.7
		c-0.1,0.2-0.1,0.5,0,0.8c0.2,0.4,0.6,0.6,1,0.6c0.2,0,0.5,0,0.7-0.1c0.7-0.3,6.4-2.6,7.5-3.1c0.7-0.3,1.1-0.6,1.2-1
		c0.1-0.3,0.1-0.6-0.1-0.8C55.5,67.6,54.9,67.8,53.4,68.4z"/>
	<path class="st0" d="M44.7,66.9c0.2,0,0.4-0.1,0.8-0.2v0c0.8-0.3,5.3-2.1,7.4-2.9l1.2-0.5c0.4-0.2,1.5-0.6,1.2-1.5
		c-0.1-0.2-0.2-0.5-0.4-0.6c-0.3-0.2-0.7-0.1-1.5,0.2c-0.9,0.3-4.4,1.7-6.4,2.5c-0.6,0.2-1.1,0.4-1.4,0.5c-1.1,0.4-1.6,0.8-1.8,1.2
		c-0.1,0.2-0.1,0.4,0,0.6l0,0C44,66.5,44.2,66.9,44.7,66.9z"/>
	<path class="st0" d="M49.9,26.9c-4.7,0-8.8,1.6-11.6,4.6c-2.3,2.4-3.5,5.4-3.3,8.3c0.2,4,2.3,7.2,4.4,10.3c1.8,2.7,3.5,5.3,3.7,8.1
		c0.1,1.6,0.2,2.5,0.4,2.9c0.2,0.5,0.5,0.6,0.9,0.6c0.1,0,0.2,0,0.2,0c0.2,0,0.4-0.1,0.5-0.3c0.5-0.8,0.3-2.9-0.6-6.1
		c-0.6-2-1.9-4-3.3-6.1c-2-3.1-4.1-6.2-4.1-9.9c0-5.9,5.5-10.4,12.7-10.4c3.2,0,6.3,1.1,8.7,3.1c2.3,2,3.7,4.6,3.7,7.2
		c0,3.4-1.9,6.3-3.7,9.1c-1.1,1.7-2.3,3.5-3,5.4c-1.1,3.1-1.5,4.3-1.1,5c0.1,0.3,0.3,0.4,0.7,0.6c0.2,0.1,0.4,0.1,0.5,0
		c0.4-0.2,0.7-1,1.4-3.1c0.2-0.7,0.5-1.6,0.9-2.6c0.6-1.7,1.6-3.1,2.7-4.5c1.9-2.5,3.8-5.2,3.8-10.2C64.4,31.1,56,26.9,49.9,26.9z"
		/>
	<path class="st0" d="M49.7,79.6c-7.1,0-12.9-2.4-17-7c-3.7-4.2-5.6-10-5.3-16.5l2.9,3.3c0.4,0.4,1,0.5,1.5,0.1
		c0.4-0.4,0.5-1,0.1-1.5l-4.8-5.4c-0.2-0.2-0.5-0.4-0.8-0.4c-0.3,0-0.6,0.2-0.8,0.4l-4.4,5.7c-0.4,0.5-0.3,1.1,0.2,1.5
		c0.2,0.1,0.4,0.2,0.6,0.2c0.3,0,0.6-0.1,0.8-0.4l2.4-3.2c-0.2,6.8,1.8,13,5.8,17.5c4.4,5,11,7.7,18.6,7.7c0.6,0,1.1-0.5,1.1-1.1
		C50.7,80,50.2,79.6,49.7,79.6z"/>
	<path class="st0" d="M82.4,40.2c-0.5-0.4-1.1-0.3-1.5,0.2l-2.4,3.2c0.2-6.8-1.8-13-5.8-17.5c-4.4-5-11-7.7-18.6-7.7
		c-0.6,0-1.1,0.5-1.1,1.1c0,0.6,0.5,1.1,1.1,1.1c7.1,0,12.9,2.4,17,7c3.7,4.2,5.6,10,5.3,16.5l-2.9-3.3c-0.4-0.4-1-0.5-1.5-0.1
		c-0.4,0.4-0.5,1.1-0.1,1.5l4.8,5.4c0.2,0.2,0.5,0.4,0.8,0.4c0,0,0,0,0,0c0.3,0,0.6-0.2,0.8-0.4l4.4-5.7
		C82.9,41.2,82.9,40.5,82.4,40.2z"/>
</g>
</svg>
