<?xml version="1.0" encoding="utf-8"?>
<!-- Generator: Adobe Illustrator 21.0.2, SVG Export Plug-In . SVG Version: 6.00 Build 0)  -->
<svg version="1.1" id="Layer_1" xmlns="http://www.w3.org/2000/svg" xmlns:xlink="http://www.w3.org/1999/xlink" x="0px" y="0px"
	 viewBox="0 0 100 100" style="enable-background:new 0 0 100 100;" xml:space="preserve">
<path d="M55.5,78.1c-2.3,0.9-6.5,2.7-10.8,4.4c-1,0.4-1.3,1.1-1,1.8c0.3,0.7,1.2,1,2.3,0.6c1.1-0.4,9.6-3.9,11.3-4.7
	c1.7-0.7,2-1.6,1.6-2.4C58.5,77,57.9,77.2,55.5,78.1 M58.1,72.1c-3.1,1.1-14.8,5.7-16.2,6.2c-1.4,0.5-1.9,1.2-1.6,2
	c0.3,0.7,1.1,1,2,0.7c7.7-3.1,14.3-5.6,15.9-6.2c1.6-0.6,2.6-1.2,2.3-2.1C60.1,71.8,59.4,71.6,58.1,72.1 M43.3,75
	c1.6-0.6,11.9-4.7,13-5.1c1.2-0.5,2-1,1.7-2c-0.3-1-0.8-1.1-2.5-0.5c-1.8,0.6-10.2,4-11.8,4.6c-2.1,0.8-2.9,1.4-2.6,2.3
	C41.5,74.9,41.7,75.6,43.3,75 M50.1,15.1c-14.8,0-22.9,10.6-22.4,19.3c0.6,11.2,11.5,18.7,12.3,27.9c0.4,4.7,0.5,5.2,2,5.1
	c1.1-0.1,1.7-2.4-0.3-9.4c-2.1-7.5-11.2-14.9-11.2-24.3c0-9.3,8.7-16,19.6-16c10.2,0,19,7.4,19,15.9s-7.6,14.9-10.2,22.1
	c-2.2,6-2.5,7.5-0.9,8.1c1.2,0.4,1.4-1.2,4-8.5c2.6-7.3,9.8-10.4,9.8-22.3C71.8,21.2,59,15.1,50.1,15.1"/>
<path d="M55.5,78.1c-2.3,0.9-6.5,2.7-10.8,4.4c-1,0.4-1.3,1.1-1,1.8c0.3,0.7,1.2,1,2.3,0.6c1.1-0.4,9.6-3.9,11.3-4.7
	c1.7-0.7,2-1.6,1.6-2.4C58.5,77,57.9,77.2,55.5,78.1 M58.1,72.1c-3.1,1.1-14.8,5.7-16.2,6.2c-1.4,0.5-1.9,1.2-1.6,2
	c0.3,0.7,1.1,1,2,0.7c7.7-3.1,14.3-5.6,15.9-6.2c1.6-0.6,2.6-1.2,2.3-2.1C60.1,71.8,59.4,71.6,58.1,72.1 M43.3,75
	c1.6-0.6,11.9-4.7,13-5.1c1.2-0.5,2-1,1.7-2c-0.3-1-0.8-1.1-2.5-0.5c-1.8,0.6-10.2,4-11.8,4.6c-2.1,0.8-2.9,1.4-2.6,2.3
	C41.5,74.9,41.7,75.6,43.3,75 M50.1,15.1c-14.8,0-22.9,10.6-22.4,19.3c0.6,11.2,11.5,18.7,12.3,27.9c0.4,4.7,0.5,5.2,2,5.1
	c1.1-0.1,1.7-2.4-0.3-9.4c-2.1-7.5-11.2-14.9-11.2-24.3c0-9.3,8.7-16,19.6-16c10.2,0,19,7.4,19,15.9s-7.6,14.9-10.2,22.1
	c-2.2,6-2.5,7.5-0.9,8.1c1.2,0.4,1.4-1.2,4-8.5c2.6-7.3,9.8-10.4,9.8-22.3C71.8,21.2,59,15.1,50.1,15.1"/>
<path d="M49.8,98C23.4,98,1.9,76.5,1.9,50.1c0-26.4,21.5-47.9,47.9-47.9c26.4,0,47.9,21.5,47.9,47.9C97.6,76.5,76.1,98,49.8,98
	 M49.8,5.4c-24.6,0-44.7,20-44.7,44.7c0,24.6,20,44.7,44.7,44.7c24.6,0,44.7-20,44.7-44.7C94.4,25.5,74.4,5.4,49.8,5.4"/>
</svg>
