<?xml version="1.0" encoding="utf-8"?>
<!-- Generator: Adobe Illustrator 21.0.2, SVG Export Plug-In . SVG Version: 6.00 Build 0)  -->
<svg version="1.1" id="Layer_1" xmlns="http://www.w3.org/2000/svg" xmlns:xlink="http://www.w3.org/1999/xlink" x="0px" y="0px"
	 viewBox="0 0 100 100" style="enable-background:new 0 0 100 100;" xml:space="preserve">
<g>
	<path d="M37.3,53.7h13.4c-2.4,6.7-8.7,11.4-16.2,11.4C25.5,65,18,57.8,17.6,48.7C17.3,39.1,25,31,34.7,31c4.4,0,8.4,1.7,11.4,4.4
		c0.7,0.7,1.8,0.7,2.5,0l4.9-4.6c0.8-0.7,0.8-1.9,0-2.7c-4.8-4.5-11.2-7.4-18.3-7.5c-15.1-0.3-27.9,12.1-28,27.2
		C7.1,63.1,19.4,75.5,34.7,75.5c14.6,0,26.6-11.5,27.4-25.9c0-0.2,0-6.3,0-6.3H37.3c-1,0-1.8,0.8-1.8,1.8v6.7
		C35.5,52.9,36.3,53.7,37.3,53.7z"/>
	<path d="M84.8,43.9v-6.6c0-0.9-0.7-1.6-1.6-1.6h-5.5c-0.9,0-1.6,0.7-1.6,1.6v6.6h-6.6c-0.9,0-1.6,0.7-1.6,1.6v5.5
		c0,0.9,0.7,1.6,1.6,1.6H76v6.6c0,0.9,0.7,1.6,1.6,1.6h5.5c0.9,0,1.6-0.7,1.6-1.6v-6.6h6.6c0.9,0,1.6-0.7,1.6-1.6v-5.5
		c0-0.9-0.7-1.6-1.6-1.6L84.8,43.9L84.8,43.9z"/>
</g>
</svg>
