<svg version="1.1" xmlns="http://www.w3.org/2000/svg" xmlns:xlink="http://www.w3.org/1999/xlink" x="0px" y="0px"
	 viewBox="0 0 100 100" style="enable-background:new 0 0 100 100;" xml:space="preserve">
<g>
	<path d="M49.5,18.9c10.6,0,11.9,0,16.1,0.2c3.9,0.2,6,0.8,7.4,1.4c1.9,0.7,3.2,1.6,4.6,3s2.3,2.7,3,4.6c0.5,1.4,1.2,3.5,1.4,7.4
		c0.2,4.2,0.2,5.5,0.2,16.1s0,11.9-0.2,16.1c-0.2,3.9-0.8,6-1.4,7.4c-0.7,1.9-1.6,3.2-3,4.6c-1.4,1.4-2.7,2.3-4.6,3
		c-1.4,0.5-3.5,1.2-7.4,1.4c-4.2,0.2-5.5,0.2-16.1,0.2s-11.9,0-16.1-0.2c-3.9-0.2-6-0.8-7.4-1.4c-1.9-0.7-3.2-1.6-4.6-3
		c-1.4-1.4-2.3-2.7-3-4.6c-0.5-1.4-1.2-3.5-1.4-7.4c-0.2-4.2-0.2-5.5-0.2-16.1s0-11.9,0.2-16.1c0.2-3.9,0.8-6,1.4-7.4
		c0.7-1.9,1.6-3.2,3-4.6s2.7-2.3,4.6-3c1.4-0.5,3.5-1.2,7.4-1.4C37.6,18.9,38.9,18.9,49.5,18.9 M49.5,11.7c-10.8,0-12.2,0-16.4,0.2
		s-7.1,0.9-9.7,1.8c-2.6,1-4.8,2.4-7,4.6s-3.6,4.4-4.6,7c-1,2.5-1.7,5.4-1.8,9.7c-0.2,4.2-0.2,5.6-0.2,16.4s0,12.2,0.2,16.4
		s0.9,7.1,1.8,9.7c1,2.6,2.4,4.8,4.6,7c2.2,2.2,4.4,3.6,7,4.6c2.5,1,5.4,1.7,9.7,1.8c4.2,0.2,5.6,0.2,16.4,0.2s12.2,0,16.4-0.2
		s7.1-0.9,9.7-1.8c2.6-1,4.8-2.4,7-4.6c2.2-2.2,3.6-4.4,4.6-7c1-2.5,1.7-5.4,1.8-9.7c0.2-4.2,0.2-5.6,0.2-16.4s0-12.2-0.2-16.4
		c-0.2-4.2-0.9-7.1-1.8-9.7c-1-2.6-2.4-4.8-4.6-7c-2.2-2.2-4.4-3.6-7-4.6c-2.5-1-5.4-1.7-9.7-1.8C61.7,11.7,60.3,11.7,49.5,11.7
		L49.5,11.7z"/>
	<path d="M49.5,31.1c-11.3,0-20.4,9.2-20.4,20.4s9.2,20.4,20.4,20.4s20.4-9.2,20.4-20.4S60.8,31.1,49.5,31.1z M49.5,64.8
		c-7.3,0-13.3-5.9-13.3-13.3s5.9-13.3,13.3-13.3s13.3,5.9,13.3,13.3S56.8,64.8,49.5,64.8z"/>
	<circle cx="70.7" cy="30.3" r="4.8"/>
</g>
</svg>
