<svg version="1.1" xmlns="http://www.w3.org/2000/svg" xmlns:xlink="http://www.w3.org/1999/xlink" x="0px" y="0px"
	 viewBox="0 0 100 100" style="enable-background:new 0 0 100 100;" xml:space="preserve">
<g>
	<path d="M83.8,10.3H16.1c-3.2,0-5.9,2.6-5.9,5.7v68c0,3.2,2.6,5.7,5.9,5.7h67.8c3.2,0,5.9-2.6,5.9-5.7V16
		C89.7,12.8,87.1,10.3,83.8,10.3z M33.8,78H22V40.1h11.8V78z M27.9,34.9c-3.8,0-6.8-3.1-6.8-6.8c0-3.8,3.1-6.8,6.8-6.8
		c3.8,0,6.8,3.1,6.8,6.8S31.7,34.9,27.9,34.9z M77.9,78H66.2V59.6c0-4.4-0.1-10.1-6.1-10.1c-6.1,0-7.1,4.8-7.1,9.7V78H41.2V40.1
		h11.3v5.2h0.2c1.6-3,5.4-6.1,11.2-6.1c11.9,0,14.1,7.9,14.1,18.1L77.9,78C78,78,77.9,78,77.9,78z"/>
</g>
</svg>
