
<svg version="1.1" id="Layer_1" xmlns="http://www.w3.org/2000/svg" xmlns:xlink="http://www.w3.org/1999/xlink" x="0px" y="0px"
	 viewBox="0 0 100 100" style="enable-background:new 0 0 100 100;" xml:space="preserve">
<g>
	<path d="M86.2,45.7c0,4.2-0.2,8.3-0.6,12.1c-0.4,3.8-1.1,7.2-2.2,10.1s-2.7,5.3-4.8,7c-2.1,1.7-5,2.6-8.5,2.6c-0.9,0-1.9-0.1-3-0.4
		s-2.2-0.8-3.2-1.4c-1-0.6-1.9-1.5-2.7-2.6s-1.3-2.4-1.6-4c-1,1.5-2.7,2.7-5,3.7s-5,1.5-8.1,1.5c-1.8,0-3.5-0.3-5.3-0.8
		c-1.7-0.5-3.3-1.5-4.8-3.1c-1.4-1.5-2.6-3.7-3.5-6.5c-0.9-2.8-1.3-6.4-1.3-11c0-4.8,0.6-8.7,1.8-11.8c1.2-3,2.9-5.4,5-7.1
		c2.1-1.7,4.5-2.9,7.4-3.5s5.9-0.9,9.1-0.9c1.7,0,3.6,0.2,5.7,0.5c2.1,0.3,4,0.7,5.7,1.1v34.4c0,1.1,0.4,2.1,1.1,3.1
		c0.7,0.9,1.7,1.4,3.1,1.4c1.5,0,2.7-0.6,3.5-1.7c0.9-1.2,1.5-2.8,2-4.9s0.8-4.7,0.9-7.7s0.2-6.4,0.2-10.2c0-5.5-0.3-10-0.9-13.4
		s-1.9-6.1-3.8-8s-4.6-3.2-8.1-3.8c-3.5-0.7-8.1-1-13.8-1c-5.6,0-10.1,0.5-13.6,1.5s-6.2,2.7-8.1,5.2s-3.2,5.8-4,9.9
		c-0.7,4.2-1.1,9.4-1.1,15.8c0,5.7,0.3,10.6,0.9,14.5c0.6,4,1.8,7.2,3.7,9.7c1.9,2.5,4.5,4.3,8,5.4s8,1.7,13.8,1.7
		c1.3,0,2.9-0.1,4.6-0.2c1.7-0.1,3.4-0.2,5.1-0.4c1.7-0.1,3.2-0.3,4.6-0.4s2.5-0.3,3.2-0.3v7.9c-1,0.1-2.2,0.3-3.6,0.4
		s-3,0.3-4.6,0.4s-3.2,0.3-4.8,0.3c-1.6,0.1-3.1,0.1-4.5,0.1c-7.1,0-13-0.7-17.6-2.1s-8.2-3.7-10.9-6.8s-4.5-7.2-5.5-12.1
		c-1-5-1.5-11-1.5-18.2c0-7.9,0.6-14.4,1.9-19.6s3.3-9.3,6.2-12.4s6.6-5.3,11.1-6.5c4.6-1.3,10.2-1.9,16.8-1.9
		c6.5,0,12.1,0.4,16.7,1.3c4.6,0.9,8.3,2.6,11.1,5.1c2.8,2.5,4.9,5.9,6.2,10.4C85.6,32.8,86.2,38.6,86.2,45.7z M57.5,37.8
		c-0.4-0.1-1-0.3-1.8-0.4c-0.7-0.1-1.5-0.2-2.3-0.2c-1.7,0-3.3,0.2-4.9,0.6c-1.6,0.4-2.9,1.1-4.1,2.2c-1.2,1.1-2.1,2.7-2.8,4.7
		s-1.1,4.6-1.1,7.9c0,3,0.2,5.4,0.6,7.2c0.4,1.9,1,3.3,1.7,4.2c0.7,1,1.6,1.6,2.6,1.9s2.2,0.5,3.5,0.5c1.6,0,3-0.2,4.1-0.7
		s2-1.1,2.7-1.8s1.2-1.5,1.4-2.4c0.3-0.9,0.4-1.7,0.4-2.6C57.5,58.9,57.5,37.8,57.5,37.8z"/>
</g>
</svg>
