<?xml version="1.0" encoding="utf-8"?>
<!-- Generator: Adobe Illustrator 21.0.2, SVG Export Plug-In . SVG Version: 6.00 Build 0)  -->
<svg version="1.1" id="Layer_1" xmlns="http://www.w3.org/2000/svg" xmlns:xlink="http://www.w3.org/1999/xlink" x="0px" y="0px"
	 viewBox="0 0 100 100" style="enable-background:new 0 0 100 100;" xml:space="preserve">
<style type="text/css">
	.st0{fill:none;stroke:#000000;stroke-width:3;stroke-miterlimit:10;}
</style>
<path d="M30.4,49.9c-0.4-1.4-1.3-2.1-2.4-2.3c-1.1-0.1-1.8,0.3-2.3,1.1s-1,1.5-2.6,4.2c-0.2,0.4-0.3,0.3-0.5-0.1
	c-0.1-0.4-2.9-9.4-3.6-11.5c-0.7-2-2-2.1-3-1.8c-1.3,0.5-1.7,2-1.3,3.4s4.1,13.2,5.2,16.4c0.8,2.5,3.8,1.6,4.4,0.4
	c0.3-0.6,1.9-3,2.5-4.2c0.4-0.7,0.5-0.8,0.6-0.4c0.1,0.4,3,9.2,3.7,11.1c0.6,1.9,1.6,2.8,3.2,2.2s1.7-2,1.2-3.6
	C34.9,63.6,33.2,58.3,30.4,49.9"/>
<path d="M76,13.5L17.3,81.2c0,0,0.2,1.8,1.4,2.9c1.4,1.2,3.3,1.3,3.3,1.3l58.8-67.7c0,0-0.7-1.6-2.2-2.8C77.4,13.9,76,13.5,76,13.5z
	"/>
<path d="M56.5,37.4c-0.9-0.7-1.7-0.7-2.6-0.3c-0.9,0.4-1.7,0.6-4.5,2c-0.4,0.2-0.5,0.1-0.3-0.4c0.1-0.4,2.8-9.4,3.4-11.5
	c0.6-2.1-0.5-2.9-1.5-3.1c-1.4-0.4-2.5,0.7-3,2.1c-0.4,1.4-3.9,13.2-4.8,16.5c-0.7,2.6,2.2,3.4,3.4,2.8c0.6-0.3,3.2-1.5,4.4-2.1
	c0.7-0.4,0.8-0.4,0.7,0s-2.6,9.3-3.1,11.2s-0.3,3.2,1.4,3.6c1.6,0.4,2.6-0.7,3-2.3s2-6.8,4.4-15.4C57.6,39.2,57.4,38.1,56.5,37.4"/>
<path d="M84.5,43.6c1.5-1.5,1-2.7,0.2-3.5c-1-1-2.6-0.6-3.6,0.4c-1.1,1-10,9.5-12.4,11.9c-1.9,1.9,0.3,4.1,1.6,4.1
	c0.7,0,3.5,0.3,4.8,0.4c0.7,0,0.9,0.1,0.6,0.4c-0.3,0.3-6.9,6.8-8.3,8.2c-1.4,1.4-1.8,2.6-0.6,3.9c1.2,1.2,2.6,0.6,3.7-0.5
	s5.1-5,11.4-11.2c1-1,1.4-2.1,1-3.1s-1.1-1.5-2-1.6c-1-0.1-1.8-0.3-4.9-0.5c-0.4,0-0.4-0.2-0.1-0.5C76.1,51.6,82.9,45.1,84.5,43.6"
	/>
<circle class="st0" cx="49.8" cy="50.2" r="46.2"/>
</svg>
