<?xml version="1.0" encoding="utf-8"?>
<!-- Generator: Adobe Illustrator 21.0.2, SVG Export Plug-In . SVG Version: 6.00 Build 0)  -->
<svg version="1.1" id="Layer_1" xmlns="http://www.w3.org/2000/svg" xmlns:xlink="http://www.w3.org/1999/xlink" x="0px" y="0px"
	 viewBox="0 0 100 100" style="enable-background:new 0 0 100 100;" xml:space="preserve">
<path d="M30.4,49.9c-0.4-1.4-1.3-2.1-2.4-2.3c-1.1-0.1-1.8,0.3-2.3,1.1c-0.5,0.8-1,1.5-2.6,4.2
	c-0.2,0.4-0.3,0.3-0.5-0.1c-0.1-0.4-2.9-9.4-3.6-11.5c-0.7-2-2-2.1-3-1.8c-1.3,0.5-1.7,2-1.3,3.4c0.4,1.4,4.1,13.2,5.2,16.4
	c0.8,2.5,3.8,1.6,4.4,0.4c0.3-0.6,1.9-3,2.5-4.2c0.4-0.7,0.5-0.8,0.6-0.4c0.1,0.4,3,9.2,3.7,11.1c0.6,1.9,1.6,2.8,3.2,2.2
	s1.7-2,1.2-3.6C34.9,63.6,33.2,58.3,30.4,49.9"/>
<path d="M50,2.2C23.6,2.2,2.2,23.6,2.2,50c0,26.4,21.5,47.8,47.8,47.8c26.4,0,47.8-21.5,47.8-47.8C97.8,23.6,76.4,2.2,50,2.2z
	 M50,5.4c9.7,0,18.6,3.1,25.9,8.3L17.7,80.8C10.1,72.8,5.4,61.9,5.4,50C5.4,25.4,25.4,5.4,50,5.4z M50,94.6c-10.4,0-20-3.6-27.6-9.6
	l58.4-67.3c8.5,8.1,13.8,19.6,13.8,32.3C94.6,74.6,74.6,94.6,50,94.6z"/>
<path d="M56.5,37.4c-0.9-0.7-1.7-0.7-2.6-0.3c-0.9,0.4-1.7,0.6-4.5,2c-0.4,0.2-0.5,0.1-0.3-0.4
	c0.1-0.4,2.8-9.4,3.4-11.5c0.6-2.1-0.5-2.9-1.5-3.1c-1.4-0.4-2.5,0.7-3,2.1c-0.4,1.4-3.9,13.2-4.8,16.5c-0.7,2.6,2.2,3.4,3.4,2.8
	c0.6-0.3,3.2-1.5,4.4-2.1c0.7-0.4,0.8-0.4,0.7,0c-0.1,0.4-2.6,9.3-3.1,11.2c-0.5,1.9-0.3,3.2,1.4,3.6c1.6,0.4,2.6-0.7,3-2.3
	c0.4-1.6,2-6.8,4.4-15.4C57.6,39.2,57.4,38.1,56.5,37.4"/>
<path d="M84.5,43.6c1.5-1.5,1-2.7,0.2-3.5c-1-1-2.6-0.6-3.6,0.4c-1.1,1-10,9.5-12.4,11.9c-1.9,1.9,0.3,4.1,1.6,4.1
	c0.7,0,3.5,0.3,4.8,0.4c0.7,0,0.9,0.1,0.6,0.4c-0.3,0.3-6.9,6.8-8.3,8.2c-1.4,1.4-1.8,2.6-0.6,3.9c1.2,1.2,2.6,0.6,3.7-0.5
	c1.1-1.1,5.1-5,11.4-11.2c1-1,1.4-2.1,1-3.1c-0.4-1-1.1-1.5-2-1.6c-1-0.1-1.8-0.3-4.9-0.5c-0.4,0-0.4-0.2-0.1-0.5
	C76.1,51.6,82.9,45.1,84.5,43.6"/>
</svg>
