<svg version="1.1" id="Capa_1" xmlns="http://www.w3.org/2000/svg" xmlns:xlink="http://www.w3.org/1999/xlink" x="0px" y="0px"
	 viewBox="0 0 100 100" style="enable-background:new 0 0 100 100;" xml:space="preserve">
			<path class="st0" d="M81.3,31.4C79,14.8,62.4,6.3,44.8,8.3c-14,1.6-27.9,12.8-28.4,29c-0.4,9.8,2.4,17.2,11.8,19.3
				c4.1-7.2-1.3-8.7-2.1-14C22.6,21.4,50.5,6.8,65.2,21.7C75.3,32,68.7,63.6,52.3,60.3C36.7,57.2,60,32,47.5,27.1
				c-10.2-4-15.5,12.3-10.7,20.4c-2.8,13.9-8.9,27.1-6.4,44.5c8-5.8,10.7-16.9,12.9-28.4c4,2.4,6.2,5,11.3,5.4
				C73.3,70.4,83.9,50.1,81.3,31.4z"/>
</svg>
