<svg version="1.1" xmlns="http://www.w3.org/2000/svg" xmlns:xlink="http://www.w3.org/1999/xlink" x="0px" y="0px"
	 viewBox="0 0 100 100" style="enable-background:new 0 0 100 100;" xml:space="preserve">
<path d="M50,98.2c-26.5,0-48.1-21.6-48.1-48.1C1.9,23.6,23.5,2,50,2c26.5,0,48.1,21.6,48.1,48.1C98.1,76.7,76.5,98.2,50,98.2
	 M50,5.2C25.2,5.2,5.1,25.4,5.1,50.1S25.2,95,50,95c24.8,0,44.9-20.1,44.9-44.9S74.8,5.2,50,5.2"/>
<path d="M50.6,54.3c-0.6,0-1.3-0.3-1.7-0.8L31.1,29.6c-0.7-0.9-0.5-2.2,0.4-2.9c0.9-0.7,2.2-0.5,2.9,0.4l14.1,18.9V12
	c0-1.2,0.9-2.1,2.1-2.1c1.2,0,2.1,0.9,2.1,2.1v40.2c0,0.9-0.6,1.7-1.4,2C51.1,54.3,50.9,54.3,50.6,54.3"/>
</svg>
