<svg version="1.1" xmlns="http://www.w3.org/2000/svg" xmlns:xlink="http://www.w3.org/1999/xlink" x="0px" y="0px"
	 viewBox="0 0 100 100" style="enable-background:new 0 0 100 100;" xml:space="preserve">
<path d="M50,2C23.5,2,2,23.5,2,50c0,25.5,20,46.4,45.1,47.9c1,0.1,2,0.1,3,0.1c0.4,0,0.7,0,1.1,0c3.3-0.1,6.5-0.5,9.6-1.2
	c1.8-0.4,3.6-0.9,5.3-1.5C84.6,88.7,98,70.9,98,50C98,23.5,76.5,2,50,2 M47,83.6c-7.7-2-9.6-4.6-9.6-8.7c0-4.3,3.6-7.7,9.6-8V83.6z
	 M51.1,94.8V90c4.2,1.1,6.7,2.3,8.1,3.9C56.6,94.4,53.9,94.7,51.1,94.8 M64.8,92.3c-2.1-3.6-6.5-6.1-13.7-7.7V67.2
	c3.2,0.5,6.2,1.8,9.3,4.1c0.6,0.4,1.1,0.5,1.5,0.5c1.5,0,2.7-1.1,2.7-2.5c0-1.1-0.6-1.8-1.4-2.3c-3.6-2.5-7.2-4-11.9-4.5v-2.3
	c0-1.2-1.1-2.3-2.3-2.3c-1.2,0-2.3,1.1-2.3,2.3v2.2c-8.7,0.4-14.8,5.8-14.8,13c0,7.4,4.6,11.3,15,13.7v5.7
	C23.7,93.2,5.2,73.7,5.2,50C5.2,25.3,25.3,5.2,50,5.2S94.8,25.3,94.8,50C94.8,69.5,82.3,86.2,64.8,92.3"/>
</svg>
