<?xml version="1.0" encoding="utf-8"?>
<!-- Generator: Adobe Illustrator 21.0.2, SVG Export Plug-In . SVG Version: 6.00 Build 0)  -->
<svg version="1.1" id="Layer_1" xmlns="http://www.w3.org/2000/svg" xmlns:xlink="http://www.w3.org/1999/xlink" x="0px" y="0px"
	 viewBox="0 0 100 100" style="enable-background:new 0 0 100 100;" xml:space="preserve">
<style type="text/css">
	.st0{fill:none;stroke:#000000;stroke-width:3;stroke-miterlimit:10;}
</style>
<path d="M47,83.6c-7.7-2-9.6-4.6-9.6-8.7c0-4.3,3.6-7.7,9.6-8V83.6z M64.8,92.3c-2.1-3.6-6.5-6.1-13.7-7.7V67.2
	c3.2,0.5,6.2,1.8,9.3,4.1c0.6,0.4,1.1,0.5,1.5,0.5c1.5,0,2.7-1.1,2.7-2.5c0-1.1-0.6-1.8-1.4-2.3c-3.6-2.5-7.2-4-11.9-4.5v-2.3
	c0-1.2-1.1-2.3-2.3-2.3s-2.3,1.1-2.3,2.3v2.2c-8.7,0.4-14.8,5.8-14.8,13c0,7.4,4.6,11.3,15,13.7v5.8c0,0,0.8,0.5,2.1,0.5
	c1.4,0,2.1-0.5,2.1-0.5V90c4.2,1.1,6.7,2.3,8.1,3.9c0,0,1.7,0.3,3.3-0.2C64,93.3,64.8,92.3,64.8,92.3z"/>
<circle class="st0" cx="49.8" cy="50.2" r="46.2"/>
</svg>
