<?xml version="1.0" encoding="utf-8"?>
<!-- Generator: Adobe Illustrator 21.0.2, SVG Export Plug-In . SVG Version: 6.00 Build 0)  -->
<svg version="1.1" id="Layer_1" xmlns="http://www.w3.org/2000/svg" xmlns:xlink="http://www.w3.org/1999/xlink" x="0px" y="0px"
	 viewBox="0 0 100 100" style="enable-background:new 0 0 100 100;" xml:space="preserve">
<path d="M58.5,59.9H19.2c-4.8,0-5.4,1.7-5.4,5.4c0,0.2,0,0.6,0,0.8c0,1.1,0,1.9,0.6,2.6c0.6,0.6,1.4,0.7,2.4,0.7
	c1.5,0,2.2-1.2,2.8-2.3c0.9-1.5,1.9-3.3,5.6-3.3c5.5,0,6.2,4.9,6.2,5.1l0.1,1L58.9,70c2,0,3.2-1.1,3.2-2.9v-3c0-0.9,0-2.3-1-3.3
	C60.5,60.2,59.7,59.9,58.5,59.9 M17.7,65.8c-0.4,0.7-0.7,1.2-0.9,1.2c-0.4,0-0.6,0-0.7,0c0-0.2,0-0.6,0-1c0-0.2,0-0.3,0-0.5
	c0-1.2,0-1.9,0.4-2.3c0.3-0.3,1.2-0.5,2.8-0.5h2.1C19.2,63.5,18.3,64.7,17.7,65.8 M59.4,66.6c0,0.3,0,0.7-1,0.7l-25.1-0.1
	c-0.5-1.8-1.8-3.7-4.4-4.9H58c0.4,0,0.8,0.1,1.1,0.3c0.3,0.3,0.3,1.1,0.3,1.7L59.4,66.6z"/>
<path d="M88,54.6c0,0-2.1-3.5-3.9-6.5c-3.7-6.1-4.8-6.6-5.7-6.6H66.8c-1.2,0-3.2,0.6-3.2,4.7v21.3c0,1.9,1.3,2.7,2.5,2.7l2.2,0
	l0.1-1c0-0.2,0.7-5.5,6.2-5.5c5.6,0,6.6,5.3,6.7,5.6l0.2,0.9h4.4c1.1,0,2.3-1.1,2.3-2.7V54.9L88,54.6z M85.6,67.1
	c0,0.1-0.1,0.4-0.2,0.5h-2.1c-0.8-2.6-3.3-6.5-8.7-6.5c-5.4,0-7.3,3.8-7.9,6.5h-0.2c-0.2,0-0.3,0-0.3-0.5V46.6c0-2.4,0.8-2.4,1-2.4
	h11.1c1.1,0.7,4.6,6.3,7.3,11.3V67.1z"/>
<path d="M59,59.1c2.7,0,3-2.2,3-3.6V32.4c0-1.6-1.3-2.7-3-2.7H14.5c-2.9,0-2.9,2.9-2.9,4.3v22.3c0,1.7,1.1,2.7,2.9,2.7L59,59.1z
	 M14.2,55.9V34.1c0-2.1,0.2-2.1,0.6-2.1l43.7,0.3c0.4,0,0.8,0.1,0.8,0.5v22.7c0,1.3-0.3,1.3-0.8,1.3l-43.7-0.5
	C14.2,56.4,14.2,56.3,14.2,55.9"/>
<path d="M76.8,45.3h-7.5c-1.4,0-2.3,0.9-2.3,2.3v6c0,1.7,1.1,2.3,2.2,2.3h11c1.8,0,2.2-1.1,2.2-2c0-0.9-1.4-3.5-2-4.6
	C78.1,45.3,77.4,45.3,76.8,45.3 M79.7,53.4H69.5c0,0,0-0.1,0-0.1l-0.1-5.4c0,0,0-0.1,0-0.1c0,0,0.1,0,0.1,0h6.6
	c0.3,0.4,1,1.1,1.9,2.9C78.9,52.1,79.5,52.8,79.7,53.4"/>
<path d="M25.1,67.3c-1.6,0-2.9,1.3-2.9,2.9c0,1.6,1.3,2.9,2.9,2.9c1.6,0,2.9-1.3,2.9-2.9C28.1,68.6,26.7,67.3,25.1,67.3 M25.1,75.8
	c-3.1,0-5.6-2.5-5.6-5.6c0-3.1,2.5-5.6,5.6-5.6c3.1,0,5.6,2.5,5.6,5.6C30.7,73.3,28.2,75.8,25.1,75.8"/>
<path d="M74.8,67.3c-1.6,0-2.9,1.3-2.9,2.9c0,1.6,1.3,2.9,2.9,2.9c1.6,0,2.9-1.3,2.9-2.9C77.7,68.6,76.4,67.3,74.8,67.3 M74.8,75.8
	c-3.1,0-5.6-2.5-5.6-5.6c0-3.1,2.5-5.6,5.6-5.6c3.1,0,5.6,2.5,5.6,5.6C80.4,73.3,77.9,75.8,74.8,75.8"/>
<path d="M49.7,98.2c-26.5,0-48.1-21.6-48.1-48.1C1.6,23.6,23.2,2,49.7,2c26.5,0,48.1,21.6,48.1,48.1C97.8,76.6,76.2,98.2,49.7,98.2
	 M49.7,5.2C25,5.2,4.8,25.3,4.8,50.1C4.8,74.9,25,95,49.7,95c24.8,0,44.9-20.1,44.9-44.9C94.6,25.3,74.5,5.2,49.7,5.2"/>
</svg>
