<?xml version="1.0" encoding="utf-8"?>
<!-- Generator: Adobe Illustrator 21.0.2, SVG Export Plug-In . SVG Version: 6.00 Build 0)  -->
<svg version="1.1" id="Layer_1" xmlns="http://www.w3.org/2000/svg" xmlns:xlink="http://www.w3.org/1999/xlink" x="0px" y="0px"
	 viewBox="0 0 100 100" style="enable-background:new 0 0 100 100;" xml:space="preserve">
<style type="text/css">
	.st0{fill:none;stroke:#000000;stroke-width:3;stroke-miterlimit:10;}
</style>
<path d="M23.2,25.4L23.2,25.4l-2.7,2V74l2.7,1.8l0,0L83,62.3V32.8L23.2,25.4z M48.9,54.7V44l17.6,0.5v8.2L48.9,54.7z M66.5,54v10.4
	l-17.6,4V55.9L66.5,54z M24.7,43.3L47.4,44v10.8l-22.7,2.5V43.3z M48.9,42.8V30.1l17.6,2.2v11L48.9,42.8z M67.8,44.6L81.6,45v6.1
	l-13.8,1.5C67.8,52.6,67.8,44.6,67.8,44.6z M81.6,43.7l-13.8-0.4V32.4l13.8,1.7V43.7z M47.4,29.9v12.8L24.7,42V27L47.4,29.9z
	 M24.7,58.5L47.4,56v12.7l-22.7,5.1V58.5z M67.8,64.1V53.9l13.8-1.5V61L67.8,64.1z"/>
<circle class="st0" cx="49.8" cy="50.2" r="46.2"/>
</svg>
