<svg version="1.1" xmlns="http://www.w3.org/2000/svg" xmlns:xlink="http://www.w3.org/1999/xlink" x="0px" y="0px"
	 viewBox="0 0 100 100" xml:space="preserve">
		<path d="M50,98C23.5,98,2,76.5,2,50S23.5,2,50,2s48,21.5,48,48S76.5,98,50,98z M50,5.2C25.3,5.2,5.2,25.3,5.2,50
				S25.3,94.8,50,94.8S94.8,74.7,94.8,50S74.7,5.2,50,5.2z"/>
		<path d="M23.2,25.4L23.2,25.4l-2.7,2v46.6l2.7,1.8v0l59.8-13.5V32.8L23.2,25.4z M48.9,54.7V44l17.6,0.5v8.2L48.9,54.7z M66.5,54
	     v10.4l-17.6,4V55.9L66.5,54z M24.7,43.3L47.4,44v10.8l-22.7,2.5V43.3z M48.9,42.8V30.1l17.6,2.2v11L48.9,42.8z M67.8,44.6L81.6,45
	     v6.1l-13.8,1.5V44.6z M81.6,43.7l-13.8-0.4V32.4l13.8,1.7V43.7z M47.4,29.9v12.8l-22.7-0.7v-15L47.4,29.9z M24.7,58.5l22.7-2.5v12.7
	     l-22.7,5.1V58.5z M67.8,64.1V53.9l13.8-1.5V61L67.8,64.1z"/>
</svg>
