<?xml version="1.0" encoding="utf-8"?>
<!-- Generator: Adobe Illustrator 21.0.2, SVG Export Plug-In . SVG Version: 6.00 Build 0)  -->
<svg version="1.1" id="Layer_1" xmlns="http://www.w3.org/2000/svg" xmlns:xlink="http://www.w3.org/1999/xlink" x="0px" y="0px"
	 viewBox="0 0 100 100" style="enable-background:new 0 0 100 100;" xml:space="preserve">
<g id="XMLID_822_">
	<path id="XMLID_823_" d="M89.6,25c-3.1-3.7-8.8-5.2-19.8-5.2H30.1c-11.2,0-17,1.6-20.1,5.5c-3,3.8-3,9.5-3,17.3v14.9
		c0,15.1,3.6,22.8,23.1,22.8h39.7c9.5,0,14.8-1.3,18.2-4.6c3.5-3.3,5-8.8,5-18.2V42.7C93,34.3,92.8,28.7,89.6,25z M62.2,52.2
		l-18,9.4c-0.4,0.2-0.8,0.3-1.3,0.3s-1-0.1-1.4-0.4c-0.8-0.5-1.3-1.4-1.3-2.4V40.2c0-1,0.5-1.9,1.3-2.4s1.9-0.5,2.7-0.1l18,9.4
		c0.9,0.5,1.5,1.4,1.5,2.5C63.7,50.7,63.1,51.7,62.2,52.2z"/>
</g>
</svg>
