<?xml version="1.0" encoding="utf-8"?>
<!-- Generator: Adobe Illustrator 21.0.2, SVG Export Plug-In . SVG Version: 6.00 Build 0)  -->
<svg version="1.1" id="Layer_1" xmlns="http://www.w3.org/2000/svg" xmlns:xlink="http://www.w3.org/1999/xlink" x="0px" y="0px"
	 viewBox="0 0 614 145" style="enable-background:new 0 0 614 145;" xml:space="preserve">
<style type="text/css">
	.st0{fill:#FFFFFF;}
</style>
<g>
	<g>
		<g id="XMLID_421_">
			<g>
				<path class="st0" d="M320.5,115.2h4.6v4.5h-4.6V115.2z M320.5,128.8h4.6v4.5h-4.6V128.8z"/>
			</g>
		</g>
		<g id="XMLID_420_">
			<path class="st0" d="M344.3,130.1h-2.4l-0.5,1c-0.7,0.1-1.3,0.1-2.1,0.1c-4.9,0-5.6-1.4-5.6-6.8c0-5.5,0.7-6.7,5.6-6.7
				c0.8,0,1.7,0.1,2.4,0.1l0.5,0.7h2.2v-2.9c0,0-2.7-0.8-6-0.8c-6.1,0-8.4,1.4-8.4,9.2c0,7.9,2.3,9.8,8.4,9.8c4,0,6-1.3,6-1.3
				L344.3,130.1z"/>
		</g>
		<g id="XMLID_418_">
			<path class="st0" d="M250.4,128.5v-10.7h4l1.6-2.9h-5.6v-5.4h-3.5v5.4h-2.5v2.9h2.5v10.9c0,2.9,1.6,4.9,4.6,4.9
				c0.5,0,1.5,0,1.9-0.1l0.9-2.6C250.2,131,250.4,130,250.4,128.5"/>
		</g>
		<g id="XMLID_417_">
			<path class="st0" d="M289.8,125l-3.4-1.3l3.3-1.2l5.5-7.5H291l-5.2,7c-0.4,0.4-0.8,0.7-1.4,0.7h-1V107h-4.2v2.6l0.8,0.6v23.3h3.4
				v-9.1h1c0.6,0,1,0.3,1.4,0.8l5.3,8.3h4.7L289.8,125z"/>
		</g>
		<g id="XMLID_411_">
			<g>
				<path class="st0" d="M273.9,130.5V119c0,0,0.1-3.6-2.2-4.1c-2.7-0.6-7.3-0.2-11.5,0.8v2.6c0,0,4.9-1,8.3-0.8
					c1.7,0.1,1.9,1.3,1.9,1.8v3l-1.7-0.6c0,0-4.4,0.7-5.5,0.9c-1.9,0.5-4.2,1-4.2,4.5v1.9c0,2,0.8,4.4,3.7,4.7
					c0.5,0.1,2.6,0.1,3.8-0.2c1.5-0.6,4.1-1.8,4.1-1.8c0.1,0.8,1.1,2,3.2,2h1v-2.7L273.9,130.5z M270.4,130c-2.4,1-3.6,1-4.8,1
					c-2.7,0-3.3-0.4-3.3-2.4c0-2.4,0.1-2.6,1.5-3.2c0.6-0.3,6.7-2.1,6.7-2.1L270.4,130z"/>
			</g>
		</g>
		<g id="XMLID_405_">
			<g>
				<path class="st0" d="M363.7,130.5V119c0,0,0.1-3.6-2.2-4.1c-2.7-0.6-7.3-0.2-11.5,0.8v2.6c0,0,4.9-1,8.3-0.8
					c1.7,0.1,1.9,1.3,1.9,1.8v3l-1.7-0.6c0,0-4.4,0.7-5.5,0.9c-1.9,0.5-4.2,1-4.2,4.5v1.9c0,2,0.8,4.4,3.7,4.7
					c0.5,0.1,2.6,0.1,3.8-0.2c1.5-0.6,4.1-1.8,4.1-1.8c0.1,0.8,1.1,2,3.2,2h1v-2.7L363.7,130.5z M360.2,130c-2.4,1-3.6,1-4.8,1
					c-2.7,0-3.3-0.4-3.3-2.4c0-2.4,0.1-2.6,1.5-3.2c0.6-0.3,6.7-2.1,6.7-2.1L360.2,130z"/>
			</g>
		</g>
		<g id="XMLID_404_">
			<path class="st0" d="M372.3,115l1.1,1.8c0.4,0.2,2.1-1.7,2.5-1.8c0.6-0.1,2-0.2,3.7,0v2.9c-3.5-0.6-6.1,0.6-6.1,0.6v15.1h-3.7
				v-18.6C369.8,115.1,372.3,115.1,372.3,115z"/>
		</g>
		<g id="XMLID_401_">
			<g>
				<path class="st0" d="M307.7,131.1c3.5,0,5.7-0.6,5.7-0.6l0.5,2.2c0,0-2,1.1-6,1.1c-5.9,0-9.5-1.1-9.5-9.5c0-2.5,0.4-4.8,0.9-6.2
					c1-2.5,3.9-3.3,8.1-3.3c3.2,0,5.5,0.4,6.7,1.9c1,1.3,1.3,2.4,1.3,5.5c0,0.7,0,1.4-0.1,2.4l-11.1,1.3l-2.3-1.6c0,0,0,4.2,1,5.3
					C304.1,130.8,305.4,131.1,307.7,131.1 M307.9,117.7c-5.6,0-5.6,1.1-5.8,6.4l10.2-1.8C312.4,118.5,312.1,117.7,307.9,117.7"/>
			</g>
		</g>
		<g id="XMLID_395_">
			<g>
				<path class="st0" d="M391.4,131.1c3.5,0,5.7-0.6,5.7-0.6l0.5,2.2c0,0-2,1.1-6,1.1c-5.9,0-9.5-1.1-9.5-9.5c0-2.5,0.3-4.8,0.9-6.2
					c1-2.5,3.9-3.3,8.1-3.3c3.2,0,5.5,0.4,6.7,1.9c1,1.3,1.3,2.4,1.3,5.5c0,0.7,0,1.4-0.1,2.4l-11.1,1.3l-2.3-1.6c0,0,0,4.2,1,5.3
					C387.8,130.8,389,131.1,391.4,131.1 M391.6,117.7c-5.6,0-5.6,1.1-5.8,6.4l10.2-1.8C396,118.5,395.7,117.7,391.6,117.7"/>
			</g>
		</g>
		<g id="XMLID_389_">
			<g>
				<path id="XMLID_392_" class="st0" d="M212.3,118.5c2,0,3.4,0.6,4.2,1.7s1.2,3.1,1.2,5.9s-0.5,4.8-1.5,6c-1,1.1-2.8,1.7-5.5,1.7
					c-0.8,0-2.2-0.1-4.1-0.2l-0.8-0.1v-21.1h2.2v7.2C209.5,118.8,210.9,118.5,212.3,118.5z M210.7,131.9c1.9,0,3.2-0.4,3.8-1.3
					c0.6-0.9,0.9-2.4,0.9-4.4c0-2.1-0.2-3.5-0.7-4.4c-0.5-0.8-1.4-1.3-2.6-1.3c-1.1,0-2.3,0.2-3.5,0.6l-0.6,0.2v10.4
					C209.3,131.9,210.2,131.9,210.7,131.9z"/>
				<path id="XMLID_390_" class="st0" d="M219.7,118.8h2.2l3.7,12.8h1l3.7-12.8h2.2l-6.1,21.3h-2.2l1.9-6.5h-2.2L219.7,118.8z"/>
			</g>
		</g>
		<g id="XMLID_386_">
			<g>
				<path class="st0" d="M468.4,90.2c-6.9,0-7.9-6.6-7.9-6.6l-12,6.7c0,0-0.7,0.1-6.3,0.1c-20.6,0-23.4-12.1-23.4-29.5
					c0-16.8,3-30.3,22.1-30.3c5.2,0,7.4,0.7,11.1,1.2l8.1,5.9V6.9H471v73.3l2.4,1.7v8.3L468.4,90.2L468.4,90.2z M460.2,40.9
					c-1.4-0.1-9-0.9-15.3-0.9c-12.3,0-14.8,5.5-14.8,21.3c0,17.3,2.7,20,15.1,20c7.3,0,15-1.4,15-1.4L460.2,40.9L460.2,40.9z"/>
			</g>
		</g>
		<g id="XMLID_385_">
			<polygon class="st0" points="267.2,89.7 267.2,39.5 264.6,36.2 264.6,30.3 278.2,30.3 278.2,89.7 			"/>
		</g>
		<g id="XMLID_382_">
			<g>
				<path class="st0" d="M384.5,81.4c11.1,0,17-2.8,17-2.8l2.8,8.2c0,0-6.2,3.5-18.9,3.5c-18.7,0-29.9-3.5-29.9-30
					c0-7.9,1.1-15.3,2.9-19.7c3.3-7.9,12.5-10.3,25.5-10.3c10.1,0,17.4,1.1,21.2,5.9c3,4,4.3,7.7,4.3,17.5c0,2.3-0.1,4.4-0.2,7.5
					l-34.9,4.3l-7.4-5.1c0,0,0.1,13.4,3.2,16.6C373.1,80.2,376.9,81.4,384.5,81.4 M385.1,38.8c-17.7,0-17.6,3.6-18.3,20.2l32.4-5.6
					C399.2,41.8,398.3,38.8,385.1,38.8"/>
			</g>
		</g>
		<g id="XMLID_379_">
			<g>
				<path class="st0" d="M320.5,81.4c11.1,0,17-2.8,17-2.8l2.8,8.2c0,0-6.2,3.5-18.9,3.5c-18.7,0-29.9-3.5-29.9-30
					c0-7.9,1.1-15.3,2.9-19.7c3.3-7.9,12.5-10.3,25.5-10.3c10.1,0,17.4,1.1,21.2,5.9c3,4,4.3,7.7,4.3,17.5c0,2.3-0.1,4.4-0.2,7.5
					l-34.9,4.3l-7.4-5.1c0,0,0.1,13.4,3.2,16.6C309.2,80.2,313,81.4,320.5,81.4 M321.1,38.8c-17.7,0-17.6,3.6-18.3,20.2l32.4-5.6
					C335.3,41.8,334.3,38.8,321.1,38.8"/>
			</g>
		</g>
		<g id="XMLID_376_">
			<g>
				<path class="st0" d="M249.9,80V43.9c0,0,0.4-11.2-6.9-12.7c-8.6-1.9-22.7-0.6-35.9,2.5v8c0,0,15.4-3.2,25.9-2.4
					c5.3,0.4,5.9,4,5.9,5.7v9.5l-5.4-1.9c0,0-13.9,2.1-17.3,2.9c-6.1,1.6-13.1,3.2-13.1,14v5.8c0,6.3,2.4,13.8,11.6,14.8
					c1.6,0.2,8,0.5,11.7-0.7c4.8-1.9,12.9-5.6,12.9-5.6c0.3,2.6,3.4,6.3,10,6.3h3.2v-8.3L249.9,80z M239,78.3
					c-7.6,3-11.3,3.2-15.1,3.2c-8.5,0-10.3-1.4-10.3-7.7c0-7.6,0.3-8,4.6-10.1c1.9-0.9,20.8-6.5,20.8-6.5V78.3z"/>
			</g>
		</g>
		<g id="XMLID_373_">
			<g>
				<path class="st0" d="M530.7,80V43.9c0,0,0.4-11.2-6.9-12.7c-8.6-1.9-22.7-0.6-35.9,2.5v8c0,0,15.4-3.2,25.9-2.4
					c5.3,0.4,5.9,4,5.9,5.7v9.5l-5.4-1.9c0,0-13.9,2.1-17.3,2.9c-6.1,1.6-13.1,3.2-13.1,14v5.8c0,6.3,2.4,13.8,11.6,14.8
					c1.6,0.2,8,0.5,11.7-0.7c4.7-1.9,12.8-5.6,12.8-5.6c0.3,2.6,3.4,6.3,10,6.3h3.2v-8.3L530.7,80z M519.7,78.3
					c-7.6,3-11.3,3.2-15.1,3.2c-8.5,0-10.3-1.4-10.3-7.7c0-7.6,0.3-8,4.6-10.1c1.9-0.9,20.8-6.5,20.8-6.5V78.3z"/>
			</g>
		</g>
		<g id="XMLID_372_">
			<polygon class="st0" points="163.3,63.6 178.6,55.2 178.6,31.9 130.1,4 130.1,3.8 115,12.2 163.3,40.6 			"/>
		</g>
		<g id="XMLID_371_">
			<polygon class="st0" points="110.1,87.8 110.1,105.2 129.3,116.2 178.6,88.5 178.6,71.3 129.3,98.9 			"/>
		</g>
		<g id="XMLID_370_">
			<polygon class="st0" points="80.8,31.4 80.8,88.2 96,96.9 96.1,40.3 115.8,29.1 100.8,20.2 			"/>
		</g>
		<g id="XMLID_366_">
			<polygon class="st0" points="149.3,71.5 149.3,48.8 129.9,37.4 110.1,48.5 110.1,71.3 129.5,82.7 			"/>
		</g>
	</g>
</g>
</svg>
