<?xml version="1.0" encoding="utf-8"?>
<!-- Generator: Adobe Illustrator 21.0.2, SVG Export Plug-In . SVG Version: 6.00 Build 0)  -->
<svg version="1.1" id="Layer_1" xmlns="http://www.w3.org/2000/svg" xmlns:xlink="http://www.w3.org/1999/xlink" x="0px" y="0px"
	 viewBox="0 0 792 114" style="enable-background:new 0 0 792 114;" xml:space="preserve">
<style type="text/css">
	.st0{fill:#FFFFFF;}
</style>
<g id="XMLID_3856_">
	<path id="XMLID_3880_" class="st0" d="M555.2,74.6h-7.5l-1.5,2.5c-2,0-4.5,0.5-7,0.5c-15.4,0-17.4-3.5-17.4-20.4
		c0-16.9,2.5-20.9,17.4-20.9c2.5,0,5.5,0,7.5,0.5l1.5,2.5h7v-9c0,0-8.5-2.5-18.9-2.5c-18.9,0-26.4,5-26.4,29.9
		c0,24.4,7,30.9,26.4,30.9c12.9,0,18.9-4,18.9-4V74.6z"/>
	<path id="XMLID_3879_" class="st0" d="M611,74.6h-7.5l-1.5,2.5c-2,0-4.5,0.5-7,0.5c-15.4,0-17.4-3.5-17.4-20.4
		c0-16.9,2.5-20.9,17.4-20.9c2.5,0,5.5,0,7.5,0.5l1.5,2.5h7v-9c0,0-8.5-2.5-18.9-2.5c-18.9,0-26.4,5-26.4,29.9
		c0,24.4,7,30.9,26.4,30.9c12.9,0,18.9-4,18.9-4V74.6z"/>
	<path id="XMLID_3878_" class="st0" d="M495.3,77.1V27.3h-10.9v49.8c-2,0.5-9,1-17.4,0.5c-5.5-0.5-7-3.5-7-9V37.8
		c0-10-6.5-10-7.5-10h-6v9l3,1v33.3c0,10.5,5.5,15.9,14.4,15.9h15.9l4.5-8c0,0,1.5,8,8.5,8h5v-7L495.3,77.1z"/>
	<path id="XMLID_3875_" class="st0" d="M51.5,86.6c-7,0-8-6.5-8-6.5l-11.9,6.5c0,0-0.5,0-6.5,0C4.7,86.6,1.7,74.6,1.7,57.2
		c0-16.9,3-30.4,21.9-30.4c5,0,7.5,1,10.9,1.5l8,6V3.5h10.9v73.7l2.5,1.5v8.5h-4.5V86.6z M43.5,37.3c-1.5,0-9-1-15.4-1
		c-12.4,0-14.9,5.5-14.9,21.4c0,17.4,2.5,19.9,14.9,19.9c7.5,0,14.9-1.5,14.9-1.5V37.3H43.5z"/>
	<polygon id="XMLID_3874_" class="st0" points="195.9,86.6 195.9,36.3 193.5,32.8 193.5,27.3 206.9,27.3 206.9,86.6 	"/>
	<path id="XMLID_3873_" class="st0" d="M340.5,77.1V43.8c0-13.9-1-16.9-14.9-16.9c-6.5,0-10.9,0-12.4,0s-9,5.5-9,5.5s-2-5.5-8.5-5.5
		h-5v8.5l2.5,2v49.3h10.9c0,0,0-45.8,0-47.3c0,0,5-3,13.9-3h3c6,0,8.5,0.5,8.5,8v32.8c0,7,2.5,9.5,8,9.5c1.5,0,5,0,5,0v-7.5
		L340.5,77.1z"/>
	<path id="XMLID_3870_" class="st0" d="M359,28.3h14.4v14.4H359V28.3z M359,71.1h14.4v14.4H359V71.1z"/>
	<path id="XMLID_3867_" class="st0" d="M96.8,77.1c10.9,0,16.9-2,16.9-2l3,8c0,0-6,3.5-18.9,3.5C79.4,86.6,68,83.1,68,56.7
		c0-8,1-15.4,3-19.4c3.5-8,12.4-10.5,25.4-10.5c10,0,17.4,1,21.4,6c3,4,4.5,7.5,4.5,17.4c0,2.5,0,4.5,0,7.5l-34.8,4l-7.5-5
		c0,0,0,13.4,3,16.4C85.9,76.6,89.4,77.1,96.8,77.1 M97.8,35.8c-17.4,0-17.4,3.5-18.4,19.9l32.4-5.5
		C111.8,38.8,110.8,35.8,97.8,35.8"/>
	<path id="XMLID_3864_" class="st0" d="M651,77.1c10.9,0,16.9-2,16.9-2l3,8c0,0-6,3.5-18.9,3.5c-18.4,0-29.9-3.5-29.9-29.9
		c0-8,1-15.4,3-19.4c3.5-8,12.4-10.5,25.4-10.5c10,0,17.4,1,20.9,6c3,4,4.5,7.5,4.5,17.4c0,2.5,0,4.5,0,7.5l-34.8,4l-7.5-5
		c0,0,0,13.4,3,16.4C640,76.6,643.5,77.1,651,77.1 M652,35.8c-17.4,0-17.4,3.5-18.4,19.9l32.4-5.5C665.9,38.8,664.9,35.8,652,35.8"
		/>
	<path id="XMLID_3863_" class="st0" d="M157.6,87.6c-13.4,0-21.9-3.5-21.9-3.5l2-8c0,0,9.5,2.5,19.4,2.5c9.5,0,13.4-3.5,13.4-9
		c0-7.5-4.5-6-14.4-7c-11.9-1-21.4-0.5-21.4-16.9c0-14.9,8-18.4,23.4-18.4c10.9,0,18.9,2.5,18.9,2.5l-2,8c0,0-7.5-1.5-16.4-1.5
		c-10,0-13.4,1.5-13.4,8.5c0,7.5,2.5,7.5,14.4,7.5c12.9,0,21.4,0.5,21.4,16.9C180.5,84.1,171,87.6,157.6,87.6"/>
	<path id="XMLID_3862_" class="st0" d="M710.2,87.6c-13.4,0-21.9-3.5-21.9-3.5l2-8c0,0,9.5,2.5,19.4,2.5c9.5,0,13.4-3.5,13.4-9
		c0-7.5-4.5-6-14.4-7c-11.9-1-21.4-0.5-21.4-16.9c0-14.9,8-18.4,23.4-18.4c10.9,0,18.9,2.5,18.9,2.5l-2,8c0,0-7.5-1.5-16.4-1.5
		c-10,0-13.4,1.5-13.4,8.5c0,7.5,2.5,7.5,14.4,7.5c12.9,0,21.4,0.5,21.4,16.9C733,84.1,724.1,87.6,710.2,87.6"/>
	<path id="XMLID_3861_" class="st0" d="M766.9,87.6c-13.4,0-21.9-3.5-21.9-3.5l2-8c0,0,9.5,2.5,19.4,2.5c9.5,0,13.4-3.5,13.4-9
		c0-7.5-4.5-6-14.4-7c-11.9-1-21.4-0.5-21.4-16.9c0-14.9,8-18.4,23.4-18.4c10.9,0,18.9,2.5,18.9,2.5l-2,8c0,0-7.5-1.5-16.4-1.5
		c-10,0-13.4,1.5-13.4,8.5c0,7.5,2.5,7.5,14.4,7.5c12.9,0,21.4,0.5,21.4,16.9C790.3,84.1,780.8,87.6,766.9,87.6"/>
	<path id="XMLID_3860_" class="st0" d="M412.3,87.6c-13.4,0-21.9-3.5-21.9-3.5l2-8c0,0,9.5,2.5,19.4,2.5c9.5,0,13.4-3.5,13.4-9
		c0-7.5-4.5-6-14.4-7c-11.9-1-21.4-0.5-21.4-16.9c0-14.9,8-18.4,23.4-18.4c10.9,0,18.9,2.5,18.9,2.5l-2,8c0,0-7.5-1.5-16.4-1.5
		c-10,0-13.4,1.5-13.4,8.5c0,7.5,2.5,7.5,14.4,7.5c12.9,0,21.4,0.5,21.4,16.9C435.2,84.1,425.7,87.6,412.3,87.6"/>
	<path id="XMLID_3857_" class="st0" d="M278.3,86.1c0-6.5-4-9-15.4-8.5c-4,0-10.5,0-19.4,0c-7.5,0-11.4-2.5-11.4-10c0-2,0-4,0-4l7,6
		c9,0.5,15.9,0,19.9,0c10-0.5,11.9-6,12.9-11.4c0.5-3,1-12.4,0-15.9l-6.5-5.5l10.5-1v-8.5h-27.9c-18.4,0-24.9,4.5-25.9,17.9
		c-0.5,6-0.5,18.9,0,23.4c1.5,12.9,5.5,18.4,23.4,18.4h16.4c3,0,4,0.5,4.5,1.5c0.5,0.5,0.5,2.5,0,3.5s-0.5,1-10,7
		c-1.5,1-13.4,8.5-13.4,8.5l13.4,3.5c0,0,6-4,10.9-8c9-7,10.5-8.5,10.9-13.4C278.3,89.6,278.3,87.6,278.3,86.1 M233.5,44.8
		c0.5-3.5,2-6.5,7.5-7.5s13.4-1,16.4,0c3.5,1,4.5,2.5,5,7c0.5,3.5,0.5,7,0,9.5c-1.5,7-0.5,8.5-29.9,7
		C232.5,51.7,233,47.3,233.5,44.8"/>
</g>
</svg>
