<?xml version="1.0" encoding="utf-8"?>
<!-- Generator: Adobe Illustrator 21.0.2, SVG Export Plug-In . SVG Version: 6.00 Build 0)  -->
<svg version="1.1" id="Layer_1" xmlns="http://www.w3.org/2000/svg" xmlns:xlink="http://www.w3.org/1999/xlink" x="0px" y="0px"
	 viewBox="0 0 723 287.7" style="enable-background:new 0 0 723 287.7;" xml:space="preserve">
<style type="text/css">
	.st0{fill:#FFFFFF;}
	.st1{fill:#0373B4;}
	.st2{enable-background:new    ;}
</style>
<g id="XMLID_91_">
	<g id="XMLID_277_">
		<polygon class="st0" points="263.7,246.3 13.2,246.3 13.2,193.2 707,193.2 707,145.7 13.2,145.7 13.2,92.7 707,92.7 707,45.2 
			241,45.2 241,42.2 710,42.2 710,95.7 16.2,95.7 16.2,142.7 710,142.7 710,196.2 16.2,196.2 16.2,243.3 263.7,243.3 		"/>
	</g>
</g>
<g id="XMLID_63_">
	<rect x="39" y="14" class="st1" width="202" height="59.3"/>
</g>
<g id="XMLID_62_">
	<rect x="260.5" y="14" class="st1" width="202" height="59.3"/>
</g>
<g id="XMLID_61_">
	<rect x="481.9" y="14" class="st1" width="202" height="59.3"/>
</g>
<g id="XMLID_60_">
	<rect x="39" y="114.6" class="st1" width="202" height="59.3"/>
</g>
<g id="XMLID_59_">
	<rect x="260.8" y="114.6" class="st1" width="202" height="59.3"/>
</g>
<g id="XMLID_58_">
	<rect x="482.2" y="114.6" class="st1" width="202" height="59.3"/>
</g>
<g id="XMLID_57_">
	<rect x="39" y="215.1" class="st1" width="202" height="59.3"/>
</g>
<g id="XMLID_56_">
	<rect x="260.5" y="215.1" class="st1" width="202" height="59.3"/>
</g>
<g class="st2">
	<path class="st0" d="M136.7,36.9V24.2h2.1v12.7H136.7z"/>
	<path class="st0" d="M141.4,31.3v-2.7h2.2v2.7H141.4z M141.4,36.9v-2.7h2.2v2.7H141.4z"/>
</g>
<g class="st2">
	<path class="st0" d="M83.4,60.9V49.8h1v11.1H83.4z"/>
	<path class="st0" d="M87.9,60.9H87v-8h0.9v0.6c0.9-0.5,1.8-0.8,2.6-0.8c1.1,0,1.8,0.3,2.1,0.8c0.4,0.6,0.5,1.6,0.5,3.1v4.2h-1v-4.2
		c0-1.2-0.1-2.1-0.4-2.5c-0.2-0.4-0.7-0.6-1.5-0.6c-0.4,0-0.8,0.1-1.2,0.2c-0.4,0.1-0.7,0.2-1,0.3l-0.3,0.2V60.9z"/>
	<path class="st0" d="M97.9,53.7c-1.3,0-1.9,0.5-1.9,1.4c0,0.4,0.1,0.7,0.4,0.9s0.9,0.3,1.9,0.5c1,0.2,1.7,0.4,2.1,0.7
		c0.4,0.3,0.6,0.8,0.6,1.7c0,0.8-0.3,1.4-0.8,1.8c-0.5,0.4-1.3,0.6-2.3,0.6c-0.6,0-1.3-0.1-2.3-0.2l-0.5-0.1l0.1-0.8
		c1.2,0.2,2.1,0.3,2.8,0.3c0.6,0,1.1-0.1,1.5-0.3s0.5-0.6,0.5-1.1s-0.1-0.9-0.4-1.1s-0.9-0.3-1.9-0.5s-1.6-0.4-2-0.6
		C95.2,56.3,95,55.8,95,55c0-0.8,0.3-1.3,0.8-1.7c0.5-0.4,1.2-0.5,2-0.5c0.6,0,1.4,0.1,2.4,0.2l0.4,0.1l0,0.8
		C99.5,53.7,98.6,53.7,97.9,53.7z"/>
	<path class="st0" d="M102.9,50.9v-1.2h0.9v1.2H102.9z M102.9,60.9v-8h0.9v8H102.9z"/>
	<path class="st0" d="M112.7,62.1c0,0.9-0.3,1.6-0.9,2c-0.6,0.4-1.5,0.6-2.7,0.6c-1.2,0-2.1-0.2-2.5-0.5c-0.5-0.4-0.7-1-0.7-1.9
		c0-0.4,0.1-0.8,0.3-1.1c0.2-0.3,0.5-0.6,1-0.9c-0.3-0.2-0.4-0.5-0.4-1.1c0-0.2,0.1-0.5,0.4-1l0.1-0.2c-0.9-0.4-1.3-1.2-1.3-2.4
		c0-1.8,1-2.7,2.9-2.7c0.5,0,1,0.1,1.4,0.2l0.2,0l2.3,0v0.8l-1.6,0c0.4,0.4,0.6,1,0.6,1.9s-0.2,1.5-0.7,1.9
		c-0.5,0.4-1.3,0.6-2.3,0.6c-0.3,0-0.6,0-0.8-0.1c-0.2,0.5-0.3,0.9-0.3,1c0,0.4,0.1,0.6,0.3,0.6s0.8,0.1,1.9,0.1
		c1,0,1.8,0.2,2.2,0.5C112.5,60.6,112.7,61.2,112.7,62.1z M106.9,62.2c0,0.6,0.2,1.1,0.5,1.3c0.3,0.2,0.9,0.4,1.9,0.4
		c0.9,0,1.6-0.1,2-0.4c0.4-0.3,0.6-0.7,0.6-1.3s-0.1-1-0.4-1.2c-0.3-0.2-0.8-0.3-1.6-0.3l-1.8-0.1c-0.4,0.3-0.7,0.5-0.8,0.7
		C106.9,61.6,106.9,61.9,106.9,62.2z M107,55.5c0,0.7,0.1,1.2,0.4,1.5c0.3,0.3,0.8,0.4,1.5,0.4s1.2-0.1,1.5-0.4
		c0.3-0.3,0.4-0.8,0.4-1.5c0-0.7-0.1-1.2-0.4-1.5c-0.3-0.3-0.8-0.4-1.5-0.4s-1.2,0.1-1.5,0.4C107.1,54.3,107,54.8,107,55.5z"/>
	<path class="st0" d="M115.3,60.9h-0.9V49.4h0.9v4c0.9-0.4,1.8-0.6,2.6-0.6c1.1,0,1.8,0.3,2.1,0.8s0.5,1.6,0.5,3.1v4.2h-1v-4.2
		c0-1.2-0.1-2.1-0.3-2.5c-0.2-0.4-0.7-0.6-1.5-0.6c-0.4,0-0.8,0-1.2,0.1c-0.4,0.1-0.7,0.2-1,0.3l-0.3,0.1V60.9z"/>
	<path class="st0" d="M126.9,53.8h-2.7v4c0,1,0.1,1.7,0.2,2s0.5,0.5,1.1,0.5l1.5-0.1l0.1,0.8c-0.7,0.1-1.2,0.2-1.6,0.2
		c-0.8,0-1.4-0.2-1.7-0.6c-0.3-0.4-0.5-1.2-0.5-2.3v-4.4h-1.2v-0.8h1.2v-2.5h1v2.5h2.7V53.8z"/>
	<path class="st0" d="M133.8,50.4c0.5-0.4,1.1-0.6,2-0.6c0.9,0,1.5,0.2,2,0.6c0.4,0.4,0.7,1,0.7,1.8c0,0.7-0.2,1.3-0.6,1.8
		c-0.4,0.4-1,0.8-2,1.2l2.6,2.6c0.1-0.3,0.2-0.7,0.3-1.3c0.1-0.6,0.2-1.1,0.2-1.5l0.9,0c-0.1,1.4-0.4,2.5-0.7,3.3l2.1,2l-0.6,0.7
		l-2-1.9c-0.7,1.3-1.9,1.9-3.5,1.9c-1.4,0-2.4-0.3-3-0.9c-0.6-0.6-0.9-1.4-0.9-2.4c0-1,0.2-1.8,0.6-2.2c0.4-0.5,1-0.8,1.9-1.1
		c-0.4-0.4-0.6-0.8-0.7-1.1c-0.1-0.3-0.2-0.7-0.2-1.2C133.1,51.4,133.3,50.8,133.8,50.4z M135.2,60.2c1.4,0,2.3-0.5,2.8-1.6
		l-3.5-3.5c-0.8,0.2-1.3,0.5-1.7,0.9c-0.3,0.4-0.5,1-0.5,1.7C132.4,59.4,133.3,60.2,135.2,60.2z M134,52.2c0,0.7,0.2,1.3,0.7,1.8
		l0.5,0.5c0.8-0.3,1.4-0.6,1.7-1c0.3-0.3,0.5-0.8,0.5-1.4c0-1.1-0.6-1.6-1.7-1.6S134,51.1,134,52.2z"/>
	<path class="st0" d="M147.6,60.9h-1V49.8h1v5.2l1.9,0l3.1-5.2h1.1l-3.4,5.6l3.6,5.5h-1.2l-3.2-5l-1.9,0V60.9z"/>
	<path class="st0" d="M155.4,50.9v-1.2h0.9v1.2H155.4z M155.4,60.9v-8h0.9v8H155.4z"/>
	<path class="st0" d="M161.7,52.8c0.5,0,1.1,0.1,1.7,0.2l0.4,0l0,0.8c-0.8-0.1-1.5-0.2-1.9-0.2c-0.9,0-1.6,0.2-2,0.7
		c-0.4,0.5-0.5,1.3-0.5,2.6c0,1.2,0.2,2.1,0.5,2.6c0.3,0.5,1,0.7,2,0.7l1.9-0.1l0,0.8c-0.9,0.1-1.7,0.2-2.1,0.2
		c-1.3,0-2.1-0.3-2.6-0.9c-0.5-0.6-0.7-1.7-0.7-3.2s0.3-2.6,0.8-3.2C159.7,53.1,160.5,52.8,161.7,52.8z"/>
	<path class="st0" d="M166.6,60.9h-0.9V49.4h0.9v6.9l1.4,0l2.5-3.3h1.1l-2.7,3.7l2.9,4.3h-1.1l-2.6-3.9l-1.4,0V60.9z"/>
	<path class="st0" d="M172.5,56.9v-0.9h4.9v0.9H172.5z"/>
	<path class="st0" d="M179.4,56.9c0-1.5,0.3-2.6,0.8-3.2c0.5-0.6,1.4-0.9,2.6-0.9s2.1,0.3,2.6,0.9c0.5,0.6,0.8,1.7,0.8,3.2
		s-0.2,2.6-0.7,3.2c-0.5,0.6-1.3,1-2.6,1c-1.3,0-2.2-0.3-2.7-1C179.6,59.5,179.4,58.4,179.4,56.9z M180.3,56.9
		c0,1.3,0.1,2.1,0.4,2.6s0.9,0.7,1.9,0.7c1,0,1.6-0.2,1.9-0.7c0.3-0.5,0.4-1.4,0.4-2.6c0-1.3-0.2-2.1-0.5-2.6s-1-0.7-1.9-0.7
		c-0.9,0-1.5,0.2-1.9,0.7C180.5,54.8,180.3,55.6,180.3,56.9z"/>
	<path class="st0" d="M189.4,53.8v7.2h-1v-7.2h-1v-0.8h1v-0.8c0-1.1,0.2-1.9,0.5-2.3c0.3-0.4,0.9-0.6,1.6-0.6l1.6,0.1v0.8
		c-0.6,0-1.1,0-1.4,0c-0.5,0-0.8,0.1-1,0.4c-0.2,0.3-0.3,0.8-0.3,1.6v0.8h2.4v0.8H189.4z"/>
	<path class="st0" d="M194.6,53.8v7.2h-1v-7.2h-1v-0.8h1v-0.8c0-1.1,0.2-1.9,0.5-2.3c0.3-0.4,0.9-0.6,1.6-0.6l1.6,0.1v0.8
		c-0.6,0-1.1,0-1.4,0c-0.5,0-0.8,0.1-1,0.4c-0.2,0.3-0.3,0.8-0.3,1.6v0.8h2.4v0.8H194.6z"/>
</g>
<g class="st2">
	<path class="st0" d="M355.7,36.9V24.2h2.1v12.7H355.7z"/>
	<path class="st0" d="M360.7,36.9V24.2h2.1v12.7H360.7z"/>
	<path class="st0" d="M365.4,31.3v-2.7h2.2v2.7H365.4z M365.4,36.9v-2.7h2.2v2.7H365.4z"/>
</g>
<g class="st2">
	<path class="st0" d="M305.7,57.1h-3.1v3.9h-1V49.8h4.1c1.2,0,2.1,0.3,2.6,0.9c0.6,0.6,0.8,1.5,0.8,2.7
		C309.1,55.8,308,57.1,305.7,57.1z M302.6,56.2h3.1c1.6,0,2.4-0.9,2.4-2.8c0-0.9-0.2-1.6-0.6-2s-1-0.6-1.9-0.6h-3.1V56.2z"/>
	<path class="st0" d="M310.9,60.9v-8h0.9v1.2c0.4-0.3,0.9-0.5,1.4-0.8c0.6-0.3,1.1-0.4,1.6-0.5v1c-0.5,0.1-0.9,0.2-1.4,0.4
		s-0.9,0.4-1.2,0.5l-0.4,0.2v6H310.9z"/>
	<path class="st0" d="M315.8,56.9c0-1.5,0.3-2.6,0.8-3.2c0.5-0.6,1.4-0.9,2.6-0.9s2.1,0.3,2.6,0.9c0.5,0.6,0.8,1.7,0.8,3.2
		s-0.2,2.6-0.7,3.2c-0.5,0.6-1.3,1-2.6,1c-1.3,0-2.2-0.3-2.7-1C316,59.5,315.8,58.4,315.8,56.9z M316.8,56.9c0,1.3,0.1,2.1,0.4,2.6
		s0.9,0.7,1.9,0.7c1,0,1.6-0.2,1.9-0.7c0.3-0.5,0.4-1.4,0.4-2.6c0-1.3-0.2-2.1-0.5-2.6s-1-0.7-1.9-0.7c-0.9,0-1.5,0.2-1.9,0.7
		C317,54.8,316.8,55.6,316.8,56.9z"/>
	<path class="st0" d="M324.6,60.8v-7.8h1v7.9c0,0.9-0.2,1.7-0.5,2.1c-0.3,0.5-1,1-2.1,1.5l-0.4-0.8c0.9-0.5,1.4-0.9,1.7-1.2
		C324.4,62.1,324.6,61.6,324.6,60.8z M324.6,50.9v-1.2h1v1.2H324.6z"/>
	<path class="st0" d="M333.2,60.1l0.5,0l0,0.8c-1.2,0.1-2.2,0.2-3.1,0.2c-1.2,0-2-0.4-2.4-1c-0.5-0.7-0.7-1.7-0.7-3.1
		c0-2.8,1.1-4.2,3.3-4.2c1.1,0,1.8,0.3,2.4,0.9c0.5,0.6,0.8,1.6,0.8,2.9l0,0.8h-5.4c0,1,0.2,1.7,0.5,2.2s0.9,0.7,1.7,0.7
		S332.4,60.2,333.2,60.1z M328.5,56.5h4.5c0-1.1-0.2-1.8-0.5-2.3c-0.3-0.4-0.9-0.7-1.7-0.7s-1.3,0.2-1.7,0.7S328.5,55.5,328.5,56.5z
		"/>
	<path class="st0" d="M339,52.8c0.5,0,1.1,0.1,1.7,0.2l0.4,0l0,0.8c-0.8-0.1-1.5-0.2-1.9-0.2c-0.9,0-1.6,0.2-2,0.7
		c-0.4,0.5-0.5,1.3-0.5,2.6c0,1.2,0.2,2.1,0.5,2.6c0.3,0.5,1,0.7,2,0.7l1.9-0.1l0,0.8c-0.9,0.1-1.7,0.2-2.1,0.2
		c-1.3,0-2.1-0.3-2.6-0.9c-0.5-0.6-0.7-1.7-0.7-3.2s0.3-2.6,0.8-3.2C336.9,53.1,337.8,52.8,339,52.8z"/>
	<path class="st0" d="M347,53.8h-2.7v4c0,1,0.1,1.7,0.2,2s0.5,0.5,1.1,0.5l1.5-0.1l0.1,0.8c-0.7,0.1-1.2,0.2-1.6,0.2
		c-0.8,0-1.4-0.2-1.7-0.6c-0.3-0.4-0.5-1.2-0.5-2.3v-4.4h-1.2v-0.8h1.2v-2.5h1v2.5h2.7V53.8z"/>
	<path class="st0" d="M352.2,60.9V49.8h1v11.1H352.2z"/>
	<path class="st0" d="M356.7,60.9h-0.9v-8h0.9v0.6c0.8-0.5,1.7-0.8,2.6-0.8s1.6,0.3,2,0.8c0.4-0.2,0.9-0.4,1.4-0.6
		c0.5-0.2,1-0.2,1.5-0.2c1.1,0,1.8,0.3,2.1,0.8c0.4,0.6,0.5,1.6,0.5,3.1v4.2h-0.9v-4.2c0-1.2-0.1-2.1-0.3-2.5
		c-0.2-0.4-0.7-0.6-1.5-0.6c-0.4,0-0.8,0.1-1.2,0.2s-0.7,0.2-0.9,0.3l-0.3,0.2c0.2,0.4,0.2,1.2,0.2,2.5v4.2h-1v-4.1
		c0-1.2-0.1-2.1-0.3-2.5c-0.2-0.4-0.7-0.6-1.5-0.6c-0.4,0-0.8,0.1-1.1,0.2c-0.4,0.1-0.7,0.2-0.9,0.3l-0.3,0.2V60.9z"/>
	<path class="st0" d="M370.1,60.9h-0.9v-8h0.9v0.6c0.8-0.5,1.7-0.8,2.6-0.8c0.9,0,1.6,0.3,2,0.8c0.4-0.2,0.9-0.4,1.4-0.6
		c0.5-0.2,1-0.2,1.5-0.2c1.1,0,1.8,0.3,2.1,0.8c0.4,0.6,0.5,1.6,0.5,3.1v4.2h-0.9v-4.2c0-1.2-0.1-2.1-0.3-2.5
		c-0.2-0.4-0.7-0.6-1.5-0.6c-0.4,0-0.8,0.1-1.2,0.2s-0.7,0.2-0.9,0.3l-0.3,0.2c0.2,0.4,0.2,1.2,0.2,2.5v4.2h-1v-4.1
		c0-1.2-0.1-2.1-0.3-2.5c-0.2-0.4-0.7-0.6-1.5-0.6c-0.4,0-0.8,0.1-1.1,0.2s-0.7,0.2-0.9,0.3l-0.3,0.2V60.9z"/>
	<path class="st0" d="M387.8,60.1l0.5,0l0,0.8c-1.2,0.1-2.2,0.2-3.1,0.2c-1.2,0-2-0.4-2.4-1s-0.7-1.7-0.7-3.1c0-2.8,1.1-4.2,3.3-4.2
		c1.1,0,1.8,0.3,2.4,0.9c0.5,0.6,0.8,1.6,0.8,2.9l0,0.8h-5.4c0,1,0.2,1.7,0.5,2.2s0.9,0.7,1.7,0.7C386.1,60.2,387,60.2,387.8,60.1z
		 M383.1,56.5h4.5c0-1.1-0.2-1.8-0.5-2.3c-0.3-0.4-0.9-0.7-1.7-0.7s-1.3,0.2-1.7,0.7S383.1,55.5,383.1,56.5z"/>
	<path class="st0" d="M390.5,60.9v-8h0.9v1.2c0.4-0.3,0.9-0.5,1.4-0.8c0.6-0.3,1.1-0.4,1.6-0.5v1c-0.5,0.1-0.9,0.2-1.4,0.4
		c-0.5,0.2-0.9,0.4-1.2,0.5l-0.4,0.2v6H390.5z"/>
	<path class="st0" d="M398.4,53.7c-1.3,0-1.9,0.5-1.9,1.4c0,0.4,0.1,0.7,0.4,0.9s0.9,0.3,1.9,0.5c1,0.2,1.7,0.4,2.1,0.7
		c0.4,0.3,0.6,0.8,0.6,1.7c0,0.8-0.3,1.4-0.8,1.8c-0.5,0.4-1.3,0.6-2.3,0.6c-0.6,0-1.3-0.1-2.3-0.2l-0.5-0.1l0.1-0.8
		c1.2,0.2,2.1,0.3,2.8,0.3c0.6,0,1.1-0.1,1.5-0.3s0.5-0.6,0.5-1.1s-0.1-0.9-0.4-1.1c-0.3-0.2-0.9-0.3-1.9-0.5c-1-0.1-1.6-0.4-2-0.6
		c-0.4-0.3-0.6-0.8-0.6-1.6c0-0.8,0.3-1.3,0.8-1.7c0.5-0.4,1.2-0.5,2-0.5c0.6,0,1.4,0.1,2.4,0.2l0.4,0.1l0,0.8
		C400,53.7,399.1,53.7,398.4,53.7z"/>
	<path class="st0" d="M403.4,50.9v-1.2h0.9v1.2H403.4z M403.4,60.9v-8h0.9v8H403.4z"/>
	<path class="st0" d="M406.4,56.9c0-1.5,0.3-2.6,0.8-3.2c0.5-0.6,1.4-0.9,2.6-0.9c1.2,0,2.1,0.3,2.6,0.9c0.5,0.6,0.8,1.7,0.8,3.2
		s-0.2,2.6-0.7,3.2c-0.5,0.6-1.3,1-2.6,1s-2.2-0.3-2.7-1C406.6,59.5,406.4,58.4,406.4,56.9z M407.4,56.9c0,1.3,0.1,2.1,0.4,2.6
		c0.3,0.5,0.9,0.7,1.9,0.7s1.6-0.2,1.9-0.7s0.4-1.4,0.4-2.6c0-1.3-0.2-2.1-0.5-2.6s-1-0.7-1.9-0.7s-1.5,0.2-1.9,0.7
		C407.6,54.8,407.4,55.6,407.4,56.9z"/>
	<path class="st0" d="M416.1,60.9h-0.9v-8h0.9v0.6c0.9-0.5,1.8-0.8,2.6-0.8c1.1,0,1.8,0.3,2.1,0.8c0.4,0.6,0.5,1.6,0.5,3.1v4.2h-1
		v-4.2c0-1.2-0.1-2.1-0.4-2.5c-0.2-0.4-0.7-0.6-1.5-0.6c-0.4,0-0.8,0.1-1.2,0.2c-0.4,0.1-0.7,0.2-1,0.3l-0.3,0.2V60.9z"/>
</g>
<g class="st2">
	<path class="st0" d="M574.7,36.9V24.2h2.1v12.7H574.7z"/>
	<path class="st0" d="M579.7,36.9V24.2h2.1v12.7H579.7z"/>
	<path class="st0" d="M584.7,36.9V24.2h2.1v12.7H584.7z"/>
	<path class="st0" d="M589.3,31.3v-2.7h2.2v2.7H589.3z M589.3,36.9v-2.7h2.2v2.7H589.3z"/>
</g>
<g class="st2">
	<path class="st0" d="M500,60.9V49.8h1.9l3.4,9.7l3.4-9.7h1.9v11.1h-1V50.8h-0.2l-3.5,9.7h-1.2l-3.5-9.7H501v10.1H500z"/>
	<path class="st0" d="M518.7,55.3v4.3c0,0.4,0.4,0.6,1,0.7l0,0.8c-0.8,0-1.4-0.2-1.8-0.6c-1,0.4-2,0.7-3,0.7c-0.7,0-1.3-0.2-1.6-0.6
		c-0.4-0.4-0.6-1-0.6-1.8s0.2-1.3,0.6-1.7c0.4-0.4,1-0.6,1.8-0.7l2.7-0.3v-0.8c0-0.6-0.1-1-0.4-1.3c-0.3-0.3-0.6-0.4-1-0.4
		c-0.7,0-1.6,0.1-2.7,0.2l-0.5,0l0-0.8c1.2-0.2,2.2-0.3,3.1-0.3c0.9,0,1.5,0.2,1.9,0.6S518.7,54.5,518.7,55.3z M513.6,58.7
		c0,1.1,0.4,1.6,1.3,1.6c0.4,0,0.8,0,1.3-0.1c0.5-0.1,0.8-0.2,1.1-0.3l0.4-0.1v-2.9l-2.6,0.3c-0.5,0-0.9,0.2-1.1,0.4
		C513.7,57.8,513.6,58.2,513.6,58.7z"/>
	<path class="st0" d="M521.1,60.9v-8h0.9v1.2c0.4-0.3,0.9-0.5,1.4-0.8c0.6-0.3,1.1-0.4,1.6-0.5v1c-0.5,0.1-0.9,0.2-1.4,0.4
		c-0.5,0.2-0.9,0.4-1.2,0.5l-0.4,0.2v6H521.1z"/>
	<path class="st0" d="M527.5,60.9h-0.9V49.4h0.9v6.9l1.4,0l2.5-3.3h1.1l-2.7,3.7l2.9,4.3h-1.1l-2.6-3.9l-1.4,0V60.9z"/>
	<path class="st0" d="M539.1,60.1l0.5,0l0,0.8c-1.2,0.1-2.2,0.2-3.1,0.2c-1.2,0-2-0.4-2.4-1s-0.7-1.7-0.7-3.1c0-2.8,1.1-4.2,3.3-4.2
		c1.1,0,1.8,0.3,2.4,0.9c0.5,0.6,0.8,1.6,0.8,2.9l0,0.8h-5.4c0,1,0.2,1.7,0.5,2.2s0.9,0.7,1.7,0.7C537.5,60.2,538.3,60.2,539.1,60.1
		z M534.5,56.5h4.5c0-1.1-0.2-1.8-0.5-2.3c-0.3-0.4-0.9-0.7-1.7-0.7s-1.3,0.2-1.7,0.7S534.5,55.5,534.5,56.5z"/>
	<path class="st0" d="M545.9,53.8h-2.7v4c0,1,0.1,1.7,0.2,2s0.5,0.5,1.1,0.5l1.5-0.1l0.1,0.8c-0.7,0.1-1.2,0.2-1.6,0.2
		c-0.8,0-1.4-0.2-1.7-0.6c-0.3-0.4-0.5-1.2-0.5-2.3v-4.4h-1.2v-0.8h1.2v-2.5h1v2.5h2.7V53.8z"/>
	<path class="st0" d="M552.1,56.6v4.4h-1V49.8h4.1c1.2,0,2,0.3,2.6,0.8s0.9,1.4,0.9,2.5c0,1.8-0.7,2.9-2.1,3.2l2.3,4.6h-1.1
		l-2.2-4.4H552.1z M557.6,53.1c0-0.8-0.2-1.4-0.6-1.8c-0.4-0.4-1-0.6-1.8-0.6h-3.1v5h3.1C556.8,55.7,557.6,54.8,557.6,53.1z"/>
	<path class="st0" d="M565.9,60.1l0.5,0l0,0.8c-1.2,0.1-2.2,0.2-3.1,0.2c-1.2,0-2-0.4-2.4-1s-0.7-1.7-0.7-3.1c0-2.8,1.1-4.2,3.3-4.2
		c1.1,0,1.8,0.3,2.4,0.9c0.5,0.6,0.8,1.6,0.8,2.9l0,0.8h-5.4c0,1,0.2,1.7,0.5,2.2s0.9,0.7,1.7,0.7C564.3,60.2,565.1,60.2,565.9,60.1
		z M561.2,56.5h4.5c0-1.1-0.2-1.8-0.5-2.3c-0.3-0.4-0.9-0.7-1.7-0.7s-1.3,0.2-1.7,0.7S561.2,55.5,561.2,56.5z"/>
	<path class="st0" d="M571.1,53.7c-1.3,0-1.9,0.5-1.9,1.4c0,0.4,0.1,0.7,0.4,0.9s0.9,0.3,1.9,0.5c1,0.2,1.7,0.4,2.1,0.7
		c0.4,0.3,0.6,0.8,0.6,1.7c0,0.8-0.3,1.4-0.8,1.8c-0.5,0.4-1.3,0.6-2.3,0.6c-0.6,0-1.3-0.1-2.3-0.2l-0.5-0.1l0.1-0.8
		c1.2,0.2,2.1,0.3,2.8,0.3s1.1-0.1,1.5-0.3s0.5-0.6,0.5-1.1s-0.1-0.9-0.4-1.1c-0.3-0.2-0.9-0.3-1.9-0.5c-1-0.1-1.6-0.4-2-0.6
		s-0.6-0.8-0.6-1.6c0-0.8,0.3-1.3,0.8-1.7c0.5-0.4,1.2-0.5,2-0.5c0.6,0,1.4,0.1,2.4,0.2l0.4,0.1l0,0.8
		C572.7,53.7,571.8,53.7,571.1,53.7z"/>
	<path class="st0" d="M581.4,60.1l0.5,0l0,0.8c-1.2,0.1-2.2,0.2-3.1,0.2c-1.2,0-2-0.4-2.4-1c-0.5-0.7-0.7-1.7-0.7-3.1
		c0-2.8,1.1-4.2,3.3-4.2c1.1,0,1.8,0.3,2.4,0.9s0.8,1.6,0.8,2.9l0,0.8h-5.4c0,1,0.2,1.7,0.5,2.2s0.9,0.7,1.7,0.7
		C579.8,60.2,580.6,60.2,581.4,60.1z M576.7,56.5h4.5c0-1.1-0.2-1.8-0.5-2.3c-0.3-0.4-0.9-0.7-1.7-0.7s-1.3,0.2-1.7,0.7
		S576.7,55.5,576.7,56.5z"/>
	<path class="st0" d="M589.7,55.3v4.3c0,0.4,0.4,0.6,1,0.7l0,0.8c-0.8,0-1.4-0.2-1.8-0.6c-1,0.4-2,0.7-3,0.7c-0.7,0-1.3-0.2-1.6-0.6
		c-0.4-0.4-0.6-1-0.6-1.8s0.2-1.3,0.6-1.7c0.4-0.4,1-0.6,1.8-0.7l2.7-0.3v-0.8c0-0.6-0.1-1-0.4-1.3c-0.3-0.3-0.6-0.4-1-0.4
		c-0.7,0-1.6,0.1-2.7,0.2l-0.5,0l0-0.8c1.2-0.2,2.2-0.3,3.1-0.3s1.5,0.2,1.9,0.6S589.7,54.5,589.7,55.3z M584.7,58.7
		c0,1.1,0.4,1.6,1.3,1.6c0.4,0,0.8,0,1.3-0.1c0.5-0.1,0.8-0.2,1.1-0.3l0.4-0.1v-2.9l-2.6,0.3c-0.5,0-0.9,0.2-1.1,0.4
		C584.8,57.8,584.7,58.2,584.7,58.7z"/>
	<path class="st0" d="M592.2,60.9v-8h0.9v1.2c0.4-0.3,0.9-0.5,1.4-0.8c0.6-0.3,1.1-0.4,1.6-0.5v1c-0.5,0.1-0.9,0.2-1.4,0.4
		c-0.5,0.2-0.9,0.4-1.2,0.5l-0.4,0.2v6H592.2z"/>
	<path class="st0" d="M600.3,52.8c0.5,0,1.1,0.1,1.7,0.2l0.4,0l0,0.8c-0.8-0.1-1.5-0.2-1.9-0.2c-0.9,0-1.6,0.2-2,0.7
		c-0.4,0.5-0.5,1.3-0.5,2.6c0,1.2,0.2,2.1,0.5,2.6c0.3,0.5,1,0.7,2,0.7l1.9-0.1l0,0.8c-1,0.1-1.7,0.2-2.1,0.2
		c-1.3,0-2.1-0.3-2.6-0.9c-0.5-0.6-0.7-1.7-0.7-3.2s0.3-2.6,0.8-3.2S599.2,52.8,600.3,52.8z"/>
</g>
<g class="st2">
	<path class="st0" d="M605.9,60.9H605V49.4h0.9v4c0.9-0.4,1.8-0.6,2.6-0.6c1.1,0,1.8,0.3,2.1,0.8s0.5,1.6,0.5,3.1v4.2h-1v-4.2
		c0-1.2-0.1-2.1-0.3-2.5c-0.2-0.4-0.7-0.6-1.5-0.6c-0.4,0-0.8,0-1.2,0.1s-0.7,0.2-1,0.3l-0.3,0.1V60.9z"/>
	<path class="st0" d="M613.8,60.8l4.5-11.1l0.9,0.3l-4.5,11.1L613.8,60.8z"/>
</g>
<g class="st2">
	<path class="st0" d="M623.3,60.9V49.8h1v11.1H623.3z"/>
	<path class="st0" d="M627.8,60.9h-0.9v-8h0.9v0.6c0.9-0.5,1.8-0.8,2.6-0.8c1.1,0,1.8,0.3,2.1,0.8s0.5,1.6,0.5,3.1v4.2h-1v-4.2
		c0-1.2-0.1-2.1-0.4-2.5c-0.2-0.4-0.7-0.6-1.5-0.6c-0.4,0-0.8,0.1-1.2,0.2s-0.7,0.2-1,0.3l-0.3,0.2V60.9z"/>
	<path class="st0" d="M637.8,53.7c-1.3,0-1.9,0.5-1.9,1.4c0,0.4,0.1,0.7,0.4,0.9s0.9,0.3,1.9,0.5c1,0.2,1.7,0.4,2.1,0.7
		c0.4,0.3,0.6,0.8,0.6,1.7c0,0.8-0.3,1.4-0.8,1.8c-0.5,0.4-1.3,0.6-2.3,0.6c-0.6,0-1.3-0.1-2.3-0.2l-0.5-0.1l0.1-0.8
		c1.2,0.2,2.1,0.3,2.8,0.3c0.6,0,1.1-0.1,1.5-0.3s0.5-0.6,0.5-1.1s-0.1-0.9-0.4-1.1c-0.3-0.2-0.9-0.3-1.9-0.5c-1-0.1-1.6-0.4-2-0.6
		c-0.4-0.3-0.6-0.8-0.6-1.6c0-0.8,0.3-1.3,0.8-1.7c0.5-0.4,1.2-0.5,2-0.5c0.6,0,1.4,0.1,2.4,0.2l0.4,0.1l0,0.8
		C639.4,53.7,638.5,53.7,637.8,53.7z"/>
	<path class="st0" d="M642.8,50.9v-1.2h0.9v1.2H642.8z M642.8,60.9v-8h0.9v8H642.8z"/>
	<path class="st0" d="M652.6,62.1c0,0.9-0.3,1.6-0.9,2c-0.6,0.4-1.5,0.6-2.7,0.6c-1.2,0-2.1-0.2-2.5-0.5c-0.5-0.4-0.7-1-0.7-1.9
		c0-0.4,0.1-0.8,0.3-1.1c0.2-0.3,0.5-0.6,1-0.9c-0.3-0.2-0.4-0.5-0.4-1.1c0-0.2,0.1-0.5,0.4-1l0.1-0.2c-0.9-0.4-1.3-1.2-1.3-2.4
		c0-1.8,1-2.7,2.9-2.7c0.5,0,1,0.1,1.4,0.2l0.2,0l2.3,0v0.8l-1.6,0c0.4,0.4,0.6,1,0.6,1.9s-0.2,1.5-0.7,1.9
		c-0.5,0.4-1.2,0.6-2.3,0.6c-0.3,0-0.6,0-0.8-0.1c-0.2,0.5-0.3,0.9-0.3,1c0,0.4,0.1,0.6,0.3,0.6s0.8,0.1,1.9,0.1
		c1,0,1.8,0.2,2.2,0.5C652.4,60.6,652.6,61.2,652.6,62.1z M646.8,62.2c0,0.6,0.2,1.1,0.5,1.3s0.9,0.4,1.9,0.4c0.9,0,1.6-0.1,2-0.4
		c0.4-0.3,0.6-0.7,0.6-1.3s-0.1-1-0.4-1.2c-0.3-0.2-0.8-0.3-1.6-0.3l-1.8-0.1c-0.4,0.3-0.7,0.5-0.8,0.7
		C646.8,61.6,646.8,61.9,646.8,62.2z M646.9,55.5c0,0.7,0.1,1.2,0.4,1.5c0.3,0.3,0.8,0.4,1.5,0.4c0.7,0,1.2-0.1,1.5-0.4
		c0.3-0.3,0.4-0.8,0.4-1.5c0-0.7-0.1-1.2-0.4-1.5c-0.3-0.3-0.8-0.4-1.5-0.4c-0.7,0-1.2,0.1-1.5,0.4S646.9,54.8,646.9,55.5z"/>
	<path class="st0" d="M655.2,60.9h-0.9V49.4h0.9v4c0.9-0.4,1.8-0.6,2.6-0.6c1.1,0,1.8,0.3,2.1,0.8s0.5,1.6,0.5,3.1v4.2h-1v-4.2
		c0-1.2-0.1-2.1-0.3-2.5c-0.2-0.4-0.7-0.6-1.5-0.6c-0.4,0-0.8,0-1.2,0.1s-0.7,0.2-1,0.3l-0.3,0.1V60.9z"/>
	<path class="st0" d="M666.8,53.8h-2.7v4c0,1,0.1,1.7,0.2,2s0.5,0.5,1.1,0.5l1.5-0.1l0.1,0.8c-0.7,0.1-1.2,0.2-1.6,0.2
		c-0.8,0-1.4-0.2-1.7-0.6c-0.3-0.4-0.5-1.2-0.5-2.3v-4.4H662v-0.8h1.2v-2.5h1v2.5h2.7V53.8z"/>
</g>
<g class="st2">
	<path class="st0" d="M131.2,137.5v-12.7h2.1v12.7H131.2z"/>
	<path class="st0" d="M143.3,124.7h2.2l-3.1,12.7h-4.1l-3.1-12.7h2.2l2.5,10.9h0.9L143.3,124.7z"/>
	<path class="st0" d="M146.7,131.8v-2.7h2.2v2.7H146.7z M146.7,137.5v-2.7h2.2v2.7H146.7z"/>
</g>
<g class="st2">
	<path class="st0" d="M63.3,161.5v-11.1h1v11.1H63.3z"/>
	<path class="st0" d="M67.8,161.5h-0.9v-8h0.9v0.6c0.9-0.5,1.8-0.8,2.6-0.8c1.1,0,1.8,0.3,2.1,0.8c0.4,0.6,0.5,1.6,0.5,3.1v4.2h-1
		v-4.2c0-1.2-0.1-2.1-0.4-2.5c-0.2-0.4-0.7-0.6-1.5-0.6c-0.4,0-0.8,0.1-1.2,0.2c-0.4,0.1-0.7,0.2-1,0.3l-0.3,0.2V161.5z"/>
	<path class="st0" d="M75.3,157.5v-0.9h4.9v0.9H75.3z"/>
	<path class="st0" d="M88.5,149.9v11.6h-1v-0.6c-0.8,0.5-1.7,0.8-2.6,0.8c-0.4,0-0.7,0-1-0.1c-0.3-0.1-0.6-0.3-0.9-0.5
		c-0.6-0.5-0.9-1.6-0.9-3.2s0.3-2.7,0.8-3.4c0.5-0.7,1.4-1,2.6-1c0.5,0,1.1,0.1,2,0.2v-3.6H88.5z M84.4,160.6
		c0.2,0.1,0.5,0.1,0.8,0.1c0.3,0,0.7-0.1,1.1-0.2s0.7-0.2,1-0.3l0.3-0.2v-5.7c-0.9-0.1-1.5-0.2-2-0.2c-0.9,0-1.5,0.3-1.9,0.8
		c-0.3,0.6-0.5,1.4-0.5,2.6c0,1.4,0.2,2.3,0.6,2.7C84,160.4,84.2,160.6,84.4,160.6z"/>
	<path class="st0" d="M96.2,160.7l0.5,0l0,0.8c-1.2,0.1-2.2,0.2-3.1,0.2c-1.2,0-2-0.4-2.4-1c-0.5-0.7-0.7-1.7-0.7-3.1
		c0-2.8,1.1-4.2,3.3-4.2c1.1,0,1.8,0.3,2.4,0.9c0.5,0.6,0.8,1.6,0.8,2.9l0,0.8h-5.4c0,1,0.2,1.7,0.5,2.2s0.9,0.7,1.7,0.7
		S95.3,160.7,96.2,160.7z M91.5,157.1H96c0-1.1-0.2-1.8-0.5-2.3c-0.3-0.4-0.9-0.7-1.7-0.7s-1.3,0.2-1.7,0.7S91.5,156,91.5,157.1z"/>
	<path class="st0" d="M98.9,165.1v-11.6h0.9v0.6c0.8-0.5,1.7-0.8,2.6-0.8s1.6,0.3,2.1,1c0.5,0.7,0.7,1.7,0.7,3.2s-0.3,2.5-0.8,3.2
		c-0.5,0.7-1.4,1-2.7,1c-0.7,0-1.3-0.1-1.9-0.2v3.6H98.9z M102.3,154.2c-0.4,0-0.7,0.1-1.1,0.2s-0.7,0.2-0.9,0.4l-0.4,0.2v5.7
		c0.7,0.1,1.4,0.2,1.9,0.2c0.9,0,1.6-0.3,1.9-0.8c0.4-0.5,0.6-1.4,0.6-2.6c0-1.2-0.2-2-0.5-2.5C103.4,154.4,102.9,154.2,102.3,154.2
		z"/>
	<path class="st0" d="M111.3,154.3h-2.7v4c0,1,0.1,1.7,0.2,2s0.5,0.5,1.1,0.5l1.5-0.1l0.1,0.8c-0.7,0.1-1.2,0.2-1.6,0.2
		c-0.8,0-1.4-0.2-1.7-0.6c-0.3-0.4-0.5-1.2-0.5-2.3v-4.4h-1.2v-0.8h1.2V151h1v2.5h2.7V154.3z"/>
	<path class="st0" d="M113.7,161.5h-0.9v-11.6h0.9v4c0.9-0.4,1.8-0.6,2.6-0.6c1.1,0,1.8,0.3,2.1,0.8s0.5,1.6,0.5,3.1v4.2h-1v-4.2
		c0-1.2-0.1-2.1-0.3-2.5c-0.2-0.4-0.7-0.6-1.5-0.6c-0.4,0-0.8,0-1.2,0.1c-0.4,0.1-0.7,0.2-1,0.3l-0.3,0.1V161.5z"/>
	<path class="st0" d="M125,161.5v-11.1h1v11.1H125z"/>
	<path class="st0" d="M129.5,161.5h-0.9v-8h0.9v0.6c0.9-0.5,1.8-0.8,2.6-0.8c1.1,0,1.8,0.3,2.1,0.8c0.4,0.6,0.5,1.6,0.5,3.1v4.2h-1
		v-4.2c0-1.2-0.1-2.1-0.4-2.5c-0.2-0.4-0.7-0.6-1.5-0.6c-0.4,0-0.8,0.1-1.2,0.2c-0.4,0.1-0.7,0.2-1,0.3l-0.3,0.2V161.5z"/>
	<path class="st0" d="M139.5,154.2c-1.3,0-1.9,0.5-1.9,1.4c0,0.4,0.1,0.7,0.4,0.9s0.9,0.3,1.9,0.5c1,0.2,1.7,0.4,2.1,0.7
		c0.4,0.3,0.6,0.8,0.6,1.7c0,0.8-0.3,1.4-0.8,1.8c-0.5,0.4-1.3,0.6-2.3,0.6c-0.6,0-1.3-0.1-2.3-0.2l-0.5-0.1l0.1-0.8
		c1.2,0.2,2.1,0.3,2.8,0.3c0.6,0,1.1-0.1,1.5-0.3s0.5-0.6,0.5-1.1s-0.1-0.9-0.4-1.1s-0.9-0.3-1.9-0.5s-1.6-0.4-2-0.6
		c-0.4-0.3-0.6-0.8-0.6-1.6c0-0.8,0.3-1.3,0.8-1.7c0.5-0.4,1.2-0.5,2-0.5c0.6,0,1.4,0.1,2.4,0.2l0.4,0.1l0,0.8
		C141.2,154.3,140.2,154.2,139.5,154.2z"/>
	<path class="st0" d="M144.5,151.5v-1.2h0.9v1.2H144.5z M144.5,161.5v-8h0.9v8H144.5z"/>
	<path class="st0" d="M154.4,162.7c0,0.9-0.3,1.6-0.9,2c-0.6,0.4-1.5,0.6-2.7,0.6c-1.2,0-2.1-0.2-2.5-0.5c-0.5-0.4-0.7-1-0.7-1.9
		c0-0.4,0.1-0.8,0.3-1.1c0.2-0.3,0.5-0.6,1-0.9c-0.3-0.2-0.4-0.5-0.4-1.1c0-0.2,0.1-0.5,0.4-1l0.1-0.2c-0.9-0.4-1.3-1.2-1.3-2.4
		c0-1.8,1-2.7,2.9-2.7c0.5,0,1,0.1,1.4,0.2l0.2,0l2.3,0v0.8l-1.6,0c0.4,0.4,0.6,1,0.6,1.9s-0.2,1.5-0.7,1.9
		c-0.5,0.4-1.3,0.6-2.3,0.6c-0.3,0-0.6,0-0.8-0.1c-0.2,0.5-0.3,0.9-0.3,1c0,0.4,0.1,0.6,0.3,0.6s0.8,0.1,1.9,0.1
		c1,0,1.8,0.2,2.2,0.5C154.2,161.2,154.4,161.8,154.4,162.7z M148.5,162.7c0,0.6,0.2,1.1,0.5,1.3c0.3,0.2,0.9,0.4,1.9,0.4
		c0.9,0,1.6-0.1,2-0.4c0.4-0.3,0.6-0.7,0.6-1.3s-0.1-1-0.4-1.2c-0.3-0.2-0.8-0.3-1.6-0.3l-1.8-0.1c-0.4,0.3-0.7,0.5-0.8,0.7
		C148.6,162.1,148.5,162.4,148.5,162.7z M148.6,156c0,0.7,0.1,1.2,0.4,1.5c0.3,0.3,0.8,0.4,1.5,0.4s1.2-0.1,1.5-0.4
		c0.3-0.3,0.4-0.8,0.4-1.5c0-0.7-0.1-1.2-0.4-1.5c-0.3-0.3-0.8-0.4-1.5-0.4s-1.2,0.1-1.5,0.4C148.8,154.8,148.6,155.3,148.6,156z"/>
	<path class="st0" d="M157,161.5H156v-11.6h0.9v4c0.9-0.4,1.8-0.6,2.6-0.6c1.1,0,1.8,0.3,2.1,0.8s0.5,1.6,0.5,3.1v4.2h-1v-4.2
		c0-1.2-0.1-2.1-0.3-2.5c-0.2-0.4-0.7-0.6-1.5-0.6c-0.4,0-0.8,0-1.2,0.1c-0.4,0.1-0.7,0.2-1,0.3l-0.3,0.1V161.5z"/>
	<path class="st0" d="M168.5,154.3h-2.7v4c0,1,0.1,1.7,0.2,2s0.5,0.5,1.1,0.5l1.5-0.1l0.1,0.8c-0.7,0.1-1.2,0.2-1.6,0.2
		c-0.8,0-1.4-0.2-1.7-0.6c-0.3-0.4-0.5-1.2-0.5-2.3v-4.4h-1.2v-0.8h1.2V151h1v2.5h2.7V154.3z"/>
	<path class="st0" d="M174.8,157.1v4.4h-1v-11.1h4.1c1.2,0,2,0.3,2.6,0.8c0.6,0.5,0.9,1.4,0.9,2.5c0,1.8-0.7,2.9-2.1,3.2l2.3,4.6
		h-1.1l-2.2-4.4H174.8z M180.3,153.7c0-0.8-0.2-1.4-0.6-1.8c-0.4-0.4-1-0.6-1.8-0.6h-3.1v5h3.1C179.5,156.2,180.3,155.4,180.3,153.7
		z"/>
	<path class="st0" d="M188.6,160.7l0.5,0l0,0.8c-1.2,0.1-2.2,0.2-3.1,0.2c-1.2,0-2-0.4-2.4-1c-0.5-0.7-0.7-1.7-0.7-3.1
		c0-2.8,1.1-4.2,3.3-4.2c1.1,0,1.8,0.3,2.4,0.9c0.5,0.6,0.8,1.6,0.8,2.9l0,0.8h-5.4c0,1,0.2,1.7,0.5,2.2s0.9,0.7,1.7,0.7
		S187.8,160.7,188.6,160.7z M183.9,157.1h4.5c0-1.1-0.2-1.8-0.5-2.3c-0.3-0.4-0.9-0.7-1.7-0.7s-1.3,0.2-1.7,0.7
		S183.9,156,183.9,157.1z"/>
	<path class="st0" d="M191.3,165.1v-11.6h0.9v0.6c0.8-0.5,1.7-0.8,2.6-0.8s1.6,0.3,2.1,1c0.5,0.7,0.7,1.7,0.7,3.2s-0.3,2.5-0.8,3.2
		c-0.5,0.7-1.4,1-2.7,1c-0.7,0-1.3-0.1-1.9-0.2v3.6H191.3z M194.7,154.2c-0.4,0-0.7,0.1-1.1,0.2s-0.7,0.2-0.9,0.4l-0.4,0.2v5.7
		c0.7,0.1,1.4,0.2,1.9,0.2c0.9,0,1.6-0.3,1.9-0.8c0.4-0.5,0.6-1.4,0.6-2.6c0-1.2-0.2-2-0.5-2.5C195.8,154.4,195.4,154.2,194.7,154.2
		z"/>
	<path class="st0" d="M199.4,157.5c0-1.5,0.3-2.6,0.8-3.2c0.5-0.6,1.4-0.9,2.6-0.9s2.1,0.3,2.6,0.9c0.5,0.6,0.8,1.7,0.8,3.2
		s-0.2,2.6-0.7,3.2c-0.5,0.6-1.3,1-2.6,1c-1.3,0-2.2-0.3-2.7-1C199.6,160,199.4,159,199.4,157.5z M200.4,157.4
		c0,1.3,0.1,2.1,0.4,2.6s0.9,0.7,1.9,0.7c1,0,1.6-0.2,1.9-0.7c0.3-0.5,0.4-1.4,0.4-2.6c0-1.3-0.2-2.1-0.5-2.6s-1-0.7-1.9-0.7
		c-0.9,0-1.5,0.2-1.9,0.7C200.5,155.3,200.4,156.2,200.4,157.4z"/>
	<path class="st0" d="M208.1,161.5v-8h0.9v1.2c0.4-0.3,0.9-0.5,1.4-0.8c0.6-0.3,1.1-0.4,1.6-0.5v1c-0.5,0.1-0.9,0.2-1.4,0.4
		s-0.9,0.4-1.2,0.5l-0.4,0.2v6H208.1z"/>
	<path class="st0" d="M217.6,154.3h-2.7v4c0,1,0.1,1.7,0.2,2s0.5,0.5,1.1,0.5l1.5-0.1l0.1,0.8c-0.7,0.1-1.2,0.2-1.6,0.2
		c-0.8,0-1.4-0.2-1.7-0.6c-0.3-0.4-0.5-1.2-0.5-2.3v-4.4h-1.2v-0.8h1.2V151h1v2.5h2.7V154.3z"/>
</g>
<g class="st2">
	<path class="st0" d="M362.5,124.9h2.2l-3.1,12.7h-4.1l-3.1-12.7h2.2l2.5,10.9h0.9L362.5,124.9z"/>
	<path class="st0" d="M366,132v-2.7h2.2v2.7H366z M366,137.6v-2.7h2.2v2.7H366z"/>
</g>
<g class="st2">
	<path class="st0" d="M286.4,151.2c-1.7,0-2.6,0.7-2.6,2c0,0.8,0.2,1.3,0.6,1.6c0.4,0.3,1.2,0.5,2.3,0.7c1.1,0.2,1.9,0.5,2.4,0.9
		c0.5,0.4,0.7,1.1,0.7,2c0,1.2-0.3,2.1-0.9,2.6c-0.6,0.5-1.5,0.8-2.6,0.8c-0.8,0-1.8-0.1-2.9-0.2l-0.6-0.1l0.1-0.8
		c1.5,0.2,2.6,0.3,3.4,0.3c0.8,0,1.4-0.2,1.8-0.6s0.6-1,0.6-1.7s-0.2-1.3-0.6-1.5c-0.4-0.3-1-0.5-1.8-0.6c-0.8-0.1-1.4-0.3-1.8-0.4
		c-0.4-0.1-0.7-0.3-1-0.5c-0.3-0.2-0.6-0.5-0.7-0.9s-0.2-0.8-0.2-1.4c0-1.9,1.2-2.9,3.5-2.9c0.7,0,1.6,0.1,2.8,0.2l0.5,0.1l-0.1,0.8
		C288.1,151.3,287.1,151.2,286.4,151.2z"/>
	<path class="st0" d="M295.8,154.4h-2.7v4c0,1,0.1,1.7,0.2,2s0.5,0.5,1.1,0.5l1.5-0.1l0.1,0.8c-0.7,0.1-1.2,0.2-1.6,0.2
		c-0.8,0-1.4-0.2-1.7-0.6c-0.3-0.4-0.5-1.2-0.5-2.3v-4.4H291v-0.8h1.2v-2.5h1v2.5h2.7V154.4z"/>
	<path class="st0" d="M297.3,161.6v-8h0.9v1.2c0.4-0.3,0.9-0.5,1.4-0.8c0.6-0.3,1.1-0.4,1.6-0.5v1c-0.5,0.1-0.9,0.2-1.4,0.4
		s-0.9,0.4-1.2,0.5l-0.4,0.2v6H297.3z"/>
	<path class="st0" d="M308.2,156v4.3c0,0.4,0.4,0.6,1,0.7l0,0.8c-0.8,0-1.4-0.2-1.8-0.6c-1,0.4-2,0.7-3,0.7c-0.7,0-1.3-0.2-1.6-0.6
		c-0.4-0.4-0.6-1-0.6-1.8s0.2-1.3,0.6-1.7s1-0.6,1.8-0.7l2.7-0.3V156c0-0.6-0.1-1-0.4-1.3c-0.3-0.3-0.6-0.4-1-0.4
		c-0.7,0-1.6,0.1-2.7,0.2l-0.5,0l0-0.8c1.2-0.2,2.2-0.3,3.1-0.3c0.9,0,1.5,0.2,1.9,0.6S308.2,155.1,308.2,156z M303.2,159.3
		c0,1.1,0.4,1.6,1.3,1.6c0.4,0,0.8,0,1.3-0.1s0.8-0.2,1.1-0.3l0.4-0.1v-2.9l-2.6,0.3c-0.5,0-0.9,0.2-1.1,0.4
		C303.3,158.5,303.2,158.8,303.2,159.3z"/>
	<path class="st0" d="M314.7,154.4h-2.7v4c0,1,0.1,1.7,0.2,2s0.5,0.5,1.1,0.5l1.5-0.1l0.1,0.8c-0.7,0.1-1.2,0.2-1.6,0.2
		c-0.8,0-1.4-0.2-1.7-0.6c-0.3-0.4-0.5-1.2-0.5-2.3v-4.4h-1.2v-0.8h1.2v-2.5h1v2.5h2.7V154.4z"/>
	<path class="st0" d="M321.5,160.8l0.5,0l0,0.8c-1.2,0.1-2.2,0.2-3.1,0.2c-1.2,0-2-0.4-2.4-1c-0.5-0.7-0.7-1.7-0.7-3.1
		c0-2.8,1.1-4.2,3.3-4.2c1.1,0,1.8,0.3,2.4,0.9c0.5,0.6,0.8,1.6,0.8,2.9l0,0.8h-5.4c0,1,0.2,1.7,0.5,2.2s0.9,0.7,1.7,0.7
		S320.7,160.9,321.5,160.8z M316.9,157.2h4.5c0-1.1-0.2-1.8-0.5-2.3c-0.3-0.4-0.9-0.7-1.7-0.7s-1.3,0.2-1.7,0.7
		S316.9,156.2,316.9,157.2z"/>
	<path class="st0" d="M330.8,162.8c0,0.9-0.3,1.6-0.9,2c-0.6,0.4-1.5,0.6-2.7,0.6c-1.2,0-2.1-0.2-2.5-0.5c-0.5-0.4-0.7-1-0.7-1.9
		c0-0.4,0.1-0.8,0.3-1.1c0.2-0.3,0.5-0.6,1-0.9c-0.3-0.2-0.4-0.5-0.4-1.1c0-0.2,0.1-0.5,0.4-1l0.1-0.2c-0.9-0.4-1.3-1.2-1.3-2.4
		c0-1.8,1-2.7,2.9-2.7c0.5,0,1,0.1,1.4,0.2l0.2,0l2.3,0v0.8l-1.6,0c0.4,0.4,0.6,1,0.6,1.9s-0.2,1.5-0.7,1.9
		c-0.5,0.4-1.3,0.6-2.3,0.6c-0.3,0-0.6,0-0.8-0.1c-0.2,0.5-0.3,0.9-0.3,1c0,0.4,0.1,0.6,0.3,0.6s0.8,0.1,1.9,0.1
		c1,0,1.8,0.2,2.2,0.5C330.6,161.3,330.8,161.9,330.8,162.8z M324.9,162.9c0,0.6,0.2,1.1,0.5,1.3c0.3,0.2,0.9,0.4,1.9,0.4
		c0.9,0,1.6-0.1,2-0.4c0.4-0.3,0.6-0.7,0.6-1.3s-0.1-1-0.4-1.2c-0.3-0.2-0.8-0.3-1.6-0.3l-1.8-0.1c-0.4,0.3-0.7,0.5-0.8,0.7
		C325,162.3,324.9,162.5,324.9,162.9z M325,156.2c0,0.7,0.1,1.2,0.4,1.5c0.3,0.3,0.8,0.4,1.5,0.4s1.2-0.1,1.5-0.4
		c0.3-0.3,0.4-0.8,0.4-1.5c0-0.7-0.1-1.2-0.4-1.5c-0.3-0.3-0.8-0.4-1.5-0.4s-1.2,0.1-1.5,0.4C325.2,155,325,155.5,325,156.2z"/>
	<path class="st0" d="M332.4,151.6v-1.2h0.9v1.2H332.4z M332.4,161.6v-8h0.9v8H332.4z"/>
	<path class="st0" d="M338.8,153.4c0.5,0,1.1,0.1,1.7,0.2l0.4,0l0,0.8c-0.8-0.1-1.5-0.2-1.9-0.2c-0.9,0-1.6,0.2-2,0.7
		c-0.4,0.5-0.5,1.3-0.5,2.6c0,1.2,0.2,2.1,0.5,2.6c0.3,0.5,1,0.7,2,0.7l1.9-0.1l0,0.8c-0.9,0.1-1.7,0.2-2.1,0.2
		c-1.3,0-2.1-0.3-2.6-0.9c-0.5-0.6-0.7-1.7-0.7-3.2s0.3-2.6,0.8-3.2C336.7,153.7,337.6,153.4,338.8,153.4z"/>
	<path class="st0" d="M345.4,161.6l3.2-11.1h2.3l3.2,11.1h-1l-0.9-3.1h-5l-0.9,3.1H345.4z M349.4,151.3l-1.8,6.3h4.5l-1.8-6.3H349.4
		z"/>
	<path class="st0" d="M355.7,165.2v-11.6h0.9v0.6c0.8-0.5,1.7-0.8,2.6-0.8s1.6,0.3,2.1,1c0.5,0.7,0.7,1.7,0.7,3.2s-0.3,2.5-0.8,3.2
		c-0.5,0.7-1.4,1-2.7,1c-0.7,0-1.3-0.1-1.9-0.2v3.6H355.7z M359.1,154.3c-0.4,0-0.7,0.1-1.1,0.2s-0.7,0.2-0.9,0.4l-0.4,0.2v5.7
		c0.7,0.1,1.4,0.2,1.9,0.2c0.9,0,1.6-0.3,1.9-0.8c0.4-0.5,0.6-1.4,0.6-2.6c0-1.2-0.2-2-0.5-2.5C360.3,154.6,359.8,154.3,359.1,154.3
		z"/>
	<path class="st0" d="M364.1,165.2v-11.6h0.9v0.6c0.8-0.5,1.7-0.8,2.6-0.8s1.6,0.3,2.1,1c0.5,0.7,0.7,1.7,0.7,3.2s-0.3,2.5-0.8,3.2
		s-1.4,1-2.7,1c-0.7,0-1.3-0.1-1.9-0.2v3.6H364.1z M367.5,154.3c-0.4,0-0.7,0.1-1.1,0.2s-0.7,0.2-0.9,0.4l-0.4,0.2v5.7
		c0.7,0.1,1.4,0.2,1.9,0.2c0.9,0,1.6-0.3,1.9-0.8s0.6-1.4,0.6-2.6c0-1.2-0.2-2-0.5-2.5C368.6,154.6,368.1,154.3,367.5,154.3z"/>
	<path class="st0" d="M372.5,161.6v-8h0.9v1.2c0.4-0.3,0.9-0.5,1.4-0.8c0.6-0.3,1.1-0.4,1.6-0.5v1c-0.5,0.1-0.9,0.2-1.4,0.4
		c-0.5,0.2-0.9,0.4-1.2,0.5l-0.4,0.2v6H372.5z"/>
	<path class="st0" d="M377.4,157.6c0-1.5,0.3-2.6,0.8-3.2c0.5-0.6,1.4-0.9,2.6-0.9c1.2,0,2.1,0.3,2.6,0.9c0.5,0.6,0.8,1.7,0.8,3.2
		s-0.2,2.6-0.7,3.2c-0.5,0.6-1.3,1-2.6,1s-2.2-0.3-2.7-1C377.6,160.2,377.4,159.1,377.4,157.6z M378.4,157.6c0,1.3,0.1,2.1,0.4,2.6
		c0.3,0.5,0.9,0.7,1.9,0.7s1.6-0.2,1.9-0.7s0.4-1.4,0.4-2.6c0-1.3-0.2-2.1-0.5-2.6s-1-0.7-1.9-0.7s-1.5,0.2-1.9,0.7
		C378.5,155.4,378.4,156.3,378.4,157.6z"/>
	<path class="st0" d="M391.6,156v4.3c0,0.4,0.4,0.6,1,0.7l0,0.8c-0.8,0-1.4-0.2-1.8-0.6c-1,0.4-2,0.7-3,0.7c-0.7,0-1.3-0.2-1.6-0.6
		c-0.4-0.4-0.6-1-0.6-1.8s0.2-1.3,0.6-1.7c0.4-0.4,1-0.6,1.8-0.7l2.7-0.3V156c0-0.6-0.1-1-0.4-1.3c-0.3-0.3-0.6-0.4-1-0.4
		c-0.7,0-1.6,0.1-2.7,0.2l-0.5,0l0-0.8c1.2-0.2,2.2-0.3,3.1-0.3s1.5,0.2,1.9,0.6S391.6,155.1,391.6,156z M386.6,159.3
		c0,1.1,0.4,1.6,1.3,1.6c0.4,0,0.8,0,1.3-0.1c0.5-0.1,0.8-0.2,1.1-0.3l0.4-0.1v-2.9l-2.6,0.3c-0.5,0-0.9,0.2-1.1,0.4
		C386.7,158.5,386.6,158.8,386.6,159.3z"/>
	<path class="st0" d="M397.1,153.4c0.5,0,1.1,0.1,1.7,0.2l0.4,0l0,0.8c-0.8-0.1-1.5-0.2-1.9-0.2c-0.9,0-1.6,0.2-2,0.7
		c-0.4,0.5-0.5,1.3-0.5,2.6c0,1.2,0.2,2.1,0.5,2.6c0.3,0.5,1,0.7,2,0.7l1.9-0.1l0,0.8c-1,0.1-1.7,0.2-2.1,0.2
		c-1.3,0-2.1-0.3-2.6-0.9c-0.5-0.6-0.7-1.7-0.7-3.2s0.3-2.6,0.8-3.2S395.9,153.4,397.1,153.4z"/>
	<path class="st0" d="M402,161.6H401V150h0.9v4c0.9-0.4,1.8-0.6,2.6-0.6c1.1,0,1.8,0.3,2.1,0.8s0.5,1.6,0.5,3.1v4.2h-1v-4.2
		c0-1.2-0.1-2.1-0.3-2.5c-0.2-0.4-0.7-0.6-1.5-0.6c-0.4,0-0.8,0-1.2,0.1s-0.7,0.2-1,0.3l-0.3,0.1V161.6z"/>
	<path class="st0" d="M417.3,161.6h-4v-11.1h4c2.6,0,4,1.8,4,5.4C421.3,159.7,420,161.6,417.3,161.6z M420.3,155.9
		c0-3-1-4.5-2.9-4.5h-3.1v9.3h3.1C419.3,160.7,420.3,159.1,420.3,155.9z"/>
	<path class="st0" d="M428.7,160.8l0.5,0l0,0.8c-1.2,0.1-2.2,0.2-3.1,0.2c-1.2,0-2-0.4-2.4-1s-0.7-1.7-0.7-3.1
		c0-2.8,1.1-4.2,3.3-4.2c1.1,0,1.8,0.3,2.4,0.9c0.5,0.6,0.8,1.6,0.8,2.9l0,0.8H424c0,1,0.2,1.7,0.5,2.2s0.9,0.7,1.7,0.7
		C427.1,160.9,427.9,160.9,428.7,160.8z M424,157.2h4.5c0-1.1-0.2-1.8-0.5-2.3c-0.3-0.4-0.9-0.7-1.7-0.7s-1.3,0.2-1.7,0.7
		S424,156.2,424,157.2z"/>
	<path class="st0" d="M430.6,153.6h1.1l2,7.2h0.6l2.1-7.2h1l-2.3,8h-2.1L430.6,153.6z"/>
	<path class="st0" d="M438.3,161.6V160h1.1v1.6H438.3z"/>
</g>
<g class="st2">
	<path class="st0" d="M581.5,124.9h2.2l-3.1,12.7h-4l-3.1-12.7h2.2l2.5,10.9h0.9L581.5,124.9z"/>
	<path class="st0" d="M585.5,137.6v-12.7h2.1v12.7H585.5z"/>
	<path class="st0" d="M590.2,132v-2.7h2.2v2.7H590.2z M590.2,137.6v-2.7h2.2v2.7H590.2z"/>
</g>
<g class="st2">
	<path class="st0" d="M525.8,161.6v-11.1h1v11.1H525.8z"/>
	<path class="st0" d="M530.3,161.6h-0.9v-8h0.9v0.6c0.9-0.5,1.8-0.8,2.6-0.8c1.1,0,1.8,0.3,2.1,0.8s0.5,1.6,0.5,3.1v4.2h-1v-4.2
		c0-1.2-0.1-2.1-0.4-2.5c-0.2-0.4-0.7-0.6-1.5-0.6c-0.4,0-0.8,0.1-1.2,0.2s-0.7,0.2-1,0.3l-0.3,0.2V161.6z"/>
	<path class="st0" d="M537.8,157.6v-0.9h4.9v0.9H537.8z"/>
	<path class="st0" d="M546.1,154.4v7.2h-1v-7.2h-1v-0.8h1v-0.8c0-1.1,0.2-1.9,0.5-2.3c0.3-0.4,0.9-0.6,1.6-0.6l1.6,0.1v0.8
		c-0.6,0-1.1,0-1.4,0c-0.5,0-0.8,0.1-1,0.4s-0.3,0.8-0.3,1.6v0.8h2.4v0.8H546.1z"/>
	<path class="st0" d="M550,151.6v-1.2h0.9v1.2H550z M550,161.6v-8h0.9v8H550z"/>
	<path class="st0" d="M558.6,160.8l0.5,0l0,0.8c-1.2,0.1-2.2,0.2-3.1,0.2c-1.2,0-2-0.4-2.4-1s-0.7-1.7-0.7-3.1
		c0-2.8,1.1-4.2,3.3-4.2c1.1,0,1.8,0.3,2.4,0.9c0.5,0.6,0.8,1.6,0.8,2.9l0,0.8H554c0,1,0.2,1.7,0.5,2.2s0.9,0.7,1.7,0.7
		C557,160.9,557.8,160.9,558.6,160.8z M554,157.2h4.5c0-1.1-0.2-1.8-0.5-2.3c-0.3-0.4-0.9-0.7-1.7-0.7s-1.3,0.2-1.7,0.7
		S554,156.2,554,157.2z"/>
	<path class="st0" d="M561.5,161.6V150h0.9v11.6H561.5z"/>
	<path class="st0" d="M570.9,150v11.6h-1V161c-0.8,0.5-1.7,0.8-2.6,0.8c-0.4,0-0.7,0-1-0.1c-0.3-0.1-0.6-0.3-0.9-0.5
		c-0.6-0.5-0.9-1.6-0.9-3.2s0.3-2.7,0.8-3.4s1.4-1,2.6-1c0.5,0,1.1,0.1,2,0.2V150H570.9z M566.8,160.8c0.2,0.1,0.5,0.1,0.8,0.1
		s0.7-0.1,1.1-0.2c0.4-0.1,0.7-0.2,1-0.3l0.3-0.2v-5.7c-0.9-0.1-1.5-0.2-2-0.2c-0.9,0-1.5,0.3-1.9,0.8c-0.3,0.6-0.5,1.4-0.5,2.6
		c0,1.4,0.2,2.3,0.6,2.7C566.4,160.6,566.6,160.7,566.8,160.8z"/>
	<path class="st0" d="M583.4,150.5h1l-3,11.1H579l-3-11.1h1l2.7,10.2h0.9L583.4,150.5z"/>
	<path class="st0" d="M591.1,156v4.3c0,0.4,0.4,0.6,1,0.7l0,0.8c-0.8,0-1.4-0.2-1.8-0.6c-1,0.4-2,0.7-3,0.7c-0.7,0-1.3-0.2-1.6-0.6
		c-0.4-0.4-0.6-1-0.6-1.8s0.2-1.3,0.6-1.7c0.4-0.4,1-0.6,1.8-0.7l2.7-0.3V156c0-0.6-0.1-1-0.4-1.3c-0.3-0.3-0.6-0.4-1-0.4
		c-0.7,0-1.6,0.1-2.7,0.2l-0.5,0l0-0.8c1.2-0.2,2.2-0.3,3.1-0.3s1.5,0.2,1.9,0.6S591.1,155.1,591.1,156z M586.1,159.3
		c0,1.1,0.4,1.6,1.3,1.6c0.4,0,0.8,0,1.3-0.1c0.5-0.1,0.8-0.2,1.1-0.3l0.4-0.1v-2.9l-2.6,0.3c-0.5,0-0.9,0.2-1.1,0.4
		C586.2,158.5,586.1,158.8,586.1,159.3z"/>
	<path class="st0" d="M593.7,161.6V150h0.9v11.6H593.7z"/>
	<path class="st0" d="M597.1,151.6v-1.2h0.9v1.2H597.1z M597.1,161.6v-8h0.9v8H597.1z"/>
	<path class="st0" d="M606.5,150v11.6h-1V161c-0.8,0.5-1.7,0.8-2.6,0.8c-0.4,0-0.7,0-1-0.1c-0.3-0.1-0.6-0.3-0.9-0.5
		c-0.6-0.5-0.9-1.6-0.9-3.2s0.3-2.7,0.8-3.4s1.4-1,2.6-1c0.5,0,1.1,0.1,2,0.2V150H606.5z M602.3,160.8c0.2,0.1,0.5,0.1,0.8,0.1
		s0.7-0.1,1.1-0.2c0.4-0.1,0.7-0.2,1-0.3l0.3-0.2v-5.7c-0.9-0.1-1.5-0.2-2-0.2c-0.9,0-1.5,0.3-1.9,0.8c-0.3,0.6-0.5,1.4-0.5,2.6
		c0,1.4,0.2,2.3,0.6,2.7C602,160.6,602.2,160.7,602.3,160.8z"/>
	<path class="st0" d="M614.4,156v4.3c0,0.4,0.4,0.6,1,0.7l0,0.8c-0.8,0-1.4-0.2-1.8-0.6c-1,0.4-2,0.7-3,0.7c-0.7,0-1.3-0.2-1.6-0.6
		c-0.4-0.4-0.6-1-0.6-1.8s0.2-1.3,0.6-1.7c0.4-0.4,1-0.6,1.8-0.7l2.7-0.3V156c0-0.6-0.1-1-0.4-1.3c-0.3-0.3-0.6-0.4-1-0.4
		c-0.7,0-1.6,0.1-2.7,0.2l-0.5,0l0-0.8c1.2-0.2,2.2-0.3,3.1-0.3s1.5,0.2,1.9,0.6S614.4,155.1,614.4,156z M609.3,159.3
		c0,1.1,0.4,1.6,1.3,1.6c0.4,0,0.8,0,1.3-0.1c0.5-0.1,0.8-0.2,1.1-0.3l0.4-0.1v-2.9l-2.6,0.3c-0.5,0-0.9,0.2-1.1,0.4
		C609.4,158.5,609.3,158.8,609.3,159.3z"/>
	<path class="st0" d="M620.9,154.4h-2.7v4c0,1,0.1,1.7,0.2,2s0.5,0.5,1.1,0.5l1.5-0.1l0.1,0.8c-0.7,0.1-1.2,0.2-1.6,0.2
		c-0.8,0-1.4-0.2-1.7-0.6c-0.3-0.4-0.5-1.2-0.5-2.3v-4.4h-1.2v-0.8h1.2v-2.5h1v2.5h2.7V154.4z"/>
	<path class="st0" d="M622.4,151.6v-1.2h0.9v1.2H622.4z M622.4,161.6v-8h0.9v8H622.4z"/>
	<path class="st0" d="M625.4,157.6c0-1.5,0.3-2.6,0.8-3.2c0.5-0.6,1.4-0.9,2.6-0.9c1.2,0,2.1,0.3,2.6,0.9c0.5,0.6,0.8,1.7,0.8,3.2
		s-0.2,2.6-0.7,3.2c-0.5,0.6-1.3,1-2.6,1c-1.3,0-2.2-0.3-2.7-1C625.6,160.2,625.4,159.1,625.4,157.6z M626.4,157.6
		c0,1.3,0.1,2.1,0.4,2.6c0.3,0.5,0.9,0.7,1.9,0.7c1,0,1.6-0.2,1.9-0.7c0.3-0.5,0.4-1.4,0.4-2.6c0-1.3-0.2-2.1-0.5-2.6
		s-1-0.7-1.9-0.7c-0.9,0-1.5,0.2-1.9,0.7C626.6,155.4,626.4,156.3,626.4,157.6z"/>
	<path class="st0" d="M635.1,161.6h-0.9v-8h0.9v0.6c0.9-0.5,1.8-0.8,2.6-0.8c1.1,0,1.8,0.3,2.1,0.8c0.4,0.6,0.5,1.6,0.5,3.1v4.2h-1
		v-4.2c0-1.2-0.1-2.1-0.4-2.5c-0.2-0.4-0.7-0.6-1.5-0.6c-0.4,0-0.8,0.1-1.2,0.2c-0.4,0.1-0.7,0.2-1,0.3l-0.3,0.2V161.6z"/>
</g>
<g class="st2">
	<path class="st0" d="M135.8,225.4h2.2l-3.1,12.7h-4.1l-3.1-12.7h2.2l2.5,10.9h0.9L135.8,225.4z"/>
	<path class="st0" d="M139.8,238.1v-12.7h2.1v12.7H139.8z"/>
	<path class="st0" d="M144.8,238.1v-12.7h2.1v12.7H144.8z"/>
	<path class="st0" d="M149.4,232.5v-2.7h2.2v2.7H149.4z M149.4,238.1v-2.7h2.2v2.7H149.4z"/>
</g>
<g class="st2">
	<path class="st0" d="M55.8,256.7c0,2-0.3,3.4-0.9,4.3s-1.8,1.3-3.4,1.3c-1.6,0-2.8-0.5-3.4-1.4c-0.6-0.9-0.9-2.3-0.9-4.3
		c0-2,0.3-3.4,0.9-4.4c0.6-0.9,1.8-1.4,3.4-1.4c1.6,0,2.8,0.5,3.4,1.4C55.5,253.2,55.8,254.7,55.8,256.7z M48.8,260.3
		c0.4,0.7,1.3,1.1,2.6,1.1c1.3,0,2.2-0.4,2.6-1.1c0.4-0.7,0.7-1.9,0.7-3.6s-0.2-2.9-0.7-3.7c-0.5-0.8-1.3-1.2-2.6-1.2
		c-1.3,0-2.2,0.4-2.7,1.3c-0.2,0.4-0.4,0.9-0.5,1.5c-0.1,0.6-0.1,1.3-0.1,2.1C48.1,258.3,48.4,259.5,48.8,260.3z"/>
	<path class="st0" d="M58,265.7v-11.6h0.9v0.6c0.8-0.5,1.7-0.8,2.6-0.8s1.6,0.3,2.1,1c0.5,0.7,0.7,1.7,0.7,3.2s-0.3,2.5-0.8,3.2
		c-0.5,0.7-1.4,1-2.7,1c-0.7,0-1.3-0.1-1.9-0.2v3.6H58z M61.3,254.8c-0.4,0-0.7,0.1-1.1,0.2s-0.7,0.2-0.9,0.4l-0.4,0.2v5.7
		c0.7,0.1,1.4,0.2,1.9,0.2c0.9,0,1.6-0.3,1.9-0.8c0.4-0.5,0.6-1.4,0.6-2.6c0-1.2-0.2-2-0.5-2.5C62.5,255.1,62,254.8,61.3,254.8z"/>
	<path class="st0" d="M70.3,255h-2.7v4c0,1,0.1,1.7,0.2,2s0.5,0.5,1.1,0.5l1.5-0.1l0.1,0.8c-0.7,0.1-1.2,0.2-1.6,0.2
		c-0.8,0-1.4-0.2-1.7-0.6c-0.3-0.4-0.5-1.2-0.5-2.3V255h-1.2v-0.8h1.2v-2.5h1v2.5h2.7V255z"/>
	<path class="st0" d="M71.8,252.1v-1.2h0.9v1.2H71.8z M71.8,262.1v-8h0.9v8H71.8z"/>
	<path class="st0" d="M76.1,262.1h-0.9v-8h0.9v0.6c0.8-0.5,1.7-0.8,2.6-0.8s1.6,0.3,2,0.8c0.4-0.2,0.9-0.4,1.4-0.6
		c0.5-0.2,1-0.2,1.5-0.2c1.1,0,1.8,0.3,2.1,0.8c0.4,0.6,0.5,1.6,0.5,3.1v4.2h-0.9V258c0-1.2-0.1-2.1-0.3-2.5
		c-0.2-0.4-0.7-0.6-1.5-0.6c-0.4,0-0.8,0.1-1.2,0.2s-0.7,0.2-0.9,0.3l-0.3,0.2c0.2,0.4,0.2,1.2,0.2,2.5v4.2h-1V258
		c0-1.2-0.1-2.1-0.3-2.5c-0.2-0.4-0.7-0.6-1.5-0.6c-0.4,0-0.8,0.1-1.1,0.2c-0.4,0.1-0.7,0.2-0.9,0.3l-0.3,0.2V262.1z"/>
	<path class="st0" d="M88.5,252.1v-1.2h0.9v1.2H88.5z M88.5,262.1v-8h0.9v8H88.5z"/>
	<path class="st0" d="M91.3,255v-0.9h5.9v0.9l-4.8,6.3h4.8v0.9h-5.9v-0.9l4.8-6.3H91.3z"/>
	<path class="st0" d="M104.6,256.5v4.3c0,0.4,0.4,0.6,1,0.7l0,0.8c-0.8,0-1.4-0.2-1.8-0.6c-1,0.4-2,0.7-3,0.7
		c-0.7,0-1.3-0.2-1.6-0.6c-0.4-0.4-0.6-1-0.6-1.8s0.2-1.3,0.6-1.7s1-0.6,1.8-0.7l2.7-0.3v-0.8c0-0.6-0.1-1-0.4-1.3
		c-0.3-0.3-0.6-0.4-1-0.4c-0.7,0-1.6,0.1-2.7,0.2l-0.5,0l0-0.8c1.2-0.2,2.2-0.3,3.1-0.3c0.9,0,1.5,0.2,1.9,0.6
		S104.6,255.7,104.6,256.5z M99.6,259.9c0,1.1,0.4,1.6,1.3,1.6c0.4,0,0.8,0,1.3-0.1s0.8-0.2,1.1-0.3l0.4-0.1V258l-2.6,0.3
		c-0.5,0-0.9,0.2-1.1,0.4C99.7,259,99.6,259.4,99.6,259.9z"/>
	<path class="st0" d="M111.2,255h-2.7v4c0,1,0.1,1.7,0.2,2s0.5,0.5,1.1,0.5l1.5-0.1l0.1,0.8c-0.7,0.1-1.2,0.2-1.6,0.2
		c-0.8,0-1.4-0.2-1.7-0.6c-0.3-0.4-0.5-1.2-0.5-2.3V255h-1.2v-0.8h1.2v-2.5h1v2.5h2.7V255z"/>
	<path class="st0" d="M112.7,252.1v-1.2h0.9v1.2H112.7z M112.7,262.1v-8h0.9v8H112.7z"/>
	<path class="st0" d="M115.7,258.1c0-1.5,0.3-2.6,0.8-3.2c0.5-0.6,1.4-0.9,2.6-0.9s2.1,0.3,2.6,0.9c0.5,0.6,0.8,1.7,0.8,3.2
		s-0.2,2.6-0.7,3.2c-0.5,0.6-1.3,1-2.6,1c-1.3,0-2.2-0.3-2.7-1C115.9,260.7,115.7,259.6,115.7,258.1z M116.7,258.1
		c0,1.3,0.1,2.1,0.4,2.6s0.9,0.7,1.9,0.7c1,0,1.6-0.2,1.9-0.7c0.3-0.5,0.4-1.4,0.4-2.6c0-1.3-0.2-2.1-0.5-2.6s-1-0.7-1.9-0.7
		c-0.9,0-1.5,0.2-1.9,0.7C116.8,256,116.7,256.8,116.7,258.1z"/>
</g>
<g class="st2">
	<path class="st0" d="M125.4,262.1h-0.9v-8h0.9v0.6c0.9-0.5,1.8-0.8,2.6-0.8c1.1,0,1.8,0.3,2.1,0.8c0.4,0.6,0.5,1.6,0.5,3.1v4.2h-1
		V258c0-1.2-0.1-2.1-0.4-2.5c-0.2-0.4-0.7-0.6-1.5-0.6c-0.4,0-0.8,0.1-1.2,0.2c-0.4,0.1-0.7,0.2-1,0.3l-0.3,0.2V262.1z"/>
	<path class="st0" d="M133.3,262l4.5-11.1l0.9,0.3l-4.5,11.1L133.3,262z"/>
</g>
<g class="st2">
	<path class="st0" d="M145.8,251.7c-1.7,0-2.6,0.7-2.6,2c0,0.8,0.2,1.3,0.6,1.6c0.4,0.3,1.2,0.5,2.3,0.7c1.1,0.2,1.9,0.5,2.4,0.9
		c0.5,0.4,0.7,1.1,0.7,2c0,1.2-0.3,2.1-0.9,2.6c-0.6,0.5-1.5,0.8-2.6,0.8c-0.8,0-1.8-0.1-2.9-0.2l-0.6-0.1l0.1-0.8
		c1.5,0.2,2.6,0.3,3.4,0.3c0.8,0,1.4-0.2,1.8-0.6s0.6-1,0.6-1.7s-0.2-1.3-0.6-1.5c-0.4-0.3-1-0.5-1.8-0.6c-0.8-0.1-1.4-0.3-1.8-0.4
		c-0.4-0.1-0.7-0.3-1-0.5c-0.3-0.2-0.6-0.5-0.7-0.9s-0.2-0.8-0.2-1.4c0-1.9,1.2-2.9,3.5-2.9c0.7,0,1.6,0.1,2.8,0.2l0.5,0.1l-0.1,0.8
		C147.4,251.8,146.4,251.7,145.8,251.7z"/>
	<path class="st0" d="M155.1,255h-2.7v4c0,1,0.1,1.7,0.2,2s0.5,0.5,1.1,0.5l1.5-0.1l0.1,0.8c-0.7,0.1-1.2,0.2-1.6,0.2
		c-0.8,0-1.4-0.2-1.7-0.6c-0.3-0.4-0.5-1.2-0.5-2.3V255h-1.2v-0.8h1.2v-2.5h1v2.5h2.7V255z"/>
	<path class="st0" d="M156.6,262.1v-8h0.9v1.2c0.4-0.3,0.9-0.5,1.4-0.8c0.6-0.3,1.1-0.4,1.6-0.5v1c-0.5,0.1-0.9,0.2-1.4,0.4
		s-0.9,0.4-1.2,0.5l-0.4,0.2v6H156.6z"/>
	<path class="st0" d="M167.5,256.5v4.3c0,0.4,0.4,0.6,1,0.7l0,0.8c-0.8,0-1.4-0.2-1.8-0.6c-1,0.4-2,0.7-3,0.7
		c-0.7,0-1.3-0.2-1.6-0.6c-0.4-0.4-0.6-1-0.6-1.8s0.2-1.3,0.6-1.7s1-0.6,1.8-0.7l2.7-0.3v-0.8c0-0.6-0.1-1-0.4-1.3
		c-0.3-0.3-0.6-0.4-1-0.4c-0.7,0-1.6,0.1-2.7,0.2l-0.5,0l0-0.8c1.2-0.2,2.2-0.3,3.1-0.3c0.9,0,1.5,0.2,1.9,0.6
		S167.5,255.7,167.5,256.5z M162.5,259.9c0,1.1,0.4,1.6,1.3,1.6c0.4,0,0.8,0,1.3-0.1s0.8-0.2,1.1-0.3l0.4-0.1V258l-2.6,0.3
		c-0.5,0-0.9,0.2-1.1,0.4C162.6,259,162.5,259.4,162.5,259.9z"/>
	<path class="st0" d="M174.1,255h-2.7v4c0,1,0.1,1.7,0.2,2s0.5,0.5,1.1,0.5l1.5-0.1l0.1,0.8c-0.7,0.1-1.2,0.2-1.6,0.2
		c-0.8,0-1.4-0.2-1.7-0.6c-0.3-0.4-0.5-1.2-0.5-2.3V255h-1.2v-0.8h1.2v-2.5h1v2.5h2.7V255z"/>
	<path class="st0" d="M180.9,261.3l0.5,0l0,0.8c-1.2,0.1-2.2,0.2-3.1,0.2c-1.2,0-2-0.4-2.4-1c-0.5-0.7-0.7-1.7-0.7-3.1
		c0-2.8,1.1-4.2,3.3-4.2c1.1,0,1.8,0.3,2.4,0.9c0.5,0.6,0.8,1.6,0.8,2.9l0,0.8h-5.4c0,1,0.2,1.7,0.5,2.2s0.9,0.7,1.7,0.7
		S180.1,261.4,180.9,261.3z M176.2,257.7h4.5c0-1.1-0.2-1.8-0.5-2.3c-0.3-0.4-0.9-0.7-1.7-0.7s-1.3,0.2-1.7,0.7
		S176.2,256.7,176.2,257.7z"/>
	<path class="st0" d="M190.1,263.3c0,0.9-0.3,1.6-0.9,2c-0.6,0.4-1.5,0.6-2.7,0.6c-1.2,0-2.1-0.2-2.5-0.5c-0.5-0.4-0.7-1-0.7-1.9
		c0-0.4,0.1-0.8,0.3-1.1c0.2-0.3,0.5-0.6,1-0.9c-0.3-0.2-0.4-0.5-0.4-1.1c0-0.2,0.1-0.5,0.4-1l0.1-0.2c-0.9-0.4-1.3-1.2-1.3-2.4
		c0-1.8,1-2.7,2.9-2.7c0.5,0,1,0.1,1.4,0.2l0.2,0l2.3,0v0.8l-1.6,0c0.4,0.4,0.6,1,0.6,1.9s-0.2,1.5-0.7,1.9
		c-0.5,0.4-1.3,0.6-2.3,0.6c-0.3,0-0.6,0-0.8-0.1c-0.2,0.5-0.3,0.9-0.3,1c0,0.4,0.1,0.6,0.3,0.6s0.8,0.1,1.9,0.1
		c1,0,1.8,0.2,2.2,0.5C189.9,261.8,190.1,262.4,190.1,263.3z M184.2,263.4c0,0.6,0.2,1.1,0.5,1.3c0.3,0.2,0.9,0.4,1.9,0.4
		c0.9,0,1.6-0.1,2-0.4c0.4-0.3,0.6-0.7,0.6-1.3s-0.1-1-0.4-1.2c-0.3-0.2-0.8-0.3-1.6-0.3l-1.8-0.1c-0.4,0.3-0.7,0.5-0.8,0.7
		C184.3,262.8,184.2,263.1,184.2,263.4z M184.4,256.7c0,0.7,0.1,1.2,0.4,1.5c0.3,0.3,0.8,0.4,1.5,0.4s1.2-0.1,1.5-0.4
		c0.3-0.3,0.4-0.8,0.4-1.5c0-0.7-0.1-1.2-0.4-1.5c-0.3-0.3-0.8-0.4-1.5-0.4s-1.2,0.1-1.5,0.4C184.5,255.5,184.4,256,184.4,256.7z"/>
	<path class="st0" d="M191.8,252.1v-1.2h0.9v1.2H191.8z M191.8,262.1v-8h0.9v8H191.8z"/>
	<path class="st0" d="M198.1,254c0.5,0,1.1,0.1,1.7,0.2l0.4,0l0,0.8c-0.8-0.1-1.5-0.2-1.9-0.2c-0.9,0-1.6,0.2-2,0.7
		c-0.4,0.5-0.5,1.3-0.5,2.6c0,1.2,0.2,2.1,0.5,2.6c0.3,0.5,1,0.7,2,0.7l1.9-0.1l0,0.8c-0.9,0.1-1.7,0.2-2.1,0.2
		c-1.3,0-2.1-0.3-2.6-0.9c-0.5-0.6-0.7-1.7-0.7-3.2s0.3-2.6,0.8-3.2C196.1,254.3,196.9,254,198.1,254z"/>
	<path class="st0" d="M209.8,262.1h-4V251h4c2.6,0,4,1.8,4,5.4C213.8,260.2,212.4,262.1,209.8,262.1z M212.7,256.4
		c0-3-1-4.5-2.9-4.5h-3.1v9.3h3.1C211.8,261.3,212.7,259.6,212.7,256.4z"/>
	<path class="st0" d="M221.2,261.3l0.5,0l0,0.8c-1.2,0.1-2.2,0.2-3.1,0.2c-1.2,0-2-0.4-2.4-1c-0.5-0.7-0.7-1.7-0.7-3.1
		c0-2.8,1.1-4.2,3.3-4.2c1.1,0,1.8,0.3,2.4,0.9c0.5,0.6,0.8,1.6,0.8,2.9l0,0.8h-5.4c0,1,0.2,1.7,0.5,2.2s0.9,0.7,1.7,0.7
		S220.4,261.4,221.2,261.3z M216.5,257.7h4.5c0-1.1-0.2-1.8-0.5-2.3c-0.3-0.4-0.9-0.7-1.7-0.7s-1.3,0.2-1.7,0.7
		S216.5,256.7,216.5,257.7z"/>
	<path class="st0" d="M223.1,254.1h1.1l2,7.2h0.6l2.1-7.2h1l-2.3,8h-2.1L223.1,254.1z"/>
	<path class="st0" d="M230.8,262.1v-1.6h1.1v1.6H230.8z"/>
</g>
<g class="st2">
	<path class="st0" d="M354.7,225.4h2.2l-3.1,12.7h-4.1l-3.1-12.7h2.2l2.5,10.9h0.9L354.7,225.4z"/>
	<path class="st0" d="M358.7,238.1v-12.7h2.1v12.7H358.7z"/>
	<path class="st0" d="M363.7,238.1v-12.7h2.1v12.7H363.7z"/>
	<path class="st0" d="M368.7,238.1v-12.7h2.1v12.7H368.7z"/>
	<path class="st0" d="M373.4,232.5v-2.7h2.2v2.7H373.4z M373.4,238.1v-2.7h2.2v2.7H373.4z"/>
</g>
<g class="st2">
	<path class="st0" d="M277.9,262.1V251h6.6v0.9h-5.6v4.6h4.7v0.9h-4.7v4.8H277.9z"/>
	<path class="st0" d="M286.1,252.1v-1.2h0.9v1.2H286.1z M286.1,262.1v-8h0.9v8H286.1z"/>
	<path class="st0" d="M290.4,262.1h-0.9v-8h0.9v0.6c0.9-0.5,1.8-0.8,2.6-0.8c1.1,0,1.8,0.3,2.1,0.8c0.4,0.6,0.5,1.6,0.5,3.1v4.2h-1
		V258c0-1.2-0.1-2.1-0.4-2.5c-0.2-0.4-0.7-0.6-1.5-0.6c-0.4,0-0.8,0.1-1.2,0.2c-0.4,0.1-0.7,0.2-1,0.3l-0.3,0.2V262.1z"/>
	<path class="st0" d="M303.5,256.5v4.3c0,0.4,0.4,0.6,1,0.7l0,0.8c-0.8,0-1.4-0.2-1.8-0.6c-1,0.4-2,0.7-3,0.7
		c-0.7,0-1.3-0.2-1.6-0.6c-0.4-0.4-0.6-1-0.6-1.8s0.2-1.3,0.6-1.7s1-0.6,1.8-0.7l2.7-0.3v-0.8c0-0.6-0.1-1-0.4-1.3
		c-0.3-0.3-0.6-0.4-1-0.4c-0.7,0-1.6,0.1-2.7,0.2l-0.5,0l0-0.8c1.2-0.2,2.2-0.3,3.1-0.3c0.9,0,1.5,0.2,1.9,0.6
		S303.5,255.7,303.5,256.5z M298.5,259.9c0,1.1,0.4,1.6,1.3,1.6c0.4,0,0.8,0,1.3-0.1s0.8-0.2,1.1-0.3l0.4-0.1V258l-2.6,0.3
		c-0.5,0-0.9,0.2-1.1,0.4C298.6,259,298.5,259.4,298.5,259.9z"/>
	<path class="st0" d="M306.1,262.1v-11.6h0.9v11.6H306.1z"/>
	<path class="st0" d="M316.2,251.7c-1.7,0-2.6,0.7-2.6,2c0,0.8,0.2,1.3,0.6,1.6c0.4,0.3,1.2,0.5,2.3,0.7c1.1,0.2,1.9,0.5,2.4,0.9
		c0.5,0.4,0.7,1.1,0.7,2c0,1.2-0.3,2.1-0.9,2.6c-0.6,0.5-1.5,0.8-2.6,0.8c-0.8,0-1.8-0.1-2.9-0.2l-0.6-0.1l0.1-0.8
		c1.5,0.2,2.6,0.3,3.4,0.3c0.8,0,1.4-0.2,1.8-0.6s0.6-1,0.6-1.7s-0.2-1.3-0.6-1.5c-0.4-0.3-1-0.5-1.8-0.6c-0.8-0.1-1.4-0.3-1.8-0.4
		c-0.4-0.1-0.7-0.3-1-0.5c-0.3-0.2-0.6-0.5-0.7-0.9s-0.2-0.8-0.2-1.4c0-1.9,1.2-2.9,3.5-2.9c0.7,0,1.6,0.1,2.8,0.2l0.5,0.1l-0.1,0.8
		C317.9,251.8,316.8,251.7,316.2,251.7z"/>
	<path class="st0" d="M325.6,255h-2.7v4c0,1,0.1,1.7,0.2,2s0.5,0.5,1.1,0.5l1.5-0.1l0.1,0.8c-0.7,0.1-1.2,0.2-1.6,0.2
		c-0.8,0-1.4-0.2-1.7-0.6c-0.3-0.4-0.5-1.2-0.5-2.3V255h-1.2v-0.8h1.2v-2.5h1v2.5h2.7V255z"/>
	<path class="st0" d="M327.1,262.1v-8h0.9v1.2c0.4-0.3,0.9-0.5,1.4-0.8c0.6-0.3,1.1-0.4,1.6-0.5v1c-0.5,0.1-0.9,0.2-1.4,0.4
		s-0.9,0.4-1.2,0.5l-0.4,0.2v6H327.1z"/>
	<path class="st0" d="M338,256.5v4.3c0,0.4,0.4,0.6,1,0.7l0,0.8c-0.8,0-1.4-0.2-1.8-0.6c-1,0.4-2,0.7-3,0.7c-0.7,0-1.3-0.2-1.6-0.6
		c-0.4-0.4-0.6-1-0.6-1.8s0.2-1.3,0.6-1.7s1-0.6,1.8-0.7l2.7-0.3v-0.8c0-0.6-0.1-1-0.4-1.3c-0.3-0.3-0.6-0.4-1-0.4
		c-0.7,0-1.6,0.1-2.7,0.2l-0.5,0l0-0.8c1.2-0.2,2.2-0.3,3.1-0.3c0.9,0,1.5,0.2,1.9,0.6S338,255.7,338,256.5z M333,259.9
		c0,1.1,0.4,1.6,1.3,1.6c0.4,0,0.8,0,1.3-0.1s0.8-0.2,1.1-0.3l0.4-0.1V258l-2.6,0.3c-0.5,0-0.9,0.2-1.1,0.4
		C333.1,259,333,259.4,333,259.9z"/>
	<path class="st0" d="M344.5,255h-2.7v4c0,1,0.1,1.7,0.2,2s0.5,0.5,1.1,0.5l1.5-0.1l0.1,0.8c-0.7,0.1-1.2,0.2-1.6,0.2
		c-0.8,0-1.4-0.2-1.7-0.6c-0.3-0.4-0.5-1.2-0.5-2.3V255h-1.2v-0.8h1.2v-2.5h1v2.5h2.7V255z"/>
	<path class="st0" d="M351.3,261.3l0.5,0l0,0.8c-1.2,0.1-2.2,0.2-3.1,0.2c-1.2,0-2-0.4-2.4-1c-0.5-0.7-0.7-1.7-0.7-3.1
		c0-2.8,1.1-4.2,3.3-4.2c1.1,0,1.8,0.3,2.4,0.9c0.5,0.6,0.8,1.6,0.8,2.9l0,0.8h-5.4c0,1,0.2,1.7,0.5,2.2s0.9,0.7,1.7,0.7
		S350.5,261.4,351.3,261.3z M346.7,257.7h4.5c0-1.1-0.2-1.8-0.5-2.3c-0.3-0.4-0.9-0.7-1.7-0.7s-1.3,0.2-1.7,0.7
		S346.7,256.7,346.7,257.7z"/>
	<path class="st0" d="M360.6,263.3c0,0.9-0.3,1.6-0.9,2c-0.6,0.4-1.5,0.6-2.7,0.6c-1.2,0-2.1-0.2-2.5-0.5c-0.5-0.4-0.7-1-0.7-1.9
		c0-0.4,0.1-0.8,0.3-1.1c0.2-0.3,0.5-0.6,1-0.9c-0.3-0.2-0.4-0.5-0.4-1.1c0-0.2,0.1-0.5,0.4-1l0.1-0.2c-0.9-0.4-1.3-1.2-1.3-2.4
		c0-1.8,1-2.7,2.9-2.7c0.5,0,1,0.1,1.4,0.2l0.2,0l2.3,0v0.8l-1.6,0c0.4,0.4,0.6,1,0.6,1.9s-0.2,1.5-0.7,1.9
		c-0.5,0.4-1.3,0.6-2.3,0.6c-0.3,0-0.6,0-0.8-0.1c-0.2,0.5-0.3,0.9-0.3,1c0,0.4,0.1,0.6,0.3,0.6s0.8,0.1,1.9,0.1
		c1,0,1.8,0.2,2.2,0.5C360.4,261.8,360.6,262.4,360.6,263.3z M354.7,263.4c0,0.6,0.2,1.1,0.5,1.3c0.3,0.2,0.9,0.4,1.9,0.4
		c0.9,0,1.6-0.1,2-0.4c0.4-0.3,0.6-0.7,0.6-1.3s-0.1-1-0.4-1.2c-0.3-0.2-0.8-0.3-1.6-0.3l-1.8-0.1c-0.4,0.3-0.7,0.5-0.8,0.7
		C354.8,262.8,354.7,263.1,354.7,263.4z M354.8,256.7c0,0.7,0.1,1.2,0.4,1.5c0.3,0.3,0.8,0.4,1.5,0.4s1.2-0.1,1.5-0.4
		c0.3-0.3,0.4-0.8,0.4-1.5c0-0.7-0.1-1.2-0.4-1.5c-0.3-0.3-0.8-0.4-1.5-0.4s-1.2,0.1-1.5,0.4C355,255.5,354.8,256,354.8,256.7z"/>
	<path class="st0" d="M361.5,254.1h1l2.1,7.2h0.6l2.1-7.2h1l-3.5,11.6h-1l1.1-3.6h-1.1L361.5,254.1z"/>
</g>
<g class="st2">
	<path class="st0" d="M374,259.5v2.7h-0.8v-6.9h2.6c0.7,0,1.3,0.2,1.7,0.5s0.6,0.9,0.6,1.6c0,1.1-0.4,1.7-1.3,2l1.3,2.8h-0.9
		l-1.2-2.7H374z M375.8,258.8c0.9,0,1.4-0.5,1.4-1.5s-0.5-1.5-1.4-1.5H374v2.9H375.8z"/>
	<path class="st0" d="M382.6,261.5l0.3,0l0,0.6c-0.8,0.1-1.4,0.2-2,0.2c-0.7,0-1.2-0.2-1.5-0.6c-0.3-0.4-0.5-1.1-0.5-1.9
		c0-1.8,0.7-2.6,2.1-2.6c0.7,0,1.2,0.2,1.5,0.6c0.3,0.4,0.5,1,0.5,1.8l0,0.6h-3.3c0,0.6,0.1,1,0.3,1.2c0.2,0.3,0.5,0.4,1,0.4
		C381.6,261.6,382.1,261.6,382.6,261.5z M382.3,259.3c0-0.6-0.1-1-0.3-1.3c-0.2-0.3-0.5-0.4-1-0.4c-0.4,0-0.8,0.1-1,0.4
		c-0.2,0.3-0.3,0.7-0.3,1.3H382.3z"/>
	<path class="st0" d="M384.3,264.4v-7.2h0.7v0.4c0.5-0.3,1-0.5,1.5-0.5c0.6,0,1.1,0.2,1.4,0.6c0.3,0.4,0.4,1.1,0.4,2s-0.2,1.6-0.5,2
		c-0.3,0.4-0.9,0.6-1.7,0.6c-0.4,0-0.8,0-1.1-0.1v2.2H384.3z M386.4,257.7c-0.2,0-0.4,0-0.6,0.1c-0.2,0.1-0.4,0.1-0.5,0.2l-0.2,0.1
		v3.4c0.5,0.1,0.8,0.1,1.1,0.1c0.5,0,0.9-0.2,1.1-0.5c0.2-0.3,0.3-0.8,0.3-1.5s-0.1-1.2-0.3-1.5
		C387.1,257.8,386.8,257.7,386.4,257.7z"/>
	<path class="st0" d="M389.3,259.6c0-0.9,0.2-1.6,0.5-2c0.3-0.4,0.9-0.6,1.7-0.6s1.3,0.2,1.7,0.6c0.3,0.4,0.5,1.1,0.5,2
		s-0.2,1.6-0.5,2c-0.3,0.4-0.9,0.6-1.7,0.6s-1.4-0.2-1.7-0.6C389.5,261.2,389.3,260.5,389.3,259.6z M390.1,259.6
		c0,0.7,0.1,1.2,0.3,1.5c0.2,0.3,0.5,0.4,1.1,0.4s0.9-0.1,1.1-0.4c0.2-0.3,0.3-0.8,0.3-1.5s-0.1-1.2-0.3-1.5
		c-0.2-0.3-0.6-0.4-1.1-0.4s-0.9,0.1-1.1,0.4C390.2,258.4,390.1,258.9,390.1,259.6z"/>
	<path class="st0" d="M394.8,262.1v-5h0.7v0.7c0.6-0.4,1.2-0.7,1.8-0.8v0.8c-0.3,0.1-0.6,0.1-0.9,0.2s-0.5,0.2-0.7,0.3l-0.2,0.1v3.7
		H394.8z"/>
</g>
<g class="st2">
	<path class="st0" d="M400.9,257.8h-1.6v2.4c0,0.6,0,1,0.1,1.1s0.3,0.3,0.6,0.3l0.9-0.1l0,0.6c-0.4,0.1-0.8,0.1-1,0.1
		c-0.5,0-0.9-0.1-1.1-0.4c-0.2-0.3-0.3-0.7-0.3-1.5v-2.6h-0.7v-0.7h0.7v-1.5h0.7v1.5h1.6V257.8z"/>
	<path class="st0" d="M402.4,262l2.8-7l0.7,0.2l-2.8,7L402.4,262z"/>
</g>
<g class="st2">
	<path class="st0" d="M408.8,259.5v2.7h-0.8v-6.9h2.6c0.7,0,1.3,0.2,1.7,0.5s0.6,0.9,0.6,1.6c0,1.1-0.4,1.7-1.3,2l1.3,2.8H412
		l-1.2-2.7H408.8z M410.6,258.8c0.9,0,1.4-0.5,1.4-1.5s-0.5-1.5-1.4-1.5h-1.8v2.9H410.6z"/>
	<path class="st0" d="M417.4,261.5l0.3,0l0,0.6c-0.8,0.1-1.4,0.2-2,0.2c-0.7,0-1.2-0.2-1.5-0.6c-0.3-0.4-0.5-1.1-0.5-1.9
		c0-1.8,0.7-2.6,2.1-2.6c0.7,0,1.2,0.2,1.5,0.6c0.3,0.4,0.5,1,0.5,1.8l0,0.6h-3.3c0,0.6,0.1,1,0.3,1.2c0.2,0.3,0.5,0.4,1,0.4
		C416.4,261.6,416.9,261.6,417.4,261.5z M417.1,259.3c0-0.6-0.1-1-0.3-1.3c-0.2-0.3-0.5-0.4-1-0.4c-0.4,0-0.8,0.1-1,0.4
		c-0.2,0.3-0.3,0.7-0.3,1.3H417.1z"/>
	<path class="st0" d="M422.6,258.6v2.6c0,0.2,0.2,0.4,0.6,0.4l0,0.6c-0.5,0-0.9-0.1-1.2-0.4c-0.6,0.3-1.2,0.4-1.8,0.4
		c-0.5,0-0.8-0.1-1.1-0.4c-0.2-0.3-0.4-0.6-0.4-1.1c0-0.5,0.1-0.8,0.4-1.1c0.2-0.2,0.6-0.4,1.2-0.4l1.6-0.1v-0.4
		c0-0.3-0.1-0.6-0.2-0.7s-0.3-0.2-0.6-0.2c-0.5,0-1.1,0-1.7,0.1l-0.3,0l0-0.6c0.7-0.1,1.4-0.2,1.9-0.2c0.6,0,1,0.1,1.2,0.4
		S422.6,258.1,422.6,258.6z M419.5,260.7c0,0.6,0.3,0.9,0.8,0.9c0.5,0,0.9-0.1,1.3-0.2l0.2-0.1v-1.7l-1.5,0.1
		c-0.3,0-0.5,0.1-0.7,0.3S419.5,260.4,419.5,260.7z"/>
	<path class="st0" d="M427.9,255v7.2h-0.7v-0.3c-0.5,0.3-1,0.4-1.5,0.4c-0.3,0-0.5,0-0.7-0.1c-0.2-0.1-0.4-0.2-0.6-0.4
		c-0.4-0.4-0.5-1-0.5-2c0-1,0.2-1.7,0.5-2.1s0.9-0.6,1.6-0.6c0.4,0,0.8,0,1.2,0.1V255H427.9z M425.3,261.5c0.1,0,0.3,0.1,0.5,0.1
		c0.2,0,0.4,0,0.6-0.1c0.2-0.1,0.4-0.1,0.6-0.2l0.2-0.1v-3.4c-0.4-0.1-0.8-0.1-1.2-0.1c-0.5,0-0.9,0.2-1.1,0.5s-0.3,0.8-0.3,1.5
		c0,0.8,0.1,1.3,0.3,1.6C425.1,261.4,425.2,261.4,425.3,261.5z"/>
	<path class="st0" d="M436.9,258.7c0,1.2-0.2,2.1-0.6,2.7c-0.4,0.6-1.1,0.8-2.1,0.8s-1.8-0.3-2.1-0.8c-0.4-0.6-0.6-1.5-0.6-2.7
		s0.2-2.1,0.6-2.7c0.4-0.6,1.1-0.9,2.1-0.9c1,0,1.7,0.3,2.1,0.9C436.7,256.6,436.9,257.5,436.9,258.7z M432.2,258.7
		c0,1,0.1,1.7,0.4,2.2s0.8,0.7,1.5,0.7s1.3-0.2,1.5-0.7c0.3-0.4,0.4-1.2,0.4-2.2c0-1-0.1-1.8-0.4-2.2s-0.8-0.7-1.5-0.7
		s-1.3,0.2-1.5,0.7C432.3,257,432.2,257.7,432.2,258.7z"/>
	<path class="st0" d="M441.3,257.1h0.8v5h-0.8v-0.3c-0.5,0.3-1,0.4-1.5,0.4c-0.7,0-1.1-0.2-1.4-0.5c-0.2-0.4-0.3-1-0.3-2v-2.6h0.8
		v2.6c0,0.7,0.1,1.2,0.2,1.5c0.1,0.2,0.4,0.4,0.9,0.4c0.2,0,0.4,0,0.7-0.1c0.2-0.1,0.4-0.1,0.5-0.2l0.2-0.1V257.1z"/>
	<path class="st0" d="M446.1,257.8h-1.6v2.4c0,0.6,0,1,0.1,1.1c0.1,0.2,0.3,0.3,0.6,0.3l0.9-0.1l0,0.6c-0.4,0.1-0.8,0.1-1,0.1
		c-0.5,0-0.9-0.1-1.1-0.4c-0.2-0.3-0.3-0.7-0.3-1.5v-2.6H443v-0.7h0.7v-1.5h0.7v1.5h1.6V257.8z"/>
</g>
</svg>
