<?xml version="1.0" encoding="utf-8"?>
<!-- Generator: Adobe Illustrator 21.0.2, SVG Export Plug-In . SVG Version: 6.00 Build 0)  -->
<svg version="1.1" id="Layer_1" xmlns="http://www.w3.org/2000/svg" xmlns:xlink="http://www.w3.org/1999/xlink" x="0px" y="0px"
	 viewBox="0 0 254.3 440.6" style="enable-background:new 0 0 254.3 440.6;" xml:space="preserve">
<style type="text/css">
	.st0{fill:#FFFFFF;}
	.st1{fill:#0373B4;}
	.st2{enable-background:new    ;}
</style>
<g id="XMLID_1_">
	<g id="XMLID_75_">
		<rect x="125.4" y="48.9" class="st0" width="3" height="368"/>
	</g>
</g>
<g id="XMLID_201_">
	<rect x="11.6" y="12.3" class="st1" width="230.6" height="39.5"/>
</g>
<g id="XMLID_2_">
	<rect x="11.6" y="66.2" class="st1" width="230.6" height="39.5"/>
</g>
<g id="XMLID_3_">
	<rect x="11.6" y="120" class="st1" width="230.6" height="39.5"/>
</g>
<g id="XMLID_4_">
	<rect x="11.6" y="173.8" class="st1" width="230.6" height="39.5"/>
</g>
<g id="XMLID_5_">
	<rect x="11.6" y="227.6" class="st1" width="230.6" height="39.5"/>
</g>
<g id="XMLID_6_">
	<rect x="11.6" y="281.5" class="st1" width="230.6" height="39.5"/>
</g>
<g id="XMLID_7_">
	<rect x="11.6" y="335.3" class="st1" width="230.6" height="39.5"/>
</g>
<g id="XMLID_8_">
	<rect x="11.6" y="389.1" class="st1" width="230.6" height="39.5"/>
</g>
<g class="st2">
	<path class="st0" d="M63.6,37.7V25h2.1v12.7H63.6z"/>
	<path class="st0" d="M68.3,32.1v-2.7h2.2v2.7H68.3z M68.3,37.7V35h2.2v2.7H68.3z"/>
</g>
<g class="st2">
	<path class="st0" d="M77,37.7V26.6h1v11.1H77z"/>
	<path class="st0" d="M81.6,37.7h-0.9v-8h0.9v0.6c0.9-0.5,1.8-0.8,2.6-0.8c1.1,0,1.8,0.3,2.1,0.8c0.4,0.6,0.5,1.6,0.5,3.1v4.2h-1
		v-4.2c0-1.2-0.1-2.1-0.4-2.5c-0.2-0.4-0.7-0.6-1.5-0.6c-0.4,0-0.8,0.1-1.2,0.2c-0.4,0.1-0.7,0.2-1,0.3l-0.3,0.2V37.7z"/>
	<path class="st0" d="M91.6,30.4c-1.3,0-1.9,0.5-1.9,1.4c0,0.4,0.1,0.7,0.4,0.9S91,33,92,33.2c1,0.2,1.7,0.4,2.1,0.7
		c0.4,0.3,0.6,0.8,0.6,1.7c0,0.8-0.3,1.4-0.8,1.8c-0.5,0.4-1.3,0.6-2.3,0.6c-0.6,0-1.3-0.1-2.3-0.2l-0.5-0.1l0.1-0.8
		c1.2,0.2,2.1,0.3,2.8,0.3c0.6,0,1.1-0.1,1.5-0.3s0.5-0.6,0.5-1.1s-0.1-0.9-0.4-1.1s-0.9-0.3-1.9-0.5s-1.6-0.4-2-0.6
		c-0.4-0.3-0.6-0.8-0.6-1.6c0-0.8,0.3-1.3,0.8-1.7c0.5-0.4,1.2-0.5,2-0.5c0.6,0,1.4,0.1,2.4,0.2l0.4,0.1l0,0.8
		C93.2,30.5,92.3,30.4,91.6,30.4z"/>
	<path class="st0" d="M96.6,27.7v-1.2h0.9v1.2H96.6z M96.6,37.7v-8h0.9v8H96.6z"/>
	<path class="st0" d="M106.4,38.9c0,0.9-0.3,1.6-0.9,2c-0.6,0.4-1.5,0.6-2.7,0.6c-1.2,0-2.1-0.2-2.5-0.5c-0.5-0.4-0.7-1-0.7-1.9
		c0-0.4,0.1-0.8,0.3-1.1c0.2-0.3,0.5-0.6,1-0.9c-0.3-0.2-0.4-0.5-0.4-1.1c0-0.2,0.1-0.5,0.4-1l0.1-0.2c-0.9-0.4-1.3-1.2-1.3-2.4
		c0-1.8,1-2.7,2.9-2.7c0.5,0,1,0.1,1.4,0.2l0.2,0l2.3,0v0.8l-1.6,0c0.4,0.4,0.6,1,0.6,1.9s-0.2,1.5-0.7,1.9
		c-0.5,0.4-1.3,0.6-2.3,0.6c-0.3,0-0.6,0-0.8-0.1c-0.2,0.5-0.3,0.9-0.3,1c0,0.4,0.1,0.6,0.3,0.6s0.8,0.1,1.9,0.1
		c1,0,1.8,0.2,2.2,0.5C106.2,37.4,106.4,38,106.4,38.9z M100.5,39c0,0.6,0.2,1.1,0.5,1.3c0.3,0.2,0.9,0.4,1.9,0.4
		c0.9,0,1.6-0.1,2-0.4c0.4-0.3,0.6-0.7,0.6-1.3s-0.1-1-0.4-1.2c-0.3-0.2-0.8-0.3-1.6-0.3l-1.8-0.1c-0.4,0.3-0.7,0.5-0.8,0.7
		C100.6,38.4,100.5,38.6,100.5,39z M100.6,32.2c0,0.7,0.1,1.2,0.4,1.5c0.3,0.3,0.8,0.4,1.5,0.4s1.2-0.1,1.5-0.4
		c0.3-0.3,0.4-0.8,0.4-1.5c0-0.7-0.1-1.2-0.4-1.5c-0.3-0.3-0.8-0.4-1.5-0.4s-1.2,0.1-1.5,0.4C100.8,31.1,100.6,31.6,100.6,32.2z"/>
	<path class="st0" d="M109,37.7h-0.9V26.1h0.9v4c0.9-0.4,1.8-0.6,2.6-0.6c1.1,0,1.8,0.3,2.1,0.8s0.5,1.6,0.5,3.1v4.2h-1v-4.2
		c0-1.2-0.1-2.1-0.3-2.5c-0.2-0.4-0.7-0.6-1.5-0.6c-0.4,0-0.8,0-1.2,0.1c-0.4,0.1-0.7,0.2-1,0.3l-0.3,0.1V37.7z"/>
	<path class="st0" d="M120.6,30.5h-2.7v4c0,1,0.1,1.7,0.2,2s0.5,0.5,1.1,0.5l1.5-0.1l0.1,0.8c-0.7,0.1-1.2,0.2-1.6,0.2
		c-0.8,0-1.4-0.2-1.7-0.6c-0.3-0.4-0.5-1.2-0.5-2.3v-4.4h-1.2v-0.8h1.2v-2.5h1v2.5h2.7V30.5z"/>
	<path class="st0" d="M127.4,27.2c0.5-0.4,1.1-0.6,2-0.6c0.9,0,1.5,0.2,2,0.6c0.4,0.4,0.7,1,0.7,1.8c0,0.7-0.2,1.3-0.6,1.8
		c-0.4,0.4-1,0.8-2,1.2l2.6,2.6c0.1-0.3,0.2-0.7,0.3-1.3c0.1-0.6,0.2-1.1,0.2-1.5l0.9,0c-0.1,1.4-0.4,2.5-0.7,3.3l2.1,2l-0.6,0.7
		l-2-1.9c-0.7,1.3-1.9,1.9-3.5,1.9c-1.4,0-2.4-0.3-3-0.9c-0.6-0.6-0.9-1.4-0.9-2.4c0-1,0.2-1.8,0.6-2.2c0.4-0.5,1-0.8,1.9-1.1
		c-0.4-0.4-0.6-0.8-0.7-1.1c-0.1-0.3-0.2-0.7-0.2-1.2C126.7,28.1,127,27.6,127.4,27.2z M128.9,37c1.4,0,2.3-0.5,2.8-1.6l-3.5-3.5
		c-0.8,0.2-1.3,0.5-1.7,0.9c-0.3,0.4-0.5,1-0.5,1.7C126.1,36.1,127,37,128.9,37z M127.7,29c0,0.7,0.2,1.3,0.7,1.8l0.5,0.5
		c0.8-0.3,1.4-0.6,1.7-1c0.3-0.3,0.5-0.8,0.5-1.4c0-1.1-0.6-1.6-1.7-1.6C128.3,27.4,127.7,27.9,127.7,29z"/>
	<path class="st0" d="M141.3,37.7h-1V26.6h1v5.2l1.9,0l3.1-5.2h1.1l-3.4,5.6l3.6,5.5h-1.2l-3.2-5l-1.9,0V37.7z"/>
	<path class="st0" d="M149.1,27.7v-1.2h0.9v1.2H149.1z M149.1,37.7v-8h0.9v8H149.1z"/>
	<path class="st0" d="M155.4,29.5c0.5,0,1.1,0.1,1.7,0.2l0.4,0l0,0.8c-0.8-0.1-1.5-0.2-1.9-0.2c-0.9,0-1.6,0.2-2,0.7
		c-0.4,0.5-0.5,1.3-0.5,2.6c0,1.2,0.2,2.1,0.5,2.6c0.3,0.5,1,0.7,2,0.7l1.9-0.1l0,0.8c-0.9,0.1-1.7,0.2-2.1,0.2
		c-1.3,0-2.1-0.3-2.6-0.9c-0.5-0.6-0.7-1.7-0.7-3.2s0.3-2.6,0.8-3.2C153.4,29.8,154.2,29.5,155.4,29.5z"/>
	<path class="st0" d="M160.3,37.7h-0.9V26.1h0.9V33l1.4,0l2.5-3.3h1.1l-2.7,3.7l2.9,4.3h-1.1l-2.6-3.9l-1.4,0V37.7z"/>
	<path class="st0" d="M166.2,33.7v-0.9h4.9v0.9H166.2z"/>
	<path class="st0" d="M173,33.7c0-1.5,0.3-2.6,0.8-3.2c0.5-0.6,1.4-0.9,2.6-0.9c1.2,0,2.1,0.3,2.6,0.9c0.5,0.6,0.8,1.7,0.8,3.2
		s-0.2,2.6-0.7,3.2c-0.5,0.6-1.3,1-2.6,1s-2.2-0.3-2.7-1C173.2,36.3,173,35.2,173,33.7z M174,33.7c0,1.3,0.1,2.1,0.4,2.6
		c0.3,0.5,0.9,0.7,1.9,0.7s1.6-0.2,1.9-0.7s0.4-1.4,0.4-2.6c0-1.3-0.2-2.1-0.5-2.6s-1-0.7-1.9-0.7s-1.5,0.2-1.9,0.7
		C174.2,31.5,174,32.4,174,33.7z"/>
	<path class="st0" d="M183.1,30.5v7.2h-1v-7.2h-1v-0.8h1v-0.8c0-1.1,0.2-1.9,0.5-2.3c0.3-0.4,0.9-0.6,1.6-0.6l1.6,0.1v0.8
		c-0.6,0-1.1,0-1.4,0c-0.5,0-0.8,0.1-1,0.4s-0.3,0.8-0.3,1.6v0.8h2.4v0.8H183.1z"/>
	<path class="st0" d="M188.2,30.5v7.2h-1v-7.2h-1v-0.8h1v-0.8c0-1.1,0.2-1.9,0.5-2.3c0.3-0.4,0.9-0.6,1.6-0.6l1.6,0.1v0.8
		c-0.6,0-1.1,0-1.4,0c-0.5,0-0.8,0.1-1,0.4c-0.2,0.3-0.3,0.8-0.3,1.6v0.8h2.4v0.8H188.2z"/>
</g>
<g class="st2">
	<path class="st0" d="M57.9,91.5V78.7h2.1v12.7H57.9z"/>
	<path class="st0" d="M62.9,91.5V78.7h2.1v12.7H62.9z"/>
	<path class="st0" d="M67.5,85.8v-2.7h2.2v2.7H67.5z M67.5,91.5v-2.7h2.2v2.7H67.5z"/>
</g>
<g class="st2">
	<path class="st0" d="M80.4,87.6h-3.1v3.9h-1V80.3h4.1c1.2,0,2.1,0.3,2.6,0.9s0.8,1.5,0.8,2.7C83.8,86.3,82.7,87.6,80.4,87.6z
		 M77.3,86.7h3.1c1.6,0,2.4-0.9,2.4-2.8c0-0.9-0.2-1.6-0.6-2s-1-0.6-1.9-0.6h-3.1V86.7z"/>
	<path class="st0" d="M85.6,91.5v-8h0.9v1.2c0.4-0.3,0.9-0.5,1.4-0.8c0.6-0.3,1.1-0.4,1.6-0.5v1c-0.5,0.1-0.9,0.2-1.4,0.4
		c-0.5,0.2-0.9,0.4-1.2,0.5l-0.4,0.2v6H85.6z"/>
	<path class="st0" d="M90.5,87.4c0-1.5,0.3-2.6,0.8-3.2c0.5-0.6,1.4-0.9,2.6-0.9c1.2,0,2.1,0.3,2.6,0.9c0.5,0.6,0.8,1.7,0.8,3.2
		S97,90,96.5,90.7c-0.5,0.6-1.3,1-2.6,1c-1.3,0-2.2-0.3-2.7-1C90.7,90,90.5,88.9,90.5,87.4z M91.5,87.4c0,1.3,0.1,2.1,0.4,2.6
		c0.3,0.5,0.9,0.7,1.9,0.7c1,0,1.6-0.2,1.9-0.7c0.3-0.5,0.4-1.4,0.4-2.6c0-1.3-0.2-2.1-0.5-2.6s-1-0.7-1.9-0.7
		c-0.9,0-1.5,0.2-1.9,0.7C91.6,85.3,91.5,86.2,91.5,87.4z"/>
	<path class="st0" d="M99.3,91.3v-7.8h1v7.9c0,0.9-0.2,1.7-0.5,2.1c-0.3,0.5-1,1-2.1,1.5l-0.4-0.8c0.9-0.5,1.4-0.9,1.7-1.2
		C99.1,92.6,99.3,92.1,99.3,91.3z M99.3,81.5v-1.2h1v1.2H99.3z"/>
	<path class="st0" d="M107.9,90.7l0.5,0l0,0.8c-1.2,0.1-2.2,0.2-3.1,0.2c-1.2,0-2-0.4-2.4-1s-0.7-1.7-0.7-3.1c0-2.8,1.1-4.2,3.3-4.2
		c1.1,0,1.8,0.3,2.4,0.9c0.5,0.6,0.8,1.6,0.8,2.9l0,0.8h-5.4c0,1,0.2,1.7,0.5,2.2s0.9,0.7,1.7,0.7C106.3,90.8,107.1,90.7,107.9,90.7
		z M103.2,87.1h4.5c0-1.1-0.2-1.8-0.5-2.3c-0.3-0.4-0.9-0.7-1.7-0.7s-1.3,0.2-1.7,0.7S103.2,86,103.2,87.1z"/>
	<path class="st0" d="M113.6,83.3c0.5,0,1.1,0.1,1.7,0.2l0.4,0l0,0.8c-0.8-0.1-1.5-0.2-1.9-0.2c-0.9,0-1.6,0.2-2,0.7
		c-0.4,0.5-0.5,1.3-0.5,2.6c0,1.2,0.2,2.1,0.5,2.6c0.3,0.5,1,0.7,2,0.7l1.9-0.1l0,0.8c-1,0.1-1.7,0.2-2.1,0.2
		c-1.3,0-2.1-0.3-2.6-0.9c-0.5-0.6-0.7-1.7-0.7-3.2s0.3-2.6,0.8-3.2S112.4,83.3,113.6,83.3z"/>
	<path class="st0" d="M121.6,84.3H119v4c0,1,0.1,1.7,0.2,2s0.5,0.5,1.1,0.5l1.5-0.1l0.1,0.8c-0.7,0.1-1.2,0.2-1.6,0.2
		c-0.8,0-1.4-0.2-1.7-0.6c-0.3-0.4-0.5-1.2-0.5-2.3v-4.4h-1.2v-0.8h1.2v-2.5h1v2.5h2.7V84.3z"/>
	<path class="st0" d="M126.9,91.5V80.3h1v11.1H126.9z"/>
	<path class="st0" d="M131.4,91.5h-0.9v-8h0.9V84c0.8-0.5,1.7-0.8,2.6-0.8c0.9,0,1.6,0.3,2,0.8c0.4-0.2,0.9-0.4,1.4-0.6
		c0.5-0.2,1-0.2,1.5-0.2c1.1,0,1.8,0.3,2.1,0.8c0.4,0.6,0.5,1.6,0.5,3.1v4.2h-0.9v-4.2c0-1.2-0.1-2.1-0.3-2.5
		c-0.2-0.4-0.7-0.6-1.5-0.6c-0.4,0-0.8,0.1-1.2,0.2s-0.7,0.2-0.9,0.3l-0.3,0.2c0.2,0.4,0.2,1.2,0.2,2.5v4.2h-1v-4.1
		c0-1.2-0.1-2.1-0.3-2.5c-0.2-0.4-0.7-0.6-1.5-0.6c-0.4,0-0.8,0.1-1.1,0.2s-0.7,0.2-0.9,0.3l-0.3,0.2V91.5z"/>
	<path class="st0" d="M144.7,91.5h-0.9v-8h0.9V84c0.8-0.5,1.7-0.8,2.6-0.8c0.9,0,1.6,0.3,2,0.8c0.4-0.2,0.9-0.4,1.4-0.6
		c0.5-0.2,1-0.2,1.5-0.2c1.1,0,1.8,0.3,2.1,0.8c0.4,0.6,0.5,1.6,0.5,3.1v4.2h-0.9v-4.2c0-1.2-0.1-2.1-0.3-2.5
		c-0.2-0.4-0.7-0.6-1.5-0.6c-0.4,0-0.8,0.1-1.2,0.2s-0.7,0.2-0.9,0.3l-0.3,0.2c0.2,0.4,0.2,1.2,0.2,2.5v4.2h-1v-4.1
		c0-1.2-0.1-2.1-0.3-2.5c-0.2-0.4-0.7-0.6-1.5-0.6c-0.4,0-0.8,0.1-1.1,0.2s-0.7,0.2-0.9,0.3l-0.3,0.2V91.5z"/>
	<path class="st0" d="M162.5,90.7l0.5,0l0,0.8c-1.2,0.1-2.2,0.2-3.1,0.2c-1.2,0-2-0.4-2.4-1s-0.7-1.7-0.7-3.1c0-2.8,1.1-4.2,3.3-4.2
		c1.1,0,1.8,0.3,2.4,0.9c0.5,0.6,0.8,1.6,0.8,2.9l0,0.8h-5.4c0,1,0.2,1.7,0.5,2.2s0.9,0.7,1.7,0.7C160.8,90.8,161.6,90.7,162.5,90.7
		z M157.8,87.1h4.5c0-1.1-0.2-1.8-0.5-2.3c-0.3-0.4-0.9-0.7-1.7-0.7s-1.3,0.2-1.7,0.7S157.8,86,157.8,87.1z"/>
	<path class="st0" d="M165.2,91.5v-8h0.9v1.2c0.4-0.3,0.9-0.5,1.4-0.8c0.6-0.3,1.1-0.4,1.6-0.5v1c-0.5,0.1-0.9,0.2-1.4,0.4
		c-0.5,0.2-0.9,0.4-1.2,0.5l-0.4,0.2v6H165.2z"/>
	<path class="st0" d="M173.1,84.2c-1.3,0-1.9,0.5-1.9,1.4c0,0.4,0.1,0.7,0.4,0.9s0.9,0.3,1.9,0.5c1,0.2,1.7,0.4,2.1,0.7
		c0.4,0.3,0.6,0.8,0.6,1.7c0,0.8-0.3,1.4-0.8,1.8c-0.5,0.4-1.3,0.6-2.3,0.6c-0.6,0-1.3-0.1-2.3-0.2l-0.5-0.1l0.1-0.8
		c1.2,0.2,2.1,0.3,2.8,0.3c0.6,0,1.1-0.1,1.5-0.3s0.5-0.6,0.5-1.1s-0.1-0.9-0.4-1.1c-0.3-0.2-0.9-0.3-1.9-0.5c-1-0.1-1.6-0.4-2-0.6
		c-0.4-0.3-0.6-0.8-0.6-1.6c0-0.8,0.3-1.3,0.8-1.7c0.5-0.4,1.2-0.5,2-0.5c0.6,0,1.4,0.1,2.4,0.2l0.4,0.1l0,0.8
		C174.7,84.3,173.8,84.2,173.1,84.2z"/>
	<path class="st0" d="M178.1,81.5v-1.2h0.9v1.2H178.1z M178.1,91.5v-8h0.9v8H178.1z"/>
	<path class="st0" d="M181.1,87.4c0-1.5,0.3-2.6,0.8-3.2c0.5-0.6,1.4-0.9,2.6-0.9c1.2,0,2.1,0.3,2.6,0.9c0.5,0.6,0.8,1.7,0.8,3.2
		s-0.2,2.6-0.7,3.2c-0.5,0.6-1.3,1-2.6,1s-2.2-0.3-2.7-1C181.3,90,181.1,88.9,181.1,87.4z M182.1,87.4c0,1.3,0.1,2.1,0.4,2.6
		c0.3,0.5,0.9,0.7,1.9,0.7s1.6-0.2,1.9-0.7s0.4-1.4,0.4-2.6c0-1.3-0.2-2.1-0.5-2.6s-1-0.7-1.9-0.7s-1.5,0.2-1.9,0.7
		C182.2,85.3,182.1,86.2,182.1,87.4z"/>
	<path class="st0" d="M190.8,91.5h-0.9v-8h0.9V84c0.9-0.5,1.8-0.8,2.6-0.8c1.1,0,1.8,0.3,2.1,0.8c0.4,0.6,0.5,1.6,0.5,3.1v4.2h-1
		v-4.2c0-1.2-0.1-2.1-0.4-2.5c-0.2-0.4-0.7-0.6-1.5-0.6c-0.4,0-0.8,0.1-1.2,0.2c-0.4,0.1-0.7,0.2-1,0.3l-0.3,0.2V91.5z"/>
</g>
<g class="st2">
	<path class="st0" d="M32.3,145.2v-12.7h2.1v12.7H32.3z"/>
	<path class="st0" d="M37.3,145.2v-12.7h2.1v12.7H37.3z"/>
	<path class="st0" d="M42.3,145.2v-12.7h2.1v12.7H42.3z"/>
	<path class="st0" d="M47,139.6v-2.7h2.2v2.7H47z M47,145.2v-2.7h2.2v2.7H47z"/>
</g>
<g class="st2">
	<path class="st0" d="M55.8,145.2v-11.1h1.9l3.4,9.7l3.4-9.7h1.9v11.1h-1v-10.1h-0.2l-3.5,9.7h-1.2l-3.5-9.7h-0.2v10.1H55.8z"/>
	<path class="st0" d="M74.4,139.6v4.3c0,0.4,0.4,0.6,1,0.7l0,0.8c-0.8,0-1.4-0.2-1.8-0.6c-1,0.4-2,0.7-3,0.7c-0.7,0-1.3-0.2-1.6-0.6
		c-0.4-0.4-0.6-1-0.6-1.8s0.2-1.3,0.6-1.7s1-0.6,1.8-0.7l2.7-0.3v-0.8c0-0.6-0.1-1-0.4-1.3c-0.3-0.3-0.6-0.4-1-0.4
		c-0.7,0-1.6,0.1-2.7,0.2l-0.5,0l0-0.8c1.2-0.2,2.2-0.3,3.1-0.3c0.9,0,1.5,0.2,1.9,0.6S74.4,138.7,74.4,139.6z M69.4,142.9
		c0,1.1,0.4,1.6,1.3,1.6c0.4,0,0.8,0,1.3-0.1s0.8-0.2,1.1-0.3l0.4-0.1v-2.9l-2.6,0.3c-0.5,0-0.9,0.2-1.1,0.4
		C69.5,142.1,69.4,142.5,69.4,142.9z"/>
	<path class="st0" d="M76.9,145.2v-8h0.9v1.2c0.4-0.3,0.9-0.5,1.4-0.8c0.6-0.3,1.1-0.4,1.6-0.5v1c-0.5,0.1-0.9,0.2-1.4,0.4
		s-0.9,0.4-1.2,0.5l-0.4,0.2v6H76.9z"/>
	<path class="st0" d="M83.3,145.2h-0.9v-11.6h0.9v6.9l1.4,0l2.5-3.3h1.1l-2.7,3.7l2.9,4.3h-1.1l-2.6-3.9l-1.4,0V145.2z"/>
	<path class="st0" d="M94.9,144.4l0.5,0l0,0.8c-1.2,0.1-2.2,0.2-3.1,0.2c-1.2,0-2-0.4-2.4-1c-0.5-0.7-0.7-1.7-0.7-3.1
		c0-2.8,1.1-4.2,3.3-4.2c1.1,0,1.8,0.3,2.4,0.9c0.5,0.6,0.8,1.6,0.8,2.9l0,0.8h-5.4c0,1,0.2,1.7,0.5,2.2s0.9,0.7,1.7,0.7
		S94.1,144.5,94.9,144.4z M90.3,140.8h4.5c0-1.1-0.2-1.8-0.5-2.3c-0.3-0.4-0.9-0.7-1.7-0.7s-1.3,0.2-1.7,0.7S90.3,139.8,90.3,140.8z
		"/>
	<path class="st0" d="M101.7,138.1H99v4c0,1,0.1,1.7,0.2,2s0.5,0.5,1.1,0.5l1.5-0.1l0.1,0.8c-0.7,0.1-1.2,0.2-1.6,0.2
		c-0.8,0-1.4-0.2-1.7-0.6c-0.3-0.4-0.5-1.2-0.5-2.3v-4.4h-1.2v-0.8h1.2v-2.5h1v2.5h2.7V138.1z"/>
	<path class="st0" d="M107.9,140.8v4.4h-1v-11.1h4.1c1.2,0,2,0.3,2.6,0.8c0.6,0.5,0.9,1.4,0.9,2.5c0,1.8-0.7,2.9-2.1,3.2l2.3,4.6
		h-1.1l-2.2-4.4H107.9z M113.4,137.4c0-0.8-0.2-1.4-0.6-1.8c-0.4-0.4-1-0.6-1.8-0.6h-3.1v5h3.1C112.6,140,113.4,139.1,113.4,137.4z"
		/>
	<path class="st0" d="M121.7,144.4l0.5,0l0,0.8c-1.2,0.1-2.2,0.2-3.1,0.2c-1.2,0-2-0.4-2.4-1c-0.5-0.7-0.7-1.7-0.7-3.1
		c0-2.8,1.1-4.2,3.3-4.2c1.1,0,1.8,0.3,2.4,0.9c0.5,0.6,0.8,1.6,0.8,2.9l0,0.8H117c0,1,0.2,1.7,0.5,2.2s0.9,0.7,1.7,0.7
		S120.9,144.5,121.7,144.4z M117,140.8h4.5c0-1.1-0.2-1.8-0.5-2.3c-0.3-0.4-0.9-0.7-1.7-0.7s-1.3,0.2-1.7,0.7S117,139.8,117,140.8z"
		/>
	<path class="st0" d="M126.9,137.9c-1.3,0-1.9,0.5-1.9,1.4c0,0.4,0.1,0.7,0.4,0.9s0.9,0.3,1.9,0.5c1,0.2,1.7,0.4,2.1,0.7
		c0.4,0.3,0.6,0.8,0.6,1.7c0,0.8-0.3,1.4-0.8,1.8c-0.5,0.4-1.3,0.6-2.3,0.6c-0.6,0-1.3-0.1-2.3-0.2l-0.5-0.1l0.1-0.8
		c1.2,0.2,2.1,0.3,2.8,0.3c0.6,0,1.1-0.1,1.5-0.3s0.5-0.6,0.5-1.1s-0.1-0.9-0.4-1.1c-0.3-0.2-0.9-0.3-1.9-0.5s-1.6-0.4-2-0.6
		c-0.4-0.3-0.6-0.8-0.6-1.6c0-0.8,0.3-1.3,0.8-1.7c0.5-0.4,1.2-0.5,2-0.5c0.6,0,1.4,0.1,2.4,0.2l0.4,0.1l0,0.8
		C128.5,138,127.6,137.9,126.9,137.9z"/>
	<path class="st0" d="M137.2,144.4l0.5,0l0,0.8c-1.2,0.1-2.2,0.2-3.1,0.2c-1.2,0-2-0.4-2.4-1s-0.7-1.7-0.7-3.1
		c0-2.8,1.1-4.2,3.3-4.2c1.1,0,1.8,0.3,2.4,0.9c0.5,0.6,0.8,1.6,0.8,2.9l0,0.8h-5.4c0,1,0.2,1.7,0.5,2.2s0.9,0.7,1.7,0.7
		C135.6,144.5,136.4,144.5,137.2,144.4z M132.5,140.8h4.5c0-1.1-0.2-1.8-0.5-2.3c-0.3-0.4-0.9-0.7-1.7-0.7s-1.3,0.2-1.7,0.7
		S132.5,139.8,132.5,140.8z"/>
	<path class="st0" d="M145.5,139.6v4.3c0,0.4,0.4,0.6,1,0.7l0,0.8c-0.8,0-1.4-0.2-1.8-0.6c-1,0.4-2,0.7-3,0.7
		c-0.7,0-1.3-0.2-1.6-0.6c-0.4-0.4-0.6-1-0.6-1.8s0.2-1.3,0.6-1.7c0.4-0.4,1-0.6,1.8-0.7l2.7-0.3v-0.8c0-0.6-0.1-1-0.4-1.3
		c-0.3-0.3-0.6-0.4-1-0.4c-0.7,0-1.6,0.1-2.7,0.2l-0.5,0l0-0.8c1.2-0.2,2.2-0.3,3.1-0.3c0.9,0,1.5,0.2,1.9,0.6
		S145.5,138.7,145.5,139.6z M140.4,142.9c0,1.1,0.4,1.6,1.3,1.6c0.4,0,0.8,0,1.3-0.1c0.5-0.1,0.8-0.2,1.1-0.3l0.4-0.1v-2.9l-2.6,0.3
		c-0.5,0-0.9,0.2-1.1,0.4C140.6,142.1,140.4,142.5,140.4,142.9z"/>
	<path class="st0" d="M147.9,145.2v-8h0.9v1.2c0.4-0.3,0.9-0.5,1.4-0.8c0.6-0.3,1.1-0.4,1.6-0.5v1c-0.5,0.1-0.9,0.2-1.4,0.4
		c-0.5,0.2-0.9,0.4-1.2,0.5l-0.4,0.2v6H147.9z"/>
	<path class="st0" d="M156.1,137.1c0.5,0,1.1,0.1,1.7,0.2l0.4,0l0,0.8c-0.8-0.1-1.5-0.2-1.9-0.2c-0.9,0-1.6,0.2-2,0.7
		c-0.4,0.5-0.5,1.3-0.5,2.6c0,1.2,0.2,2.1,0.5,2.6c0.3,0.5,1,0.7,2,0.7l1.9-0.1l0,0.8c-0.9,0.1-1.7,0.2-2.1,0.2
		c-1.3,0-2.1-0.3-2.6-0.9c-0.5-0.6-0.7-1.7-0.7-3.2s0.3-2.6,0.8-3.2C154.1,137.4,154.9,137.1,156.1,137.1z"/>
</g>
<g class="st2">
	<path class="st0" d="M161.7,145.2h-0.9v-11.6h0.9v4c0.9-0.4,1.8-0.6,2.6-0.6c1.1,0,1.8,0.3,2.1,0.8s0.5,1.6,0.5,3.1v4.2h-1v-4.2
		c0-1.2-0.1-2.1-0.3-2.5c-0.2-0.4-0.7-0.6-1.5-0.6c-0.4,0-0.8,0-1.2,0.1s-0.7,0.2-1,0.3l-0.3,0.1V145.2z"/>
	<path class="st0" d="M169.6,145l4.5-11.1l0.9,0.3l-4.5,11.1L169.6,145z"/>
</g>
<g class="st2">
	<path class="st0" d="M179.1,145.2v-11.1h1v11.1H179.1z"/>
	<path class="st0" d="M183.6,145.2h-0.9v-8h0.9v0.6c0.9-0.5,1.8-0.8,2.6-0.8c1.1,0,1.8,0.3,2.1,0.8s0.5,1.6,0.5,3.1v4.2h-1v-4.2
		c0-1.2-0.1-2.1-0.4-2.5c-0.2-0.4-0.7-0.6-1.5-0.6c-0.4,0-0.8,0.1-1.2,0.2s-0.7,0.2-1,0.3l-0.3,0.2V145.2z"/>
	<path class="st0" d="M193.6,137.9c-1.3,0-1.9,0.5-1.9,1.4c0,0.4,0.1,0.7,0.4,0.9s0.9,0.3,1.9,0.5c1,0.2,1.7,0.4,2.1,0.7
		c0.4,0.3,0.6,0.8,0.6,1.7c0,0.8-0.3,1.4-0.8,1.8c-0.5,0.4-1.3,0.6-2.3,0.6c-0.6,0-1.3-0.1-2.3-0.2l-0.5-0.1l0.1-0.8
		c1.2,0.2,2.1,0.3,2.8,0.3c0.6,0,1.1-0.1,1.5-0.3s0.5-0.6,0.5-1.1s-0.1-0.9-0.4-1.1c-0.3-0.2-0.9-0.3-1.9-0.5c-1-0.1-1.6-0.4-2-0.6
		c-0.4-0.3-0.6-0.8-0.6-1.6c0-0.8,0.3-1.3,0.8-1.7c0.5-0.4,1.2-0.5,2-0.5c0.6,0,1.4,0.1,2.4,0.2l0.4,0.1l0,0.8
		C195.2,138,194.3,137.9,193.6,137.9z"/>
	<path class="st0" d="M198.6,135.2V134h0.9v1.2H198.6z M198.6,145.2v-8h0.9v8H198.6z"/>
	<path class="st0" d="M208.4,146.4c0,0.9-0.3,1.6-0.9,2c-0.6,0.4-1.5,0.6-2.7,0.6c-1.2,0-2.1-0.2-2.5-0.5c-0.5-0.4-0.7-1-0.7-1.9
		c0-0.4,0.1-0.8,0.3-1.1c0.2-0.3,0.5-0.6,1-0.9c-0.3-0.2-0.4-0.5-0.4-1.1c0-0.2,0.1-0.5,0.4-1l0.1-0.2c-0.9-0.4-1.3-1.2-1.3-2.4
		c0-1.8,1-2.7,2.9-2.7c0.5,0,1,0.1,1.4,0.2l0.2,0l2.3,0v0.8l-1.6,0c0.4,0.4,0.6,1,0.6,1.9s-0.2,1.5-0.7,1.9
		c-0.5,0.4-1.2,0.6-2.3,0.6c-0.3,0-0.6,0-0.8-0.1c-0.2,0.5-0.3,0.9-0.3,1c0,0.4,0.1,0.6,0.3,0.6s0.8,0.1,1.9,0.1
		c1,0,1.8,0.2,2.2,0.5C208.2,144.9,208.4,145.5,208.4,146.4z M202.6,146.5c0,0.6,0.2,1.1,0.5,1.3s0.9,0.4,1.9,0.4
		c0.9,0,1.6-0.1,2-0.4c0.4-0.3,0.6-0.7,0.6-1.3s-0.1-1-0.4-1.2c-0.3-0.2-0.8-0.3-1.6-0.3l-1.8-0.1c-0.4,0.3-0.7,0.5-0.8,0.7
		C202.6,145.9,202.6,146.1,202.6,146.5z M202.7,139.8c0,0.7,0.1,1.2,0.4,1.5c0.3,0.3,0.8,0.4,1.5,0.4c0.7,0,1.2-0.1,1.5-0.4
		c0.3-0.3,0.4-0.8,0.4-1.5c0-0.7-0.1-1.2-0.4-1.5c-0.3-0.3-0.8-0.4-1.5-0.4c-0.7,0-1.2,0.1-1.5,0.4S202.7,139.1,202.7,139.8z"/>
	<path class="st0" d="M211,145.2h-0.9v-11.6h0.9v4c0.9-0.4,1.8-0.6,2.6-0.6c1.1,0,1.8,0.3,2.1,0.8s0.5,1.6,0.5,3.1v4.2h-1v-4.2
		c0-1.2-0.1-2.1-0.3-2.5c-0.2-0.4-0.7-0.6-1.5-0.6c-0.4,0-0.8,0-1.2,0.1s-0.7,0.2-1,0.3l-0.3,0.1V145.2z"/>
	<path class="st0" d="M222.6,138.1h-2.7v4c0,1,0.1,1.7,0.2,2s0.5,0.5,1.1,0.5l1.5-0.1l0.1,0.8c-0.7,0.1-1.2,0.2-1.6,0.2
		c-0.8,0-1.4-0.2-1.7-0.6c-0.3-0.4-0.5-1.2-0.5-2.3v-4.4h-1.2v-0.8h1.2v-2.5h1v2.5h2.7V138.1z"/>
</g>
<g class="st2">
	<path class="st0" d="M37.9,199v-12.7H40V199H37.9z"/>
	<path class="st0" d="M50,186.2h2.2L49,199H45l-3.1-12.7H44l2.5,10.9h0.9L50,186.2z"/>
	<path class="st0" d="M53.4,193.3v-2.7h2.2v2.7H53.4z M53.4,199v-2.7h2.2v2.7H53.4z"/>
</g>
<g class="st2">
	<path class="st0" d="M62.5,199v-11.1h1V199H62.5z"/>
	<path class="st0" d="M67,199H66v-8H67v0.6c0.9-0.5,1.8-0.8,2.6-0.8c1.1,0,1.8,0.3,2.1,0.8c0.4,0.6,0.5,1.6,0.5,3.1v4.2h-1v-4.2
		c0-1.2-0.1-2.1-0.4-2.5c-0.2-0.4-0.7-0.6-1.5-0.6c-0.4,0-0.8,0.1-1.2,0.2c-0.4,0.1-0.7,0.2-1,0.3l-0.3,0.2V199z"/>
	<path class="st0" d="M74.5,195v-0.9h4.9v0.9H74.5z"/>
	<path class="st0" d="M87.7,187.4V199h-1v-0.6c-0.8,0.5-1.7,0.8-2.6,0.8c-0.4,0-0.7,0-1-0.1c-0.3-0.1-0.6-0.3-0.9-0.5
		c-0.6-0.5-0.9-1.6-0.9-3.2s0.3-2.7,0.8-3.4c0.5-0.7,1.4-1,2.6-1c0.5,0,1.1,0.1,2,0.2v-3.6H87.7z M83.6,198.2
		c0.2,0.1,0.5,0.1,0.8,0.1c0.3,0,0.7-0.1,1.1-0.2s0.7-0.2,1-0.3l0.3-0.2v-5.7c-0.9-0.1-1.5-0.2-2-0.2c-0.9,0-1.5,0.3-1.9,0.8
		c-0.3,0.6-0.5,1.4-0.5,2.6c0,1.4,0.2,2.3,0.6,2.7C83.2,197.9,83.4,198.1,83.6,198.2z"/>
	<path class="st0" d="M95.4,198.2l0.5,0l0,0.8c-1.2,0.1-2.2,0.2-3.1,0.2c-1.2,0-2-0.4-2.4-1c-0.5-0.7-0.7-1.7-0.7-3.1
		c0-2.8,1.1-4.2,3.3-4.2c1.1,0,1.8,0.3,2.4,0.9c0.5,0.6,0.8,1.6,0.8,2.9l0,0.8h-5.4c0,1,0.2,1.7,0.5,2.2s0.9,0.7,1.7,0.7
		S94.5,198.2,95.4,198.2z M90.7,194.6h4.5c0-1.1-0.2-1.8-0.5-2.3c-0.3-0.4-0.9-0.7-1.7-0.7s-1.3,0.2-1.7,0.7S90.7,193.6,90.7,194.6z
		"/>
	<path class="st0" d="M98.1,202.6V191h0.9v0.6c0.8-0.5,1.7-0.8,2.6-0.8s1.6,0.3,2.1,1c0.5,0.7,0.7,1.7,0.7,3.2s-0.3,2.5-0.8,3.2
		c-0.5,0.7-1.4,1-2.7,1c-0.7,0-1.3-0.1-1.9-0.2v3.6H98.1z M101.5,191.7c-0.4,0-0.7,0.1-1.1,0.2s-0.7,0.2-0.9,0.4l-0.4,0.2v5.7
		c0.7,0.1,1.4,0.2,1.9,0.2c0.9,0,1.6-0.3,1.9-0.8c0.4-0.5,0.6-1.4,0.6-2.6c0-1.2-0.2-2-0.5-2.5C102.6,191.9,102.2,191.7,101.5,191.7
		z"/>
	<path class="st0" d="M110.5,191.8h-2.7v4c0,1,0.1,1.7,0.2,2s0.5,0.5,1.1,0.5l1.5-0.1l0.1,0.8c-0.7,0.1-1.2,0.2-1.6,0.2
		c-0.8,0-1.4-0.2-1.7-0.6c-0.3-0.4-0.5-1.2-0.5-2.3v-4.4h-1.2V191h1.2v-2.5h1v2.5h2.7V191.8z"/>
	<path class="st0" d="M112.9,199H112v-11.6h0.9v4c0.9-0.4,1.8-0.6,2.6-0.6c1.1,0,1.8,0.3,2.1,0.8s0.5,1.6,0.5,3.1v4.2h-1v-4.2
		c0-1.2-0.1-2.1-0.3-2.5c-0.2-0.4-0.7-0.6-1.5-0.6c-0.4,0-0.8,0-1.2,0.1c-0.4,0.1-0.7,0.2-1,0.3l-0.3,0.1V199z"/>
	<path class="st0" d="M124.2,199v-11.1h1V199H124.2z"/>
	<path class="st0" d="M128.7,199h-0.9v-8h0.9v0.6c0.9-0.5,1.8-0.8,2.6-0.8c1.1,0,1.8,0.3,2.1,0.8s0.5,1.6,0.5,3.1v4.2h-1v-4.2
		c0-1.2-0.1-2.1-0.4-2.5c-0.2-0.4-0.7-0.6-1.5-0.6c-0.4,0-0.8,0.1-1.2,0.2s-0.7,0.2-1,0.3l-0.3,0.2V199z"/>
	<path class="st0" d="M138.7,191.7c-1.3,0-1.9,0.5-1.9,1.4c0,0.4,0.1,0.7,0.4,0.9s0.9,0.3,1.9,0.5c1,0.2,1.7,0.4,2.1,0.7
		c0.4,0.3,0.6,0.8,0.6,1.7c0,0.8-0.3,1.4-0.8,1.8c-0.5,0.4-1.3,0.6-2.3,0.6c-0.6,0-1.3-0.1-2.3-0.2l-0.5-0.1l0.1-0.8
		c1.2,0.2,2.1,0.3,2.8,0.3c0.6,0,1.1-0.1,1.5-0.3s0.5-0.6,0.5-1.1s-0.1-0.9-0.4-1.1c-0.3-0.2-0.9-0.3-1.9-0.5c-1-0.1-1.6-0.4-2-0.6
		c-0.4-0.3-0.6-0.8-0.6-1.6c0-0.8,0.3-1.3,0.8-1.7c0.5-0.4,1.2-0.5,2-0.5c0.6,0,1.4,0.1,2.4,0.2l0.4,0.1l0,0.8
		C140.4,191.8,139.5,191.7,138.7,191.7z"/>
	<path class="st0" d="M143.8,189v-1.2h0.9v1.2H143.8z M143.8,199v-8h0.9v8H143.8z"/>
	<path class="st0" d="M153.6,200.2c0,0.9-0.3,1.6-0.9,2c-0.6,0.4-1.5,0.6-2.7,0.6c-1.2,0-2.1-0.2-2.5-0.5c-0.5-0.4-0.7-1-0.7-1.9
		c0-0.4,0.1-0.8,0.3-1.1c0.2-0.3,0.5-0.6,1-0.9c-0.3-0.2-0.4-0.5-0.4-1.1c0-0.2,0.1-0.5,0.4-1l0.1-0.2c-0.9-0.4-1.3-1.2-1.3-2.4
		c0-1.8,1-2.7,2.9-2.7c0.5,0,1,0.1,1.4,0.2l0.2,0l2.3,0v0.8l-1.6,0c0.4,0.4,0.6,1,0.6,1.9s-0.2,1.5-0.7,1.9
		c-0.5,0.4-1.2,0.6-2.3,0.6c-0.3,0-0.6,0-0.8-0.1c-0.2,0.5-0.3,0.9-0.3,1c0,0.4,0.1,0.6,0.3,0.6s0.8,0.1,1.9,0.1
		c1,0,1.8,0.2,2.2,0.5C153.4,198.7,153.6,199.3,153.6,200.2z M147.7,200.2c0,0.6,0.2,1.1,0.5,1.3s0.9,0.4,1.9,0.4
		c0.9,0,1.6-0.1,2-0.4c0.4-0.3,0.6-0.7,0.6-1.3s-0.1-1-0.4-1.2c-0.3-0.2-0.8-0.3-1.6-0.3l-1.8-0.1c-0.4,0.3-0.7,0.5-0.8,0.7
		C147.8,199.6,147.7,199.9,147.7,200.2z M147.8,193.5c0,0.7,0.1,1.2,0.4,1.5c0.3,0.3,0.8,0.4,1.5,0.4c0.7,0,1.2-0.1,1.5-0.4
		c0.3-0.3,0.4-0.8,0.4-1.5c0-0.7-0.1-1.2-0.4-1.5c-0.3-0.3-0.8-0.4-1.5-0.4c-0.7,0-1.2,0.1-1.5,0.4S147.8,192.8,147.8,193.5z"/>
	<path class="st0" d="M156.2,199h-0.9v-11.6h0.9v4c0.9-0.4,1.8-0.6,2.6-0.6c1.1,0,1.8,0.3,2.1,0.8s0.5,1.6,0.5,3.1v4.2h-1v-4.2
		c0-1.2-0.1-2.1-0.3-2.5c-0.2-0.4-0.7-0.6-1.5-0.6c-0.4,0-0.8,0-1.2,0.1s-0.7,0.2-1,0.3l-0.3,0.1V199z"/>
	<path class="st0" d="M167.8,191.8h-2.7v4c0,1,0.1,1.7,0.2,2s0.5,0.5,1.1,0.5l1.5-0.1l0.1,0.8c-0.7,0.1-1.2,0.2-1.6,0.2
		c-0.8,0-1.4-0.2-1.7-0.6c-0.3-0.4-0.5-1.2-0.5-2.3v-4.4h-1.2V191h1.2v-2.5h1v2.5h2.7V191.8z"/>
	<path class="st0" d="M174,194.6v4.4h-1v-11.1h4.1c1.2,0,2,0.3,2.6,0.8s0.9,1.4,0.9,2.5c0,1.8-0.7,2.9-2.1,3.2l2.3,4.6h-1.1
		l-2.2-4.4H174z M179.5,191.2c0-0.8-0.2-1.4-0.6-1.8c-0.4-0.4-1-0.6-1.8-0.6H174v5h3.1C178.7,193.7,179.5,192.9,179.5,191.2z"/>
	<path class="st0" d="M187.8,198.2l0.5,0l0,0.8c-1.2,0.1-2.2,0.2-3.1,0.2c-1.2,0-2-0.4-2.4-1c-0.5-0.7-0.7-1.7-0.7-3.1
		c0-2.8,1.1-4.2,3.3-4.2c1.1,0,1.8,0.3,2.4,0.9s0.8,1.6,0.8,2.9l0,0.8h-5.4c0,1,0.2,1.7,0.5,2.2s0.9,0.7,1.7,0.7
		C186.1,198.3,187,198.2,187.8,198.2z M183.1,194.6h4.5c0-1.1-0.2-1.8-0.5-2.3c-0.3-0.4-0.9-0.7-1.7-0.7s-1.3,0.2-1.7,0.7
		S183.1,193.6,183.1,194.6z"/>
	<path class="st0" d="M190.5,202.6V191h0.9v0.6c0.8-0.5,1.7-0.8,2.6-0.8s1.6,0.3,2.1,1c0.5,0.7,0.7,1.7,0.7,3.2s-0.3,2.5-0.8,3.2
		c-0.5,0.7-1.4,1-2.7,1c-0.7,0-1.3-0.1-1.9-0.2v3.6H190.5z M193.9,191.7c-0.4,0-0.7,0.1-1.1,0.2s-0.7,0.2-0.9,0.4l-0.4,0.2v5.7
		c0.7,0.1,1.4,0.2,1.9,0.2c0.9,0,1.6-0.3,1.9-0.8c0.4-0.5,0.6-1.4,0.6-2.6c0-1.2-0.2-2-0.5-2.5S194.6,191.7,193.9,191.7z"/>
	<path class="st0" d="M198.6,195c0-1.5,0.3-2.6,0.8-3.2c0.5-0.6,1.4-0.9,2.6-0.9c1.2,0,2.1,0.3,2.6,0.9c0.5,0.6,0.8,1.7,0.8,3.2
		s-0.2,2.6-0.7,3.2c-0.5,0.6-1.3,1-2.6,1c-1.3,0-2.2-0.3-2.7-1C198.8,197.5,198.6,196.5,198.6,195z M199.6,194.9
		c0,1.3,0.1,2.1,0.4,2.6c0.3,0.5,0.9,0.7,1.9,0.7c1,0,1.6-0.2,1.9-0.7c0.3-0.5,0.4-1.4,0.4-2.6c0-1.3-0.2-2.1-0.5-2.6
		s-1-0.7-1.9-0.7c-0.9,0-1.5,0.2-1.9,0.7C199.7,192.8,199.6,193.7,199.6,194.9z"/>
	<path class="st0" d="M207.3,199v-8h0.9v1.2c0.4-0.3,0.9-0.5,1.4-0.8c0.6-0.3,1.1-0.4,1.6-0.5v1c-0.5,0.1-0.9,0.2-1.4,0.4
		c-0.5,0.2-0.9,0.4-1.2,0.5l-0.4,0.2v6H207.3z"/>
	<path class="st0" d="M216.8,191.8h-2.7v4c0,1,0.1,1.7,0.2,2s0.5,0.5,1.1,0.5l1.5-0.1l0.1,0.8c-0.7,0.1-1.2,0.2-1.6,0.2
		c-0.8,0-1.4-0.2-1.7-0.6c-0.3-0.4-0.5-1.2-0.5-2.3v-4.4H212V191h1.2v-2.5h1v2.5h2.7V191.8z"/>
</g>
<g class="st2">
	<path class="st0" d="M45.9,240H48l-3.1,12.7h-4.1L37.7,240h2.2l2.5,10.9h0.9L45.9,240z"/>
	<path class="st0" d="M49.3,247.1v-2.7h2.2v2.7H49.3z M49.3,252.7v-2.7h2.2v2.7H49.3z"/>
</g>
<g class="st2">
	<path class="st0" d="M61.4,242.3c-1.7,0-2.6,0.7-2.6,2c0,0.8,0.2,1.3,0.6,1.6c0.4,0.3,1.2,0.5,2.3,0.7c1.1,0.2,1.9,0.5,2.4,0.9
		c0.5,0.4,0.7,1.1,0.7,2c0,1.2-0.3,2.1-0.9,2.6c-0.6,0.5-1.5,0.8-2.6,0.8c-0.8,0-1.8-0.1-2.9-0.2l-0.6-0.1l0.1-0.8
		c1.5,0.2,2.6,0.3,3.4,0.3c0.8,0,1.4-0.2,1.8-0.6s0.6-1,0.6-1.7s-0.2-1.3-0.6-1.5c-0.4-0.3-1-0.5-1.8-0.6c-0.8-0.1-1.4-0.3-1.8-0.4
		c-0.4-0.1-0.7-0.3-1-0.5c-0.3-0.2-0.6-0.5-0.7-0.9s-0.2-0.8-0.2-1.4c0-1.9,1.2-2.9,3.5-2.9c0.7,0,1.6,0.1,2.8,0.2l0.5,0.1l-0.1,0.8
		C63,242.4,62,242.3,61.4,242.3z"/>
	<path class="st0" d="M70.7,245.6H68v4c0,1,0.1,1.7,0.2,2s0.5,0.5,1.1,0.5l1.5-0.1l0.1,0.8c-0.7,0.1-1.2,0.2-1.6,0.2
		c-0.8,0-1.4-0.2-1.7-0.6c-0.3-0.4-0.5-1.2-0.5-2.3v-4.4h-1.2v-0.8h1.2v-2.5h1v2.5h2.7V245.6z"/>
	<path class="st0" d="M72.2,252.7v-8h0.9v1.2c0.4-0.3,0.9-0.5,1.4-0.8c0.6-0.3,1.1-0.4,1.6-0.5v1c-0.5,0.1-0.9,0.2-1.4,0.4
		s-0.9,0.4-1.2,0.5l-0.4,0.2v6H72.2z"/>
	<path class="st0" d="M83.1,247.1v4.3c0,0.4,0.4,0.6,1,0.7l0,0.8c-0.8,0-1.4-0.2-1.8-0.6c-1,0.4-2,0.7-3,0.7c-0.7,0-1.3-0.2-1.6-0.6
		c-0.4-0.4-0.6-1-0.6-1.8s0.2-1.3,0.6-1.7s1-0.6,1.8-0.7l2.7-0.3v-0.8c0-0.6-0.1-1-0.4-1.3c-0.3-0.3-0.6-0.4-1-0.4
		c-0.7,0-1.6,0.1-2.7,0.2l-0.5,0l0-0.8c1.2-0.2,2.2-0.3,3.1-0.3c0.9,0,1.5,0.2,1.9,0.6S83.1,246.3,83.1,247.1z M78.1,250.5
		c0,1.1,0.4,1.6,1.3,1.6c0.4,0,0.8,0,1.3-0.1s0.8-0.2,1.1-0.3l0.4-0.1v-2.9l-2.6,0.3c-0.5,0-0.9,0.2-1.1,0.4
		C78.2,249.6,78.1,250,78.1,250.5z"/>
	<path class="st0" d="M89.7,245.6H87v4c0,1,0.1,1.7,0.2,2s0.5,0.5,1.1,0.5l1.5-0.1l0.1,0.8c-0.7,0.1-1.2,0.2-1.6,0.2
		c-0.8,0-1.4-0.2-1.7-0.6c-0.3-0.4-0.5-1.2-0.5-2.3v-4.4h-1.2v-0.8H86v-2.5h1v2.5h2.7V245.6z"/>
	<path class="st0" d="M96.5,251.9l0.5,0l0,0.8c-1.2,0.1-2.2,0.2-3.1,0.2c-1.2,0-2-0.4-2.4-1c-0.5-0.7-0.7-1.7-0.7-3.1
		c0-2.8,1.1-4.2,3.3-4.2c1.1,0,1.8,0.3,2.4,0.9c0.5,0.6,0.8,1.6,0.8,2.9l0,0.8h-5.4c0,1,0.2,1.7,0.5,2.2s0.9,0.7,1.7,0.7
		S95.6,252,96.5,251.9z M91.8,248.3h4.5c0-1.1-0.2-1.8-0.5-2.3c-0.3-0.4-0.9-0.7-1.7-0.7s-1.3,0.2-1.7,0.7S91.8,247.3,91.8,248.3z"
		/>
	<path class="st0" d="M105.7,254c0,0.9-0.3,1.6-0.9,2c-0.6,0.4-1.5,0.6-2.7,0.6c-1.2,0-2.1-0.2-2.5-0.5c-0.5-0.4-0.7-1-0.7-1.9
		c0-0.4,0.1-0.8,0.3-1.1c0.2-0.3,0.5-0.6,1-0.9c-0.3-0.2-0.4-0.5-0.4-1.1c0-0.2,0.1-0.5,0.4-1l0.1-0.2c-0.9-0.4-1.3-1.2-1.3-2.4
		c0-1.8,1-2.7,2.9-2.7c0.5,0,1,0.1,1.4,0.2l0.2,0l2.3,0v0.8l-1.6,0c0.4,0.4,0.6,1,0.6,1.9s-0.2,1.5-0.7,1.9
		c-0.5,0.4-1.3,0.6-2.3,0.6c-0.3,0-0.6,0-0.8-0.1c-0.2,0.5-0.3,0.9-0.3,1c0,0.4,0.1,0.6,0.3,0.6s0.8,0.1,1.9,0.1
		c1,0,1.8,0.2,2.2,0.5C105.5,252.4,105.7,253,105.7,254z M99.8,254c0,0.6,0.2,1.1,0.5,1.3c0.3,0.2,0.9,0.4,1.9,0.4
		c0.9,0,1.6-0.1,2-0.4c0.4-0.3,0.6-0.7,0.6-1.3s-0.1-1-0.4-1.2c-0.3-0.2-0.8-0.3-1.6-0.3l-1.8-0.1c-0.4,0.3-0.7,0.5-0.8,0.7
		C99.9,253.4,99.8,253.7,99.8,254z M99.9,247.3c0,0.7,0.1,1.2,0.4,1.5c0.3,0.3,0.8,0.4,1.5,0.4s1.2-0.1,1.5-0.4
		c0.3-0.3,0.4-0.8,0.4-1.5c0-0.7-0.1-1.2-0.4-1.5c-0.3-0.3-0.8-0.4-1.5-0.4s-1.2,0.1-1.5,0.4C100.1,246.1,99.9,246.6,99.9,247.3z"/>
	<path class="st0" d="M107.4,242.7v-1.2h0.9v1.2H107.4z M107.4,252.7v-8h0.9v8H107.4z"/>
	<path class="st0" d="M113.7,244.6c0.5,0,1.1,0.1,1.7,0.2l0.4,0l0,0.8c-0.8-0.1-1.5-0.2-1.9-0.2c-0.9,0-1.6,0.2-2,0.7
		c-0.4,0.5-0.5,1.3-0.5,2.6c0,1.2,0.2,2.1,0.5,2.6c0.3,0.5,1,0.7,2,0.7l1.9-0.1l0,0.8c-0.9,0.1-1.7,0.2-2.1,0.2
		c-1.3,0-2.1-0.3-2.6-0.9c-0.5-0.6-0.7-1.7-0.7-3.2s0.3-2.6,0.8-3.2C111.6,244.9,112.5,244.6,113.7,244.6z"/>
	<path class="st0" d="M120.4,252.7l3.2-11.1h2.3l3.2,11.1h-1l-0.9-3.1h-5l-0.9,3.1H120.4z M124.3,242.5l-1.8,6.3h4.5l-1.8-6.3H124.3
		z"/>
	<path class="st0" d="M130.7,256.3v-11.6h0.9v0.6c0.8-0.5,1.7-0.8,2.6-0.8s1.6,0.3,2.1,1c0.5,0.7,0.7,1.7,0.7,3.2s-0.3,2.5-0.8,3.2
		s-1.4,1-2.7,1c-0.7,0-1.3-0.1-1.9-0.2v3.6H130.7z M134,245.4c-0.4,0-0.7,0.1-1.1,0.2s-0.7,0.2-0.9,0.4l-0.4,0.2v5.7
		c0.7,0.1,1.4,0.2,1.9,0.2c0.9,0,1.6-0.3,1.9-0.8s0.6-1.4,0.6-2.6c0-1.2-0.2-2-0.5-2.5C135.2,245.7,134.7,245.4,134,245.4z"/>
	<path class="st0" d="M139,256.3v-11.6h0.9v0.6c0.8-0.5,1.7-0.8,2.6-0.8s1.6,0.3,2.1,1c0.5,0.7,0.7,1.7,0.7,3.2s-0.3,2.5-0.8,3.2
		c-0.5,0.7-1.4,1-2.7,1c-0.7,0-1.3-0.1-1.9-0.2v3.6H139z M142.4,245.4c-0.4,0-0.7,0.1-1.1,0.2s-0.7,0.2-0.9,0.4l-0.4,0.2v5.7
		c0.7,0.1,1.4,0.2,1.9,0.2c0.9,0,1.6-0.3,1.9-0.8c0.4-0.5,0.6-1.4,0.6-2.6c0-1.2-0.2-2-0.5-2.5S143.1,245.4,142.4,245.4z"/>
	<path class="st0" d="M147.4,252.7v-8h0.9v1.2c0.4-0.3,0.9-0.5,1.4-0.8c0.6-0.3,1.1-0.4,1.6-0.5v1c-0.5,0.1-0.9,0.2-1.4,0.4
		c-0.5,0.2-0.9,0.4-1.2,0.5l-0.4,0.2v6H147.4z"/>
	<path class="st0" d="M152.3,248.7c0-1.5,0.3-2.6,0.8-3.2c0.5-0.6,1.4-0.9,2.6-0.9c1.2,0,2.1,0.3,2.6,0.9c0.5,0.6,0.8,1.7,0.8,3.2
		s-0.2,2.6-0.7,3.2c-0.5,0.6-1.3,1-2.6,1c-1.3,0-2.2-0.3-2.7-1C152.5,251.3,152.3,250.2,152.3,248.7z M153.3,248.7
		c0,1.3,0.1,2.1,0.4,2.6c0.3,0.5,0.9,0.7,1.9,0.7c1,0,1.6-0.2,1.9-0.7c0.3-0.5,0.4-1.4,0.4-2.6c0-1.3-0.2-2.1-0.5-2.6
		s-1-0.7-1.9-0.7c-0.9,0-1.5,0.2-1.9,0.7C153.4,246.6,153.3,247.4,153.3,248.7z"/>
	<path class="st0" d="M166.6,247.1v4.3c0,0.4,0.4,0.6,1,0.7l0,0.8c-0.8,0-1.4-0.2-1.8-0.6c-1,0.4-2,0.7-3,0.7
		c-0.7,0-1.3-0.2-1.6-0.6c-0.4-0.4-0.6-1-0.6-1.8s0.2-1.3,0.6-1.7c0.4-0.4,1-0.6,1.8-0.7l2.7-0.3v-0.8c0-0.6-0.1-1-0.4-1.3
		c-0.3-0.3-0.6-0.4-1-0.4c-0.7,0-1.6,0.1-2.7,0.2l-0.5,0l0-0.8c1.2-0.2,2.2-0.3,3.1-0.3c0.9,0,1.5,0.2,1.9,0.6
		S166.6,246.3,166.6,247.1z M161.5,250.5c0,1.1,0.4,1.6,1.3,1.6c0.4,0,0.8,0,1.3-0.1c0.5-0.1,0.8-0.2,1.1-0.3l0.4-0.1v-2.9l-2.6,0.3
		c-0.5,0-0.9,0.2-1.1,0.4C161.6,249.6,161.5,250,161.5,250.5z"/>
	<path class="st0" d="M172,244.6c0.5,0,1.1,0.1,1.7,0.2l0.4,0l0,0.8c-0.8-0.1-1.5-0.2-1.9-0.2c-0.9,0-1.6,0.2-2,0.7
		c-0.4,0.5-0.5,1.3-0.5,2.6c0,1.2,0.2,2.1,0.5,2.6c0.3,0.5,1,0.7,2,0.7l1.9-0.1l0,0.8c-0.9,0.1-1.7,0.2-2.1,0.2
		c-1.3,0-2.1-0.3-2.6-0.9c-0.5-0.6-0.7-1.7-0.7-3.2s0.3-2.6,0.8-3.2C170,244.9,170.8,244.6,172,244.6z"/>
	<path class="st0" d="M176.9,252.7H176v-11.6h0.9v4c0.9-0.4,1.8-0.6,2.6-0.6c1.1,0,1.8,0.3,2.1,0.8s0.5,1.6,0.5,3.1v4.2h-1v-4.2
		c0-1.2-0.1-2.1-0.3-2.5c-0.2-0.4-0.7-0.6-1.5-0.6c-0.4,0-0.8,0-1.2,0.1c-0.4,0.1-0.7,0.2-1,0.3l-0.3,0.1V252.7z"/>
	<path class="st0" d="M192.2,252.7h-4v-11.1h4c2.6,0,4,1.8,4,5.4C196.2,250.8,194.9,252.7,192.2,252.7z M195.2,247
		c0-3-1-4.5-2.9-4.5h-3.1v9.3h3.1C194.2,251.9,195.2,250.2,195.2,247z"/>
	<path class="st0" d="M203.6,251.9l0.5,0l0,0.8c-1.2,0.1-2.2,0.2-3.1,0.2c-1.2,0-2-0.4-2.4-1c-0.5-0.7-0.7-1.7-0.7-3.1
		c0-2.8,1.1-4.2,3.3-4.2c1.1,0,1.8,0.3,2.4,0.9s0.8,1.6,0.8,2.9l0,0.8H199c0,1,0.2,1.7,0.5,2.2s0.9,0.7,1.7,0.7
		C202,252,202.8,252,203.6,251.9z M199,248.3h4.5c0-1.1-0.2-1.8-0.5-2.3c-0.3-0.4-0.9-0.7-1.7-0.7s-1.3,0.2-1.7,0.7
		S199,247.3,199,248.3z"/>
	<path class="st0" d="M205.5,244.7h1.1l2,7.2h0.6l2.1-7.2h1l-2.3,8h-2.1L205.5,244.7z"/>
	<path class="st0" d="M213.2,252.7v-1.6h1.1v1.6H213.2z"/>
</g>
<g class="st2">
	<path class="st0" d="M64.3,294.6h2.2l-3.1,12.7h-4.1l-3.1-12.7h2.2l2.5,10.9h0.9L64.3,294.6z"/>
	<path class="st0" d="M68.3,307.3v-12.7h2.1v12.7H68.3z"/>
	<path class="st0" d="M72.9,301.7V299h2.2v2.7H72.9z M72.9,307.3v-2.7h2.2v2.7H72.9z"/>
</g>
<g class="st2">
	<path class="st0" d="M81.7,307.3v-11.1h1v11.1H81.7z"/>
	<path class="st0" d="M86.3,307.3h-0.9v-8h0.9v0.6c0.9-0.5,1.8-0.8,2.6-0.8c1.1,0,1.8,0.3,2.1,0.8c0.4,0.6,0.5,1.6,0.5,3.1v4.2h-1
		v-4.2c0-1.2-0.1-2.1-0.4-2.5c-0.2-0.4-0.7-0.6-1.5-0.6c-0.4,0-0.8,0.1-1.2,0.2c-0.4,0.1-0.7,0.2-1,0.3l-0.3,0.2V307.3z"/>
	<path class="st0" d="M93.8,303.4v-0.9h4.9v0.9H93.8z"/>
	<path class="st0" d="M102.1,300.2v7.2h-1v-7.2h-1v-0.8h1v-0.8c0-1.1,0.2-1.9,0.5-2.3c0.3-0.4,0.9-0.6,1.6-0.6l1.6,0.1v0.8
		c-0.6,0-1.1,0-1.4,0c-0.5,0-0.8,0.1-1,0.4c-0.2,0.3-0.3,0.8-0.3,1.6v0.8h2.4v0.8H102.1z"/>
	<path class="st0" d="M106,297.3v-1.2h0.9v1.2H106z M106,307.3v-8h0.9v8H106z"/>
	<path class="st0" d="M114.6,306.5l0.5,0l0,0.8c-1.2,0.1-2.2,0.2-3.1,0.2c-1.2,0-2-0.4-2.4-1c-0.5-0.7-0.7-1.7-0.7-3.1
		c0-2.8,1.1-4.2,3.3-4.2c1.1,0,1.8,0.3,2.4,0.9c0.5,0.6,0.8,1.6,0.8,2.9l0,0.8h-5.4c0,1,0.2,1.7,0.5,2.2s0.9,0.7,1.7,0.7
		S113.8,306.6,114.6,306.5z M109.9,302.9h4.5c0-1.1-0.2-1.8-0.5-2.3c-0.3-0.4-0.9-0.7-1.7-0.7s-1.3,0.2-1.7,0.7
		S109.9,301.9,109.9,302.9z"/>
	<path class="st0" d="M117.5,307.3v-11.6h0.9v11.6H117.5z"/>
	<path class="st0" d="M126.9,295.8v11.6h-1v-0.6c-0.8,0.5-1.7,0.8-2.6,0.8c-0.4,0-0.7,0-1-0.1c-0.3-0.1-0.6-0.3-0.9-0.5
		c-0.6-0.5-0.9-1.6-0.9-3.2s0.3-2.7,0.8-3.4c0.5-0.7,1.4-1,2.6-1c0.5,0,1.1,0.1,2,0.2v-3.6H126.9z M122.8,306.5
		c0.2,0.1,0.5,0.1,0.8,0.1c0.3,0,0.7-0.1,1.1-0.2s0.7-0.2,1-0.3l0.3-0.2v-5.7c-0.9-0.1-1.5-0.2-2-0.2c-0.9,0-1.5,0.3-1.9,0.8
		c-0.3,0.6-0.5,1.4-0.5,2.6c0,1.4,0.2,2.3,0.6,2.7C122.4,306.3,122.6,306.5,122.8,306.5z"/>
	<path class="st0" d="M139.4,296.2h1l-3,11.1H135l-3-11.1h1l2.7,10.2h0.9L139.4,296.2z"/>
	<path class="st0" d="M147.1,301.7v4.3c0,0.4,0.4,0.6,1,0.7l0,0.8c-0.8,0-1.4-0.2-1.8-0.6c-1,0.4-2,0.7-3,0.7
		c-0.7,0-1.3-0.2-1.6-0.6c-0.4-0.4-0.6-1-0.6-1.8s0.2-1.3,0.6-1.7c0.4-0.4,1-0.6,1.8-0.7l2.7-0.3v-0.8c0-0.6-0.1-1-0.4-1.3
		c-0.3-0.3-0.6-0.4-1-0.4c-0.7,0-1.6,0.1-2.7,0.2l-0.5,0l0-0.8c1.2-0.2,2.2-0.3,3.1-0.3c0.9,0,1.5,0.2,1.9,0.6
		S147.1,300.9,147.1,301.7z M142.1,305.1c0,1.1,0.4,1.6,1.3,1.6c0.4,0,0.8,0,1.3-0.1c0.5-0.1,0.8-0.2,1.1-0.3l0.4-0.1v-2.9l-2.6,0.3
		c-0.5,0-0.9,0.2-1.1,0.4C142.2,304.2,142.1,304.6,142.1,305.1z"/>
	<path class="st0" d="M149.7,307.3v-11.6h0.9v11.6H149.7z"/>
	<path class="st0" d="M153.1,297.3v-1.2h0.9v1.2H153.1z M153.1,307.3v-8h0.9v8H153.1z"/>
	<path class="st0" d="M162.4,295.8v11.6h-1v-0.6c-0.8,0.5-1.7,0.8-2.6,0.8c-0.4,0-0.7,0-1-0.1c-0.3-0.1-0.6-0.3-0.9-0.5
		c-0.6-0.5-0.9-1.6-0.9-3.2s0.3-2.7,0.8-3.4c0.5-0.7,1.4-1,2.6-1c0.5,0,1.1,0.1,2,0.2v-3.6H162.4z M158.3,306.5
		c0.2,0.1,0.5,0.1,0.8,0.1c0.3,0,0.7-0.1,1.1-0.2c0.4-0.1,0.7-0.2,1-0.3l0.3-0.2v-5.7c-0.9-0.1-1.5-0.2-2-0.2
		c-0.9,0-1.5,0.3-1.9,0.8c-0.3,0.6-0.5,1.4-0.5,2.6c0,1.4,0.2,2.3,0.6,2.7C157.9,306.3,158.1,306.5,158.3,306.5z"/>
	<path class="st0" d="M170.3,301.7v4.3c0,0.4,0.4,0.6,1,0.7l0,0.8c-0.8,0-1.4-0.2-1.8-0.6c-1,0.4-2,0.7-3,0.7
		c-0.7,0-1.3-0.2-1.6-0.6c-0.4-0.4-0.6-1-0.6-1.8s0.2-1.3,0.6-1.7c0.4-0.4,1-0.6,1.8-0.7l2.7-0.3v-0.8c0-0.6-0.1-1-0.4-1.3
		c-0.3-0.3-0.6-0.4-1-0.4c-0.7,0-1.6,0.1-2.7,0.2l-0.5,0l0-0.8c1.2-0.2,2.2-0.3,3.1-0.3c0.9,0,1.5,0.2,1.9,0.6
		S170.3,300.9,170.3,301.7z M165.3,305.1c0,1.1,0.4,1.6,1.3,1.6c0.4,0,0.8,0,1.3-0.1c0.5-0.1,0.8-0.2,1.1-0.3l0.4-0.1v-2.9l-2.6,0.3
		c-0.5,0-0.9,0.2-1.1,0.4C165.4,304.2,165.3,304.6,165.3,305.1z"/>
	<path class="st0" d="M176.9,300.2h-2.7v4c0,1,0.1,1.7,0.2,2s0.5,0.5,1.1,0.5l1.5-0.1l0.1,0.8c-0.7,0.1-1.2,0.2-1.6,0.2
		c-0.8,0-1.4-0.2-1.7-0.6c-0.3-0.4-0.5-1.2-0.5-2.3v-4.4H172v-0.8h1.2v-2.5h1v2.5h2.7V300.2z"/>
	<path class="st0" d="M178.4,297.3v-1.2h0.9v1.2H178.4z M178.4,307.3v-8h0.9v8H178.4z"/>
	<path class="st0" d="M181.4,303.3c0-1.5,0.3-2.6,0.8-3.2c0.5-0.6,1.4-0.9,2.6-0.9c1.2,0,2.1,0.3,2.6,0.9c0.5,0.6,0.8,1.7,0.8,3.2
		s-0.2,2.6-0.7,3.2c-0.5,0.6-1.3,1-2.6,1s-2.2-0.3-2.7-1C181.6,305.9,181.4,304.8,181.4,303.3z M182.4,303.3c0,1.3,0.1,2.1,0.4,2.6
		c0.3,0.5,0.9,0.7,1.9,0.7s1.6-0.2,1.9-0.7s0.4-1.4,0.4-2.6c0-1.3-0.2-2.1-0.5-2.6s-1-0.7-1.9-0.7s-1.5,0.2-1.9,0.7
		C182.5,301.2,182.4,302,182.4,303.3z"/>
	<path class="st0" d="M191.1,307.3h-0.9v-8h0.9v0.6c0.9-0.5,1.8-0.8,2.6-0.8c1.1,0,1.8,0.3,2.1,0.8s0.5,1.6,0.5,3.1v4.2h-1v-4.2
		c0-1.2-0.1-2.1-0.4-2.5c-0.2-0.4-0.7-0.6-1.5-0.6c-0.4,0-0.8,0.1-1.2,0.2s-0.7,0.2-1,0.3l-0.3,0.2V307.3z"/>
</g>
<g class="st2">
	<path class="st0" d="M26.8,347.5h2.2l-3.1,12.7h-4.1l-3.1-12.7h2.2l2.5,10.9h0.9L26.8,347.5z"/>
	<path class="st0" d="M30.8,360.3v-12.7h2.1v12.7H30.8z"/>
	<path class="st0" d="M35.8,360.3v-12.7h2.1v12.7H35.8z"/>
	<path class="st0" d="M40.4,354.6V352h2.2v2.7H40.4z M40.4,360.3v-2.7h2.2v2.7H40.4z"/>
</g>
<g class="st2">
	<path class="st0" d="M57.5,354.8c0,2-0.3,3.4-0.9,4.3s-1.8,1.3-3.4,1.3c-1.6,0-2.8-0.5-3.4-1.4c-0.6-0.9-0.9-2.3-0.9-4.3
		c0-2,0.3-3.4,0.9-4.4c0.6-0.9,1.8-1.4,3.4-1.4c1.6,0,2.8,0.5,3.4,1.4C57.2,351.3,57.5,352.8,57.5,354.8z M50.5,358.4
		c0.4,0.7,1.3,1.1,2.6,1.1c1.3,0,2.2-0.4,2.6-1.1c0.4-0.7,0.7-1.9,0.7-3.6s-0.2-2.9-0.7-3.7c-0.5-0.8-1.3-1.2-2.6-1.2
		c-1.3,0-2.2,0.4-2.7,1.3c-0.2,0.4-0.4,0.9-0.5,1.5c-0.1,0.6-0.1,1.3-0.1,2.1C49.8,356.4,50.1,357.7,50.5,358.4z"/>
	<path class="st0" d="M59.6,363.9v-11.6h0.9v0.6c0.8-0.5,1.7-0.8,2.6-0.8s1.6,0.3,2.1,1c0.5,0.7,0.7,1.7,0.7,3.2s-0.3,2.5-0.8,3.2
		c-0.5,0.7-1.4,1-2.7,1c-0.7,0-1.3-0.1-1.9-0.2v3.6H59.6z M63,353c-0.4,0-0.7,0.1-1.1,0.2s-0.7,0.2-0.9,0.4l-0.4,0.2v5.7
		c0.7,0.1,1.4,0.2,1.9,0.2c0.9,0,1.6-0.3,1.9-0.8c0.4-0.5,0.6-1.4,0.6-2.6c0-1.2-0.2-2-0.5-2.5C64.2,353.2,63.7,353,63,353z"/>
	<path class="st0" d="M72,353.1h-2.7v4c0,1,0.1,1.7,0.2,2s0.5,0.5,1.1,0.5l1.5-0.1l0.1,0.8c-0.7,0.1-1.2,0.2-1.6,0.2
		c-0.8,0-1.4-0.2-1.7-0.6c-0.3-0.4-0.5-1.2-0.5-2.3v-4.4h-1.2v-0.8h1.2v-2.5h1v2.5H72V353.1z"/>
	<path class="st0" d="M73.5,350.3v-1.2h0.9v1.2H73.5z M73.5,360.3v-8h0.9v8H73.5z"/>
	<path class="st0" d="M77.8,360.3h-0.9v-8h0.9v0.6c0.8-0.5,1.7-0.8,2.6-0.8s1.6,0.3,2,0.8c0.4-0.2,0.9-0.4,1.4-0.6
		c0.5-0.2,1-0.2,1.5-0.2c1.1,0,1.8,0.3,2.1,0.8c0.4,0.6,0.5,1.6,0.5,3.1v4.2h-0.9v-4.2c0-1.2-0.1-2.1-0.3-2.5
		c-0.2-0.4-0.7-0.6-1.5-0.6c-0.4,0-0.8,0.1-1.2,0.2s-0.7,0.2-0.9,0.3l-0.3,0.2c0.2,0.4,0.2,1.2,0.2,2.5v4.2h-1v-4.1
		c0-1.2-0.1-2.1-0.3-2.5c-0.2-0.4-0.7-0.6-1.5-0.6c-0.4,0-0.8,0.1-1.1,0.2c-0.4,0.1-0.7,0.2-0.9,0.3l-0.3,0.2V360.3z"/>
	<path class="st0" d="M90.2,350.3v-1.2h0.9v1.2H90.2z M90.2,360.3v-8h0.9v8H90.2z"/>
	<path class="st0" d="M93,353.1v-0.9H99v0.9l-4.8,6.3H99v0.9H93v-0.9l4.8-6.3H93z"/>
	<path class="st0" d="M106.3,354.6v4.3c0,0.4,0.4,0.6,1,0.7l0,0.8c-0.8,0-1.4-0.2-1.8-0.6c-1,0.4-2,0.7-3,0.7
		c-0.7,0-1.3-0.2-1.6-0.6c-0.4-0.4-0.6-1-0.6-1.8s0.2-1.3,0.6-1.7s1-0.6,1.8-0.7l2.7-0.3v-0.8c0-0.6-0.1-1-0.4-1.3
		c-0.3-0.3-0.6-0.4-1-0.4c-0.7,0-1.6,0.1-2.7,0.2l-0.5,0l0-0.8c1.2-0.2,2.2-0.3,3.1-0.3c0.9,0,1.5,0.2,1.9,0.6
		S106.3,353.8,106.3,354.6z M101.3,358c0,1.1,0.4,1.6,1.3,1.6c0.4,0,0.8,0,1.3-0.1s0.8-0.2,1.1-0.3l0.4-0.1v-2.9l-2.6,0.3
		c-0.5,0-0.9,0.2-1.1,0.4C101.4,357.1,101.3,357.5,101.3,358z"/>
	<path class="st0" d="M112.9,353.1h-2.7v4c0,1,0.1,1.7,0.2,2s0.5,0.5,1.1,0.5l1.5-0.1l0.1,0.8c-0.7,0.1-1.2,0.2-1.6,0.2
		c-0.8,0-1.4-0.2-1.7-0.6c-0.3-0.4-0.5-1.2-0.5-2.3v-4.4H108v-0.8h1.2v-2.5h1v2.5h2.7V353.1z"/>
	<path class="st0" d="M114.4,350.3v-1.2h0.9v1.2H114.4z M114.4,360.3v-8h0.9v8H114.4z"/>
	<path class="st0" d="M117.4,356.2c0-1.5,0.3-2.6,0.8-3.2c0.5-0.6,1.4-0.9,2.6-0.9s2.1,0.3,2.6,0.9c0.5,0.6,0.8,1.7,0.8,3.2
		s-0.2,2.6-0.7,3.2c-0.5,0.6-1.3,1-2.6,1c-1.3,0-2.2-0.3-2.7-1C117.6,358.8,117.4,357.7,117.4,356.2z M118.4,356.2
		c0,1.3,0.1,2.1,0.4,2.6s0.9,0.7,1.9,0.7c1,0,1.6-0.2,1.9-0.7c0.3-0.5,0.4-1.4,0.4-2.6c0-1.3-0.2-2.1-0.5-2.6s-1-0.7-1.9-0.7
		c-0.9,0-1.5,0.2-1.9,0.7C118.5,354.1,118.4,355,118.4,356.2z"/>
</g>
<g class="st2">
	<path class="st0" d="M127.1,360.3h-0.9v-8h0.9v0.6c0.9-0.5,1.8-0.8,2.6-0.8c1.1,0,1.8,0.3,2.1,0.8c0.4,0.6,0.5,1.6,0.5,3.1v4.2h-1
		v-4.2c0-1.2-0.1-2.1-0.4-2.5c-0.2-0.4-0.7-0.6-1.5-0.6c-0.4,0-0.8,0.1-1.2,0.2c-0.4,0.1-0.7,0.2-1,0.3l-0.3,0.2V360.3z"/>
	<path class="st0" d="M135,360.1l4.5-11.1l0.9,0.3l-4.5,11.1L135,360.1z"/>
</g>
<g class="st2">
	<path class="st0" d="M147.5,349.8c-1.7,0-2.6,0.7-2.6,2c0,0.8,0.2,1.3,0.6,1.6c0.4,0.3,1.2,0.5,2.3,0.7c1.1,0.2,1.9,0.5,2.4,0.9
		c0.5,0.4,0.7,1.1,0.7,2c0,1.2-0.3,2.1-0.9,2.6s-1.5,0.8-2.6,0.8c-0.8,0-1.8-0.1-2.9-0.2l-0.6-0.1l0.1-0.8c1.5,0.2,2.6,0.3,3.4,0.3
		c0.8,0,1.4-0.2,1.8-0.6s0.6-1,0.6-1.7s-0.2-1.3-0.6-1.5s-1-0.5-1.8-0.6c-0.8-0.1-1.4-0.3-1.8-0.4c-0.4-0.1-0.7-0.3-1-0.5
		c-0.3-0.2-0.6-0.5-0.7-0.9s-0.2-0.8-0.2-1.4c0-1.9,1.2-2.9,3.5-2.9c0.7,0,1.6,0.1,2.8,0.2l0.5,0.1l-0.1,0.8
		C149.1,349.9,148.1,349.8,147.5,349.8z"/>
	<path class="st0" d="M156.8,353.1h-2.7v4c0,1,0.1,1.7,0.2,2s0.5,0.5,1.1,0.5l1.5-0.1l0.1,0.8c-0.7,0.1-1.2,0.2-1.6,0.2
		c-0.8,0-1.4-0.2-1.7-0.6c-0.3-0.4-0.5-1.2-0.5-2.3v-4.4H152v-0.8h1.2v-2.5h1v2.5h2.7V353.1z"/>
	<path class="st0" d="M158.3,360.3v-8h0.9v1.2c0.4-0.3,0.9-0.5,1.4-0.8c0.6-0.3,1.1-0.4,1.6-0.5v1c-0.5,0.1-0.9,0.2-1.4,0.4
		c-0.5,0.2-0.9,0.4-1.2,0.5l-0.4,0.2v6H158.3z"/>
	<path class="st0" d="M169.2,354.6v4.3c0,0.4,0.4,0.6,1,0.7l0,0.8c-0.8,0-1.4-0.2-1.8-0.6c-1,0.4-2,0.7-3,0.7
		c-0.7,0-1.3-0.2-1.6-0.6c-0.4-0.4-0.6-1-0.6-1.8s0.2-1.3,0.6-1.7c0.4-0.4,1-0.6,1.8-0.7l2.7-0.3v-0.8c0-0.6-0.1-1-0.4-1.3
		c-0.3-0.3-0.6-0.4-1-0.4c-0.7,0-1.6,0.1-2.7,0.2l-0.5,0l0-0.8c1.2-0.2,2.2-0.3,3.1-0.3c0.9,0,1.5,0.2,1.9,0.6
		S169.2,353.8,169.2,354.6z M164.2,358c0,1.1,0.4,1.6,1.3,1.6c0.4,0,0.8,0,1.3-0.1c0.5-0.1,0.8-0.2,1.1-0.3l0.4-0.1v-2.9l-2.6,0.3
		c-0.5,0-0.9,0.2-1.1,0.4C164.3,357.1,164.2,357.5,164.2,358z"/>
	<path class="st0" d="M175.8,353.1h-2.7v4c0,1,0.1,1.7,0.2,2s0.5,0.5,1.1,0.5l1.5-0.1l0.1,0.8c-0.7,0.1-1.2,0.2-1.6,0.2
		c-0.8,0-1.4-0.2-1.7-0.6c-0.3-0.4-0.5-1.2-0.5-2.3v-4.4h-1.2v-0.8h1.2v-2.5h1v2.5h2.7V353.1z"/>
	<path class="st0" d="M182.6,359.5l0.5,0l0,0.8c-1.2,0.1-2.2,0.2-3.1,0.2c-1.2,0-2-0.4-2.4-1c-0.5-0.7-0.7-1.7-0.7-3.1
		c0-2.8,1.1-4.2,3.3-4.2c1.1,0,1.8,0.3,2.4,0.9s0.8,1.6,0.8,2.9l0,0.8h-5.4c0,1,0.2,1.7,0.5,2.2s0.9,0.7,1.7,0.7
		C180.9,359.6,181.7,359.5,182.6,359.5z M177.9,355.9h4.5c0-1.1-0.2-1.8-0.5-2.3c-0.3-0.4-0.9-0.7-1.7-0.7s-1.3,0.2-1.7,0.7
		S177.9,354.8,177.9,355.9z"/>
	<path class="st0" d="M191.8,361.5c0,0.9-0.3,1.6-0.9,2s-1.5,0.6-2.7,0.6s-2.1-0.2-2.5-0.5c-0.5-0.4-0.7-1-0.7-1.9
		c0-0.4,0.1-0.8,0.3-1.1c0.2-0.3,0.5-0.6,1-0.9c-0.3-0.2-0.4-0.5-0.4-1.1c0-0.2,0.1-0.5,0.4-1l0.1-0.2c-0.9-0.4-1.3-1.2-1.3-2.4
		c0-1.8,1-2.7,2.9-2.7c0.5,0,1,0.1,1.4,0.2l0.2,0l2.3,0v0.8l-1.6,0c0.4,0.4,0.6,1,0.6,1.9s-0.2,1.5-0.7,1.9
		c-0.5,0.4-1.3,0.6-2.3,0.6c-0.3,0-0.6,0-0.8-0.1c-0.2,0.5-0.3,0.9-0.3,1c0,0.4,0.1,0.6,0.3,0.6s0.8,0.1,1.9,0.1
		c1,0,1.8,0.2,2.2,0.5C191.6,360,191.8,360.6,191.8,361.5z M185.9,361.5c0,0.6,0.2,1.1,0.5,1.3c0.3,0.2,0.9,0.4,1.9,0.4
		s1.6-0.1,2-0.4c0.4-0.3,0.6-0.7,0.6-1.3s-0.1-1-0.4-1.2c-0.3-0.2-0.8-0.3-1.6-0.3l-1.8-0.1c-0.4,0.3-0.7,0.5-0.8,0.7
		S185.9,361.2,185.9,361.5z M186,354.8c0,0.7,0.1,1.2,0.4,1.5c0.3,0.3,0.8,0.4,1.5,0.4c0.7,0,1.2-0.1,1.5-0.4
		c0.3-0.3,0.4-0.8,0.4-1.5c0-0.7-0.1-1.2-0.4-1.5s-0.8-0.4-1.5-0.4c-0.7,0-1.2,0.1-1.5,0.4C186.2,353.6,186,354.1,186,354.8z"/>
	<path class="st0" d="M193.5,350.3v-1.2h0.9v1.2H193.5z M193.5,360.3v-8h0.9v8H193.5z"/>
	<path class="st0" d="M199.8,352.1c0.5,0,1.1,0.1,1.7,0.2l0.4,0l0,0.8c-0.8-0.1-1.5-0.2-1.9-0.2c-0.9,0-1.6,0.2-2,0.7
		c-0.4,0.5-0.5,1.3-0.5,2.6c0,1.2,0.2,2.1,0.5,2.6c0.3,0.5,1,0.7,2,0.7l1.9-0.1l0,0.8c-0.9,0.1-1.7,0.2-2.1,0.2
		c-1.3,0-2.1-0.3-2.6-0.9c-0.5-0.6-0.7-1.7-0.7-3.2s0.3-2.6,0.8-3.2C197.7,352.4,198.6,352.1,199.8,352.1z"/>
	<path class="st0" d="M211.5,360.3h-4v-11.1h4c2.6,0,4,1.8,4,5.4C215.5,358.4,214.1,360.3,211.5,360.3z M214.4,354.5
		c0-3-1-4.5-2.9-4.5h-3.1v9.3h3.1C213.5,359.4,214.4,357.8,214.4,354.5z"/>
	<path class="st0" d="M222.9,359.5l0.5,0l0,0.8c-1.2,0.1-2.2,0.2-3.1,0.2c-1.2,0-2-0.4-2.4-1c-0.5-0.7-0.7-1.7-0.7-3.1
		c0-2.8,1.1-4.2,3.3-4.2c1.1,0,1.8,0.3,2.4,0.9s0.8,1.6,0.8,2.9l0,0.8h-5.4c0,1,0.2,1.7,0.5,2.2s0.9,0.7,1.7,0.7
		C221.3,359.6,222.1,359.5,222.9,359.5z M218.2,355.9h4.5c0-1.1-0.2-1.8-0.5-2.3c-0.3-0.4-0.9-0.7-1.7-0.7s-1.3,0.2-1.7,0.7
		S218.2,354.8,218.2,355.9z"/>
	<path class="st0" d="M224.8,352.3h1.1l2,7.2h0.6l2.1-7.2h1l-2.3,8h-2.1L224.8,352.3z"/>
	<path class="st0" d="M232.5,360.3v-1.6h1.1v1.6H232.5z"/>
</g>
<g class="st2">
	<path class="st0" d="M33.2,401.3h2.2L32.3,414h-4.1l-3.1-12.7h2.2l2.5,10.9h0.9L33.2,401.3z"/>
	<path class="st0" d="M37.2,414v-12.7h2.1V414H37.2z"/>
	<path class="st0" d="M42.2,414v-12.7h2.1V414H42.2z"/>
	<path class="st0" d="M47.2,414v-12.7h2.1V414H47.2z"/>
	<path class="st0" d="M51.9,408.4v-2.7h2.2v2.7H51.9z M51.9,414v-2.7h2.2v2.7H51.9z"/>
</g>
<g class="st2">
	<path class="st0" d="M60.7,414v-11.1h6.6v0.9h-5.6v4.6h4.7v0.9h-4.7v4.8H60.7z"/>
	<path class="st0" d="M68.9,404v-1.2h0.9v1.2H68.9z M68.9,414v-8h0.9v8H68.9z"/>
	<path class="st0" d="M73.2,414h-0.9v-8h0.9v0.6c0.9-0.5,1.8-0.8,2.6-0.8c1.1,0,1.8,0.3,2.1,0.8c0.4,0.6,0.5,1.6,0.5,3.1v4.2h-1
		v-4.2c0-1.2-0.1-2.1-0.4-2.5c-0.2-0.4-0.7-0.6-1.5-0.6c-0.4,0-0.8,0.1-1.2,0.2c-0.4,0.1-0.7,0.2-1,0.3l-0.3,0.2V414z"/>
	<path class="st0" d="M86.3,408.4v4.3c0,0.4,0.4,0.6,1,0.7l0,0.8c-0.8,0-1.4-0.2-1.8-0.6c-1,0.4-2,0.7-3,0.7c-0.7,0-1.3-0.2-1.6-0.6
		c-0.4-0.4-0.6-1-0.6-1.8s0.2-1.3,0.6-1.7s1-0.6,1.8-0.7l2.7-0.3v-0.8c0-0.6-0.1-1-0.4-1.3c-0.3-0.3-0.6-0.4-1-0.4
		c-0.7,0-1.6,0.1-2.7,0.2l-0.5,0l0-0.8c1.2-0.2,2.2-0.3,3.1-0.3c0.9,0,1.5,0.2,1.9,0.6S86.3,407.5,86.3,408.4z M81.3,411.7
		c0,1.1,0.4,1.6,1.3,1.6c0.4,0,0.8,0,1.3-0.1s0.8-0.2,1.1-0.3l0.4-0.1v-2.9l-2.6,0.3c-0.5,0-0.9,0.2-1.1,0.4
		C81.4,410.9,81.3,411.3,81.3,411.7z"/>
	<path class="st0" d="M88.9,414v-11.6h0.9V414H88.9z"/>
	<path class="st0" d="M99,403.6c-1.7,0-2.6,0.7-2.6,2c0,0.8,0.2,1.3,0.6,1.6c0.4,0.3,1.2,0.5,2.3,0.7c1.1,0.2,1.9,0.5,2.4,0.9
		c0.5,0.4,0.7,1.1,0.7,2c0,1.2-0.3,2.1-0.9,2.6c-0.6,0.5-1.5,0.8-2.6,0.8c-0.8,0-1.8-0.1-2.9-0.2l-0.6-0.1l0.1-0.8
		c1.5,0.2,2.6,0.3,3.4,0.3c0.8,0,1.4-0.2,1.8-0.6s0.6-1,0.6-1.7s-0.2-1.3-0.6-1.5c-0.4-0.3-1-0.5-1.8-0.6c-0.8-0.1-1.4-0.3-1.8-0.4
		c-0.4-0.1-0.7-0.3-1-0.5c-0.3-0.2-0.6-0.5-0.7-0.9s-0.2-0.8-0.2-1.4c0-1.9,1.2-2.9,3.5-2.9c0.7,0,1.6,0.1,2.8,0.2l0.5,0.1l-0.1,0.8
		C100.7,403.7,99.6,403.6,99,403.6z"/>
	<path class="st0" d="M108.4,406.9h-2.7v4c0,1,0.1,1.7,0.2,2s0.5,0.5,1.1,0.5l1.5-0.1l0.1,0.8c-0.7,0.1-1.2,0.2-1.6,0.2
		c-0.8,0-1.4-0.2-1.7-0.6c-0.3-0.4-0.5-1.2-0.5-2.3v-4.4h-1.2V406h1.2v-2.5h1v2.5h2.7V406.9z"/>
	<path class="st0" d="M109.9,414v-8h0.9v1.2c0.4-0.3,0.9-0.5,1.4-0.8c0.6-0.3,1.1-0.4,1.6-0.5v1c-0.5,0.1-0.9,0.2-1.4,0.4
		s-0.9,0.4-1.2,0.5l-0.4,0.2v6H109.9z"/>
	<path class="st0" d="M120.8,408.4v4.3c0,0.4,0.4,0.6,1,0.7l0,0.8c-0.8,0-1.4-0.2-1.8-0.6c-1,0.4-2,0.7-3,0.7
		c-0.7,0-1.3-0.2-1.6-0.6c-0.4-0.4-0.6-1-0.6-1.8s0.2-1.3,0.6-1.7s1-0.6,1.8-0.7l2.7-0.3v-0.8c0-0.6-0.1-1-0.4-1.3
		c-0.3-0.3-0.6-0.4-1-0.4c-0.7,0-1.6,0.1-2.7,0.2l-0.5,0l0-0.8c1.2-0.2,2.2-0.3,3.1-0.3c0.9,0,1.5,0.2,1.9,0.6
		S120.8,407.5,120.8,408.4z M115.8,411.7c0,1.1,0.4,1.6,1.3,1.6c0.4,0,0.8,0,1.3-0.1s0.8-0.2,1.1-0.3l0.4-0.1v-2.9l-2.6,0.3
		c-0.5,0-0.9,0.2-1.1,0.4C115.9,410.9,115.8,411.3,115.8,411.7z"/>
	<path class="st0" d="M127.3,406.9h-2.7v4c0,1,0.1,1.7,0.2,2s0.5,0.5,1.1,0.5l1.5-0.1l0.1,0.8c-0.7,0.1-1.2,0.2-1.6,0.2
		c-0.8,0-1.4-0.2-1.7-0.6c-0.3-0.4-0.5-1.2-0.5-2.3v-4.4h-1.2V406h1.2v-2.5h1v2.5h2.7V406.9z"/>
	<path class="st0" d="M134.1,413.2l0.5,0l0,0.8c-1.2,0.1-2.2,0.2-3.1,0.2c-1.2,0-2-0.4-2.4-1c-0.5-0.7-0.7-1.7-0.7-3.1
		c0-2.8,1.1-4.2,3.3-4.2c1.1,0,1.8,0.3,2.4,0.9s0.8,1.6,0.8,2.9l0,0.8h-5.4c0,1,0.2,1.7,0.5,2.2s0.9,0.7,1.7,0.7
		S133.3,413.3,134.1,413.2z M129.5,409.6h4.5c0-1.1-0.2-1.8-0.5-2.3c-0.3-0.4-0.9-0.7-1.7-0.7s-1.3,0.2-1.7,0.7
		S129.5,408.6,129.5,409.6z"/>
	<path class="st0" d="M143.4,415.2c0,0.9-0.3,1.6-0.9,2c-0.6,0.4-1.5,0.6-2.7,0.6s-2.1-0.2-2.5-0.5c-0.5-0.4-0.7-1-0.7-1.9
		c0-0.4,0.1-0.8,0.3-1.1c0.2-0.3,0.5-0.6,1-0.9c-0.3-0.2-0.4-0.5-0.4-1.1c0-0.2,0.1-0.5,0.4-1l0.1-0.2c-0.9-0.4-1.3-1.2-1.3-2.4
		c0-1.8,1-2.7,2.9-2.7c0.5,0,1,0.1,1.4,0.2l0.2,0l2.3,0v0.8l-1.6,0c0.4,0.4,0.6,1,0.6,1.9s-0.2,1.5-0.7,1.9
		c-0.5,0.4-1.2,0.6-2.3,0.6c-0.3,0-0.6,0-0.8-0.1c-0.2,0.5-0.3,0.9-0.3,1c0,0.4,0.1,0.6,0.3,0.6s0.8,0.1,1.9,0.1
		c1,0,1.8,0.2,2.2,0.5C143.2,413.7,143.4,414.3,143.4,415.2z M137.5,415.3c0,0.6,0.2,1.1,0.5,1.3c0.3,0.2,0.9,0.4,1.9,0.4
		c0.9,0,1.6-0.1,2-0.4c0.4-0.3,0.6-0.7,0.6-1.3s-0.1-1-0.4-1.2c-0.3-0.2-0.8-0.3-1.6-0.3l-1.8-0.1c-0.4,0.3-0.7,0.5-0.8,0.7
		S137.5,414.9,137.5,415.3z M137.6,408.6c0,0.7,0.1,1.2,0.4,1.5c0.3,0.3,0.8,0.4,1.5,0.4s1.2-0.1,1.5-0.4c0.3-0.3,0.4-0.8,0.4-1.5
		c0-0.7-0.1-1.2-0.4-1.5c-0.3-0.3-0.8-0.4-1.5-0.4s-1.2,0.1-1.5,0.4C137.8,407.4,137.6,407.9,137.6,408.6z"/>
	<path class="st0" d="M144.3,406h1l2.1,7.2h0.6l2.1-7.2h1l-3.5,11.6h-1l1.1-3.6h-1.1L144.3,406z"/>
</g>
<g class="st2">
	<path class="st0" d="M156.7,411.4v2.7H156v-6.9h2.6c0.7,0,1.3,0.2,1.7,0.5s0.6,0.9,0.6,1.6c0,1.1-0.4,1.7-1.3,2l1.3,2.8h-0.8
		l-1.2-2.7H156.7z M158.5,410.7c0.9,0,1.4-0.5,1.4-1.5s-0.5-1.5-1.4-1.5h-1.8v2.9H158.5z"/>
	<path class="st0" d="M165.3,413.4l0.3,0l0,0.6c-0.8,0.1-1.4,0.2-2,0.2c-0.7,0-1.2-0.2-1.5-0.6c-0.3-0.4-0.5-1.1-0.5-1.9
		c0-1.8,0.7-2.6,2.1-2.6c0.7,0,1.2,0.2,1.5,0.6c0.3,0.4,0.5,1,0.5,1.8l0,0.6h-3.3c0,0.6,0.1,1,0.3,1.2s0.5,0.4,1,0.4
		C164.3,413.5,164.8,413.4,165.3,413.4z M165,411.2c0-0.6-0.1-1-0.3-1.3c-0.2-0.3-0.5-0.4-1-0.4s-0.8,0.1-1,0.4s-0.3,0.7-0.3,1.3
		H165z"/>
	<path class="st0" d="M167,416.2V409h0.7v0.4c0.5-0.3,1-0.5,1.5-0.5c0.6,0,1.1,0.2,1.4,0.6c0.3,0.4,0.4,1.1,0.4,2s-0.2,1.6-0.5,2
		s-0.9,0.6-1.7,0.6c-0.4,0-0.8,0-1.1-0.1v2.2H167z M169.1,409.6c-0.2,0-0.4,0-0.6,0.1c-0.2,0.1-0.4,0.1-0.5,0.2l-0.2,0.1v3.4
		c0.5,0.1,0.8,0.1,1.1,0.1c0.5,0,0.9-0.2,1.1-0.5s0.3-0.8,0.3-1.5s-0.1-1.2-0.3-1.5C169.8,409.7,169.5,409.6,169.1,409.6z"/>
	<path class="st0" d="M172,411.5c0-0.9,0.2-1.6,0.5-2c0.3-0.4,0.9-0.6,1.7-0.6c0.8,0,1.3,0.2,1.6,0.6c0.3,0.4,0.5,1.1,0.5,2
		s-0.2,1.6-0.5,2c-0.3,0.4-0.9,0.6-1.7,0.6c-0.8,0-1.4-0.2-1.7-0.6C172.2,413.1,172,412.4,172,411.5z M172.8,411.5
		c0,0.7,0.1,1.2,0.3,1.5c0.2,0.3,0.5,0.4,1.1,0.4s0.9-0.1,1.1-0.4c0.2-0.3,0.3-0.8,0.3-1.5s-0.1-1.2-0.3-1.5
		c-0.2-0.3-0.6-0.4-1.1-0.4s-0.9,0.1-1.1,0.4C172.9,410.3,172.8,410.8,172.8,411.5z"/>
	<path class="st0" d="M177.5,414v-5h0.7v0.7c0.6-0.4,1.2-0.7,1.8-0.8v0.8c-0.3,0.1-0.6,0.1-0.9,0.2c-0.3,0.1-0.5,0.2-0.7,0.3
		l-0.2,0.1v3.7H177.5z"/>
</g>
<g class="st2">
	<path class="st0" d="M183.6,409.7H182v2.4c0,0.6,0,1,0.1,1.1c0.1,0.2,0.3,0.3,0.6,0.3l0.9-0.1l0.1,0.6c-0.4,0.1-0.8,0.1-1,0.1
		c-0.5,0-0.9-0.1-1.1-0.4c-0.2-0.3-0.3-0.7-0.3-1.5v-2.6h-0.7V409h0.7v-1.5h0.7v1.5h1.6V409.7z"/>
	<path class="st0" d="M185.1,413.9l2.8-7l0.7,0.2l-2.8,7L185.1,413.9z"/>
</g>
<g class="st2">
	<path class="st0" d="M191.6,411.4v2.7h-0.8v-6.9h2.6c0.7,0,1.3,0.2,1.7,0.5s0.6,0.9,0.6,1.6c0,1.1-0.4,1.7-1.3,2l1.3,2.8h-0.9
		l-1.2-2.7H191.6z M193.4,410.7c0.9,0,1.4-0.5,1.4-1.5s-0.5-1.5-1.4-1.5h-1.8v2.9H193.4z"/>
	<path class="st0" d="M200.2,413.4l0.3,0l0,0.6c-0.8,0.1-1.4,0.2-2,0.2c-0.7,0-1.2-0.2-1.5-0.6c-0.3-0.4-0.5-1.1-0.5-1.9
		c0-1.8,0.7-2.6,2.1-2.6c0.7,0,1.2,0.2,1.5,0.6c0.3,0.4,0.5,1,0.5,1.8l0,0.6h-3.3c0,0.6,0.1,1,0.3,1.2c0.2,0.3,0.5,0.4,1,0.4
		C199.2,413.5,199.7,413.4,200.2,413.4z M199.9,411.2c0-0.6-0.1-1-0.3-1.3c-0.2-0.3-0.5-0.4-1-0.4c-0.4,0-0.8,0.1-1,0.4
		c-0.2,0.3-0.3,0.7-0.3,1.3H199.9z"/>
	<path class="st0" d="M205.4,410.5v2.6c0,0.2,0.2,0.4,0.6,0.4l0,0.6c-0.5,0-0.9-0.1-1.2-0.4c-0.6,0.3-1.2,0.4-1.8,0.4
		c-0.5,0-0.8-0.1-1.1-0.4c-0.2-0.3-0.4-0.6-0.4-1.1c0-0.5,0.1-0.8,0.4-1.1c0.2-0.2,0.6-0.4,1.2-0.4l1.6-0.1v-0.4
		c0-0.3-0.1-0.6-0.2-0.7s-0.3-0.2-0.6-0.2c-0.5,0-1.1,0-1.7,0.1l-0.3,0l0-0.6c0.7-0.1,1.4-0.2,1.9-0.2c0.6,0,1,0.1,1.2,0.4
		S205.4,410,205.4,410.5z M202.3,412.6c0,0.6,0.3,0.9,0.8,0.9c0.5,0,0.9-0.1,1.3-0.2l0.2-0.1v-1.7l-1.5,0.1c-0.3,0-0.5,0.1-0.7,0.3
		S202.3,412.3,202.3,412.6z"/>
	<path class="st0" d="M210.7,406.8v7.2H210v-0.3c-0.5,0.3-1,0.4-1.5,0.4c-0.3,0-0.5,0-0.7-0.1c-0.2-0.1-0.4-0.2-0.6-0.4
		c-0.4-0.4-0.5-1-0.5-2c0-1,0.2-1.7,0.5-2.1s0.9-0.6,1.6-0.6c0.4,0,0.8,0,1.2,0.1v-2.2H210.7z M208.1,413.4c0.1,0,0.3,0.1,0.5,0.1
		c0.2,0,0.4,0,0.6-0.1c0.2-0.1,0.4-0.1,0.6-0.2l0.2-0.1v-3.4c-0.4-0.1-0.8-0.1-1.2-0.1c-0.5,0-0.9,0.2-1.1,0.5s-0.3,0.8-0.3,1.5
		c0,0.8,0.1,1.3,0.3,1.6C207.9,413.2,208,413.3,208.1,413.4z"/>
	<path class="st0" d="M219.7,410.6c0,1.2-0.2,2.1-0.6,2.7c-0.4,0.6-1.1,0.8-2.1,0.8s-1.8-0.3-2.1-0.8c-0.4-0.6-0.6-1.5-0.6-2.7
		s0.2-2.1,0.6-2.7c0.4-0.6,1.1-0.9,2.1-0.9c1,0,1.7,0.3,2.1,0.9C219.5,408.5,219.7,409.4,219.7,410.6z M215,410.6
		c0,1,0.1,1.7,0.4,2.2s0.8,0.7,1.5,0.7s1.3-0.2,1.5-0.7c0.3-0.4,0.4-1.2,0.4-2.2c0-1-0.1-1.8-0.4-2.2s-0.8-0.7-1.5-0.7
		s-1.3,0.2-1.5,0.7C215.1,408.8,215,409.6,215,410.6z"/>
	<path class="st0" d="M224.1,409h0.8v5h-0.8v-0.3c-0.5,0.3-1,0.4-1.5,0.4c-0.7,0-1.1-0.2-1.4-0.5c-0.2-0.4-0.3-1-0.3-2V409h0.8v2.6
		c0,0.7,0.1,1.2,0.2,1.5c0.1,0.2,0.4,0.4,0.9,0.4c0.2,0,0.4,0,0.7-0.1c0.2-0.1,0.4-0.1,0.5-0.2l0.2-0.1V409z"/>
	<path class="st0" d="M228.9,409.7h-1.6v2.4c0,0.6,0,1,0.1,1.1c0.1,0.2,0.3,0.3,0.6,0.3l0.9-0.1l0,0.6c-0.4,0.1-0.8,0.1-1,0.1
		c-0.5,0-0.9-0.1-1.1-0.4c-0.2-0.3-0.3-0.7-0.3-1.5v-2.6h-0.7V409h0.7v-1.5h0.7v1.5h1.6V409.7z"/>
</g>
</svg>
