<?xml version="1.0" encoding="utf-8"?>
<!-- Generator: Adobe Illustrator 21.0.2, SVG Export Plug-In . SVG Version: 6.00 Build 0)  -->
<svg version="1.1" id="Layer_1" xmlns="http://www.w3.org/2000/svg" xmlns:xlink="http://www.w3.org/1999/xlink" x="0px" y="0px"
	 viewBox="0 0 945 196" style="enable-background:new 0 0 945 196;" xml:space="preserve">
<style type="text/css">
	.st0{fill:#FFFFFF;}
	.st1{fill:#0073B3;}
	.st2{enable-background:new    ;}
</style>
<g id="XMLID_18_">
	<g id="XMLID_278_">
		<polygon class="st0" points="703.4,149 13.2,149 13.2,96 928.2,96 928.2,48.5 241,48.5 241,45.5 931.2,45.5 931.2,99 16.2,99 
			16.2,146 703.4,146 		"/>
	</g>
</g>
<g id="XMLID_1_">
	<rect x="39" y="17.3" class="st1" width="202" height="59.3"/>
</g>
<g id="XMLID_11_">
	<rect x="260.5" y="17.3" class="st1" width="202" height="59.3"/>
</g>
<g id="XMLID_12_">
	<rect x="481.9" y="17.3" class="st1" width="202" height="59.3"/>
</g>
<g id="XMLID_13_">
	<rect x="703.4" y="17.3" class="st1" width="202" height="59.3"/>
</g>
<g id="XMLID_17_">
	<rect x="39" y="117.9" class="st1" width="202" height="59.3"/>
</g>
<g id="XMLID_16_">
	<rect x="260.5" y="117.9" class="st1" width="202" height="59.3"/>
</g>
<g id="XMLID_15_">
	<rect x="481.9" y="117.9" class="st1" width="202" height="59.3"/>
</g>
<g id="XMLID_14_">
	<rect x="703.4" y="117.9" class="st1" width="202" height="59.3"/>
</g>
<g class="st2">
	<path class="st0" d="M136.7,40.2V27.5h2.1v12.7H136.7z"/>
	<path class="st0" d="M141.4,34.6v-2.7h2.2v2.7H141.4z M141.4,40.2v-2.7h2.2v2.7H141.4z"/>
</g>
<g class="st2">
	<path class="st0" d="M83.4,64.2V53.1h1v11.1H83.4z"/>
	<path class="st0" d="M87.9,64.2H87v-8h0.9v0.6c0.9-0.5,1.8-0.8,2.6-0.8c1.1,0,1.8,0.3,2.1,0.8c0.4,0.6,0.5,1.6,0.5,3.1v4.2h-1v-4.2
		c0-1.2-0.1-2.1-0.4-2.5c-0.2-0.4-0.7-0.6-1.5-0.6c-0.4,0-0.8,0.1-1.2,0.2c-0.4,0.1-0.7,0.2-1,0.3l-0.3,0.2V64.2z"/>
	<path class="st0" d="M97.9,57c-1.3,0-1.9,0.5-1.9,1.4c0,0.4,0.1,0.7,0.4,0.9s0.9,0.3,1.9,0.5c1,0.2,1.7,0.4,2.1,0.7
		c0.4,0.3,0.6,0.8,0.6,1.7c0,0.8-0.3,1.4-0.8,1.8c-0.5,0.4-1.3,0.6-2.3,0.6c-0.6,0-1.3-0.1-2.3-0.2l-0.5-0.1l0.1-0.8
		c1.2,0.2,2.1,0.3,2.8,0.3c0.6,0,1.1-0.1,1.5-0.3s0.5-0.6,0.5-1.1s-0.1-0.9-0.4-1.1s-0.9-0.3-1.9-0.5s-1.6-0.4-2-0.6
		c-0.4-0.3-0.6-0.8-0.6-1.6c0-0.8,0.3-1.3,0.8-1.7c0.5-0.4,1.2-0.5,2-0.5c0.6,0,1.4,0.1,2.4,0.2l0.4,0.1l0,0.8
		C99.5,57.1,98.6,57,97.9,57z"/>
	<path class="st0" d="M102.9,54.2V53h0.9v1.2H102.9z M102.9,64.2v-8h0.9v8H102.9z"/>
	<path class="st0" d="M112.7,65.5c0,0.9-0.3,1.6-0.9,2c-0.6,0.4-1.5,0.6-2.7,0.6c-1.2,0-2.1-0.2-2.5-0.5c-0.5-0.4-0.7-1-0.7-1.9
		c0-0.4,0.1-0.8,0.3-1.1c0.2-0.3,0.5-0.6,1-0.9c-0.3-0.2-0.4-0.5-0.4-1.1c0-0.2,0.1-0.5,0.4-1l0.1-0.2c-0.9-0.4-1.3-1.2-1.3-2.4
		c0-1.8,1-2.7,2.9-2.7c0.5,0,1,0.1,1.4,0.2l0.2,0l2.3,0v0.8l-1.6,0c0.4,0.4,0.6,1,0.6,1.9s-0.2,1.5-0.7,1.9
		c-0.5,0.4-1.3,0.6-2.3,0.6c-0.3,0-0.6,0-0.8-0.1c-0.2,0.5-0.3,0.9-0.3,1c0,0.4,0.1,0.6,0.3,0.6s0.8,0.1,1.9,0.1
		c1,0,1.8,0.2,2.2,0.5C112.5,63.9,112.7,64.6,112.7,65.5z M106.9,65.5c0,0.6,0.2,1.1,0.5,1.3c0.3,0.2,0.9,0.4,1.9,0.4
		c0.9,0,1.6-0.1,2-0.4c0.4-0.3,0.6-0.7,0.6-1.3s-0.1-1-0.4-1.2c-0.3-0.2-0.8-0.3-1.6-0.3l-1.8-0.1c-0.4,0.3-0.7,0.5-0.8,0.7
		C106.9,64.9,106.9,65.2,106.9,65.5z M107,58.8c0,0.7,0.1,1.2,0.4,1.5c0.3,0.3,0.8,0.4,1.5,0.4s1.2-0.1,1.5-0.4
		c0.3-0.3,0.4-0.8,0.4-1.5c0-0.7-0.1-1.2-0.4-1.5c-0.3-0.3-0.8-0.4-1.5-0.4s-1.2,0.1-1.5,0.4C107.1,57.6,107,58.1,107,58.8z"/>
	<path class="st0" d="M115.3,64.2h-0.9V52.7h0.9v4c0.9-0.4,1.8-0.6,2.6-0.6c1.1,0,1.8,0.3,2.1,0.8s0.5,1.6,0.5,3.1v4.2h-1v-4.2
		c0-1.2-0.1-2.1-0.3-2.5c-0.2-0.4-0.7-0.6-1.5-0.6c-0.4,0-0.8,0-1.2,0.1c-0.4,0.1-0.7,0.2-1,0.3l-0.3,0.1V64.2z"/>
	<path class="st0" d="M126.9,57.1h-2.7v4c0,1,0.1,1.7,0.2,2s0.5,0.5,1.1,0.5l1.5-0.1l0.1,0.8c-0.7,0.1-1.2,0.2-1.6,0.2
		c-0.8,0-1.4-0.2-1.7-0.6c-0.3-0.4-0.5-1.2-0.5-2.3v-4.4h-1.2v-0.8h1.2v-2.5h1v2.5h2.7V57.1z"/>
	<path class="st0" d="M133.8,53.7c0.5-0.4,1.1-0.6,2-0.6c0.9,0,1.5,0.2,2,0.6c0.4,0.4,0.7,1,0.7,1.8c0,0.7-0.2,1.3-0.6,1.8
		c-0.4,0.4-1,0.8-2,1.2l2.6,2.6c0.1-0.3,0.2-0.7,0.3-1.3c0.1-0.6,0.2-1.1,0.2-1.5l0.9,0c-0.1,1.4-0.4,2.5-0.7,3.3l2.1,2l-0.6,0.7
		l-2-1.9c-0.7,1.3-1.9,1.9-3.5,1.9c-1.4,0-2.4-0.3-3-0.9c-0.6-0.6-0.9-1.4-0.9-2.4c0-1,0.2-1.8,0.6-2.2c0.4-0.5,1-0.8,1.9-1.1
		c-0.4-0.4-0.6-0.8-0.7-1.1c-0.1-0.3-0.2-0.7-0.2-1.2C133.1,54.7,133.3,54.1,133.8,53.7z M135.2,63.5c1.4,0,2.3-0.5,2.8-1.6
		l-3.5-3.5c-0.8,0.2-1.3,0.5-1.7,0.9c-0.3,0.4-0.5,1-0.5,1.7C132.4,62.7,133.3,63.5,135.2,63.5z M134,55.5c0,0.7,0.2,1.3,0.7,1.8
		l0.5,0.5c0.8-0.3,1.4-0.6,1.7-1c0.3-0.3,0.5-0.8,0.5-1.4c0-1.1-0.6-1.6-1.7-1.6S134,54.4,134,55.5z"/>
	<path class="st0" d="M147.6,64.2h-1V53.1h1v5.2l1.9,0l3.1-5.2h1.1l-3.4,5.6l3.6,5.5h-1.2l-3.2-5l-1.9,0V64.2z"/>
	<path class="st0" d="M155.4,54.2V53h0.9v1.2H155.4z M155.4,64.2v-8h0.9v8H155.4z"/>
	<path class="st0" d="M161.7,56.1c0.5,0,1.1,0.1,1.7,0.2l0.4,0l0,0.8c-0.8-0.1-1.5-0.2-1.9-0.2c-0.9,0-1.6,0.2-2,0.7
		c-0.4,0.5-0.5,1.3-0.5,2.6c0,1.2,0.2,2.1,0.5,2.6c0.3,0.5,1,0.7,2,0.7l1.9-0.1l0,0.8c-0.9,0.1-1.7,0.2-2.1,0.2
		c-1.3,0-2.1-0.3-2.6-0.9c-0.5-0.6-0.7-1.7-0.7-3.2s0.3-2.6,0.8-3.2C159.7,56.4,160.5,56.1,161.7,56.1z"/>
	<path class="st0" d="M166.6,64.2h-0.9V52.7h0.9v6.9l1.4,0l2.5-3.3h1.1l-2.7,3.7l2.9,4.3h-1.1l-2.6-3.9l-1.4,0V64.2z"/>
	<path class="st0" d="M172.5,60.3v-0.9h4.9v0.9H172.5z"/>
	<path class="st0" d="M179.4,60.2c0-1.5,0.3-2.6,0.8-3.2c0.5-0.6,1.4-0.9,2.6-0.9s2.1,0.3,2.6,0.9c0.5,0.6,0.8,1.7,0.8,3.2
		s-0.2,2.6-0.7,3.2c-0.5,0.6-1.3,1-2.6,1c-1.3,0-2.2-0.3-2.7-1C179.6,62.8,179.4,61.7,179.4,60.2z M180.3,60.2
		c0,1.3,0.1,2.1,0.4,2.6s0.9,0.7,1.9,0.7c1,0,1.6-0.2,1.9-0.7c0.3-0.5,0.4-1.4,0.4-2.6c0-1.3-0.2-2.1-0.5-2.6s-1-0.7-1.9-0.7
		c-0.9,0-1.5,0.2-1.9,0.7C180.5,58.1,180.3,58.9,180.3,60.2z"/>
	<path class="st0" d="M189.4,57.1v7.2h-1v-7.2h-1v-0.8h1v-0.8c0-1.1,0.2-1.9,0.5-2.3c0.3-0.4,0.9-0.6,1.6-0.6l1.6,0.1v0.8
		c-0.6,0-1.1,0-1.4,0c-0.5,0-0.8,0.1-1,0.4c-0.2,0.3-0.3,0.8-0.3,1.6v0.8h2.4v0.8H189.4z"/>
	<path class="st0" d="M194.6,57.1v7.2h-1v-7.2h-1v-0.8h1v-0.8c0-1.1,0.2-1.9,0.5-2.3c0.3-0.4,0.9-0.6,1.6-0.6l1.6,0.1v0.8
		c-0.6,0-1.1,0-1.4,0c-0.5,0-0.8,0.1-1,0.4c-0.2,0.3-0.3,0.8-0.3,1.6v0.8h2.4v0.8H194.6z"/>
</g>
<g class="st2">
	<path class="st0" d="M355.7,40.2V27.5h2.1v12.7H355.7z"/>
	<path class="st0" d="M360.7,40.2V27.5h2.1v12.7H360.7z"/>
	<path class="st0" d="M365.4,34.6v-2.7h2.2v2.7H365.4z M365.4,40.2v-2.7h2.2v2.7H365.4z"/>
</g>
<g class="st2">
	<path class="st0" d="M305.7,60.4h-3.1v3.9h-1V53.1h4.1c1.2,0,2.1,0.3,2.6,0.9c0.6,0.6,0.8,1.5,0.8,2.7
		C309.1,59.1,308,60.4,305.7,60.4z M302.6,59.5h3.1c1.6,0,2.4-0.9,2.4-2.8c0-0.9-0.2-1.6-0.6-2s-1-0.6-1.9-0.6h-3.1V59.5z"/>
	<path class="st0" d="M310.9,64.2v-8h0.9v1.2c0.4-0.3,0.9-0.5,1.4-0.8c0.6-0.3,1.1-0.4,1.6-0.5v1c-0.5,0.1-0.9,0.2-1.4,0.4
		s-0.9,0.4-1.2,0.5l-0.4,0.2v6H310.9z"/>
	<path class="st0" d="M315.8,60.2c0-1.5,0.3-2.6,0.8-3.2c0.5-0.6,1.4-0.9,2.6-0.9s2.1,0.3,2.6,0.9c0.5,0.6,0.8,1.7,0.8,3.2
		s-0.2,2.6-0.7,3.2c-0.5,0.6-1.3,1-2.6,1c-1.3,0-2.2-0.3-2.7-1C316,62.8,315.8,61.7,315.8,60.2z M316.8,60.2c0,1.3,0.1,2.1,0.4,2.6
		s0.9,0.7,1.9,0.7c1,0,1.6-0.2,1.9-0.7c0.3-0.5,0.4-1.4,0.4-2.6c0-1.3-0.2-2.1-0.5-2.6s-1-0.7-1.9-0.7c-0.9,0-1.5,0.2-1.9,0.7
		C317,58.1,316.8,58.9,316.8,60.2z"/>
	<path class="st0" d="M324.6,64.1v-7.8h1v7.9c0,0.9-0.2,1.7-0.5,2.1c-0.3,0.5-1,1-2.1,1.5l-0.4-0.8c0.9-0.5,1.4-0.9,1.7-1.2
		C324.4,65.4,324.6,64.9,324.6,64.1z M324.6,54.2V53h1v1.2H324.6z"/>
	<path class="st0" d="M333.2,63.4l0.5,0l0,0.8c-1.2,0.1-2.2,0.2-3.1,0.2c-1.2,0-2-0.4-2.4-1c-0.5-0.7-0.7-1.7-0.7-3.1
		c0-2.8,1.1-4.2,3.3-4.2c1.1,0,1.8,0.3,2.4,0.9c0.5,0.6,0.8,1.6,0.8,2.9l0,0.8h-5.4c0,1,0.2,1.7,0.5,2.2s0.9,0.7,1.7,0.7
		S332.4,63.5,333.2,63.4z M328.5,59.8h4.5c0-1.1-0.2-1.8-0.5-2.3c-0.3-0.4-0.9-0.7-1.7-0.7s-1.3,0.2-1.7,0.7S328.5,58.8,328.5,59.8z
		"/>
	<path class="st0" d="M339,56.1c0.5,0,1.1,0.1,1.7,0.2l0.4,0l0,0.8c-0.8-0.1-1.5-0.2-1.9-0.2c-0.9,0-1.6,0.2-2,0.7
		c-0.4,0.5-0.5,1.3-0.5,2.6c0,1.2,0.2,2.1,0.5,2.6c0.3,0.5,1,0.7,2,0.7l1.9-0.1l0,0.8c-0.9,0.1-1.7,0.2-2.1,0.2
		c-1.3,0-2.1-0.3-2.6-0.9c-0.5-0.6-0.7-1.7-0.7-3.2s0.3-2.6,0.8-3.2C336.9,56.4,337.8,56.1,339,56.1z"/>
	<path class="st0" d="M347,57.1h-2.7v4c0,1,0.1,1.7,0.2,2s0.5,0.5,1.1,0.5l1.5-0.1l0.1,0.8c-0.7,0.1-1.2,0.2-1.6,0.2
		c-0.8,0-1.4-0.2-1.7-0.6c-0.3-0.4-0.5-1.2-0.5-2.3v-4.4h-1.2v-0.8h1.2v-2.5h1v2.5h2.7V57.1z"/>
	<path class="st0" d="M352.2,64.2V53.1h1v11.1H352.2z"/>
	<path class="st0" d="M356.7,64.2h-0.9v-8h0.9v0.6c0.8-0.5,1.7-0.8,2.6-0.8s1.6,0.3,2,0.8c0.4-0.2,0.9-0.4,1.4-0.6
		c0.5-0.2,1-0.2,1.5-0.2c1.1,0,1.8,0.3,2.1,0.8c0.4,0.6,0.5,1.6,0.5,3.1v4.2h-0.9v-4.2c0-1.2-0.1-2.1-0.3-2.5
		c-0.2-0.4-0.7-0.6-1.5-0.6c-0.4,0-0.8,0.1-1.2,0.2s-0.7,0.2-0.9,0.3l-0.3,0.2c0.2,0.4,0.2,1.2,0.2,2.5v4.2h-1v-4.1
		c0-1.2-0.1-2.1-0.3-2.5c-0.2-0.4-0.7-0.6-1.5-0.6c-0.4,0-0.8,0.1-1.1,0.2c-0.4,0.1-0.7,0.2-0.9,0.3l-0.3,0.2V64.2z"/>
	<path class="st0" d="M370.1,64.2h-0.9v-8h0.9v0.6c0.8-0.5,1.7-0.8,2.6-0.8s1.6,0.3,2,0.8c0.4-0.2,0.9-0.4,1.4-0.6
		c0.5-0.2,1-0.2,1.5-0.2c1.1,0,1.8,0.3,2.1,0.8c0.4,0.6,0.5,1.6,0.5,3.1v4.2h-0.9v-4.2c0-1.2-0.1-2.1-0.3-2.5
		c-0.2-0.4-0.7-0.6-1.5-0.6c-0.4,0-0.8,0.1-1.2,0.2s-0.7,0.2-0.9,0.3l-0.3,0.2c0.2,0.4,0.2,1.2,0.2,2.5v4.2h-1v-4.1
		c0-1.2-0.1-2.1-0.3-2.5c-0.2-0.4-0.7-0.6-1.5-0.6c-0.4,0-0.8,0.1-1.1,0.2c-0.4,0.1-0.7,0.2-0.9,0.3l-0.3,0.2V64.2z"/>
	<path class="st0" d="M387.8,63.4l0.5,0l0,0.8c-1.2,0.1-2.2,0.2-3.1,0.2c-1.2,0-2-0.4-2.4-1c-0.5-0.7-0.7-1.7-0.7-3.1
		c0-2.8,1.1-4.2,3.3-4.2c1.1,0,1.8,0.3,2.4,0.9c0.5,0.6,0.8,1.6,0.8,2.9l0,0.8h-5.4c0,1,0.2,1.7,0.5,2.2s0.9,0.7,1.7,0.7
		S387,63.5,387.8,63.4z M383.1,59.8h4.5c0-1.1-0.2-1.8-0.5-2.3c-0.3-0.4-0.9-0.7-1.7-0.7s-1.3,0.2-1.7,0.7S383.1,58.8,383.1,59.8z"
		/>
	<path class="st0" d="M390.5,64.2v-8h0.9v1.2c0.4-0.3,0.9-0.5,1.4-0.8c0.6-0.3,1.1-0.4,1.6-0.5v1c-0.5,0.1-0.9,0.2-1.4,0.4
		s-0.9,0.4-1.2,0.5l-0.4,0.2v6H390.5z"/>
	<path class="st0" d="M398.4,57c-1.3,0-1.9,0.5-1.9,1.4c0,0.4,0.1,0.7,0.4,0.9s0.9,0.3,1.9,0.5c1,0.2,1.7,0.4,2.1,0.7
		c0.4,0.3,0.6,0.8,0.6,1.7c0,0.8-0.3,1.4-0.8,1.8c-0.5,0.4-1.3,0.6-2.3,0.6c-0.6,0-1.3-0.1-2.3-0.2l-0.5-0.1l0.1-0.8
		c1.2,0.2,2.1,0.3,2.8,0.3c0.6,0,1.1-0.1,1.5-0.3s0.5-0.6,0.5-1.1s-0.1-0.9-0.4-1.1s-0.9-0.3-1.9-0.5s-1.6-0.4-2-0.6
		c-0.4-0.3-0.6-0.8-0.6-1.6c0-0.8,0.3-1.3,0.8-1.7c0.5-0.4,1.2-0.5,2-0.5c0.6,0,1.4,0.1,2.4,0.2l0.4,0.1l0,0.8
		C400,57.1,399.1,57,398.4,57z"/>
	<path class="st0" d="M403.4,54.2V53h0.9v1.2H403.4z M403.4,64.2v-8h0.9v8H403.4z"/>
	<path class="st0" d="M406.4,60.2c0-1.5,0.3-2.6,0.8-3.2c0.5-0.6,1.4-0.9,2.6-0.9s2.1,0.3,2.6,0.9c0.5,0.6,0.8,1.7,0.8,3.2
		s-0.2,2.6-0.7,3.2c-0.5,0.6-1.3,1-2.6,1c-1.3,0-2.2-0.3-2.7-1C406.6,62.8,406.4,61.7,406.4,60.2z M407.4,60.2
		c0,1.3,0.1,2.1,0.4,2.6s0.9,0.7,1.9,0.7c1,0,1.6-0.2,1.9-0.7c0.3-0.5,0.4-1.4,0.4-2.6c0-1.3-0.2-2.1-0.5-2.6s-1-0.7-1.9-0.7
		c-0.9,0-1.5,0.2-1.9,0.7C407.6,58.1,407.4,58.9,407.4,60.2z"/>
	<path class="st0" d="M416.1,64.2h-0.9v-8h0.9v0.6c0.9-0.5,1.8-0.8,2.6-0.8c1.1,0,1.8,0.3,2.1,0.8c0.4,0.6,0.5,1.6,0.5,3.1v4.2h-1
		v-4.2c0-1.2-0.1-2.1-0.4-2.5c-0.2-0.4-0.7-0.6-1.5-0.6c-0.4,0-0.8,0.1-1.2,0.2c-0.4,0.1-0.7,0.2-1,0.3l-0.3,0.2V64.2z"/>
</g>
<g class="st2">
	<path class="st0" d="M574.7,40.2V27.5h2.1v12.7H574.7z"/>
	<path class="st0" d="M579.7,40.2V27.5h2.1v12.7H579.7z"/>
	<path class="st0" d="M584.7,40.2V27.5h2.1v12.7H584.7z"/>
	<path class="st0" d="M589.3,34.6v-2.7h2.2v2.7H589.3z M589.3,40.2v-2.7h2.2v2.7H589.3z"/>
</g>
<g class="st2">
	<path class="st0" d="M500,64.2V53.1h1.9l3.4,9.7l3.4-9.7h1.9v11.1h-1V54.1h-0.2l-3.5,9.7h-1.2l-3.5-9.7H501v10.1H500z"/>
	<path class="st0" d="M518.7,58.6v4.3c0,0.4,0.4,0.6,1,0.7l0,0.8c-0.8,0-1.4-0.2-1.8-0.6c-1,0.4-2,0.7-3,0.7c-0.7,0-1.3-0.2-1.6-0.6
		c-0.4-0.4-0.6-1-0.6-1.8s0.2-1.3,0.6-1.7c0.4-0.4,1-0.6,1.8-0.7l2.7-0.3v-0.8c0-0.6-0.1-1-0.4-1.3c-0.3-0.3-0.6-0.4-1-0.4
		c-0.7,0-1.6,0.1-2.7,0.2l-0.5,0l0-0.8c1.2-0.2,2.2-0.3,3.1-0.3c0.9,0,1.5,0.2,1.9,0.6S518.7,57.8,518.7,58.6z M513.6,62
		c0,1.1,0.4,1.6,1.3,1.6c0.4,0,0.8,0,1.3-0.1c0.5-0.1,0.8-0.2,1.1-0.3l0.4-0.1v-2.9l-2.6,0.3c-0.5,0-0.9,0.2-1.1,0.4
		C513.7,61.1,513.6,61.5,513.6,62z"/>
	<path class="st0" d="M521.1,64.2v-8h0.9v1.2c0.4-0.3,0.9-0.5,1.4-0.8c0.6-0.3,1.1-0.4,1.6-0.5v1c-0.5,0.1-0.9,0.2-1.4,0.4
		c-0.5,0.2-0.9,0.4-1.2,0.5l-0.4,0.2v6H521.1z"/>
	<path class="st0" d="M527.5,64.2h-0.9V52.7h0.9v6.9l1.4,0l2.5-3.3h1.1l-2.7,3.7l2.9,4.3h-1.1l-2.6-3.9l-1.4,0V64.2z"/>
	<path class="st0" d="M539.1,63.4l0.5,0l0,0.8c-1.2,0.1-2.2,0.2-3.1,0.2c-1.2,0-2-0.4-2.4-1s-0.7-1.7-0.7-3.1c0-2.8,1.1-4.2,3.3-4.2
		c1.1,0,1.8,0.3,2.4,0.9c0.5,0.6,0.8,1.6,0.8,2.9l0,0.8h-5.4c0,1,0.2,1.7,0.5,2.2s0.9,0.7,1.7,0.7C537.5,63.5,538.3,63.5,539.1,63.4
		z M534.5,59.8h4.5c0-1.1-0.2-1.8-0.5-2.3c-0.3-0.4-0.9-0.7-1.7-0.7s-1.3,0.2-1.7,0.7S534.5,58.8,534.5,59.8z"/>
	<path class="st0" d="M545.9,57.1h-2.7v4c0,1,0.1,1.7,0.2,2s0.5,0.5,1.1,0.5l1.5-0.1l0.1,0.8c-0.7,0.1-1.2,0.2-1.6,0.2
		c-0.8,0-1.4-0.2-1.7-0.6c-0.3-0.4-0.5-1.2-0.5-2.3v-4.4h-1.2v-0.8h1.2v-2.5h1v2.5h2.7V57.1z"/>
	<path class="st0" d="M552.1,59.9v4.4h-1V53.1h4.1c1.2,0,2,0.3,2.6,0.8s0.9,1.4,0.9,2.5c0,1.8-0.7,2.9-2.1,3.2l2.3,4.6h-1.1
		l-2.2-4.4H552.1z M557.6,56.4c0-0.8-0.2-1.4-0.6-1.8c-0.4-0.4-1-0.6-1.8-0.6h-3.1v5h3.1C556.8,59,557.6,58.1,557.6,56.4z"/>
	<path class="st0" d="M565.9,63.4l0.5,0l0,0.8c-1.2,0.1-2.2,0.2-3.1,0.2c-1.2,0-2-0.4-2.4-1s-0.7-1.7-0.7-3.1c0-2.8,1.1-4.2,3.3-4.2
		c1.1,0,1.8,0.3,2.4,0.9c0.5,0.6,0.8,1.6,0.8,2.9l0,0.8h-5.4c0,1,0.2,1.7,0.5,2.2s0.9,0.7,1.7,0.7C564.3,63.5,565.1,63.5,565.9,63.4
		z M561.2,59.8h4.5c0-1.1-0.2-1.8-0.5-2.3c-0.3-0.4-0.9-0.7-1.7-0.7s-1.3,0.2-1.7,0.7S561.2,58.8,561.2,59.8z"/>
	<path class="st0" d="M571.1,57c-1.3,0-1.9,0.5-1.9,1.4c0,0.4,0.1,0.7,0.4,0.9s0.9,0.3,1.9,0.5c1,0.2,1.7,0.4,2.1,0.7
		c0.4,0.3,0.6,0.8,0.6,1.7c0,0.8-0.3,1.4-0.8,1.8c-0.5,0.4-1.3,0.6-2.3,0.6c-0.6,0-1.3-0.1-2.3-0.2l-0.5-0.1l0.1-0.8
		c1.2,0.2,2.1,0.3,2.8,0.3s1.1-0.1,1.5-0.3s0.5-0.6,0.5-1.1s-0.1-0.9-0.4-1.1c-0.3-0.2-0.9-0.3-1.9-0.5c-1-0.1-1.6-0.4-2-0.6
		s-0.6-0.8-0.6-1.6c0-0.8,0.3-1.3,0.8-1.7c0.5-0.4,1.2-0.5,2-0.5c0.6,0,1.4,0.1,2.4,0.2l0.4,0.1l0,0.8C572.7,57.1,571.8,57,571.1,57
		z"/>
	<path class="st0" d="M581.4,63.4l0.5,0l0,0.8c-1.2,0.1-2.2,0.2-3.1,0.2c-1.2,0-2-0.4-2.4-1c-0.5-0.7-0.7-1.7-0.7-3.1
		c0-2.8,1.1-4.2,3.3-4.2c1.1,0,1.8,0.3,2.4,0.9s0.8,1.6,0.8,2.9l0,0.8h-5.4c0,1,0.2,1.7,0.5,2.2s0.9,0.7,1.7,0.7
		C579.8,63.5,580.6,63.5,581.4,63.4z M576.7,59.8h4.5c0-1.1-0.2-1.8-0.5-2.3c-0.3-0.4-0.9-0.7-1.7-0.7s-1.3,0.2-1.7,0.7
		S576.7,58.8,576.7,59.8z"/>
	<path class="st0" d="M589.7,58.6v4.3c0,0.4,0.4,0.6,1,0.7l0,0.8c-0.8,0-1.4-0.2-1.8-0.6c-1,0.4-2,0.7-3,0.7c-0.7,0-1.3-0.2-1.6-0.6
		c-0.4-0.4-0.6-1-0.6-1.8s0.2-1.3,0.6-1.7c0.4-0.4,1-0.6,1.8-0.7l2.7-0.3v-0.8c0-0.6-0.1-1-0.4-1.3c-0.3-0.3-0.6-0.4-1-0.4
		c-0.7,0-1.6,0.1-2.7,0.2l-0.5,0l0-0.8c1.2-0.2,2.2-0.3,3.1-0.3s1.5,0.2,1.9,0.6S589.7,57.8,589.7,58.6z M584.7,62
		c0,1.1,0.4,1.6,1.3,1.6c0.4,0,0.8,0,1.3-0.1c0.5-0.1,0.8-0.2,1.1-0.3l0.4-0.1v-2.9l-2.6,0.3c-0.5,0-0.9,0.2-1.1,0.4
		C584.8,61.1,584.7,61.5,584.7,62z"/>
	<path class="st0" d="M592.2,64.2v-8h0.9v1.2c0.4-0.3,0.9-0.5,1.4-0.8c0.6-0.3,1.1-0.4,1.6-0.5v1c-0.5,0.1-0.9,0.2-1.4,0.4
		c-0.5,0.2-0.9,0.4-1.2,0.5l-0.4,0.2v6H592.2z"/>
	<path class="st0" d="M600.3,56.1c0.5,0,1.1,0.1,1.7,0.2l0.4,0l0,0.8c-0.8-0.1-1.5-0.2-1.9-0.2c-0.9,0-1.6,0.2-2,0.7
		c-0.4,0.5-0.5,1.3-0.5,2.6c0,1.2,0.2,2.1,0.5,2.6c0.3,0.5,1,0.7,2,0.7l1.9-0.1l0,0.8c-1,0.1-1.7,0.2-2.1,0.2
		c-1.3,0-2.1-0.3-2.6-0.9c-0.5-0.6-0.7-1.7-0.7-3.2s0.3-2.6,0.8-3.2S599.2,56.1,600.3,56.1z"/>
</g>
<g class="st2">
	<path class="st0" d="M605.9,64.2H605V52.7h0.9v4c0.9-0.4,1.8-0.6,2.6-0.6c1.1,0,1.8,0.3,2.1,0.8s0.5,1.6,0.5,3.1v4.2h-1v-4.2
		c0-1.2-0.1-2.1-0.3-2.5c-0.2-0.4-0.7-0.6-1.5-0.6c-0.4,0-0.8,0-1.2,0.1s-0.7,0.2-1,0.3l-0.3,0.1V64.2z"/>
	<path class="st0" d="M613.8,64.1l4.5-11.1l0.9,0.3l-4.5,11.1L613.8,64.1z"/>
</g>
<g class="st2">
	<path class="st0" d="M623.3,64.2V53.1h1v11.1H623.3z"/>
	<path class="st0" d="M627.8,64.2h-0.9v-8h0.9v0.6c0.9-0.5,1.8-0.8,2.6-0.8c1.1,0,1.8,0.3,2.1,0.8s0.5,1.6,0.5,3.1v4.2h-1v-4.2
		c0-1.2-0.1-2.1-0.4-2.5c-0.2-0.4-0.7-0.6-1.5-0.6c-0.4,0-0.8,0.1-1.2,0.2s-0.7,0.2-1,0.3l-0.3,0.2V64.2z"/>
	<path class="st0" d="M637.8,57c-1.3,0-1.9,0.5-1.9,1.4c0,0.4,0.1,0.7,0.4,0.9s0.9,0.3,1.9,0.5c1,0.2,1.7,0.4,2.1,0.7
		c0.4,0.3,0.6,0.8,0.6,1.7c0,0.8-0.3,1.4-0.8,1.8c-0.5,0.4-1.3,0.6-2.3,0.6c-0.6,0-1.3-0.1-2.3-0.2l-0.5-0.1l0.1-0.8
		c1.2,0.2,2.1,0.3,2.8,0.3c0.6,0,1.1-0.1,1.5-0.3s0.5-0.6,0.5-1.1s-0.1-0.9-0.4-1.1c-0.3-0.2-0.9-0.3-1.9-0.5c-1-0.1-1.6-0.4-2-0.6
		c-0.4-0.3-0.6-0.8-0.6-1.6c0-0.8,0.3-1.3,0.8-1.7c0.5-0.4,1.2-0.5,2-0.5c0.6,0,1.4,0.1,2.4,0.2l0.4,0.1l0,0.8
		C639.4,57.1,638.5,57,637.8,57z"/>
	<path class="st0" d="M642.8,54.2V53h0.9v1.2H642.8z M642.8,64.2v-8h0.9v8H642.8z"/>
	<path class="st0" d="M652.6,65.5c0,0.9-0.3,1.6-0.9,2c-0.6,0.4-1.5,0.6-2.7,0.6c-1.2,0-2.1-0.2-2.5-0.5c-0.5-0.4-0.7-1-0.7-1.9
		c0-0.4,0.1-0.8,0.3-1.1c0.2-0.3,0.5-0.6,1-0.9c-0.3-0.2-0.4-0.5-0.4-1.1c0-0.2,0.1-0.5,0.4-1l0.1-0.2c-0.9-0.4-1.3-1.2-1.3-2.4
		c0-1.8,1-2.7,2.9-2.7c0.5,0,1,0.1,1.4,0.2l0.2,0l2.3,0v0.8l-1.6,0c0.4,0.4,0.6,1,0.6,1.9s-0.2,1.5-0.7,1.9
		c-0.5,0.4-1.2,0.6-2.3,0.6c-0.3,0-0.6,0-0.8-0.1c-0.2,0.5-0.3,0.9-0.3,1c0,0.4,0.1,0.6,0.3,0.6s0.8,0.1,1.9,0.1
		c1,0,1.8,0.2,2.2,0.5C652.4,63.9,652.6,64.6,652.6,65.5z M646.8,65.5c0,0.6,0.2,1.1,0.5,1.3s0.9,0.4,1.9,0.4c0.9,0,1.6-0.1,2-0.4
		c0.4-0.3,0.6-0.7,0.6-1.3s-0.1-1-0.4-1.2c-0.3-0.2-0.8-0.3-1.6-0.3l-1.8-0.1c-0.4,0.3-0.7,0.5-0.8,0.7
		C646.8,64.9,646.8,65.2,646.8,65.5z M646.9,58.8c0,0.7,0.1,1.2,0.4,1.5c0.3,0.3,0.8,0.4,1.5,0.4c0.7,0,1.2-0.1,1.5-0.4
		c0.3-0.3,0.4-0.8,0.4-1.5c0-0.7-0.1-1.2-0.4-1.5c-0.3-0.3-0.8-0.4-1.5-0.4c-0.7,0-1.2,0.1-1.5,0.4S646.9,58.1,646.9,58.8z"/>
	<path class="st0" d="M655.2,64.2h-0.9V52.7h0.9v4c0.9-0.4,1.8-0.6,2.6-0.6c1.1,0,1.8,0.3,2.1,0.8s0.5,1.6,0.5,3.1v4.2h-1v-4.2
		c0-1.2-0.1-2.1-0.3-2.5c-0.2-0.4-0.7-0.6-1.5-0.6c-0.4,0-0.8,0-1.2,0.1s-0.7,0.2-1,0.3l-0.3,0.1V64.2z"/>
	<path class="st0" d="M666.8,57.1h-2.7v4c0,1,0.1,1.7,0.2,2s0.5,0.5,1.1,0.5l1.5-0.1l0.1,0.8c-0.7,0.1-1.2,0.2-1.6,0.2
		c-0.8,0-1.4-0.2-1.7-0.6c-0.3-0.4-0.5-1.2-0.5-2.3v-4.4H662v-0.8h1.2v-2.5h1v2.5h2.7V57.1z"/>
</g>
<g class="st2">
	<path class="st0" d="M795.6,40.2V27.5h2.1v12.7H795.6z"/>
	<path class="st0" d="M807.6,27.5h2.2l-3.1,12.7h-4l-3.1-12.7h2.2l2.5,10.9h0.9L807.6,27.5z"/>
	<path class="st0" d="M811.1,34.6v-2.7h2.2v2.7H811.1z M811.1,40.2v-2.7h2.2v2.7H811.1z"/>
</g>
<g class="st2">
	<path class="st0" d="M727.6,64.2V53.1h1v11.1H727.6z"/>
	<path class="st0" d="M732.1,64.2h-0.9v-8h0.9v0.6c0.9-0.5,1.8-0.8,2.6-0.8c1.1,0,1.8,0.3,2.1,0.8s0.5,1.6,0.5,3.1v4.2h-1v-4.2
		c0-1.2-0.1-2.1-0.4-2.5c-0.2-0.4-0.7-0.6-1.5-0.6c-0.4,0-0.8,0.1-1.2,0.2s-0.7,0.2-1,0.3l-0.3,0.2V64.2z"/>
	<path class="st0" d="M739.7,60.3v-0.9h4.9v0.9H739.7z"/>
	<path class="st0" d="M752.8,52.7v11.6h-1v-0.6c-0.8,0.5-1.7,0.8-2.6,0.8c-0.4,0-0.7,0-1-0.1c-0.3-0.1-0.6-0.3-0.9-0.5
		c-0.6-0.5-0.9-1.6-0.9-3.2s0.3-2.7,0.8-3.4s1.4-1,2.6-1c0.5,0,1.1,0.1,2,0.2v-3.6H752.8z M748.7,63.4c0.2,0.1,0.5,0.1,0.8,0.1
		s0.7-0.1,1.1-0.2c0.4-0.1,0.7-0.2,1-0.3l0.3-0.2v-5.7c-0.9-0.1-1.5-0.2-2-0.2c-0.9,0-1.5,0.3-1.9,0.8c-0.3,0.6-0.5,1.4-0.5,2.6
		c0,1.4,0.2,2.3,0.6,2.7C748.3,63.2,748.5,63.4,748.7,63.4z"/>
	<path class="st0" d="M760.5,63.4l0.5,0l0,0.8c-1.2,0.1-2.2,0.2-3.1,0.2c-1.2,0-2-0.4-2.4-1c-0.5-0.7-0.7-1.7-0.7-3.1
		c0-2.8,1.1-4.2,3.3-4.2c1.1,0,1.8,0.3,2.4,0.9s0.8,1.6,0.8,2.9l0,0.8h-5.4c0,1,0.2,1.7,0.5,2.2s0.9,0.7,1.7,0.7
		C758.9,63.5,759.7,63.5,760.5,63.4z M755.8,59.8h4.5c0-1.1-0.2-1.8-0.5-2.3c-0.3-0.4-0.9-0.7-1.7-0.7s-1.3,0.2-1.7,0.7
		S755.8,58.8,755.8,59.8z"/>
	<path class="st0" d="M763.3,67.8V56.2h0.9v0.6c0.8-0.5,1.7-0.8,2.6-0.8s1.6,0.3,2.1,1c0.5,0.7,0.7,1.7,0.7,3.2s-0.3,2.5-0.8,3.2
		c-0.5,0.7-1.4,1-2.7,1c-0.7,0-1.3-0.1-1.9-0.2v3.6H763.3z M766.7,56.9c-0.4,0-0.7,0.1-1.1,0.2s-0.7,0.2-0.9,0.4l-0.4,0.2v5.7
		c0.7,0.1,1.4,0.2,1.9,0.2c0.9,0,1.6-0.3,1.9-0.8c0.4-0.5,0.6-1.4,0.6-2.6c0-1.2-0.2-2-0.5-2.5S767.3,56.9,766.7,56.9z"/>
	<path class="st0" d="M775.6,57.1H773v4c0,1,0.1,1.7,0.2,2s0.5,0.5,1.1,0.5l1.5-0.1l0.1,0.8c-0.7,0.1-1.2,0.2-1.6,0.2
		c-0.8,0-1.4-0.2-1.7-0.6c-0.3-0.4-0.5-1.2-0.5-2.3v-4.4h-1.2v-0.8h1.2v-2.5h1v2.5h2.7V57.1z"/>
	<path class="st0" d="M778.1,64.2h-0.9V52.7h0.9v4c0.9-0.4,1.8-0.6,2.6-0.6c1.1,0,1.8,0.3,2.1,0.8s0.5,1.6,0.5,3.1v4.2h-1v-4.2
		c0-1.2-0.1-2.1-0.3-2.5c-0.2-0.4-0.7-0.6-1.5-0.6c-0.4,0-0.8,0-1.2,0.1c-0.4,0.1-0.7,0.2-1,0.3l-0.3,0.1V64.2z"/>
	<path class="st0" d="M789.4,64.2V53.1h1v11.1H789.4z"/>
	<path class="st0" d="M793.9,64.2H793v-8h0.9v0.6c0.9-0.5,1.8-0.8,2.6-0.8c1.1,0,1.8,0.3,2.1,0.8s0.5,1.6,0.5,3.1v4.2h-1v-4.2
		c0-1.2-0.1-2.1-0.4-2.5c-0.2-0.4-0.7-0.6-1.5-0.6c-0.4,0-0.8,0.1-1.2,0.2s-0.7,0.2-1,0.3l-0.3,0.2V64.2z"/>
	<path class="st0" d="M803.9,57c-1.3,0-1.9,0.5-1.9,1.4c0,0.4,0.1,0.7,0.4,0.9s0.9,0.3,1.9,0.5c1,0.2,1.7,0.4,2.1,0.7
		c0.4,0.3,0.6,0.8,0.6,1.7c0,0.8-0.3,1.4-0.8,1.8c-0.5,0.4-1.3,0.6-2.3,0.6c-0.6,0-1.3-0.1-2.3-0.2l-0.5-0.1l0.1-0.8
		c1.2,0.2,2.1,0.3,2.8,0.3c0.6,0,1.1-0.1,1.5-0.3s0.5-0.6,0.5-1.1s-0.1-0.9-0.4-1.1c-0.3-0.2-0.9-0.3-1.9-0.5c-1-0.1-1.6-0.4-2-0.6
		c-0.4-0.3-0.6-0.8-0.6-1.6c0-0.8,0.3-1.3,0.8-1.7c0.5-0.4,1.2-0.5,2-0.5c0.6,0,1.4,0.1,2.4,0.2l0.4,0.1l0,0.8
		C805.5,57.1,804.6,57,803.9,57z"/>
	<path class="st0" d="M808.9,54.2V53h0.9v1.2H808.9z M808.9,64.2v-8h0.9v8H808.9z"/>
	<path class="st0" d="M818.7,65.5c0,0.9-0.3,1.6-0.9,2c-0.6,0.4-1.5,0.6-2.7,0.6c-1.2,0-2.1-0.2-2.5-0.5c-0.5-0.4-0.7-1-0.7-1.9
		c0-0.4,0.1-0.8,0.3-1.1c0.2-0.3,0.5-0.6,1-0.9c-0.3-0.2-0.4-0.5-0.4-1.1c0-0.2,0.1-0.5,0.4-1l0.1-0.2c-0.9-0.4-1.3-1.2-1.3-2.4
		c0-1.8,1-2.7,2.9-2.7c0.5,0,1,0.1,1.4,0.2l0.2,0l2.3,0v0.8l-1.6,0c0.4,0.4,0.6,1,0.6,1.9s-0.2,1.5-0.7,1.9
		c-0.5,0.4-1.2,0.6-2.3,0.6c-0.3,0-0.6,0-0.8-0.1c-0.2,0.5-0.3,0.9-0.3,1c0,0.4,0.1,0.6,0.3,0.6s0.8,0.1,1.9,0.1
		c1,0,1.8,0.2,2.2,0.5C818.5,63.9,818.7,64.6,818.7,65.5z M812.9,65.5c0,0.6,0.2,1.1,0.5,1.3s0.9,0.4,1.9,0.4c0.9,0,1.6-0.1,2-0.4
		c0.4-0.3,0.6-0.7,0.6-1.3s-0.1-1-0.4-1.2c-0.3-0.2-0.8-0.3-1.6-0.3l-1.8-0.1c-0.4,0.3-0.7,0.5-0.8,0.7
		C812.9,64.9,812.9,65.2,812.9,65.5z M813,58.8c0,0.7,0.1,1.2,0.4,1.5c0.3,0.3,0.8,0.4,1.5,0.4c0.7,0,1.2-0.1,1.5-0.4
		c0.3-0.3,0.4-0.8,0.4-1.5c0-0.7-0.1-1.2-0.4-1.5c-0.3-0.3-0.8-0.4-1.5-0.4c-0.7,0-1.2,0.1-1.5,0.4S813,58.1,813,58.8z"/>
	<path class="st0" d="M821.3,64.2h-0.9V52.7h0.9v4c0.9-0.4,1.8-0.6,2.6-0.6c1.1,0,1.8,0.3,2.1,0.8s0.5,1.6,0.5,3.1v4.2h-1v-4.2
		c0-1.2-0.1-2.1-0.3-2.5c-0.2-0.4-0.7-0.6-1.5-0.6c-0.4,0-0.8,0-1.2,0.1s-0.7,0.2-1,0.3l-0.3,0.1V64.2z"/>
	<path class="st0" d="M832.9,57.1h-2.7v4c0,1,0.1,1.7,0.2,2s0.5,0.5,1.1,0.5l1.5-0.1l0.1,0.8c-0.7,0.1-1.2,0.2-1.6,0.2
		c-0.8,0-1.4-0.2-1.7-0.6c-0.3-0.4-0.5-1.2-0.5-2.3v-4.4h-1.2v-0.8h1.2v-2.5h1v2.5h2.7V57.1z"/>
	<path class="st0" d="M839.1,59.9v4.4h-1V53.1h4.1c1.2,0,2,0.3,2.6,0.8s0.9,1.4,0.9,2.5c0,1.8-0.7,2.9-2.1,3.2l2.3,4.6h-1.1
		l-2.2-4.4H839.1z M844.6,56.4c0-0.8-0.2-1.4-0.6-1.8c-0.4-0.4-1-0.6-1.8-0.6h-3.1v5h3.1C843.8,59,844.6,58.1,844.6,56.4z"/>
	<path class="st0" d="M852.9,63.4l0.5,0l0,0.8c-1.2,0.1-2.2,0.2-3.1,0.2c-1.2,0-2-0.4-2.4-1c-0.5-0.7-0.7-1.7-0.7-3.1
		c0-2.8,1.1-4.2,3.3-4.2c1.1,0,1.8,0.3,2.4,0.9s0.8,1.6,0.8,2.9l0,0.8h-5.4c0,1,0.2,1.7,0.5,2.2s0.9,0.7,1.7,0.7
		C851.3,63.5,852.1,63.5,852.9,63.4z M848.3,59.8h4.5c0-1.1-0.2-1.8-0.5-2.3c-0.3-0.4-0.9-0.7-1.7-0.7s-1.3,0.2-1.7,0.7
		S848.3,58.8,848.3,59.8z"/>
	<path class="st0" d="M855.7,67.8V56.2h0.9v0.6c0.8-0.5,1.7-0.8,2.6-0.8s1.6,0.3,2.1,1c0.5,0.7,0.7,1.7,0.7,3.2s-0.3,2.5-0.8,3.2
		c-0.5,0.7-1.4,1-2.7,1c-0.7,0-1.3-0.1-1.9-0.2v3.6H855.7z M859.1,56.9c-0.4,0-0.7,0.1-1.1,0.2s-0.7,0.2-0.9,0.4l-0.4,0.2v5.7
		c0.7,0.1,1.4,0.2,1.9,0.2c0.9,0,1.6-0.3,1.9-0.8c0.4-0.5,0.6-1.4,0.6-2.6c0-1.2-0.2-2-0.5-2.5S859.7,56.9,859.1,56.9z"/>
	<path class="st0" d="M863.7,60.2c0-1.5,0.3-2.6,0.8-3.2c0.5-0.6,1.4-0.9,2.6-0.9c1.2,0,2.1,0.3,2.6,0.9c0.5,0.6,0.8,1.7,0.8,3.2
		s-0.2,2.6-0.7,3.2c-0.5,0.6-1.3,1-2.6,1c-1.3,0-2.2-0.3-2.7-1C864,62.8,863.7,61.7,863.7,60.2z M864.7,60.2c0,1.3,0.1,2.1,0.4,2.6
		c0.3,0.5,0.9,0.7,1.9,0.7c1,0,1.6-0.2,1.9-0.7c0.3-0.5,0.4-1.4,0.4-2.6c0-1.3-0.2-2.1-0.5-2.6s-1-0.7-1.9-0.7
		c-0.9,0-1.5,0.2-1.9,0.7C864.9,58.1,864.7,58.9,864.7,60.2z"/>
	<path class="st0" d="M872.5,64.2v-8h0.9v1.2c0.4-0.3,0.9-0.5,1.4-0.8c0.6-0.3,1.1-0.4,1.6-0.5v1c-0.5,0.1-0.9,0.2-1.4,0.4
		c-0.5,0.2-0.9,0.4-1.2,0.5l-0.4,0.2v6H872.5z"/>
	<path class="st0" d="M882,57.1h-2.7v4c0,1,0.1,1.7,0.2,2s0.5,0.5,1.1,0.5l1.5-0.1l0.1,0.8c-0.7,0.1-1.2,0.2-1.6,0.2
		c-0.8,0-1.4-0.2-1.7-0.6c-0.3-0.4-0.5-1.2-0.5-2.3v-4.4h-1.2v-0.8h1.2v-2.5h1v2.5h2.7V57.1z"/>
</g>
<g class="st2">
	<path class="st0" d="M140.8,128.2h2.2l-3.1,12.7h-4.1l-3.1-12.7h2.2l2.5,10.9h0.9L140.8,128.2z"/>
	<path class="st0" d="M144.2,135.3v-2.7h2.2v2.7H144.2z M144.2,140.9v-2.7h2.2v2.7H144.2z"/>
</g>
<g class="st2">
	<path class="st0" d="M64.7,154.5c-1.7,0-2.6,0.7-2.6,2c0,0.8,0.2,1.3,0.6,1.6c0.4,0.3,1.2,0.5,2.3,0.7c1.1,0.2,1.9,0.5,2.4,0.9
		c0.5,0.4,0.7,1.1,0.7,2c0,1.2-0.3,2.1-0.9,2.6c-0.6,0.5-1.5,0.8-2.6,0.8c-0.8,0-1.8-0.1-2.9-0.2l-0.6-0.1l0.1-0.8
		c1.5,0.2,2.6,0.3,3.4,0.3c0.8,0,1.4-0.2,1.8-0.6s0.6-1,0.6-1.7s-0.2-1.3-0.6-1.5c-0.4-0.3-1-0.5-1.8-0.6c-0.8-0.1-1.4-0.3-1.8-0.4
		c-0.4-0.1-0.7-0.3-1-0.5c-0.3-0.2-0.6-0.5-0.7-0.9s-0.2-0.8-0.2-1.4c0-1.9,1.2-2.9,3.5-2.9c0.7,0,1.6,0.1,2.8,0.2l0.5,0.1l-0.1,0.8
		C66.3,154.6,65.3,154.5,64.7,154.5z"/>
	<path class="st0" d="M74,157.8h-2.7v4c0,1,0.1,1.7,0.2,2s0.5,0.5,1.1,0.5l1.5-0.1l0.1,0.8c-0.7,0.1-1.2,0.2-1.6,0.2
		c-0.8,0-1.4-0.2-1.7-0.6c-0.3-0.4-0.5-1.2-0.5-2.3v-4.4h-1.2v-0.8h1.2v-2.5h1v2.5H74V157.8z"/>
	<path class="st0" d="M75.5,164.9v-8h0.9v1.2c0.4-0.3,0.9-0.5,1.4-0.8c0.6-0.3,1.1-0.4,1.6-0.5v1c-0.5,0.1-0.9,0.2-1.4,0.4
		s-0.9,0.4-1.2,0.5l-0.4,0.2v6H75.5z"/>
	<path class="st0" d="M86.4,159.3v4.3c0,0.4,0.4,0.6,1,0.7l0,0.8c-0.8,0-1.4-0.2-1.8-0.6c-1,0.4-2,0.7-3,0.7c-0.7,0-1.3-0.2-1.6-0.6
		c-0.4-0.4-0.6-1-0.6-1.8s0.2-1.3,0.6-1.7s1-0.6,1.8-0.7l2.7-0.3v-0.8c0-0.6-0.1-1-0.4-1.3c-0.3-0.3-0.6-0.4-1-0.4
		c-0.7,0-1.6,0.1-2.7,0.2l-0.5,0l0-0.8c1.2-0.2,2.2-0.3,3.1-0.3c0.9,0,1.5,0.2,1.9,0.6S86.4,158.4,86.4,159.3z M81.4,162.6
		c0,1.1,0.4,1.6,1.3,1.6c0.4,0,0.8,0,1.3-0.1s0.8-0.2,1.1-0.3l0.4-0.1v-2.9l-2.6,0.3c-0.5,0-0.9,0.2-1.1,0.4
		C81.5,161.8,81.4,162.1,81.4,162.6z"/>
	<path class="st0" d="M93,157.8h-2.7v4c0,1,0.1,1.7,0.2,2s0.5,0.5,1.1,0.5l1.5-0.1l0.1,0.8c-0.7,0.1-1.2,0.2-1.6,0.2
		c-0.8,0-1.4-0.2-1.7-0.6c-0.3-0.4-0.5-1.2-0.5-2.3v-4.4h-1.2v-0.8h1.2v-2.5h1v2.5H93V157.8z"/>
	<path class="st0" d="M99.8,164.1l0.5,0l0,0.8c-1.2,0.1-2.2,0.2-3.1,0.2c-1.2,0-2-0.4-2.4-1c-0.5-0.7-0.7-1.7-0.7-3.1
		c0-2.8,1.1-4.2,3.3-4.2c1.1,0,1.8,0.3,2.4,0.9c0.5,0.6,0.8,1.6,0.8,2.9l0,0.8h-5.4c0,1,0.2,1.7,0.5,2.2s0.9,0.7,1.7,0.7
		S99,164.2,99.8,164.1z M95.1,160.5h4.5c0-1.1-0.2-1.8-0.5-2.3c-0.3-0.4-0.9-0.7-1.7-0.7s-1.3,0.2-1.7,0.7S95.1,159.5,95.1,160.5z"
		/>
	<path class="st0" d="M109,166.1c0,0.9-0.3,1.6-0.9,2c-0.6,0.4-1.5,0.6-2.7,0.6c-1.2,0-2.1-0.2-2.5-0.5c-0.5-0.4-0.7-1-0.7-1.9
		c0-0.4,0.1-0.8,0.3-1.1c0.2-0.3,0.5-0.6,1-0.9c-0.3-0.2-0.4-0.5-0.4-1.1c0-0.2,0.1-0.5,0.4-1l0.1-0.2c-0.9-0.4-1.3-1.2-1.3-2.4
		c0-1.8,1-2.7,2.9-2.7c0.5,0,1,0.1,1.4,0.2l0.2,0l2.3,0v0.8l-1.6,0c0.4,0.4,0.6,1,0.6,1.9s-0.2,1.5-0.7,1.9
		c-0.5,0.4-1.3,0.6-2.3,0.6c-0.3,0-0.6,0-0.8-0.1c-0.2,0.5-0.3,0.9-0.3,1c0,0.4,0.1,0.6,0.3,0.6s0.8,0.1,1.9,0.1
		c1,0,1.8,0.2,2.2,0.5C108.8,164.6,109,165.2,109,166.1z M103.1,166.2c0,0.6,0.2,1.1,0.5,1.3c0.3,0.2,0.9,0.4,1.9,0.4
		c0.9,0,1.6-0.1,2-0.4c0.4-0.3,0.6-0.7,0.6-1.3s-0.1-1-0.4-1.2c-0.3-0.2-0.8-0.3-1.6-0.3l-1.8-0.1c-0.4,0.3-0.7,0.5-0.8,0.7
		C103.2,165.6,103.1,165.8,103.1,166.2z M103.3,159.5c0,0.7,0.1,1.2,0.4,1.5c0.3,0.3,0.8,0.4,1.5,0.4s1.2-0.1,1.5-0.4
		c0.3-0.3,0.4-0.8,0.4-1.5c0-0.7-0.1-1.2-0.4-1.5c-0.3-0.3-0.8-0.4-1.5-0.4s-1.2,0.1-1.5,0.4C103.4,158.3,103.3,158.8,103.3,159.5z"
		/>
	<path class="st0" d="M110.7,154.9v-1.2h0.9v1.2H110.7z M110.7,164.9v-8h0.9v8H110.7z"/>
	<path class="st0" d="M117,156.8c0.5,0,1.1,0.1,1.7,0.2l0.4,0l0,0.8c-0.8-0.1-1.5-0.2-1.9-0.2c-0.9,0-1.6,0.2-2,0.7
		c-0.4,0.5-0.5,1.3-0.5,2.6c0,1.2,0.2,2.1,0.5,2.6c0.3,0.5,1,0.7,2,0.7l1.9-0.1l0,0.8c-0.9,0.1-1.7,0.2-2.1,0.2
		c-1.3,0-2.1-0.3-2.6-0.9c-0.5-0.6-0.7-1.7-0.7-3.2s0.3-2.6,0.8-3.2C114.9,157.1,115.8,156.8,117,156.8z"/>
	<path class="st0" d="M123.7,164.9l3.2-11.1h2.3l3.2,11.1h-1l-0.9-3.1h-5l-0.9,3.1H123.7z M127.6,154.7l-1.8,6.3h4.5l-1.8-6.3H127.6
		z"/>
	<path class="st0" d="M134,168.5v-11.6h0.9v0.6c0.8-0.5,1.7-0.8,2.6-0.8s1.6,0.3,2.1,1c0.5,0.7,0.7,1.7,0.7,3.2s-0.3,2.5-0.8,3.2
		c-0.5,0.7-1.4,1-2.7,1c-0.7,0-1.3-0.1-1.9-0.2v3.6H134z M137.3,157.6c-0.4,0-0.7,0.1-1.1,0.2s-0.7,0.2-0.9,0.4l-0.4,0.2v5.7
		c0.7,0.1,1.4,0.2,1.9,0.2c0.9,0,1.6-0.3,1.9-0.8c0.4-0.5,0.6-1.4,0.6-2.6c0-1.2-0.2-2-0.5-2.5C138.5,157.9,138,157.6,137.3,157.6z"
		/>
	<path class="st0" d="M142.3,168.5v-11.6h0.9v0.6c0.8-0.5,1.7-0.8,2.6-0.8s1.6,0.3,2.1,1c0.5,0.7,0.7,1.7,0.7,3.2s-0.3,2.5-0.8,3.2
		c-0.5,0.7-1.4,1-2.7,1c-0.7,0-1.3-0.1-1.9-0.2v3.6H142.3z M145.7,157.6c-0.4,0-0.7,0.1-1.1,0.2s-0.7,0.2-0.9,0.4l-0.4,0.2v5.7
		c0.7,0.1,1.4,0.2,1.9,0.2c0.9,0,1.6-0.3,1.9-0.8c0.4-0.5,0.6-1.4,0.6-2.6c0-1.2-0.2-2-0.5-2.5C146.9,157.9,146.4,157.6,145.7,157.6
		z"/>
	<path class="st0" d="M150.7,164.9v-8h0.9v1.2c0.4-0.3,0.9-0.5,1.4-0.8c0.6-0.3,1.1-0.4,1.6-0.5v1c-0.5,0.1-0.9,0.2-1.4,0.4
		s-0.9,0.4-1.2,0.5l-0.4,0.2v6H150.7z"/>
	<path class="st0" d="M155.6,160.9c0-1.5,0.3-2.6,0.8-3.2c0.5-0.6,1.4-0.9,2.6-0.9s2.1,0.3,2.6,0.9c0.5,0.6,0.8,1.7,0.8,3.2
		s-0.2,2.6-0.7,3.2c-0.5,0.6-1.3,1-2.6,1c-1.3,0-2.2-0.3-2.7-1C155.8,163.5,155.6,162.4,155.6,160.9z M156.6,160.9
		c0,1.3,0.1,2.1,0.4,2.6s0.9,0.7,1.9,0.7c1,0,1.6-0.2,1.9-0.7c0.3-0.5,0.4-1.4,0.4-2.6c0-1.3-0.2-2.1-0.5-2.6s-1-0.7-1.9-0.7
		c-0.9,0-1.5,0.2-1.9,0.7C156.7,158.7,156.6,159.6,156.6,160.9z"/>
	<path class="st0" d="M169.9,159.3v4.3c0,0.4,0.4,0.6,1,0.7l0,0.8c-0.8,0-1.4-0.2-1.8-0.6c-1,0.4-2,0.7-3,0.7
		c-0.7,0-1.3-0.2-1.6-0.6c-0.4-0.4-0.6-1-0.6-1.8s0.2-1.3,0.6-1.7s1-0.6,1.8-0.7l2.7-0.3v-0.8c0-0.6-0.1-1-0.4-1.3
		c-0.3-0.3-0.6-0.4-1-0.4c-0.7,0-1.6,0.1-2.7,0.2l-0.5,0l0-0.8c1.2-0.2,2.2-0.3,3.1-0.3c0.9,0,1.5,0.2,1.9,0.6
		S169.9,158.4,169.9,159.3z M164.8,162.6c0,1.1,0.4,1.6,1.3,1.6c0.4,0,0.8,0,1.3-0.1s0.8-0.2,1.1-0.3l0.4-0.1v-2.9l-2.6,0.3
		c-0.5,0-0.9,0.2-1.1,0.4C164.9,161.8,164.8,162.1,164.8,162.6z"/>
	<path class="st0" d="M175.3,156.8c0.5,0,1.1,0.1,1.7,0.2l0.4,0l0,0.8c-0.8-0.1-1.5-0.2-1.9-0.2c-0.9,0-1.6,0.2-2,0.7
		c-0.4,0.5-0.5,1.3-0.5,2.6c0,1.2,0.2,2.1,0.5,2.6c0.3,0.5,1,0.7,2,0.7l1.9-0.1l0,0.8c-0.9,0.1-1.7,0.2-2.1,0.2
		c-1.3,0-2.1-0.3-2.6-0.9c-0.5-0.6-0.7-1.7-0.7-3.2s0.3-2.6,0.8-3.2C173.3,157.1,174.1,156.8,175.3,156.8z"/>
	<path class="st0" d="M180.2,164.9h-0.9v-11.6h0.9v4c0.9-0.4,1.8-0.6,2.6-0.6c1.1,0,1.8,0.3,2.1,0.8s0.5,1.6,0.5,3.1v4.2h-1v-4.2
		c0-1.2-0.1-2.1-0.3-2.5c-0.2-0.4-0.7-0.6-1.5-0.6c-0.4,0-0.8,0-1.2,0.1c-0.4,0.1-0.7,0.2-1,0.3l-0.3,0.1V164.9z"/>
	<path class="st0" d="M195.6,164.9h-4v-11.1h4c2.6,0,4,1.8,4,5.4C199.5,163,198.2,164.9,195.6,164.9z M198.5,159.2
		c0-3-1-4.5-2.9-4.5h-3.1v9.3h3.1C197.5,164,198.5,162.4,198.5,159.2z"/>
	<path class="st0" d="M206.9,164.1l0.5,0l0,0.8c-1.2,0.1-2.2,0.2-3.1,0.2c-1.2,0-2-0.4-2.4-1c-0.5-0.7-0.7-1.7-0.7-3.1
		c0-2.8,1.1-4.2,3.3-4.2c1.1,0,1.8,0.3,2.4,0.9c0.5,0.6,0.8,1.6,0.8,2.9l0,0.8h-5.4c0,1,0.2,1.7,0.5,2.2s0.9,0.7,1.7,0.7
		S206.1,164.2,206.9,164.1z M202.3,160.5h4.5c0-1.1-0.2-1.8-0.5-2.3c-0.3-0.4-0.9-0.7-1.7-0.7s-1.3,0.2-1.7,0.7
		S202.3,159.5,202.3,160.5z"/>
	<path class="st0" d="M208.8,156.9h1.1l2,7.2h0.6l2.1-7.2h1l-2.3,8h-2.1L208.8,156.9z"/>
	<path class="st0" d="M216.5,164.9v-1.6h1.1v1.6H216.5z"/>
</g>
<g class="st2">
	<path class="st0" d="M359.7,128.2h2.2l-3.1,12.7h-4.1l-3.1-12.7h2.2l2.5,10.9h0.9L359.7,128.2z"/>
	<path class="st0" d="M363.7,140.9v-12.7h2.1v12.7H363.7z"/>
	<path class="st0" d="M368.4,135.3v-2.7h2.2v2.7H368.4z M368.4,140.9v-2.7h2.2v2.7H368.4z"/>
</g>
<g class="st2">
	<path class="st0" d="M304,164.9v-11.1h1v11.1H304z"/>
	<path class="st0" d="M308.5,164.9h-0.9v-8h0.9v0.6c0.9-0.5,1.8-0.8,2.6-0.8c1.1,0,1.8,0.3,2.1,0.8c0.4,0.6,0.5,1.6,0.5,3.1v4.2h-1
		v-4.2c0-1.2-0.1-2.1-0.4-2.5c-0.2-0.4-0.7-0.6-1.5-0.6c-0.4,0-0.8,0.1-1.2,0.2c-0.4,0.1-0.7,0.2-1,0.3l-0.3,0.2V164.9z"/>
	<path class="st0" d="M316.1,160.9V160h4.9v0.9H316.1z"/>
	<path class="st0" d="M324.3,157.8v7.2h-1v-7.2h-1v-0.8h1v-0.8c0-1.1,0.2-1.9,0.5-2.3c0.3-0.4,0.9-0.6,1.6-0.6l1.6,0.1v0.8
		c-0.6,0-1.1,0-1.4,0c-0.5,0-0.8,0.1-1,0.4c-0.2,0.3-0.3,0.8-0.3,1.6v0.8h2.4v0.8H324.3z"/>
	<path class="st0" d="M328.2,154.9v-1.2h0.9v1.2H328.2z M328.2,164.9v-8h0.9v8H328.2z"/>
	<path class="st0" d="M336.9,164.1l0.5,0l0,0.8c-1.2,0.1-2.2,0.2-3.1,0.2c-1.2,0-2-0.4-2.4-1c-0.5-0.7-0.7-1.7-0.7-3.1
		c0-2.8,1.1-4.2,3.3-4.2c1.1,0,1.8,0.3,2.4,0.9c0.5,0.6,0.8,1.6,0.8,2.9l0,0.8h-5.4c0,1,0.2,1.7,0.5,2.2s0.9,0.7,1.7,0.7
		S336.1,164.2,336.9,164.1z M332.2,160.5h4.5c0-1.1-0.2-1.8-0.5-2.3c-0.3-0.4-0.9-0.7-1.7-0.7s-1.3,0.2-1.7,0.7
		S332.2,159.5,332.2,160.5z"/>
	<path class="st0" d="M339.7,164.9v-11.6h0.9v11.6H339.7z"/>
	<path class="st0" d="M349.2,153.4v11.6h-1v-0.6c-0.8,0.5-1.7,0.8-2.6,0.8c-0.4,0-0.7,0-1-0.1c-0.3-0.1-0.6-0.3-0.9-0.5
		c-0.6-0.5-0.9-1.6-0.9-3.2s0.3-2.7,0.8-3.4c0.5-0.7,1.4-1,2.6-1c0.5,0,1.1,0.1,2,0.2v-3.6H349.2z M345,164.1
		c0.2,0.1,0.5,0.1,0.8,0.1c0.3,0,0.7-0.1,1.1-0.2s0.7-0.2,1-0.3l0.3-0.2v-5.7c-0.9-0.1-1.5-0.2-2-0.2c-0.9,0-1.5,0.3-1.9,0.8
		c-0.3,0.6-0.5,1.4-0.5,2.6c0,1.4,0.2,2.3,0.6,2.7C344.6,163.9,344.8,164,345,164.1z"/>
	<path class="st0" d="M361.7,153.8h1l-3,11.1h-2.4l-3-11.1h1L358,164h0.9L361.7,153.8z"/>
	<path class="st0" d="M369.4,159.3v4.3c0,0.4,0.4,0.6,1,0.7l0,0.8c-0.8,0-1.4-0.2-1.8-0.6c-1,0.4-2,0.7-3,0.7
		c-0.7,0-1.3-0.2-1.6-0.6c-0.4-0.4-0.6-1-0.6-1.8s0.2-1.3,0.6-1.7s1-0.6,1.8-0.7l2.7-0.3v-0.8c0-0.6-0.1-1-0.4-1.3
		c-0.3-0.3-0.6-0.4-1-0.4c-0.7,0-1.6,0.1-2.7,0.2l-0.5,0l0-0.8c1.2-0.2,2.2-0.3,3.1-0.3c0.9,0,1.5,0.2,1.9,0.6
		S369.4,158.4,369.4,159.3z M364.3,162.6c0,1.1,0.4,1.6,1.3,1.6c0.4,0,0.8,0,1.3-0.1s0.8-0.2,1.1-0.3l0.4-0.1v-2.9l-2.6,0.3
		c-0.5,0-0.9,0.2-1.1,0.4C364.4,161.8,364.3,162.1,364.3,162.6z"/>
	<path class="st0" d="M371.9,164.9v-11.6h0.9v11.6H371.9z"/>
	<path class="st0" d="M375.4,154.9v-1.2h0.9v1.2H375.4z M375.4,164.9v-8h0.9v8H375.4z"/>
	<path class="st0" d="M384.7,153.4v11.6h-1v-0.6c-0.8,0.5-1.7,0.8-2.6,0.8c-0.4,0-0.7,0-1-0.1c-0.3-0.1-0.6-0.3-0.9-0.5
		c-0.6-0.5-0.9-1.6-0.9-3.2s0.3-2.7,0.8-3.4c0.5-0.7,1.4-1,2.6-1c0.5,0,1.1,0.1,2,0.2v-3.6H384.7z M380.6,164.1
		c0.2,0.1,0.5,0.1,0.8,0.1c0.3,0,0.7-0.1,1.1-0.2s0.7-0.2,1-0.3l0.3-0.2v-5.7c-0.9-0.1-1.5-0.2-2-0.2c-0.9,0-1.5,0.3-1.9,0.8
		c-0.3,0.6-0.5,1.4-0.5,2.6c0,1.4,0.2,2.3,0.6,2.7C380.2,163.9,380.4,164,380.6,164.1z"/>
	<path class="st0" d="M392.6,159.3v4.3c0,0.4,0.4,0.6,1,0.7l0,0.8c-0.8,0-1.4-0.2-1.8-0.6c-1,0.4-2,0.7-3,0.7
		c-0.7,0-1.3-0.2-1.6-0.6c-0.4-0.4-0.6-1-0.6-1.8s0.2-1.3,0.6-1.7s1-0.6,1.8-0.7l2.7-0.3v-0.8c0-0.6-0.1-1-0.4-1.3
		c-0.3-0.3-0.6-0.4-1-0.4c-0.7,0-1.6,0.1-2.7,0.2l-0.5,0l0-0.8c1.2-0.2,2.2-0.3,3.1-0.3c0.9,0,1.5,0.2,1.9,0.6
		S392.6,158.4,392.6,159.3z M387.6,162.6c0,1.1,0.4,1.6,1.3,1.6c0.4,0,0.8,0,1.3-0.1s0.8-0.2,1.1-0.3l0.4-0.1v-2.9l-2.6,0.3
		c-0.5,0-0.9,0.2-1.1,0.4C387.7,161.8,387.6,162.1,387.6,162.6z"/>
	<path class="st0" d="M399.1,157.8h-2.7v4c0,1,0.1,1.7,0.2,2s0.5,0.5,1.1,0.5l1.5-0.1l0.1,0.8c-0.7,0.1-1.2,0.2-1.6,0.2
		c-0.8,0-1.4-0.2-1.7-0.6c-0.3-0.4-0.5-1.2-0.5-2.3v-4.4h-1.2v-0.8h1.2v-2.5h1v2.5h2.7V157.8z"/>
	<path class="st0" d="M400.6,154.9v-1.2h0.9v1.2H400.6z M400.6,164.9v-8h0.9v8H400.6z"/>
	<path class="st0" d="M403.6,160.9c0-1.5,0.3-2.6,0.8-3.2c0.5-0.6,1.4-0.9,2.6-0.9s2.1,0.3,2.6,0.9c0.5,0.6,0.8,1.7,0.8,3.2
		s-0.2,2.6-0.7,3.2c-0.5,0.6-1.3,1-2.6,1c-1.3,0-2.2-0.3-2.7-1C403.9,163.5,403.6,162.4,403.6,160.9z M404.6,160.9
		c0,1.3,0.1,2.1,0.4,2.6s0.9,0.7,1.9,0.7c1,0,1.6-0.2,1.9-0.7c0.3-0.5,0.4-1.4,0.4-2.6c0-1.3-0.2-2.1-0.5-2.6s-1-0.7-1.9-0.7
		c-0.9,0-1.5,0.2-1.9,0.7C404.8,158.7,404.6,159.6,404.6,160.9z"/>
	<path class="st0" d="M413.3,164.9h-0.9v-8h0.9v0.6c0.9-0.5,1.8-0.8,2.6-0.8c1.1,0,1.8,0.3,2.1,0.8c0.4,0.6,0.5,1.6,0.5,3.1v4.2h-1
		v-4.2c0-1.2-0.1-2.1-0.4-2.5c-0.2-0.4-0.7-0.6-1.5-0.6c-0.4,0-0.8,0.1-1.2,0.2c-0.4,0.1-0.7,0.2-1,0.3l-0.3,0.2V164.9z"/>
</g>
<g class="st2">
	<path class="st0" d="M578.7,128.2h2.2l-3.1,12.7h-4l-3.1-12.7h2.2l2.5,10.9h0.9L578.7,128.2z"/>
	<path class="st0" d="M582.7,140.9v-12.7h2.1v12.7H582.7z"/>
	<path class="st0" d="M587.7,140.9v-12.7h2.1v12.7H587.7z"/>
	<path class="st0" d="M592.3,135.3v-2.7h2.2v2.7H592.3z M592.3,140.9v-2.7h2.2v2.7H592.3z"/>
</g>
<g class="st2">
	<path class="st0" d="M498.7,159.4c0,2-0.3,3.4-0.9,4.3s-1.8,1.3-3.4,1.3c-1.6,0-2.8-0.5-3.4-1.4c-0.6-0.9-0.9-2.3-0.9-4.3
		c0-2,0.3-3.4,0.9-4.4c0.6-0.9,1.8-1.4,3.4-1.4c1.6,0,2.8,0.5,3.4,1.4C498.4,156,498.7,157.5,498.7,159.4z M491.7,163.1
		c0.4,0.7,1.3,1.1,2.6,1.1c1.3,0,2.2-0.4,2.6-1.1c0.4-0.7,0.7-1.9,0.7-3.6s-0.2-2.9-0.7-3.7c-0.5-0.8-1.3-1.2-2.6-1.2
		c-1.3,0-2.2,0.4-2.7,1.3c-0.2,0.4-0.4,0.9-0.5,1.5s-0.1,1.3-0.1,2.1C491.1,161.1,491.3,162.3,491.7,163.1z"/>
	<path class="st0" d="M500.9,168.5v-11.6h0.9v0.6c0.8-0.5,1.7-0.8,2.6-0.8s1.6,0.3,2.1,1c0.5,0.7,0.7,1.7,0.7,3.2s-0.3,2.5-0.8,3.2
		c-0.5,0.7-1.4,1-2.7,1c-0.7,0-1.3-0.1-1.9-0.2v3.6H500.9z M504.2,157.6c-0.4,0-0.7,0.1-1.1,0.2s-0.7,0.2-0.9,0.4l-0.4,0.2v5.7
		c0.7,0.1,1.4,0.2,1.9,0.2c0.9,0,1.6-0.3,1.9-0.8c0.4-0.5,0.6-1.4,0.6-2.6c0-1.2-0.2-2-0.5-2.5S504.9,157.6,504.2,157.6z"/>
	<path class="st0" d="M513.2,157.8h-2.7v4c0,1,0.1,1.7,0.2,2s0.5,0.5,1.1,0.5l1.5-0.1l0.1,0.8c-0.7,0.1-1.2,0.2-1.6,0.2
		c-0.8,0-1.4-0.2-1.7-0.6c-0.3-0.4-0.5-1.2-0.5-2.3v-4.4h-1.2v-0.8h1.2v-2.5h1v2.5h2.7V157.8z"/>
	<path class="st0" d="M514.7,154.9v-1.2h0.9v1.2H514.7z M514.7,164.9v-8h0.9v8H514.7z"/>
	<path class="st0" d="M519,164.9h-0.9v-8h0.9v0.6c0.8-0.5,1.7-0.8,2.6-0.8c0.9,0,1.6,0.3,2,0.8c0.4-0.2,0.9-0.4,1.4-0.6
		c0.5-0.2,1-0.2,1.5-0.2c1.1,0,1.8,0.3,2.1,0.8c0.4,0.6,0.5,1.6,0.5,3.1v4.2h-0.9v-4.2c0-1.2-0.1-2.1-0.3-2.5
		c-0.2-0.4-0.7-0.6-1.5-0.6c-0.4,0-0.8,0.1-1.2,0.2s-0.7,0.2-0.9,0.3l-0.3,0.2c0.2,0.4,0.2,1.2,0.2,2.5v4.2h-1v-4.1
		c0-1.2-0.1-2.1-0.3-2.5c-0.2-0.4-0.7-0.6-1.5-0.6c-0.4,0-0.8,0.1-1.1,0.2c-0.4,0.1-0.7,0.2-0.9,0.3l-0.3,0.2V164.9z"/>
	<path class="st0" d="M531.4,154.9v-1.2h0.9v1.2H531.4z M531.4,164.9v-8h0.9v8H531.4z"/>
	<path class="st0" d="M534.2,157.8v-0.9h5.9v0.9l-4.8,6.3h4.8v0.9h-5.9V164l4.8-6.3H534.2z"/>
	<path class="st0" d="M547.5,159.3v4.3c0,0.4,0.4,0.6,1,0.7l0,0.8c-0.8,0-1.4-0.2-1.8-0.6c-1,0.4-2,0.7-3,0.7
		c-0.7,0-1.3-0.2-1.6-0.6c-0.4-0.4-0.6-1-0.6-1.8s0.2-1.3,0.6-1.7c0.4-0.4,1-0.6,1.8-0.7l2.7-0.3v-0.8c0-0.6-0.1-1-0.4-1.3
		c-0.3-0.3-0.6-0.4-1-0.4c-0.7,0-1.6,0.1-2.7,0.2l-0.5,0l0-0.8c1.2-0.2,2.2-0.3,3.1-0.3s1.5,0.2,1.9,0.6S547.5,158.4,547.5,159.3z
		 M542.5,162.6c0,1.1,0.4,1.6,1.3,1.6c0.4,0,0.8,0,1.3-0.1c0.5-0.1,0.8-0.2,1.1-0.3l0.4-0.1v-2.9l-2.6,0.3c-0.5,0-0.9,0.2-1.1,0.4
		C542.6,161.8,542.5,162.1,542.5,162.6z"/>
	<path class="st0" d="M554.1,157.8h-2.7v4c0,1,0.1,1.7,0.2,2s0.5,0.5,1.1,0.5l1.5-0.1l0.1,0.8c-0.7,0.1-1.2,0.2-1.6,0.2
		c-0.8,0-1.4-0.2-1.7-0.6c-0.3-0.4-0.5-1.2-0.5-2.3v-4.4h-1.2v-0.8h1.2v-2.5h1v2.5h2.7V157.8z"/>
	<path class="st0" d="M555.6,154.9v-1.2h0.9v1.2H555.6z M555.6,164.9v-8h0.9v8H555.6z"/>
	<path class="st0" d="M558.6,160.9c0-1.5,0.3-2.6,0.8-3.2c0.5-0.6,1.4-0.9,2.6-0.9c1.2,0,2.1,0.3,2.6,0.9c0.5,0.6,0.8,1.7,0.8,3.2
		s-0.2,2.6-0.7,3.2c-0.5,0.6-1.3,1-2.6,1s-2.2-0.3-2.7-1C558.8,163.5,558.6,162.4,558.6,160.9z M559.6,160.9c0,1.3,0.1,2.1,0.4,2.6
		c0.3,0.5,0.9,0.7,1.9,0.7s1.6-0.2,1.9-0.7s0.4-1.4,0.4-2.6c0-1.3-0.2-2.1-0.5-2.6s-1-0.7-1.9-0.7s-1.5,0.2-1.9,0.7
		C559.7,158.7,559.6,159.6,559.6,160.9z"/>
</g>
<g class="st2">
	<path class="st0" d="M568.3,164.9h-0.9v-8h0.9v0.6c0.9-0.5,1.8-0.8,2.6-0.8c1.1,0,1.8,0.3,2.1,0.8s0.5,1.6,0.5,3.1v4.2h-1v-4.2
		c0-1.2-0.1-2.1-0.4-2.5c-0.2-0.4-0.7-0.6-1.5-0.6c-0.4,0-0.8,0.1-1.2,0.2s-0.7,0.2-1,0.3l-0.3,0.2V164.9z"/>
	<path class="st0" d="M576.2,164.7l4.5-11.1l0.9,0.3l-4.5,11.1L576.2,164.7z"/>
</g>
<g class="st2">
	<path class="st0" d="M588.7,154.5c-1.7,0-2.6,0.7-2.6,2c0,0.8,0.2,1.3,0.6,1.6c0.4,0.3,1.2,0.5,2.3,0.7c1.1,0.2,1.9,0.5,2.4,0.9
		c0.5,0.4,0.7,1.1,0.7,2c0,1.2-0.3,2.1-0.9,2.6s-1.5,0.8-2.6,0.8c-0.8,0-1.8-0.1-2.9-0.2l-0.6-0.1l0.1-0.8c1.5,0.2,2.6,0.3,3.4,0.3
		c0.8,0,1.4-0.2,1.8-0.6s0.6-1,0.6-1.7s-0.2-1.3-0.6-1.5s-1-0.5-1.8-0.6c-0.8-0.1-1.4-0.3-1.8-0.4c-0.4-0.1-0.7-0.3-1-0.5
		c-0.3-0.2-0.6-0.5-0.7-0.9s-0.2-0.8-0.2-1.4c0-1.9,1.2-2.9,3.5-2.9c0.7,0,1.6,0.1,2.8,0.2l0.5,0.1l-0.1,0.8
		C590.3,154.6,589.3,154.5,588.7,154.5z"/>
	<path class="st0" d="M598,157.8h-2.7v4c0,1,0.1,1.7,0.2,2s0.5,0.5,1.1,0.5l1.5-0.1l0.1,0.8c-0.7,0.1-1.2,0.2-1.6,0.2
		c-0.8,0-1.4-0.2-1.7-0.6c-0.3-0.4-0.5-1.2-0.5-2.3v-4.4h-1.2v-0.8h1.2v-2.5h1v2.5h2.7V157.8z"/>
	<path class="st0" d="M599.5,164.9v-8h0.9v1.2c0.4-0.3,0.9-0.5,1.4-0.8c0.6-0.3,1.1-0.4,1.6-0.5v1c-0.5,0.1-0.9,0.2-1.4,0.4
		c-0.5,0.2-0.9,0.4-1.2,0.5l-0.4,0.2v6H599.5z"/>
	<path class="st0" d="M610.4,159.3v4.3c0,0.4,0.4,0.6,1,0.7l0,0.8c-0.8,0-1.4-0.2-1.8-0.6c-1,0.4-2,0.7-3,0.7
		c-0.7,0-1.3-0.2-1.6-0.6c-0.4-0.4-0.6-1-0.6-1.8s0.2-1.3,0.6-1.7c0.4-0.4,1-0.6,1.8-0.7l2.7-0.3v-0.8c0-0.6-0.1-1-0.4-1.3
		c-0.3-0.3-0.6-0.4-1-0.4c-0.7,0-1.6,0.1-2.7,0.2l-0.5,0l0-0.8c1.2-0.2,2.2-0.3,3.1-0.3c0.9,0,1.5,0.2,1.9,0.6
		S610.4,158.4,610.4,159.3z M605.4,162.6c0,1.1,0.4,1.6,1.3,1.6c0.4,0,0.8,0,1.3-0.1c0.5-0.1,0.8-0.2,1.1-0.3l0.4-0.1v-2.9l-2.6,0.3
		c-0.5,0-0.9,0.2-1.1,0.4C605.5,161.8,605.4,162.1,605.4,162.6z"/>
	<path class="st0" d="M617,157.8h-2.7v4c0,1,0.1,1.7,0.2,2s0.5,0.5,1.1,0.5l1.5-0.1l0.1,0.8c-0.7,0.1-1.2,0.2-1.6,0.2
		c-0.8,0-1.4-0.2-1.7-0.6c-0.3-0.4-0.5-1.2-0.5-2.3v-4.4h-1.2v-0.8h1.2v-2.5h1v2.5h2.7V157.8z"/>
	<path class="st0" d="M623.8,164.1l0.5,0l0,0.8c-1.2,0.1-2.2,0.2-3.1,0.2c-1.2,0-2-0.4-2.4-1c-0.5-0.7-0.7-1.7-0.7-3.1
		c0-2.8,1.1-4.2,3.3-4.2c1.1,0,1.8,0.3,2.4,0.9s0.8,1.6,0.8,2.9l0,0.8h-5.4c0,1,0.2,1.7,0.5,2.2s0.9,0.7,1.7,0.7
		C622.1,164.2,623,164.2,623.8,164.1z M619.1,160.5h4.5c0-1.1-0.2-1.8-0.5-2.3c-0.3-0.4-0.9-0.7-1.7-0.7s-1.3,0.2-1.7,0.7
		S619.1,159.5,619.1,160.5z"/>
	<path class="st0" d="M633,166.1c0,0.9-0.3,1.6-0.9,2s-1.5,0.6-2.7,0.6s-2.1-0.2-2.5-0.5c-0.5-0.4-0.7-1-0.7-1.9
		c0-0.4,0.1-0.8,0.3-1.1c0.2-0.3,0.5-0.6,1-0.9c-0.3-0.2-0.4-0.5-0.4-1.1c0-0.2,0.1-0.5,0.4-1l0.1-0.2c-0.9-0.4-1.3-1.2-1.3-2.4
		c0-1.8,1-2.7,2.9-2.7c0.5,0,1,0.1,1.4,0.2l0.2,0l2.3,0v0.8l-1.6,0c0.4,0.4,0.6,1,0.6,1.9s-0.2,1.5-0.7,1.9
		c-0.5,0.4-1.3,0.6-2.3,0.6c-0.3,0-0.6,0-0.8-0.1c-0.2,0.5-0.3,0.9-0.3,1c0,0.4,0.1,0.6,0.3,0.6s0.8,0.1,1.9,0.1
		c1,0,1.8,0.2,2.2,0.5C632.8,164.6,633,165.2,633,166.1z M627.1,166.2c0,0.6,0.2,1.1,0.5,1.3c0.3,0.2,0.9,0.4,1.9,0.4s1.6-0.1,2-0.4
		c0.4-0.3,0.6-0.7,0.6-1.3s-0.1-1-0.4-1.2c-0.3-0.2-0.8-0.3-1.6-0.3l-1.8-0.1c-0.4,0.3-0.7,0.5-0.8,0.7S627.1,165.8,627.1,166.2z
		 M627.3,159.5c0,0.7,0.1,1.2,0.4,1.5c0.3,0.3,0.8,0.4,1.5,0.4c0.7,0,1.2-0.1,1.5-0.4c0.3-0.3,0.4-0.8,0.4-1.5
		c0-0.7-0.1-1.2-0.4-1.5s-0.8-0.4-1.5-0.4c-0.7,0-1.2,0.1-1.5,0.4C627.4,158.3,627.3,158.8,627.3,159.5z"/>
	<path class="st0" d="M634.7,154.9v-1.2h0.9v1.2H634.7z M634.7,164.9v-8h0.9v8H634.7z"/>
	<path class="st0" d="M641,156.8c0.5,0,1.1,0.1,1.7,0.2l0.4,0l0,0.8c-0.8-0.1-1.5-0.2-1.9-0.2c-0.9,0-1.6,0.2-2,0.7
		c-0.4,0.5-0.5,1.3-0.5,2.6c0,1.2,0.2,2.1,0.5,2.6c0.3,0.5,1,0.7,2,0.7l1.9-0.1l0,0.8c-0.9,0.1-1.7,0.2-2.1,0.2
		c-1.3,0-2.1-0.3-2.6-0.9c-0.5-0.6-0.7-1.7-0.7-3.2s0.3-2.6,0.8-3.2C639,157.1,639.8,156.8,641,156.8z"/>
	<path class="st0" d="M652.7,164.9h-4v-11.1h4c2.6,0,4,1.8,4,5.4C656.7,163,655.4,164.9,652.7,164.9z M655.6,159.2
		c0-3-1-4.5-2.9-4.5h-3.1v9.3h3.1C654.7,164,655.6,162.4,655.6,159.2z"/>
	<path class="st0" d="M664.1,164.1l0.5,0l0,0.8c-1.2,0.1-2.2,0.2-3.1,0.2c-1.2,0-2-0.4-2.4-1c-0.5-0.7-0.7-1.7-0.7-3.1
		c0-2.8,1.1-4.2,3.3-4.2c1.1,0,1.8,0.3,2.4,0.9s0.8,1.6,0.8,2.9l0,0.8h-5.4c0,1,0.2,1.7,0.5,2.2s0.9,0.7,1.7,0.7
		C662.5,164.2,663.3,164.2,664.1,164.1z M659.4,160.5h4.5c0-1.1-0.2-1.8-0.5-2.3c-0.3-0.4-0.9-0.7-1.7-0.7s-1.3,0.2-1.7,0.7
		S659.4,159.5,659.4,160.5z"/>
	<path class="st0" d="M666,156.9h1.1l2,7.2h0.6l2.1-7.2h1l-2.3,8h-2.1L666,156.9z"/>
	<path class="st0" d="M673.7,164.9v-1.6h1.1v1.6H673.7z"/>
</g>
<g class="st2">
	<path class="st0" d="M797.6,128.2h2.2l-3.1,12.7h-4l-3.1-12.7h2.2l2.5,10.9h0.9L797.6,128.2z"/>
	<path class="st0" d="M801.6,140.9v-12.7h2.1v12.7H801.6z"/>
	<path class="st0" d="M806.6,140.9v-12.7h2.1v12.7H806.6z"/>
	<path class="st0" d="M811.6,140.9v-12.7h2.1v12.7H811.6z"/>
	<path class="st0" d="M816.3,135.3v-2.7h2.2v2.7H816.3z M816.3,140.9v-2.7h2.2v2.7H816.3z"/>
</g>
<g class="st2">
	<path class="st0" d="M720.8,164.9v-11.1h6.6v0.9h-5.6v4.6h4.7v0.9h-4.7v4.8H720.8z"/>
	<path class="st0" d="M729,154.9v-1.2h0.9v1.2H729z M729,164.9v-8h0.9v8H729z"/>
	<path class="st0" d="M733.3,164.9h-0.9v-8h0.9v0.6c0.9-0.5,1.8-0.8,2.6-0.8c1.1,0,1.8,0.3,2.1,0.8s0.5,1.6,0.5,3.1v4.2h-1v-4.2
		c0-1.2-0.1-2.1-0.4-2.5c-0.2-0.4-0.7-0.6-1.5-0.6c-0.4,0-0.8,0.1-1.2,0.2s-0.7,0.2-1,0.3l-0.3,0.2V164.9z"/>
	<path class="st0" d="M746.4,159.3v4.3c0,0.4,0.4,0.6,1,0.7l0,0.8c-0.8,0-1.4-0.2-1.8-0.6c-1,0.4-2,0.7-3,0.7
		c-0.7,0-1.3-0.2-1.6-0.6c-0.4-0.4-0.6-1-0.6-1.8s0.2-1.3,0.6-1.7c0.4-0.4,1-0.6,1.8-0.7l2.7-0.3v-0.8c0-0.6-0.1-1-0.4-1.3
		c-0.3-0.3-0.6-0.4-1-0.4c-0.7,0-1.6,0.1-2.7,0.2l-0.5,0l0-0.8c1.2-0.2,2.2-0.3,3.1-0.3c0.9,0,1.5,0.2,1.9,0.6
		S746.4,158.4,746.4,159.3z M741.4,162.6c0,1.1,0.4,1.6,1.3,1.6c0.4,0,0.8,0,1.3-0.1c0.5-0.1,0.8-0.2,1.1-0.3l0.4-0.1v-2.9l-2.6,0.3
		c-0.5,0-0.9,0.2-1.1,0.4C741.5,161.8,741.4,162.1,741.4,162.6z"/>
	<path class="st0" d="M749,164.9v-11.6h0.9v11.6H749z"/>
	<path class="st0" d="M759.1,154.5c-1.7,0-2.6,0.7-2.6,2c0,0.8,0.2,1.3,0.6,1.6c0.4,0.3,1.2,0.5,2.3,0.7c1.1,0.2,1.9,0.5,2.4,0.9
		c0.5,0.4,0.7,1.1,0.7,2c0,1.2-0.3,2.1-0.9,2.6s-1.5,0.8-2.6,0.8c-0.8,0-1.8-0.1-2.9-0.2l-0.6-0.1l0.1-0.8c1.5,0.2,2.6,0.3,3.4,0.3
		c0.8,0,1.4-0.2,1.8-0.6s0.6-1,0.6-1.7s-0.2-1.3-0.6-1.5s-1-0.5-1.8-0.6c-0.8-0.1-1.4-0.3-1.8-0.4c-0.4-0.1-0.7-0.3-1-0.5
		c-0.3-0.2-0.6-0.5-0.7-0.9s-0.2-0.8-0.2-1.4c0-1.9,1.2-2.9,3.5-2.9c0.7,0,1.6,0.1,2.8,0.2l0.5,0.1l-0.1,0.8
		C760.8,154.6,759.8,154.5,759.1,154.5z"/>
	<path class="st0" d="M768.5,157.8h-2.7v4c0,1,0.1,1.7,0.2,2s0.5,0.5,1.1,0.5l1.5-0.1l0.1,0.8c-0.7,0.1-1.2,0.2-1.6,0.2
		c-0.8,0-1.4-0.2-1.7-0.6c-0.3-0.4-0.5-1.2-0.5-2.3v-4.4h-1.2v-0.8h1.2v-2.5h1v2.5h2.7V157.8z"/>
	<path class="st0" d="M770,164.9v-8h0.9v1.2c0.4-0.3,0.9-0.5,1.4-0.8c0.6-0.3,1.1-0.4,1.6-0.5v1c-0.5,0.1-0.9,0.2-1.4,0.4
		c-0.5,0.2-0.9,0.4-1.2,0.5l-0.4,0.2v6H770z"/>
	<path class="st0" d="M780.9,159.3v4.3c0,0.4,0.4,0.6,1,0.7l0,0.8c-0.8,0-1.4-0.2-1.8-0.6c-1,0.4-2,0.7-3,0.7
		c-0.7,0-1.3-0.2-1.6-0.6c-0.4-0.4-0.6-1-0.6-1.8s0.2-1.3,0.6-1.7c0.4-0.4,1-0.6,1.8-0.7l2.7-0.3v-0.8c0-0.6-0.1-1-0.4-1.3
		c-0.3-0.3-0.6-0.4-1-0.4c-0.7,0-1.6,0.1-2.7,0.2l-0.5,0l0-0.8c1.2-0.2,2.2-0.3,3.1-0.3s1.5,0.2,1.9,0.6S780.9,158.4,780.9,159.3z
		 M775.9,162.6c0,1.1,0.4,1.6,1.3,1.6c0.4,0,0.8,0,1.3-0.1c0.5-0.1,0.8-0.2,1.1-0.3l0.4-0.1v-2.9l-2.6,0.3c-0.5,0-0.9,0.2-1.1,0.4
		C776,161.8,775.9,162.1,775.9,162.6z"/>
	<path class="st0" d="M787.4,157.8h-2.7v4c0,1,0.1,1.7,0.2,2s0.5,0.5,1.1,0.5l1.5-0.1l0.1,0.8c-0.7,0.1-1.2,0.2-1.6,0.2
		c-0.8,0-1.4-0.2-1.7-0.6c-0.3-0.4-0.5-1.2-0.5-2.3v-4.4h-1.2v-0.8h1.2v-2.5h1v2.5h2.7V157.8z"/>
	<path class="st0" d="M794.2,164.1l0.5,0l0,0.8c-1.2,0.1-2.2,0.2-3.1,0.2c-1.2,0-2-0.4-2.4-1c-0.5-0.7-0.7-1.7-0.7-3.1
		c0-2.8,1.1-4.2,3.3-4.2c1.1,0,1.8,0.3,2.4,0.9s0.8,1.6,0.8,2.9l0,0.8h-5.4c0,1,0.2,1.7,0.5,2.2s0.9,0.7,1.7,0.7
		C792.6,164.2,793.4,164.2,794.2,164.1z M789.6,160.5h4.5c0-1.1-0.2-1.8-0.5-2.3c-0.3-0.4-0.9-0.7-1.7-0.7s-1.3,0.2-1.7,0.7
		S789.6,159.5,789.6,160.5z"/>
	<path class="st0" d="M803.5,166.1c0,0.9-0.3,1.6-0.9,2c-0.6,0.4-1.5,0.6-2.7,0.6c-1.2,0-2.1-0.2-2.5-0.5c-0.5-0.4-0.7-1-0.7-1.9
		c0-0.4,0.1-0.8,0.3-1.1c0.2-0.3,0.5-0.6,1-0.9c-0.3-0.2-0.4-0.5-0.4-1.1c0-0.2,0.1-0.5,0.4-1l0.1-0.2c-0.9-0.4-1.3-1.2-1.3-2.4
		c0-1.8,1-2.7,2.9-2.7c0.5,0,1,0.1,1.4,0.2l0.2,0l2.3,0v0.8l-1.6,0c0.4,0.4,0.6,1,0.6,1.9s-0.2,1.5-0.7,1.9
		c-0.5,0.4-1.2,0.6-2.3,0.6c-0.3,0-0.6,0-0.8-0.1c-0.2,0.5-0.3,0.9-0.3,1c0,0.4,0.1,0.6,0.3,0.6s0.8,0.1,1.9,0.1
		c1,0,1.8,0.2,2.2,0.5C803.3,164.6,803.5,165.2,803.5,166.1z M797.6,166.2c0,0.6,0.2,1.1,0.5,1.3s0.9,0.4,1.9,0.4
		c0.9,0,1.6-0.1,2-0.4c0.4-0.3,0.6-0.7,0.6-1.3s-0.1-1-0.4-1.2c-0.3-0.2-0.8-0.3-1.6-0.3l-1.8-0.1c-0.4,0.3-0.7,0.5-0.8,0.7
		C797.7,165.6,797.6,165.8,797.6,166.2z M797.7,159.5c0,0.7,0.1,1.2,0.4,1.5c0.3,0.3,0.8,0.4,1.5,0.4c0.7,0,1.2-0.1,1.5-0.4
		c0.3-0.3,0.4-0.8,0.4-1.5c0-0.7-0.1-1.2-0.4-1.5c-0.3-0.3-0.8-0.4-1.5-0.4c-0.7,0-1.2,0.1-1.5,0.4S797.7,158.8,797.7,159.5z"/>
	<path class="st0" d="M804.4,156.9h1l2.1,7.2h0.6l2.1-7.2h1l-3.5,11.6h-1l1.1-3.6h-1.1L804.4,156.9z"/>
</g>
<g class="st2">
	<path class="st0" d="M816.9,162.3v2.7h-0.8V158h2.6c0.7,0,1.3,0.2,1.7,0.5s0.6,0.9,0.6,1.6c0,1.1-0.4,1.7-1.3,2l1.3,2.8h-0.8
		l-1.2-2.7H816.9z M818.7,161.6c0.9,0,1.4-0.5,1.4-1.5s-0.5-1.5-1.4-1.5h-1.8v2.9H818.7z"/>
	<path class="st0" d="M825.5,164.3l0.3,0l0,0.6c-0.8,0.1-1.4,0.2-2,0.2c-0.7,0-1.2-0.2-1.5-0.6c-0.3-0.4-0.5-1.1-0.5-1.9
		c0-1.8,0.7-2.6,2.1-2.6c0.7,0,1.2,0.2,1.5,0.6c0.3,0.4,0.5,1,0.5,1.8l0,0.6h-3.3c0,0.6,0.1,1,0.3,1.2s0.5,0.4,1,0.4
		C824.5,164.4,825,164.3,825.5,164.3z M825.2,162.1c0-0.6-0.1-1-0.3-1.3c-0.2-0.3-0.5-0.4-1-0.4s-0.8,0.1-1,0.4s-0.3,0.7-0.3,1.3
		H825.2z"/>
	<path class="st0" d="M827.2,167.1v-7.2h0.7v0.4c0.5-0.3,1-0.5,1.5-0.5c0.6,0,1.1,0.2,1.4,0.6c0.3,0.4,0.4,1.1,0.4,2s-0.2,1.6-0.5,2
		s-0.9,0.6-1.7,0.6c-0.4,0-0.8,0-1.1-0.1v2.2H827.2z M829.3,160.5c-0.2,0-0.4,0-0.6,0.1c-0.2,0.1-0.4,0.1-0.5,0.2l-0.2,0.1v3.4
		c0.5,0.1,0.8,0.1,1.1,0.1c0.5,0,0.9-0.2,1.1-0.5s0.3-0.8,0.3-1.5s-0.1-1.2-0.3-1.5C830,160.6,829.7,160.5,829.3,160.5z"/>
	<path class="st0" d="M832.2,162.4c0-0.9,0.2-1.6,0.5-2c0.3-0.4,0.9-0.6,1.7-0.6c0.8,0,1.3,0.2,1.6,0.6c0.3,0.4,0.5,1.1,0.5,2
		s-0.2,1.6-0.5,2c-0.3,0.4-0.9,0.6-1.7,0.6c-0.8,0-1.4-0.2-1.7-0.6C832.4,164,832.2,163.3,832.2,162.4z M833,162.4
		c0,0.7,0.1,1.2,0.3,1.5c0.2,0.3,0.5,0.4,1.1,0.4s0.9-0.1,1.1-0.4c0.2-0.3,0.3-0.8,0.3-1.5s-0.1-1.2-0.3-1.5
		c-0.2-0.3-0.6-0.4-1.1-0.4s-0.9,0.1-1.1,0.4C833.1,161.2,833,161.7,833,162.4z"/>
	<path class="st0" d="M837.7,164.9v-5h0.7v0.7c0.6-0.4,1.2-0.7,1.8-0.8v0.8c-0.3,0.1-0.6,0.1-0.9,0.2c-0.3,0.1-0.5,0.2-0.7,0.3
		l-0.2,0.1v3.7H837.7z"/>
</g>
<g class="st2">
	<path class="st0" d="M843.8,160.6h-1.6v2.4c0,0.6,0,1,0.1,1.1c0.1,0.2,0.3,0.3,0.6,0.3l0.9-0.1l0,0.6c-0.4,0.1-0.8,0.1-1,0.1
		c-0.5,0-0.9-0.1-1.1-0.4c-0.2-0.3-0.3-0.7-0.3-1.5v-2.6h-0.7v-0.7h0.7v-1.5h0.7v1.5h1.6V160.6z"/>
	<path class="st0" d="M845.4,164.8l2.8-7l0.7,0.2l-2.8,7L845.4,164.8z"/>
</g>
<g class="st2">
	<path class="st0" d="M851.7,162.3v2.7H851V158h2.6c0.7,0,1.3,0.2,1.7,0.5s0.6,0.9,0.6,1.6c0,1.1-0.4,1.7-1.3,2l1.3,2.8H855
		l-1.2-2.7H851.7z M853.5,161.6c0.9,0,1.4-0.5,1.4-1.5s-0.5-1.5-1.4-1.5h-1.8v2.9H853.5z"/>
	<path class="st0" d="M860.3,164.3l0.3,0l0,0.6c-0.8,0.1-1.4,0.2-2,0.2c-0.7,0-1.2-0.2-1.5-0.6c-0.3-0.4-0.5-1.1-0.5-1.9
		c0-1.8,0.7-2.6,2.1-2.6c0.7,0,1.2,0.2,1.5,0.6c0.3,0.4,0.5,1,0.5,1.8l0,0.6h-3.3c0,0.6,0.1,1,0.3,1.2s0.5,0.4,1,0.4
		C859.3,164.4,859.8,164.3,860.3,164.3z M860,162.1c0-0.6-0.1-1-0.3-1.3c-0.2-0.3-0.5-0.4-1-0.4s-0.8,0.1-1,0.4s-0.3,0.7-0.3,1.3
		H860z"/>
	<path class="st0" d="M865.5,161.4v2.6c0,0.2,0.2,0.4,0.6,0.4l0,0.6c-0.5,0-0.9-0.1-1.2-0.4c-0.6,0.3-1.2,0.4-1.8,0.4
		c-0.5,0-0.8-0.1-1-0.4s-0.4-0.6-0.4-1.1c0-0.5,0.1-0.8,0.4-1.1c0.2-0.2,0.6-0.4,1.2-0.4l1.6-0.1v-0.4c0-0.3-0.1-0.6-0.2-0.7
		c-0.1-0.1-0.3-0.2-0.6-0.2c-0.5,0-1.1,0-1.7,0.1l-0.3,0l0-0.6c0.7-0.1,1.4-0.2,2-0.2s1,0.1,1.2,0.4
		C865.4,160.5,865.5,160.9,865.5,161.4z M862.4,163.5c0,0.6,0.3,0.9,0.8,0.9c0.5,0,0.9-0.1,1.3-0.2l0.2-0.1v-1.7l-1.5,0.1
		c-0.3,0-0.5,0.1-0.6,0.3C862.5,163,862.4,163.2,862.4,163.5z"/>
	<path class="st0" d="M870.8,157.7v7.2h-0.7v-0.3c-0.5,0.3-1,0.4-1.5,0.4c-0.3,0-0.5,0-0.7-0.1s-0.4-0.2-0.6-0.4
		c-0.4-0.4-0.5-1-0.5-2c0-1,0.2-1.7,0.5-2.1s0.9-0.6,1.6-0.6c0.4,0,0.8,0,1.2,0.1v-2.2H870.8z M868.2,164.3c0.1,0,0.3,0.1,0.5,0.1
		s0.4,0,0.6-0.1c0.2-0.1,0.4-0.1,0.6-0.2l0.2-0.1v-3.4c-0.4-0.1-0.8-0.1-1.2-0.1c-0.5,0-0.9,0.2-1.1,0.5c-0.2,0.3-0.3,0.8-0.3,1.5
		c0,0.8,0.1,1.3,0.4,1.6C868,164.1,868.1,164.2,868.2,164.3z"/>
	<path class="st0" d="M879.8,161.5c0,1.2-0.2,2.1-0.6,2.7c-0.4,0.6-1.1,0.8-2.1,0.8c-1,0-1.8-0.3-2.1-0.8s-0.6-1.5-0.6-2.7
		s0.2-2.1,0.6-2.7c0.4-0.6,1.1-0.9,2.1-0.9c1,0,1.7,0.3,2.1,0.9C879.6,159.4,879.8,160.3,879.8,161.5z M875.1,161.5
		c0,1,0.1,1.7,0.4,2.2s0.8,0.7,1.5,0.7c0.8,0,1.3-0.2,1.5-0.7c0.3-0.4,0.4-1.2,0.4-2.2c0-1-0.1-1.8-0.4-2.2s-0.8-0.7-1.5-0.7
		s-1.3,0.2-1.5,0.7C875.2,159.7,875.1,160.5,875.1,161.5z"/>
	<path class="st0" d="M884.2,159.9h0.8v5h-0.8v-0.3c-0.5,0.3-1,0.4-1.5,0.4c-0.7,0-1.1-0.2-1.4-0.5s-0.3-1-0.3-2v-2.6h0.8v2.6
		c0,0.7,0.1,1.2,0.2,1.5c0.1,0.2,0.4,0.4,0.9,0.4c0.2,0,0.4,0,0.7-0.1s0.4-0.1,0.5-0.2l0.2-0.1V159.9z"/>
	<path class="st0" d="M889,160.6h-1.6v2.4c0,0.6,0,1,0.1,1.1s0.3,0.3,0.6,0.3l0.9-0.1l0,0.6c-0.4,0.1-0.8,0.1-1,0.1
		c-0.5,0-0.9-0.1-1.1-0.4c-0.2-0.3-0.3-0.7-0.3-1.5v-2.6h-0.7v-0.7h0.7v-1.5h0.7v1.5h1.6V160.6z"/>
</g>
</svg>
