<?xml version="1.0" encoding="utf-8"?>
<!-- Generator: Adobe Illustrator 21.0.2, SVG Export Plug-In . SVG Version: 6.00 Build 0)  -->
<svg version="1.1" id="Layer_1" xmlns="http://www.w3.org/2000/svg" xmlns:xlink="http://www.w3.org/1999/xlink" x="0px" y="0px"
	 viewBox="0 0 503 394.6" style="enable-background:new 0 0 503 394.6;" xml:space="preserve">
<style type="text/css">
	.st0{fill:#FFFFFF;}
	.st1{fill:#0373B4;}
	.st2{enable-background:new    ;}
</style>
<g id="XMLID_161_">
	<g id="XMLID_276_">
		<polygon class="st0" points="266.3,350.8 13.2,350.8 13.2,297.7 485.6,297.7 485.6,250.3 13.2,250.3 13.2,197.2 485.6,197.2 
			485.6,149.7 13.2,149.7 13.2,96.7 485.6,96.7 485.6,49.2 241,49.2 241,46.2 488.6,46.2 488.6,99.7 16.2,99.7 16.2,146.7 
			488.6,146.7 488.6,200.2 16.2,200.2 16.2,247.3 488.6,247.3 488.6,300.7 16.2,300.7 16.2,347.8 266.3,347.8 		"/>
	</g>
</g>
<g id="XMLID_132_">
	<rect x="39" y="18" class="st1" width="202" height="59.3"/>
</g>
<g id="XMLID_131_">
	<rect x="260.5" y="18" class="st1" width="202" height="59.3"/>
</g>
<g id="XMLID_130_">
	<rect x="39" y="118.6" class="st1" width="202" height="59.3"/>
</g>
<g id="XMLID_129_">
	<rect x="260.8" y="118.6" class="st1" width="202" height="59.3"/>
</g>
<g id="XMLID_128_">
	<rect x="39" y="219.1" class="st1" width="202" height="59.3"/>
</g>
<g id="XMLID_127_">
	<rect x="260.5" y="219.1" class="st1" width="202" height="59.3"/>
</g>
<g id="XMLID_126_">
	<rect x="39" y="319.6" class="st1" width="202" height="59.3"/>
</g>
<g id="XMLID_125_">
	<rect x="260.5" y="319.6" class="st1" width="202" height="59.3"/>
</g>
<g class="st2">
	<path class="st0" d="M136.7,40.9V28.2h2.1v12.7H136.7z"/>
	<path class="st0" d="M141.4,35.3v-2.7h2.2v2.7H141.4z M141.4,40.9v-2.7h2.2v2.7H141.4z"/>
</g>
<g class="st2">
	<path class="st0" d="M83.4,64.9V53.8h1v11.1H83.4z"/>
	<path class="st0" d="M87.9,64.9H87v-8h0.9v0.6c0.9-0.5,1.8-0.8,2.6-0.8c1.1,0,1.8,0.3,2.1,0.8c0.4,0.6,0.5,1.6,0.5,3.1v4.2h-1v-4.2
		c0-1.2-0.1-2.1-0.4-2.5c-0.2-0.4-0.7-0.6-1.5-0.6c-0.4,0-0.8,0.1-1.2,0.2c-0.4,0.1-0.7,0.2-1,0.3l-0.3,0.2V64.9z"/>
	<path class="st0" d="M97.9,57.7c-1.3,0-1.9,0.5-1.9,1.4c0,0.4,0.1,0.7,0.4,0.9s0.9,0.3,1.9,0.5c1,0.2,1.7,0.4,2.1,0.7
		c0.4,0.3,0.6,0.8,0.6,1.7c0,0.8-0.3,1.4-0.8,1.8c-0.5,0.4-1.3,0.6-2.3,0.6c-0.6,0-1.3-0.1-2.3-0.2l-0.5-0.1l0.1-0.8
		c1.2,0.2,2.1,0.3,2.8,0.3c0.6,0,1.1-0.1,1.5-0.3s0.5-0.6,0.5-1.1s-0.1-0.9-0.4-1.1s-0.9-0.3-1.9-0.5s-1.6-0.4-2-0.6
		C95.2,60.3,95,59.8,95,59c0-0.8,0.3-1.3,0.8-1.7c0.5-0.4,1.2-0.5,2-0.5c0.6,0,1.4,0.1,2.4,0.2l0.4,0.1l0,0.8
		C99.5,57.7,98.6,57.7,97.9,57.7z"/>
	<path class="st0" d="M102.9,54.9v-1.2h0.9v1.2H102.9z M102.9,64.9v-8h0.9v8H102.9z"/>
	<path class="st0" d="M112.7,66.1c0,0.9-0.3,1.6-0.9,2c-0.6,0.4-1.5,0.6-2.7,0.6c-1.2,0-2.1-0.2-2.5-0.5c-0.5-0.4-0.7-1-0.7-1.9
		c0-0.4,0.1-0.8,0.3-1.1c0.2-0.3,0.5-0.6,1-0.9c-0.3-0.2-0.4-0.5-0.4-1.1c0-0.2,0.1-0.5,0.4-1l0.1-0.2c-0.9-0.4-1.3-1.2-1.3-2.4
		c0-1.8,1-2.7,2.9-2.7c0.5,0,1,0.1,1.4,0.2l0.2,0l2.3,0v0.8l-1.6,0c0.4,0.4,0.6,1,0.6,1.9s-0.2,1.5-0.7,1.9
		c-0.5,0.4-1.3,0.6-2.3,0.6c-0.3,0-0.6,0-0.8-0.1c-0.2,0.5-0.3,0.9-0.3,1c0,0.4,0.1,0.6,0.3,0.6s0.8,0.1,1.9,0.1
		c1,0,1.8,0.2,2.2,0.5C112.5,64.6,112.7,65.2,112.7,66.1z M106.9,66.2c0,0.6,0.2,1.1,0.5,1.3c0.3,0.2,0.9,0.4,1.9,0.4
		c0.9,0,1.6-0.1,2-0.4c0.4-0.3,0.6-0.7,0.6-1.3s-0.1-1-0.4-1.2c-0.3-0.2-0.8-0.3-1.6-0.3l-1.8-0.1c-0.4,0.3-0.7,0.5-0.8,0.7
		C106.9,65.6,106.9,65.9,106.9,66.2z M107,59.5c0,0.7,0.1,1.2,0.4,1.5c0.3,0.3,0.8,0.4,1.5,0.4s1.2-0.1,1.5-0.4
		c0.3-0.3,0.4-0.8,0.4-1.5c0-0.7-0.1-1.2-0.4-1.5c-0.3-0.3-0.8-0.4-1.5-0.4s-1.2,0.1-1.5,0.4C107.1,58.3,107,58.8,107,59.5z"/>
	<path class="st0" d="M115.3,64.9h-0.9V53.4h0.9v4c0.9-0.4,1.8-0.6,2.6-0.6c1.1,0,1.8,0.3,2.1,0.8s0.5,1.6,0.5,3.1v4.2h-1v-4.2
		c0-1.2-0.1-2.1-0.3-2.5c-0.2-0.4-0.7-0.6-1.5-0.6c-0.4,0-0.8,0-1.2,0.1c-0.4,0.1-0.7,0.2-1,0.3l-0.3,0.1V64.9z"/>
	<path class="st0" d="M126.9,57.8h-2.7v4c0,1,0.1,1.7,0.2,2s0.5,0.5,1.1,0.5l1.5-0.1l0.1,0.8c-0.7,0.1-1.2,0.2-1.6,0.2
		c-0.8,0-1.4-0.2-1.7-0.6c-0.3-0.4-0.5-1.2-0.5-2.3v-4.4h-1.2v-0.8h1.2v-2.5h1v2.5h2.7V57.8z"/>
	<path class="st0" d="M133.8,54.4c0.5-0.4,1.1-0.6,2-0.6c0.9,0,1.5,0.2,2,0.6c0.4,0.4,0.7,1,0.7,1.8c0,0.7-0.2,1.3-0.6,1.8
		c-0.4,0.4-1,0.8-2,1.2l2.6,2.6c0.1-0.3,0.2-0.7,0.3-1.3c0.1-0.6,0.2-1.1,0.2-1.5l0.9,0c-0.1,1.4-0.4,2.5-0.7,3.3l2.1,2l-0.6,0.7
		l-2-1.9c-0.7,1.3-1.9,1.9-3.5,1.9c-1.4,0-2.4-0.3-3-0.9c-0.6-0.6-0.9-1.4-0.9-2.4c0-1,0.2-1.8,0.6-2.2c0.4-0.5,1-0.8,1.9-1.1
		c-0.4-0.4-0.6-0.8-0.7-1.1c-0.1-0.3-0.2-0.7-0.2-1.2C133.1,55.4,133.3,54.8,133.8,54.4z M135.2,64.2c1.4,0,2.3-0.5,2.8-1.6
		l-3.5-3.5c-0.8,0.2-1.3,0.5-1.7,0.9c-0.3,0.4-0.5,1-0.5,1.7C132.4,63.4,133.3,64.2,135.2,64.2z M134,56.2c0,0.7,0.2,1.3,0.7,1.8
		l0.5,0.5c0.8-0.3,1.4-0.6,1.7-1c0.3-0.3,0.5-0.8,0.5-1.4c0-1.1-0.6-1.6-1.7-1.6S134,55.1,134,56.2z"/>
	<path class="st0" d="M147.6,64.9h-1V53.8h1v5.2l1.9,0l3.1-5.2h1.1l-3.4,5.6l3.6,5.5h-1.2l-3.2-5l-1.9,0V64.9z"/>
	<path class="st0" d="M155.4,54.9v-1.2h0.9v1.2H155.4z M155.4,64.9v-8h0.9v8H155.4z"/>
	<path class="st0" d="M161.7,56.8c0.5,0,1.1,0.1,1.7,0.2l0.4,0l0,0.8c-0.8-0.1-1.5-0.2-1.9-0.2c-0.9,0-1.6,0.2-2,0.7
		c-0.4,0.5-0.5,1.3-0.5,2.6c0,1.2,0.2,2.1,0.5,2.6c0.3,0.5,1,0.7,2,0.7l1.9-0.1l0,0.8c-0.9,0.1-1.7,0.2-2.1,0.2
		c-1.3,0-2.1-0.3-2.6-0.9c-0.5-0.6-0.7-1.7-0.7-3.2s0.3-2.6,0.8-3.2C159.7,57.1,160.5,56.8,161.7,56.8z"/>
	<path class="st0" d="M166.6,64.9h-0.9V53.4h0.9v6.9l1.4,0l2.5-3.3h1.1l-2.7,3.7l2.9,4.3h-1.1l-2.6-3.9l-1.4,0V64.9z"/>
	<path class="st0" d="M172.5,60.9v-0.9h4.9v0.9H172.5z"/>
	<path class="st0" d="M179.4,60.9c0-1.5,0.3-2.6,0.8-3.2c0.5-0.6,1.4-0.9,2.6-0.9s2.1,0.3,2.6,0.9c0.5,0.6,0.8,1.7,0.8,3.2
		s-0.2,2.6-0.7,3.2c-0.5,0.6-1.3,1-2.6,1c-1.3,0-2.2-0.3-2.7-1C179.6,63.5,179.4,62.4,179.4,60.9z M180.3,60.9
		c0,1.3,0.1,2.1,0.4,2.6s0.9,0.7,1.9,0.7c1,0,1.6-0.2,1.9-0.7c0.3-0.5,0.4-1.4,0.4-2.6c0-1.3-0.2-2.1-0.5-2.6s-1-0.7-1.9-0.7
		c-0.9,0-1.5,0.2-1.9,0.7C180.5,58.8,180.3,59.6,180.3,60.9z"/>
	<path class="st0" d="M189.4,57.8v7.2h-1v-7.2h-1v-0.8h1v-0.8c0-1.1,0.2-1.9,0.5-2.3c0.3-0.4,0.9-0.6,1.6-0.6l1.6,0.1v0.8
		c-0.6,0-1.1,0-1.4,0c-0.5,0-0.8,0.1-1,0.4c-0.2,0.3-0.3,0.8-0.3,1.6v0.8h2.4v0.8H189.4z"/>
	<path class="st0" d="M194.6,57.8v7.2h-1v-7.2h-1v-0.8h1v-0.8c0-1.1,0.2-1.9,0.5-2.3c0.3-0.4,0.9-0.6,1.6-0.6l1.6,0.1v0.8
		c-0.6,0-1.1,0-1.4,0c-0.5,0-0.8,0.1-1,0.4c-0.2,0.3-0.3,0.8-0.3,1.6v0.8h2.4v0.8H194.6z"/>
</g>
<g class="st2">
	<path class="st0" d="M355.7,40.9V28.2h2.1v12.7H355.7z"/>
	<path class="st0" d="M360.7,40.9V28.2h2.1v12.7H360.7z"/>
	<path class="st0" d="M365.4,35.3v-2.7h2.2v2.7H365.4z M365.4,40.9v-2.7h2.2v2.7H365.4z"/>
</g>
<g class="st2">
	<path class="st0" d="M305.7,61.1h-3.1v3.9h-1V53.8h4.1c1.2,0,2.1,0.3,2.6,0.9s0.8,1.5,0.8,2.7C309.1,59.8,308,61.1,305.7,61.1z
		 M302.6,60.2h3.1c1.6,0,2.4-0.9,2.4-2.8c0-0.9-0.2-1.6-0.6-2s-1-0.6-1.9-0.6h-3.1V60.2z"/>
	<path class="st0" d="M310.9,64.9v-8h0.9v1.2c0.4-0.3,0.9-0.5,1.4-0.8c0.6-0.3,1.1-0.4,1.6-0.5v1c-0.5,0.1-0.9,0.2-1.4,0.4
		c-0.5,0.2-0.9,0.4-1.2,0.5l-0.4,0.2v6H310.9z"/>
	<path class="st0" d="M315.8,60.9c0-1.5,0.3-2.6,0.8-3.2c0.5-0.6,1.4-0.9,2.6-0.9c1.2,0,2.1,0.3,2.6,0.9c0.5,0.6,0.8,1.7,0.8,3.2
		s-0.2,2.6-0.7,3.2c-0.5,0.6-1.3,1-2.6,1c-1.3,0-2.2-0.3-2.7-1C316,63.5,315.8,62.4,315.8,60.9z M316.8,60.9c0,1.3,0.1,2.1,0.4,2.6
		c0.3,0.5,0.9,0.7,1.9,0.7c1,0,1.6-0.2,1.9-0.7c0.3-0.5,0.4-1.4,0.4-2.6c0-1.3-0.2-2.1-0.5-2.6s-1-0.7-1.9-0.7
		c-0.9,0-1.5,0.2-1.9,0.7C317,58.8,316.8,59.6,316.8,60.9z"/>
	<path class="st0" d="M324.6,64.8v-7.8h1v7.9c0,0.9-0.2,1.7-0.5,2.1c-0.3,0.5-1,1-2.1,1.5l-0.4-0.8c0.9-0.5,1.4-0.9,1.7-1.2
		C324.4,66.1,324.6,65.6,324.6,64.8z M324.6,54.9v-1.2h1v1.2H324.6z"/>
	<path class="st0" d="M333.2,64.1l0.5,0l0,0.8c-1.2,0.1-2.2,0.2-3.1,0.2c-1.2,0-2-0.4-2.4-1s-0.7-1.7-0.7-3.1c0-2.8,1.1-4.2,3.3-4.2
		c1.1,0,1.8,0.3,2.4,0.9c0.5,0.6,0.8,1.6,0.8,2.9l0,0.8h-5.4c0,1,0.2,1.7,0.5,2.2s0.9,0.7,1.7,0.7C331.6,64.2,332.4,64.2,333.2,64.1
		z M328.5,60.5h4.5c0-1.1-0.2-1.8-0.5-2.3c-0.3-0.4-0.9-0.7-1.7-0.7s-1.3,0.2-1.7,0.7S328.5,59.5,328.5,60.5z"/>
	<path class="st0" d="M339,56.8c0.5,0,1.1,0.1,1.7,0.2l0.4,0l0,0.8c-0.8-0.1-1.5-0.2-1.9-0.2c-0.9,0-1.6,0.2-2,0.7
		c-0.4,0.5-0.5,1.3-0.5,2.6c0,1.2,0.2,2.1,0.5,2.6c0.3,0.5,1,0.7,2,0.7l1.9-0.1l0,0.8c-1,0.1-1.7,0.2-2.1,0.2
		c-1.3,0-2.1-0.3-2.6-0.9c-0.5-0.6-0.7-1.7-0.7-3.2s0.3-2.6,0.8-3.2S337.8,56.8,339,56.8z"/>
	<path class="st0" d="M347,57.8h-2.7v4c0,1,0.1,1.7,0.2,2s0.5,0.5,1.1,0.5l1.5-0.1l0.1,0.8c-0.7,0.1-1.2,0.2-1.6,0.2
		c-0.8,0-1.4-0.2-1.7-0.6c-0.3-0.4-0.5-1.2-0.5-2.3v-4.4h-1.2v-0.8h1.2v-2.5h1v2.5h2.7V57.8z"/>
	<path class="st0" d="M352.2,64.9V53.8h1v11.1H352.2z"/>
	<path class="st0" d="M356.7,64.9h-0.9v-8h0.9v0.6c0.8-0.5,1.7-0.8,2.6-0.8c0.9,0,1.6,0.3,2,0.8c0.4-0.2,0.9-0.4,1.4-0.6
		c0.5-0.2,1-0.2,1.5-0.2c1.1,0,1.8,0.3,2.1,0.8c0.4,0.6,0.5,1.6,0.5,3.1v4.2h-0.9v-4.2c0-1.2-0.1-2.1-0.3-2.5
		c-0.2-0.4-0.7-0.6-1.5-0.6c-0.4,0-0.8,0.1-1.2,0.2s-0.7,0.2-0.9,0.3l-0.3,0.2c0.2,0.4,0.2,1.2,0.2,2.5v4.2h-1v-4.1
		c0-1.2-0.1-2.1-0.3-2.5c-0.2-0.4-0.7-0.6-1.5-0.6c-0.4,0-0.8,0.1-1.1,0.2s-0.7,0.2-0.9,0.3l-0.3,0.2V64.9z"/>
	<path class="st0" d="M370.1,64.9h-0.9v-8h0.9v0.6c0.8-0.5,1.7-0.8,2.6-0.8c0.9,0,1.6,0.3,2,0.8c0.4-0.2,0.9-0.4,1.4-0.6
		c0.5-0.2,1-0.2,1.5-0.2c1.1,0,1.8,0.3,2.1,0.8c0.4,0.6,0.5,1.6,0.5,3.1v4.2h-0.9v-4.2c0-1.2-0.1-2.1-0.3-2.5
		c-0.2-0.4-0.7-0.6-1.5-0.6c-0.4,0-0.8,0.1-1.2,0.2s-0.7,0.2-0.9,0.3l-0.3,0.2c0.2,0.4,0.2,1.2,0.2,2.5v4.2h-1v-4.1
		c0-1.2-0.1-2.1-0.3-2.5c-0.2-0.4-0.7-0.6-1.5-0.6c-0.4,0-0.8,0.1-1.1,0.2s-0.7,0.2-0.9,0.3l-0.3,0.2V64.9z"/>
	<path class="st0" d="M387.8,64.1l0.5,0l0,0.8c-1.2,0.1-2.2,0.2-3.1,0.2c-1.2,0-2-0.4-2.4-1s-0.7-1.7-0.7-3.1c0-2.8,1.1-4.2,3.3-4.2
		c1.1,0,1.8,0.3,2.4,0.9c0.5,0.6,0.8,1.6,0.8,2.9l0,0.8h-5.4c0,1,0.2,1.7,0.5,2.2s0.9,0.7,1.7,0.7C386.1,64.2,387,64.2,387.8,64.1z
		 M383.1,60.5h4.5c0-1.1-0.2-1.8-0.5-2.3c-0.3-0.4-0.9-0.7-1.7-0.7s-1.3,0.2-1.7,0.7S383.1,59.5,383.1,60.5z"/>
	<path class="st0" d="M390.5,64.9v-8h0.9v1.2c0.4-0.3,0.9-0.5,1.4-0.8c0.6-0.3,1.1-0.4,1.6-0.5v1c-0.5,0.1-0.9,0.2-1.4,0.4
		c-0.5,0.2-0.9,0.4-1.2,0.5l-0.4,0.2v6H390.5z"/>
	<path class="st0" d="M398.4,57.7c-1.3,0-1.9,0.5-1.9,1.4c0,0.4,0.1,0.7,0.4,0.9s0.9,0.3,1.9,0.5c1,0.2,1.7,0.4,2.1,0.7
		c0.4,0.3,0.6,0.8,0.6,1.7c0,0.8-0.3,1.4-0.8,1.8c-0.5,0.4-1.3,0.6-2.3,0.6c-0.6,0-1.3-0.1-2.3-0.2l-0.5-0.1l0.1-0.8
		c1.2,0.2,2.1,0.3,2.8,0.3c0.6,0,1.1-0.1,1.5-0.3s0.5-0.6,0.5-1.1s-0.1-0.9-0.4-1.1c-0.3-0.2-0.9-0.3-1.9-0.5c-1-0.1-1.6-0.4-2-0.6
		c-0.4-0.3-0.6-0.8-0.6-1.6c0-0.8,0.3-1.3,0.8-1.7c0.5-0.4,1.2-0.5,2-0.5c0.6,0,1.4,0.1,2.4,0.2l0.4,0.1l0,0.8
		C400,57.7,399.1,57.7,398.4,57.7z"/>
	<path class="st0" d="M403.4,54.9v-1.2h0.9v1.2H403.4z M403.4,64.9v-8h0.9v8H403.4z"/>
	<path class="st0" d="M406.4,60.9c0-1.5,0.3-2.6,0.8-3.2c0.5-0.6,1.4-0.9,2.6-0.9c1.2,0,2.1,0.3,2.6,0.9c0.5,0.6,0.8,1.7,0.8,3.2
		s-0.2,2.6-0.7,3.2c-0.5,0.6-1.3,1-2.6,1s-2.2-0.3-2.7-1C406.6,63.5,406.4,62.4,406.4,60.9z M407.4,60.9c0,1.3,0.1,2.1,0.4,2.6
		c0.3,0.5,0.9,0.7,1.9,0.7s1.6-0.2,1.9-0.7s0.4-1.4,0.4-2.6c0-1.3-0.2-2.1-0.5-2.6s-1-0.7-1.9-0.7s-1.5,0.2-1.9,0.7
		C407.6,58.8,407.4,59.6,407.4,60.9z"/>
	<path class="st0" d="M416.1,64.9h-0.9v-8h0.9v0.6c0.9-0.5,1.8-0.8,2.6-0.8c1.1,0,1.8,0.3,2.1,0.8c0.4,0.6,0.5,1.6,0.5,3.1v4.2h-1
		v-4.2c0-1.2-0.1-2.1-0.4-2.5c-0.2-0.4-0.7-0.6-1.5-0.6c-0.4,0-0.8,0.1-1.2,0.2c-0.4,0.1-0.7,0.2-1,0.3l-0.3,0.2V64.9z"/>
</g>
<g class="st2">
	<path class="st0" d="M131.8,141.5v-12.7h2.1v12.7H131.8z"/>
	<path class="st0" d="M136.8,141.5v-12.7h2.1v12.7H136.8z"/>
	<path class="st0" d="M141.7,141.5v-12.7h2.1v12.7H141.7z"/>
	<path class="st0" d="M146.4,135.8v-2.7h2.2v2.7H146.4z M146.4,141.5v-2.7h2.2v2.7H146.4z"/>
</g>
<g class="st2">
	<path class="st0" d="M57.1,165.5v-11.1h1.9l3.4,9.7l3.4-9.7h1.9v11.1h-1v-10.1h-0.2l-3.5,9.7h-1.2l-3.5-9.7h-0.2v10.1H57.1z"/>
	<path class="st0" d="M75.7,159.9v4.3c0,0.4,0.4,0.6,1,0.7l0,0.8c-0.8,0-1.4-0.2-1.8-0.6c-1,0.4-2,0.7-3,0.7c-0.7,0-1.3-0.2-1.6-0.6
		c-0.4-0.4-0.6-1-0.6-1.8s0.2-1.3,0.6-1.7s1-0.6,1.8-0.7l2.7-0.3v-0.8c0-0.6-0.1-1-0.4-1.3c-0.3-0.3-0.6-0.4-1-0.4
		c-0.7,0-1.6,0.1-2.7,0.2l-0.5,0l0-0.8c1.2-0.2,2.2-0.3,3.1-0.3c0.9,0,1.5,0.2,1.9,0.6S75.7,159,75.7,159.9z M70.7,163.2
		c0,1.1,0.4,1.6,1.3,1.6c0.4,0,0.8,0,1.3-0.1s0.8-0.2,1.1-0.3l0.4-0.1v-2.9l-2.6,0.3c-0.5,0-0.9,0.2-1.1,0.4
		C70.8,162.3,70.7,162.7,70.7,163.2z"/>
	<path class="st0" d="M78.2,165.5v-8h0.9v1.2c0.4-0.3,0.9-0.5,1.4-0.8c0.6-0.3,1.1-0.4,1.6-0.5v1c-0.5,0.1-0.9,0.2-1.4,0.4
		s-0.9,0.4-1.2,0.5l-0.4,0.2v6H78.2z"/>
	<path class="st0" d="M84.6,165.5h-0.9v-11.6h0.9v6.9l1.4,0l2.5-3.3h1.1l-2.7,3.7l2.9,4.3h-1.1l-2.6-3.9l-1.4,0V165.5z"/>
	<path class="st0" d="M96.2,164.7l0.5,0l0,0.8c-1.2,0.1-2.2,0.2-3.1,0.2c-1.2,0-2-0.4-2.4-1c-0.5-0.7-0.7-1.7-0.7-3.1
		c0-2.8,1.1-4.2,3.3-4.2c1.1,0,1.8,0.3,2.4,0.9c0.5,0.6,0.8,1.6,0.8,2.9l0,0.8h-5.4c0,1,0.2,1.7,0.5,2.2s0.9,0.7,1.7,0.7
		S95.4,164.7,96.2,164.7z M91.6,161.1h4.5c0-1.1-0.2-1.8-0.5-2.3c-0.3-0.4-0.9-0.7-1.7-0.7s-1.3,0.2-1.7,0.7S91.6,160,91.6,161.1z"
		/>
	<path class="st0" d="M103,158.3h-2.7v4c0,1,0.1,1.7,0.2,2s0.5,0.5,1.1,0.5l1.5-0.1l0.1,0.8c-0.7,0.1-1.2,0.2-1.6,0.2
		c-0.8,0-1.4-0.2-1.7-0.6c-0.3-0.4-0.5-1.2-0.5-2.3v-4.4h-1.2v-0.8h1.2V155h1v2.5h2.7V158.3z"/>
	<path class="st0" d="M109.2,161.1v4.4h-1v-11.1h4.1c1.2,0,2,0.3,2.6,0.8c0.6,0.5,0.9,1.4,0.9,2.5c0,1.8-0.7,2.9-2.1,3.2l2.3,4.6
		h-1.1l-2.2-4.4H109.2z M114.7,157.7c0-0.8-0.2-1.4-0.6-1.8c-0.4-0.4-1-0.6-1.8-0.6h-3.1v5h3.1C113.9,160.2,114.7,159.4,114.7,157.7
		z"/>
	<path class="st0" d="M123,164.7l0.5,0l0,0.8c-1.2,0.1-2.2,0.2-3.1,0.2c-1.2,0-2-0.4-2.4-1c-0.5-0.7-0.7-1.7-0.7-3.1
		c0-2.8,1.1-4.2,3.3-4.2c1.1,0,1.8,0.3,2.4,0.9c0.5,0.6,0.8,1.6,0.8,2.9l0,0.8h-5.4c0,1,0.2,1.7,0.5,2.2s0.9,0.7,1.7,0.7
		S122.2,164.7,123,164.7z M118.3,161.1h4.5c0-1.1-0.2-1.8-0.5-2.3c-0.3-0.4-0.9-0.7-1.7-0.7s-1.3,0.2-1.7,0.7S118.3,160,118.3,161.1
		z"/>
	<path class="st0" d="M128.2,158.2c-1.3,0-1.9,0.5-1.9,1.4c0,0.4,0.1,0.7,0.4,0.9s0.9,0.3,1.9,0.5c1,0.2,1.7,0.4,2.1,0.7
		c0.4,0.3,0.6,0.8,0.6,1.7c0,0.8-0.3,1.4-0.8,1.8c-0.5,0.4-1.3,0.6-2.3,0.6c-0.6,0-1.3-0.1-2.3-0.2l-0.5-0.1l0.1-0.8
		c1.2,0.2,2.1,0.3,2.8,0.3c0.6,0,1.1-0.1,1.5-0.3s0.5-0.6,0.5-1.1s-0.1-0.9-0.4-1.1s-0.9-0.3-1.9-0.5s-1.6-0.4-2-0.6
		c-0.4-0.3-0.6-0.8-0.6-1.6c0-0.8,0.3-1.3,0.8-1.7c0.5-0.4,1.2-0.5,2-0.5c0.6,0,1.4,0.1,2.4,0.2l0.4,0.1l0,0.8
		C129.8,158.3,128.9,158.2,128.2,158.2z"/>
	<path class="st0" d="M138.5,164.7l0.5,0l0,0.8c-1.2,0.1-2.2,0.2-3.1,0.2c-1.2,0-2-0.4-2.4-1c-0.5-0.7-0.7-1.7-0.7-3.1
		c0-2.8,1.1-4.2,3.3-4.2c1.1,0,1.8,0.3,2.4,0.9c0.5,0.6,0.8,1.6,0.8,2.9l0,0.8h-5.4c0,1,0.2,1.7,0.5,2.2s0.9,0.7,1.7,0.7
		S137.7,164.7,138.5,164.7z M133.8,161.1h4.5c0-1.1-0.2-1.8-0.5-2.3c-0.3-0.4-0.9-0.7-1.7-0.7s-1.3,0.2-1.7,0.7
		S133.8,160,133.8,161.1z"/>
	<path class="st0" d="M146.8,159.9v4.3c0,0.4,0.4,0.6,1,0.7l0,0.8c-0.8,0-1.4-0.2-1.8-0.6c-1,0.4-2,0.7-3,0.7
		c-0.7,0-1.3-0.2-1.6-0.6c-0.4-0.4-0.6-1-0.6-1.8s0.2-1.3,0.6-1.7s1-0.6,1.8-0.7l2.7-0.3v-0.8c0-0.6-0.1-1-0.4-1.3
		c-0.3-0.3-0.6-0.4-1-0.4c-0.7,0-1.6,0.1-2.7,0.2l-0.5,0l0-0.8c1.2-0.2,2.2-0.3,3.1-0.3c0.9,0,1.5,0.2,1.9,0.6
		S146.8,159,146.8,159.9z M141.7,163.2c0,1.1,0.4,1.6,1.3,1.6c0.4,0,0.8,0,1.3-0.1s0.8-0.2,1.1-0.3l0.4-0.1v-2.9l-2.6,0.3
		c-0.5,0-0.9,0.2-1.1,0.4C141.9,162.3,141.7,162.7,141.7,163.2z"/>
	<path class="st0" d="M149.3,165.5v-8h0.9v1.2c0.4-0.3,0.9-0.5,1.4-0.8c0.6-0.3,1.1-0.4,1.6-0.5v1c-0.5,0.1-0.9,0.2-1.4,0.4
		s-0.9,0.4-1.2,0.5l-0.4,0.2v6H149.3z"/>
	<path class="st0" d="M157.4,157.3c0.5,0,1.1,0.1,1.7,0.2l0.4,0l0,0.8c-0.8-0.1-1.5-0.2-1.9-0.2c-0.9,0-1.6,0.2-2,0.7
		c-0.4,0.5-0.5,1.3-0.5,2.6c0,1.2,0.2,2.1,0.5,2.6c0.3,0.5,1,0.7,2,0.7l1.9-0.1l0,0.8c-0.9,0.1-1.7,0.2-2.1,0.2
		c-1.3,0-2.1-0.3-2.6-0.9c-0.5-0.6-0.7-1.7-0.7-3.2s0.3-2.6,0.8-3.2C155.4,157.6,156.2,157.3,157.4,157.3z"/>
</g>
<g class="st2">
	<path class="st0" d="M163,165.5h-0.9v-11.6h0.9v4c0.9-0.4,1.8-0.6,2.6-0.6c1.1,0,1.8,0.3,2.1,0.8s0.5,1.6,0.5,3.1v4.2h-1v-4.2
		c0-1.2-0.1-2.1-0.3-2.5c-0.2-0.4-0.7-0.6-1.5-0.6c-0.4,0-0.8,0-1.2,0.1c-0.4,0.1-0.7,0.2-1,0.3l-0.3,0.1V165.5z"/>
	<path class="st0" d="M170.9,165.3l4.5-11.1l0.9,0.3l-4.5,11.1L170.9,165.3z"/>
</g>
<g class="st2">
	<path class="st0" d="M180.4,165.5v-11.1h1v11.1H180.4z"/>
	<path class="st0" d="M184.9,165.5H184v-8h0.9v0.6c0.9-0.5,1.8-0.8,2.6-0.8c1.1,0,1.8,0.3,2.1,0.8c0.4,0.6,0.5,1.6,0.5,3.1v4.2h-1
		v-4.2c0-1.2-0.1-2.1-0.4-2.5c-0.2-0.4-0.7-0.6-1.5-0.6c-0.4,0-0.8,0.1-1.2,0.2c-0.4,0.1-0.7,0.2-1,0.3l-0.3,0.2V165.5z"/>
	<path class="st0" d="M194.9,158.2c-1.3,0-1.9,0.5-1.9,1.4c0,0.4,0.1,0.7,0.4,0.9s0.9,0.3,1.9,0.5c1,0.2,1.7,0.4,2.1,0.7
		c0.4,0.3,0.6,0.8,0.6,1.7c0,0.8-0.3,1.4-0.8,1.8c-0.5,0.4-1.3,0.6-2.3,0.6c-0.6,0-1.3-0.1-2.3-0.2l-0.5-0.1l0.1-0.8
		c1.2,0.2,2.1,0.3,2.8,0.3c0.6,0,1.1-0.1,1.5-0.3s0.5-0.6,0.5-1.1s-0.1-0.9-0.4-1.1s-0.9-0.3-1.9-0.5s-1.6-0.4-2-0.6
		c-0.4-0.3-0.6-0.8-0.6-1.6c0-0.8,0.3-1.3,0.8-1.7c0.5-0.4,1.2-0.5,2-0.5c0.6,0,1.4,0.1,2.4,0.2l0.4,0.1l0,0.8
		C196.5,158.3,195.6,158.2,194.9,158.2z"/>
	<path class="st0" d="M199.9,155.5v-1.2h0.9v1.2H199.9z M199.9,165.5v-8h0.9v8H199.9z"/>
	<path class="st0" d="M209.7,166.7c0,0.9-0.3,1.6-0.9,2c-0.6,0.4-1.5,0.6-2.7,0.6c-1.2,0-2.1-0.2-2.5-0.5c-0.5-0.4-0.7-1-0.7-1.9
		c0-0.4,0.1-0.8,0.3-1.1c0.2-0.3,0.5-0.6,1-0.9c-0.3-0.2-0.4-0.5-0.4-1.1c0-0.2,0.1-0.5,0.4-1l0.1-0.2c-0.9-0.4-1.3-1.2-1.3-2.4
		c0-1.8,1-2.7,2.9-2.7c0.5,0,1,0.1,1.4,0.2l0.2,0l2.3,0v0.8l-1.6,0c0.4,0.4,0.6,1,0.6,1.9s-0.2,1.5-0.7,1.9
		c-0.5,0.4-1.3,0.6-2.3,0.6c-0.3,0-0.6,0-0.8-0.1c-0.2,0.5-0.3,0.9-0.3,1c0,0.4,0.1,0.6,0.3,0.6s0.8,0.1,1.9,0.1
		c1,0,1.8,0.2,2.2,0.5C209.5,165.2,209.7,165.8,209.7,166.7z M203.9,166.7c0,0.6,0.2,1.1,0.5,1.3c0.3,0.2,0.9,0.4,1.9,0.4
		c0.9,0,1.6-0.1,2-0.4c0.4-0.3,0.6-0.7,0.6-1.3s-0.1-1-0.4-1.2c-0.3-0.2-0.8-0.3-1.6-0.3l-1.8-0.1c-0.4,0.3-0.7,0.5-0.8,0.7
		C203.9,166.1,203.9,166.4,203.9,166.7z M204,160c0,0.7,0.1,1.2,0.4,1.5c0.3,0.3,0.8,0.4,1.5,0.4s1.2-0.1,1.5-0.4
		c0.3-0.3,0.4-0.8,0.4-1.5c0-0.7-0.1-1.2-0.4-1.5c-0.3-0.3-0.8-0.4-1.5-0.4s-1.2,0.1-1.5,0.4C204.1,158.8,204,159.3,204,160z"/>
	<path class="st0" d="M212.3,165.5h-0.9v-11.6h0.9v4c0.9-0.4,1.8-0.6,2.6-0.6c1.1,0,1.8,0.3,2.1,0.8s0.5,1.6,0.5,3.1v4.2h-1v-4.2
		c0-1.2-0.1-2.1-0.3-2.5c-0.2-0.4-0.7-0.6-1.5-0.6c-0.4,0-0.8,0-1.2,0.1c-0.4,0.1-0.7,0.2-1,0.3l-0.3,0.1V165.5z"/>
	<path class="st0" d="M223.9,158.3h-2.7v4c0,1,0.1,1.7,0.2,2s0.5,0.5,1.1,0.5l1.5-0.1l0.1,0.8c-0.7,0.1-1.2,0.2-1.6,0.2
		c-0.8,0-1.4-0.2-1.7-0.6c-0.3-0.4-0.5-1.2-0.5-2.3v-4.4h-1.2v-0.8h1.2V155h1v2.5h2.7V158.3z"/>
</g>
<g class="st2">
	<path class="st0" d="M353,141.5v-12.7h2.1v12.7H353z"/>
	<path class="st0" d="M365,128.7h2.2l-3.1,12.7h-4l-3.1-12.7h2.2l2.5,10.9h0.9L365,128.7z"/>
	<path class="st0" d="M368.5,135.8v-2.7h2.2v2.7H368.5z M368.5,141.5v-2.7h2.2v2.7H368.5z"/>
</g>
<g class="st2">
	<path class="st0" d="M285,165.5v-11.1h1v11.1H285z"/>
	<path class="st0" d="M289.6,165.5h-0.9v-8h0.9v0.6c0.9-0.5,1.8-0.8,2.6-0.8c1.1,0,1.8,0.3,2.1,0.8s0.5,1.6,0.5,3.1v4.2h-1v-4.2
		c0-1.2-0.1-2.1-0.4-2.5c-0.2-0.4-0.7-0.6-1.5-0.6c-0.4,0-0.8,0.1-1.2,0.2s-0.7,0.2-1,0.3l-0.3,0.2V165.5z"/>
	<path class="st0" d="M297.1,161.5v-0.9h4.9v0.9H297.1z"/>
	<path class="st0" d="M310.2,153.9v11.6h-1v-0.6c-0.8,0.5-1.7,0.8-2.6,0.8c-0.4,0-0.7,0-1-0.1c-0.3-0.1-0.6-0.3-0.9-0.5
		c-0.6-0.5-0.9-1.6-0.9-3.2s0.3-2.7,0.8-3.4s1.4-1,2.6-1c0.5,0,1.1,0.1,2,0.2v-3.6H310.2z M306.1,164.6c0.2,0.1,0.5,0.1,0.8,0.1
		s0.7-0.1,1.1-0.2c0.4-0.1,0.7-0.2,1-0.3l0.3-0.2v-5.7c-0.9-0.1-1.5-0.2-2-0.2c-0.9,0-1.5,0.3-1.9,0.8c-0.3,0.6-0.5,1.4-0.5,2.6
		c0,1.4,0.2,2.3,0.6,2.7C305.7,164.4,305.9,164.6,306.1,164.6z"/>
	<path class="st0" d="M317.9,164.7l0.5,0l0,0.8c-1.2,0.1-2.2,0.2-3.1,0.2c-1.2,0-2-0.4-2.4-1c-0.5-0.7-0.7-1.7-0.7-3.1
		c0-2.8,1.1-4.2,3.3-4.2c1.1,0,1.8,0.3,2.4,0.9s0.8,1.6,0.8,2.9l0,0.8h-5.4c0,1,0.2,1.7,0.5,2.2s0.9,0.7,1.7,0.7
		C316.3,164.8,317.1,164.7,317.9,164.7z M313.3,161.1h4.5c0-1.1-0.2-1.8-0.5-2.3c-0.3-0.4-0.9-0.7-1.7-0.7s-1.3,0.2-1.7,0.7
		S313.3,160,313.3,161.1z"/>
	<path class="st0" d="M320.7,169.1v-11.6h0.9v0.6c0.8-0.5,1.7-0.8,2.6-0.8s1.6,0.3,2.1,1c0.5,0.7,0.7,1.7,0.7,3.2s-0.3,2.5-0.8,3.2
		c-0.5,0.7-1.4,1-2.7,1c-0.7,0-1.3-0.1-1.9-0.2v3.6H320.7z M324.1,158.2c-0.4,0-0.7,0.1-1.1,0.2s-0.7,0.2-0.9,0.4l-0.4,0.2v5.7
		c0.7,0.1,1.4,0.2,1.9,0.2c0.9,0,1.6-0.3,1.9-0.8c0.4-0.5,0.6-1.4,0.6-2.6c0-1.2-0.2-2-0.5-2.5S324.7,158.2,324.1,158.2z"/>
	<path class="st0" d="M333,158.3h-2.7v4c0,1,0.1,1.7,0.2,2s0.5,0.5,1.1,0.5l1.5-0.1l0.1,0.8c-0.7,0.1-1.2,0.2-1.6,0.2
		c-0.8,0-1.4-0.2-1.7-0.6c-0.3-0.4-0.5-1.2-0.5-2.3v-4.4h-1.2v-0.8h1.2V155h1v2.5h2.7V158.3z"/>
	<path class="st0" d="M335.5,165.5h-0.9v-11.6h0.9v4c0.9-0.4,1.8-0.6,2.6-0.6c1.1,0,1.8,0.3,2.1,0.8s0.5,1.6,0.5,3.1v4.2h-1v-4.2
		c0-1.2-0.1-2.1-0.3-2.5c-0.2-0.4-0.7-0.6-1.5-0.6c-0.4,0-0.8,0-1.2,0.1c-0.4,0.1-0.7,0.2-1,0.3l-0.3,0.1V165.5z"/>
	<path class="st0" d="M346.8,165.5v-11.1h1v11.1H346.8z"/>
	<path class="st0" d="M351.3,165.5h-0.9v-8h0.9v0.6c0.9-0.5,1.8-0.8,2.6-0.8c1.1,0,1.8,0.3,2.1,0.8s0.5,1.6,0.5,3.1v4.2h-1v-4.2
		c0-1.2-0.1-2.1-0.4-2.5c-0.2-0.4-0.7-0.6-1.5-0.6c-0.4,0-0.8,0.1-1.2,0.2s-0.7,0.2-1,0.3l-0.3,0.2V165.5z"/>
	<path class="st0" d="M361.3,158.2c-1.3,0-1.9,0.5-1.9,1.4c0,0.4,0.1,0.7,0.4,0.9s0.9,0.3,1.9,0.5c1,0.2,1.7,0.4,2.1,0.7
		c0.4,0.3,0.6,0.8,0.6,1.7c0,0.8-0.3,1.4-0.8,1.8c-0.5,0.4-1.3,0.6-2.3,0.6c-0.6,0-1.3-0.1-2.3-0.2l-0.5-0.1l0.1-0.8
		c1.2,0.2,2.1,0.3,2.8,0.3c0.6,0,1.1-0.1,1.5-0.3s0.5-0.6,0.5-1.1s-0.1-0.9-0.4-1.1c-0.3-0.2-0.9-0.3-1.9-0.5c-1-0.1-1.6-0.4-2-0.6
		c-0.4-0.3-0.6-0.8-0.6-1.6c0-0.8,0.3-1.3,0.8-1.7c0.5-0.4,1.2-0.5,2-0.5c0.6,0,1.4,0.1,2.4,0.2l0.4,0.1l0,0.8
		C362.9,158.3,362,158.2,361.3,158.2z"/>
	<path class="st0" d="M366.3,155.5v-1.2h0.9v1.2H366.3z M366.3,165.5v-8h0.9v8H366.3z"/>
	<path class="st0" d="M376.1,166.7c0,0.9-0.3,1.6-0.9,2c-0.6,0.4-1.5,0.6-2.7,0.6c-1.2,0-2.1-0.2-2.5-0.5c-0.5-0.4-0.7-1-0.7-1.9
		c0-0.4,0.1-0.8,0.3-1.1c0.2-0.3,0.5-0.6,1-0.9c-0.3-0.2-0.4-0.5-0.4-1.1c0-0.2,0.1-0.5,0.4-1l0.1-0.2c-0.9-0.4-1.3-1.2-1.3-2.4
		c0-1.8,1-2.7,2.9-2.7c0.5,0,1,0.1,1.4,0.2l0.2,0l2.3,0v0.8l-1.6,0c0.4,0.4,0.6,1,0.6,1.9s-0.2,1.5-0.7,1.9
		c-0.5,0.4-1.2,0.6-2.3,0.6c-0.3,0-0.6,0-0.8-0.1c-0.2,0.5-0.3,0.9-0.3,1c0,0.4,0.1,0.6,0.3,0.6s0.8,0.1,1.9,0.1
		c1,0,1.8,0.2,2.2,0.5C375.9,165.2,376.1,165.8,376.1,166.7z M370.3,166.7c0,0.6,0.2,1.1,0.5,1.3s0.9,0.4,1.9,0.4
		c0.9,0,1.6-0.1,2-0.4c0.4-0.3,0.6-0.7,0.6-1.3s-0.1-1-0.4-1.2c-0.3-0.2-0.8-0.3-1.6-0.3l-1.8-0.1c-0.4,0.3-0.7,0.5-0.8,0.7
		C370.3,166.1,370.3,166.4,370.3,166.7z M370.4,160c0,0.7,0.1,1.2,0.4,1.5c0.3,0.3,0.8,0.4,1.5,0.4c0.7,0,1.2-0.1,1.5-0.4
		c0.3-0.3,0.4-0.8,0.4-1.5c0-0.7-0.1-1.2-0.4-1.5c-0.3-0.3-0.8-0.4-1.5-0.4c-0.7,0-1.2,0.1-1.5,0.4S370.4,159.3,370.4,160z"/>
	<path class="st0" d="M378.8,165.5h-0.9v-11.6h0.9v4c0.9-0.4,1.8-0.6,2.6-0.6c1.1,0,1.8,0.3,2.1,0.8s0.5,1.6,0.5,3.1v4.2h-1v-4.2
		c0-1.2-0.1-2.1-0.3-2.5c-0.2-0.4-0.7-0.6-1.5-0.6c-0.4,0-0.8,0-1.2,0.1s-0.7,0.2-1,0.3l-0.3,0.1V165.5z"/>
	<path class="st0" d="M390.3,158.3h-2.7v4c0,1,0.1,1.7,0.2,2s0.5,0.5,1.1,0.5l1.5-0.1l0.1,0.8c-0.7,0.1-1.2,0.2-1.6,0.2
		c-0.8,0-1.4-0.2-1.7-0.6c-0.3-0.4-0.5-1.2-0.5-2.3v-4.4h-1.2v-0.8h1.2V155h1v2.5h2.7V158.3z"/>
	<path class="st0" d="M396.5,161.1v4.4h-1v-11.1h4.1c1.2,0,2,0.3,2.6,0.8s0.9,1.4,0.9,2.5c0,1.8-0.7,2.9-2.1,3.2l2.3,4.6h-1.1
		l-2.2-4.4H396.5z M402.1,157.7c0-0.8-0.2-1.4-0.6-1.8c-0.4-0.4-1-0.6-1.8-0.6h-3.1v5h3.1C401.2,160.2,402.1,159.4,402.1,157.7z"/>
	<path class="st0" d="M410.3,164.7l0.5,0l0,0.8c-1.2,0.1-2.2,0.2-3.1,0.2c-1.2,0-2-0.4-2.4-1c-0.5-0.7-0.7-1.7-0.7-3.1
		c0-2.8,1.1-4.2,3.3-4.2c1.1,0,1.8,0.3,2.4,0.9s0.8,1.6,0.8,2.9l0,0.8h-5.4c0,1,0.2,1.7,0.5,2.2s0.9,0.7,1.7,0.7
		C408.7,164.8,409.5,164.7,410.3,164.7z M405.7,161.1h4.5c0-1.1-0.2-1.8-0.5-2.3c-0.3-0.4-0.9-0.7-1.7-0.7s-1.3,0.2-1.7,0.7
		S405.7,160,405.7,161.1z"/>
	<path class="st0" d="M413.1,169.1v-11.6h0.9v0.6c0.8-0.5,1.7-0.8,2.6-0.8s1.6,0.3,2.1,1c0.5,0.7,0.7,1.7,0.7,3.2s-0.3,2.5-0.8,3.2
		c-0.5,0.7-1.4,1-2.7,1c-0.7,0-1.3-0.1-1.9-0.2v3.6H413.1z M416.5,158.2c-0.4,0-0.7,0.1-1.1,0.2s-0.7,0.2-0.9,0.4l-0.4,0.2v5.7
		c0.7,0.1,1.4,0.2,1.9,0.2c0.9,0,1.6-0.3,1.9-0.8c0.4-0.5,0.6-1.4,0.6-2.6c0-1.2-0.2-2-0.5-2.5S417.1,158.2,416.5,158.2z"/>
	<path class="st0" d="M421.1,161.5c0-1.5,0.3-2.6,0.8-3.2c0.5-0.6,1.4-0.9,2.6-0.9c1.2,0,2.1,0.3,2.6,0.9c0.5,0.6,0.8,1.7,0.8,3.2
		s-0.2,2.6-0.7,3.2c-0.5,0.6-1.3,1-2.6,1c-1.3,0-2.2-0.3-2.7-1C421.4,164,421.1,163,421.1,161.5z M422.1,161.4
		c0,1.3,0.1,2.1,0.4,2.6c0.3,0.5,0.9,0.7,1.9,0.7c1,0,1.6-0.2,1.9-0.7c0.3-0.5,0.4-1.4,0.4-2.6c0-1.3-0.2-2.1-0.5-2.6
		s-1-0.7-1.9-0.7c-0.9,0-1.5,0.2-1.9,0.7C422.3,159.3,422.1,160.2,422.1,161.4z"/>
	<path class="st0" d="M429.9,165.5v-8h0.9v1.2c0.4-0.3,0.9-0.5,1.4-0.8c0.6-0.3,1.1-0.4,1.6-0.5v1c-0.5,0.1-0.9,0.2-1.4,0.4
		c-0.5,0.2-0.9,0.4-1.2,0.5l-0.4,0.2v6H429.9z"/>
	<path class="st0" d="M439.4,158.3h-2.7v4c0,1,0.1,1.7,0.2,2s0.5,0.5,1.1,0.5l1.5-0.1l0.1,0.8c-0.7,0.1-1.2,0.2-1.6,0.2
		c-0.8,0-1.4-0.2-1.7-0.6c-0.3-0.4-0.5-1.2-0.5-2.3v-4.4h-1.2v-0.8h1.2V155h1v2.5h2.7V158.3z"/>
</g>
<g class="st2">
	<path class="st0" d="M140.8,229.4h2.2l-3.1,12.7h-4.1l-3.1-12.7h2.2l2.5,10.9h0.9L140.8,229.4z"/>
	<path class="st0" d="M144.2,236.5v-2.7h2.2v2.7H144.2z M144.2,242.1v-2.7h2.2v2.7H144.2z"/>
</g>
<g class="st2">
	<path class="st0" d="M64.7,255.7c-1.7,0-2.6,0.7-2.6,2c0,0.8,0.2,1.3,0.6,1.6c0.4,0.3,1.2,0.5,2.3,0.7c1.1,0.2,1.9,0.5,2.4,0.9
		c0.5,0.4,0.7,1.1,0.7,2c0,1.2-0.3,2.1-0.9,2.6c-0.6,0.5-1.5,0.8-2.6,0.8c-0.8,0-1.8-0.1-2.9-0.2l-0.6-0.1l0.1-0.8
		c1.5,0.2,2.6,0.3,3.4,0.3c0.8,0,1.4-0.2,1.8-0.6s0.6-1,0.6-1.7s-0.2-1.3-0.6-1.5c-0.4-0.3-1-0.5-1.8-0.6c-0.8-0.1-1.4-0.3-1.8-0.4
		c-0.4-0.1-0.7-0.3-1-0.5c-0.3-0.2-0.6-0.5-0.7-0.9s-0.2-0.8-0.2-1.4c0-1.9,1.2-2.9,3.5-2.9c0.7,0,1.6,0.1,2.8,0.2l0.5,0.1l-0.1,0.8
		C66.3,255.8,65.3,255.7,64.7,255.7z"/>
	<path class="st0" d="M74,259h-2.7v4c0,1,0.1,1.7,0.2,2s0.5,0.5,1.1,0.5l1.5-0.1l0.1,0.8c-0.7,0.1-1.2,0.2-1.6,0.2
		c-0.8,0-1.4-0.2-1.7-0.6c-0.3-0.4-0.5-1.2-0.5-2.3V259h-1.2v-0.8h1.2v-2.5h1v2.5H74V259z"/>
	<path class="st0" d="M75.5,266.1v-8h0.9v1.2c0.4-0.3,0.9-0.5,1.4-0.8c0.6-0.3,1.1-0.4,1.6-0.5v1c-0.5,0.1-0.9,0.2-1.4,0.4
		s-0.9,0.4-1.2,0.5l-0.4,0.2v6H75.5z"/>
	<path class="st0" d="M86.4,260.5v4.3c0,0.4,0.4,0.6,1,0.7l0,0.8c-0.8,0-1.4-0.2-1.8-0.6c-1,0.4-2,0.7-3,0.7c-0.7,0-1.3-0.2-1.6-0.6
		c-0.4-0.4-0.6-1-0.6-1.8s0.2-1.3,0.6-1.7s1-0.6,1.8-0.7l2.7-0.3v-0.8c0-0.6-0.1-1-0.4-1.3c-0.3-0.3-0.6-0.4-1-0.4
		c-0.7,0-1.6,0.1-2.7,0.2l-0.5,0l0-0.8c1.2-0.2,2.2-0.3,3.1-0.3c0.9,0,1.5,0.2,1.9,0.6S86.4,259.7,86.4,260.5z M81.4,263.9
		c0,1.1,0.4,1.6,1.3,1.6c0.4,0,0.8,0,1.3-0.1s0.8-0.2,1.1-0.3l0.4-0.1V262l-2.6,0.3c-0.5,0-0.9,0.2-1.1,0.4
		C81.5,263,81.4,263.4,81.4,263.9z"/>
	<path class="st0" d="M93,259h-2.7v4c0,1,0.1,1.7,0.2,2s0.5,0.5,1.1,0.5l1.5-0.1l0.1,0.8c-0.7,0.1-1.2,0.2-1.6,0.2
		c-0.8,0-1.4-0.2-1.7-0.6c-0.3-0.4-0.5-1.2-0.5-2.3V259h-1.2v-0.8h1.2v-2.5h1v2.5H93V259z"/>
	<path class="st0" d="M99.8,265.3l0.5,0l0,0.8c-1.2,0.1-2.2,0.2-3.1,0.2c-1.2,0-2-0.4-2.4-1c-0.5-0.7-0.7-1.7-0.7-3.1
		c0-2.8,1.1-4.2,3.3-4.2c1.1,0,1.8,0.3,2.4,0.9c0.5,0.6,0.8,1.6,0.8,2.9l0,0.8h-5.4c0,1,0.2,1.7,0.5,2.2s0.9,0.7,1.7,0.7
		S99,265.4,99.8,265.3z M95.1,261.7h4.5c0-1.1-0.2-1.8-0.5-2.3c-0.3-0.4-0.9-0.7-1.7-0.7s-1.3,0.2-1.7,0.7S95.1,260.7,95.1,261.7z"
		/>
	<path class="st0" d="M109,267.3c0,0.9-0.3,1.6-0.9,2c-0.6,0.4-1.5,0.6-2.7,0.6c-1.2,0-2.1-0.2-2.5-0.5c-0.5-0.4-0.7-1-0.7-1.9
		c0-0.4,0.1-0.8,0.3-1.1c0.2-0.3,0.5-0.6,1-0.9c-0.3-0.2-0.4-0.5-0.4-1.1c0-0.2,0.1-0.5,0.4-1l0.1-0.2c-0.9-0.4-1.3-1.2-1.3-2.4
		c0-1.8,1-2.7,2.9-2.7c0.5,0,1,0.1,1.4,0.2l0.2,0l2.3,0v0.8l-1.6,0c0.4,0.4,0.6,1,0.6,1.9s-0.2,1.5-0.7,1.9
		c-0.5,0.4-1.3,0.6-2.3,0.6c-0.3,0-0.6,0-0.8-0.1c-0.2,0.5-0.3,0.9-0.3,1c0,0.4,0.1,0.6,0.3,0.6s0.8,0.1,1.9,0.1
		c1,0,1.8,0.2,2.2,0.5C108.8,265.8,109,266.4,109,267.3z M103.1,267.4c0,0.6,0.2,1.1,0.5,1.3c0.3,0.2,0.9,0.4,1.9,0.4
		c0.9,0,1.6-0.1,2-0.4c0.4-0.3,0.6-0.7,0.6-1.3s-0.1-1-0.4-1.2c-0.3-0.2-0.8-0.3-1.6-0.3l-1.8-0.1c-0.4,0.3-0.7,0.5-0.8,0.7
		C103.2,266.8,103.1,267.1,103.1,267.4z M103.3,260.7c0,0.7,0.1,1.2,0.4,1.5c0.3,0.3,0.8,0.4,1.5,0.4s1.2-0.1,1.5-0.4
		c0.3-0.3,0.4-0.8,0.4-1.5c0-0.7-0.1-1.2-0.4-1.5c-0.3-0.3-0.8-0.4-1.5-0.4s-1.2,0.1-1.5,0.4C103.4,259.5,103.3,260,103.3,260.7z"/>
	<path class="st0" d="M110.7,256.1v-1.2h0.9v1.2H110.7z M110.7,266.1v-8h0.9v8H110.7z"/>
	<path class="st0" d="M117,258c0.5,0,1.1,0.1,1.7,0.2l0.4,0l0,0.8c-0.8-0.1-1.5-0.2-1.9-0.2c-0.9,0-1.6,0.2-2,0.7
		c-0.4,0.5-0.5,1.3-0.5,2.6c0,1.2,0.2,2.1,0.5,2.6c0.3,0.5,1,0.7,2,0.7l1.9-0.1l0,0.8c-0.9,0.1-1.7,0.2-2.1,0.2
		c-1.3,0-2.1-0.3-2.6-0.9c-0.5-0.6-0.7-1.7-0.7-3.2s0.3-2.6,0.8-3.2C115,258.3,115.8,258,117,258z"/>
	<path class="st0" d="M123.7,266.1l3.2-11.1h2.3l3.2,11.1h-1l-0.9-3.1h-5l-0.9,3.1H123.7z M127.6,255.9l-1.8,6.3h4.5l-1.8-6.3H127.6
		z"/>
	<path class="st0" d="M134,269.7v-11.6h0.9v0.6c0.8-0.5,1.7-0.8,2.6-0.8s1.6,0.3,2.1,1c0.5,0.7,0.7,1.7,0.7,3.2s-0.3,2.5-0.8,3.2
		c-0.5,0.7-1.4,1-2.7,1c-0.7,0-1.3-0.1-1.9-0.2v3.6H134z M137.3,258.8c-0.4,0-0.7,0.1-1.1,0.2s-0.7,0.2-0.9,0.4l-0.4,0.2v5.7
		c0.7,0.1,1.4,0.2,1.9,0.2c0.9,0,1.6-0.3,1.9-0.8c0.4-0.5,0.6-1.4,0.6-2.6c0-1.2-0.2-2-0.5-2.5C138.5,259.1,138,258.8,137.3,258.8z"
		/>
	<path class="st0" d="M142.3,269.7v-11.6h0.9v0.6c0.8-0.5,1.7-0.8,2.6-0.8s1.6,0.3,2.1,1c0.5,0.7,0.7,1.7,0.7,3.2s-0.3,2.5-0.8,3.2
		c-0.5,0.7-1.4,1-2.7,1c-0.7,0-1.3-0.1-1.9-0.2v3.6H142.3z M145.7,258.8c-0.4,0-0.7,0.1-1.1,0.2s-0.7,0.2-0.9,0.4l-0.4,0.2v5.7
		c0.7,0.1,1.4,0.2,1.9,0.2c0.9,0,1.6-0.3,1.9-0.8c0.4-0.5,0.6-1.4,0.6-2.6c0-1.2-0.2-2-0.5-2.5C146.9,259.1,146.4,258.8,145.7,258.8
		z"/>
	<path class="st0" d="M150.7,266.1v-8h0.9v1.2c0.4-0.3,0.9-0.5,1.4-0.8c0.6-0.3,1.1-0.4,1.6-0.5v1c-0.5,0.1-0.9,0.2-1.4,0.4
		s-0.9,0.4-1.2,0.5l-0.4,0.2v6H150.7z"/>
	<path class="st0" d="M155.6,262.1c0-1.5,0.3-2.6,0.8-3.2c0.5-0.6,1.4-0.9,2.6-0.9s2.1,0.3,2.6,0.9c0.5,0.6,0.8,1.7,0.8,3.2
		s-0.2,2.6-0.7,3.2c-0.5,0.6-1.3,1-2.6,1c-1.3,0-2.2-0.3-2.7-1C155.8,264.7,155.6,263.6,155.6,262.1z M156.6,262.1
		c0,1.3,0.1,2.1,0.4,2.6s0.9,0.7,1.9,0.7c1,0,1.6-0.2,1.9-0.7c0.3-0.5,0.4-1.4,0.4-2.6c0-1.3-0.2-2.1-0.5-2.6s-1-0.7-1.9-0.7
		c-0.9,0-1.5,0.2-1.9,0.7C156.7,260,156.6,260.8,156.6,262.1z"/>
	<path class="st0" d="M169.9,260.5v4.3c0,0.4,0.4,0.6,1,0.7l0,0.8c-0.8,0-1.4-0.2-1.8-0.6c-1,0.4-2,0.7-3,0.7
		c-0.7,0-1.3-0.2-1.6-0.6c-0.4-0.4-0.6-1-0.6-1.8s0.2-1.3,0.6-1.7s1-0.6,1.8-0.7l2.7-0.3v-0.8c0-0.6-0.1-1-0.4-1.3
		c-0.3-0.3-0.6-0.4-1-0.4c-0.7,0-1.6,0.1-2.7,0.2l-0.5,0l0-0.8c1.2-0.2,2.2-0.3,3.1-0.3c0.9,0,1.5,0.2,1.9,0.6
		S169.9,259.7,169.9,260.5z M164.8,263.9c0,1.1,0.4,1.6,1.3,1.6c0.4,0,0.8,0,1.3-0.1s0.8-0.2,1.1-0.3l0.4-0.1V262l-2.6,0.3
		c-0.5,0-0.9,0.2-1.1,0.4C165,263,164.8,263.4,164.8,263.9z"/>
	<path class="st0" d="M175.3,258c0.5,0,1.1,0.1,1.7,0.2l0.4,0l0,0.8c-0.8-0.1-1.5-0.2-1.9-0.2c-0.9,0-1.6,0.2-2,0.7
		c-0.4,0.5-0.5,1.3-0.5,2.6c0,1.2,0.2,2.1,0.5,2.6c0.3,0.5,1,0.7,2,0.7l1.9-0.1l0,0.8c-0.9,0.1-1.7,0.2-2.1,0.2
		c-1.3,0-2.1-0.3-2.6-0.9c-0.5-0.6-0.7-1.7-0.7-3.2s0.3-2.6,0.8-3.2C173.3,258.3,174.1,258,175.3,258z"/>
	<path class="st0" d="M180.2,266.1h-0.9v-11.6h0.9v4c0.9-0.4,1.8-0.6,2.6-0.6c1.1,0,1.8,0.3,2.1,0.8s0.5,1.6,0.5,3.1v4.2h-1V262
		c0-1.2-0.1-2.1-0.3-2.5c-0.2-0.4-0.7-0.6-1.5-0.6c-0.4,0-0.8,0-1.2,0.1c-0.4,0.1-0.7,0.2-1,0.3l-0.3,0.1V266.1z"/>
	<path class="st0" d="M195.6,266.1h-4V255h4c2.6,0,4,1.8,4,5.4C199.5,264.2,198.2,266.1,195.6,266.1z M198.5,260.4
		c0-3-1-4.5-2.9-4.5h-3.1v9.3h3.1C197.5,265.3,198.5,263.6,198.5,260.4z"/>
	<path class="st0" d="M206.9,265.3l0.5,0l0,0.8c-1.2,0.1-2.2,0.2-3.1,0.2c-1.2,0-2-0.4-2.4-1c-0.5-0.7-0.7-1.7-0.7-3.1
		c0-2.8,1.1-4.2,3.3-4.2c1.1,0,1.8,0.3,2.4,0.9c0.5,0.6,0.8,1.6,0.8,2.9l0,0.8h-5.4c0,1,0.2,1.7,0.5,2.2s0.9,0.7,1.7,0.7
		S206.1,265.4,206.9,265.3z M202.3,261.7h4.5c0-1.1-0.2-1.8-0.5-2.3c-0.3-0.4-0.9-0.7-1.7-0.7s-1.3,0.2-1.7,0.7
		S202.3,260.7,202.3,261.7z"/>
	<path class="st0" d="M208.8,258.1h1.1l2,7.2h0.6l2.1-7.2h1l-2.3,8h-2.1L208.8,258.1z"/>
	<path class="st0" d="M216.5,266.1v-1.6h1.1v1.6H216.5z"/>
</g>
<g class="st2">
	<path class="st0" d="M359.7,229.4h2.2l-3.1,12.7h-4.1l-3.1-12.7h2.2l2.5,10.9h0.9L359.7,229.4z"/>
	<path class="st0" d="M363.7,242.1v-12.7h2.1v12.7H363.7z"/>
	<path class="st0" d="M368.4,236.5v-2.7h2.2v2.7H368.4z M368.4,242.1v-2.7h2.2v2.7H368.4z"/>
</g>
<g class="st2">
	<path class="st0" d="M304,266.1V255h1v11.1H304z"/>
	<path class="st0" d="M308.5,266.1h-0.9v-8h0.9v0.6c0.9-0.5,1.8-0.8,2.6-0.8c1.1,0,1.8,0.3,2.1,0.8c0.4,0.6,0.5,1.6,0.5,3.1v4.2h-1
		V262c0-1.2-0.1-2.1-0.4-2.5c-0.2-0.4-0.7-0.6-1.5-0.6c-0.4,0-0.8,0.1-1.2,0.2c-0.4,0.1-0.7,0.2-1,0.3l-0.3,0.2V266.1z"/>
	<path class="st0" d="M316.1,262.1v-0.9h4.9v0.9H316.1z"/>
	<path class="st0" d="M324.3,259v7.2h-1V259h-1v-0.8h1v-0.8c0-1.1,0.2-1.9,0.5-2.3c0.3-0.4,0.9-0.6,1.6-0.6l1.6,0.1v0.8
		c-0.6,0-1.1,0-1.4,0c-0.5,0-0.8,0.1-1,0.4c-0.2,0.3-0.3,0.8-0.3,1.6v0.8h2.4v0.8H324.3z"/>
	<path class="st0" d="M328.2,256.1v-1.2h0.9v1.2H328.2z M328.2,266.1v-8h0.9v8H328.2z"/>
	<path class="st0" d="M336.9,265.3l0.5,0l0,0.8c-1.2,0.1-2.2,0.2-3.1,0.2c-1.2,0-2-0.4-2.4-1c-0.5-0.7-0.7-1.7-0.7-3.1
		c0-2.8,1.1-4.2,3.3-4.2c1.1,0,1.8,0.3,2.4,0.9s0.8,1.6,0.8,2.9l0,0.8h-5.4c0,1,0.2,1.7,0.5,2.2s0.9,0.7,1.7,0.7
		C335.2,265.4,336.1,265.4,336.9,265.3z M332.2,261.7h4.5c0-1.1-0.2-1.8-0.5-2.3c-0.3-0.4-0.9-0.7-1.7-0.7s-1.3,0.2-1.7,0.7
		S332.2,260.7,332.2,261.7z"/>
	<path class="st0" d="M339.7,266.1v-11.6h0.9v11.6H339.7z"/>
	<path class="st0" d="M349.2,254.6v11.6h-1v-0.6c-0.8,0.5-1.7,0.8-2.6,0.8c-0.4,0-0.7,0-1-0.1c-0.3-0.1-0.6-0.3-0.9-0.5
		c-0.6-0.5-0.9-1.6-0.9-3.2s0.3-2.7,0.8-3.4c0.5-0.7,1.4-1,2.6-1c0.5,0,1.1,0.1,2,0.2v-3.6H349.2z M345,265.3
		c0.2,0.1,0.5,0.1,0.8,0.1c0.3,0,0.7-0.1,1.1-0.2c0.4-0.1,0.7-0.2,1-0.3l0.3-0.2V259c-0.9-0.1-1.5-0.2-2-0.2c-0.9,0-1.5,0.3-1.9,0.8
		c-0.3,0.6-0.5,1.4-0.5,2.6c0,1.4,0.2,2.3,0.6,2.7C344.6,265.1,344.8,265.2,345,265.3z"/>
	<path class="st0" d="M361.7,255h1l-3,11.1h-2.4l-3-11.1h1l2.7,10.2h0.9L361.7,255z"/>
	<path class="st0" d="M369.4,260.5v4.3c0,0.4,0.4,0.6,1,0.7l0,0.8c-0.8,0-1.4-0.2-1.8-0.6c-1,0.4-2,0.7-3,0.7
		c-0.7,0-1.3-0.2-1.6-0.6c-0.4-0.4-0.6-1-0.6-1.8s0.2-1.3,0.6-1.7c0.4-0.4,1-0.6,1.8-0.7l2.7-0.3v-0.8c0-0.6-0.1-1-0.4-1.3
		c-0.3-0.3-0.6-0.4-1-0.4c-0.7,0-1.6,0.1-2.7,0.2l-0.5,0l0-0.8c1.2-0.2,2.2-0.3,3.1-0.3c0.9,0,1.5,0.2,1.9,0.6
		S369.4,259.7,369.4,260.5z M364.3,263.9c0,1.1,0.4,1.6,1.3,1.6c0.4,0,0.8,0,1.3-0.1c0.5-0.1,0.8-0.2,1.1-0.3l0.4-0.1V262l-2.6,0.3
		c-0.5,0-0.9,0.2-1.1,0.4C364.4,263,364.3,263.4,364.3,263.9z"/>
	<path class="st0" d="M371.9,266.1v-11.6h0.9v11.6H371.9z"/>
	<path class="st0" d="M375.4,256.1v-1.2h0.9v1.2H375.4z M375.4,266.1v-8h0.9v8H375.4z"/>
	<path class="st0" d="M384.7,254.6v11.6h-1v-0.6c-0.8,0.5-1.7,0.8-2.6,0.8c-0.4,0-0.7,0-1-0.1c-0.3-0.1-0.6-0.3-0.9-0.5
		c-0.6-0.5-0.9-1.6-0.9-3.2s0.3-2.7,0.8-3.4c0.5-0.7,1.4-1,2.6-1c0.5,0,1.1,0.1,2,0.2v-3.6H384.7z M380.6,265.3
		c0.2,0.1,0.5,0.1,0.8,0.1c0.3,0,0.7-0.1,1.1-0.2c0.4-0.1,0.7-0.2,1-0.3l0.3-0.2V259c-0.9-0.1-1.5-0.2-2-0.2c-0.9,0-1.5,0.3-1.9,0.8
		c-0.3,0.6-0.5,1.4-0.5,2.6c0,1.4,0.2,2.3,0.6,2.7C380.2,265.1,380.4,265.2,380.6,265.3z"/>
	<path class="st0" d="M392.6,260.5v4.3c0,0.4,0.4,0.6,1,0.7l0,0.8c-0.8,0-1.4-0.2-1.8-0.6c-1,0.4-2,0.7-3,0.7
		c-0.7,0-1.3-0.2-1.6-0.6c-0.4-0.4-0.6-1-0.6-1.8s0.2-1.3,0.6-1.7c0.4-0.4,1-0.6,1.8-0.7l2.7-0.3v-0.8c0-0.6-0.1-1-0.4-1.3
		c-0.3-0.3-0.6-0.4-1-0.4c-0.7,0-1.6,0.1-2.7,0.2l-0.5,0l0-0.8c1.2-0.2,2.2-0.3,3.1-0.3c0.9,0,1.5,0.2,1.9,0.6
		S392.6,259.7,392.6,260.5z M387.6,263.9c0,1.1,0.4,1.6,1.3,1.6c0.4,0,0.8,0,1.3-0.1c0.5-0.1,0.8-0.2,1.1-0.3l0.4-0.1V262l-2.6,0.3
		c-0.5,0-0.9,0.2-1.1,0.4C387.7,263,387.6,263.4,387.6,263.9z"/>
	<path class="st0" d="M399.1,259h-2.7v4c0,1,0.1,1.7,0.2,2s0.5,0.5,1.1,0.5l1.5-0.1l0.1,0.8c-0.7,0.1-1.2,0.2-1.6,0.2
		c-0.8,0-1.4-0.2-1.7-0.6c-0.3-0.4-0.5-1.2-0.5-2.3V259h-1.2v-0.8h1.2v-2.5h1v2.5h2.7V259z"/>
	<path class="st0" d="M400.6,256.1v-1.2h0.9v1.2H400.6z M400.6,266.1v-8h0.9v8H400.6z"/>
	<path class="st0" d="M403.6,262.1c0-1.5,0.3-2.6,0.8-3.2c0.5-0.6,1.4-0.9,2.6-0.9c1.2,0,2.1,0.3,2.6,0.9c0.5,0.6,0.8,1.7,0.8,3.2
		s-0.2,2.6-0.7,3.2c-0.5,0.6-1.3,1-2.6,1s-2.2-0.3-2.7-1C403.9,264.7,403.6,263.6,403.6,262.1z M404.6,262.1c0,1.3,0.1,2.1,0.4,2.6
		c0.3,0.5,0.9,0.7,1.9,0.7s1.6-0.2,1.9-0.7s0.4-1.4,0.4-2.6c0-1.3-0.2-2.1-0.5-2.6s-1-0.7-1.9-0.7s-1.5,0.2-1.9,0.7
		C404.8,260,404.6,260.8,404.6,262.1z"/>
	<path class="st0" d="M413.3,266.1h-0.9v-8h0.9v0.6c0.9-0.5,1.8-0.8,2.6-0.8c1.1,0,1.8,0.3,2.1,0.8s0.5,1.6,0.5,3.1v4.2h-1V262
		c0-1.2-0.1-2.1-0.4-2.5c-0.2-0.4-0.7-0.6-1.5-0.6c-0.4,0-0.8,0.1-1.2,0.2s-0.7,0.2-1,0.3l-0.3,0.2V266.1z"/>
</g>
<g class="st2">
	<path class="st0" d="M135.8,329.9h2.2l-3.1,12.7h-4.1l-3.1-12.7h2.2l2.5,10.9h0.9L135.8,329.9z"/>
	<path class="st0" d="M139.8,342.7v-12.7h2.1v12.7H139.8z"/>
	<path class="st0" d="M144.8,342.7v-12.7h2.1v12.7H144.8z"/>
	<path class="st0" d="M149.4,337v-2.7h2.2v2.7H149.4z M149.4,342.7V340h2.2v2.7H149.4z"/>
</g>
<g class="st2">
	<path class="st0" d="M55.8,361.2c0,2-0.3,3.4-0.9,4.3s-1.8,1.3-3.4,1.3c-1.6,0-2.8-0.5-3.4-1.4c-0.6-0.9-0.9-2.3-0.9-4.3
		c0-2,0.3-3.4,0.9-4.4c0.6-0.9,1.8-1.4,3.4-1.4c1.6,0,2.8,0.5,3.4,1.4C55.5,357.7,55.8,359.2,55.8,361.2z M48.8,364.8
		c0.4,0.7,1.3,1.1,2.6,1.1c1.3,0,2.2-0.4,2.6-1.1c0.4-0.7,0.7-1.9,0.7-3.6s-0.2-2.9-0.7-3.7c-0.5-0.8-1.3-1.2-2.6-1.2
		c-1.3,0-2.2,0.4-2.7,1.3c-0.2,0.4-0.4,0.9-0.5,1.5c-0.1,0.6-0.1,1.3-0.1,2.1C48.1,362.9,48.4,364.1,48.8,364.8z"/>
	<path class="st0" d="M58,370.3v-11.6h0.9v0.6c0.8-0.5,1.7-0.8,2.6-0.8s1.6,0.3,2.1,1c0.5,0.7,0.7,1.7,0.7,3.2s-0.3,2.5-0.8,3.2
		c-0.5,0.7-1.4,1-2.7,1c-0.7,0-1.3-0.1-1.9-0.2v3.6H58z M61.3,359.4c-0.4,0-0.7,0.1-1.1,0.2s-0.7,0.2-0.9,0.4l-0.4,0.2v5.7
		c0.7,0.1,1.4,0.2,1.9,0.2c0.9,0,1.6-0.3,1.9-0.8c0.4-0.5,0.6-1.4,0.6-2.6c0-1.2-0.2-2-0.5-2.5C62.5,359.6,62,359.4,61.3,359.4z"/>
	<path class="st0" d="M70.3,359.5h-2.7v4c0,1,0.1,1.7,0.2,2s0.5,0.5,1.1,0.5l1.5-0.1l0.1,0.8c-0.7,0.1-1.2,0.2-1.6,0.2
		c-0.8,0-1.4-0.2-1.7-0.6c-0.3-0.4-0.5-1.2-0.5-2.3v-4.4h-1.2v-0.8h1.2v-2.5h1v2.5h2.7V359.5z"/>
	<path class="st0" d="M71.8,356.7v-1.2h0.9v1.2H71.8z M71.8,366.7v-8h0.9v8H71.8z"/>
	<path class="st0" d="M76.1,366.7h-0.9v-8h0.9v0.6c0.8-0.5,1.7-0.8,2.6-0.8s1.6,0.3,2,0.8c0.4-0.2,0.9-0.4,1.4-0.6
		c0.5-0.2,1-0.2,1.5-0.2c1.1,0,1.8,0.3,2.1,0.8c0.4,0.6,0.5,1.6,0.5,3.1v4.2h-0.9v-4.2c0-1.2-0.1-2.1-0.3-2.5
		c-0.2-0.4-0.7-0.6-1.5-0.6c-0.4,0-0.8,0.1-1.2,0.2s-0.7,0.2-0.9,0.3L81,360c0.2,0.4,0.2,1.2,0.2,2.5v4.2h-1v-4.1
		c0-1.2-0.1-2.1-0.3-2.5c-0.2-0.4-0.7-0.6-1.5-0.6c-0.4,0-0.8,0.1-1.1,0.2c-0.4,0.1-0.7,0.2-0.9,0.3l-0.3,0.2V366.7z"/>
	<path class="st0" d="M88.5,356.7v-1.2h0.9v1.2H88.5z M88.5,366.7v-8h0.9v8H88.5z"/>
	<path class="st0" d="M91.3,359.5v-0.9h5.9v0.9l-4.8,6.3h4.8v0.9h-5.9v-0.9l4.8-6.3H91.3z"/>
	<path class="st0" d="M104.6,361v4.3c0,0.4,0.4,0.6,1,0.7l0,0.8c-0.8,0-1.4-0.2-1.8-0.6c-1,0.4-2,0.7-3,0.7c-0.7,0-1.3-0.2-1.6-0.6
		c-0.4-0.4-0.6-1-0.6-1.8s0.2-1.3,0.6-1.7s1-0.6,1.8-0.7l2.7-0.3V361c0-0.6-0.1-1-0.4-1.3c-0.3-0.3-0.6-0.4-1-0.4
		c-0.7,0-1.6,0.1-2.7,0.2l-0.5,0l0-0.8c1.2-0.2,2.2-0.3,3.1-0.3c0.9,0,1.5,0.2,1.9,0.6S104.6,360.2,104.6,361z M99.6,364.4
		c0,1.1,0.4,1.6,1.3,1.6c0.4,0,0.8,0,1.3-0.1s0.8-0.2,1.1-0.3l0.4-0.1v-2.9l-2.6,0.3c-0.5,0-0.9,0.2-1.1,0.4
		C99.7,363.5,99.6,363.9,99.6,364.4z"/>
	<path class="st0" d="M111.2,359.5h-2.7v4c0,1,0.1,1.7,0.2,2s0.5,0.5,1.1,0.5l1.5-0.1l0.1,0.8c-0.7,0.1-1.2,0.2-1.6,0.2
		c-0.8,0-1.4-0.2-1.7-0.6c-0.3-0.4-0.5-1.2-0.5-2.3v-4.4h-1.2v-0.8h1.2v-2.5h1v2.5h2.7V359.5z"/>
	<path class="st0" d="M112.7,356.7v-1.2h0.9v1.2H112.7z M112.7,366.7v-8h0.9v8H112.7z"/>
	<path class="st0" d="M115.7,362.6c0-1.5,0.3-2.6,0.8-3.2c0.5-0.6,1.4-0.9,2.6-0.9s2.1,0.3,2.6,0.9c0.5,0.6,0.8,1.7,0.8,3.2
		s-0.2,2.6-0.7,3.2c-0.5,0.6-1.3,1-2.6,1c-1.3,0-2.2-0.3-2.7-1C115.9,365.2,115.7,364.2,115.7,362.6z M116.7,362.6
		c0,1.3,0.1,2.1,0.4,2.6s0.9,0.7,1.9,0.7c1,0,1.6-0.2,1.9-0.7c0.3-0.5,0.4-1.4,0.4-2.6c0-1.3-0.2-2.1-0.5-2.6s-1-0.7-1.9-0.7
		c-0.9,0-1.5,0.2-1.9,0.7C116.8,360.5,116.7,361.4,116.7,362.6z"/>
</g>
<g class="st2">
	<path class="st0" d="M125.4,366.7h-0.9v-8h0.9v0.6c0.9-0.5,1.8-0.8,2.6-0.8c1.1,0,1.8,0.3,2.1,0.8c0.4,0.6,0.5,1.6,0.5,3.1v4.2h-1
		v-4.2c0-1.2-0.1-2.1-0.4-2.5c-0.2-0.4-0.7-0.6-1.5-0.6c-0.4,0-0.8,0.1-1.2,0.2c-0.4,0.1-0.7,0.2-1,0.3l-0.3,0.2V366.7z"/>
	<path class="st0" d="M133.3,366.5l4.5-11.1l0.9,0.3l-4.5,11.1L133.3,366.5z"/>
</g>
<g class="st2">
	<path class="st0" d="M145.8,356.2c-1.7,0-2.6,0.7-2.6,2c0,0.8,0.2,1.3,0.6,1.6c0.4,0.3,1.2,0.5,2.3,0.7c1.1,0.2,1.9,0.5,2.4,0.9
		c0.5,0.4,0.7,1.1,0.7,2c0,1.2-0.3,2.1-0.9,2.6c-0.6,0.5-1.5,0.8-2.6,0.8c-0.8,0-1.8-0.1-2.9-0.2l-0.6-0.1l0.1-0.8
		c1.5,0.2,2.6,0.3,3.4,0.3c0.8,0,1.4-0.2,1.8-0.6s0.6-1,0.6-1.7s-0.2-1.3-0.6-1.5c-0.4-0.3-1-0.5-1.8-0.6c-0.8-0.1-1.4-0.3-1.8-0.4
		c-0.4-0.1-0.7-0.3-1-0.5c-0.3-0.2-0.6-0.5-0.7-0.9s-0.2-0.8-0.2-1.4c0-1.9,1.2-2.9,3.5-2.9c0.7,0,1.6,0.1,2.8,0.2l0.5,0.1l-0.1,0.8
		C147.4,356.3,146.4,356.2,145.8,356.2z"/>
	<path class="st0" d="M155.1,359.5h-2.7v4c0,1,0.1,1.7,0.2,2s0.5,0.5,1.1,0.5l1.5-0.1l0.1,0.8c-0.7,0.1-1.2,0.2-1.6,0.2
		c-0.8,0-1.4-0.2-1.7-0.6c-0.3-0.4-0.5-1.2-0.5-2.3v-4.4h-1.2v-0.8h1.2v-2.5h1v2.5h2.7V359.5z"/>
	<path class="st0" d="M156.6,366.7v-8h0.9v1.2c0.4-0.3,0.9-0.5,1.4-0.8c0.6-0.3,1.1-0.4,1.6-0.5v1c-0.5,0.1-0.9,0.2-1.4,0.4
		s-0.9,0.4-1.2,0.5l-0.4,0.2v6H156.6z"/>
	<path class="st0" d="M167.5,361v4.3c0,0.4,0.4,0.6,1,0.7l0,0.8c-0.8,0-1.4-0.2-1.8-0.6c-1,0.4-2,0.7-3,0.7c-0.7,0-1.3-0.2-1.6-0.6
		c-0.4-0.4-0.6-1-0.6-1.8s0.2-1.3,0.6-1.7s1-0.6,1.8-0.7l2.7-0.3V361c0-0.6-0.1-1-0.4-1.3c-0.3-0.3-0.6-0.4-1-0.4
		c-0.7,0-1.6,0.1-2.7,0.2l-0.5,0l0-0.8c1.2-0.2,2.2-0.3,3.1-0.3c0.9,0,1.5,0.2,1.9,0.6S167.5,360.2,167.5,361z M162.5,364.4
		c0,1.1,0.4,1.6,1.3,1.6c0.4,0,0.8,0,1.3-0.1s0.8-0.2,1.1-0.3l0.4-0.1v-2.9l-2.6,0.3c-0.5,0-0.9,0.2-1.1,0.4
		C162.6,363.5,162.5,363.9,162.5,364.4z"/>
	<path class="st0" d="M174.1,359.5h-2.7v4c0,1,0.1,1.7,0.2,2s0.5,0.5,1.1,0.5l1.5-0.1l0.1,0.8c-0.7,0.1-1.2,0.2-1.6,0.2
		c-0.8,0-1.4-0.2-1.7-0.6c-0.3-0.4-0.5-1.2-0.5-2.3v-4.4h-1.2v-0.8h1.2v-2.5h1v2.5h2.7V359.5z"/>
	<path class="st0" d="M180.9,365.9l0.5,0l0,0.8c-1.2,0.1-2.2,0.2-3.1,0.2c-1.2,0-2-0.4-2.4-1c-0.5-0.7-0.7-1.7-0.7-3.1
		c0-2.8,1.1-4.2,3.3-4.2c1.1,0,1.8,0.3,2.4,0.9c0.5,0.6,0.8,1.6,0.8,2.9l0,0.8h-5.4c0,1,0.2,1.7,0.5,2.2s0.9,0.7,1.7,0.7
		S180.1,365.9,180.9,365.9z M176.2,362.3h4.5c0-1.1-0.2-1.8-0.5-2.3c-0.3-0.4-0.9-0.7-1.7-0.7s-1.3,0.2-1.7,0.7
		S176.2,361.2,176.2,362.3z"/>
	<path class="st0" d="M190.1,367.9c0,0.9-0.3,1.6-0.9,2c-0.6,0.4-1.5,0.6-2.7,0.6c-1.2,0-2.1-0.2-2.5-0.5c-0.5-0.4-0.7-1-0.7-1.9
		c0-0.4,0.1-0.8,0.3-1.1c0.2-0.3,0.5-0.6,1-0.9c-0.3-0.2-0.4-0.5-0.4-1.1c0-0.2,0.1-0.5,0.4-1l0.1-0.2c-0.9-0.4-1.3-1.2-1.3-2.4
		c0-1.8,1-2.7,2.9-2.7c0.5,0,1,0.1,1.4,0.2l0.2,0l2.3,0v0.8l-1.6,0c0.4,0.4,0.6,1,0.6,1.9s-0.2,1.5-0.7,1.9
		c-0.5,0.4-1.3,0.6-2.3,0.6c-0.3,0-0.6,0-0.8-0.1c-0.2,0.5-0.3,0.9-0.3,1c0,0.4,0.1,0.6,0.3,0.6s0.8,0.1,1.9,0.1
		c1,0,1.8,0.2,2.2,0.5C189.9,366.4,190.1,367,190.1,367.9z M184.2,367.9c0,0.6,0.2,1.1,0.5,1.3c0.3,0.2,0.9,0.4,1.9,0.4
		c0.9,0,1.6-0.1,2-0.4c0.4-0.3,0.6-0.7,0.6-1.3s-0.1-1-0.4-1.2c-0.3-0.2-0.8-0.3-1.6-0.3l-1.8-0.1c-0.4,0.3-0.7,0.5-0.8,0.7
		C184.3,367.3,184.2,367.6,184.2,367.9z M184.4,361.2c0,0.7,0.1,1.2,0.4,1.5c0.3,0.3,0.8,0.4,1.5,0.4s1.2-0.1,1.5-0.4
		c0.3-0.3,0.4-0.8,0.4-1.5c0-0.7-0.1-1.2-0.4-1.5c-0.3-0.3-0.8-0.4-1.5-0.4s-1.2,0.1-1.5,0.4C184.5,360,184.4,360.5,184.4,361.2z"/>
	<path class="st0" d="M191.8,356.7v-1.2h0.9v1.2H191.8z M191.8,366.7v-8h0.9v8H191.8z"/>
	<path class="st0" d="M198.1,358.5c0.5,0,1.1,0.1,1.7,0.2l0.4,0l0,0.8c-0.8-0.1-1.5-0.2-1.9-0.2c-0.9,0-1.6,0.2-2,0.7
		c-0.4,0.5-0.5,1.3-0.5,2.6c0,1.2,0.2,2.1,0.5,2.6c0.3,0.5,1,0.7,2,0.7l1.9-0.1l0,0.8c-0.9,0.1-1.7,0.2-2.1,0.2
		c-1.3,0-2.1-0.3-2.6-0.9c-0.5-0.6-0.7-1.7-0.7-3.2s0.3-2.6,0.8-3.2C196.1,358.8,196.9,358.5,198.1,358.5z"/>
	<path class="st0" d="M209.8,366.7h-4v-11.1h4c2.6,0,4,1.8,4,5.4C213.8,364.8,212.4,366.7,209.8,366.7z M212.7,361
		c0-3-1-4.5-2.9-4.5h-3.1v9.3h3.1C211.8,365.8,212.7,364.2,212.7,361z"/>
	<path class="st0" d="M221.2,365.9l0.5,0l0,0.8c-1.2,0.1-2.2,0.2-3.1,0.2c-1.2,0-2-0.4-2.4-1c-0.5-0.7-0.7-1.7-0.7-3.1
		c0-2.8,1.1-4.2,3.3-4.2c1.1,0,1.8,0.3,2.4,0.9c0.5,0.6,0.8,1.6,0.8,2.9l0,0.8h-5.4c0,1,0.2,1.7,0.5,2.2s0.9,0.7,1.7,0.7
		S220.4,365.9,221.2,365.9z M216.5,362.3h4.5c0-1.1-0.2-1.8-0.5-2.3c-0.3-0.4-0.9-0.7-1.7-0.7s-1.3,0.2-1.7,0.7
		S216.5,361.2,216.5,362.3z"/>
	<path class="st0" d="M223.1,358.7h1.1l2,7.2h0.6l2.1-7.2h1l-2.3,8h-2.1L223.1,358.7z"/>
	<path class="st0" d="M230.8,366.7V365h1.1v1.6H230.8z"/>
</g>
<g class="st2">
	<path class="st0" d="M354.7,329.9h2.2l-3.1,12.7h-4.1l-3.1-12.7h2.2l2.5,10.9h0.9L354.7,329.9z"/>
	<path class="st0" d="M358.7,342.7v-12.7h2.1v12.7H358.7z"/>
	<path class="st0" d="M363.7,342.7v-12.7h2.1v12.7H363.7z"/>
	<path class="st0" d="M368.7,342.7v-12.7h2.1v12.7H368.7z"/>
	<path class="st0" d="M373.4,337v-2.7h2.2v2.7H373.4z M373.4,342.7V340h2.2v2.7H373.4z"/>
</g>
<g class="st2">
	<path class="st0" d="M277.9,366.7v-11.1h6.6v0.9h-5.6v4.6h4.7v0.9h-4.7v4.8H277.9z"/>
	<path class="st0" d="M286.1,356.7v-1.2h0.9v1.2H286.1z M286.1,366.7v-8h0.9v8H286.1z"/>
	<path class="st0" d="M290.4,366.7h-0.9v-8h0.9v0.6c0.9-0.5,1.8-0.8,2.6-0.8c1.1,0,1.8,0.3,2.1,0.8s0.5,1.6,0.5,3.1v4.2h-1v-4.2
		c0-1.2-0.1-2.1-0.4-2.5c-0.2-0.4-0.7-0.6-1.5-0.6c-0.4,0-0.8,0.1-1.2,0.2s-0.7,0.2-1,0.3l-0.3,0.2V366.7z"/>
	<path class="st0" d="M303.5,361v4.3c0,0.4,0.4,0.6,1,0.7l0,0.8c-0.8,0-1.4-0.2-1.8-0.6c-1,0.4-2,0.7-3,0.7c-0.7,0-1.3-0.2-1.6-0.6
		c-0.4-0.4-0.6-1-0.6-1.8s0.2-1.3,0.6-1.7c0.4-0.4,1-0.6,1.8-0.7l2.7-0.3V361c0-0.6-0.1-1-0.4-1.3c-0.3-0.3-0.6-0.4-1-0.4
		c-0.7,0-1.6,0.1-2.7,0.2l-0.5,0l0-0.8c1.2-0.2,2.2-0.3,3.1-0.3c0.9,0,1.5,0.2,1.9,0.6S303.5,360.2,303.5,361z M298.5,364.4
		c0,1.1,0.4,1.6,1.3,1.6c0.4,0,0.8,0,1.3-0.1c0.5-0.1,0.8-0.2,1.1-0.3l0.4-0.1v-2.9l-2.6,0.3c-0.5,0-0.9,0.2-1.1,0.4
		C298.6,363.5,298.5,363.9,298.5,364.4z"/>
	<path class="st0" d="M306.1,366.7v-11.6h0.9v11.6H306.1z"/>
	<path class="st0" d="M316.2,356.2c-1.7,0-2.6,0.7-2.6,2c0,0.8,0.2,1.3,0.6,1.6c0.4,0.3,1.2,0.5,2.3,0.7c1.1,0.2,1.9,0.5,2.4,0.9
		c0.5,0.4,0.7,1.1,0.7,2c0,1.2-0.3,2.1-0.9,2.6s-1.5,0.8-2.6,0.8c-0.8,0-1.8-0.1-2.9-0.2l-0.6-0.1l0.1-0.8c1.5,0.2,2.6,0.3,3.4,0.3
		c0.8,0,1.4-0.2,1.8-0.6s0.6-1,0.6-1.7s-0.2-1.3-0.6-1.5s-1-0.5-1.8-0.6c-0.8-0.1-1.4-0.3-1.8-0.4c-0.4-0.1-0.7-0.3-1-0.5
		c-0.3-0.2-0.6-0.5-0.7-0.9s-0.2-0.8-0.2-1.4c0-1.9,1.2-2.9,3.5-2.9c0.7,0,1.6,0.1,2.8,0.2l0.5,0.1l-0.1,0.8
		C317.9,356.3,316.8,356.2,316.2,356.2z"/>
	<path class="st0" d="M325.6,359.5h-2.7v4c0,1,0.1,1.7,0.2,2s0.5,0.5,1.1,0.5l1.5-0.1l0.1,0.8c-0.7,0.1-1.2,0.2-1.6,0.2
		c-0.8,0-1.4-0.2-1.7-0.6c-0.3-0.4-0.5-1.2-0.5-2.3v-4.4h-1.2v-0.8h1.2v-2.5h1v2.5h2.7V359.5z"/>
	<path class="st0" d="M327.1,366.7v-8h0.9v1.2c0.4-0.3,0.9-0.5,1.4-0.8c0.6-0.3,1.1-0.4,1.6-0.5v1c-0.5,0.1-0.9,0.2-1.4,0.4
		c-0.5,0.2-0.9,0.4-1.2,0.5l-0.4,0.2v6H327.1z"/>
	<path class="st0" d="M338,361v4.3c0,0.4,0.4,0.6,1,0.7l0,0.8c-0.8,0-1.4-0.2-1.8-0.6c-1,0.4-2,0.7-3,0.7c-0.7,0-1.3-0.2-1.6-0.6
		c-0.4-0.4-0.6-1-0.6-1.8s0.2-1.3,0.6-1.7c0.4-0.4,1-0.6,1.8-0.7l2.7-0.3V361c0-0.6-0.1-1-0.4-1.3c-0.3-0.3-0.6-0.4-1-0.4
		c-0.7,0-1.6,0.1-2.7,0.2l-0.5,0l0-0.8c1.2-0.2,2.2-0.3,3.1-0.3s1.5,0.2,1.9,0.6S338,360.2,338,361z M333,364.4
		c0,1.1,0.4,1.6,1.3,1.6c0.4,0,0.8,0,1.3-0.1c0.5-0.1,0.8-0.2,1.1-0.3l0.4-0.1v-2.9l-2.6,0.3c-0.5,0-0.9,0.2-1.1,0.4
		C333.1,363.5,333,363.9,333,364.4z"/>
	<path class="st0" d="M344.5,359.5h-2.7v4c0,1,0.1,1.7,0.2,2s0.5,0.5,1.1,0.5l1.5-0.1l0.1,0.8c-0.7,0.1-1.2,0.2-1.6,0.2
		c-0.8,0-1.4-0.2-1.7-0.6c-0.3-0.4-0.5-1.2-0.5-2.3v-4.4h-1.2v-0.8h1.2v-2.5h1v2.5h2.7V359.5z"/>
	<path class="st0" d="M351.3,365.9l0.5,0l0,0.8c-1.2,0.1-2.2,0.2-3.1,0.2c-1.2,0-2-0.4-2.4-1c-0.5-0.7-0.7-1.7-0.7-3.1
		c0-2.8,1.1-4.2,3.3-4.2c1.1,0,1.8,0.3,2.4,0.9s0.8,1.6,0.8,2.9l0,0.8h-5.4c0,1,0.2,1.7,0.5,2.2s0.9,0.7,1.7,0.7
		C349.7,366,350.5,365.9,351.3,365.9z M346.7,362.3h4.5c0-1.1-0.2-1.8-0.5-2.3c-0.3-0.4-0.9-0.7-1.7-0.7s-1.3,0.2-1.7,0.7
		S346.7,361.2,346.7,362.3z"/>
	<path class="st0" d="M360.6,367.9c0,0.9-0.3,1.6-0.9,2c-0.6,0.4-1.5,0.6-2.7,0.6c-1.2,0-2.1-0.2-2.5-0.5c-0.5-0.4-0.7-1-0.7-1.9
		c0-0.4,0.1-0.8,0.3-1.1c0.2-0.3,0.5-0.6,1-0.9c-0.3-0.2-0.4-0.5-0.4-1.1c0-0.2,0.1-0.5,0.4-1l0.1-0.2c-0.9-0.4-1.3-1.2-1.3-2.4
		c0-1.8,1-2.7,2.9-2.7c0.5,0,1,0.1,1.4,0.2l0.2,0l2.3,0v0.8l-1.6,0c0.4,0.4,0.6,1,0.6,1.9s-0.2,1.5-0.7,1.9
		c-0.5,0.4-1.2,0.6-2.3,0.6c-0.3,0-0.6,0-0.8-0.1c-0.2,0.5-0.3,0.9-0.3,1c0,0.4,0.1,0.6,0.3,0.6s0.8,0.1,1.9,0.1
		c1,0,1.8,0.2,2.2,0.5C360.4,366.4,360.6,367,360.6,367.9z M354.7,367.9c0,0.6,0.2,1.1,0.5,1.3s0.9,0.4,1.9,0.4c0.9,0,1.6-0.1,2-0.4
		c0.4-0.3,0.6-0.7,0.6-1.3s-0.1-1-0.4-1.2c-0.3-0.2-0.8-0.3-1.6-0.3l-1.8-0.1c-0.4,0.3-0.7,0.5-0.8,0.7
		C354.8,367.3,354.7,367.6,354.7,367.9z M354.8,361.2c0,0.7,0.1,1.2,0.4,1.5c0.3,0.3,0.8,0.4,1.5,0.4c0.7,0,1.2-0.1,1.5-0.4
		c0.3-0.3,0.4-0.8,0.4-1.5c0-0.7-0.1-1.2-0.4-1.5c-0.3-0.3-0.8-0.4-1.5-0.4c-0.7,0-1.2,0.1-1.5,0.4S354.8,360.5,354.8,361.2z"/>
	<path class="st0" d="M361.5,358.7h1l2.1,7.2h0.6l2.1-7.2h1l-3.5,11.6h-1l1.1-3.6h-1.1L361.5,358.7z"/>
</g>
<g class="st2">
	<path class="st0" d="M374,364v2.7h-0.8v-6.9h2.6c0.7,0,1.3,0.2,1.7,0.5s0.6,0.9,0.6,1.6c0,1.1-0.4,1.7-1.3,2l1.3,2.8h-0.9L376,364
		H374z M375.8,363.3c0.9,0,1.4-0.5,1.4-1.5s-0.5-1.5-1.4-1.5H374v2.9H375.8z"/>
	<path class="st0" d="M382.6,366l0.3,0l0,0.6c-0.8,0.1-1.4,0.2-2,0.2c-0.7,0-1.2-0.2-1.5-0.6c-0.3-0.4-0.5-1.1-0.5-1.9
		c0-1.8,0.7-2.6,2.1-2.6c0.7,0,1.2,0.2,1.5,0.6c0.3,0.4,0.5,1,0.5,1.8l0,0.6h-3.3c0,0.6,0.1,1,0.3,1.2c0.2,0.3,0.5,0.4,1,0.4
		C381.6,366.1,382.1,366.1,382.6,366z M382.3,363.9c0-0.6-0.1-1-0.3-1.3c-0.2-0.3-0.5-0.4-1-0.4c-0.4,0-0.8,0.1-1,0.4
		c-0.2,0.3-0.3,0.7-0.3,1.3H382.3z"/>
	<path class="st0" d="M384.3,368.9v-7.2h0.7v0.4c0.5-0.3,1-0.5,1.5-0.5c0.6,0,1.1,0.2,1.4,0.6c0.3,0.4,0.4,1.1,0.4,2s-0.2,1.6-0.5,2
		c-0.3,0.4-0.9,0.6-1.7,0.6c-0.4,0-0.8,0-1.1-0.1v2.2H384.3z M386.4,362.2c-0.2,0-0.4,0-0.6,0.1c-0.2,0.1-0.4,0.1-0.5,0.2l-0.2,0.1
		v3.4c0.5,0.1,0.8,0.1,1.1,0.1c0.5,0,0.9-0.2,1.1-0.5c0.2-0.3,0.3-0.8,0.3-1.5s-0.1-1.2-0.3-1.5
		C387.1,362.4,386.8,362.2,386.4,362.2z"/>
	<path class="st0" d="M389.3,364.2c0-0.9,0.2-1.6,0.5-2c0.3-0.4,0.9-0.6,1.7-0.6s1.3,0.2,1.7,0.6c0.3,0.4,0.5,1.1,0.5,2
		s-0.2,1.6-0.5,2c-0.3,0.4-0.9,0.6-1.7,0.6s-1.4-0.2-1.7-0.6C389.5,365.7,389.3,365.1,389.3,364.2z M390.1,364.1
		c0,0.7,0.1,1.2,0.3,1.5c0.2,0.3,0.5,0.4,1.1,0.4s0.9-0.1,1.1-0.4c0.2-0.3,0.3-0.8,0.3-1.5s-0.1-1.2-0.3-1.5
		c-0.2-0.3-0.6-0.4-1.1-0.4s-0.9,0.1-1.1,0.4C390.2,362.9,390.1,363.4,390.1,364.1z"/>
	<path class="st0" d="M394.8,366.7v-5h0.7v0.7c0.6-0.4,1.2-0.7,1.8-0.8v0.8c-0.3,0.1-0.6,0.1-0.9,0.2s-0.5,0.2-0.7,0.3l-0.2,0.1v3.7
		H394.8z"/>
</g>
<g class="st2">
	<path class="st0" d="M400.9,362.3h-1.6v2.4c0,0.6,0,1,0.1,1.1s0.3,0.3,0.6,0.3l0.9-0.1l0,0.6c-0.4,0.1-0.8,0.1-1,0.1
		c-0.5,0-0.9-0.1-1.1-0.4c-0.2-0.3-0.3-0.7-0.3-1.5v-2.6h-0.7v-0.7h0.7v-1.5h0.7v1.5h1.6V362.3z"/>
	<path class="st0" d="M402.4,366.6l2.8-7l0.7,0.2l-2.8,7L402.4,366.6z"/>
</g>
<g class="st2">
	<path class="st0" d="M408.8,364v2.7h-0.8v-6.9h2.6c0.7,0,1.3,0.2,1.7,0.5s0.6,0.9,0.6,1.6c0,1.1-0.4,1.7-1.3,2l1.3,2.8H412
		l-1.2-2.7H408.8z M410.6,363.3c0.9,0,1.4-0.5,1.4-1.5s-0.5-1.5-1.4-1.5h-1.8v2.9H410.6z"/>
	<path class="st0" d="M417.4,366l0.3,0l0,0.6c-0.8,0.1-1.4,0.2-2,0.2c-0.7,0-1.2-0.2-1.5-0.6c-0.3-0.4-0.5-1.1-0.5-1.9
		c0-1.8,0.7-2.6,2.1-2.6c0.7,0,1.2,0.2,1.5,0.6c0.3,0.4,0.5,1,0.5,1.8l0,0.6h-3.3c0,0.6,0.1,1,0.3,1.2c0.2,0.3,0.5,0.4,1,0.4
		C416.4,366.1,416.9,366.1,417.4,366z M417.1,363.9c0-0.6-0.1-1-0.3-1.3c-0.2-0.3-0.5-0.4-1-0.4c-0.4,0-0.8,0.1-1,0.4
		c-0.2,0.3-0.3,0.7-0.3,1.3H417.1z"/>
	<path class="st0" d="M422.6,363.2v2.6c0,0.2,0.2,0.4,0.6,0.4l0,0.6c-0.5,0-0.9-0.1-1.2-0.4c-0.6,0.3-1.2,0.4-1.8,0.4
		c-0.5,0-0.8-0.1-1.1-0.4c-0.2-0.3-0.4-0.6-0.4-1.1c0-0.5,0.1-0.8,0.4-1.1c0.2-0.2,0.6-0.4,1.2-0.4l1.6-0.1v-0.4
		c0-0.3-0.1-0.6-0.2-0.7s-0.3-0.2-0.6-0.2c-0.5,0-1.1,0-1.7,0.1l-0.3,0l0-0.6c0.7-0.1,1.4-0.2,1.9-0.2c0.6,0,1,0.1,1.2,0.4
		S422.6,362.6,422.6,363.2z M419.5,365.2c0,0.6,0.3,0.9,0.8,0.9c0.5,0,0.9-0.1,1.3-0.2l0.2-0.1v-1.7l-1.5,0.1
		c-0.3,0-0.5,0.1-0.7,0.3S419.5,364.9,419.5,365.2z"/>
	<path class="st0" d="M427.9,359.5v7.2h-0.7v-0.3c-0.5,0.3-1,0.4-1.5,0.4c-0.3,0-0.5,0-0.7-0.1c-0.2-0.1-0.4-0.2-0.6-0.4
		c-0.4-0.4-0.5-1-0.5-2c0-1,0.2-1.7,0.5-2.1s0.9-0.6,1.6-0.6c0.4,0,0.8,0,1.2,0.1v-2.2H427.9z M425.3,366c0.1,0,0.3,0.1,0.5,0.1
		c0.2,0,0.4,0,0.6-0.1c0.2-0.1,0.4-0.1,0.6-0.2l0.2-0.1v-3.4c-0.4-0.1-0.8-0.1-1.2-0.1c-0.5,0-0.9,0.2-1.1,0.5s-0.3,0.8-0.3,1.5
		c0,0.8,0.1,1.3,0.3,1.6C425.1,365.9,425.2,366,425.3,366z"/>
	<path class="st0" d="M436.9,363.3c0,1.2-0.2,2.1-0.6,2.7c-0.4,0.6-1.1,0.8-2.1,0.8s-1.8-0.3-2.1-0.8c-0.4-0.6-0.6-1.5-0.6-2.7
		s0.2-2.1,0.6-2.7c0.4-0.6,1.1-0.9,2.1-0.9c1,0,1.7,0.3,2.1,0.9C436.7,361.1,436.9,362,436.9,363.3z M432.2,363.2
		c0,1,0.1,1.7,0.4,2.2s0.8,0.7,1.5,0.7s1.3-0.2,1.5-0.7c0.3-0.4,0.4-1.2,0.4-2.2c0-1-0.1-1.8-0.4-2.2s-0.8-0.7-1.5-0.7
		s-1.3,0.2-1.5,0.7C432.3,361.5,432.2,362.2,432.2,363.2z"/>
	<path class="st0" d="M441.3,361.7h0.8v5h-0.8v-0.3c-0.5,0.3-1,0.4-1.5,0.4c-0.7,0-1.1-0.2-1.4-0.5c-0.2-0.4-0.3-1-0.3-2v-2.6h0.8
		v2.6c0,0.7,0.1,1.2,0.2,1.5c0.1,0.2,0.4,0.4,0.9,0.4c0.2,0,0.4,0,0.7-0.1c0.2-0.1,0.4-0.1,0.5-0.2l0.2-0.1V361.7z"/>
	<path class="st0" d="M446.1,362.3h-1.6v2.4c0,0.6,0,1,0.1,1.1c0.1,0.2,0.3,0.3,0.6,0.3l0.9-0.1l0,0.6c-0.4,0.1-0.8,0.1-1,0.1
		c-0.5,0-0.9-0.1-1.1-0.4c-0.2-0.3-0.3-0.7-0.3-1.5v-2.6H443v-0.7h0.7v-1.5h0.7v1.5h1.6V362.3z"/>
</g>
</svg>
