<?xml version="1.0" encoding="utf-8"?>
<!-- Generator: Adobe Illustrator 21.0.2, SVG Export Plug-In . SVG Version: 6.00 Build 0)  -->
<svg version="1.1" id="Layer_1" xmlns="http://www.w3.org/2000/svg" xmlns:xlink="http://www.w3.org/1999/xlink" x="0px" y="0px"
	 viewBox="0 0 613.5 145" style="enable-background:new 0 0 613.5 145;" xml:space="preserve">
<style type="text/css">
	.st0{fill:#FFFFFF;}
</style>
<g>
	<path class="st0" d="M365.1,39.2h14.3v14.2h-14.3V39.2z M365.1,81.7h14.3v14.2h-14.3V81.7z"/>
	<path class="st0" d="M439.4,86h-7.4l-1.6,3.1c-2.2,0.2-4.2,0.4-6.7,0.4c-15.2,0-17.5-4.2-17.5-21.2c0-17.1,2.3-21,17.5-21
		c2.7,0,5.2,0.2,7.5,0.4l1.5,2.3l6.7,0.1l0.1-8.9c0,0-8.5-2.4-18.7-2.4c-19,0-26.1,4.3-26.1,28.8c0,24.5,7.1,30.5,26.1,30.5
		c12.7,0,18.7-4,18.7-4L439.4,86z"/>
	<path class="st0" d="M146,80.9V47.5h12.4l5-9H146V21.9h-11v16.7h-7.9v9h7.9v33.9c0,9.1,4.9,15.2,14.4,15.2c1.6,0,4.6,0,6.1-0.4
		l2.8-8.2C145.3,88.8,146,85.7,146,80.9"/>
	<path class="st0" d="M269.2,70l-10.7-4.1l10.4-3.7L286,38.9h-13.1l-16.1,21.8c-1.1,1.1-2.5,2.3-4.3,2.3l-3.2,0V14.1h-13.2v8.1
		l2.5,1.9v72.8l10.7,0V68.6l3.2,0c2,0,3.2,0.9,4.3,2.4L273.3,97l14.8,0L269.2,70z"/>
	<path class="st0" d="M219.5,87.3l0-36c0,0,0.4-11.1-6.9-12.7c-8.6-1.9-22.7-0.6-35.8,2.5l0,8c0,0,15.4-3.2,25.9-2.4
		c5.3,0.4,5.9,4,5.9,5.7v9.5l-5.4-1.9c0,0-13.9,2.1-17.3,2.9c-6.1,1.5-13.1,3.1-13.1,13.9v5.8c0,6.2,2.4,13.8,11.6,14.8
		c1.6,0.2,8,0.5,11.7-0.7c4.7-1.9,12.8-5.6,12.8-5.6c0.3,2.5,3.4,6.2,10,6.2h3.2l0-8.3L219.5,87.3z M208.6,85.6
		c-7.6,3-11.3,3.2-15.1,3.2c-8.5,0-10.3-1.4-10.3-7.6c0-7.6,0.3-8,4.6-10.1c1.9-0.9,20.8-6.5,20.8-6.5L208.6,85.6z"/>
	<path class="st0" d="M500,87.4l0-36c0,0,0.4-11.1-6.9-12.7c-8.6-1.8-22.7-0.6-35.8,2.5l0,8c0,0,15.4-3.2,25.9-2.4
		c5.3,0.4,5.9,4,5.9,5.7V62l-5.4-1.9c0,0-13.9,2.1-17.3,2.9c-6.1,1.5-13.1,3.1-13.1,13.9v5.8c0,6.2,2.4,13.8,11.6,14.8
		c1.6,0.2,8,0.5,11.7-0.7c4.7-1.9,12.8-5.6,12.8-5.6c0.3,2.5,3.4,6.2,10,6.2h3.2l0-8.3L500,87.4z M489,85.7
		c-7.6,3-11.3,3.2-15.1,3.2c-8.5,0-10.3-1.4-10.3-7.6c0-7.6,0.3-8,4.6-10.1c1.9-0.9,20.8-6.5,20.8-6.5L489,85.7z"/>
	<path class="st0" d="M526.9,39l3.4,5.7c1.1,0.6,6.6-5.4,7.9-5.6c1.8-0.2,6.4-0.7,11.7-0.1l0,9.1c-11.1-1.9-18.9,1.8-18.9,1.8v47.2
		h-11.4V39H526.9z"/>
	<path class="st0" d="M325.2,89.1c11,0,17.9-1.7,17.9-1.7l1.7,7c0,0-6.2,3.5-18.7,3.5c-18.4,0-29.6-3.5-29.6-29.6
		c0-7.8,1.1-15.1,2.9-19.4c3.3-7.8,12.3-10.2,25.2-10.2c10,0,17.2,1.1,21,5.8c3,4,4.2,7.6,4.2,17.3c0,2.2-0.1,4.3-0.2,7.4L315,73.4
		l-7.3-5c0,0,0.1,13.2,3.2,16.4C313.9,87.9,317.7,89.1,325.2,89.1 M325.8,47.1c-17.5,0-17.4,3.6-18,19.9l32-5.6
		C339.7,50,338.8,47.1,325.8,47.1"/>
	<path class="st0" d="M586.5,89.1c11,0,17.9-1.7,17.9-1.7l1.7,7c0,0-6.1,3.5-18.7,3.5c-18.4,0-29.6-3.5-29.6-29.6
		c0-7.8,1.1-15.1,2.9-19.4C564,41,573,38.7,585.9,38.7c10,0,17.2,1.1,21,5.8c3,4,4.2,7.6,4.2,17.3c0,2.2-0.1,4.3-0.2,7.4l-34.5,4.2
		l-7.3-5c0,0,0.1,13.2,3.2,16.4C575.3,87.9,579,89.1,586.5,89.1 M587.1,47.1c-17.5,0-17.4,3.6-18,19.9l32-5.6
		C601.1,50,600.1,47.1,587.1,47.1"/>
	<polygon class="st0" points="50.3,6.9 50.3,7.2 50.3,7.1 2.3,34.7 2.3,53.2 17.4,61.5 17.4,43.3 50.4,24 84,43 84,81.6 84,81.6 
		51.1,100.8 2.3,73.6 2.3,90.6 51.1,117.9 99.1,90.1 99.1,34.2 	"/>
</g>
</svg>
